<?xml version="1.0" encoding="UTF-8" standalone="no"?>
<!DOCTYPE svg PUBLIC "-//W3C//DTD SVG 1.1//EN"
 "http://www.w3.org/Graphics/SVG/1.1/DTD/svg11.dtd">
<!-- Generated by graphviz version 2.30.1 (20180420.1509)
 -->
<!-- Title: TrjData Pages: 1 -->
<svg width="233pt" height="230pt"
 viewBox="0.00 0.00 233.00 230.00" xmlns="http://www.w3.org/2000/svg" xmlns:xlink="http://www.w3.org/1999/xlink">
<g id="graph0" class="graph" transform="scale(1 1) rotate(0) translate(4 226)">
<title>TrjData</title>
<polygon fill="white" stroke="white" points="-4,5 -4,-226 230,-226 230,5 -4,5"/>
<!-- Node1 -->
<g id="node1" class="node"><title>Node1</title>
<polygon fill="#bfbfbf" stroke="black" points="73.5,-0.5 73.5,-19.5 122.5,-19.5 122.5,-0.5 73.5,-0.5"/>
<text text-anchor="middle" x="98" y="-7.5" font-family="Helvetica,sans-Serif" font-size="10.00">TrjData</text>
</g>
<!-- Node2 -->
<g id="node2" class="node"><title>Node2</title>
<g id="a_node2"><a xlink:href="classVector.html" target="_top" xlink:title="Vector">
<polygon fill="white" stroke="black" points="-0.5,-202.5 -0.5,-221.5 44.5,-221.5 44.5,-202.5 -0.5,-202.5"/>
<text text-anchor="middle" x="22" y="-209.5" font-family="Helvetica,sans-Serif" font-size="10.00">Vector</text>
</a>
</g>
</g>
<!-- Node2&#45;&gt;Node1 -->
<g id="edge1" class="edge"><title>Node2&#45;&gt;Node1</title>
<path fill="none" stroke="#9a32cd" stroke-dasharray="5,2" d="M18.0137,-192.087C13.3303,-164.903 8.56506,-114.092 29,-78 43.2323,-52.863 69.7397,-31.1026 85.432,-19.6348"/>
<polygon fill="#9a32cd" stroke="#9a32cd" points="14.6273,-193.013 19.9421,-202.179 21.5029,-191.7 14.6273,-193.013"/>
<text text-anchor="middle" x="33.5" y="-92" font-family="Helvetica,sans-Serif" font-size="10.00"> y</text>
<text text-anchor="middle" x="33.5" y="-81" font-family="Helvetica,sans-Serif" font-size="10.00">Y</text>
</g>
<!-- Node3 -->
<g id="node3" class="node"><title>Node3</title>
<g id="a_node3"><a xlink:href="classDE.html" target="_top" xlink:title="DE">
<polygon fill="white" stroke="black" points="47.5,-79.5 47.5,-98.5 78.5,-98.5 78.5,-79.5 47.5,-79.5"/>
<text text-anchor="middle" x="63" y="-86.5" font-family="Helvetica,sans-Serif" font-size="10.00">DE</text>
</a>
</g>
</g>
<!-- Node2&#45;&gt;Node3 -->
<g id="edge3" class="edge"><title>Node2&#45;&gt;Node3</title>
<path fill="none" stroke="#9a32cd" stroke-dasharray="5,2" d="M21.8789,-192.284C22.4515,-172.792 25.3648,-141.834 37,-118 40.6668,-110.489 47.0226,-103.588 52.532,-98.5173"/>
<polygon fill="#9a32cd" stroke="#9a32cd" points="18.3791,-192.255 21.7641,-202.295 25.3787,-192.335 18.3791,-192.255"/>
<text text-anchor="middle" x="51" y="-176" font-family="Helvetica,sans-Serif" font-size="10.00"> ypout</text>
<text text-anchor="middle" x="51" y="-165" font-family="Helvetica,sans-Serif" font-size="10.00">yy</text>
<text text-anchor="middle" x="51" y="-154" font-family="Helvetica,sans-Serif" font-size="10.00">f</text>
<text text-anchor="middle" x="51" y="-143" font-family="Helvetica,sans-Serif" font-size="10.00">yp</text>
<text text-anchor="middle" x="51" y="-132" font-family="Helvetica,sans-Serif" font-size="10.00">p</text>
<text text-anchor="middle" x="51" y="-121" font-family="Helvetica,sans-Serif" font-size="10.00">wt</text>
</g>
<!-- Node3&#45;&gt;Node1 -->
<g id="edge2" class="edge"><title>Node3&#45;&gt;Node1</title>
<path fill="none" stroke="#9a32cd" stroke-dasharray="5,2" d="M69.1198,-69.6471C72.5316,-60.0521 77.0794,-48.2112 82,-38 85.0277,-31.7171 89.0277,-24.9671 92.2707,-19.7878"/>
<polygon fill="#9a32cd" stroke="#9a32cd" points="65.7358,-68.7247 65.791,-79.3193 72.3548,-71.0026 65.7358,-68.7247"/>
<text text-anchor="middle" x="91.5" y="-52" font-family="Helvetica,sans-Serif" font-size="10.00"> Var</text>
<text text-anchor="middle" x="91.5" y="-41" font-family="Helvetica,sans-Serif" font-size="10.00">Orb</text>
</g>
<!-- Node4 -->
<g id="node4" class="node"><title>Node4</title>
<g id="a_node4"><a xlink:href="classMatrix.html" target="_top" xlink:title="Matrix">
<polygon fill="white" stroke="black" points="73,-202.5 73,-221.5 117,-221.5 117,-202.5 73,-202.5"/>
<text text-anchor="middle" x="95" y="-209.5" font-family="Helvetica,sans-Serif" font-size="10.00">Matrix</text>
</a>
</g>
</g>
<!-- Node4&#45;&gt;Node3 -->
<g id="edge4" class="edge"><title>Node4&#45;&gt;Node3</title>
<path fill="none" stroke="#9a32cd" stroke-dasharray="5,2" d="M87.8066,-192.512C86.8056,-189.68 85.8354,-186.776 85,-184 75.6787,-153.024 67.9079,-115.327 64.6478,-98.6487"/>
<polygon fill="#9a32cd" stroke="#9a32cd" points="84.6074,-193.95 91.3828,-202.095 91.1656,-191.503 84.6074,-193.95"/>
<text text-anchor="middle" x="93" y="-148.5" font-family="Helvetica,sans-Serif" font-size="10.00"> phi</text>
</g>
<!-- Node4&#45;&gt;Node1 -->
<g id="edge6" class="edge"><title>Node4&#45;&gt;Node1</title>
<path fill="none" stroke="#9a32cd" stroke-dasharray="5,2" d="M99.727,-192.205C100.254,-189.469 100.707,-186.673 101,-184 108.08,-119.499 104.588,-102.79 101,-38 100.666,-31.9723 99.9162,-25.2223 99.2496,-19.9792"/>
<polygon fill="#9a32cd" stroke="#9a32cd" points="96.2853,-191.557 97.497,-202.082 103.113,-193.099 96.2853,-191.557"/>
<text text-anchor="middle" x="120" y="-86.5" font-family="Helvetica,sans-Serif" font-size="10.00"> PhiS_</text>
</g>
<!-- Node5 -->
<g id="node5" class="node"><title>Node5</title>
<g id="a_node5"><a xlink:href="structAuxParam.html" target="_top" xlink:title="AuxParam">
<polygon fill="white" stroke="black" points="163,-79.5 163,-98.5 225,-98.5 225,-79.5 163,-79.5"/>
<text text-anchor="middle" x="194" y="-86.5" font-family="Helvetica,sans-Serif" font-size="10.00">AuxParam</text>
</a>
</g>
</g>
<!-- Node5&#45;&gt;Node1 -->
<g id="edge5" class="edge"><title>Node5&#45;&gt;Node1</title>
<path fill="none" stroke="#9a32cd" stroke-dasharray="5,2" d="M175.345,-73.037C155.498,-57.1185 124.791,-32.489 108.688,-19.5728"/>
<polygon fill="#9a32cd" stroke="#9a32cd" points="173.369,-75.9388 183.36,-79.4655 177.749,-70.4783 173.369,-75.9388"/>
<text text-anchor="middle" x="162.5" y="-46.5" font-family="Helvetica,sans-Serif" font-size="10.00"> p</text>
</g>
</g>
</svg>
