<?xml version="1.0" encoding="UTF-8" standalone="no"?>
<!DOCTYPE svg PUBLIC "-//W3C//DTD SVG 1.1//EN"
 "http://www.w3.org/Graphics/SVG/1.1/DTD/svg11.dtd">
<!-- Generated by graphviz version 2.30.1 (20180420.1509)
 -->
<!-- Title: LSQ Pages: 1 -->
<svg width="115pt" height="96pt"
 viewBox="0.00 0.00 115.00 96.00" xmlns="http://www.w3.org/2000/svg" xmlns:xlink="http://www.w3.org/1999/xlink">
<g id="graph0" class="graph" transform="scale(1 1) rotate(0) translate(4 92)">
<title>LSQ</title>
<polygon fill="white" stroke="white" points="-4,5 -4,-92 112,-92 112,5 -4,5"/>
<!-- Node1 -->
<g id="node1" class="node"><title>Node1</title>
<polygon fill="#bfbfbf" stroke="black" points="35,-0.5 35,-19.5 71,-19.5 71,-0.5 35,-0.5"/>
<text text-anchor="middle" x="53" y="-7.5" font-family="Helvetica,sans-Serif" font-size="10.00">LSQ</text>
</g>
<!-- Node2 -->
<g id="node2" class="node"><title>Node2</title>
<g id="a_node2"><a xlink:href="classVector.html" target="_top" xlink:title="Vector">
<polygon fill="white" stroke="black" points="-0.5,-68.5 -0.5,-87.5 44.5,-87.5 44.5,-68.5 -0.5,-68.5"/>
<text text-anchor="middle" x="22" y="-75.5" font-family="Helvetica,sans-Serif" font-size="10.00">Vector</text>
</a>
</g>
</g>
<!-- Node2&#45;&gt;Node1 -->
<g id="edge1" class="edge"><title>Node2&#45;&gt;Node1</title>
<path fill="none" stroke="#9a32cd" stroke-dasharray="5,2" d="M30.3672,-59.1859C36.3482,-46.4523 44.1412,-29.8607 48.8474,-19.8411"/>
<polygon fill="#9a32cd" stroke="#9a32cd" points="27.1362,-57.8324 26.0527,-68.3717 33.4721,-60.8083 27.1362,-57.8324"/>
<text text-anchor="middle" x="45.5" y="-41.5" font-family="Helvetica,sans-Serif" font-size="10.00"> d</text>
</g>
<!-- Node3 -->
<g id="node3" class="node"><title>Node3</title>
<g id="a_node3"><a xlink:href="classMatrix.html" target="_top" xlink:title="Matrix">
<polygon fill="white" stroke="black" points="63,-68.5 63,-87.5 107,-87.5 107,-68.5 63,-68.5"/>
<text text-anchor="middle" x="85" y="-75.5" font-family="Helvetica,sans-Serif" font-size="10.00">Matrix</text>
</a>
</g>
</g>
<!-- Node3&#45;&gt;Node1 -->
<g id="edge2" class="edge"><title>Node3&#45;&gt;Node1</title>
<path fill="none" stroke="#9a32cd" stroke-dasharray="5,2" d="M76.3629,-59.1859C70.189,-46.4523 62.1446,-29.8607 57.2866,-19.8411"/>
<polygon fill="#9a32cd" stroke="#9a32cd" points="73.3044,-60.9005 80.8166,-68.3717 79.6031,-57.8465 73.3044,-60.9005"/>
<text text-anchor="middle" x="77.5" y="-41.5" font-family="Helvetica,sans-Serif" font-size="10.00"> R</text>
</g>
</g>
</svg>
