<?xml version="1.0" encoding="UTF-8" standalone="no"?>
<!DOCTYPE svg PUBLIC "-//W3C//DTD SVG 1.1//EN"
 "http://www.w3.org/Graphics/SVG/1.1/DTD/svg11.dtd">
<!-- Generated by graphviz version 2.30.1 (20180420.1509)
 -->
<!-- Title: LSQ::Init Pages: 1 -->
<svg width="266pt" height="66pt"
 viewBox="0.00 0.00 266.00 66.00" xmlns="http://www.w3.org/2000/svg" xmlns:xlink="http://www.w3.org/1999/xlink">
<g id="graph0" class="graph" transform="scale(1 1) rotate(0) translate(4 62)">
<title>LSQ::Init</title>
<polygon fill="white" stroke="white" points="-4,5 -4,-62 263,-62 263,5 -4,5"/>
<!-- Node1 -->
<g id="node1" class="node"><title>Node1</title>
<polygon fill="#bfbfbf" stroke="black" points="0,-19.5 0,-38.5 56,-38.5 56,-19.5 0,-19.5"/>
<text text-anchor="middle" x="28" y="-26.5" font-family="Helvetica,sans-Serif" font-size="10.00">LSQ::Init</text>
</g>
<!-- Node2 -->
<g id="node2" class="node"><title>Node2</title>
<g id="a_node2"><a xlink:href="SAT__Filter_8cpp.html#a3e84458a7d84898487cdf6d4bd3a483e" target="_top" xlink:title="InvUpper">
<polygon fill="white" stroke="black" points="92,-19.5 92,-38.5 148,-38.5 148,-19.5 92,-19.5"/>
<text text-anchor="middle" x="120" y="-26.5" font-family="Helvetica,sans-Serif" font-size="10.00">InvUpper</text>
</a>
</g>
</g>
<!-- Node1&#45;&gt;Node2 -->
<g id="edge1" class="edge"><title>Node1&#45;&gt;Node2</title>
<path fill="none" stroke="midnightblue" d="M56.003,-29C64.0277,-29 72.9665,-29 81.5309,-29"/>
<polygon fill="midnightblue" stroke="midnightblue" points="81.7051,-32.5001 91.705,-29 81.705,-25.5001 81.7051,-32.5001"/>
</g>
<!-- Node3 -->
<g id="node3" class="node"><title>Node3</title>
<g id="a_node3"><a xlink:href="classMatrix.html#aec0c767dcd6da0724ccb6df4ec0f2a82" target="_top" xlink:title="Matrix::size1">
<polygon fill="white" stroke="black" points="184.5,-38.5 184.5,-57.5 257.5,-57.5 257.5,-38.5 184.5,-38.5"/>
<text text-anchor="middle" x="221" y="-45.5" font-family="Helvetica,sans-Serif" font-size="10.00">Matrix::size1</text>
</a>
</g>
</g>
<!-- Node2&#45;&gt;Node3 -->
<g id="edge2" class="edge"><title>Node2&#45;&gt;Node3</title>
<path fill="none" stroke="midnightblue" d="M148.052,-34.1918C156.205,-35.7565 165.388,-37.519 174.399,-39.2482"/>
<polygon fill="midnightblue" stroke="midnightblue" points="173.953,-42.7265 184.434,-41.1741 175.272,-35.852 173.953,-42.7265"/>
</g>
<!-- Node4 -->
<g id="node4" class="node"><title>Node4</title>
<g id="a_node4"><a xlink:href="classMatrix.html#a306220f01f6859a16e738590214d008d" target="_top" xlink:title="Matrix::size2">
<polygon fill="white" stroke="black" points="184.5,-0.5 184.5,-19.5 257.5,-19.5 257.5,-0.5 184.5,-0.5"/>
<text text-anchor="middle" x="221" y="-7.5" font-family="Helvetica,sans-Serif" font-size="10.00">Matrix::size2</text>
</a>
</g>
</g>
<!-- Node2&#45;&gt;Node4 -->
<g id="edge3" class="edge"><title>Node2&#45;&gt;Node4</title>
<path fill="none" stroke="midnightblue" d="M148.052,-23.8082C156.205,-22.2435 165.388,-20.481 174.399,-18.7518"/>
<polygon fill="midnightblue" stroke="midnightblue" points="175.272,-22.148 184.434,-16.8259 173.953,-15.2735 175.272,-22.148"/>
</g>
</g>
</svg>
