<?xml version="1.0" encoding="UTF-8" standalone="no"?>
<!DOCTYPE svg PUBLIC "-//W3C//DTD SVG 1.1//EN"
 "http://www.w3.org/Graphics/SVG/1.1/DTD/svg11.dtd">
<!-- Generated by graphviz version 2.30.1 (20180420.1509)
 -->
<!-- Title: DE Pages: 1 -->
<svg width="115pt" height="150pt"
 viewBox="0.00 0.00 115.00 150.00" xmlns="http://www.w3.org/2000/svg" xmlns:xlink="http://www.w3.org/1999/xlink">
<g id="graph0" class="graph" transform="scale(1 1) rotate(0) translate(4 146)">
<title>DE</title>
<polygon fill="white" stroke="white" points="-4,5 -4,-146 112,-146 112,5 -4,5"/>
<!-- Node1 -->
<g id="node1" class="node"><title>Node1</title>
<polygon fill="#bfbfbf" stroke="black" points="37.5,-0.5 37.5,-19.5 68.5,-19.5 68.5,-0.5 37.5,-0.5"/>
<text text-anchor="middle" x="53" y="-7.5" font-family="Helvetica,sans-Serif" font-size="10.00">DE</text>
</g>
<!-- Node2 -->
<g id="node2" class="node"><title>Node2</title>
<g id="a_node2"><a xlink:href="classVector.html" target="_top" xlink:title="Vector">
<polygon fill="white" stroke="black" points="-0.5,-122.5 -0.5,-141.5 44.5,-141.5 44.5,-122.5 -0.5,-122.5"/>
<text text-anchor="middle" x="22" y="-129.5" font-family="Helvetica,sans-Serif" font-size="10.00">Vector</text>
</a>
</g>
</g>
<!-- Node2&#45;&gt;Node1 -->
<g id="edge1" class="edge"><title>Node2&#45;&gt;Node1</title>
<path fill="none" stroke="#9a32cd" stroke-dasharray="5,2" d="M22.1814,-112.367C22.9189,-93.1484 25.6451,-62.5961 35,-38 37.4834,-31.4706 41.7842,-24.9318 45.559,-19.9247"/>
<polygon fill="#9a32cd" stroke="#9a32cd" points="18.6798,-112.398 21.9398,-122.479 25.6778,-112.566 18.6798,-112.398"/>
<text text-anchor="middle" x="49" y="-96" font-family="Helvetica,sans-Serif" font-size="10.00"> ypout</text>
<text text-anchor="middle" x="49" y="-85" font-family="Helvetica,sans-Serif" font-size="10.00">yy</text>
<text text-anchor="middle" x="49" y="-74" font-family="Helvetica,sans-Serif" font-size="10.00">f</text>
<text text-anchor="middle" x="49" y="-63" font-family="Helvetica,sans-Serif" font-size="10.00">yp</text>
<text text-anchor="middle" x="49" y="-52" font-family="Helvetica,sans-Serif" font-size="10.00">p</text>
<text text-anchor="middle" x="49" y="-41" font-family="Helvetica,sans-Serif" font-size="10.00">wt</text>
</g>
<!-- Node3 -->
<g id="node3" class="node"><title>Node3</title>
<g id="a_node3"><a xlink:href="classMatrix.html" target="_top" xlink:title="Matrix">
<polygon fill="white" stroke="black" points="63,-122.5 63,-141.5 107,-141.5 107,-122.5 63,-122.5"/>
<text text-anchor="middle" x="85" y="-129.5" font-family="Helvetica,sans-Serif" font-size="10.00">Matrix</text>
</a>
</g>
</g>
<!-- Node3&#45;&gt;Node1 -->
<g id="edge2" class="edge"><title>Node3&#45;&gt;Node1</title>
<path fill="none" stroke="#9a32cd" stroke-dasharray="5,2" d="M81.2606,-112.206C77.3328,-93.2928 70.6679,-63.3714 63,-38 61.149,-31.8753 58.649,-25.1253 56.6117,-19.9065"/>
<polygon fill="#9a32cd" stroke="#9a32cd" points="77.8676,-113.084 83.2905,-122.186 84.7271,-111.689 77.8676,-113.084"/>
<text text-anchor="middle" x="88" y="-68.5" font-family="Helvetica,sans-Serif" font-size="10.00"> phi</text>
</g>
</g>
</svg>
