<?xml version="1.0" encoding="UTF-8" standalone="no"?>
<!DOCTYPE svg PUBLIC "-//W3C//DTD SVG 1.1//EN"
 "http://www.w3.org/Graphics/SVG/1.1/DTD/svg11.dtd">
<!-- Generated by graphviz version 2.30.1 (20180420.1509)
 -->
<!-- Title: DE::Step Pages: 1 -->
<svg width="262pt" height="28pt"
 viewBox="0.00 0.00 262.00 28.00" xmlns="http://www.w3.org/2000/svg" xmlns:xlink="http://www.w3.org/1999/xlink">
<g id="graph0" class="graph" transform="scale(1 1) rotate(0) translate(4 24)">
<title>DE::Step</title>
<polygon fill="white" stroke="white" points="-4,5 -4,-24 259,-24 259,5 -4,5"/>
<!-- Node1 -->
<g id="node1" class="node"><title>Node1</title>
<polygon fill="#bfbfbf" stroke="black" points="0.5,-0.5 0.5,-19.5 57.5,-19.5 57.5,-0.5 0.5,-0.5"/>
<text text-anchor="middle" x="29" y="-7.5" font-family="Helvetica,sans-Serif" font-size="10.00">DE::Step</text>
</g>
<!-- Node2 -->
<g id="node2" class="node"><title>Node2</title>
<g id="a_node2"><a xlink:href="classDE.html#ac5af669df33d23002a4744f0217e33dc" target="_top" xlink:title="DE::Integ_">
<polygon fill="white" stroke="black" points="94,-0.5 94,-19.5 158,-19.5 158,-0.5 94,-0.5"/>
<text text-anchor="middle" x="126" y="-7.5" font-family="Helvetica,sans-Serif" font-size="10.00">DE::Integ_</text>
</a>
</g>
</g>
<!-- Node1&#45;&gt;Node2 -->
<g id="edge1" class="edge"><title>Node1&#45;&gt;Node2</title>
<path fill="none" stroke="midnightblue" d="M67.8915,-10C76.4614,-10 85.4668,-10 93.7279,-10"/>
<polygon fill="midnightblue" stroke="midnightblue" points="67.7333,-6.5001 57.7333,-10 67.7333,-13.5001 67.7333,-6.5001"/>
</g>
<!-- Node3 -->
<g id="node3" class="node"><title>Node3</title>
<g id="a_node3"><a xlink:href="classDE.html#a6a008818dc6d8ad8defd822091207093" target="_top" xlink:title="DE::Integ">
<polygon fill="white" stroke="black" points="194.5,-0.5 194.5,-19.5 253.5,-19.5 253.5,-0.5 194.5,-0.5"/>
<text text-anchor="middle" x="224" y="-7.5" font-family="Helvetica,sans-Serif" font-size="10.00">DE::Integ</text>
</a>
</g>
</g>
<!-- Node2&#45;&gt;Node3 -->
<g id="edge2" class="edge"><title>Node2&#45;&gt;Node3</title>
<path fill="none" stroke="midnightblue" d="M168.246,-10C177.013,-10 186.086,-10 194.264,-10"/>
<polygon fill="midnightblue" stroke="midnightblue" points="168.168,-6.5001 158.168,-10 168.168,-13.5001 168.168,-6.5001"/>
</g>
</g>
</svg>
