<?xml version="1.0" encoding="UTF-8" standalone="no"?>
<!DOCTYPE svg PUBLIC "-//W3C//DTD SVG 1.1//EN"
 "http://www.w3.org/Graphics/SVG/1.1/DTD/svg11.dtd">
<!-- Generated by graphviz version 2.30.1 (20180420.1509)
 -->
<!-- Title: Matrix::SetCol Pages: 1 -->
<svg width="408pt" height="132pt"
 viewBox="0.00 0.00 408.00 132.00" xmlns="http://www.w3.org/2000/svg" xmlns:xlink="http://www.w3.org/1999/xlink">
<g id="graph0" class="graph" transform="scale(1 1) rotate(0) translate(4 128)">
<title>Matrix::SetCol</title>
<polygon fill="white" stroke="white" points="-4,5 -4,-128 405,-128 405,5 -4,5"/>
<!-- Node1 -->
<g id="node1" class="node"><title>Node1</title>
<polygon fill="#bfbfbf" stroke="black" points="0,-47.5 0,-66.5 80,-66.5 80,-47.5 0,-47.5"/>
<text text-anchor="middle" x="40" y="-54.5" font-family="Helvetica,sans-Serif" font-size="10.00">Matrix::SetCol</text>
</g>
<!-- Node2 -->
<g id="node2" class="node"><title>Node2</title>
<g id="a_node2"><a xlink:href="SAT__VecMat_8cpp.html#a5bdf67234eadeb0a304f11d4537047aa" target="_top" xlink:title="Inv">
<polygon fill="white" stroke="black" points="139,-104.5 139,-123.5 169,-123.5 169,-104.5 139,-104.5"/>
<text text-anchor="middle" x="154" y="-111.5" font-family="Helvetica,sans-Serif" font-size="10.00">Inv</text>
</a>
</g>
</g>
<!-- Node1&#45;&gt;Node2 -->
<g id="edge1" class="edge"><title>Node1&#45;&gt;Node2</title>
<path fill="none" stroke="midnightblue" d="M68.7215,-71.1083C90.9573,-82.4247 121.258,-97.8456 138.816,-106.781"/>
<polygon fill="midnightblue" stroke="midnightblue" points="70.246,-67.957 59.7463,-66.5405 67.071,-74.1955 70.246,-67.957"/>
</g>
<!-- Node4 -->
<g id="node4" class="node"><title>Node4</title>
<g id="a_node4"><a xlink:href="classTrjData.html#a04f78cff1af058ffea3acfeff85bff94" target="_top" xlink:title="TrjData::PhiS">
<polygon fill="white" stroke="black" points="116,-66.5 116,-85.5 192,-85.5 192,-66.5 116,-66.5"/>
<text text-anchor="middle" x="154" y="-73.5" font-family="Helvetica,sans-Serif" font-size="10.00">TrjData::PhiS</text>
</a>
</g>
</g>
<!-- Node1&#45;&gt;Node4 -->
<g id="edge3" class="edge"><title>Node1&#45;&gt;Node4</title>
<path fill="none" stroke="midnightblue" d="M90.1675,-65.3409C98.8112,-66.8073 107.675,-68.311 115.919,-69.7096"/>
<polygon fill="midnightblue" stroke="midnightblue" points="90.6167,-61.8672 80.1722,-63.6453 89.4459,-68.7686 90.6167,-61.8672"/>
</g>
<!-- Node7 -->
<g id="node7" class="node"><title>Node7</title>
<g id="a_node7"><a xlink:href="TDRSOD_8cpp.html#a1221c5be2d6ec73e6537777a88e72894" target="_top" xlink:title="Accel">
<polygon fill="white" stroke="black" points="133.5,-28.5 133.5,-47.5 174.5,-47.5 174.5,-28.5 133.5,-28.5"/>
<text text-anchor="middle" x="154" y="-35.5" font-family="Helvetica,sans-Serif" font-size="10.00">Accel</text>
</a>
</g>
</g>
<!-- Node1&#45;&gt;Node7 -->
<g id="edge6" class="edge"><title>Node1&#45;&gt;Node7</title>
<path fill="none" stroke="midnightblue" d="M90.4617,-48.6092C105.552,-46.0493 121.284,-43.3804 133.194,-41.3599"/>
<polygon fill="midnightblue" stroke="midnightblue" points="89.4459,-45.2314 80.1722,-50.3547 90.6167,-52.1328 89.4459,-45.2314"/>
</g>
<!-- Node8 -->
<g id="node8" class="node"><title>Node8</title>
<g id="a_node8"><a xlink:href="TDRSOD_8cpp.html#a3df5b7f547d4cb81cae1bbb6d6a2962a" target="_top" xlink:title="VarEqn">
<polygon fill="white" stroke="black" points="252.5,-0.5 252.5,-19.5 301.5,-19.5 301.5,-0.5 252.5,-0.5"/>
<text text-anchor="middle" x="277" y="-7.5" font-family="Helvetica,sans-Serif" font-size="10.00">VarEqn</text>
</a>
</g>
</g>
<!-- Node1&#45;&gt;Node8 -->
<g id="edge7" class="edge"><title>Node1&#45;&gt;Node8</title>
<path fill="none" stroke="midnightblue" d="M64.1615,-42.1079C78.4945,-33.7121 97.6141,-23.9419 116,-19 163.153,-6.32587 220.851,-6.79939 252.475,-8.35042"/>
<polygon fill="midnightblue" stroke="midnightblue" points="62.2286,-39.1867 55.4897,-47.3621 65.856,-45.1735 62.2286,-39.1867"/>
</g>
<!-- Node3 -->
<g id="node3" class="node"><title>Node3</title>
<g id="a_node3"><a xlink:href="classEKF.html#a080c81bbef29da2b57caa52775f76602" target="_top" xlink:title="EKF::MeasUpdate">
<polygon fill="white" stroke="black" points="228,-104.5 228,-123.5 326,-123.5 326,-104.5 228,-104.5"/>
<text text-anchor="middle" x="277" y="-111.5" font-family="Helvetica,sans-Serif" font-size="10.00">EKF::MeasUpdate</text>
</a>
</g>
</g>
<!-- Node2&#45;&gt;Node3 -->
<g id="edge2" class="edge"><title>Node2&#45;&gt;Node3</title>
<path fill="none" stroke="midnightblue" d="M179.561,-114C193.477,-114 211.371,-114 227.959,-114"/>
<polygon fill="midnightblue" stroke="midnightblue" points="179.355,-110.5 169.355,-114 179.355,-117.5 179.355,-110.5"/>
</g>
<!-- Node5 -->
<g id="node5" class="node"><title>Node5</title>
<g id="a_node5"><a xlink:href="TDRSOD_8cpp.html#a466ab098330aeb2aa659365279071640" target="_top" xlink:title="Range_4W">
<polygon fill="white" stroke="black" points="244.5,-57.5 244.5,-76.5 309.5,-76.5 309.5,-57.5 244.5,-57.5"/>
<text text-anchor="middle" x="277" y="-64.5" font-family="Helvetica,sans-Serif" font-size="10.00">Range_4W</text>
</a>
</g>
</g>
<!-- Node4&#45;&gt;Node5 -->
<g id="edge4" class="edge"><title>Node4&#45;&gt;Node5</title>
<path fill="none" stroke="midnightblue" d="M202.326,-72.4799C216.415,-71.4319 231.506,-70.3095 244.337,-69.3551"/>
<polygon fill="midnightblue" stroke="midnightblue" points="202.004,-68.9941 192.291,-73.2263 202.523,-75.9748 202.004,-68.9941"/>
</g>
<!-- Node6 -->
<g id="node6" class="node"><title>Node6</title>
<g id="a_node6"><a xlink:href="TDRSOD_8cpp.html#a0ddf1224851353fc92bfbff6f499fa97" target="_top" xlink:title="main">
<polygon fill="white" stroke="black" points="362,-28.5 362,-47.5 400,-47.5 400,-28.5 362,-28.5"/>
<text text-anchor="middle" x="381" y="-35.5" font-family="Helvetica,sans-Serif" font-size="10.00">main</text>
</a>
</g>
</g>
<!-- Node5&#45;&gt;Node6 -->
<g id="edge5" class="edge"><title>Node5&#45;&gt;Node6</title>
<path fill="none" stroke="midnightblue" d="M319.684,-55.1487C334.424,-50.9578 350.239,-46.4614 361.975,-43.1246"/>
<polygon fill="midnightblue" stroke="midnightblue" points="318.376,-51.8818 309.714,-57.9832 320.29,-58.6149 318.376,-51.8818"/>
</g>
<!-- Node8&#45;&gt;Node6 -->
<g id="edge8" class="edge"><title>Node8&#45;&gt;Node6</title>
<path fill="none" stroke="midnightblue" d="M311.644,-19.2355C328.394,-23.8335 347.979,-29.21 361.882,-33.0264"/>
<polygon fill="midnightblue" stroke="midnightblue" points="312.227,-15.7662 301.657,-16.4941 310.374,-22.5165 312.227,-15.7662"/>
</g>
</g>
</svg>
