<?xml version="1.0" encoding="UTF-8" standalone="no"?>
<!DOCTYPE svg PUBLIC "-//W3C//DTD SVG 1.1//EN"
 "http://www.w3.org/Graphics/SVG/1.1/DTD/svg11.dtd">
<!-- Generated by graphviz version 2.30.1 (20180420.1509)
 -->
<!-- Title: LSQ::StdDev Pages: 1 -->
<svg width="382pt" height="66pt"
 viewBox="0.00 0.00 382.00 66.00" xmlns="http://www.w3.org/2000/svg" xmlns:xlink="http://www.w3.org/1999/xlink">
<g id="graph0" class="graph" transform="scale(1 1) rotate(0) translate(4 62)">
<title>LSQ::StdDev</title>
<polygon fill="white" stroke="white" points="-4,5 -4,-62 379,-62 379,5 -4,5"/>
<!-- Node1 -->
<g id="node1" class="node"><title>Node1</title>
<polygon fill="#bfbfbf" stroke="black" points="0.5,-19.5 0.5,-38.5 75.5,-38.5 75.5,-19.5 0.5,-19.5"/>
<text text-anchor="middle" x="38" y="-26.5" font-family="Helvetica,sans-Serif" font-size="10.00">LSQ::StdDev</text>
</g>
<!-- Node2 -->
<g id="node2" class="node"><title>Node2</title>
<g id="a_node2"><a xlink:href="classLSQ.html#a1747470db996bda1d339df70088c463a" target="_top" xlink:title="LSQ::Cov">
<polygon fill="white" stroke="black" points="112,-19.5 112,-38.5 172,-38.5 172,-19.5 112,-19.5"/>
<text text-anchor="middle" x="142" y="-26.5" font-family="Helvetica,sans-Serif" font-size="10.00">LSQ::Cov</text>
</a>
</g>
</g>
<!-- Node1&#45;&gt;Node2 -->
<g id="edge1" class="edge"><title>Node1&#45;&gt;Node2</title>
<path fill="none" stroke="midnightblue" d="M75.5362,-29C83.9893,-29 93.0203,-29 101.59,-29"/>
<polygon fill="midnightblue" stroke="midnightblue" points="101.745,-32.5001 111.745,-29 101.745,-25.5001 101.745,-32.5001"/>
</g>
<!-- Node3 -->
<g id="node3" class="node"><title>Node3</title>
<g id="a_node3"><a xlink:href="SAT__Filter_8cpp.html#a3e84458a7d84898487cdf6d4bd3a483e" target="_top" xlink:title="InvUpper">
<polygon fill="white" stroke="black" points="208,-19.5 208,-38.5 264,-38.5 264,-19.5 208,-19.5"/>
<text text-anchor="middle" x="236" y="-26.5" font-family="Helvetica,sans-Serif" font-size="10.00">InvUpper</text>
</a>
</g>
</g>
<!-- Node2&#45;&gt;Node3 -->
<g id="edge2" class="edge"><title>Node2&#45;&gt;Node3</title>
<path fill="none" stroke="midnightblue" d="M172.109,-29C180.268,-29 189.25,-29 197.81,-29"/>
<polygon fill="midnightblue" stroke="midnightblue" points="197.957,-32.5001 207.957,-29 197.957,-25.5001 197.957,-32.5001"/>
</g>
<!-- Node4 -->
<g id="node4" class="node"><title>Node4</title>
<g id="a_node4"><a xlink:href="classMatrix.html#aec0c767dcd6da0724ccb6df4ec0f2a82" target="_top" xlink:title="Matrix::size1">
<polygon fill="white" stroke="black" points="300.5,-38.5 300.5,-57.5 373.5,-57.5 373.5,-38.5 300.5,-38.5"/>
<text text-anchor="middle" x="337" y="-45.5" font-family="Helvetica,sans-Serif" font-size="10.00">Matrix::size1</text>
</a>
</g>
</g>
<!-- Node3&#45;&gt;Node4 -->
<g id="edge3" class="edge"><title>Node3&#45;&gt;Node4</title>
<path fill="none" stroke="midnightblue" d="M264.052,-34.1918C272.205,-35.7565 281.388,-37.519 290.399,-39.2482"/>
<polygon fill="midnightblue" stroke="midnightblue" points="289.953,-42.7265 300.434,-41.1741 291.272,-35.852 289.953,-42.7265"/>
</g>
<!-- Node5 -->
<g id="node5" class="node"><title>Node5</title>
<g id="a_node5"><a xlink:href="classMatrix.html#a306220f01f6859a16e738590214d008d" target="_top" xlink:title="Matrix::size2">
<polygon fill="white" stroke="black" points="300.5,-0.5 300.5,-19.5 373.5,-19.5 373.5,-0.5 300.5,-0.5"/>
<text text-anchor="middle" x="337" y="-7.5" font-family="Helvetica,sans-Serif" font-size="10.00">Matrix::size2</text>
</a>
</g>
</g>
<!-- Node3&#45;&gt;Node5 -->
<g id="edge4" class="edge"><title>Node3&#45;&gt;Node5</title>
<path fill="none" stroke="midnightblue" d="M264.052,-23.8082C272.205,-22.2435 281.388,-20.481 290.399,-18.7518"/>
<polygon fill="midnightblue" stroke="midnightblue" points="291.272,-22.148 300.434,-16.8259 289.953,-15.2735 291.272,-22.148"/>
</g>
</g>
</svg>
