<?xml version="1.0" encoding="UTF-8" standalone="no"?>
<!DOCTYPE svg PUBLIC "-//W3C//DTD SVG 1.1//EN"
 "http://www.w3.org/Graphics/SVG/1.1/DTD/svg11.dtd">
<!-- Generated by graphviz version 2.30.1 (20180420.1509)
 -->
<!-- Title: Matrix::Col Pages: 1 -->
<svg width="510pt" height="189pt"
 viewBox="0.00 0.00 510.00 189.00" xmlns="http://www.w3.org/2000/svg" xmlns:xlink="http://www.w3.org/1999/xlink">
<g id="graph0" class="graph" transform="scale(1 1) rotate(0) translate(4 185)">
<title>Matrix::Col</title>
<polygon fill="white" stroke="white" points="-4,5 -4,-185 507,-185 507,5 -4,5"/>
<!-- Node1 -->
<g id="node1" class="node"><title>Node1</title>
<polygon fill="#bfbfbf" stroke="black" points="0.5,-123.5 0.5,-142.5 65.5,-142.5 65.5,-123.5 0.5,-123.5"/>
<text text-anchor="middle" x="33" y="-130.5" font-family="Helvetica,sans-Serif" font-size="10.00">Matrix::Col</text>
</g>
<!-- Node2 -->
<g id="node2" class="node"><title>Node2</title>
<g id="a_node2"><a xlink:href="classDE.html#a6437bef70b2bb04c1b041e6ea86665ad" target="_top" xlink:title="DE::Intrp">
<polygon fill="white" stroke="black" points="114,-161.5 114,-180.5 170,-180.5 170,-161.5 114,-161.5"/>
<text text-anchor="middle" x="142" y="-168.5" font-family="Helvetica,sans-Serif" font-size="10.00">DE::Intrp</text>
</a>
</g>
</g>
<!-- Node1&#45;&gt;Node2 -->
<g id="edge1" class="edge"><title>Node1&#45;&gt;Node2</title>
<path fill="none" stroke="midnightblue" d="M70.5258,-145.972C84.7812,-151.034 100.83,-156.734 114.008,-161.414"/>
<polygon fill="midnightblue" stroke="midnightblue" points="71.5953,-142.638 61.0006,-142.589 69.2527,-149.234 71.5953,-142.638"/>
</g>
<!-- Node3 -->
<g id="node3" class="node"><title>Node3</title>
<g id="a_node3"><a xlink:href="SAT__Kepler_8h.html#ad41abe3ee1647b2de98425457c6fdce2" target="_top" xlink:title="StatePartials">
<polygon fill="white" stroke="black" points="105.5,-123.5 105.5,-142.5 178.5,-142.5 178.5,-123.5 105.5,-123.5"/>
<text text-anchor="middle" x="142" y="-130.5" font-family="Helvetica,sans-Serif" font-size="10.00">StatePartials</text>
</a>
</g>
</g>
<!-- Node1&#45;&gt;Node3 -->
<g id="edge2" class="edge"><title>Node1&#45;&gt;Node3</title>
<path fill="none" stroke="midnightblue" d="M75.7899,-133C85.5056,-133 95.763,-133 105.194,-133"/>
<polygon fill="midnightblue" stroke="midnightblue" points="75.5248,-129.5 65.5248,-133 75.5248,-136.5 75.5248,-129.5"/>
</g>
<!-- Node6 -->
<g id="node6" class="node"><title>Node6</title>
<g id="a_node6"><a xlink:href="classMatrix.html#ae9f1574a9cf6595c64ce1236a8003cd2" target="_top" xlink:title="Matrix::SetCol">
<polygon fill="white" stroke="black" points="102,-66.5 102,-85.5 182,-85.5 182,-66.5 102,-66.5"/>
<text text-anchor="middle" x="142" y="-73.5" font-family="Helvetica,sans-Serif" font-size="10.00">Matrix::SetCol</text>
</a>
</g>
</g>
<!-- Node1&#45;&gt;Node6 -->
<g id="edge5" class="edge"><title>Node1&#45;&gt;Node6</title>
<path fill="none" stroke="midnightblue" d="M61.1302,-118.547C80.5673,-108.193 106.197,-94.54 123.117,-85.5265"/>
<polygon fill="midnightblue" stroke="midnightblue" points="59.3313,-115.54 52.1511,-123.331 62.6225,-121.718 59.3313,-115.54"/>
</g>
<!-- Node4 -->
<g id="node4" class="node"><title>Node4</title>
<g id="a_node4"><a xlink:href="SAT__Kepler_8h.html#aeb2175e4cdc39ea590f44fc2949ea8d3" target="_top" xlink:title="TwoBody">
<polygon fill="white" stroke="black" points="227,-142.5 227,-161.5 285,-161.5 285,-142.5 227,-142.5"/>
<text text-anchor="middle" x="256" y="-149.5" font-family="Helvetica,sans-Serif" font-size="10.00">TwoBody</text>
</a>
</g>
</g>
<!-- Node3&#45;&gt;Node4 -->
<g id="edge3" class="edge"><title>Node3&#45;&gt;Node4</title>
<path fill="none" stroke="midnightblue" d="M188.815,-140.772C201.634,-142.947 215.19,-145.247 226.673,-147.195"/>
<polygon fill="midnightblue" stroke="midnightblue" points="189.19,-137.286 178.745,-139.064 188.019,-144.187 189.19,-137.286"/>
</g>
<!-- Node5 -->
<g id="node5" class="node"><title>Node5</title>
<g id="a_node5"><a xlink:href="RTOD_8cpp.html#a0ddf1224851353fc92bfbff6f499fa97" target="_top" xlink:title="main">
<polygon fill="white" stroke="black" points="360,-142.5 360,-161.5 398,-161.5 398,-142.5 360,-142.5"/>
<text text-anchor="middle" x="379" y="-149.5" font-family="Helvetica,sans-Serif" font-size="10.00">main</text>
</a>
</g>
</g>
<!-- Node4&#45;&gt;Node5 -->
<g id="edge4" class="edge"><title>Node4&#45;&gt;Node5</title>
<path fill="none" stroke="midnightblue" d="M295.253,-152C316.848,-152 342.835,-152 359.852,-152"/>
<polygon fill="midnightblue" stroke="midnightblue" points="295.064,-148.5 285.064,-152 295.064,-155.5 295.064,-148.5"/>
</g>
<!-- Node7 -->
<g id="node7" class="node"><title>Node7</title>
<g id="a_node7"><a xlink:href="SAT__VecMat_8cpp.html#a5bdf67234eadeb0a304f11d4537047aa" target="_top" xlink:title="Inv">
<polygon fill="white" stroke="black" points="241,-104.5 241,-123.5 271,-123.5 271,-104.5 241,-104.5"/>
<text text-anchor="middle" x="256" y="-111.5" font-family="Helvetica,sans-Serif" font-size="10.00">Inv</text>
</a>
</g>
</g>
<!-- Node6&#45;&gt;Node7 -->
<g id="edge6" class="edge"><title>Node6&#45;&gt;Node7</title>
<path fill="none" stroke="midnightblue" d="M180.736,-88.8031C201.372,-95.8047 225.724,-104.067 240.765,-109.17"/>
<polygon fill="midnightblue" stroke="midnightblue" points="181.857,-85.4876 171.262,-85.589 179.608,-92.1165 181.857,-85.4876"/>
</g>
<!-- Node9 -->
<g id="node9" class="node"><title>Node9</title>
<g id="a_node9"><a xlink:href="classTrjData.html#a04f78cff1af058ffea3acfeff85bff94" target="_top" xlink:title="TrjData::PhiS">
<polygon fill="white" stroke="black" points="218,-66.5 218,-85.5 294,-85.5 294,-66.5 218,-66.5"/>
<text text-anchor="middle" x="256" y="-73.5" font-family="Helvetica,sans-Serif" font-size="10.00">TrjData::PhiS</text>
</a>
</g>
</g>
<!-- Node6&#45;&gt;Node9 -->
<g id="edge8" class="edge"><title>Node6&#45;&gt;Node9</title>
<path fill="none" stroke="midnightblue" d="M192.449,-76C201.004,-76 209.765,-76 217.919,-76"/>
<polygon fill="midnightblue" stroke="midnightblue" points="192.172,-72.5001 182.172,-76 192.172,-79.5001 192.172,-72.5001"/>
</g>
<!-- Node12 -->
<g id="node12" class="node"><title>Node12</title>
<g id="a_node12"><a xlink:href="TDRSOD_8cpp.html#a1221c5be2d6ec73e6537777a88e72894" target="_top" xlink:title="Accel">
<polygon fill="white" stroke="black" points="235.5,-28.5 235.5,-47.5 276.5,-47.5 276.5,-28.5 235.5,-28.5"/>
<text text-anchor="middle" x="256" y="-35.5" font-family="Helvetica,sans-Serif" font-size="10.00">Accel</text>
</a>
</g>
</g>
<!-- Node6&#45;&gt;Node12 -->
<g id="edge11" class="edge"><title>Node6&#45;&gt;Node12</title>
<path fill="none" stroke="midnightblue" d="M180.77,-63.1852C199.022,-56.9926 220.174,-49.816 235.218,-44.7116"/>
<polygon fill="midnightblue" stroke="midnightblue" points="179.608,-59.8835 171.262,-66.411 181.857,-66.5124 179.608,-59.8835"/>
</g>
<!-- Node13 -->
<g id="node13" class="node"><title>Node13</title>
<g id="a_node13"><a xlink:href="TDRSOD_8cpp.html#a3df5b7f547d4cb81cae1bbb6d6a2962a" target="_top" xlink:title="VarEqn">
<polygon fill="white" stroke="black" points="354.5,-0.5 354.5,-19.5 403.5,-19.5 403.5,-0.5 354.5,-0.5"/>
<text text-anchor="middle" x="379" y="-7.5" font-family="Helvetica,sans-Serif" font-size="10.00">VarEqn</text>
</a>
</g>
</g>
<!-- Node6&#45;&gt;Node13 -->
<g id="edge12" class="edge"><title>Node6&#45;&gt;Node13</title>
<path fill="none" stroke="midnightblue" d="M159.428,-58.811C173.538,-45.3034 195.166,-27.4137 218,-19 263.946,-2.07028 322.341,-4.16502 354.351,-7.12752"/>
<polygon fill="midnightblue" stroke="midnightblue" points="156.665,-56.6223 152.037,-66.153 161.599,-61.5886 156.665,-56.6223"/>
</g>
<!-- Node8 -->
<g id="node8" class="node"><title>Node8</title>
<g id="a_node8"><a xlink:href="classEKF.html#a080c81bbef29da2b57caa52775f76602" target="_top" xlink:title="EKF::MeasUpdate">
<polygon fill="white" stroke="black" points="330,-104.5 330,-123.5 428,-123.5 428,-104.5 330,-104.5"/>
<text text-anchor="middle" x="379" y="-111.5" font-family="Helvetica,sans-Serif" font-size="10.00">EKF::MeasUpdate</text>
</a>
</g>
</g>
<!-- Node7&#45;&gt;Node8 -->
<g id="edge7" class="edge"><title>Node7&#45;&gt;Node8</title>
<path fill="none" stroke="midnightblue" d="M281.561,-114C295.477,-114 313.371,-114 329.959,-114"/>
<polygon fill="midnightblue" stroke="midnightblue" points="281.355,-110.5 271.355,-114 281.355,-117.5 281.355,-110.5"/>
</g>
<!-- Node10 -->
<g id="node10" class="node"><title>Node10</title>
<g id="a_node10"><a xlink:href="TDRSOD_8cpp.html#a466ab098330aeb2aa659365279071640" target="_top" xlink:title="Range_4W">
<polygon fill="white" stroke="black" points="346.5,-57.5 346.5,-76.5 411.5,-76.5 411.5,-57.5 346.5,-57.5"/>
<text text-anchor="middle" x="379" y="-64.5" font-family="Helvetica,sans-Serif" font-size="10.00">Range_4W</text>
</a>
</g>
</g>
<!-- Node9&#45;&gt;Node10 -->
<g id="edge9" class="edge"><title>Node9&#45;&gt;Node10</title>
<path fill="none" stroke="midnightblue" d="M304.326,-72.4799C318.415,-71.4319 333.506,-70.3095 346.337,-69.3551"/>
<polygon fill="midnightblue" stroke="midnightblue" points="304.004,-68.9941 294.291,-73.2263 304.523,-75.9748 304.004,-68.9941"/>
</g>
<!-- Node11 -->
<g id="node11" class="node"><title>Node11</title>
<g id="a_node11"><a xlink:href="TDRSOD_8cpp.html#a0ddf1224851353fc92bfbff6f499fa97" target="_top" xlink:title="main">
<polygon fill="white" stroke="black" points="464,-28.5 464,-47.5 502,-47.5 502,-28.5 464,-28.5"/>
<text text-anchor="middle" x="483" y="-35.5" font-family="Helvetica,sans-Serif" font-size="10.00">main</text>
</a>
</g>
</g>
<!-- Node10&#45;&gt;Node11 -->
<g id="edge10" class="edge"><title>Node10&#45;&gt;Node11</title>
<path fill="none" stroke="midnightblue" d="M421.684,-55.1487C436.424,-50.9578 452.239,-46.4614 463.975,-43.1246"/>
<polygon fill="midnightblue" stroke="midnightblue" points="420.376,-51.8818 411.714,-57.9832 422.29,-58.6149 420.376,-51.8818"/>
</g>
<!-- Node13&#45;&gt;Node11 -->
<g id="edge13" class="edge"><title>Node13&#45;&gt;Node11</title>
<path fill="none" stroke="midnightblue" d="M413.644,-19.2355C430.394,-23.8335 449.979,-29.21 463.882,-33.0264"/>
<polygon fill="midnightblue" stroke="midnightblue" points="414.227,-15.7662 403.657,-16.4941 412.374,-22.5165 414.227,-15.7662"/>
</g>
</g>
</svg>
