<?xml version="1.0" encoding="UTF-8" standalone="no"?>
<!DOCTYPE svg PUBLIC "-//W3C//DTD SVG 1.1//EN"
 "http://www.w3.org/Graphics/SVG/1.1/DTD/svg11.dtd">
<!-- Generated by graphviz version 2.30.1 (20180420.1509)
 -->
<!-- Title: DE::Integ Pages: 1 -->
<svg width="420pt" height="183pt"
 viewBox="0.00 0.00 420.00 183.00" xmlns="http://www.w3.org/2000/svg" xmlns:xlink="http://www.w3.org/1999/xlink">
<g id="graph0" class="graph" transform="scale(1 1) rotate(0) translate(4 179)">
<title>DE::Integ</title>
<polygon fill="white" stroke="white" points="-4,5 -4,-179 417,-179 417,5 -4,5"/>
<!-- Node1 -->
<g id="node1" class="node"><title>Node1</title>
<polygon fill="#bfbfbf" stroke="black" points="0.5,-76.5 0.5,-95.5 59.5,-95.5 59.5,-76.5 0.5,-76.5"/>
<text text-anchor="middle" x="30" y="-83.5" font-family="Helvetica,sans-Serif" font-size="10.00">DE::Integ</text>
</g>
<!-- Node2 -->
<g id="node2" class="node"><title>Node2</title>
<g id="a_node2"><a xlink:href="classDE.html#ac5af669df33d23002a4744f0217e33dc" target="_top" xlink:title="DE::Integ_">
<polygon fill="white" stroke="black" points="96,-76.5 96,-95.5 160,-95.5 160,-76.5 96,-76.5"/>
<text text-anchor="middle" x="128" y="-83.5" font-family="Helvetica,sans-Serif" font-size="10.00">DE::Integ_</text>
</a>
</g>
</g>
<!-- Node1&#45;&gt;Node2 -->
<g id="edge1" class="edge"><title>Node1&#45;&gt;Node2</title>
<path fill="none" stroke="midnightblue" d="M59.5432,-86C67.7266,-86 76.8183,-86 85.6085,-86"/>
<polygon fill="midnightblue" stroke="midnightblue" points="85.7165,-89.5001 95.7165,-86 85.7164,-82.5001 85.7165,-89.5001"/>
</g>
<!-- Node3 -->
<g id="node3" class="node"><title>Node3</title>
<g id="a_node3"><a xlink:href="namespaceanonymous__namespace_02SAT__DE_8cpp_03.html#a1f330d07aea9e972e8da7af294b10b94" target="_top" xlink:title="anonymous_namespace\l\{SAT_DE::cpp\}::max">
<polygon fill="white" stroke="black" points="290,-145 290,-175 412,-175 412,-145 290,-145"/>
<text text-anchor="start" x="298" y="-163" font-family="Helvetica,sans-Serif" font-size="10.00">anonymous_namespace</text>
<text text-anchor="middle" x="351" y="-152" font-family="Helvetica,sans-Serif" font-size="10.00">{SAT_DE::cpp}::max</text>
</a>
</g>
</g>
<!-- Node2&#45;&gt;Node3 -->
<g id="edge2" class="edge"><title>Node2&#45;&gt;Node3</title>
<path fill="none" stroke="midnightblue" d="M144.756,-95.5767C158.032,-103.313 177.732,-114.025 196,-121 222.731,-131.206 253.088,-139.545 279.743,-145.854"/>
<polygon fill="midnightblue" stroke="midnightblue" points="279.23,-149.328 289.761,-148.172 280.808,-142.508 279.23,-149.328"/>
</g>
<!-- Node4 -->
<g id="node4" class="node"><title>Node4</title>
<g id="a_node4"><a xlink:href="namespaceanonymous__namespace_02SAT__DE_8cpp_03.html#aabcae428edea4adc1bad5b1f9e9eb684" target="_top" xlink:title="anonymous_namespace\l\{SAT_DE::cpp\}::sign">
<polygon fill="white" stroke="black" points="290,-94 290,-124 412,-124 412,-94 290,-94"/>
<text text-anchor="start" x="298" y="-112" font-family="Helvetica,sans-Serif" font-size="10.00">anonymous_namespace</text>
<text text-anchor="middle" x="351" y="-101" font-family="Helvetica,sans-Serif" font-size="10.00">{SAT_DE::cpp}::sign</text>
</a>
</g>
</g>
<!-- Node2&#45;&gt;Node4 -->
<g id="edge3" class="edge"><title>Node2&#45;&gt;Node4</title>
<path fill="none" stroke="midnightblue" d="M156.69,-95.5367C168.633,-99.2078 182.852,-102.997 196,-105 223.076,-109.124 253.133,-110.589 279.454,-110.862"/>
<polygon fill="midnightblue" stroke="midnightblue" points="279.705,-114.363 289.722,-110.911 279.739,-107.363 279.705,-114.363"/>
</g>
<!-- Node5 -->
<g id="node5" class="node"><title>Node5</title>
<g id="a_node5"><a xlink:href="classDE.html#ada59157cf555a77f65242c04ad1c9e19" target="_top" xlink:title="DE::Intrp">
<polygon fill="white" stroke="black" points="197,-0.5 197,-19.5 253,-19.5 253,-0.5 197,-0.5"/>
<text text-anchor="middle" x="225" y="-7.5" font-family="Helvetica,sans-Serif" font-size="10.00">DE::Intrp</text>
</a>
</g>
</g>
<!-- Node2&#45;&gt;Node5 -->
<g id="edge4" class="edge"><title>Node2&#45;&gt;Node5</title>
<path fill="none" stroke="midnightblue" d="M141.032,-76.3745C156.879,-63.6972 184.961,-41.2309 204.02,-25.9837"/>
<polygon fill="midnightblue" stroke="midnightblue" points="206.444,-28.5273 212.066,-19.5473 202.071,-23.0612 206.444,-28.5273"/>
</g>
<!-- Node6 -->
<g id="node6" class="node"><title>Node6</title>
<g id="a_node6"><a xlink:href="namespaceanonymous__namespace_02SAT__DE_8cpp_03.html#ae4ba4f69a40b68446f66e9f06a6df7c2" target="_top" xlink:title="anonymous_namespace\l\{SAT_DE::cpp\}::min">
<polygon fill="white" stroke="black" points="290,-41 290,-71 412,-71 412,-41 290,-41"/>
<text text-anchor="start" x="298" y="-59" font-family="Helvetica,sans-Serif" font-size="10.00">anonymous_namespace</text>
<text text-anchor="middle" x="351" y="-48" font-family="Helvetica,sans-Serif" font-size="10.00">{SAT_DE::cpp}::min</text>
</a>
</g>
</g>
<!-- Node2&#45;&gt;Node6 -->
<g id="edge5" class="edge"><title>Node2&#45;&gt;Node6</title>
<path fill="none" stroke="midnightblue" d="M157.721,-76.4569C169.463,-72.9237 183.258,-69.2374 196,-67 223.036,-62.2528 253.084,-59.5434 279.409,-58.0011"/>
<polygon fill="midnightblue" stroke="midnightblue" points="279.884,-61.4807 289.68,-57.4466 279.506,-54.4909 279.884,-61.4807"/>
</g>
<!-- Node7 -->
<g id="node7" class="node"><title>Node7</title>
<g id="a_node7"><a xlink:href="classDE.html#ac45486f7c7bf422c6bd024aba501a2a2" target="_top" xlink:title="DE::Step">
<polygon fill="white" stroke="black" points="196.5,-76.5 196.5,-95.5 253.5,-95.5 253.5,-76.5 196.5,-76.5"/>
<text text-anchor="middle" x="225" y="-83.5" font-family="Helvetica,sans-Serif" font-size="10.00">DE::Step</text>
</a>
</g>
</g>
<!-- Node2&#45;&gt;Node7 -->
<g id="edge6" class="edge"><title>Node2&#45;&gt;Node7</title>
<path fill="none" stroke="midnightblue" d="M160.107,-86C168.416,-86 177.489,-86 186.12,-86"/>
<polygon fill="midnightblue" stroke="midnightblue" points="186.347,-89.5001 196.347,-86 186.347,-82.5001 186.347,-89.5001"/>
</g>
<!-- Node7&#45;&gt;Node4 -->
<g id="edge7" class="edge"><title>Node7&#45;&gt;Node4</title>
<path fill="none" stroke="midnightblue" d="M253.52,-91.1044C261.432,-92.572 270.442,-94.2433 279.704,-95.9613"/>
<polygon fill="midnightblue" stroke="midnightblue" points="279.343,-99.4538 289.813,-97.8363 280.619,-92.5712 279.343,-99.4538"/>
</g>
<!-- Node7&#45;&gt;Node3 -->
<g id="edge8" class="edge"><title>Node7&#45;&gt;Node3</title>
<path fill="none" stroke="midnightblue" d="M237.748,-95.805C250.205,-105.914 270.71,-121.746 290,-133 294.449,-135.596 299.193,-138.115 303.988,-140.504"/>
<polygon fill="midnightblue" stroke="midnightblue" points="302.682,-143.758 313.213,-144.923 305.706,-137.446 302.682,-143.758"/>
</g>
<!-- Node7&#45;&gt;Node6 -->
<g id="edge9" class="edge"><title>Node7&#45;&gt;Node6</title>
<path fill="none" stroke="midnightblue" d="M253.52,-79.342C261.516,-77.4074 270.634,-75.2014 280,-72.9355"/>
<polygon fill="midnightblue" stroke="midnightblue" points="280.917,-76.3147 289.813,-70.5613 279.271,-69.511 280.917,-76.3147"/>
</g>
</g>
</svg>
