<?xml version="1.0" encoding="UTF-8" standalone="no"?>
<!DOCTYPE svg PUBLIC "-//W3C//DTD SVG 1.1//EN"
 "http://www.w3.org/Graphics/SVG/1.1/DTD/svg11.dtd">
<!-- Generated by graphviz version 2.30.1 (20180420.1509)
 -->
<!-- Title: EKF::MeasUpdate Pages: 1 -->
<svg width="190pt" height="104pt"
 viewBox="0.00 0.00 190.00 104.00" xmlns="http://www.w3.org/2000/svg" xmlns:xlink="http://www.w3.org/1999/xlink">
<g id="graph0" class="graph" transform="scale(1 1) rotate(0) translate(4 100)">
<title>EKF::MeasUpdate</title>
<polygon fill="white" stroke="white" points="-4,5 -4,-100 187,-100 187,5 -4,5"/>
<!-- Node1 -->
<g id="node1" class="node"><title>Node1</title>
<polygon fill="#bfbfbf" stroke="black" points="0,-38.5 0,-57.5 98,-57.5 98,-38.5 0,-38.5"/>
<text text-anchor="middle" x="49" y="-45.5" font-family="Helvetica,sans-Serif" font-size="10.00">EKF::MeasUpdate</text>
</g>
<!-- Node2 -->
<g id="node2" class="node"><title>Node2</title>
<g id="a_node2"><a xlink:href="SAT__VecMat_8cpp.html#a71375a6ebee7fc40c1d45985175d82e5" target="_top" xlink:title="Dot">
<polygon fill="white" stroke="black" points="142,-76.5 142,-95.5 174,-95.5 174,-76.5 142,-76.5"/>
<text text-anchor="middle" x="158" y="-83.5" font-family="Helvetica,sans-Serif" font-size="10.00">Dot</text>
</a>
</g>
</g>
<!-- Node1&#45;&gt;Node2 -->
<g id="edge1" class="edge"><title>Node1&#45;&gt;Node2</title>
<path fill="none" stroke="midnightblue" d="M77.0006,-57.589C94.022,-63.634 115.831,-71.3793 132.378,-77.2557"/>
<polygon fill="midnightblue" stroke="midnightblue" points="131.316,-80.5926 141.911,-80.6411 133.659,-73.9963 131.316,-80.5926"/>
</g>
<!-- Node3 -->
<g id="node3" class="node"><title>Node3</title>
<g id="a_node3"><a xlink:href="SAT__VecMat_8cpp.html#ac71a8aaf67fa3c90f274788d91002af9" target="_top" xlink:title="Id">
<polygon fill="white" stroke="black" points="143.5,-38.5 143.5,-57.5 172.5,-57.5 172.5,-38.5 143.5,-38.5"/>
<text text-anchor="middle" x="158" y="-45.5" font-family="Helvetica,sans-Serif" font-size="10.00">Id</text>
</a>
</g>
</g>
<!-- Node1&#45;&gt;Node3 -->
<g id="edge2" class="edge"><title>Node1&#45;&gt;Node3</title>
<path fill="none" stroke="midnightblue" d="M98.1787,-48C110.236,-48 122.658,-48 132.962,-48"/>
<polygon fill="midnightblue" stroke="midnightblue" points="133.193,-51.5001 143.193,-48 133.193,-44.5001 133.193,-51.5001"/>
</g>
<!-- Node4 -->
<g id="node4" class="node"><title>Node4</title>
<g id="a_node4"><a xlink:href="SAT__VecMat_8cpp.html#a4c5b7e42a648b06a906407b0155e3342" target="_top" xlink:title="Dyadic">
<polygon fill="white" stroke="black" points="134.5,-0.5 134.5,-19.5 181.5,-19.5 181.5,-0.5 134.5,-0.5"/>
<text text-anchor="middle" x="158" y="-7.5" font-family="Helvetica,sans-Serif" font-size="10.00">Dyadic</text>
</a>
</g>
</g>
<!-- Node1&#45;&gt;Node4 -->
<g id="edge3" class="edge"><title>Node1&#45;&gt;Node4</title>
<path fill="none" stroke="midnightblue" d="M77.0006,-38.411C91.5253,-33.2527 109.536,-26.8563 124.789,-21.4396"/>
<polygon fill="midnightblue" stroke="midnightblue" points="126.097,-24.6892 134.349,-18.0443 123.754,-18.0928 126.097,-24.6892"/>
</g>
</g>
</svg>
