<?xml version="1.0" encoding="UTF-8" standalone="no"?>
<!DOCTYPE svg PUBLIC "-//W3C//DTD SVG 1.1//EN"
 "http://www.w3.org/Graphics/SVG/1.1/DTD/svg11.dtd">
<!-- Generated by graphviz version 2.30.1 (20180420.1509)
 -->
<!-- Title: Vector::size Pages: 1 -->
<svg width="520pt" height="370pt"
 viewBox="0.00 0.00 520.00 370.00" xmlns="http://www.w3.org/2000/svg" xmlns:xlink="http://www.w3.org/1999/xlink">
<g id="graph0" class="graph" transform="scale(1 1) rotate(0) translate(4 366)">
<title>Vector::size</title>
<polygon fill="white" stroke="white" points="-4,5 -4,-366 517,-366 517,5 -4,5"/>
<!-- Node1 -->
<g id="node1" class="node"><title>Node1</title>
<polygon fill="#bfbfbf" stroke="black" points="0.5,-114.5 0.5,-133.5 69.5,-133.5 69.5,-114.5 0.5,-114.5"/>
<text text-anchor="middle" x="35" y="-121.5" font-family="Helvetica,sans-Serif" font-size="10.00">Vector::size</text>
</g>
<!-- Node2 -->
<g id="node2" class="node"><title>Node2</title>
<g id="a_node2"><a xlink:href="classEKF.html#a080c81bbef29da2b57caa52775f76602" target="_top" xlink:title="EKF::MeasUpdate">
<polygon fill="white" stroke="black" points="340,-342.5 340,-361.5 438,-361.5 438,-342.5 340,-342.5"/>
<text text-anchor="middle" x="389" y="-349.5" font-family="Helvetica,sans-Serif" font-size="10.00">EKF::MeasUpdate</text>
</a>
</g>
</g>
<!-- Node1&#45;&gt;Node2 -->
<g id="edge1" class="edge"><title>Node1&#45;&gt;Node2</title>
<path fill="none" stroke="midnightblue" d="M41.0553,-143.61C49.8704,-174.684 70.5769,-235.825 106,-276 148.249,-323.917 166.58,-334.434 228,-352 264.455,-362.426 307.523,-361.734 339.788,-358.816"/>
<polygon fill="midnightblue" stroke="midnightblue" points="44.3398,-142.349 38.3404,-133.617 37.5846,-144.184 44.3398,-142.349"/>
</g>
<!-- Node3 -->
<g id="node3" class="node"><title>Node3</title>
<g id="a_node3"><a xlink:href="SAT__VecMat_8cpp.html#ad3352c6f838a6a97403bc6f2d6bda5df" target="_top" xlink:title="Stack">
<polygon fill="white" stroke="black" points="128,-152.5 128,-171.5 170,-171.5 170,-152.5 128,-152.5"/>
<text text-anchor="middle" x="149" y="-159.5" font-family="Helvetica,sans-Serif" font-size="10.00">Stack</text>
</a>
</g>
</g>
<!-- Node1&#45;&gt;Node3 -->
<g id="edge2" class="edge"><title>Node1&#45;&gt;Node3</title>
<path fill="none" stroke="midnightblue" d="M73.9568,-136.878C92.0262,-143.009 112.902,-150.092 127.872,-155.171"/>
<polygon fill="midnightblue" stroke="midnightblue" points="74.8567,-133.488 64.2623,-133.589 72.6076,-140.116 74.8567,-133.488"/>
</g>
<!-- Node10 -->
<g id="node10" class="node"><title>Node10</title>
<g id="a_node10"><a xlink:href="SAT__VecMat_8cpp.html#a8d4afe43a347e0d49c302610cd78133c" target="_top" xlink:title="operator\&lt;\&lt;">
<polygon fill="white" stroke="black" points="117,-114.5 117,-133.5 181,-133.5 181,-114.5 117,-114.5"/>
<text text-anchor="middle" x="149" y="-121.5" font-family="Helvetica,sans-Serif" font-size="10.00">operator&lt;&lt;</text>
</a>
</g>
</g>
<!-- Node1&#45;&gt;Node10 -->
<g id="edge11" class="edge"><title>Node1&#45;&gt;Node10</title>
<path fill="none" stroke="midnightblue" d="M79.7234,-124C92.0723,-124 105.259,-124 116.718,-124"/>
<polygon fill="midnightblue" stroke="midnightblue" points="79.6037,-120.5 69.6037,-124 79.6037,-127.5 79.6037,-120.5"/>
</g>
<!-- Node11 -->
<g id="node11" class="node"><title>Node11</title>
<g id="a_node11"><a xlink:href="classMatrix.html#ae9f1574a9cf6595c64ce1236a8003cd2" target="_top" xlink:title="Matrix::SetCol">
<polygon fill="white" stroke="black" points="109,-247.5 109,-266.5 189,-266.5 189,-247.5 109,-247.5"/>
<text text-anchor="middle" x="149" y="-254.5" font-family="Helvetica,sans-Serif" font-size="10.00">Matrix::SetCol</text>
</a>
</g>
</g>
<!-- Node1&#45;&gt;Node11 -->
<g id="edge12" class="edge"><title>Node1&#45;&gt;Node11</title>
<path fill="none" stroke="midnightblue" d="M50.6723,-141.423C74.5034,-169.723 120.855,-224.765 139.716,-247.163"/>
<polygon fill="midnightblue" stroke="midnightblue" points="53.1734,-138.96 44.0548,-133.565 47.819,-143.469 53.1734,-138.96"/>
</g>
<!-- Node18 -->
<g id="node18" class="node"><title>Node18</title>
<g id="a_node18"><a xlink:href="classMatrix.html#a308d1f64fcf50b39a26fa10a34657637" target="_top" xlink:title="Matrix::SetRow">
<polygon fill="white" stroke="black" points="106.5,-76.5 106.5,-95.5 191.5,-95.5 191.5,-76.5 106.5,-76.5"/>
<text text-anchor="middle" x="149" y="-83.5" font-family="Helvetica,sans-Serif" font-size="10.00">Matrix::SetRow</text>
</a>
</g>
</g>
<!-- Node1&#45;&gt;Node18 -->
<g id="edge21" class="edge"><title>Node1&#45;&gt;Node18</title>
<path fill="none" stroke="midnightblue" d="M73.8027,-111.174C88.8308,-106.075 105.82,-100.311 119.747,-95.5859"/>
<polygon fill="midnightblue" stroke="midnightblue" points="72.6076,-107.884 64.2623,-114.411 74.8567,-114.512 72.6076,-107.884"/>
</g>
<!-- Node19 -->
<g id="node19" class="node"><title>Node19</title>
<g id="a_node19"><a xlink:href="SAT__VecMat_8cpp.html#abac5bb38f6d2767db9359ff26f2d772b" target="_top" xlink:title="operator&amp;">
<polygon fill="white" stroke="black" points="119.5,-38.5 119.5,-57.5 178.5,-57.5 178.5,-38.5 119.5,-38.5"/>
<text text-anchor="middle" x="149" y="-45.5" font-family="Helvetica,sans-Serif" font-size="10.00">operator&amp;</text>
</a>
</g>
</g>
<!-- Node1&#45;&gt;Node19 -->
<g id="edge22" class="edge"><title>Node1&#45;&gt;Node19</title>
<path fill="none" stroke="midnightblue" d="M53.8969,-107.236C67.4879,-95.0671 87.0172,-78.7461 106,-67 111.581,-63.5469 117.895,-60.3565 123.901,-57.6149"/>
<polygon fill="midnightblue" stroke="midnightblue" points="51.2921,-104.874 46.26,-114.198 56.008,-110.047 51.2921,-104.874"/>
</g>
<!-- Node20 -->
<g id="node20" class="node"><title>Node20</title>
<g id="a_node20"><a xlink:href="SAT__VecMat_8cpp.html#ab1d3ddb78982da536099cac5e4734999" target="_top" xlink:title="operator\|">
<polygon fill="white" stroke="black" points="122,-0.5 122,-19.5 176,-19.5 176,-0.5 122,-0.5"/>
<text text-anchor="middle" x="149" y="-7.5" font-family="Helvetica,sans-Serif" font-size="10.00">operator|</text>
</a>
</g>
</g>
<!-- Node1&#45;&gt;Node20 -->
<g id="edge23" class="edge"><title>Node1&#45;&gt;Node20</title>
<path fill="none" stroke="midnightblue" d="M45.7538,-105.52C57.5946,-84.5846 79.3275,-50.5823 106,-29 110.728,-25.174 116.351,-21.9452 121.92,-19.2961"/>
<polygon fill="midnightblue" stroke="midnightblue" points="42.6333,-103.931 40.892,-114.382 48.7705,-107.298 42.6333,-103.931"/>
</g>
<!-- Node4 -->
<g id="node4" class="node"><title>Node4</title>
<g id="a_node4"><a xlink:href="GEODA_8cpp.html#a0ddf1224851353fc92bfbff6f499fa97" target="_top" xlink:title="main">
<polygon fill="white" stroke="black" points="247,-171.5 247,-190.5 285,-190.5 285,-171.5 247,-171.5"/>
<text text-anchor="middle" x="266" y="-178.5" font-family="Helvetica,sans-Serif" font-size="10.00">main</text>
</a>
</g>
</g>
<!-- Node3&#45;&gt;Node4 -->
<g id="edge3" class="edge"><title>Node3&#45;&gt;Node4</title>
<path fill="none" stroke="midnightblue" d="M180.114,-166.975C201.247,-170.467 228.82,-175.022 246.714,-177.979"/>
<polygon fill="midnightblue" stroke="midnightblue" points="180.468,-163.487 170.031,-165.31 179.327,-170.393 180.468,-163.487"/>
</g>
<!-- Node5 -->
<g id="node5" class="node"><title>Node5</title>
<g id="a_node5"><a xlink:href="RTOD_8cpp.html#a8ed60f2e5115e2e00c123e12b1cbb649" target="_top" xlink:title="Deriv">
<polygon fill="white" stroke="black" points="369,-133.5 369,-152.5 409,-152.5 409,-133.5 369,-133.5"/>
<text text-anchor="middle" x="389" y="-140.5" font-family="Helvetica,sans-Serif" font-size="10.00">Deriv</text>
</a>
</g>
</g>
<!-- Node3&#45;&gt;Node5 -->
<g id="edge4" class="edge"><title>Node3&#45;&gt;Node5</title>
<path fill="none" stroke="midnightblue" d="M180.432,-159.571C230.176,-155.599 327.488,-147.831 368.76,-144.536"/>
<polygon fill="midnightblue" stroke="midnightblue" points="179.981,-156.095 170.292,-160.38 180.539,-163.073 179.981,-156.095"/>
</g>
<!-- Node7 -->
<g id="node7" class="node"><title>Node7</title>
<g id="a_node7"><a xlink:href="SAT__Kepler_8h.html#ad89a224ad24d23f6059beb84e1c0817f" target="_top" xlink:title="State">
<polygon fill="white" stroke="black" points="246,-95.5 246,-114.5 286,-114.5 286,-95.5 246,-95.5"/>
<text text-anchor="middle" x="266" y="-102.5" font-family="Helvetica,sans-Serif" font-size="10.00">State</text>
</a>
</g>
</g>
<!-- Node3&#45;&gt;Node7 -->
<g id="edge6" class="edge"><title>Node3&#45;&gt;Node7</title>
<path fill="none" stroke="midnightblue" d="M179.321,-148.985C183.592,-147.017 187.922,-144.982 192,-143 211.019,-133.757 232.446,-122.5 247.14,-114.648"/>
<polygon fill="midnightblue" stroke="midnightblue" points="177.841,-145.813 170.187,-153.139 180.738,-152.185 177.841,-145.813"/>
</g>
<!-- Node9 -->
<g id="node9" class="node"><title>Node9</title>
<g id="a_node9"><a xlink:href="SAT__Kepler_8h.html#ad41abe3ee1647b2de98425457c6fdce2" target="_top" xlink:title="StatePartials">
<polygon fill="white" stroke="black" points="229.5,-57.5 229.5,-76.5 302.5,-76.5 302.5,-57.5 229.5,-57.5"/>
<text text-anchor="middle" x="266" y="-64.5" font-family="Helvetica,sans-Serif" font-size="10.00">StatePartials</text>
</a>
</g>
</g>
<!-- Node3&#45;&gt;Node9 -->
<g id="edge9" class="edge"><title>Node3&#45;&gt;Node9</title>
<path fill="none" stroke="midnightblue" d="M179.409,-151.387C183.899,-149.029 188.272,-146.244 192,-143 214.602,-123.33 205.892,-106.224 228,-86 231.943,-82.3932 236.698,-79.284 241.466,-76.6861"/>
<polygon fill="midnightblue" stroke="midnightblue" points="177.81,-148.27 170.197,-155.638 180.743,-154.626 177.81,-148.27"/>
</g>
<!-- Node6 -->
<g id="node6" class="node"><title>Node6</title>
<g id="a_node6"><a xlink:href="RTOD_8cpp.html#a0ddf1224851353fc92bfbff6f499fa97" target="_top" xlink:title="main">
<polygon fill="white" stroke="black" points="474,-114.5 474,-133.5 512,-133.5 512,-114.5 474,-114.5"/>
<text text-anchor="middle" x="493" y="-121.5" font-family="Helvetica,sans-Serif" font-size="10.00">main</text>
</a>
</g>
</g>
<!-- Node5&#45;&gt;Node6 -->
<g id="edge5" class="edge"><title>Node5&#45;&gt;Node6</title>
<path fill="none" stroke="midnightblue" d="M419.501,-137.505C437.092,-134.228 458.859,-130.173 473.928,-127.366"/>
<polygon fill="midnightblue" stroke="midnightblue" points="418.375,-134.154 409.185,-139.426 419.657,-141.036 418.375,-134.154"/>
</g>
<!-- Node8 -->
<g id="node8" class="node"><title>Node8</title>
<g id="a_node8"><a xlink:href="SAT__Kepler_8h.html#aeb2175e4cdc39ea590f44fc2949ea8d3" target="_top" xlink:title="TwoBody">
<polygon fill="white" stroke="black" points="360,-95.5 360,-114.5 418,-114.5 418,-95.5 360,-95.5"/>
<text text-anchor="middle" x="389" y="-102.5" font-family="Helvetica,sans-Serif" font-size="10.00">TwoBody</text>
</a>
</g>
</g>
<!-- Node7&#45;&gt;Node8 -->
<g id="edge7" class="edge"><title>Node7&#45;&gt;Node8</title>
<path fill="none" stroke="midnightblue" d="M296.239,-105C315.583,-105 340.806,-105 359.911,-105"/>
<polygon fill="midnightblue" stroke="midnightblue" points="296.173,-101.5 286.173,-105 296.173,-108.5 296.173,-101.5"/>
</g>
<!-- Node8&#45;&gt;Node6 -->
<g id="edge8" class="edge"><title>Node8&#45;&gt;Node6</title>
<path fill="none" stroke="midnightblue" d="M428.128,-112.102C443.808,-115.023 461.224,-118.267 473.905,-120.629"/>
<polygon fill="midnightblue" stroke="midnightblue" points="428.614,-108.633 418.142,-110.242 427.332,-115.514 428.614,-108.633"/>
</g>
<!-- Node9&#45;&gt;Node8 -->
<g id="edge10" class="edge"><title>Node9&#45;&gt;Node8</title>
<path fill="none" stroke="midnightblue" d="M307.359,-79.6749C324.617,-85.0946 344.342,-91.2893 359.965,-96.1955"/>
<polygon fill="midnightblue" stroke="midnightblue" points="308.123,-76.2461 297.533,-76.589 306.025,-82.9245 308.123,-76.2461"/>
</g>
<!-- Node12 -->
<g id="node12" class="node"><title>Node12</title>
<g id="a_node12"><a xlink:href="SAT__VecMat_8cpp.html#a5bdf67234eadeb0a304f11d4537047aa" target="_top" xlink:title="Inv">
<polygon fill="white" stroke="black" points="251,-323.5 251,-342.5 281,-342.5 281,-323.5 251,-323.5"/>
<text text-anchor="middle" x="266" y="-330.5" font-family="Helvetica,sans-Serif" font-size="10.00">Inv</text>
</a>
</g>
</g>
<!-- Node11&#45;&gt;Node12 -->
<g id="edge13" class="edge"><title>Node11&#45;&gt;Node12</title>
<path fill="none" stroke="midnightblue" d="M170.262,-273.167C185.658,-285.11 207.595,-301.413 228,-314 235.252,-318.474 243.68,-322.86 250.658,-326.289"/>
<polygon fill="midnightblue" stroke="midnightblue" points="172.043,-270.115 162.014,-266.699 167.723,-275.624 172.043,-270.115"/>
</g>
<!-- Node13 -->
<g id="node13" class="node"><title>Node13</title>
<g id="a_node13"><a xlink:href="classTrjData.html#a04f78cff1af058ffea3acfeff85bff94" target="_top" xlink:title="TrjData::PhiS">
<polygon fill="white" stroke="black" points="228,-285.5 228,-304.5 304,-304.5 304,-285.5 228,-285.5"/>
<text text-anchor="middle" x="266" y="-292.5" font-family="Helvetica,sans-Serif" font-size="10.00">TrjData::PhiS</text>
</a>
</g>
</g>
<!-- Node11&#45;&gt;Node13 -->
<g id="edge15" class="edge"><title>Node11&#45;&gt;Node13</title>
<path fill="none" stroke="midnightblue" d="M188.815,-269.826C204.246,-274.925 221.691,-280.689 235.99,-285.414"/>
<polygon fill="midnightblue" stroke="midnightblue" points="189.613,-266.403 179.019,-266.589 187.416,-273.05 189.613,-266.403"/>
</g>
<!-- Node16 -->
<g id="node16" class="node"><title>Node16</title>
<g id="a_node16"><a xlink:href="TDRSOD_8cpp.html#a1221c5be2d6ec73e6537777a88e72894" target="_top" xlink:title="Accel">
<polygon fill="white" stroke="black" points="245.5,-209.5 245.5,-228.5 286.5,-228.5 286.5,-209.5 245.5,-209.5"/>
<text text-anchor="middle" x="266" y="-216.5" font-family="Helvetica,sans-Serif" font-size="10.00">Accel</text>
</a>
</g>
</g>
<!-- Node11&#45;&gt;Node16 -->
<g id="edge18" class="edge"><title>Node11&#45;&gt;Node16</title>
<path fill="none" stroke="midnightblue" d="M188.65,-244.229C207.708,-237.931 229.872,-230.608 245.394,-225.478"/>
<polygon fill="midnightblue" stroke="midnightblue" points="187.416,-240.95 179.019,-247.411 189.613,-247.597 187.416,-240.95"/>
</g>
<!-- Node17 -->
<g id="node17" class="node"><title>Node17</title>
<g id="a_node17"><a xlink:href="TDRSOD_8cpp.html#a3df5b7f547d4cb81cae1bbb6d6a2962a" target="_top" xlink:title="VarEqn">
<polygon fill="white" stroke="black" points="364.5,-247.5 364.5,-266.5 413.5,-266.5 413.5,-247.5 364.5,-247.5"/>
<text text-anchor="middle" x="389" y="-254.5" font-family="Helvetica,sans-Serif" font-size="10.00">VarEqn</text>
</a>
</g>
</g>
<!-- Node11&#45;&gt;Node17 -->
<g id="edge19" class="edge"><title>Node11&#45;&gt;Node17</title>
<path fill="none" stroke="midnightblue" d="M199.086,-257C249.619,-257 326.212,-257 364.492,-257"/>
<polygon fill="midnightblue" stroke="midnightblue" points="199.034,-253.5 189.034,-257 199.034,-260.5 199.034,-253.5"/>
</g>
<!-- Node12&#45;&gt;Node2 -->
<g id="edge14" class="edge"><title>Node12&#45;&gt;Node2</title>
<path fill="none" stroke="midnightblue" d="M291.561,-336.857C305.477,-339.042 323.371,-341.852 339.959,-344.456"/>
<polygon fill="midnightblue" stroke="midnightblue" points="291.777,-333.348 281.355,-335.254 290.691,-340.263 291.777,-333.348"/>
</g>
<!-- Node14 -->
<g id="node14" class="node"><title>Node14</title>
<g id="a_node14"><a xlink:href="TDRSOD_8cpp.html#a466ab098330aeb2aa659365279071640" target="_top" xlink:title="Range_4W">
<polygon fill="white" stroke="black" points="356.5,-285.5 356.5,-304.5 421.5,-304.5 421.5,-285.5 356.5,-285.5"/>
<text text-anchor="middle" x="389" y="-292.5" font-family="Helvetica,sans-Serif" font-size="10.00">Range_4W</text>
</a>
</g>
</g>
<!-- Node13&#45;&gt;Node14 -->
<g id="edge16" class="edge"><title>Node13&#45;&gt;Node14</title>
<path fill="none" stroke="midnightblue" d="M314.326,-295C328.415,-295 343.506,-295 356.337,-295"/>
<polygon fill="midnightblue" stroke="midnightblue" points="314.291,-291.5 304.291,-295 314.291,-298.5 314.291,-291.5"/>
</g>
<!-- Node15 -->
<g id="node15" class="node"><title>Node15</title>
<g id="a_node15"><a xlink:href="TDRSOD_8cpp.html#a0ddf1224851353fc92bfbff6f499fa97" target="_top" xlink:title="main">
<polygon fill="white" stroke="black" points="474,-266.5 474,-285.5 512,-285.5 512,-266.5 474,-266.5"/>
<text text-anchor="middle" x="493" y="-273.5" font-family="Helvetica,sans-Serif" font-size="10.00">main</text>
</a>
</g>
</g>
<!-- Node14&#45;&gt;Node15 -->
<g id="edge17" class="edge"><title>Node14&#45;&gt;Node15</title>
<path fill="none" stroke="midnightblue" d="M431.684,-287.235C446.424,-284.49 462.239,-281.544 473.975,-279.358"/>
<polygon fill="midnightblue" stroke="midnightblue" points="430.904,-283.82 421.714,-289.092 432.186,-290.702 430.904,-283.82"/>
</g>
<!-- Node17&#45;&gt;Node15 -->
<g id="edge20" class="edge"><title>Node17&#45;&gt;Node15</title>
<path fill="none" stroke="midnightblue" d="M423.644,-263.267C440.394,-266.387 459.979,-270.035 473.882,-272.625"/>
<polygon fill="midnightblue" stroke="midnightblue" points="424.129,-259.797 413.657,-261.407 422.847,-266.679 424.129,-259.797"/>
</g>
</g>
</svg>
