<?xml version="1.0" encoding="UTF-8" standalone="no"?>
<!DOCTYPE svg PUBLIC "-//W3C//DTD SVG 1.1//EN"
 "http://www.w3.org/Graphics/SVG/1.1/DTD/svg11.dtd">
<!-- Generated by graphviz version 2.30.1 (20180420.1509)
 -->
<!-- Title: IERS::GPS_UTC Pages: 1 -->
<svg width="340pt" height="85pt"
 viewBox="0.00 0.00 340.00 85.00" xmlns="http://www.w3.org/2000/svg" xmlns:xlink="http://www.w3.org/1999/xlink">
<g id="graph0" class="graph" transform="scale(1 1) rotate(0) translate(4 81)">
<title>IERS::GPS_UTC</title>
<polygon fill="white" stroke="white" points="-4,5 -4,-81 337,-81 337,5 -4,5"/>
<!-- Node1 -->
<g id="node1" class="node"><title>Node1</title>
<polygon fill="#bfbfbf" stroke="black" points="0,-0.5 0,-19.5 94,-19.5 94,-0.5 0,-0.5"/>
<text text-anchor="middle" x="47" y="-7.5" font-family="Helvetica,sans-Serif" font-size="10.00">IERS::GPS_UTC</text>
</g>
<!-- Node2 -->
<g id="node2" class="node"><title>Node2</title>
<g id="a_node2"><a xlink:href="RTOD_8cpp.html#ad928b0e88089fe577162bad47f911adf" target="_top" xlink:title="Accel">
<polygon fill="white" stroke="black" points="130.5,-19.5 130.5,-38.5 171.5,-38.5 171.5,-19.5 130.5,-19.5"/>
<text text-anchor="middle" x="151" y="-26.5" font-family="Helvetica,sans-Serif" font-size="10.00">Accel</text>
</a>
</g>
</g>
<!-- Node1&#45;&gt;Node2 -->
<g id="edge1" class="edge"><title>Node1&#45;&gt;Node2</title>
<path fill="none" stroke="midnightblue" d="M104.116,-20.4529C113.578,-22.2154 122.802,-23.9337 130.469,-25.3619"/>
<polygon fill="midnightblue" stroke="midnightblue" points="104.697,-17.001 94.225,-18.6105 103.415,-23.8827 104.697,-17.001"/>
</g>
<!-- Node4 -->
<g id="node4" class="node"><title>Node4</title>
<g id="a_node4"><a xlink:href="RTOD_8cpp.html#a0ddf1224851353fc92bfbff6f499fa97" target="_top" xlink:title="main">
<polygon fill="white" stroke="black" points="294,-0.5 294,-19.5 332,-19.5 332,-0.5 294,-0.5"/>
<text text-anchor="middle" x="313" y="-7.5" font-family="Helvetica,sans-Serif" font-size="10.00">main</text>
</a>
</g>
</g>
<!-- Node1&#45;&gt;Node4 -->
<g id="edge6" class="edge"><title>Node1&#45;&gt;Node4</title>
<path fill="none" stroke="midnightblue" d="M104.339,-10C164.158,-10 255.276,-10 293.796,-10"/>
<polygon fill="midnightblue" stroke="midnightblue" points="104.287,-6.5001 94.2874,-10 104.287,-13.5001 104.287,-6.5001"/>
</g>
<!-- Node3 -->
<g id="node3" class="node"><title>Node3</title>
<g id="a_node3"><a xlink:href="RTOD_8cpp.html#a8ed60f2e5115e2e00c123e12b1cbb649" target="_top" xlink:title="Deriv">
<polygon fill="white" stroke="black" points="213,-19.5 213,-38.5 253,-38.5 253,-19.5 213,-19.5"/>
<text text-anchor="middle" x="233" y="-26.5" font-family="Helvetica,sans-Serif" font-size="10.00">Deriv</text>
</a>
</g>
</g>
<!-- Node2&#45;&gt;Node3 -->
<g id="edge2" class="edge"><title>Node2&#45;&gt;Node3</title>
<path fill="none" stroke="midnightblue" d="M182.026,-29C192.308,-29 203.529,-29 212.728,-29"/>
<polygon fill="midnightblue" stroke="midnightblue" points="181.775,-25.5001 171.775,-29 181.775,-32.5001 181.775,-25.5001"/>
</g>
<!-- Node5 -->
<g id="node5" class="node"><title>Node5</title>
<g id="a_node5"><a xlink:href="TDRSOD_8cpp.html#a3df5b7f547d4cb81cae1bbb6d6a2962a" target="_top" xlink:title="VarEqn">
<polygon fill="white" stroke="black" points="208.5,-57.5 208.5,-76.5 257.5,-76.5 257.5,-57.5 208.5,-57.5"/>
<text text-anchor="middle" x="233" y="-64.5" font-family="Helvetica,sans-Serif" font-size="10.00">VarEqn</text>
</a>
</g>
</g>
<!-- Node2&#45;&gt;Node5 -->
<g id="edge4" class="edge"><title>Node2&#45;&gt;Node5</title>
<path fill="none" stroke="midnightblue" d="M180.84,-42.6989C191.133,-47.5882 202.498,-52.9865 211.897,-57.4509"/>
<polygon fill="midnightblue" stroke="midnightblue" points="182.31,-39.5224 171.775,-38.3933 179.306,-45.8454 182.31,-39.5224"/>
</g>
<!-- Node3&#45;&gt;Node4 -->
<g id="edge3" class="edge"><title>Node3&#45;&gt;Node4</title>
<path fill="none" stroke="midnightblue" d="M263.109,-21.9094C273.379,-19.4077 284.628,-16.6675 293.745,-14.4468"/>
<polygon fill="midnightblue" stroke="midnightblue" points="262.168,-18.536 253.281,-24.3034 263.825,-25.3372 262.168,-18.536"/>
</g>
<!-- Node6 -->
<g id="node6" class="node"><title>Node6</title>
<g id="a_node6"><a xlink:href="TDRSOD_8cpp.html#a0ddf1224851353fc92bfbff6f499fa97" target="_top" xlink:title="main">
<polygon fill="white" stroke="black" points="294,-57.5 294,-76.5 332,-76.5 332,-57.5 294,-57.5"/>
<text text-anchor="middle" x="313" y="-64.5" font-family="Helvetica,sans-Serif" font-size="10.00">main</text>
</a>
</g>
</g>
<!-- Node5&#45;&gt;Node6 -->
<g id="edge5" class="edge"><title>Node5&#45;&gt;Node6</title>
<path fill="none" stroke="midnightblue" d="M267.886,-67C276.687,-67 285.842,-67 293.515,-67"/>
<polygon fill="midnightblue" stroke="midnightblue" points="267.826,-63.5001 257.826,-67 267.826,-70.5001 267.826,-63.5001"/>
</g>
</g>
</svg>
