<?xml version="1.0" encoding="UTF-8" standalone="no"?>
<!DOCTYPE svg PUBLIC "-//W3C//DTD SVG 1.1//EN"
 "http://www.w3.org/Graphics/SVG/1.1/DTD/svg11.dtd">
<!-- Generated by graphviz version 2.30.1 (20180420.1509)
 -->
<!-- Title: RK4 Pages: 1 -->
<svg width="52pt" height="140pt"
 viewBox="0.00 0.00 52.00 140.00" xmlns="http://www.w3.org/2000/svg" xmlns:xlink="http://www.w3.org/1999/xlink">
<g id="graph0" class="graph" transform="scale(1 1) rotate(0) translate(4 136)">
<title>RK4</title>
<polygon fill="white" stroke="white" points="-4,5 -4,-136 49,-136 49,5 -4,5"/>
<!-- Node1 -->
<g id="node1" class="node"><title>Node1</title>
<polygon fill="#bfbfbf" stroke="black" points="4,-0.5 4,-19.5 40,-19.5 40,-0.5 4,-0.5"/>
<text text-anchor="middle" x="22" y="-7.5" font-family="Helvetica,sans-Serif" font-size="10.00">RK4</text>
</g>
<!-- Node2 -->
<g id="node2" class="node"><title>Node2</title>
<g id="a_node2"><a xlink:href="classVector.html" target="_top" xlink:title="Vector">
<polygon fill="white" stroke="black" points="-0.5,-112.5 -0.5,-131.5 44.5,-131.5 44.5,-112.5 -0.5,-112.5"/>
<text text-anchor="middle" x="22" y="-119.5" font-family="Helvetica,sans-Serif" font-size="10.00">Vector</text>
</a>
</g>
</g>
<!-- Node2&#45;&gt;Node1 -->
<g id="edge1" class="edge"><title>Node2&#45;&gt;Node1</title>
<path fill="none" stroke="#9a32cd" stroke-dasharray="5,2" d="M22,-102.348C22,-78.2538 22,-37.3079 22,-19.5914"/>
<polygon fill="#9a32cd" stroke="#9a32cd" points="18.5001,-102.368 22,-112.368 25.5001,-102.369 18.5001,-102.368"/>
<text text-anchor="middle" x="30" y="-85.5" font-family="Helvetica,sans-Serif" font-size="10.00"> f</text>
<text text-anchor="middle" x="30" y="-74.5" font-family="Helvetica,sans-Serif" font-size="10.00">k_1</text>
<text text-anchor="middle" x="30" y="-63.5" font-family="Helvetica,sans-Serif" font-size="10.00">k_2</text>
<text text-anchor="middle" x="30" y="-52.5" font-family="Helvetica,sans-Serif" font-size="10.00">k_3</text>
<text text-anchor="middle" x="30" y="-41.5" font-family="Helvetica,sans-Serif" font-size="10.00">k_4</text>
</g>
</g>
</svg>
