<?xml version="1.0" encoding="UTF-8" standalone="no"?>
<!DOCTYPE svg PUBLIC "-//W3C//DTD SVG 1.1//EN"
 "http://www.w3.org/Graphics/SVG/1.1/DTD/svg11.dtd">
<!-- Generated by graphviz version 2.30.1 (20180420.1509)
 -->
<!-- Title: LSQ::Cov Pages: 1 -->
<svg width="270pt" height="66pt"
 viewBox="0.00 0.00 270.00 66.00" xmlns="http://www.w3.org/2000/svg" xmlns:xlink="http://www.w3.org/1999/xlink">
<g id="graph0" class="graph" transform="scale(1 1) rotate(0) translate(4 62)">
<title>LSQ::Cov</title>
<polygon fill="white" stroke="white" points="-4,5 -4,-62 267,-62 267,5 -4,5"/>
<!-- Node1 -->
<g id="node1" class="node"><title>Node1</title>
<polygon fill="#bfbfbf" stroke="black" points="0,-19.5 0,-38.5 60,-38.5 60,-19.5 0,-19.5"/>
<text text-anchor="middle" x="30" y="-26.5" font-family="Helvetica,sans-Serif" font-size="10.00">LSQ::Cov</text>
</g>
<!-- Node2 -->
<g id="node2" class="node"><title>Node2</title>
<g id="a_node2"><a xlink:href="SAT__Filter_8cpp.html#a3e84458a7d84898487cdf6d4bd3a483e" target="_top" xlink:title="InvUpper">
<polygon fill="white" stroke="black" points="96,-19.5 96,-38.5 152,-38.5 152,-19.5 96,-19.5"/>
<text text-anchor="middle" x="124" y="-26.5" font-family="Helvetica,sans-Serif" font-size="10.00">InvUpper</text>
</a>
</g>
</g>
<!-- Node1&#45;&gt;Node2 -->
<g id="edge1" class="edge"><title>Node1&#45;&gt;Node2</title>
<path fill="none" stroke="midnightblue" d="M60.1094,-29C68.2682,-29 77.2502,-29 85.8095,-29"/>
<polygon fill="midnightblue" stroke="midnightblue" points="85.9566,-32.5001 95.9566,-29 85.9566,-25.5001 85.9566,-32.5001"/>
</g>
<!-- Node3 -->
<g id="node3" class="node"><title>Node3</title>
<g id="a_node3"><a xlink:href="classMatrix.html#aec0c767dcd6da0724ccb6df4ec0f2a82" target="_top" xlink:title="Matrix::size1">
<polygon fill="white" stroke="black" points="188.5,-38.5 188.5,-57.5 261.5,-57.5 261.5,-38.5 188.5,-38.5"/>
<text text-anchor="middle" x="225" y="-45.5" font-family="Helvetica,sans-Serif" font-size="10.00">Matrix::size1</text>
</a>
</g>
</g>
<!-- Node2&#45;&gt;Node3 -->
<g id="edge2" class="edge"><title>Node2&#45;&gt;Node3</title>
<path fill="none" stroke="midnightblue" d="M152.052,-34.1918C160.205,-35.7565 169.388,-37.519 178.399,-39.2482"/>
<polygon fill="midnightblue" stroke="midnightblue" points="177.953,-42.7265 188.434,-41.1741 179.272,-35.852 177.953,-42.7265"/>
</g>
<!-- Node4 -->
<g id="node4" class="node"><title>Node4</title>
<g id="a_node4"><a xlink:href="classMatrix.html#a306220f01f6859a16e738590214d008d" target="_top" xlink:title="Matrix::size2">
<polygon fill="white" stroke="black" points="188.5,-0.5 188.5,-19.5 261.5,-19.5 261.5,-0.5 188.5,-0.5"/>
<text text-anchor="middle" x="225" y="-7.5" font-family="Helvetica,sans-Serif" font-size="10.00">Matrix::size2</text>
</a>
</g>
</g>
<!-- Node2&#45;&gt;Node4 -->
<g id="edge3" class="edge"><title>Node2&#45;&gt;Node4</title>
<path fill="none" stroke="midnightblue" d="M152.052,-23.8082C160.205,-22.2435 169.388,-20.481 178.399,-18.7518"/>
<polygon fill="midnightblue" stroke="midnightblue" points="179.272,-22.148 188.434,-16.8259 177.953,-15.2735 179.272,-22.148"/>
</g>
</g>
</svg>
