<?xml version="1.0" encoding="UTF-8" standalone="no"?>
<!DOCTYPE svg PUBLIC "-//W3C//DTD SVG 1.1//EN"
 "http://www.w3.org/Graphics/SVG/1.1/DTD/svg11.dtd">
<!-- Generated by graphviz version 2.30.1 (20180420.1509)
 -->
<!-- Title: DE::Integ_ Pages: 1 -->
<svg width="324pt" height="183pt"
 viewBox="0.00 0.00 324.00 183.00" xmlns="http://www.w3.org/2000/svg" xmlns:xlink="http://www.w3.org/1999/xlink">
<g id="graph0" class="graph" transform="scale(1 1) rotate(0) translate(4 179)">
<title>DE::Integ_</title>
<polygon fill="white" stroke="white" points="-4,5 -4,-179 321,-179 321,5 -4,5"/>
<!-- Node1 -->
<g id="node1" class="node"><title>Node1</title>
<polygon fill="#bfbfbf" stroke="black" points="0,-76.5 0,-95.5 64,-95.5 64,-76.5 0,-76.5"/>
<text text-anchor="middle" x="32" y="-83.5" font-family="Helvetica,sans-Serif" font-size="10.00">DE::Integ_</text>
</g>
<!-- Node2 -->
<g id="node2" class="node"><title>Node2</title>
<g id="a_node2"><a xlink:href="namespaceanonymous__namespace_02SAT__DE_8cpp_03.html#a1f330d07aea9e972e8da7af294b10b94" target="_top" xlink:title="anonymous_namespace\l\{SAT_DE::cpp\}::max">
<polygon fill="white" stroke="black" points="194,-145 194,-175 316,-175 316,-145 194,-145"/>
<text text-anchor="start" x="202" y="-163" font-family="Helvetica,sans-Serif" font-size="10.00">anonymous_namespace</text>
<text text-anchor="middle" x="255" y="-152" font-family="Helvetica,sans-Serif" font-size="10.00">{SAT_DE::cpp}::max</text>
</a>
</g>
</g>
<!-- Node1&#45;&gt;Node2 -->
<g id="edge1" class="edge"><title>Node1&#45;&gt;Node2</title>
<path fill="none" stroke="midnightblue" d="M48.7558,-95.5767C62.0323,-103.313 81.7322,-114.025 100,-121 126.731,-131.206 157.088,-139.545 183.743,-145.854"/>
<polygon fill="midnightblue" stroke="midnightblue" points="183.23,-149.328 193.761,-148.172 184.808,-142.508 183.23,-149.328"/>
</g>
<!-- Node3 -->
<g id="node3" class="node"><title>Node3</title>
<g id="a_node3"><a xlink:href="namespaceanonymous__namespace_02SAT__DE_8cpp_03.html#aabcae428edea4adc1bad5b1f9e9eb684" target="_top" xlink:title="anonymous_namespace\l\{SAT_DE::cpp\}::sign">
<polygon fill="white" stroke="black" points="194,-94 194,-124 316,-124 316,-94 194,-94"/>
<text text-anchor="start" x="202" y="-112" font-family="Helvetica,sans-Serif" font-size="10.00">anonymous_namespace</text>
<text text-anchor="middle" x="255" y="-101" font-family="Helvetica,sans-Serif" font-size="10.00">{SAT_DE::cpp}::sign</text>
</a>
</g>
</g>
<!-- Node1&#45;&gt;Node3 -->
<g id="edge2" class="edge"><title>Node1&#45;&gt;Node3</title>
<path fill="none" stroke="midnightblue" d="M60.6904,-95.5367C72.6327,-99.2078 86.852,-102.997 100,-105 127.076,-109.124 157.133,-110.589 183.454,-110.862"/>
<polygon fill="midnightblue" stroke="midnightblue" points="183.705,-114.363 193.722,-110.911 183.739,-107.363 183.705,-114.363"/>
</g>
<!-- Node4 -->
<g id="node4" class="node"><title>Node4</title>
<g id="a_node4"><a xlink:href="classDE.html#ada59157cf555a77f65242c04ad1c9e19" target="_top" xlink:title="DE::Intrp">
<polygon fill="white" stroke="black" points="101,-0.5 101,-19.5 157,-19.5 157,-0.5 101,-0.5"/>
<text text-anchor="middle" x="129" y="-7.5" font-family="Helvetica,sans-Serif" font-size="10.00">DE::Intrp</text>
</a>
</g>
</g>
<!-- Node1&#45;&gt;Node4 -->
<g id="edge3" class="edge"><title>Node1&#45;&gt;Node4</title>
<path fill="none" stroke="midnightblue" d="M45.0318,-76.3745C60.8785,-63.6972 88.9614,-41.2309 108.02,-25.9837"/>
<polygon fill="midnightblue" stroke="midnightblue" points="110.444,-28.5273 116.066,-19.5473 106.071,-23.0612 110.444,-28.5273"/>
</g>
<!-- Node5 -->
<g id="node5" class="node"><title>Node5</title>
<g id="a_node5"><a xlink:href="namespaceanonymous__namespace_02SAT__DE_8cpp_03.html#ae4ba4f69a40b68446f66e9f06a6df7c2" target="_top" xlink:title="anonymous_namespace\l\{SAT_DE::cpp\}::min">
<polygon fill="white" stroke="black" points="194,-41 194,-71 316,-71 316,-41 194,-41"/>
<text text-anchor="start" x="202" y="-59" font-family="Helvetica,sans-Serif" font-size="10.00">anonymous_namespace</text>
<text text-anchor="middle" x="255" y="-48" font-family="Helvetica,sans-Serif" font-size="10.00">{SAT_DE::cpp}::min</text>
</a>
</g>
</g>
<!-- Node1&#45;&gt;Node5 -->
<g id="edge4" class="edge"><title>Node1&#45;&gt;Node5</title>
<path fill="none" stroke="midnightblue" d="M61.7207,-76.4569C73.4627,-72.9237 87.258,-69.2374 100,-67 127.036,-62.2528 157.084,-59.5434 183.409,-58.0011"/>
<polygon fill="midnightblue" stroke="midnightblue" points="183.884,-61.4807 193.68,-57.4466 183.506,-54.4909 183.884,-61.4807"/>
</g>
<!-- Node6 -->
<g id="node6" class="node"><title>Node6</title>
<g id="a_node6"><a xlink:href="classDE.html#ac45486f7c7bf422c6bd024aba501a2a2" target="_top" xlink:title="DE::Step">
<polygon fill="white" stroke="black" points="100.5,-76.5 100.5,-95.5 157.5,-95.5 157.5,-76.5 100.5,-76.5"/>
<text text-anchor="middle" x="129" y="-83.5" font-family="Helvetica,sans-Serif" font-size="10.00">DE::Step</text>
</a>
</g>
</g>
<!-- Node1&#45;&gt;Node6 -->
<g id="edge5" class="edge"><title>Node1&#45;&gt;Node6</title>
<path fill="none" stroke="midnightblue" d="M64.1066,-86C72.4163,-86 81.4891,-86 90.1196,-86"/>
<polygon fill="midnightblue" stroke="midnightblue" points="90.3466,-89.5001 100.347,-86 90.3465,-82.5001 90.3466,-89.5001"/>
</g>
<!-- Node6&#45;&gt;Node3 -->
<g id="edge6" class="edge"><title>Node6&#45;&gt;Node3</title>
<path fill="none" stroke="midnightblue" d="M157.52,-91.1044C165.432,-92.572 174.442,-94.2433 183.704,-95.9613"/>
<polygon fill="midnightblue" stroke="midnightblue" points="183.343,-99.4538 193.813,-97.8363 184.619,-92.5712 183.343,-99.4538"/>
</g>
<!-- Node6&#45;&gt;Node2 -->
<g id="edge7" class="edge"><title>Node6&#45;&gt;Node2</title>
<path fill="none" stroke="midnightblue" d="M141.748,-95.805C154.205,-105.914 174.71,-121.746 194,-133 198.449,-135.596 203.193,-138.115 207.988,-140.504"/>
<polygon fill="midnightblue" stroke="midnightblue" points="206.682,-143.758 217.213,-144.923 209.706,-137.446 206.682,-143.758"/>
</g>
<!-- Node6&#45;&gt;Node5 -->
<g id="edge8" class="edge"><title>Node6&#45;&gt;Node5</title>
<path fill="none" stroke="midnightblue" d="M157.52,-79.342C165.516,-77.4074 174.634,-75.2014 184,-72.9355"/>
<polygon fill="midnightblue" stroke="midnightblue" points="184.917,-76.3147 193.813,-70.5613 183.271,-69.511 184.917,-76.3147"/>
</g>
</g>
</svg>
