<?xml version="1.0" encoding="UTF-8" standalone="no"?>
<!DOCTYPE svg PUBLIC "-//W3C//DTD SVG 1.1//EN"
 "http://www.w3.org/Graphics/SVG/1.1/DTD/svg11.dtd">
<!-- Generated by graphviz version 2.30.1 (20180420.1509)
 -->
<!-- Title: Matrix::size1 Pages: 1 -->
<svg width="496pt" height="180pt"
 viewBox="0.00 0.00 496.00 180.00" xmlns="http://www.w3.org/2000/svg" xmlns:xlink="http://www.w3.org/1999/xlink">
<g id="graph0" class="graph" transform="scale(1 1) rotate(0) translate(4 176)">
<title>Matrix::size1</title>
<polygon fill="white" stroke="white" points="-4,5 -4,-176 493,-176 493,5 -4,5"/>
<!-- Node1 -->
<g id="node1" class="node"><title>Node1</title>
<polygon fill="#bfbfbf" stroke="black" points="0.5,-57.5 0.5,-76.5 73.5,-76.5 73.5,-57.5 0.5,-57.5"/>
<text text-anchor="middle" x="37" y="-64.5" font-family="Helvetica,sans-Serif" font-size="10.00">Matrix::size1</text>
</g>
<!-- Node2 -->
<g id="node2" class="node"><title>Node2</title>
<g id="a_node2"><a xlink:href="SAT__Filter_8h.html#a3e84458a7d84898487cdf6d4bd3a483e" target="_top" xlink:title="InvUpper">
<polygon fill="white" stroke="black" points="119,-114.5 119,-133.5 175,-133.5 175,-114.5 119,-114.5"/>
<text text-anchor="middle" x="147" y="-121.5" font-family="Helvetica,sans-Serif" font-size="10.00">InvUpper</text>
</a>
</g>
</g>
<!-- Node1&#45;&gt;Node2 -->
<g id="edge1" class="edge"><title>Node1&#45;&gt;Node2</title>
<path fill="none" stroke="midnightblue" d="M65.3838,-81.4525C85.0025,-91.8069 110.872,-105.46 127.95,-114.474"/>
<polygon fill="midnightblue" stroke="midnightblue" points="66.7983,-78.2416 56.3207,-76.6693 63.5309,-84.4323 66.7983,-78.2416"/>
</g>
<!-- Node8 -->
<g id="node8" class="node"><title>Node8</title>
<g id="a_node8"><a xlink:href="SAT__VecMat_8cpp.html#a0ed403eed3f54b13ed46c0286f628163" target="_top" xlink:title="operator\&lt;\&lt;">
<polygon fill="white" stroke="black" points="115,-76.5 115,-95.5 179,-95.5 179,-76.5 115,-76.5"/>
<text text-anchor="middle" x="147" y="-83.5" font-family="Helvetica,sans-Serif" font-size="10.00">operator&lt;&lt;</text>
</a>
</g>
</g>
<!-- Node1&#45;&gt;Node8 -->
<g id="edge7" class="edge"><title>Node1&#45;&gt;Node8</title>
<path fill="none" stroke="midnightblue" d="M83.5464,-75.0128C94.0512,-76.8609 104.994,-78.7859 114.73,-80.4988"/>
<polygon fill="midnightblue" stroke="midnightblue" points="84.1178,-71.5596 73.6626,-73.274 82.9049,-78.4538 84.1178,-71.5596"/>
</g>
<!-- Node9 -->
<g id="node9" class="node"><title>Node9</title>
<g id="a_node9"><a xlink:href="SAT__VecMat_8h.html#a0f5c7f0b16752bb4e1eb41c9b191214c" target="_top" xlink:title="LU_Decomp">
<polygon fill="white" stroke="black" points="111.5,-38.5 111.5,-57.5 182.5,-57.5 182.5,-38.5 111.5,-38.5"/>
<text text-anchor="middle" x="147" y="-45.5" font-family="Helvetica,sans-Serif" font-size="10.00">LU_Decomp</text>
</a>
</g>
</g>
<!-- Node1&#45;&gt;Node9 -->
<g id="edge8" class="edge"><title>Node1&#45;&gt;Node9</title>
<path fill="none" stroke="midnightblue" d="M83.6006,-58.9777C92.9335,-57.3358 102.61,-55.6335 111.477,-54.0736"/>
<polygon fill="midnightblue" stroke="midnightblue" points="82.9049,-55.5462 73.6626,-60.726 84.1178,-62.4404 82.9049,-55.5462"/>
</g>
<!-- Node12 -->
<g id="node12" class="node"><title>Node12</title>
<g id="a_node12"><a xlink:href="SAT__VecMat_8h.html#a6576c679c3e505becc6efd99fd0c4d99" target="_top" xlink:title="LU_BackSub">
<polygon fill="white" stroke="black" points="110,-0.5 110,-19.5 184,-19.5 184,-0.5 110,-0.5"/>
<text text-anchor="middle" x="147" y="-7.5" font-family="Helvetica,sans-Serif" font-size="10.00">LU_BackSub</text>
</a>
</g>
</g>
<!-- Node1&#45;&gt;Node12 -->
<g id="edge11" class="edge"><title>Node1&#45;&gt;Node12</title>
<path fill="none" stroke="midnightblue" d="M65.3838,-52.5475C85.0025,-42.1931 110.872,-28.54 127.95,-19.5265"/>
<polygon fill="midnightblue" stroke="midnightblue" points="63.5309,-49.5677 56.3207,-57.3307 66.7983,-55.7584 63.5309,-49.5677"/>
</g>
<!-- Node3 -->
<g id="node3" class="node"><title>Node3</title>
<g id="a_node3"><a xlink:href="GEODA_8cpp.html#a0ddf1224851353fc92bfbff6f499fa97" target="_top" xlink:title="main">
<polygon fill="white" stroke="black" points="231,-152.5 231,-171.5 269,-171.5 269,-152.5 231,-152.5"/>
<text text-anchor="middle" x="250" y="-159.5" font-family="Helvetica,sans-Serif" font-size="10.00">main</text>
</a>
</g>
</g>
<!-- Node2&#45;&gt;Node3 -->
<g id="edge2" class="edge"><title>Node2&#45;&gt;Node3</title>
<path fill="none" stroke="midnightblue" d="M183.137,-137.22C199.219,-143.271 217.599,-150.186 230.848,-155.171"/>
<polygon fill="midnightblue" stroke="midnightblue" points="184.079,-133.835 173.487,-133.589 181.614,-140.386 184.079,-133.835"/>
</g>
<!-- Node4 -->
<g id="node4" class="node"><title>Node4</title>
<g id="a_node4"><a xlink:href="classLSQ.html#a5a2fdaddfaeaf4638bfaafc25a6ae793" target="_top" xlink:title="LSQ::Init">
<polygon fill="white" stroke="black" points="222,-114.5 222,-133.5 278,-133.5 278,-114.5 222,-114.5"/>
<text text-anchor="middle" x="250" y="-121.5" font-family="Helvetica,sans-Serif" font-size="10.00">LSQ::Init</text>
</a>
</g>
</g>
<!-- Node2&#45;&gt;Node4 -->
<g id="edge3" class="edge"><title>Node2&#45;&gt;Node4</title>
<path fill="none" stroke="midnightblue" d="M185.348,-124C197.453,-124 210.642,-124 221.859,-124"/>
<polygon fill="midnightblue" stroke="midnightblue" points="185.066,-120.5 175.066,-124 185.066,-127.5 185.066,-120.5"/>
</g>
<!-- Node5 -->
<g id="node5" class="node"><title>Node5</title>
<g id="a_node5"><a xlink:href="classLSQ.html#a1747470db996bda1d339df70088c463a" target="_top" xlink:title="LSQ::Cov">
<polygon fill="white" stroke="black" points="220,-76.5 220,-95.5 280,-95.5 280,-76.5 220,-76.5"/>
<text text-anchor="middle" x="250" y="-83.5" font-family="Helvetica,sans-Serif" font-size="10.00">LSQ::Cov</text>
</a>
</g>
</g>
<!-- Node2&#45;&gt;Node5 -->
<g id="edge4" class="edge"><title>Node2&#45;&gt;Node5</title>
<path fill="none" stroke="midnightblue" d="M182.866,-110.882C196.225,-105.856 211.202,-100.221 223.522,-95.5859"/>
<polygon fill="midnightblue" stroke="midnightblue" points="181.614,-107.614 173.487,-114.411 184.079,-114.165 181.614,-107.614"/>
</g>
<!-- Node6 -->
<g id="node6" class="node"><title>Node6</title>
<g id="a_node6"><a xlink:href="classLSQ.html#a735f9e8d4c4028b1e49e00ef0da87f97" target="_top" xlink:title="LSQ::StdDev">
<polygon fill="white" stroke="black" points="327.5,-76.5 327.5,-95.5 402.5,-95.5 402.5,-76.5 327.5,-76.5"/>
<text text-anchor="middle" x="365" y="-83.5" font-family="Helvetica,sans-Serif" font-size="10.00">LSQ::StdDev</text>
</a>
</g>
</g>
<!-- Node5&#45;&gt;Node6 -->
<g id="edge5" class="edge"><title>Node5&#45;&gt;Node6</title>
<path fill="none" stroke="midnightblue" d="M290.298,-86C302.309,-86 315.466,-86 327.298,-86"/>
<polygon fill="midnightblue" stroke="midnightblue" points="290.1,-82.5001 280.1,-86 290.1,-89.5001 290.1,-82.5001"/>
</g>
<!-- Node7 -->
<g id="node7" class="node"><title>Node7</title>
<g id="a_node7"><a xlink:href="TDRSOD_8cpp.html#a0ddf1224851353fc92bfbff6f499fa97" target="_top" xlink:title="main">
<polygon fill="white" stroke="black" points="450,-76.5 450,-95.5 488,-95.5 488,-76.5 450,-76.5"/>
<text text-anchor="middle" x="469" y="-83.5" font-family="Helvetica,sans-Serif" font-size="10.00">main</text>
</a>
</g>
</g>
<!-- Node6&#45;&gt;Node7 -->
<g id="edge6" class="edge"><title>Node6&#45;&gt;Node7</title>
<path fill="none" stroke="midnightblue" d="M412.559,-86C425.848,-86 439.543,-86 449.996,-86"/>
<polygon fill="midnightblue" stroke="midnightblue" points="412.536,-82.5001 402.536,-86 412.536,-89.5001 412.536,-82.5001"/>
</g>
<!-- Node10 -->
<g id="node10" class="node"><title>Node10</title>
<g id="a_node10"><a xlink:href="SAT__VecMat_8cpp.html#a5bdf67234eadeb0a304f11d4537047aa" target="_top" xlink:title="Inv">
<polygon fill="white" stroke="black" points="235,-19.5 235,-38.5 265,-38.5 265,-19.5 235,-19.5"/>
<text text-anchor="middle" x="250" y="-26.5" font-family="Helvetica,sans-Serif" font-size="10.00">Inv</text>
</a>
</g>
</g>
<!-- Node9&#45;&gt;Node10 -->
<g id="edge9" class="edge"><title>Node9&#45;&gt;Node10</title>
<path fill="none" stroke="midnightblue" d="M192.642,-39.6021C207.932,-36.7257 223.948,-33.7128 234.981,-31.6372"/>
<polygon fill="midnightblue" stroke="midnightblue" points="191.939,-36.1728 182.758,-41.4613 193.233,-43.0521 191.939,-36.1728"/>
</g>
<!-- Node11 -->
<g id="node11" class="node"><title>Node11</title>
<g id="a_node11"><a xlink:href="classEKF.html#a080c81bbef29da2b57caa52775f76602" target="_top" xlink:title="EKF::MeasUpdate">
<polygon fill="white" stroke="black" points="316,-19.5 316,-38.5 414,-38.5 414,-19.5 316,-19.5"/>
<text text-anchor="middle" x="365" y="-26.5" font-family="Helvetica,sans-Serif" font-size="10.00">EKF::MeasUpdate</text>
</a>
</g>
</g>
<!-- Node10&#45;&gt;Node11 -->
<g id="edge10" class="edge"><title>Node10&#45;&gt;Node11</title>
<path fill="none" stroke="midnightblue" d="M275.652,-29C287.43,-29 301.951,-29 315.792,-29"/>
<polygon fill="midnightblue" stroke="midnightblue" points="275.312,-25.5001 265.312,-29 275.311,-32.5001 275.312,-25.5001"/>
</g>
<!-- Node12&#45;&gt;Node10 -->
<g id="edge12" class="edge"><title>Node12&#45;&gt;Node10</title>
<path fill="none" stroke="midnightblue" d="M194.251,-18.7007C209.003,-21.4759 224.243,-24.3427 234.886,-26.3449"/>
<polygon fill="midnightblue" stroke="midnightblue" points="194.653,-15.2149 184.178,-16.8058 193.359,-22.0943 194.653,-15.2149"/>
</g>
</g>
</svg>
