<?xml version="1.0" encoding="UTF-8" standalone="no"?>
<!DOCTYPE svg PUBLIC "-//W3C//DTD SVG 1.1//EN"
 "http://www.w3.org/Graphics/SVG/1.1/DTD/svg11.dtd">
<!-- Generated by graphviz version 2.30.1 (20180420.1509)
 -->
<!-- Title: Matrix::size2 Pages: 1 -->
<svg width="464pt" height="104pt"
 viewBox="0.00 0.00 464.00 104.00" xmlns="http://www.w3.org/2000/svg" xmlns:xlink="http://www.w3.org/1999/xlink">
<g id="graph0" class="graph" transform="scale(1 1) rotate(0) translate(4 100)">
<title>Matrix::size2</title>
<polygon fill="white" stroke="white" points="-4,5 -4,-100 461,-100 461,5 -4,5"/>
<!-- Node1 -->
<g id="node1" class="node"><title>Node1</title>
<polygon fill="#bfbfbf" stroke="black" points="0.5,-19.5 0.5,-38.5 73.5,-38.5 73.5,-19.5 0.5,-19.5"/>
<text text-anchor="middle" x="37" y="-26.5" font-family="Helvetica,sans-Serif" font-size="10.00">Matrix::size2</text>
</g>
<!-- Node2 -->
<g id="node2" class="node"><title>Node2</title>
<g id="a_node2"><a xlink:href="SAT__Filter_8h.html#a3e84458a7d84898487cdf6d4bd3a483e" target="_top" xlink:title="InvUpper">
<polygon fill="white" stroke="black" points="114,-38.5 114,-57.5 170,-57.5 170,-38.5 114,-38.5"/>
<text text-anchor="middle" x="142" y="-45.5" font-family="Helvetica,sans-Serif" font-size="10.00">InvUpper</text>
</a>
</g>
</g>
<!-- Node1&#45;&gt;Node2 -->
<g id="edge1" class="edge"><title>Node1&#45;&gt;Node2</title>
<path fill="none" stroke="midnightblue" d="M83.8067,-37.4498C94.0402,-39.3375 104.577,-41.2812 113.775,-42.9779"/>
<polygon fill="midnightblue" stroke="midnightblue" points="84.2044,-33.9642 73.7353,-35.592 82.9345,-40.848 84.2044,-33.9642"/>
</g>
<!-- Node8 -->
<g id="node8" class="node"><title>Node8</title>
<g id="a_node8"><a xlink:href="SAT__VecMat_8cpp.html#a0ed403eed3f54b13ed46c0286f628163" target="_top" xlink:title="operator\&lt;\&lt;">
<polygon fill="white" stroke="black" points="110,-0.5 110,-19.5 174,-19.5 174,-0.5 110,-0.5"/>
<text text-anchor="middle" x="142" y="-7.5" font-family="Helvetica,sans-Serif" font-size="10.00">operator&lt;&lt;</text>
</a>
</g>
</g>
<!-- Node1&#45;&gt;Node8 -->
<g id="edge7" class="edge"><title>Node1&#45;&gt;Node8</title>
<path fill="none" stroke="midnightblue" d="M83.5775,-20.5925C92.4344,-18.9587 101.528,-17.2812 109.792,-15.7568"/>
<polygon fill="midnightblue" stroke="midnightblue" points="82.9345,-17.152 73.7353,-22.408 84.2044,-24.0358 82.9345,-17.152"/>
</g>
<!-- Node3 -->
<g id="node3" class="node"><title>Node3</title>
<g id="a_node3"><a xlink:href="GEODA_8cpp.html#a0ddf1224851353fc92bfbff6f499fa97" target="_top" xlink:title="main">
<polygon fill="white" stroke="black" points="221,-76.5 221,-95.5 259,-95.5 259,-76.5 221,-76.5"/>
<text text-anchor="middle" x="240" y="-83.5" font-family="Helvetica,sans-Serif" font-size="10.00">main</text>
</a>
</g>
</g>
<!-- Node2&#45;&gt;Node3 -->
<g id="edge2" class="edge"><title>Node2&#45;&gt;Node3</title>
<path fill="none" stroke="midnightblue" d="M176.635,-61.3139C191.502,-67.1986 208.394,-73.885 220.844,-78.8134"/>
<polygon fill="midnightblue" stroke="midnightblue" points="177.811,-58.0152 167.225,-57.589 175.235,-64.5239 177.811,-58.0152"/>
</g>
<!-- Node4 -->
<g id="node4" class="node"><title>Node4</title>
<g id="a_node4"><a xlink:href="classLSQ.html#a5a2fdaddfaeaf4638bfaafc25a6ae793" target="_top" xlink:title="LSQ::Init">
<polygon fill="white" stroke="black" points="212,-38.5 212,-57.5 268,-57.5 268,-38.5 212,-38.5"/>
<text text-anchor="middle" x="240" y="-45.5" font-family="Helvetica,sans-Serif" font-size="10.00">LSQ::Init</text>
</a>
</g>
</g>
<!-- Node2&#45;&gt;Node4 -->
<g id="edge3" class="edge"><title>Node2&#45;&gt;Node4</title>
<path fill="none" stroke="midnightblue" d="M180.373,-48C190.806,-48 201.944,-48 211.679,-48"/>
<polygon fill="midnightblue" stroke="midnightblue" points="180.253,-44.5001 170.253,-48 180.253,-51.5001 180.253,-44.5001"/>
</g>
<!-- Node5 -->
<g id="node5" class="node"><title>Node5</title>
<g id="a_node5"><a xlink:href="classLSQ.html#a1747470db996bda1d339df70088c463a" target="_top" xlink:title="LSQ::Cov">
<polygon fill="white" stroke="black" points="210,-0.5 210,-19.5 270,-19.5 270,-0.5 210,-0.5"/>
<text text-anchor="middle" x="240" y="-7.5" font-family="Helvetica,sans-Serif" font-size="10.00">LSQ::Cov</text>
</a>
</g>
</g>
<!-- Node2&#45;&gt;Node5 -->
<g id="edge4" class="edge"><title>Node2&#45;&gt;Node5</title>
<path fill="none" stroke="midnightblue" d="M176.882,-34.5886C189.389,-29.6376 203.301,-24.1309 214.783,-19.5859"/>
<polygon fill="midnightblue" stroke="midnightblue" points="175.235,-31.4761 167.225,-38.411 177.811,-37.9848 175.235,-31.4761"/>
</g>
<!-- Node6 -->
<g id="node6" class="node"><title>Node6</title>
<g id="a_node6"><a xlink:href="classLSQ.html#a735f9e8d4c4028b1e49e00ef0da87f97" target="_top" xlink:title="LSQ::StdDev">
<polygon fill="white" stroke="black" points="306.5,-0.5 306.5,-19.5 381.5,-19.5 381.5,-0.5 306.5,-0.5"/>
<text text-anchor="middle" x="344" y="-7.5" font-family="Helvetica,sans-Serif" font-size="10.00">LSQ::StdDev</text>
</a>
</g>
</g>
<!-- Node5&#45;&gt;Node6 -->
<g id="edge5" class="edge"><title>Node5&#45;&gt;Node6</title>
<path fill="none" stroke="midnightblue" d="M280.401,-10C288.986,-10 298.033,-10 306.5,-10"/>
<polygon fill="midnightblue" stroke="midnightblue" points="280.229,-6.5001 270.229,-10 280.229,-13.5001 280.229,-6.5001"/>
</g>
<!-- Node7 -->
<g id="node7" class="node"><title>Node7</title>
<g id="a_node7"><a xlink:href="TDRSOD_8cpp.html#a0ddf1224851353fc92bfbff6f499fa97" target="_top" xlink:title="main">
<polygon fill="white" stroke="black" points="418,-0.5 418,-19.5 456,-19.5 456,-0.5 418,-0.5"/>
<text text-anchor="middle" x="437" y="-7.5" font-family="Helvetica,sans-Serif" font-size="10.00">main</text>
</a>
</g>
</g>
<!-- Node6&#45;&gt;Node7 -->
<g id="edge6" class="edge"><title>Node6&#45;&gt;Node7</title>
<path fill="none" stroke="midnightblue" d="M391.775,-10C401.055,-10 410.264,-10 417.856,-10"/>
<polygon fill="midnightblue" stroke="midnightblue" points="391.751,-6.5001 381.751,-10 391.751,-13.5001 391.751,-6.5001"/>
</g>
</g>
</svg>
