<?xml version="1.0" encoding="UTF-8" standalone="no"?>
<!DOCTYPE svg PUBLIC "-//W3C//DTD SVG 1.1//EN"
 "http://www.w3.org/Graphics/SVG/1.1/DTD/svg11.dtd">
<!-- Generated by graphviz version 2.30.1 (20180420.1509)
 -->
<!-- Title: Matrix::SetCol Pages: 1 -->
<svg width="194pt" height="66pt"
 viewBox="0.00 0.00 194.00 66.00" xmlns="http://www.w3.org/2000/svg" xmlns:xlink="http://www.w3.org/1999/xlink">
<g id="graph0" class="graph" transform="scale(1 1) rotate(0) translate(4 62)">
<title>Matrix::SetCol</title>
<polygon fill="white" stroke="white" points="-4,5 -4,-62 191,-62 191,5 -4,5"/>
<!-- Node1 -->
<g id="node1" class="node"><title>Node1</title>
<polygon fill="#bfbfbf" stroke="black" points="0,-19.5 0,-38.5 80,-38.5 80,-19.5 0,-19.5"/>
<text text-anchor="middle" x="40" y="-26.5" font-family="Helvetica,sans-Serif" font-size="10.00">Matrix::SetCol</text>
</g>
<!-- Node2 -->
<g id="node2" class="node"><title>Node2</title>
<g id="a_node2"><a xlink:href="classVector.html#a3c8f59182463d6da833e7856f06e6171" target="_top" xlink:title="Vector::size">
<polygon fill="white" stroke="black" points="116.5,-38.5 116.5,-57.5 185.5,-57.5 185.5,-38.5 116.5,-38.5"/>
<text text-anchor="middle" x="151" y="-45.5" font-family="Helvetica,sans-Serif" font-size="10.00">Vector::size</text>
</a>
</g>
</g>
<!-- Node1&#45;&gt;Node2 -->
<g id="edge1" class="edge"><title>Node1&#45;&gt;Node2</title>
<path fill="none" stroke="midnightblue" d="M80.0436,-35.8058C88.5614,-37.2905 97.6283,-38.871 106.313,-40.3849"/>
<polygon fill="midnightblue" stroke="midnightblue" points="105.825,-43.8525 116.278,-42.1218 107.028,-36.9565 105.825,-43.8525"/>
</g>
<!-- Node3 -->
<g id="node3" class="node"><title>Node3</title>
<g id="a_node3"><a xlink:href="classMatrix.html#a02c825325655a07eb94e4a57478a4c18" target="_top" xlink:title="Matrix::Col">
<polygon fill="white" stroke="black" points="118.5,-0.5 118.5,-19.5 183.5,-19.5 183.5,-0.5 118.5,-0.5"/>
<text text-anchor="middle" x="151" y="-7.5" font-family="Helvetica,sans-Serif" font-size="10.00">Matrix::Col</text>
</a>
</g>
</g>
<!-- Node1&#45;&gt;Node3 -->
<g id="edge2" class="edge"><title>Node1&#45;&gt;Node3</title>
<path fill="none" stroke="midnightblue" d="M80.0436,-22.1942C89.2849,-20.5834 99.1725,-18.8598 108.518,-17.2308"/>
<polygon fill="midnightblue" stroke="midnightblue" points="109.139,-20.6755 118.389,-15.5101 107.937,-13.7794 109.139,-20.6755"/>
</g>
</g>
</svg>
