<?xml version="1.0" encoding="UTF-8" standalone="no"?>
<!DOCTYPE svg PUBLIC "-//W3C//DTD SVG 1.1//EN"
 "http://www.w3.org/Graphics/SVG/1.1/DTD/svg11.dtd">
<!-- Generated by graphviz version 2.30.1 (20180420.1509)
 -->
<!-- Title: TrjData::PhiS Pages: 1 -->
<svg width="306pt" height="66pt"
 viewBox="0.00 0.00 306.00 66.00" xmlns="http://www.w3.org/2000/svg" xmlns:xlink="http://www.w3.org/1999/xlink">
<g id="graph0" class="graph" transform="scale(1 1) rotate(0) translate(4 62)">
<title>TrjData::PhiS</title>
<polygon fill="white" stroke="white" points="-4,5 -4,-62 303,-62 303,5 -4,5"/>
<!-- Node1 -->
<g id="node1" class="node"><title>Node1</title>
<polygon fill="#bfbfbf" stroke="black" points="0,-19.5 0,-38.5 76,-38.5 76,-19.5 0,-19.5"/>
<text text-anchor="middle" x="38" y="-26.5" font-family="Helvetica,sans-Serif" font-size="10.00">TrjData::PhiS</text>
</g>
<!-- Node2 -->
<g id="node2" class="node"><title>Node2</title>
<g id="a_node2"><a xlink:href="classMatrix.html#ae9f1574a9cf6595c64ce1236a8003cd2" target="_top" xlink:title="Matrix::SetCol">
<polygon fill="white" stroke="black" points="112,-19.5 112,-38.5 192,-38.5 192,-19.5 112,-19.5"/>
<text text-anchor="middle" x="152" y="-26.5" font-family="Helvetica,sans-Serif" font-size="10.00">Matrix::SetCol</text>
</a>
</g>
</g>
<!-- Node1&#45;&gt;Node2 -->
<g id="edge1" class="edge"><title>Node1&#45;&gt;Node2</title>
<path fill="none" stroke="midnightblue" d="M76.2944,-29C84.4376,-29 93.177,-29 101.706,-29"/>
<polygon fill="midnightblue" stroke="midnightblue" points="101.951,-32.5001 111.951,-29 101.951,-25.5001 101.951,-32.5001"/>
</g>
<!-- Node3 -->
<g id="node3" class="node"><title>Node3</title>
<g id="a_node3"><a xlink:href="classVector.html#a3c8f59182463d6da833e7856f06e6171" target="_top" xlink:title="Vector::size">
<polygon fill="white" stroke="black" points="228.5,-38.5 228.5,-57.5 297.5,-57.5 297.5,-38.5 228.5,-38.5"/>
<text text-anchor="middle" x="263" y="-45.5" font-family="Helvetica,sans-Serif" font-size="10.00">Vector::size</text>
</a>
</g>
</g>
<!-- Node2&#45;&gt;Node3 -->
<g id="edge2" class="edge"><title>Node2&#45;&gt;Node3</title>
<path fill="none" stroke="midnightblue" d="M192.044,-35.8058C200.561,-37.2905 209.628,-38.871 218.313,-40.3849"/>
<polygon fill="midnightblue" stroke="midnightblue" points="217.825,-43.8525 228.278,-42.1218 219.028,-36.9565 217.825,-43.8525"/>
</g>
<!-- Node4 -->
<g id="node4" class="node"><title>Node4</title>
<g id="a_node4"><a xlink:href="classMatrix.html#a02c825325655a07eb94e4a57478a4c18" target="_top" xlink:title="Matrix::Col">
<polygon fill="white" stroke="black" points="230.5,-0.5 230.5,-19.5 295.5,-19.5 295.5,-0.5 230.5,-0.5"/>
<text text-anchor="middle" x="263" y="-7.5" font-family="Helvetica,sans-Serif" font-size="10.00">Matrix::Col</text>
</a>
</g>
</g>
<!-- Node2&#45;&gt;Node4 -->
<g id="edge3" class="edge"><title>Node2&#45;&gt;Node4</title>
<path fill="none" stroke="midnightblue" d="M192.044,-22.1942C201.285,-20.5834 211.173,-18.8598 220.518,-17.2308"/>
<polygon fill="midnightblue" stroke="midnightblue" points="221.139,-20.6755 230.389,-15.5101 219.937,-13.7794 221.139,-20.6755"/>
</g>
</g>
</svg>
