<?xml version="1.0" encoding="UTF-8" standalone="no"?>
<!DOCTYPE svg PUBLIC "-//W3C//DTD SVG 1.1//EN"
 "http://www.w3.org/Graphics/SVG/1.1/DTD/svg11.dtd">
<!-- Generated by graphviz version 2.30.1 (20180420.1509)
 -->
<!-- Title: IERS::UTC_TAI Pages: 1 -->
<svg width="490pt" height="314pt"
 viewBox="0.00 0.00 490.00 313.82" xmlns="http://www.w3.org/2000/svg" xmlns:xlink="http://www.w3.org/1999/xlink">
<g id="graph0" class="graph" transform="scale(1 1) rotate(0) translate(4 309.817)">
<title>IERS::UTC_TAI</title>
<polygon fill="white" stroke="white" points="-4,5 -4,-309.817 487,-309.817 487,5 -4,5"/>
<!-- Node1 -->
<g id="node1" class="node"><title>Node1</title>
<polygon fill="#bfbfbf" stroke="black" points="0.5,-142.5 0.5,-161.5 89.5,-161.5 89.5,-142.5 0.5,-142.5"/>
<text text-anchor="middle" x="45" y="-149.5" font-family="Helvetica,sans-Serif" font-size="10.00">IERS::UTC_TAI</text>
</g>
<!-- Node2 -->
<g id="node2" class="node"><title>Node2</title>
<g id="a_node2"><a xlink:href="classIERS.html#ae1161daecc9629cdb716884cef9d1fa9" target="_top" xlink:title="IERS::Set">
<polygon fill="white" stroke="black" points="142,-142.5 142,-161.5 204,-161.5 204,-142.5 142,-142.5"/>
<text text-anchor="middle" x="173" y="-149.5" font-family="Helvetica,sans-Serif" font-size="10.00">IERS::Set</text>
</a>
</g>
</g>
<!-- Node1&#45;&gt;Node2 -->
<g id="edge1" class="edge"><title>Node1&#45;&gt;Node2</title>
<path fill="none" stroke="midnightblue" d="M99.993,-152C114.322,-152 129.286,-152 141.836,-152"/>
<polygon fill="midnightblue" stroke="midnightblue" points="99.7151,-148.5 89.7151,-152 99.715,-155.5 99.7151,-148.5"/>
</g>
<!-- Node5 -->
<g id="node5" class="node"><title>Node5</title>
<g id="a_node5"><a xlink:href="classIERS.html#af3a179849d1bd691235472984ffa1995" target="_top" xlink:title="IERS::UTC_GPS">
<polygon fill="white" stroke="black" points="126,-47.5 126,-66.5 220,-66.5 220,-47.5 126,-47.5"/>
<text text-anchor="middle" x="173" y="-54.5" font-family="Helvetica,sans-Serif" font-size="10.00">IERS::UTC_GPS</text>
</a>
</g>
</g>
<!-- Node1&#45;&gt;Node5 -->
<g id="edge4" class="edge"><title>Node1&#45;&gt;Node5</title>
<path fill="none" stroke="midnightblue" d="M60.9217,-134.484C75.9668,-117.691 100.548,-92.5202 126,-76 131.508,-72.4247 137.8,-69.2977 143.925,-66.6679"/>
<polygon fill="midnightblue" stroke="midnightblue" points="57.9312,-132.586 53.9692,-142.412 63.1941,-137.201 57.9312,-132.586"/>
</g>
<!-- Node6 -->
<g id="node6" class="node"><title>Node6</title>
<g id="a_node6"><a xlink:href="classIERS.html#abe17029c05804e5886ae14eae119c0f1" target="_top" xlink:title="IERS::TT_UTC">
<polygon fill="white" stroke="black" points="130.5,-85.5 130.5,-104.5 215.5,-104.5 215.5,-85.5 130.5,-85.5"/>
<text text-anchor="middle" x="173" y="-92.5" font-family="Helvetica,sans-Serif" font-size="10.00">IERS::TT_UTC</text>
</a>
</g>
</g>
<!-- Node1&#45;&gt;Node6 -->
<g id="edge5" class="edge"><title>Node1&#45;&gt;Node6</title>
<path fill="none" stroke="midnightblue" d="M76.411,-138.243C99.4327,-127.828 130.466,-113.789 150.842,-104.572"/>
<polygon fill="midnightblue" stroke="midnightblue" points="74.758,-135.149 67.0896,-142.459 77.6433,-141.527 74.758,-135.149"/>
</g>
<!-- Node10 -->
<g id="node10" class="node"><title>Node10</title>
<g id="a_node10"><a xlink:href="classIERS.html#a79c2d9fcfafe0c0d8cee4545e17af0f3" target="_top" xlink:title="IERS::GPS_UTC">
<polygon fill="white" stroke="black" points="126,-266.5 126,-285.5 220,-285.5 220,-266.5 126,-266.5"/>
<text text-anchor="middle" x="173" y="-273.5" font-family="Helvetica,sans-Serif" font-size="10.00">IERS::GPS_UTC</text>
</a>
</g>
</g>
<!-- Node1&#45;&gt;Node10 -->
<g id="edge11" class="edge"><title>Node1&#45;&gt;Node10</title>
<path fill="none" stroke="midnightblue" d="M63.0472,-168.777C89.792,-195.097 140.764,-245.259 162.159,-266.315"/>
<polygon fill="midnightblue" stroke="midnightblue" points="65.4695,-166.25 55.887,-161.73 60.5594,-171.239 65.4695,-166.25"/>
</g>
<!-- Node14 -->
<g id="node14" class="node"><title>Node14</title>
<g id="a_node14"><a xlink:href="classIERS.html#a2601a074a58e3c470db336bc1aea6791" target="_top" xlink:title="IERS::UT1_UTC">
<polygon fill="white" stroke="black" points="127,-200.5 127,-219.5 219,-219.5 219,-200.5 127,-200.5"/>
<text text-anchor="middle" x="173" y="-207.5" font-family="Helvetica,sans-Serif" font-size="10.00">IERS::UT1_UTC</text>
</a>
</g>
</g>
<!-- Node1&#45;&gt;Node14 -->
<g id="edge18" class="edge"><title>Node1&#45;&gt;Node14</title>
<path fill="none" stroke="midnightblue" d="M76.1758,-165.89C99.3418,-176.554 130.724,-191 151.163,-200.408"/>
<polygon fill="midnightblue" stroke="midnightblue" points="77.3537,-162.58 66.8063,-161.578 74.4266,-168.938 77.3537,-162.58"/>
</g>
<!-- Node3 -->
<g id="node3" class="node"><title>Node3</title>
<g id="a_node3"><a xlink:href="RTOD_8cpp.html#a0ddf1224851353fc92bfbff6f499fa97" target="_top" xlink:title="main">
<polygon fill="white" stroke="black" points="444,-247.5 444,-266.5 482,-266.5 482,-247.5 444,-247.5"/>
<text text-anchor="middle" x="463" y="-254.5" font-family="Helvetica,sans-Serif" font-size="10.00">main</text>
</a>
</g>
</g>
<!-- Node2&#45;&gt;Node3 -->
<g id="edge2" class="edge"><title>Node2&#45;&gt;Node3</title>
<path fill="none" stroke="midnightblue" d="M214.42,-147.599C263.723,-144.235 347.91,-145.129 408,-181 434.267,-196.68 451.182,-230.632 458.237,-247.33"/>
<polygon fill="midnightblue" stroke="midnightblue" points="213.853,-144.132 204.154,-148.396 214.395,-151.111 213.853,-144.132"/>
</g>
<!-- Node4 -->
<g id="node4" class="node"><title>Node4</title>
<g id="a_node4"><a xlink:href="TDRSOD_8cpp.html#a905d1bd8096476fe062f28efb2acef7b" target="_top" xlink:title="GetSetup">
<polygon fill="white" stroke="black" points="260,-76.5 260,-95.5 318,-95.5 318,-76.5 260,-76.5"/>
<text text-anchor="middle" x="289" y="-83.5" font-family="Helvetica,sans-Serif" font-size="10.00">GetSetup</text>
</a>
</g>
</g>
<!-- Node2&#45;&gt;Node4 -->
<g id="edge3" class="edge"><title>Node2&#45;&gt;Node4</title>
<path fill="none" stroke="midnightblue" d="M199.628,-137.163C221.613,-124.435 252.642,-106.471 271.481,-95.5639"/>
<polygon fill="midnightblue" stroke="midnightblue" points="197.722,-134.222 190.821,-142.261 201.229,-140.28 197.722,-134.222"/>
</g>
<!-- Node7 -->
<g id="node7" class="node"><title>Node7</title>
<g id="a_node7"><a xlink:href="TDRSOD_8cpp.html#a1d3803a2ec3760bf63edefae54e3ac5b" target="_top" xlink:title="Accel">
<polygon fill="white" stroke="black" points="268.5,-0.5 268.5,-19.5 309.5,-19.5 309.5,-0.5 268.5,-0.5"/>
<text text-anchor="middle" x="289" y="-7.5" font-family="Helvetica,sans-Serif" font-size="10.00">Accel</text>
</a>
</g>
</g>
<!-- Node6&#45;&gt;Node7 -->
<g id="edge6" class="edge"><title>Node6&#45;&gt;Node7</title>
<path fill="none" stroke="midnightblue" d="M212.472,-80.772C215.1,-79.3008 217.638,-77.7108 220,-76 239.91,-61.5766 238.059,-50.8093 256,-34 261.473,-28.8722 268.024,-23.7995 273.768,-19.648"/>
<polygon fill="midnightblue" stroke="midnightblue" points="210.72,-77.7346 203.323,-85.3198 213.835,-84.003 210.72,-77.7346"/>
</g>
<!-- Node8 -->
<g id="node8" class="node"><title>Node8</title>
<g id="a_node8"><a xlink:href="TDRSOD_8cpp.html#a466ab098330aeb2aa659365279071640" target="_top" xlink:title="Range_4W">
<polygon fill="white" stroke="black" points="256.5,-114.5 256.5,-133.5 321.5,-133.5 321.5,-114.5 256.5,-114.5"/>
<text text-anchor="middle" x="289" y="-121.5" font-family="Helvetica,sans-Serif" font-size="10.00">Range_4W</text>
</a>
</g>
</g>
<!-- Node6&#45;&gt;Node8 -->
<g id="edge7" class="edge"><title>Node6&#45;&gt;Node8</title>
<path fill="none" stroke="midnightblue" d="M221.404,-107.059C233.238,-110.069 245.64,-113.224 256.491,-115.984"/>
<polygon fill="midnightblue" stroke="midnightblue" points="222.198,-103.65 211.644,-104.576 220.472,-110.433 222.198,-103.65"/>
</g>
<!-- Node6&#45;&gt;Node4 -->
<g id="edge9" class="edge"><title>Node6&#45;&gt;Node4</title>
<path fill="none" stroke="midnightblue" d="M225.908,-90.902C237.548,-89.983 249.473,-89.0416 259.722,-88.2325"/>
<polygon fill="midnightblue" stroke="midnightblue" points="225.496,-87.4236 215.802,-91.6998 226.047,-94.4019 225.496,-87.4236"/>
</g>
<!-- Node9 -->
<g id="node9" class="node"><title>Node9</title>
<g id="a_node9"><a xlink:href="TDRSOD_8cpp.html#a0ddf1224851353fc92bfbff6f499fa97" target="_top" xlink:title="main">
<polygon fill="white" stroke="black" points="444,-114.5 444,-133.5 482,-133.5 482,-114.5 444,-114.5"/>
<text text-anchor="middle" x="463" y="-121.5" font-family="Helvetica,sans-Serif" font-size="10.00">main</text>
</a>
</g>
</g>
<!-- Node6&#45;&gt;Node9 -->
<g id="edge10" class="edge"><title>Node6&#45;&gt;Node9</title>
<path fill="none" stroke="midnightblue" d="M205.116,-81.673C220.181,-75.9253 238.714,-69.87 256,-67 284.937,-62.1957 293.213,-61.3644 322,-67 368.357,-76.0753 418.738,-100.568 444.567,-114.311"/>
<polygon fill="midnightblue" stroke="midnightblue" points="203.777,-78.4384 195.764,-85.3691 206.35,-84.9484 203.777,-78.4384"/>
</g>
<!-- Node8&#45;&gt;Node9 -->
<g id="edge8" class="edge"><title>Node8&#45;&gt;Node9</title>
<path fill="none" stroke="midnightblue" d="M331.703,-124C367.511,-124 417.411,-124 443.862,-124"/>
<polygon fill="midnightblue" stroke="midnightblue" points="331.547,-120.5 321.547,-124 331.547,-127.5 331.547,-120.5"/>
</g>
<!-- Node11 -->
<g id="node11" class="node"><title>Node11</title>
<g id="a_node11"><a xlink:href="RTOD_8cpp.html#ad928b0e88089fe577162bad47f911adf" target="_top" xlink:title="Accel">
<polygon fill="white" stroke="black" points="268.5,-266.5 268.5,-285.5 309.5,-285.5 309.5,-266.5 268.5,-266.5"/>
<text text-anchor="middle" x="289" y="-273.5" font-family="Helvetica,sans-Serif" font-size="10.00">Accel</text>
</a>
</g>
</g>
<!-- Node10&#45;&gt;Node11 -->
<g id="edge12" class="edge"><title>Node10&#45;&gt;Node11</title>
<path fill="none" stroke="midnightblue" d="M230.394,-276C244.014,-276 257.68,-276 268.281,-276"/>
<polygon fill="midnightblue" stroke="midnightblue" points="230.04,-272.5 220.04,-276 230.04,-279.5 230.04,-272.5"/>
</g>
<!-- Node10&#45;&gt;Node3 -->
<g id="edge17" class="edge"><title>Node10&#45;&gt;Node3</title>
<path fill="none" stroke="midnightblue" d="M213.876,-288.274C261.298,-300.834 342.294,-315.802 408,-295 425.486,-289.464 442.209,-276.004 452.291,-266.688"/>
<polygon fill="midnightblue" stroke="midnightblue" points="214.569,-284.835 203.999,-285.564 212.716,-291.586 214.569,-284.835"/>
</g>
<!-- Node12 -->
<g id="node12" class="node"><title>Node12</title>
<g id="a_node12"><a xlink:href="RTOD_8cpp.html#a8ed60f2e5115e2e00c123e12b1cbb649" target="_top" xlink:title="Deriv">
<polygon fill="white" stroke="black" points="363,-266.5 363,-285.5 403,-285.5 403,-266.5 363,-266.5"/>
<text text-anchor="middle" x="383" y="-273.5" font-family="Helvetica,sans-Serif" font-size="10.00">Deriv</text>
</a>
</g>
</g>
<!-- Node11&#45;&gt;Node12 -->
<g id="edge13" class="edge"><title>Node11&#45;&gt;Node12</title>
<path fill="none" stroke="midnightblue" d="M319.758,-276C333.895,-276 350.381,-276 362.833,-276"/>
<polygon fill="midnightblue" stroke="midnightblue" points="319.511,-272.5 309.511,-276 319.511,-279.5 319.511,-272.5"/>
</g>
<!-- Node13 -->
<g id="node13" class="node"><title>Node13</title>
<g id="a_node13"><a xlink:href="TDRSOD_8cpp.html#a3df5b7f547d4cb81cae1bbb6d6a2962a" target="_top" xlink:title="VarEqn">
<polygon fill="white" stroke="black" points="358.5,-190.5 358.5,-209.5 407.5,-209.5 407.5,-190.5 358.5,-190.5"/>
<text text-anchor="middle" x="383" y="-197.5" font-family="Helvetica,sans-Serif" font-size="10.00">VarEqn</text>
</a>
</g>
</g>
<!-- Node11&#45;&gt;Node13 -->
<g id="edge15" class="edge"><title>Node11&#45;&gt;Node13</title>
<path fill="none" stroke="midnightblue" d="M309.463,-259.922C327.956,-244.645 355.145,-222.184 370.443,-209.547"/>
<polygon fill="midnightblue" stroke="midnightblue" points="307.132,-257.307 301.652,-266.375 311.591,-262.704 307.132,-257.307"/>
</g>
<!-- Node12&#45;&gt;Node3 -->
<g id="edge14" class="edge"><title>Node12&#45;&gt;Node3</title>
<path fill="none" stroke="midnightblue" d="M413.109,-268.909C423.379,-266.408 434.628,-263.667 443.745,-261.447"/>
<polygon fill="midnightblue" stroke="midnightblue" points="412.168,-265.536 403.281,-271.303 413.825,-272.337 412.168,-265.536"/>
</g>
<!-- Node13&#45;&gt;Node9 -->
<g id="edge16" class="edge"><title>Node13&#45;&gt;Node9</title>
<path fill="none" stroke="midnightblue" d="M401.311,-183.133C416.864,-167.979 439.165,-146.249 451.955,-133.787"/>
<polygon fill="midnightblue" stroke="midnightblue" points="398.599,-180.889 393.879,-190.375 403.484,-185.903 398.599,-180.889"/>
</g>
<!-- Node14&#45;&gt;Node11 -->
<g id="edge19" class="edge"><title>Node14&#45;&gt;Node11</title>
<path fill="none" stroke="midnightblue" d="M199.628,-224.837C221.613,-237.565 252.642,-255.529 271.481,-266.436"/>
<polygon fill="midnightblue" stroke="midnightblue" points="201.229,-221.72 190.821,-219.739 197.722,-227.778 201.229,-221.72"/>
</g>
<!-- Node14&#45;&gt;Node3 -->
<g id="edge20" class="edge"><title>Node14&#45;&gt;Node3</title>
<path fill="none" stroke="midnightblue" d="M229.516,-219.06C295.319,-229.799 401.376,-247.107 443.701,-254.014"/>
<polygon fill="midnightblue" stroke="midnightblue" points="229.75,-215.552 219.317,-217.395 228.623,-222.46 229.75,-215.552"/>
</g>
<!-- Node14&#45;&gt;Node8 -->
<g id="edge21" class="edge"><title>Node14&#45;&gt;Node8</title>
<path fill="none" stroke="midnightblue" d="M194.897,-194.235C218.407,-176.5 255.842,-148.259 275.308,-133.575"/>
<polygon fill="midnightblue" stroke="midnightblue" points="192.511,-191.651 186.636,-200.468 196.727,-197.24 192.511,-191.651"/>
</g>
</g>
</svg>
