<?xml version="1.0" encoding="UTF-8" standalone="no"?>
<!DOCTYPE svg PUBLIC "-//W3C//DTD SVG 1.1//EN"
 "http://www.w3.org/Graphics/SVG/1.1/DTD/svg11.dtd">
<!-- Generated by graphviz version 2.30.1 (20180420.1509)
 -->
<!-- Title: EKF::MeasUpdate Pages: 1 -->
<svg width="416pt" height="142pt"
 viewBox="0.00 0.00 416.00 142.00" xmlns="http://www.w3.org/2000/svg" xmlns:xlink="http://www.w3.org/1999/xlink">
<g id="graph0" class="graph" transform="scale(1 1) rotate(0) translate(4 138)">
<title>EKF::MeasUpdate</title>
<polygon fill="white" stroke="white" points="-4,5 -4,-138 413,-138 413,5 -4,5"/>
<!-- Node1 -->
<g id="node1" class="node"><title>Node1</title>
<polygon fill="#bfbfbf" stroke="black" points="0,-57.5 0,-76.5 98,-76.5 98,-57.5 0,-57.5"/>
<text text-anchor="middle" x="49" y="-64.5" font-family="Helvetica,sans-Serif" font-size="10.00">EKF::MeasUpdate</text>
</g>
<!-- Node2 -->
<g id="node2" class="node"><title>Node2</title>
<g id="a_node2"><a xlink:href="classVector.html#a3c8f59182463d6da833e7856f06e6171" target="_top" xlink:title="Vector::size">
<polygon fill="white" stroke="black" points="336.5,-114.5 336.5,-133.5 405.5,-133.5 405.5,-114.5 336.5,-114.5"/>
<text text-anchor="middle" x="371" y="-121.5" font-family="Helvetica,sans-Serif" font-size="10.00">Vector::size</text>
</a>
</g>
</g>
<!-- Node1&#45;&gt;Node2 -->
<g id="edge1" class="edge"><title>Node1&#45;&gt;Node2</title>
<path fill="none" stroke="midnightblue" d="M66.7392,-76.6641C83.2546,-85.6862 109.513,-98.6799 134,-105 199.446,-121.891 278.185,-124.922 326.14,-124.93"/>
<polygon fill="midnightblue" stroke="midnightblue" points="326.196,-128.429 336.181,-124.887 326.166,-121.429 326.196,-128.429"/>
</g>
<!-- Node3 -->
<g id="node3" class="node"><title>Node3</title>
<g id="a_node3"><a xlink:href="SAT__VecMat_8cpp.html#aa54829a0c63c78e6bfbd12285ad94075" target="_top" xlink:title="Transp">
<polygon fill="white" stroke="black" points="134.5,-76.5 134.5,-95.5 181.5,-95.5 181.5,-76.5 134.5,-76.5"/>
<text text-anchor="middle" x="158" y="-83.5" font-family="Helvetica,sans-Serif" font-size="10.00">Transp</text>
</a>
</g>
</g>
<!-- Node1&#45;&gt;Node3 -->
<g id="edge2" class="edge"><title>Node1&#45;&gt;Node3</title>
<path fill="none" stroke="midnightblue" d="M98.1787,-75.5551C107.071,-77.1341 116.162,-78.7484 124.455,-80.2209"/>
<polygon fill="midnightblue" stroke="midnightblue" points="123.999,-83.6947 134.457,-81.9971 125.223,-76.8025 123.999,-83.6947"/>
</g>
<!-- Node4 -->
<g id="node4" class="node"><title>Node4</title>
<g id="a_node4"><a xlink:href="SAT__VecMat_8cpp.html#a5bdf67234eadeb0a304f11d4537047aa" target="_top" xlink:title="Inv">
<polygon fill="white" stroke="black" points="143,-38.5 143,-57.5 173,-57.5 173,-38.5 143,-38.5"/>
<text text-anchor="middle" x="158" y="-45.5" font-family="Helvetica,sans-Serif" font-size="10.00">Inv</text>
</a>
</g>
</g>
<!-- Node1&#45;&gt;Node4 -->
<g id="edge3" class="edge"><title>Node1&#45;&gt;Node4</title>
<path fill="none" stroke="midnightblue" d="M98.1787,-58.4449C110.2,-56.3103 122.583,-54.1114 132.868,-52.285"/>
<polygon fill="midnightblue" stroke="midnightblue" points="133.49,-55.7296 142.724,-50.535 132.266,-48.8374 133.49,-55.7296"/>
</g>
<!-- Node10 -->
<g id="node10" class="node"><title>Node10</title>
<g id="a_node10"><a xlink:href="SAT__VecMat_8cpp.html#ac71a8aaf67fa3c90f274788d91002af9" target="_top" xlink:title="Id">
<polygon fill="white" stroke="black" points="143.5,-0.5 143.5,-19.5 172.5,-19.5 172.5,-0.5 143.5,-0.5"/>
<text text-anchor="middle" x="158" y="-7.5" font-family="Helvetica,sans-Serif" font-size="10.00">Id</text>
</a>
</g>
</g>
<!-- Node1&#45;&gt;Node10 -->
<g id="edge11" class="edge"><title>Node1&#45;&gt;Node10</title>
<path fill="none" stroke="midnightblue" d="M68.1511,-57.3307C86.3924,-47.6134 114.557,-32.6097 134.273,-22.1067"/>
<polygon fill="midnightblue" stroke="midnightblue" points="136.013,-25.1458 143.193,-17.3551 132.722,-18.9677 136.013,-25.1458"/>
</g>
<!-- Node5 -->
<g id="node5" class="node"><title>Node5</title>
<g id="a_node5"><a xlink:href="SAT__VecMat_8cpp.html#a0f5c7f0b16752bb4e1eb41c9b191214c" target="_top" xlink:title="LU_Decomp">
<polygon fill="white" stroke="black" points="222.5,-38.5 222.5,-57.5 293.5,-57.5 293.5,-38.5 222.5,-38.5"/>
<text text-anchor="middle" x="258" y="-45.5" font-family="Helvetica,sans-Serif" font-size="10.00">LU_Decomp</text>
</a>
</g>
</g>
<!-- Node4&#45;&gt;Node5 -->
<g id="edge4" class="edge"><title>Node4&#45;&gt;Node5</title>
<path fill="none" stroke="midnightblue" d="M173.041,-48C183.347,-48 197.959,-48 212.111,-48"/>
<polygon fill="midnightblue" stroke="midnightblue" points="212.266,-51.5001 222.266,-48 212.266,-44.5001 212.266,-51.5001"/>
</g>
<!-- Node7 -->
<g id="node7" class="node"><title>Node7</title>
<g id="a_node7"><a xlink:href="SAT__VecMat_8cpp.html#a6576c679c3e505becc6efd99fd0c4d99" target="_top" xlink:title="LU_BackSub">
<polygon fill="white" stroke="black" points="221,-0.5 221,-19.5 295,-19.5 295,-0.5 221,-0.5"/>
<text text-anchor="middle" x="258" y="-7.5" font-family="Helvetica,sans-Serif" font-size="10.00">LU_BackSub</text>
</a>
</g>
</g>
<!-- Node4&#45;&gt;Node7 -->
<g id="edge6" class="edge"><title>Node4&#45;&gt;Node7</title>
<path fill="none" stroke="midnightblue" d="M173.041,-42.5555C185.96,-37.5462 205.643,-29.9138 222.705,-23.2979"/>
<polygon fill="midnightblue" stroke="midnightblue" points="224.319,-26.4262 232.377,-19.5476 221.788,-19.8997 224.319,-26.4262"/>
</g>
<!-- Node8 -->
<g id="node8" class="node"><title>Node8</title>
<g id="a_node8"><a xlink:href="classMatrix.html#ae9f1574a9cf6595c64ce1236a8003cd2" target="_top" xlink:title="Matrix::SetCol">
<polygon fill="white" stroke="black" points="218,-76.5 218,-95.5 298,-95.5 298,-76.5 218,-76.5"/>
<text text-anchor="middle" x="258" y="-83.5" font-family="Helvetica,sans-Serif" font-size="10.00">Matrix::SetCol</text>
</a>
</g>
</g>
<!-- Node4&#45;&gt;Node8 -->
<g id="edge8" class="edge"><title>Node4&#45;&gt;Node8</title>
<path fill="none" stroke="midnightblue" d="M173.041,-53.4445C185.96,-58.4538 205.643,-66.0862 222.705,-72.7021"/>
<polygon fill="midnightblue" stroke="midnightblue" points="221.788,-76.1003 232.377,-76.4524 224.319,-69.5738 221.788,-76.1003"/>
</g>
<!-- Node6 -->
<g id="node6" class="node"><title>Node6</title>
<g id="a_node6"><a xlink:href="classMatrix.html#aec0c767dcd6da0724ccb6df4ec0f2a82" target="_top" xlink:title="Matrix::size1">
<polygon fill="white" stroke="black" points="334.5,-19.5 334.5,-38.5 407.5,-38.5 407.5,-19.5 334.5,-19.5"/>
<text text-anchor="middle" x="371" y="-26.5" font-family="Helvetica,sans-Serif" font-size="10.00">Matrix::size1</text>
</a>
</g>
</g>
<!-- Node5&#45;&gt;Node6 -->
<g id="edge5" class="edge"><title>Node5&#45;&gt;Node6</title>
<path fill="none" stroke="midnightblue" d="M293.513,-42.0924C303.25,-40.4257 313.998,-38.586 324.283,-36.8255"/>
<polygon fill="midnightblue" stroke="midnightblue" points="325.093,-40.2378 334.359,-35.1008 323.912,-33.3382 325.093,-40.2378"/>
</g>
<!-- Node7&#45;&gt;Node6 -->
<g id="edge7" class="edge"><title>Node7&#45;&gt;Node6</title>
<path fill="none" stroke="midnightblue" d="M295.039,-16.1688C304.341,-17.7611 314.479,-19.4964 324.206,-21.1614"/>
<polygon fill="midnightblue" stroke="midnightblue" points="323.695,-24.6248 334.142,-22.8622 324.876,-17.7251 323.695,-24.6248"/>
</g>
<!-- Node8&#45;&gt;Node2 -->
<g id="edge9" class="edge"><title>Node8&#45;&gt;Node2</title>
<path fill="none" stroke="midnightblue" d="M287.01,-95.589C300.682,-100.269 317.331,-105.969 332.118,-111.032"/>
<polygon fill="midnightblue" stroke="midnightblue" points="331.404,-114.486 341.999,-114.414 333.672,-107.864 331.404,-114.486"/>
</g>
<!-- Node9 -->
<g id="node9" class="node"><title>Node9</title>
<g id="a_node9"><a xlink:href="classMatrix.html#a02c825325655a07eb94e4a57478a4c18" target="_top" xlink:title="Matrix::Col">
<polygon fill="white" stroke="black" points="338.5,-76.5 338.5,-95.5 403.5,-95.5 403.5,-76.5 338.5,-76.5"/>
<text text-anchor="middle" x="371" y="-83.5" font-family="Helvetica,sans-Serif" font-size="10.00">Matrix::Col</text>
</a>
</g>
</g>
<!-- Node8&#45;&gt;Node9 -->
<g id="edge10" class="edge"><title>Node8&#45;&gt;Node9</title>
<path fill="none" stroke="midnightblue" d="M298.134,-86C307.76,-86 318.108,-86 327.868,-86"/>
<polygon fill="midnightblue" stroke="midnightblue" points="328.167,-89.5001 338.167,-86 328.167,-82.5001 328.167,-89.5001"/>
</g>
</g>
</svg>
