<?xml version="1.0" encoding="UTF-8" standalone="no"?>
<!DOCTYPE svg PUBLIC "-//W3C//DTD SVG 1.1//EN"
 "http://www.w3.org/Graphics/SVG/1.1/DTD/svg11.dtd">
<!-- Generated by graphviz version 2.30.1 (20180420.1509)
 -->
<!-- Title: IERS::UT1_UTC Pages: 1 -->
<svg width="362pt" height="106pt"
 viewBox="0.00 0.00 362.00 106.00" xmlns="http://www.w3.org/2000/svg" xmlns:xlink="http://www.w3.org/1999/xlink">
<g id="graph0" class="graph" transform="scale(1 1) rotate(0) translate(4 101.997)">
<title>IERS::UT1_UTC</title>
<polygon fill="white" stroke="white" points="-4,5 -4,-101.997 359,-101.997 359,5 -4,5"/>
<!-- Node1 -->
<g id="node1" class="node"><title>Node1</title>
<polygon fill="#bfbfbf" stroke="black" points="0,-57.5 0,-76.5 92,-76.5 92,-57.5 0,-57.5"/>
<text text-anchor="middle" x="46" y="-64.5" font-family="Helvetica,sans-Serif" font-size="10.00">IERS::UT1_UTC</text>
</g>
<!-- Node2 -->
<g id="node2" class="node"><title>Node2</title>
<g id="a_node2"><a xlink:href="RTOD_8cpp.html#ad928b0e88089fe577162bad47f911adf" target="_top" xlink:title="Accel">
<polygon fill="white" stroke="black" points="140.5,-57.5 140.5,-76.5 181.5,-76.5 181.5,-57.5 140.5,-57.5"/>
<text text-anchor="middle" x="161" y="-64.5" font-family="Helvetica,sans-Serif" font-size="10.00">Accel</text>
</a>
</g>
</g>
<!-- Node1&#45;&gt;Node2 -->
<g id="edge1" class="edge"><title>Node1&#45;&gt;Node2</title>
<path fill="none" stroke="midnightblue" d="M102.604,-67C116.15,-67 129.765,-67 140.333,-67"/>
<polygon fill="midnightblue" stroke="midnightblue" points="102.31,-63.5001 92.3103,-67 102.31,-70.5001 102.31,-63.5001"/>
</g>
<!-- Node4 -->
<g id="node4" class="node"><title>Node4</title>
<g id="a_node4"><a xlink:href="RTOD_8cpp.html#a0ddf1224851353fc92bfbff6f499fa97" target="_top" xlink:title="main">
<polygon fill="white" stroke="black" points="316,-75.5 316,-94.5 354,-94.5 354,-75.5 316,-75.5"/>
<text text-anchor="middle" x="335" y="-82.5" font-family="Helvetica,sans-Serif" font-size="10.00">main</text>
</a>
</g>
</g>
<!-- Node1&#45;&gt;Node4 -->
<g id="edge6" class="edge"><title>Node1&#45;&gt;Node4</title>
<path fill="none" stroke="midnightblue" d="M92.5199,-78.8762C104.033,-81.5485 116.418,-84.1404 128,-86 194.818,-96.7286 212.61,-101.187 280,-95 291.963,-93.9016 305.231,-91.462 315.622,-89.2675"/>
<polygon fill="midnightblue" stroke="midnightblue" points="93.2084,-75.4423 82.6688,-76.5234 91.5822,-82.2508 93.2084,-75.4423"/>
</g>
<!-- Node7 -->
<g id="node7" class="node"><title>Node7</title>
<g id="a_node7"><a xlink:href="TDRSOD_8cpp.html#a466ab098330aeb2aa659365279071640" target="_top" xlink:title="Range_4W">
<polygon fill="white" stroke="black" points="128.5,-0.5 128.5,-19.5 193.5,-19.5 193.5,-0.5 128.5,-0.5"/>
<text text-anchor="middle" x="161" y="-7.5" font-family="Helvetica,sans-Serif" font-size="10.00">Range_4W</text>
</a>
</g>
</g>
<!-- Node1&#45;&gt;Node7 -->
<g id="edge7" class="edge"><title>Node1&#45;&gt;Node7</title>
<path fill="none" stroke="midnightblue" d="M75.1068,-52.8223C95.6635,-42.4529 122.996,-28.6657 141.025,-19.5716"/>
<polygon fill="midnightblue" stroke="midnightblue" points="73.2658,-49.8308 65.9137,-57.4595 76.4184,-56.0807 73.2658,-49.8308"/>
</g>
<!-- Node3 -->
<g id="node3" class="node"><title>Node3</title>
<g id="a_node3"><a xlink:href="RTOD_8cpp.html#a8ed60f2e5115e2e00c123e12b1cbb649" target="_top" xlink:title="Deriv">
<polygon fill="white" stroke="black" points="235,-66.5 235,-85.5 275,-85.5 275,-66.5 235,-66.5"/>
<text text-anchor="middle" x="255" y="-73.5" font-family="Helvetica,sans-Serif" font-size="10.00">Deriv</text>
</a>
</g>
</g>
<!-- Node2&#45;&gt;Node3 -->
<g id="edge2" class="edge"><title>Node2&#45;&gt;Node3</title>
<path fill="none" stroke="midnightblue" d="M191.758,-69.9111C205.895,-71.2941 222.381,-72.9068 234.833,-74.1249"/>
<polygon fill="midnightblue" stroke="midnightblue" points="191.804,-66.399 181.511,-68.9087 191.123,-73.3657 191.804,-66.399"/>
</g>
<!-- Node5 -->
<g id="node5" class="node"><title>Node5</title>
<g id="a_node5"><a xlink:href="TDRSOD_8cpp.html#a3df5b7f547d4cb81cae1bbb6d6a2962a" target="_top" xlink:title="VarEqn">
<polygon fill="white" stroke="black" points="230.5,-28.5 230.5,-47.5 279.5,-47.5 279.5,-28.5 230.5,-28.5"/>
<text text-anchor="middle" x="255" y="-35.5" font-family="Helvetica,sans-Serif" font-size="10.00">VarEqn</text>
</a>
</g>
</g>
<!-- Node2&#45;&gt;Node5 -->
<g id="edge4" class="edge"><title>Node2&#45;&gt;Node5</title>
<path fill="none" stroke="midnightblue" d="M191.121,-57.8206C203.739,-53.8431 218.325,-49.2453 230.27,-45.48"/>
<polygon fill="midnightblue" stroke="midnightblue" points="189.996,-54.5053 181.511,-60.8498 192.1,-61.1815 189.996,-54.5053"/>
</g>
<!-- Node3&#45;&gt;Node4 -->
<g id="edge3" class="edge"><title>Node3&#45;&gt;Node4</title>
<path fill="none" stroke="midnightblue" d="M285.43,-79.3958C295.613,-80.5707 306.723,-81.8527 315.745,-82.8936"/>
<polygon fill="midnightblue" stroke="midnightblue" points="285.616,-75.8941 275.281,-78.2247 284.814,-82.848 285.616,-75.8941"/>
</g>
<!-- Node6 -->
<g id="node6" class="node"><title>Node6</title>
<g id="a_node6"><a xlink:href="TDRSOD_8cpp.html#a0ddf1224851353fc92bfbff6f499fa97" target="_top" xlink:title="main">
<polygon fill="white" stroke="black" points="316,-18.5 316,-37.5 354,-37.5 354,-18.5 316,-18.5"/>
<text text-anchor="middle" x="335" y="-25.5" font-family="Helvetica,sans-Serif" font-size="10.00">main</text>
</a>
</g>
</g>
<!-- Node5&#45;&gt;Node6 -->
<g id="edge5" class="edge"><title>Node5&#45;&gt;Node6</title>
<path fill="none" stroke="midnightblue" d="M289.886,-33.6557C298.687,-32.5273 307.842,-31.3536 315.515,-30.3699"/>
<polygon fill="midnightblue" stroke="midnightblue" points="289.3,-30.202 279.826,-34.9453 290.19,-37.1452 289.3,-30.202"/>
</g>
<!-- Node7&#45;&gt;Node6 -->
<g id="edge8" class="edge"><title>Node7&#45;&gt;Node6</title>
<path fill="none" stroke="midnightblue" d="M203.894,-12.285C226.486,-13.7463 254.821,-15.9477 280,-19 291.888,-20.4412 305.156,-22.6439 315.564,-24.5095"/>
<polygon fill="midnightblue" stroke="midnightblue" points="203.826,-8.77404 193.628,-11.6459 203.391,-15.7605 203.826,-8.77404"/>
</g>
</g>
</svg>
