<?xml version="1.0" encoding="UTF-8" standalone="no"?>
<!DOCTYPE svg PUBLIC "-//W3C//DTD SVG 1.1//EN"
 "http://www.w3.org/Graphics/SVG/1.1/DTD/svg11.dtd">
<!-- Generated by graphviz version 2.30.1 (20180420.1509)
 -->
<!-- Title: DE::Step Pages: 1 -->
<svg width="224pt" height="136pt"
 viewBox="0.00 0.00 224.00 136.00" xmlns="http://www.w3.org/2000/svg" xmlns:xlink="http://www.w3.org/1999/xlink">
<g id="graph0" class="graph" transform="scale(1 1) rotate(0) translate(4 132)">
<title>DE::Step</title>
<polygon fill="white" stroke="white" points="-4,5 -4,-132 221,-132 221,5 -4,5"/>
<!-- Node1 -->
<g id="node1" class="node"><title>Node1</title>
<polygon fill="#bfbfbf" stroke="black" points="0.5,-54.5 0.5,-73.5 57.5,-73.5 57.5,-54.5 0.5,-54.5"/>
<text text-anchor="middle" x="29" y="-61.5" font-family="Helvetica,sans-Serif" font-size="10.00">DE::Step</text>
</g>
<!-- Node2 -->
<g id="node2" class="node"><title>Node2</title>
<g id="a_node2"><a xlink:href="namespaceanonymous__namespace_02SAT__DE_8cpp_03.html#aabcae428edea4adc1bad5b1f9e9eb684" target="_top" xlink:title="anonymous_namespace\l\{SAT_DE::cpp\}::sign">
<polygon fill="white" stroke="black" points="94,-98 94,-128 216,-128 216,-98 94,-98"/>
<text text-anchor="start" x="102" y="-116" font-family="Helvetica,sans-Serif" font-size="10.00">anonymous_namespace</text>
<text text-anchor="middle" x="155" y="-105" font-family="Helvetica,sans-Serif" font-size="10.00">{SAT_DE::cpp}::sign</text>
</a>
</g>
</g>
<!-- Node1&#45;&gt;Node2 -->
<g id="edge1" class="edge"><title>Node1&#45;&gt;Node2</title>
<path fill="none" stroke="midnightblue" d="M54.2028,-73.564C68.951,-79.3919 88.3132,-87.0431 106.055,-94.0539"/>
<polygon fill="midnightblue" stroke="midnightblue" points="105.118,-97.4471 115.705,-97.8672 107.691,-90.937 105.118,-97.4471"/>
</g>
<!-- Node3 -->
<g id="node3" class="node"><title>Node3</title>
<g id="a_node3"><a xlink:href="namespaceanonymous__namespace_02SAT__DE_8cpp_03.html#a1f330d07aea9e972e8da7af294b10b94" target="_top" xlink:title="anonymous_namespace\l\{SAT_DE::cpp\}::max">
<polygon fill="white" stroke="black" points="94,-49 94,-79 216,-79 216,-49 94,-49"/>
<text text-anchor="start" x="102" y="-67" font-family="Helvetica,sans-Serif" font-size="10.00">anonymous_namespace</text>
<text text-anchor="middle" x="155" y="-56" font-family="Helvetica,sans-Serif" font-size="10.00">{SAT_DE::cpp}::max</text>
</a>
</g>
</g>
<!-- Node1&#45;&gt;Node3 -->
<g id="edge2" class="edge"><title>Node1&#45;&gt;Node3</title>
<path fill="none" stroke="midnightblue" d="M57.5196,-64C65.4317,-64 74.4423,-64 83.7044,-64"/>
<polygon fill="midnightblue" stroke="midnightblue" points="83.8134,-67.5001 93.8133,-64 83.8133,-60.5001 83.8134,-67.5001"/>
</g>
<!-- Node4 -->
<g id="node4" class="node"><title>Node4</title>
<g id="a_node4"><a xlink:href="namespaceanonymous__namespace_02SAT__DE_8cpp_03.html#ae4ba4f69a40b68446f66e9f06a6df7c2" target="_top" xlink:title="anonymous_namespace\l\{SAT_DE::cpp\}::min">
<polygon fill="white" stroke="black" points="94,-0 94,-30 216,-30 216,-0 94,-0"/>
<text text-anchor="start" x="102" y="-18" font-family="Helvetica,sans-Serif" font-size="10.00">anonymous_namespace</text>
<text text-anchor="middle" x="155" y="-7" font-family="Helvetica,sans-Serif" font-size="10.00">{SAT_DE::cpp}::min</text>
</a>
</g>
</g>
<!-- Node1&#45;&gt;Node4 -->
<g id="edge3" class="edge"><title>Node1&#45;&gt;Node4</title>
<path fill="none" stroke="midnightblue" d="M54.2028,-54.436C68.951,-48.6081 88.3132,-40.9569 106.055,-33.9461"/>
<polygon fill="midnightblue" stroke="midnightblue" points="107.691,-37.063 115.705,-30.1328 105.118,-30.5529 107.691,-37.063"/>
</g>
</g>
</svg>
