<?xml version="1.0" encoding="UTF-8" standalone="no"?>
<!DOCTYPE svg PUBLIC "-//W3C//DTD SVG 1.1//EN"
 "http://www.w3.org/Graphics/SVG/1.1/DTD/svg11.dtd">
<!-- Generated by graphviz version 2.30.1 (20180420.1509)
 -->
<!-- Title: IERS::UT1_TAI Pages: 1 -->
<svg width="484pt" height="123pt"
 viewBox="0.00 0.00 484.00 123.00" xmlns="http://www.w3.org/2000/svg" xmlns:xlink="http://www.w3.org/1999/xlink">
<g id="graph0" class="graph" transform="scale(1 1) rotate(0) translate(4 119)">
<title>IERS::UT1_TAI</title>
<polygon fill="white" stroke="white" points="-4,5 -4,-119 481,-119 481,5 -4,5"/>
<!-- Node1 -->
<g id="node1" class="node"><title>Node1</title>
<polygon fill="#bfbfbf" stroke="black" points="0,-76.5 0,-95.5 86,-95.5 86,-76.5 0,-76.5"/>
<text text-anchor="middle" x="43" y="-83.5" font-family="Helvetica,sans-Serif" font-size="10.00">IERS::UT1_TAI</text>
</g>
<!-- Node2 -->
<g id="node2" class="node"><title>Node2</title>
<g id="a_node2"><a xlink:href="classIERS.html#a64350c76a5faed69b9ac10b8ab3f869c" target="_top" xlink:title="IERS::UT1_GPS">
<polygon fill="white" stroke="black" points="122,-95.5 122,-114.5 214,-114.5 214,-95.5 122,-95.5"/>
<text text-anchor="middle" x="168" y="-102.5" font-family="Helvetica,sans-Serif" font-size="10.00">IERS::UT1_GPS</text>
</a>
</g>
</g>
<!-- Node1&#45;&gt;Node2 -->
<g id="edge1" class="edge"><title>Node1&#45;&gt;Node2</title>
<path fill="none" stroke="midnightblue" d="M96.4139,-94.0964C104.811,-95.3935 113.438,-96.7263 121.652,-97.9951"/>
<polygon fill="midnightblue" stroke="midnightblue" points="96.7468,-90.6064 86.3296,-92.5387 95.6781,-97.5244 96.7468,-90.6064"/>
</g>
<!-- Node3 -->
<g id="node3" class="node"><title>Node3</title>
<g id="a_node3"><a xlink:href="classIERS.html#a2601a074a58e3c470db336bc1aea6791" target="_top" xlink:title="IERS::UT1_UTC">
<polygon fill="white" stroke="black" points="122,-57.5 122,-76.5 214,-76.5 214,-57.5 122,-57.5"/>
<text text-anchor="middle" x="168" y="-64.5" font-family="Helvetica,sans-Serif" font-size="10.00">IERS::UT1_UTC</text>
</a>
</g>
</g>
<!-- Node1&#45;&gt;Node3 -->
<g id="edge2" class="edge"><title>Node1&#45;&gt;Node3</title>
<path fill="none" stroke="midnightblue" d="M96.4139,-77.9036C104.811,-76.6065 113.438,-75.2737 121.652,-74.0049"/>
<polygon fill="midnightblue" stroke="midnightblue" points="95.6781,-74.4756 86.3296,-79.4613 96.7468,-81.3936 95.6781,-74.4756"/>
</g>
<!-- Node4 -->
<g id="node4" class="node"><title>Node4</title>
<g id="a_node4"><a xlink:href="RTOD_8cpp.html#ad928b0e88089fe577162bad47f911adf" target="_top" xlink:title="Accel">
<polygon fill="white" stroke="black" points="262.5,-57.5 262.5,-76.5 303.5,-76.5 303.5,-57.5 262.5,-57.5"/>
<text text-anchor="middle" x="283" y="-64.5" font-family="Helvetica,sans-Serif" font-size="10.00">Accel</text>
</a>
</g>
</g>
<!-- Node3&#45;&gt;Node4 -->
<g id="edge3" class="edge"><title>Node3&#45;&gt;Node4</title>
<path fill="none" stroke="midnightblue" d="M224.604,-67C238.15,-67 251.765,-67 262.333,-67"/>
<polygon fill="midnightblue" stroke="midnightblue" points="224.31,-63.5001 214.31,-67 224.31,-70.5001 224.31,-63.5001"/>
</g>
<!-- Node6 -->
<g id="node6" class="node"><title>Node6</title>
<g id="a_node6"><a xlink:href="RTOD_8cpp.html#a0ddf1224851353fc92bfbff6f499fa97" target="_top" xlink:title="main">
<polygon fill="white" stroke="black" points="438,-75.5 438,-94.5 476,-94.5 476,-75.5 438,-75.5"/>
<text text-anchor="middle" x="457" y="-82.5" font-family="Helvetica,sans-Serif" font-size="10.00">main</text>
</a>
</g>
</g>
<!-- Node3&#45;&gt;Node6 -->
<g id="edge8" class="edge"><title>Node3&#45;&gt;Node6</title>
<path fill="none" stroke="midnightblue" d="M214.52,-78.8762C226.033,-81.5485 238.418,-84.1404 250,-86 316.818,-96.7286 334.61,-101.187 402,-95 413.963,-93.9016 427.231,-91.462 437.622,-89.2675"/>
<polygon fill="midnightblue" stroke="midnightblue" points="215.208,-75.4423 204.669,-76.5234 213.582,-82.2508 215.208,-75.4423"/>
</g>
<!-- Node9 -->
<g id="node9" class="node"><title>Node9</title>
<g id="a_node9"><a xlink:href="TDRSOD_8cpp.html#a466ab098330aeb2aa659365279071640" target="_top" xlink:title="Range_4W">
<polygon fill="white" stroke="black" points="250.5,-0.5 250.5,-19.5 315.5,-19.5 315.5,-0.5 250.5,-0.5"/>
<text text-anchor="middle" x="283" y="-7.5" font-family="Helvetica,sans-Serif" font-size="10.00">Range_4W</text>
</a>
</g>
</g>
<!-- Node3&#45;&gt;Node9 -->
<g id="edge9" class="edge"><title>Node3&#45;&gt;Node9</title>
<path fill="none" stroke="midnightblue" d="M197.107,-52.8223C217.664,-42.4529 244.996,-28.6657 263.025,-19.5716"/>
<polygon fill="midnightblue" stroke="midnightblue" points="195.266,-49.8308 187.914,-57.4595 198.418,-56.0807 195.266,-49.8308"/>
</g>
<!-- Node5 -->
<g id="node5" class="node"><title>Node5</title>
<g id="a_node5"><a xlink:href="RTOD_8cpp.html#a8ed60f2e5115e2e00c123e12b1cbb649" target="_top" xlink:title="Deriv">
<polygon fill="white" stroke="black" points="357,-66.5 357,-85.5 397,-85.5 397,-66.5 357,-66.5"/>
<text text-anchor="middle" x="377" y="-73.5" font-family="Helvetica,sans-Serif" font-size="10.00">Deriv</text>
</a>
</g>
</g>
<!-- Node4&#45;&gt;Node5 -->
<g id="edge4" class="edge"><title>Node4&#45;&gt;Node5</title>
<path fill="none" stroke="midnightblue" d="M313.758,-69.9111C327.895,-71.2941 344.381,-72.9068 356.833,-74.1249"/>
<polygon fill="midnightblue" stroke="midnightblue" points="313.804,-66.399 303.511,-68.9087 313.123,-73.3657 313.804,-66.399"/>
</g>
<!-- Node7 -->
<g id="node7" class="node"><title>Node7</title>
<g id="a_node7"><a xlink:href="TDRSOD_8cpp.html#a3df5b7f547d4cb81cae1bbb6d6a2962a" target="_top" xlink:title="VarEqn">
<polygon fill="white" stroke="black" points="352.5,-28.5 352.5,-47.5 401.5,-47.5 401.5,-28.5 352.5,-28.5"/>
<text text-anchor="middle" x="377" y="-35.5" font-family="Helvetica,sans-Serif" font-size="10.00">VarEqn</text>
</a>
</g>
</g>
<!-- Node4&#45;&gt;Node7 -->
<g id="edge6" class="edge"><title>Node4&#45;&gt;Node7</title>
<path fill="none" stroke="midnightblue" d="M313.121,-57.8206C325.739,-53.8431 340.325,-49.2453 352.27,-45.48"/>
<polygon fill="midnightblue" stroke="midnightblue" points="311.996,-54.5053 303.511,-60.8498 314.1,-61.1815 311.996,-54.5053"/>
</g>
<!-- Node5&#45;&gt;Node6 -->
<g id="edge5" class="edge"><title>Node5&#45;&gt;Node6</title>
<path fill="none" stroke="midnightblue" d="M407.43,-79.3958C417.613,-80.5707 428.723,-81.8527 437.745,-82.8936"/>
<polygon fill="midnightblue" stroke="midnightblue" points="407.616,-75.8941 397.281,-78.2247 406.814,-82.848 407.616,-75.8941"/>
</g>
<!-- Node8 -->
<g id="node8" class="node"><title>Node8</title>
<g id="a_node8"><a xlink:href="TDRSOD_8cpp.html#a0ddf1224851353fc92bfbff6f499fa97" target="_top" xlink:title="main">
<polygon fill="white" stroke="black" points="438,-18.5 438,-37.5 476,-37.5 476,-18.5 438,-18.5"/>
<text text-anchor="middle" x="457" y="-25.5" font-family="Helvetica,sans-Serif" font-size="10.00">main</text>
</a>
</g>
</g>
<!-- Node7&#45;&gt;Node8 -->
<g id="edge7" class="edge"><title>Node7&#45;&gt;Node8</title>
<path fill="none" stroke="midnightblue" d="M411.886,-33.6557C420.687,-32.5273 429.842,-31.3536 437.515,-30.3699"/>
<polygon fill="midnightblue" stroke="midnightblue" points="411.3,-30.202 401.826,-34.9453 412.19,-37.1452 411.3,-30.202"/>
</g>
<!-- Node9&#45;&gt;Node8 -->
<g id="edge10" class="edge"><title>Node9&#45;&gt;Node8</title>
<path fill="none" stroke="midnightblue" d="M325.894,-12.285C348.486,-13.7463 376.821,-15.9477 402,-19 413.888,-20.4412 427.156,-22.6439 437.564,-24.5095"/>
<polygon fill="midnightblue" stroke="midnightblue" points="325.826,-8.77404 315.628,-11.6459 325.391,-15.7605 325.826,-8.77404"/>
</g>
</g>
</svg>
