<?xml version="1.0" encoding="UTF-8" standalone="no"?>
<!DOCTYPE svg PUBLIC "-//W3C//DTD SVG 1.1//EN"
 "http://www.w3.org/Graphics/SVG/1.1/DTD/svg11.dtd">
<!-- Generated by graphviz version 2.30.1 (20180420.1509)
 -->
<!-- Title: Geodetic::LTC_Matrix Pages: 1 -->
<svg width="292pt" height="66pt"
 viewBox="0.00 0.00 292.00 66.00" xmlns="http://www.w3.org/2000/svg" xmlns:xlink="http://www.w3.org/1999/xlink">
<g id="graph0" class="graph" transform="scale(1 1) rotate(0) translate(4 62)">
<title>Geodetic::LTC_Matrix</title>
<polygon fill="white" stroke="white" points="-4,5 -4,-62 289,-62 289,5 -4,5"/>
<!-- Node1 -->
<g id="node1" class="node"><title>Node1</title>
<polygon fill="#bfbfbf" stroke="black" points="0.5,-19.5 0.5,-38.5 113.5,-38.5 113.5,-19.5 0.5,-19.5"/>
<text text-anchor="middle" x="57" y="-26.5" font-family="Helvetica,sans-Serif" font-size="10.00">Geodetic::LTC_Matrix</text>
</g>
<!-- Node2 -->
<g id="node2" class="node"><title>Node2</title>
<g id="a_node2"><a xlink:href="SAT__RefSys_8cpp.html#ae2cb1346d211047ba96d1b2d69aa13c1" target="_top" xlink:title="LTCMatrix">
<polygon fill="white" stroke="black" points="150,-19.5 150,-38.5 212,-38.5 212,-19.5 150,-19.5"/>
<text text-anchor="middle" x="181" y="-26.5" font-family="Helvetica,sans-Serif" font-size="10.00">LTCMatrix</text>
</a>
</g>
</g>
<!-- Node1&#45;&gt;Node2 -->
<g id="edge1" class="edge"><title>Node1&#45;&gt;Node2</title>
<path fill="none" stroke="midnightblue" d="M113.645,-29C122.394,-29 131.291,-29 139.609,-29"/>
<polygon fill="midnightblue" stroke="midnightblue" points="139.78,-32.5001 149.78,-29 139.78,-25.5001 139.78,-32.5001"/>
</g>
<!-- Node3 -->
<g id="node3" class="node"><title>Node3</title>
<g id="a_node3"><a xlink:href="SAT__VecMat_8cpp.html#a66b3b116958d5c2f1c528faa04c71674" target="_top" xlink:title="R_y">
<polygon fill="white" stroke="black" points="248.5,-38.5 248.5,-57.5 283.5,-57.5 283.5,-38.5 248.5,-38.5"/>
<text text-anchor="middle" x="266" y="-45.5" font-family="Helvetica,sans-Serif" font-size="10.00">R_y</text>
</a>
</g>
</g>
<!-- Node2&#45;&gt;Node3 -->
<g id="edge2" class="edge"><title>Node2&#45;&gt;Node3</title>
<path fill="none" stroke="midnightblue" d="M212.435,-35.967C220.893,-37.9032 230.012,-39.9908 238.243,-41.8748"/>
<polygon fill="midnightblue" stroke="midnightblue" points="237.547,-45.306 248.075,-44.1257 239.109,-38.4825 237.547,-45.306"/>
</g>
<!-- Node4 -->
<g id="node4" class="node"><title>Node4</title>
<g id="a_node4"><a xlink:href="SAT__VecMat_8cpp.html#a94c9c4e1f3afc6636dda6572f72ef4c2" target="_top" xlink:title="R_z">
<polygon fill="white" stroke="black" points="248.5,-0.5 248.5,-19.5 283.5,-19.5 283.5,-0.5 248.5,-0.5"/>
<text text-anchor="middle" x="266" y="-7.5" font-family="Helvetica,sans-Serif" font-size="10.00">R_z</text>
</a>
</g>
</g>
<!-- Node2&#45;&gt;Node4 -->
<g id="edge3" class="edge"><title>Node2&#45;&gt;Node4</title>
<path fill="none" stroke="midnightblue" d="M212.435,-22.033C220.893,-20.0968 230.012,-18.0092 238.243,-16.1252"/>
<polygon fill="midnightblue" stroke="midnightblue" points="239.109,-19.5175 248.075,-13.8743 237.547,-12.694 239.109,-19.5175"/>
</g>
</g>
</svg>
