<?xml version="1.0" encoding="UTF-8" standalone="no"?>
<!DOCTYPE svg PUBLIC "-//W3C//DTD SVG 1.1//EN"
 "http://www.w3.org/Graphics/SVG/1.1/DTD/svg11.dtd">
<!-- Generated by graphviz version 2.30.1 (20180420.1509)
 -->
<!-- Title: IERS::TT_UTC Pages: 1 -->
<svg width="270pt" height="118pt"
 viewBox="0.00 0.00 270.00 117.53" xmlns="http://www.w3.org/2000/svg" xmlns:xlink="http://www.w3.org/1999/xlink">
<g id="graph0" class="graph" transform="scale(1 1) rotate(0) translate(4 113.531)">
<title>IERS::TT_UTC</title>
<polygon fill="white" stroke="white" points="-4,5 -4,-113.531 267,-113.531 267,5 -4,5"/>
<!-- Node1 -->
<g id="node1" class="node"><title>Node1</title>
<polygon fill="#bfbfbf" stroke="black" points="0.5,-33.0307 0.5,-52.0307 85.5,-52.0307 85.5,-33.0307 0.5,-33.0307"/>
<text text-anchor="middle" x="43" y="-40.0307" font-family="Helvetica,sans-Serif" font-size="10.00">IERS::TT_UTC</text>
</g>
<!-- Node2 -->
<g id="node2" class="node"><title>Node2</title>
<g id="a_node2"><a xlink:href="TDRSOD_8cpp.html#a1d3803a2ec3760bf63edefae54e3ac5b" target="_top" xlink:title="Accel">
<polygon fill="white" stroke="black" points="134.5,-90.0307 134.5,-109.031 175.5,-109.031 175.5,-90.0307 134.5,-90.0307"/>
<text text-anchor="middle" x="155" y="-97.0307" font-family="Helvetica,sans-Serif" font-size="10.00">Accel</text>
</a>
</g>
</g>
<!-- Node1&#45;&gt;Node2 -->
<g id="edge1" class="edge"><title>Node1&#45;&gt;Node2</title>
<path fill="none" stroke="midnightblue" d="M71.6188,-56.8423C91.6333,-67.2134 118.142,-80.9497 135.616,-90.0042"/>
<polygon fill="midnightblue" stroke="midnightblue" points="73.1491,-53.6933 62.66,-52.2 69.9285,-59.9084 73.1491,-53.6933"/>
</g>
<!-- Node3 -->
<g id="node3" class="node"><title>Node3</title>
<g id="a_node3"><a xlink:href="TDRSOD_8cpp.html#a466ab098330aeb2aa659365279071640" target="_top" xlink:title="Range_4W">
<polygon fill="white" stroke="black" points="122.5,-52.0307 122.5,-71.0307 187.5,-71.0307 187.5,-52.0307 122.5,-52.0307"/>
<text text-anchor="middle" x="155" y="-59.0307" font-family="Helvetica,sans-Serif" font-size="10.00">Range_4W</text>
</a>
</g>
</g>
<!-- Node1&#45;&gt;Node3 -->
<g id="edge2" class="edge"><title>Node1&#45;&gt;Node3</title>
<path fill="none" stroke="midnightblue" d="M95.7242,-51.4649C104.795,-53.0317 113.986,-54.6191 122.303,-56.0558"/>
<polygon fill="midnightblue" stroke="midnightblue" points="96.0361,-47.967 85.5863,-49.7138 94.8446,-54.8649 96.0361,-47.967"/>
</g>
<!-- Node5 -->
<g id="node5" class="node"><title>Node5</title>
<g id="a_node5"><a xlink:href="TDRSOD_8cpp.html#a905d1bd8096476fe062f28efb2acef7b" target="_top" xlink:title="GetSetup">
<polygon fill="white" stroke="black" points="126,-14.0307 126,-33.0307 184,-33.0307 184,-14.0307 126,-14.0307"/>
<text text-anchor="middle" x="155" y="-21.0307" font-family="Helvetica,sans-Serif" font-size="10.00">GetSetup</text>
</a>
</g>
</g>
<!-- Node1&#45;&gt;Node5 -->
<g id="edge4" class="edge"><title>Node1&#45;&gt;Node5</title>
<path fill="none" stroke="midnightblue" d="M95.4609,-33.642C105.865,-31.8449 116.44,-30.0184 125.686,-28.4214"/>
<polygon fill="midnightblue" stroke="midnightblue" points="94.8446,-30.1965 85.5863,-35.3476 96.0361,-37.0944 94.8446,-30.1965"/>
</g>
<!-- Node4 -->
<g id="node4" class="node"><title>Node4</title>
<g id="a_node4"><a xlink:href="TDRSOD_8cpp.html#a0ddf1224851353fc92bfbff6f499fa97" target="_top" xlink:title="main">
<polygon fill="white" stroke="black" points="224,-14.0307 224,-33.0307 262,-33.0307 262,-14.0307 224,-14.0307"/>
<text text-anchor="middle" x="243" y="-21.0307" font-family="Helvetica,sans-Serif" font-size="10.00">main</text>
</a>
</g>
</g>
<!-- Node1&#45;&gt;Node4 -->
<g id="edge5" class="edge"><title>Node1&#45;&gt;Node4</title>
<path fill="none" stroke="midnightblue" d="M67.0855,-27.8255C82.0877,-19.1636 102.43,-9.04413 122,-4.5307 150.583,2.06148 159.085,0.407747 188,-4.5307 200.344,-6.63892 213.618,-11.2746 223.917,-15.439"/>
<polygon fill="midnightblue" stroke="midnightblue" points="65.2746,-24.8303 58.4892,-32.9672 68.8679,-30.8376 65.2746,-24.8303"/>
</g>
<!-- Node3&#45;&gt;Node4 -->
<g id="edge3" class="edge"><title>Node3&#45;&gt;Node4</title>
<path fill="none" stroke="midnightblue" d="M187.178,-47.7546C199.474,-42.3214 213.168,-36.2702 223.794,-31.575"/>
<polygon fill="midnightblue" stroke="midnightblue" points="185.434,-44.6986 177.701,-51.9417 188.263,-51.1014 185.434,-44.6986"/>
</g>
</g>
</svg>
