<?xml version="1.0" encoding="UTF-8" standalone="no"?>
<!DOCTYPE svg PUBLIC "-//W3C//DTD SVG 1.1//EN"
 "http://www.w3.org/Graphics/SVG/1.1/DTD/svg11.dtd">
<!-- Generated by graphviz version 2.30.1 (20180420.1509)
 -->
<!-- Title: Vector::slice Pages: 1 -->
<svg width="350pt" height="180pt"
 viewBox="0.00 0.00 350.00 180.00" xmlns="http://www.w3.org/2000/svg" xmlns:xlink="http://www.w3.org/1999/xlink">
<g id="graph0" class="graph" transform="scale(1 1) rotate(0) translate(4 176)">
<title>Vector::slice</title>
<polygon fill="white" stroke="white" points="-4,5 -4,-176 347,-176 347,5 -4,5"/>
<!-- Node1 -->
<g id="node1" class="node"><title>Node1</title>
<polygon fill="#bfbfbf" stroke="black" points="0.5,-76.5 0.5,-95.5 71.5,-95.5 71.5,-76.5 0.5,-76.5"/>
<text text-anchor="middle" x="36" y="-83.5" font-family="Helvetica,sans-Serif" font-size="10.00">Vector::slice</text>
</g>
<!-- Node2 -->
<g id="node2" class="node"><title>Node2</title>
<g id="a_node2"><a xlink:href="GEODA_8cpp.html#a0ddf1224851353fc92bfbff6f499fa97" target="_top" xlink:title="main">
<polygon fill="white" stroke="black" points="122,-152.5 122,-171.5 160,-171.5 160,-152.5 122,-152.5"/>
<text text-anchor="middle" x="141" y="-159.5" font-family="Helvetica,sans-Serif" font-size="10.00">main</text>
</a>
</g>
</g>
<!-- Node1&#45;&gt;Node2 -->
<g id="edge1" class="edge"><title>Node1&#45;&gt;Node2</title>
<path fill="none" stroke="midnightblue" d="M58.2326,-101.667C78.9444,-116.949 109.78,-139.702 127.061,-152.453"/>
<polygon fill="midnightblue" stroke="midnightblue" points="60.1697,-98.7465 50.045,-95.6255 56.0136,-104.379 60.1697,-98.7465"/>
</g>
<!-- Node3 -->
<g id="node3" class="node"><title>Node3</title>
<g id="a_node3"><a xlink:href="RTOD_8cpp.html#a8ed60f2e5115e2e00c123e12b1cbb649" target="_top" xlink:title="Deriv">
<polygon fill="white" stroke="black" points="219,-114.5 219,-133.5 259,-133.5 259,-114.5 219,-114.5"/>
<text text-anchor="middle" x="239" y="-121.5" font-family="Helvetica,sans-Serif" font-size="10.00">Deriv</text>
</a>
</g>
</g>
<!-- Node1&#45;&gt;Node3 -->
<g id="edge2" class="edge"><title>Node1&#45;&gt;Node3</title>
<path fill="none" stroke="midnightblue" d="M79.2676,-98.1747C88.677,-100.643 98.6387,-103.07 108,-105 147.094,-113.059 193.488,-118.979 218.933,-121.918"/>
<polygon fill="midnightblue" stroke="midnightblue" points="79.8947,-94.719 69.3288,-95.5018 78.0767,-101.479 79.8947,-94.719"/>
</g>
<!-- Node5 -->
<g id="node5" class="node"><title>Node5</title>
<g id="a_node5"><a xlink:href="SAT__Kepler_8h.html#a1d7fdd2727e376b6aa5a54877ca6a205" target="_top" xlink:title="Elements">
<polygon fill="white" stroke="black" points="112,-76.5 112,-95.5 170,-95.5 170,-76.5 112,-76.5"/>
<text text-anchor="middle" x="141" y="-83.5" font-family="Helvetica,sans-Serif" font-size="10.00">Elements</text>
</a>
</g>
</g>
<!-- Node1&#45;&gt;Node5 -->
<g id="edge4" class="edge"><title>Node1&#45;&gt;Node5</title>
<path fill="none" stroke="midnightblue" d="M81.6484,-86C91.8972,-86 102.515,-86 111.838,-86"/>
<polygon fill="midnightblue" stroke="midnightblue" points="81.5841,-82.5001 71.584,-86 81.584,-89.5001 81.5841,-82.5001"/>
</g>
<!-- Node7 -->
<g id="node7" class="node"><title>Node7</title>
<g id="a_node7"><a xlink:href="TDRSOD_8cpp.html#a3df5b7f547d4cb81cae1bbb6d6a2962a" target="_top" xlink:title="VarEqn">
<polygon fill="white" stroke="black" points="116.5,-38.5 116.5,-57.5 165.5,-57.5 165.5,-38.5 116.5,-38.5"/>
<text text-anchor="middle" x="141" y="-45.5" font-family="Helvetica,sans-Serif" font-size="10.00">VarEqn</text>
</a>
</g>
</g>
<!-- Node1&#45;&gt;Node7 -->
<g id="edge7" class="edge"><title>Node1&#45;&gt;Node7</title>
<path fill="none" stroke="midnightblue" d="M72.6688,-72.8406C87.1686,-67.4912 103.523,-61.4575 116.483,-56.6763"/>
<polygon fill="midnightblue" stroke="midnightblue" points="71.1617,-69.666 62.9912,-76.411 73.5846,-76.2333 71.1617,-69.666"/>
</g>
<!-- Node9 -->
<g id="node9" class="node"><title>Node9</title>
<g id="a_node9"><a xlink:href="TDRSOD_8cpp.html#a466ab098330aeb2aa659365279071640" target="_top" xlink:title="Range_4W">
<polygon fill="white" stroke="black" points="108.5,-0.5 108.5,-19.5 173.5,-19.5 173.5,-0.5 108.5,-0.5"/>
<text text-anchor="middle" x="141" y="-7.5" font-family="Helvetica,sans-Serif" font-size="10.00">Range_4W</text>
</a>
</g>
</g>
<!-- Node1&#45;&gt;Node9 -->
<g id="edge9" class="edge"><title>Node1&#45;&gt;Node9</title>
<path fill="none" stroke="midnightblue" d="M56.0861,-69.4588C70.0652,-57.6497 89.7108,-41.6777 108,-29 112.673,-25.7609 117.914,-22.5035 122.781,-19.6233"/>
<polygon fill="midnightblue" stroke="midnightblue" points="53.5127,-67.0536 48.1772,-76.207 58.0563,-72.3787 53.5127,-67.0536"/>
</g>
<!-- Node4 -->
<g id="node4" class="node"><title>Node4</title>
<g id="a_node4"><a xlink:href="RTOD_8cpp.html#a0ddf1224851353fc92bfbff6f499fa97" target="_top" xlink:title="main">
<polygon fill="white" stroke="black" points="304,-95.5 304,-114.5 342,-114.5 342,-95.5 304,-95.5"/>
<text text-anchor="middle" x="323" y="-102.5" font-family="Helvetica,sans-Serif" font-size="10.00">main</text>
</a>
</g>
</g>
<!-- Node3&#45;&gt;Node4 -->
<g id="edge3" class="edge"><title>Node3&#45;&gt;Node4</title>
<path fill="none" stroke="midnightblue" d="M268.806,-117.325C280.492,-114.618 293.632,-111.573 303.929,-109.187"/>
<polygon fill="midnightblue" stroke="midnightblue" points="267.97,-113.926 259.019,-119.593 269.551,-120.746 267.97,-113.926"/>
</g>
<!-- Node6 -->
<g id="node6" class="node"><title>Node6</title>
<g id="a_node6"><a xlink:href="SAT__Kepler_8h.html#aeb2175e4cdc39ea590f44fc2949ea8d3" target="_top" xlink:title="TwoBody">
<polygon fill="white" stroke="black" points="210,-76.5 210,-95.5 268,-95.5 268,-76.5 210,-76.5"/>
<text text-anchor="middle" x="239" y="-83.5" font-family="Helvetica,sans-Serif" font-size="10.00">TwoBody</text>
</a>
</g>
</g>
<!-- Node5&#45;&gt;Node6 -->
<g id="edge5" class="edge"><title>Node5&#45;&gt;Node6</title>
<path fill="none" stroke="midnightblue" d="M180.063,-86C189.973,-86 200.473,-86 209.774,-86"/>
<polygon fill="midnightblue" stroke="midnightblue" points="180.025,-82.5001 170.025,-86 180.025,-89.5001 180.025,-82.5001"/>
</g>
<!-- Node6&#45;&gt;Node4 -->
<g id="edge6" class="edge"><title>Node6&#45;&gt;Node4</title>
<path fill="none" stroke="midnightblue" d="M278.052,-94.817C286.909,-96.8692 295.95,-98.9641 303.511,-100.716"/>
<polygon fill="midnightblue" stroke="midnightblue" points="278.752,-91.3864 268.22,-92.5387 277.172,-98.2057 278.752,-91.3864"/>
</g>
<!-- Node8 -->
<g id="node8" class="node"><title>Node8</title>
<g id="a_node8"><a xlink:href="TDRSOD_8cpp.html#a0ddf1224851353fc92bfbff6f499fa97" target="_top" xlink:title="main">
<polygon fill="white" stroke="black" points="220,-19.5 220,-38.5 258,-38.5 258,-19.5 220,-19.5"/>
<text text-anchor="middle" x="239" y="-26.5" font-family="Helvetica,sans-Serif" font-size="10.00">main</text>
</a>
</g>
</g>
<!-- Node7&#45;&gt;Node8 -->
<g id="edge8" class="edge"><title>Node7&#45;&gt;Node8</title>
<path fill="none" stroke="midnightblue" d="M175.648,-41.3405C190.559,-38.3894 207.504,-35.0356 219.963,-32.5699"/>
<polygon fill="midnightblue" stroke="midnightblue" points="174.861,-37.9284 165.73,-43.3034 176.22,-44.7952 174.861,-37.9284"/>
</g>
<!-- Node9&#45;&gt;Node8 -->
<g id="edge10" class="edge"><title>Node9&#45;&gt;Node8</title>
<path fill="none" stroke="midnightblue" d="M183.643,-18.2418C196.286,-20.7441 209.529,-23.365 219.777,-25.3934"/>
<polygon fill="midnightblue" stroke="midnightblue" points="184.189,-14.7822 173.7,-16.274 182.83,-21.649 184.189,-14.7822"/>
</g>
</g>
</svg>
