<?xml version="1.0" encoding="UTF-8" standalone="no"?>
<!DOCTYPE svg PUBLIC "-//W3C//DTD SVG 1.1//EN"
 "http://www.w3.org/Graphics/SVG/1.1/DTD/svg11.dtd">
<!-- Generated by graphviz version 2.30.1 (20180420.1509)
 -->
<!-- Title: IERS::UT1_UTC Pages: 1 -->
<svg width="226pt" height="66pt"
 viewBox="0.00 0.00 226.00 66.00" xmlns="http://www.w3.org/2000/svg" xmlns:xlink="http://www.w3.org/1999/xlink">
<g id="graph0" class="graph" transform="scale(1 1) rotate(0) translate(4 62)">
<title>IERS::UT1_UTC</title>
<polygon fill="white" stroke="white" points="-4,5 -4,-62 223,-62 223,5 -4,5"/>
<!-- Node1 -->
<g id="node1" class="node"><title>Node1</title>
<polygon fill="#bfbfbf" stroke="black" points="0,-19.5 0,-38.5 92,-38.5 92,-19.5 0,-19.5"/>
<text text-anchor="middle" x="46" y="-26.5" font-family="Helvetica,sans-Serif" font-size="10.00">IERS::UT1_UTC</text>
</g>
<!-- Node2 -->
<g id="node2" class="node"><title>Node2</title>
<g id="a_node2"><a xlink:href="classIERS.html#acfce0b1a43896fed7b1bf9cefe3baebd" target="_top" xlink:title="IERS::UT1_TAI">
<polygon fill="white" stroke="black" points="130,-38.5 130,-57.5 216,-57.5 216,-38.5 130,-38.5"/>
<text text-anchor="middle" x="173" y="-45.5" font-family="Helvetica,sans-Serif" font-size="10.00">IERS::UT1_TAI</text>
</a>
</g>
</g>
<!-- Node1&#45;&gt;Node2 -->
<g id="edge1" class="edge"><title>Node1&#45;&gt;Node2</title>
<path fill="none" stroke="midnightblue" d="M92.1279,-35.8594C101.07,-37.2187 110.528,-38.6563 119.686,-40.0483"/>
<polygon fill="midnightblue" stroke="midnightblue" points="119.443,-43.5514 129.855,-41.594 120.495,-36.6309 119.443,-43.5514"/>
</g>
<!-- Node3 -->
<g id="node3" class="node"><title>Node3</title>
<g id="a_node3"><a xlink:href="classIERS.html#ad872e267797cb8d5be328b236287565f" target="_top" xlink:title="IERS::UTC_TAI">
<polygon fill="white" stroke="black" points="128.5,-0.5 128.5,-19.5 217.5,-19.5 217.5,-0.5 128.5,-0.5"/>
<text text-anchor="middle" x="173" y="-7.5" font-family="Helvetica,sans-Serif" font-size="10.00">IERS::UTC_TAI</text>
</a>
</g>
</g>
<!-- Node1&#45;&gt;Node3 -->
<g id="edge2" class="edge"><title>Node1&#45;&gt;Node3</title>
<path fill="none" stroke="midnightblue" d="M92.1279,-22.1406C100.572,-20.857 109.476,-19.5037 118.153,-18.1848"/>
<polygon fill="midnightblue" stroke="midnightblue" points="118.833,-21.6217 128.193,-16.6586 117.781,-14.7012 118.833,-21.6217"/>
</g>
</g>
</svg>
