<?xml version="1.0" encoding="UTF-8" standalone="no"?>
<!DOCTYPE svg PUBLIC "-//W3C//DTD SVG 1.1//EN"
 "http://www.w3.org/Graphics/SVG/1.1/DTD/svg11.dtd">
<!-- Generated by graphviz version 2.30.1 (20180420.1509)
 -->
<!-- Title: GEODA.cpp Pages: 1 -->
<svg width="686pt" height="196pt"
 viewBox="0.00 0.00 686.00 196.00" xmlns="http://www.w3.org/2000/svg" xmlns:xlink="http://www.w3.org/1999/xlink">
<g id="graph0" class="graph" transform="scale(1 1) rotate(0) translate(4 192)">
<title>GEODA.cpp</title>
<polygon fill="white" stroke="white" points="-4,5 -4,-192 683,-192 683,5 -4,5"/>
<!-- Node1 -->
<g id="node1" class="node"><title>Node1</title>
<polygon fill="#bfbfbf" stroke="black" points="295.5,-168.5 295.5,-187.5 366.5,-187.5 366.5,-168.5 295.5,-168.5"/>
<text text-anchor="middle" x="331" y="-175.5" font-family="Helvetica,sans-Serif" font-size="10.00">GEODA.cpp</text>
</g>
<!-- Node2 -->
<g id="node2" class="node"><title>Node2</title>
<polygon fill="white" stroke="#bfbfbf" points="72,-0.5 72,-19.5 126,-19.5 126,-0.5 72,-0.5"/>
<text text-anchor="middle" x="99" y="-7.5" font-family="Helvetica,sans-Serif" font-size="10.00">iostream</text>
</g>
<!-- Node1&#45;&gt;Node2 -->
<g id="edge1" class="edge"><title>Node1&#45;&gt;Node2</title>
<path fill="none" stroke="midnightblue" d="M295.365,-177.445C254.989,-176.065 189.432,-167.87 148,-132 117.115,-105.261 105.43,-56.189 101.219,-29.4896"/>
<polygon fill="midnightblue" stroke="midnightblue" points="104.681,-28.9704 99.838,-19.5471 97.7473,-29.9336 104.681,-28.9704"/>
</g>
<!-- Node3 -->
<g id="node3" class="node"><title>Node3</title>
<polygon fill="white" stroke="#bfbfbf" points="394,-112.5 394,-131.5 444,-131.5 444,-112.5 394,-112.5"/>
<text text-anchor="middle" x="419" y="-119.5" font-family="Helvetica,sans-Serif" font-size="10.00">iomanip</text>
</g>
<!-- Node1&#45;&gt;Node3 -->
<g id="edge2" class="edge"><title>Node1&#45;&gt;Node3</title>
<path fill="none" stroke="midnightblue" d="M345.139,-168.324C358.866,-159.9 379.936,-146.971 396.064,-137.074"/>
<polygon fill="midnightblue" stroke="midnightblue" points="398.204,-139.868 404.896,-131.655 394.543,-133.902 398.204,-139.868"/>
</g>
<!-- Node4 -->
<g id="node4" class="node"><title>Node4</title>
<polygon fill="white" stroke="#bfbfbf" points="462,-112.5 462,-131.5 512,-131.5 512,-112.5 462,-112.5"/>
<text text-anchor="middle" x="487" y="-119.5" font-family="Helvetica,sans-Serif" font-size="10.00">fstream</text>
</g>
<!-- Node1&#45;&gt;Node4 -->
<g id="edge3" class="edge"><title>Node1&#45;&gt;Node4</title>
<path fill="none" stroke="midnightblue" d="M355.719,-168.444C381.848,-159.399 423.259,-145.064 452.576,-134.916"/>
<polygon fill="midnightblue" stroke="midnightblue" points="454.092,-138.095 462.397,-131.516 451.802,-131.48 454.092,-138.095"/>
</g>
<!-- Node5 -->
<g id="node5" class="node"><title>Node5</title>
<polygon fill="white" stroke="#bfbfbf" points="530,-112.5 530,-131.5 574,-131.5 574,-112.5 530,-112.5"/>
<text text-anchor="middle" x="552" y="-119.5" font-family="Helvetica,sans-Serif" font-size="10.00">cmath</text>
</g>
<!-- Node1&#45;&gt;Node5 -->
<g id="edge4" class="edge"><title>Node1&#45;&gt;Node5</title>
<path fill="none" stroke="midnightblue" d="M366.851,-169.071C403.13,-160.923 461.052,-147.576 519.86,-132.208"/>
<polygon fill="midnightblue" stroke="midnightblue" points="520.906,-135.552 529.686,-129.623 519.125,-128.782 520.906,-135.552"/>
</g>
<!-- Node6 -->
<g id="node6" class="node"><title>Node6</title>
<g id="a_node6"><a xlink:href="SAT__Const_8h.html" target="_top" xlink:title="SAT_Const.h">
<polygon fill="white" stroke="black" points="293,-56.5 293,-75.5 369,-75.5 369,-56.5 293,-56.5"/>
<text text-anchor="middle" x="331" y="-63.5" font-family="Helvetica,sans-Serif" font-size="10.00">SAT_Const.h</text>
</a>
</g>
</g>
<!-- Node1&#45;&gt;Node6 -->
<g id="edge5" class="edge"><title>Node1&#45;&gt;Node6</title>
<path fill="none" stroke="midnightblue" d="M335.249,-168.242C340.76,-155.825 349.302,-132.349 346,-112 344.532,-102.957 341.508,-93.275 338.556,-85.2176"/>
<polygon fill="midnightblue" stroke="midnightblue" points="341.756,-83.7907 334.856,-75.7514 335.237,-86.3393 341.756,-83.7907"/>
</g>
<!-- Node7 -->
<g id="node7" class="node"><title>Node7</title>
<g id="a_node7"><a xlink:href="SAT__Filter_8h.html" target="_top" xlink:title="SAT_Filter.h">
<polygon fill="white" stroke="black" points="165.5,-112.5 165.5,-131.5 236.5,-131.5 236.5,-112.5 165.5,-112.5"/>
<text text-anchor="middle" x="201" y="-119.5" font-family="Helvetica,sans-Serif" font-size="10.00">SAT_Filter.h</text>
</a>
</g>
</g>
<!-- Node1&#45;&gt;Node7 -->
<g id="edge6" class="edge"><title>Node1&#45;&gt;Node7</title>
<path fill="none" stroke="midnightblue" d="M310.401,-168.444C289.007,-159.557 255.319,-145.563 230.976,-135.451"/>
<polygon fill="midnightblue" stroke="midnightblue" points="232.08,-132.12 221.503,-131.516 229.395,-138.585 232.08,-132.12"/>
</g>
<!-- Node10 -->
<g id="node10" class="node"><title>Node10</title>
<g id="a_node10"><a xlink:href="SAT__RefSys_8h.html" target="_top" xlink:title="SAT_RefSys.h">
<polygon fill="white" stroke="black" points="254.5,-112.5 254.5,-131.5 337.5,-131.5 337.5,-112.5 254.5,-112.5"/>
<text text-anchor="middle" x="296" y="-119.5" font-family="Helvetica,sans-Serif" font-size="10.00">SAT_RefSys.h</text>
</a>
</g>
</g>
<!-- Node1&#45;&gt;Node10 -->
<g id="edge10" class="edge"><title>Node1&#45;&gt;Node10</title>
<path fill="none" stroke="midnightblue" d="M325.22,-168.083C320.328,-160.534 313.173,-149.495 307.167,-140.23"/>
<polygon fill="midnightblue" stroke="midnightblue" points="310.048,-138.239 301.672,-131.751 304.174,-142.046 310.048,-138.239"/>
</g>
<!-- Node11 -->
<g id="node11" class="node"><title>Node11</title>
<g id="a_node11"><a xlink:href="SAT__Time_8h.html" target="_top" xlink:title="SAT_Time.h">
<polygon fill="white" stroke="black" points="-0.5,-56.5 -0.5,-75.5 70.5,-75.5 70.5,-56.5 -0.5,-56.5"/>
<text text-anchor="middle" x="35" y="-63.5" font-family="Helvetica,sans-Serif" font-size="10.00">SAT_Time.h</text>
</a>
</g>
</g>
<!-- Node1&#45;&gt;Node11 -->
<g id="edge13" class="edge"><title>Node1&#45;&gt;Node11</title>
<path fill="none" stroke="midnightblue" d="M295.049,-173.613C235.558,-167.489 119.743,-153.206 85,-132 66.4583,-120.683 52.2573,-99.766 43.8093,-84.7129"/>
<polygon fill="midnightblue" stroke="midnightblue" points="46.8758,-83.0246 39.1008,-75.8274 40.6905,-86.3023 46.8758,-83.0246"/>
</g>
<!-- Node8 -->
<g id="node8" class="node"><title>Node8</title>
<g id="a_node8"><a xlink:href="SAT__VecMat_8h.html" target="_top" xlink:title="SAT_VecMat.h">
<polygon fill="white" stroke="black" points="141.5,-56.5 141.5,-75.5 224.5,-75.5 224.5,-56.5 141.5,-56.5"/>
<text text-anchor="middle" x="183" y="-63.5" font-family="Helvetica,sans-Serif" font-size="10.00">SAT_VecMat.h</text>
</a>
</g>
</g>
<!-- Node1&#45;&gt;Node8 -->
<g id="edge15" class="edge"><title>Node1&#45;&gt;Node8</title>
<path fill="none" stroke="midnightblue" d="M295.367,-172.954C249.287,-166.905 172.916,-153.816 156,-132 144.715,-117.446 156.076,-97.4985 167.33,-83.5534"/>
<polygon fill="midnightblue" stroke="midnightblue" points="170.198,-85.5901 174.12,-75.7481 164.916,-80.9958 170.198,-85.5901"/>
</g>
<!-- Node12 -->
<g id="node12" class="node"><title>Node12</title>
<g id="a_node12"><a xlink:href="GNU__iomanip_8h.html" target="_top" xlink:title="GNU_iomanip.h">
<polygon fill="white" stroke="black" points="592,-112.5 592,-131.5 678,-131.5 678,-112.5 592,-112.5"/>
<text text-anchor="middle" x="635" y="-119.5" font-family="Helvetica,sans-Serif" font-size="10.00">GNU_iomanip.h</text>
</a>
</g>
</g>
<!-- Node1&#45;&gt;Node12 -->
<g id="edge16" class="edge"><title>Node1&#45;&gt;Node12</title>
<path fill="none" stroke="midnightblue" d="M366.767,-170.647C419.918,-161.205 520.105,-143.409 581.854,-132.44"/>
<polygon fill="midnightblue" stroke="midnightblue" points="582.561,-135.87 591.794,-130.675 581.336,-128.978 582.561,-135.87"/>
</g>
<!-- Node7&#45;&gt;Node8 -->
<g id="edge7" class="edge"><title>Node7&#45;&gt;Node8</title>
<path fill="none" stroke="midnightblue" d="M198.028,-112.083C195.616,-104.849 192.136,-94.4087 189.132,-85.3968"/>
<polygon fill="midnightblue" stroke="midnightblue" points="192.4,-84.1311 185.917,-75.7511 185.759,-86.3447 192.4,-84.1311"/>
</g>
<!-- Node8&#45;&gt;Node2 -->
<g id="edge8" class="edge"><title>Node8&#45;&gt;Node2</title>
<path fill="none" stroke="midnightblue" d="M169.504,-56.324C156.4,-47.9002 136.288,-34.9709 120.893,-25.0741"/>
<polygon fill="midnightblue" stroke="midnightblue" points="122.767,-22.118 112.463,-19.6545 118.982,-28.0063 122.767,-22.118"/>
</g>
<!-- Node9 -->
<g id="node9" class="node"><title>Node9</title>
<polygon fill="white" stroke="#bfbfbf" points="160.5,-0.5 160.5,-19.5 205.5,-19.5 205.5,-0.5 160.5,-0.5"/>
<text text-anchor="middle" x="183" y="-7.5" font-family="Helvetica,sans-Serif" font-size="10.00">cstdlib</text>
</g>
<!-- Node8&#45;&gt;Node9 -->
<g id="edge9" class="edge"><title>Node8&#45;&gt;Node9</title>
<path fill="none" stroke="midnightblue" d="M183,-56.083C183,-49.0059 183,-38.8611 183,-29.9865"/>
<polygon fill="midnightblue" stroke="midnightblue" points="186.5,-29.751 183,-19.7511 179.5,-29.7511 186.5,-29.751"/>
</g>
<!-- Node10&#45;&gt;Node6 -->
<g id="edge11" class="edge"><title>Node10&#45;&gt;Node6</title>
<path fill="none" stroke="midnightblue" d="M301.78,-112.083C306.672,-104.534 313.827,-93.4948 319.833,-84.2298"/>
<polygon fill="midnightblue" stroke="midnightblue" points="322.826,-86.0463 325.328,-75.7511 316.952,-82.239 322.826,-86.0463"/>
</g>
<!-- Node10&#45;&gt;Node8 -->
<g id="edge12" class="edge"><title>Node10&#45;&gt;Node8</title>
<path fill="none" stroke="midnightblue" d="M278.095,-112.444C259.746,-103.675 230.995,-89.9355 209.906,-79.8579"/>
<polygon fill="midnightblue" stroke="midnightblue" points="211.353,-76.6703 200.821,-75.5164 208.335,-82.9862 211.353,-76.6703"/>
</g>
<!-- Node11&#45;&gt;Node2 -->
<g id="edge14" class="edge"><title>Node11&#45;&gt;Node2</title>
<path fill="none" stroke="midnightblue" d="M45.2827,-56.324C54.8363,-48.2631 69.2797,-36.0765 80.7843,-26.3695"/>
<polygon fill="midnightblue" stroke="midnightblue" points="83.1443,-28.9577 88.5302,-19.8339 78.6302,-23.6076 83.1443,-28.9577"/>
</g>
</g>
</svg>
