<?xml version="1.0" encoding="UTF-8" standalone="no"?>
<!DOCTYPE svg PUBLIC "-//W3C//DTD SVG 1.1//EN"
 "http://www.w3.org/Graphics/SVG/1.1/DTD/svg11.dtd">
<!-- Generated by graphviz version 2.30.1 (20180420.1509)
 -->
<!-- Title: main Pages: 1 -->
<svg width="378pt" height="712pt"
 viewBox="0.00 0.00 378.00 712.00" xmlns="http://www.w3.org/2000/svg" xmlns:xlink="http://www.w3.org/1999/xlink">
<g id="graph0" class="graph" transform="scale(1 1) rotate(0) translate(4 708)">
<title>main</title>
<polygon fill="white" stroke="white" points="-4,5 -4,-708 375,-708 375,5 -4,5"/>
<!-- Node1 -->
<g id="node1" class="node"><title>Node1</title>
<polygon fill="#bfbfbf" stroke="black" points="0,-342.5 0,-361.5 38,-361.5 38,-342.5 0,-342.5"/>
<text text-anchor="middle" x="19" y="-349.5" font-family="Helvetica,sans-Serif" font-size="10.00">main</text>
</g>
<!-- Node2 -->
<g id="node2" class="node"><title>Node2</title>
<g id="a_node2"><a xlink:href="GEODA_8cpp.html#af62e04db95805bf3f19fcdfdbc66a49a" target="_top" xlink:title="GetSetup">
<polygon fill="white" stroke="black" points="102,-684.5 102,-703.5 160,-703.5 160,-684.5 102,-684.5"/>
<text text-anchor="middle" x="131" y="-691.5" font-family="Helvetica,sans-Serif" font-size="10.00">GetSetup</text>
</a>
</g>
</g>
<!-- Node1&#45;&gt;Node2 -->
<g id="edge1" class="edge"><title>Node1&#45;&gt;Node2</title>
<path fill="none" stroke="midnightblue" d="M20.3126,-361.603C22.0707,-409.897 32.1984,-625.84 74,-675 78.8009,-680.646 85.347,-684.619 92.2724,-687.413"/>
<polygon fill="midnightblue" stroke="midnightblue" points="91.2303,-690.754 101.823,-690.539 93.4078,-684.102 91.2303,-690.754"/>
</g>
<!-- Node3 -->
<g id="node3" class="node"><title>Node3</title>
<g id="a_node3"><a xlink:href="SAT__VecMat_8cpp.html#af7d7bb183b22c5c942a8afdadc433bc2" target="_top" xlink:title="Diag">
<polygon fill="white" stroke="black" points="112.5,-646.5 112.5,-665.5 149.5,-665.5 149.5,-646.5 112.5,-646.5"/>
<text text-anchor="middle" x="131" y="-653.5" font-family="Helvetica,sans-Serif" font-size="10.00">Diag</text>
</a>
</g>
</g>
<!-- Node1&#45;&gt;Node3 -->
<g id="edge2" class="edge"><title>Node1&#45;&gt;Node3</title>
<path fill="none" stroke="midnightblue" d="M20.5489,-361.644C23.2856,-406.488 36.836,-594.238 74,-637 81.1724,-645.253 92.069,-649.927 102.35,-652.572"/>
<polygon fill="midnightblue" stroke="midnightblue" points="101.766,-656.025 112.265,-654.599 103.168,-649.167 101.766,-656.025"/>
</g>
<!-- Node4 -->
<g id="node4" class="node"><title>Node4</title>
<g id="a_node4"><a xlink:href="classVector.html#ae58ec75ebd2a2d60775c2e0ee98a35ae" target="_top" xlink:title="Vector::slice">
<polygon fill="white" stroke="black" points="95.5,-608.5 95.5,-627.5 166.5,-627.5 166.5,-608.5 95.5,-608.5"/>
<text text-anchor="middle" x="131" y="-615.5" font-family="Helvetica,sans-Serif" font-size="10.00">Vector::slice</text>
</a>
</g>
</g>
<!-- Node1&#45;&gt;Node4 -->
<g id="edge3" class="edge"><title>Node1&#45;&gt;Node4</title>
<path fill="none" stroke="midnightblue" d="M20.8601,-361.712C24.6903,-402.887 41.4542,-562.594 74,-599 77.3314,-602.727 81.4212,-605.723 85.8604,-608.132"/>
<polygon fill="midnightblue" stroke="midnightblue" points="84.7692,-611.476 95.3321,-612.298 87.5875,-605.068 84.7692,-611.476"/>
</g>
<!-- Node5 -->
<g id="node5" class="node"><title>Node5</title>
<g id="a_node5"><a xlink:href="SAT__VecMat_8cpp.html#ac71a8aaf67fa3c90f274788d91002af9" target="_top" xlink:title="Id">
<polygon fill="white" stroke="black" points="116.5,-570.5 116.5,-589.5 145.5,-589.5 145.5,-570.5 116.5,-570.5"/>
<text text-anchor="middle" x="131" y="-577.5" font-family="Helvetica,sans-Serif" font-size="10.00">Id</text>
</a>
</g>
</g>
<!-- Node1&#45;&gt;Node5 -->
<g id="edge4" class="edge"><title>Node1&#45;&gt;Node5</title>
<path fill="none" stroke="midnightblue" d="M19.4932,-361.822C18.3521,-394.67 19.1797,-501.95 74,-561 82.2577,-569.895 94.8308,-574.626 105.973,-577.143"/>
<polygon fill="midnightblue" stroke="midnightblue" points="105.569,-580.626 116.029,-578.94 106.801,-573.735 105.569,-580.626"/>
</g>
<!-- Node6 -->
<g id="node6" class="node"><title>Node6</title>
<g id="a_node6"><a xlink:href="classLSQ.html#a77940543ea83db4f557cdf09f99b3098" target="_top" xlink:title="LSQ::Init">
<polygon fill="white" stroke="black" points="103,-532.5 103,-551.5 159,-551.5 159,-532.5 103,-532.5"/>
<text text-anchor="middle" x="131" y="-539.5" font-family="Helvetica,sans-Serif" font-size="10.00">LSQ::Init</text>
</a>
</g>
</g>
<!-- Node1&#45;&gt;Node6 -->
<g id="edge5" class="edge"><title>Node1&#45;&gt;Node6</title>
<path fill="none" stroke="midnightblue" d="M20.1592,-361.642C21.16,-390.331 28.0457,-476.06 74,-523 79.2834,-528.397 86.1544,-532.261 93.2643,-535.027"/>
<polygon fill="midnightblue" stroke="midnightblue" points="92.3896,-538.423 102.981,-538.161 94.5379,-531.76 92.3896,-538.423"/>
</g>
<!-- Node7 -->
<g id="node7" class="node"><title>Node7</title>
<g id="a_node7"><a xlink:href="classGeodetic.html#a47d84f3c9f36b3443cea7c344fcfbddc" target="_top" xlink:title="Geodetic::LTC_Matrix">
<polygon fill="white" stroke="black" points="74.5,-494.5 74.5,-513.5 187.5,-513.5 187.5,-494.5 74.5,-494.5"/>
<text text-anchor="middle" x="131" y="-501.5" font-family="Helvetica,sans-Serif" font-size="10.00">Geodetic::LTC_Matrix</text>
</a>
</g>
</g>
<!-- Node1&#45;&gt;Node7 -->
<g id="edge6" class="edge"><title>Node1&#45;&gt;Node7</title>
<path fill="none" stroke="midnightblue" d="M21.1503,-361.559C24.5637,-385.748 36.8329,-449.949 74,-485 75.6689,-486.574 77.473,-488.018 79.3761,-489.342"/>
<polygon fill="midnightblue" stroke="midnightblue" points="77.824,-492.487 88.2412,-494.419 81.3027,-486.412 77.824,-492.487"/>
</g>
<!-- Node11 -->
<g id="node11" class="node"><title>Node11</title>
<g id="a_node11"><a xlink:href="classGeodetic.html#a7c02e1089d2fc2eebd46a20252e78130" target="_top" xlink:title="Geodetic::Position">
<polygon fill="white" stroke="black" points="82.5,-456.5 82.5,-475.5 179.5,-475.5 179.5,-456.5 82.5,-456.5"/>
<text text-anchor="middle" x="131" y="-463.5" font-family="Helvetica,sans-Serif" font-size="10.00">Geodetic::Position</text>
</a>
</g>
</g>
<!-- Node1&#45;&gt;Node11 -->
<g id="edge10" class="edge"><title>Node1&#45;&gt;Node11</title>
<path fill="none" stroke="midnightblue" d="M22.879,-361.598C29.077,-380.65 45.4804,-423.437 74,-447 76.043,-448.688 78.2433,-450.229 80.5485,-451.635"/>
<polygon fill="midnightblue" stroke="midnightblue" points="79.3545,-454.956 89.8483,-456.416 82.5555,-448.731 79.3545,-454.956"/>
</g>
<!-- Node12 -->
<g id="node12" class="node"><title>Node12</title>
<g id="a_node12"><a xlink:href="SAT__RefSys_8cpp.html#a63c1f44c27163cd8d0f9e4ca4309b34d" target="_top" xlink:title="AzEl">
<polygon fill="white" stroke="black" points="112,-418.5 112,-437.5 150,-437.5 150,-418.5 112,-418.5"/>
<text text-anchor="middle" x="131" y="-425.5" font-family="Helvetica,sans-Serif" font-size="10.00">AzEl</text>
</a>
</g>
</g>
<!-- Node1&#45;&gt;Node12 -->
<g id="edge11" class="edge"><title>Node1&#45;&gt;Node12</title>
<path fill="none" stroke="midnightblue" d="M26.9245,-361.86C36.2588,-374.471 54.028,-396.205 74,-409 82.507,-414.45 92.7485,-418.517 102.134,-421.46"/>
<polygon fill="midnightblue" stroke="midnightblue" points="101.284,-424.857 111.86,-424.224 103.197,-418.123 101.284,-424.857"/>
</g>
<!-- Node13 -->
<g id="node13" class="node"><title>Node13</title>
<g id="a_node13"><a xlink:href="SAT__VecMat_8cpp.html#a313ce8c9730e0bd08a1396f364f0486c" target="_top" xlink:title="Norm">
<polygon fill="white" stroke="black" points="110.5,-228.5 110.5,-247.5 151.5,-247.5 151.5,-228.5 110.5,-228.5"/>
<text text-anchor="middle" x="131" y="-235.5" font-family="Helvetica,sans-Serif" font-size="10.00">Norm</text>
</a>
</g>
</g>
<!-- Node1&#45;&gt;Node13 -->
<g id="edge12" class="edge"><title>Node1&#45;&gt;Node13</title>
<path fill="none" stroke="midnightblue" d="M22.879,-342.402C29.077,-323.35 45.4804,-280.563 74,-257 81.6142,-250.709 91.414,-246.463 100.682,-243.614"/>
<polygon fill="midnightblue" stroke="midnightblue" points="101.63,-246.983 110.4,-241.039 99.8373,-240.217 101.63,-246.983"/>
</g>
<!-- Node15 -->
<g id="node15" class="node"><title>Node15</title>
<g id="a_node15"><a xlink:href="GEODA_8cpp.html#ad363d83dfb0be87465bd76a2e5e0ff6b" target="_top" xlink:title="Phi">
<polygon fill="white" stroke="black" points="115.5,-342.5 115.5,-361.5 146.5,-361.5 146.5,-342.5 115.5,-342.5"/>
<text text-anchor="middle" x="131" y="-349.5" font-family="Helvetica,sans-Serif" font-size="10.00">Phi</text>
</a>
</g>
</g>
<!-- Node1&#45;&gt;Node15 -->
<g id="edge14" class="edge"><title>Node1&#45;&gt;Node15</title>
<path fill="none" stroke="midnightblue" d="M38.1643,-352C56.475,-352 84.8669,-352 105.234,-352"/>
<polygon fill="midnightblue" stroke="midnightblue" points="105.332,-355.5 115.332,-352 105.332,-348.5 105.332,-355.5"/>
</g>
<!-- Node16 -->
<g id="node16" class="node"><title>Node16</title>
<g id="a_node16"><a xlink:href="classMatrix.html#a220d7f201c5dc597cd14530fe92402b0" target="_top" xlink:title="Matrix::slice">
<polygon fill="white" stroke="black" points="96,-304.5 96,-323.5 166,-323.5 166,-304.5 96,-304.5"/>
<text text-anchor="middle" x="131" y="-311.5" font-family="Helvetica,sans-Serif" font-size="10.00">Matrix::slice</text>
</a>
</g>
</g>
<!-- Node1&#45;&gt;Node16 -->
<g id="edge15" class="edge"><title>Node1&#45;&gt;Node16</title>
<path fill="none" stroke="midnightblue" d="M38.4765,-345.441C48.898,-341.757 62.1644,-337.09 74,-333 79.7812,-331.002 85.9046,-328.905 91.8977,-326.864"/>
<polygon fill="midnightblue" stroke="midnightblue" points="93.4351,-330.038 101.777,-323.507 91.1831,-323.41 93.4351,-330.038"/>
</g>
<!-- Node17 -->
<g id="node17" class="node"><title>Node17</title>
<g id="a_node17"><a xlink:href="classLSQ.html#aa98a7935493ef8e5cfc6f21cb6920307" target="_top" xlink:title="LSQ::Accumulate">
<polygon fill="white" stroke="black" points="84,-266.5 84,-285.5 178,-285.5 178,-266.5 84,-266.5"/>
<text text-anchor="middle" x="131" y="-273.5" font-family="Helvetica,sans-Serif" font-size="10.00">LSQ::Accumulate</text>
</a>
</g>
</g>
<!-- Node1&#45;&gt;Node17 -->
<g id="edge16" class="edge"><title>Node1&#45;&gt;Node17</title>
<path fill="none" stroke="midnightblue" d="M26.9245,-342.14C36.2588,-329.529 54.028,-307.795 74,-295 77.1229,-292.999 80.4796,-291.185 83.9419,-289.544"/>
<polygon fill="midnightblue" stroke="midnightblue" points="85.4208,-292.719 93.2653,-285.598 82.692,-286.273 85.4208,-292.719"/>
</g>
<!-- Node18 -->
<g id="node18" class="node"><title>Node18</title>
<g id="a_node18"><a xlink:href="SAT__VecMat_8cpp.html#ad3352c6f838a6a97403bc6f2d6bda5df" target="_top" xlink:title="Stack">
<polygon fill="white" stroke="black" points="110,-380.5 110,-399.5 152,-399.5 152,-380.5 110,-380.5"/>
<text text-anchor="middle" x="131" y="-387.5" font-family="Helvetica,sans-Serif" font-size="10.00">Stack</text>
</a>
</g>
</g>
<!-- Node1&#45;&gt;Node18 -->
<g id="edge17" class="edge"><title>Node1&#45;&gt;Node18</title>
<path fill="none" stroke="midnightblue" d="M38.4765,-358.559C48.898,-362.243 62.1644,-366.91 74,-371 82.5088,-373.94 91.7589,-377.095 100.244,-379.973"/>
<polygon fill="midnightblue" stroke="midnightblue" points="99.1691,-383.305 109.763,-383.195 101.413,-376.674 99.1691,-383.305"/>
</g>
<!-- Node20 -->
<g id="node20" class="node"><title>Node20</title>
<g id="a_node20"><a xlink:href="classLSQ.html#ac9ba1dce0da84246d9b7cbf7f4165f00" target="_top" xlink:title="LSQ::SRIM">
<polygon fill="white" stroke="black" points="97,-190.5 97,-209.5 165,-209.5 165,-190.5 97,-190.5"/>
<text text-anchor="middle" x="131" y="-197.5" font-family="Helvetica,sans-Serif" font-size="10.00">LSQ::SRIM</text>
</a>
</g>
</g>
<!-- Node1&#45;&gt;Node20 -->
<g id="edge19" class="edge"><title>Node1&#45;&gt;Node20</title>
<path fill="none" stroke="midnightblue" d="M21.1503,-342.441C24.5637,-318.252 36.8329,-254.051 74,-219 77.8687,-215.352 82.4645,-212.402 87.3346,-210.017"/>
<polygon fill="midnightblue" stroke="midnightblue" points="88.9911,-213.121 96.9194,-206.093 86.3389,-206.643 88.9911,-213.121"/>
</g>
<!-- Node21 -->
<g id="node21" class="node"><title>Node21</title>
<g id="a_node21"><a xlink:href="SAT__Filter_8cpp.html#a3e84458a7d84898487cdf6d4bd3a483e" target="_top" xlink:title="InvUpper">
<polygon fill="white" stroke="black" points="103,-76.5 103,-95.5 159,-95.5 159,-76.5 103,-76.5"/>
<text text-anchor="middle" x="131" y="-83.5" font-family="Helvetica,sans-Serif" font-size="10.00">InvUpper</text>
</a>
</g>
</g>
<!-- Node1&#45;&gt;Node21 -->
<g id="edge20" class="edge"><title>Node1&#45;&gt;Node21</title>
<path fill="none" stroke="midnightblue" d="M20.8601,-342.288C24.6903,-301.113 41.4542,-141.406 74,-105 79.0805,-99.3169 85.9247,-95.3321 93.0823,-92.5385"/>
<polygon fill="midnightblue" stroke="midnightblue" points="94.4294,-95.7831 102.901,-89.4199 92.3102,-89.1115 94.4294,-95.7831"/>
</g>
<!-- Node24 -->
<g id="node24" class="node"><title>Node24</title>
<g id="a_node24"><a xlink:href="SAT__VecMat_8cpp.html#aa54829a0c63c78e6bfbd12285ad94075" target="_top" xlink:title="Transp">
<polygon fill="white" stroke="black" points="107.5,-114.5 107.5,-133.5 154.5,-133.5 154.5,-114.5 107.5,-114.5"/>
<text text-anchor="middle" x="131" y="-121.5" font-family="Helvetica,sans-Serif" font-size="10.00">Transp</text>
</a>
</g>
</g>
<!-- Node1&#45;&gt;Node24 -->
<g id="edge23" class="edge"><title>Node1&#45;&gt;Node24</title>
<path fill="none" stroke="midnightblue" d="M19.7456,-342.12C19.4508,-310.024 22.756,-207.337 74,-148 80.1784,-140.846 88.8675,-135.762 97.5616,-132.174"/>
<polygon fill="midnightblue" stroke="midnightblue" points="98.9972,-135.379 107.246,-128.73 96.6512,-128.783 98.9972,-135.379"/>
</g>
<!-- Node14 -->
<g id="node14" class="node"><title>Node14</title>
<g id="a_node14"><a xlink:href="SAT__VecMat_8cpp.html#a71375a6ebee7fc40c1d45985175d82e5" target="_top" xlink:title="Dot">
<polygon fill="white" stroke="black" points="245,-161.5 245,-180.5 277,-180.5 277,-161.5 245,-161.5"/>
<text text-anchor="middle" x="261" y="-168.5" font-family="Helvetica,sans-Serif" font-size="10.00">Dot</text>
</a>
</g>
</g>
<!-- Node1&#45;&gt;Node14 -->
<g id="edge24" class="edge"><title>Node1&#45;&gt;Node14</title>
<path fill="none" stroke="midnightblue" d="M19.614,-342.165C19.0345,-312.168 21.8319,-221.431 74,-181 120.845,-144.695 195.944,-155.246 234.835,-164.172"/>
<polygon fill="midnightblue" stroke="midnightblue" points="234.245,-167.631 244.79,-166.606 235.908,-160.831 234.245,-167.631"/>
</g>
<!-- Node25 -->
<g id="node25" class="node"><title>Node25</title>
<g id="a_node25"><a xlink:href="classMatrix.html#ae6b225896639ed624596fff9a01f0618" target="_top" xlink:title="Matrix::Diag">
<polygon fill="white" stroke="black" points="96,-38.5 96,-57.5 166,-57.5 166,-38.5 96,-38.5"/>
<text text-anchor="middle" x="131" y="-45.5" font-family="Helvetica,sans-Serif" font-size="10.00">Matrix::Diag</text>
</a>
</g>
</g>
<!-- Node1&#45;&gt;Node25 -->
<g id="edge25" class="edge"><title>Node1&#45;&gt;Node25</title>
<path fill="none" stroke="midnightblue" d="M20.5489,-342.356C23.2856,-297.512 36.836,-109.762 74,-67 77.4473,-63.0335 81.7549,-59.8935 86.441,-57.4082"/>
<polygon fill="midnightblue" stroke="midnightblue" points="87.9861,-60.5538 95.7923,-53.3905 85.2227,-54.1223 87.9861,-60.5538"/>
</g>
<!-- Node26 -->
<g id="node26" class="node"><title>Node26</title>
<g id="a_node26"><a xlink:href="classVector.html#aa803f912416c94f62e128dd64f30ba5f" target="_top" xlink:title="Vector::Sqrt">
<polygon fill="white" stroke="black" points="96.5,-0.5 96.5,-19.5 165.5,-19.5 165.5,-0.5 96.5,-0.5"/>
<text text-anchor="middle" x="131" y="-7.5" font-family="Helvetica,sans-Serif" font-size="10.00">Vector::Sqrt</text>
</a>
</g>
</g>
<!-- Node1&#45;&gt;Node26 -->
<g id="edge26" class="edge"><title>Node1&#45;&gt;Node26</title>
<path fill="none" stroke="midnightblue" d="M20.3126,-342.397C22.0707,-294.103 32.1984,-78.1604 74,-29 77.4853,-24.9011 81.8904,-21.6842 86.6927,-19.1599"/>
<polygon fill="midnightblue" stroke="midnightblue" points="88.4304,-22.2254 96.2798,-15.1095 85.7061,-15.7773 88.4304,-22.2254"/>
</g>
<!-- Node8 -->
<g id="node8" class="node"><title>Node8</title>
<g id="a_node8"><a xlink:href="SAT__RefSys_8cpp.html#ae2cb1346d211047ba96d1b2d69aa13c1" target="_top" xlink:title="LTCMatrix">
<polygon fill="white" stroke="black" points="230,-494.5 230,-513.5 292,-513.5 292,-494.5 230,-494.5"/>
<text text-anchor="middle" x="261" y="-501.5" font-family="Helvetica,sans-Serif" font-size="10.00">LTCMatrix</text>
</a>
</g>
</g>
<!-- Node7&#45;&gt;Node8 -->
<g id="edge7" class="edge"><title>Node7&#45;&gt;Node8</title>
<path fill="none" stroke="midnightblue" d="M187.77,-504C198.471,-504 209.483,-504 219.584,-504"/>
<polygon fill="midnightblue" stroke="midnightblue" points="219.729,-507.5 229.729,-504 219.729,-500.5 219.729,-507.5"/>
</g>
<!-- Node9 -->
<g id="node9" class="node"><title>Node9</title>
<g id="a_node9"><a xlink:href="SAT__VecMat_8cpp.html#a66b3b116958d5c2f1c528faa04c71674" target="_top" xlink:title="R_y">
<polygon fill="white" stroke="black" points="334.5,-513.5 334.5,-532.5 369.5,-532.5 369.5,-513.5 334.5,-513.5"/>
<text text-anchor="middle" x="352" y="-520.5" font-family="Helvetica,sans-Serif" font-size="10.00">R_y</text>
</a>
</g>
</g>
<!-- Node8&#45;&gt;Node9 -->
<g id="edge8" class="edge"><title>Node8&#45;&gt;Node9</title>
<path fill="none" stroke="midnightblue" d="M292.131,-510.433C302.611,-512.67 314.282,-515.161 324.45,-517.332"/>
<polygon fill="midnightblue" stroke="midnightblue" points="323.88,-520.789 334.39,-519.454 325.341,-513.943 323.88,-520.789"/>
</g>
<!-- Node10 -->
<g id="node10" class="node"><title>Node10</title>
<g id="a_node10"><a xlink:href="SAT__VecMat_8cpp.html#a94c9c4e1f3afc6636dda6572f72ef4c2" target="_top" xlink:title="R_z">
<polygon fill="white" stroke="black" points="334.5,-475.5 334.5,-494.5 369.5,-494.5 369.5,-475.5 334.5,-475.5"/>
<text text-anchor="middle" x="352" y="-482.5" font-family="Helvetica,sans-Serif" font-size="10.00">R_z</text>
</a>
</g>
</g>
<!-- Node8&#45;&gt;Node10 -->
<g id="edge9" class="edge"><title>Node8&#45;&gt;Node10</title>
<path fill="none" stroke="midnightblue" d="M292.131,-497.567C302.611,-495.33 314.282,-492.839 324.45,-490.668"/>
<polygon fill="midnightblue" stroke="midnightblue" points="325.341,-494.057 334.39,-488.546 323.88,-487.211 325.341,-494.057"/>
</g>
<!-- Node13&#45;&gt;Node14 -->
<g id="edge13" class="edge"><title>Node13&#45;&gt;Node14</title>
<path fill="none" stroke="midnightblue" d="M151.678,-232.698C162.647,-229.406 176.395,-224.714 188,-219 206.353,-209.963 225.553,-196.959 239.506,-186.765"/>
<polygon fill="midnightblue" stroke="midnightblue" points="241.929,-189.324 247.856,-180.542 237.746,-183.711 241.929,-189.324"/>
</g>
<!-- Node19 -->
<g id="node19" class="node"><title>Node19</title>
<g id="a_node19"><a xlink:href="classVector.html#a3c8f59182463d6da833e7856f06e6171" target="_top" xlink:title="Vector::size">
<polygon fill="white" stroke="black" points="226.5,-380.5 226.5,-399.5 295.5,-399.5 295.5,-380.5 226.5,-380.5"/>
<text text-anchor="middle" x="261" y="-387.5" font-family="Helvetica,sans-Serif" font-size="10.00">Vector::size</text>
</a>
</g>
</g>
<!-- Node18&#45;&gt;Node19 -->
<g id="edge18" class="edge"><title>Node18&#45;&gt;Node19</title>
<path fill="none" stroke="midnightblue" d="M152.282,-390C169.443,-390 194.638,-390 216.346,-390"/>
<polygon fill="midnightblue" stroke="midnightblue" points="216.353,-393.5 226.353,-390 216.352,-386.5 216.353,-393.5"/>
</g>
<!-- Node22 -->
<g id="node22" class="node"><title>Node22</title>
<g id="a_node22"><a xlink:href="classMatrix.html#aec0c767dcd6da0724ccb6df4ec0f2a82" target="_top" xlink:title="Matrix::size1">
<polygon fill="white" stroke="black" points="224.5,-66.5 224.5,-85.5 297.5,-85.5 297.5,-66.5 224.5,-66.5"/>
<text text-anchor="middle" x="261" y="-73.5" font-family="Helvetica,sans-Serif" font-size="10.00">Matrix::size1</text>
</a>
</g>
</g>
<!-- Node21&#45;&gt;Node22 -->
<g id="edge21" class="edge"><title>Node21&#45;&gt;Node22</title>
<path fill="none" stroke="midnightblue" d="M159.146,-83.8793C175.121,-82.6312 195.743,-81.0201 214.173,-79.5802"/>
<polygon fill="midnightblue" stroke="midnightblue" points="214.446,-83.0697 224.143,-78.8013 213.9,-76.091 214.446,-83.0697"/>
</g>
<!-- Node23 -->
<g id="node23" class="node"><title>Node23</title>
<g id="a_node23"><a xlink:href="classMatrix.html#a306220f01f6859a16e738590214d008d" target="_top" xlink:title="Matrix::size2">
<polygon fill="white" stroke="black" points="224.5,-104.5 224.5,-123.5 297.5,-123.5 297.5,-104.5 224.5,-104.5"/>
<text text-anchor="middle" x="261" y="-111.5" font-family="Helvetica,sans-Serif" font-size="10.00">Matrix::size2</text>
</a>
</g>
</g>
<!-- Node21&#45;&gt;Node23 -->
<g id="edge22" class="edge"><title>Node21&#45;&gt;Node23</title>
<path fill="none" stroke="midnightblue" d="M159.146,-91.9381C175.121,-95.4326 195.743,-99.9437 214.173,-103.975"/>
<polygon fill="midnightblue" stroke="midnightblue" points="213.626,-107.438 224.143,-106.156 215.122,-100.6 213.626,-107.438"/>
</g>
</g>
</svg>
