<?xml version="1.0" encoding="UTF-8" standalone="no"?>
<!DOCTYPE svg PUBLIC "-//W3C//DTD SVG 1.1//EN"
 "http://www.w3.org/Graphics/SVG/1.1/DTD/svg11.dtd">
<!-- Generated by graphviz version 2.30.1 (20180420.1509)
 -->
<!-- Title: GNU_iomanip.h Pages: 1 -->
<svg width="469pt" height="84pt"
 viewBox="0.00 0.00 469.00 84.00" xmlns="http://www.w3.org/2000/svg" xmlns:xlink="http://www.w3.org/1999/xlink">
<g id="graph0" class="graph" transform="scale(1 1) rotate(0) translate(4 80)">
<title>GNU_iomanip.h</title>
<polygon fill="white" stroke="white" points="-4,5 -4,-80 466,-80 466,5 -4,5"/>
<!-- Node1 -->
<g id="node1" class="node"><title>Node1</title>
<polygon fill="#bfbfbf" stroke="black" points="169,-56.5 169,-75.5 255,-75.5 255,-56.5 169,-56.5"/>
<text text-anchor="middle" x="212" y="-63.5" font-family="Helvetica,sans-Serif" font-size="10.00">GNU_iomanip.h</text>
</g>
<!-- Node2 -->
<g id="node2" class="node"><title>Node2</title>
<g id="a_node2"><a xlink:href="GEODA_8cpp.html" target="_top" xlink:title="GEODA.cpp">
<polygon fill="white" stroke="black" points="-0.5,-0.5 -0.5,-19.5 70.5,-19.5 70.5,-0.5 -0.5,-0.5"/>
<text text-anchor="middle" x="35" y="-7.5" font-family="Helvetica,sans-Serif" font-size="10.00">GEODA.cpp</text>
</a>
</g>
</g>
<!-- Node1&#45;&gt;Node2 -->
<g id="edge1" class="edge"><title>Node1&#45;&gt;Node2</title>
<path fill="none" stroke="midnightblue" d="M174.097,-53.4363C140.725,-43.2551 92.8987,-28.664 62.915,-19.5164"/>
<polygon fill="midnightblue" stroke="midnightblue" points="173.368,-56.8731 183.954,-56.4435 175.41,-50.1777 173.368,-56.8731"/>
</g>
<!-- Node3 -->
<g id="node3" class="node"><title>Node3</title>
<g id="a_node3"><a xlink:href="RTOD_8cpp.html" target="_top" xlink:title="RTOD.cpp">
<polygon fill="white" stroke="black" points="89,-0.5 89,-19.5 153,-19.5 153,-0.5 89,-0.5"/>
<text text-anchor="middle" x="121" y="-7.5" font-family="Helvetica,sans-Serif" font-size="10.00">RTOD.cpp</text>
</a>
</g>
</g>
<!-- Node1&#45;&gt;Node3 -->
<g id="edge2" class="edge"><title>Node1&#45;&gt;Node3</title>
<path fill="none" stroke="midnightblue" d="M188.706,-51.1774C171.961,-41.2407 149.9,-28.1492 135.584,-19.6545"/>
<polygon fill="midnightblue" stroke="midnightblue" points="186.993,-54.2307 197.379,-56.324 190.566,-48.2108 186.993,-54.2307"/>
</g>
<!-- Node4 -->
<g id="node4" class="node"><title>Node4</title>
<g id="a_node4"><a xlink:href="SAT__Time_8cpp.html" target="_top" xlink:title="SAT_Time.cpp">
<polygon fill="white" stroke="black" points="171,-0.5 171,-19.5 253,-19.5 253,-0.5 171,-0.5"/>
<text text-anchor="middle" x="212" y="-7.5" font-family="Helvetica,sans-Serif" font-size="10.00">SAT_Time.cpp</text>
</a>
</g>
</g>
<!-- Node1&#45;&gt;Node4 -->
<g id="edge3" class="edge"><title>Node1&#45;&gt;Node4</title>
<path fill="none" stroke="midnightblue" d="M212,-45.8045C212,-36.9102 212,-26.7798 212,-19.7511"/>
<polygon fill="midnightblue" stroke="midnightblue" points="208.5,-46.083 212,-56.083 215.5,-46.083 208.5,-46.083"/>
</g>
<!-- Node5 -->
<g id="node5" class="node"><title>Node5</title>
<g id="a_node5"><a xlink:href="SAT__VecMat_8cpp.html" target="_top" xlink:title="SAT_VecMat.cpp">
<polygon fill="white" stroke="black" points="271,-0.5 271,-19.5 365,-19.5 365,-0.5 271,-0.5"/>
<text text-anchor="middle" x="318" y="-7.5" font-family="Helvetica,sans-Serif" font-size="10.00">SAT_VecMat.cpp</text>
</a>
</g>
</g>
<!-- Node1&#45;&gt;Node5 -->
<g id="edge4" class="edge"><title>Node1&#45;&gt;Node5</title>
<path fill="none" stroke="midnightblue" d="M238.056,-51.7261C257.684,-41.7271 284.028,-28.3065 301.012,-19.6545"/>
<polygon fill="midnightblue" stroke="midnightblue" points="236.352,-48.666 229.031,-56.324 239.53,-54.9033 236.352,-48.666"/>
</g>
<!-- Node6 -->
<g id="node6" class="node"><title>Node6</title>
<g id="a_node6"><a xlink:href="TDRSOD_8cpp.html" target="_top" xlink:title="TDRSOD.cpp">
<polygon fill="white" stroke="black" points="383,-0.5 383,-19.5 461,-19.5 461,-0.5 383,-0.5"/>
<text text-anchor="middle" x="422" y="-7.5" font-family="Helvetica,sans-Serif" font-size="10.00">TDRSOD.cpp</text>
</a>
</g>
</g>
<!-- Node1&#45;&gt;Node6 -->
<g id="edge5" class="edge"><title>Node1&#45;&gt;Node6</title>
<path fill="none" stroke="midnightblue" d="M255.19,-53.8941C294.847,-43.6966 352.77,-28.802 388.881,-19.5164"/>
<polygon fill="midnightblue" stroke="midnightblue" points="254.088,-50.5633 245.275,-56.4435 255.832,-57.3428 254.088,-50.5633"/>
</g>
</g>
</svg>
