<?xml version="1.0" encoding="UTF-8" standalone="no"?>
<!DOCTYPE svg PUBLIC "-//W3C//DTD SVG 1.1//EN"
 "http://www.w3.org/Graphics/SVG/1.1/DTD/svg11.dtd">
<!-- Generated by graphviz version 2.30.1 (20180420.1509)
 -->
<!-- Title: anonymous_namespace{SAT_Force::cpp}::Frac Pages: 1 -->
<svg width="898pt" height="487pt"
 viewBox="0.00 0.00 898.00 486.90" xmlns="http://www.w3.org/2000/svg" xmlns:xlink="http://www.w3.org/1999/xlink">
<g id="graph0" class="graph" transform="scale(1 1) rotate(0) translate(4 482.901)">
<title>anonymous_namespace{SAT_Force::cpp}::Frac</title>
<polygon fill="white" stroke="white" points="-4,5 -4,-482.901 895,-482.901 895,5 -4,5"/>
<!-- Node1 -->
<g id="node1" class="node"><title>Node1</title>
<polygon fill="#bfbfbf" stroke="black" points="0,-213.506 0,-243.506 122,-243.506 122,-213.506 0,-213.506"/>
<text text-anchor="start" x="8" y="-231.506" font-family="Helvetica,sans-Serif" font-size="10.00">anonymous_namespace</text>
<text text-anchor="middle" x="61" y="-220.506" font-family="Helvetica,sans-Serif" font-size="10.00">{SAT_Force::cpp}::Frac</text>
</g>
<!-- Node2 -->
<g id="node2" class="node"><title>Node2</title>
<g id="a_node2"><a xlink:href="SAT__Force_8h.html#a2de08a6e83f5eff12db59b0616ad7f2c" target="_top" xlink:title="Sun">
<polygon fill="white" stroke="black" points="452,-412.006 452,-431.006 486,-431.006 486,-412.006 452,-412.006"/>
<text text-anchor="middle" x="469" y="-419.006" font-family="Helvetica,sans-Serif" font-size="10.00">Sun</text>
</a>
</g>
</g>
<!-- Node1&#45;&gt;Node2 -->
<g id="edge1" class="edge"><title>Node1&#45;&gt;Node2</title>
<path fill="none" stroke="midnightblue" d="M70.4806,-253.747C83.4664,-288.156 111.754,-348.886 158,-378.506 254.771,-440.486 403.237,-429.404 451.928,-423.678"/>
<polygon fill="midnightblue" stroke="midnightblue" points="73.6375,-252.185 66.9388,-243.977 67.0565,-254.571 73.6375,-252.185"/>
</g>
<!-- Node7 -->
<g id="node7" class="node"><title>Node7</title>
<g id="a_node7"><a xlink:href="SAT__Force_8h.html#a787c7d05ba9e7f29d236caf719ff7900" target="_top" xlink:title="Moon">
<polygon fill="white" stroke="black" points="660.5,-355.006 660.5,-374.006 701.5,-374.006 701.5,-355.006 660.5,-355.006"/>
<text text-anchor="middle" x="681" y="-362.006" font-family="Helvetica,sans-Serif" font-size="10.00">Moon</text>
</a>
</g>
</g>
<!-- Node1&#45;&gt;Node7 -->
<g id="edge8" class="edge"><title>Node1&#45;&gt;Node7</title>
<path fill="none" stroke="midnightblue" d="M88.567,-249.817C139.045,-288.087 253.655,-364.506 364,-364.506 364,-364.506 364,-364.506 470,-364.506 540,-364.506 623.125,-364.506 660.312,-364.506"/>
<polygon fill="midnightblue" stroke="midnightblue" points="90.5229,-246.905 80.4635,-243.58 86.2535,-252.453 90.5229,-246.905"/>
</g>
<!-- Node8 -->
<g id="node8" class="node"><title>Node8</title>
<g id="a_node8"><a xlink:href="namespaceanonymous__namespace_02SAT__Kepler_8cpp_03.html#ae5d42531d691a174363f296c22d23217" target="_top" xlink:title="anonymous_namespace\l\{SAT_Kepler::cpp\}::Modulo">
<polygon fill="white" stroke="black" points="161,-235.506 161,-265.506 295,-265.506 295,-235.506 161,-235.506"/>
<text text-anchor="start" x="169" y="-253.506" font-family="Helvetica,sans-Serif" font-size="10.00">anonymous_namespace</text>
<text text-anchor="middle" x="228" y="-242.506" font-family="Helvetica,sans-Serif" font-size="10.00">{SAT_Kepler::cpp}::Modulo</text>
</a>
</g>
</g>
<!-- Node1&#45;&gt;Node8 -->
<g id="edge11" class="edge"><title>Node1&#45;&gt;Node8</title>
<path fill="none" stroke="midnightblue" d="M132.231,-237.87C141.73,-239.137 151.451,-240.433 160.875,-241.689"/>
<polygon fill="midnightblue" stroke="midnightblue" points="132.41,-234.363 122.036,-236.511 131.485,-241.302 132.41,-234.363"/>
</g>
<!-- Node22 -->
<g id="node22" class="node"><title>Node22</title>
<g id="a_node22"><a xlink:href="namespaceanonymous__namespace_02SAT__RefSys_8cpp_03.html#a8369415c3f0725f627fbb5db1676becc" target="_top" xlink:title="anonymous_namespace\l\{SAT_RefSys::cpp\}::Modulo">
<polygon fill="white" stroke="black" points="158,-147.506 158,-177.506 298,-177.506 298,-147.506 158,-147.506"/>
<text text-anchor="start" x="166" y="-165.506" font-family="Helvetica,sans-Serif" font-size="10.00">anonymous_namespace</text>
<text text-anchor="middle" x="228" y="-154.506" font-family="Helvetica,sans-Serif" font-size="10.00">{SAT_RefSys::cpp}::Modulo</text>
</a>
</g>
</g>
<!-- Node1&#45;&gt;Node22 -->
<g id="edge33" class="edge"><title>Node1&#45;&gt;Node22</title>
<path fill="none" stroke="midnightblue" d="M109.293,-209.589C134.69,-199.43 165.566,-187.08 189.322,-177.577"/>
<polygon fill="midnightblue" stroke="midnightblue" points="107.839,-206.4 99.8543,-213.364 110.439,-212.9 107.839,-206.4"/>
</g>
<!-- Node23 -->
<g id="node23" class="node"><title>Node23</title>
<g id="a_node23"><a xlink:href="SAT__RefSys_8cpp.html#a04f9381158624e774f728842393c560d" target="_top" xlink:title="NutMatrixSimple">
<polygon fill="white" stroke="black" points="183.5,-109.006 183.5,-128.006 272.5,-128.006 272.5,-109.006 183.5,-109.006"/>
<text text-anchor="middle" x="228" y="-116.006" font-family="Helvetica,sans-Serif" font-size="10.00">NutMatrixSimple</text>
</a>
</g>
</g>
<!-- Node1&#45;&gt;Node23 -->
<g id="edge34" class="edge"><title>Node1&#45;&gt;Node23</title>
<path fill="none" stroke="midnightblue" d="M80.4324,-205.507C98.2066,-184.811 126.924,-155.039 158,-137.506 165.791,-133.11 174.658,-129.684 183.379,-127.03"/>
<polygon fill="midnightblue" stroke="midnightblue" points="77.7059,-203.311 73.9527,-213.218 83.0653,-207.814 77.7059,-203.311"/>
</g>
<!-- Node24 -->
<g id="node24" class="node"><title>Node24</title>
<g id="a_node24"><a xlink:href="SAT__RefSys_8h.html#a2a4cc14aa92a1449e08540255af19f8e" target="_top" xlink:title="GMST">
<polygon fill="white" stroke="black" points="342.5,-51.0058 342.5,-70.0058 387.5,-70.0058 387.5,-51.0058 342.5,-51.0058"/>
<text text-anchor="middle" x="365" y="-58.0058" font-family="Helvetica,sans-Serif" font-size="10.00">GMST</text>
</a>
</g>
</g>
<!-- Node1&#45;&gt;Node24 -->
<g id="edge35" class="edge"><title>Node1&#45;&gt;Node24</title>
<path fill="none" stroke="midnightblue" d="M132.412,-222.827C192.166,-216.789 272.19,-205.444 298,-186.506 325.888,-166.043 317.945,-148.144 334,-117.506 342.72,-100.865 352.915,-81.5175 358.894,-70.1824"/>
<polygon fill="midnightblue" stroke="midnightblue" points="131.87,-219.363 122.26,-223.822 132.553,-226.33 131.87,-219.363"/>
</g>
<!-- Node3 -->
<g id="node3" class="node"><title>Node3</title>
<g id="a_node3"><a xlink:href="SAT__Force_8h.html#a6ad9e17c2e7636b8cd8045d461940681" target="_top" xlink:title="Density_HP">
<polygon fill="white" stroke="black" points="542,-431.006 542,-450.006 612,-450.006 612,-431.006 542,-431.006"/>
<text text-anchor="middle" x="577" y="-438.006" font-family="Helvetica,sans-Serif" font-size="10.00">Density_HP</text>
</a>
</g>
</g>
<!-- Node2&#45;&gt;Node3 -->
<g id="edge2" class="edge"><title>Node2&#45;&gt;Node3</title>
<path fill="none" stroke="midnightblue" d="M496.309,-426.222C510.034,-428.682 526.99,-431.721 541.729,-434.363"/>
<polygon fill="midnightblue" stroke="midnightblue" points="496.56,-422.711 486.099,-424.392 495.325,-429.601 496.56,-422.711"/>
</g>
<!-- Node5 -->
<g id="node5" class="node"><title>Node5</title>
<g id="a_node5"><a xlink:href="SAT__Force_8h.html#a750f7a2f89dc275831e706abee33310f" target="_top" xlink:title="AccelMain">
<polygon fill="white" stroke="black" points="752,-336.006 752,-355.006 814,-355.006 814,-336.006 752,-336.006"/>
<text text-anchor="middle" x="783" y="-343.006" font-family="Helvetica,sans-Serif" font-size="10.00">AccelMain</text>
</a>
</g>
</g>
<!-- Node2&#45;&gt;Node5 -->
<g id="edge6" class="edge"><title>Node2&#45;&gt;Node5</title>
<path fill="none" stroke="midnightblue" d="M496.374,-420.448C541.931,-417.957 637.804,-409.779 714,-383.506 719.402,-381.643 747.306,-365.679 765.649,-355.044"/>
<polygon fill="midnightblue" stroke="midnightblue" points="495.984,-416.963 486.17,-420.955 496.332,-423.954 495.984,-416.963"/>
</g>
<!-- Node6 -->
<g id="node6" class="node"><title>Node6</title>
<g id="a_node6"><a xlink:href="TDRSOD_8cpp.html#a1d3803a2ec3760bf63edefae54e3ac5b" target="_top" xlink:title="Accel">
<polygon fill="white" stroke="black" points="762.5,-374.006 762.5,-393.006 803.5,-393.006 803.5,-374.006 762.5,-374.006"/>
<text text-anchor="middle" x="783" y="-381.006" font-family="Helvetica,sans-Serif" font-size="10.00">Accel</text>
</a>
</g>
</g>
<!-- Node2&#45;&gt;Node6 -->
<g id="edge7" class="edge"><title>Node2&#45;&gt;Node6</title>
<path fill="none" stroke="midnightblue" d="M491.939,-436.691C505.648,-445.236 524.053,-455.06 542,-459.506 616.202,-477.886 644.213,-490.708 714,-459.506 744.871,-445.703 767.529,-410.191 777.045,-393.047"/>
<polygon fill="midnightblue" stroke="midnightblue" points="493.555,-433.567 483.261,-431.061 489.745,-439.44 493.555,-433.567"/>
</g>
<!-- Node4 -->
<g id="node4" class="node"><title>Node4</title>
<g id="a_node4"><a xlink:href="SAT__Force_8h.html#ae20f51bcb69607d4a2268329837260f2" target="_top" xlink:title="AccelDrag">
<polygon fill="white" stroke="black" points="650,-431.006 650,-450.006 712,-450.006 712,-431.006 650,-431.006"/>
<text text-anchor="middle" x="681" y="-438.006" font-family="Helvetica,sans-Serif" font-size="10.00">AccelDrag</text>
</a>
</g>
</g>
<!-- Node3&#45;&gt;Node4 -->
<g id="edge3" class="edge"><title>Node3&#45;&gt;Node4</title>
<path fill="none" stroke="midnightblue" d="M622.473,-440.506C631.696,-440.506 641.208,-440.506 649.777,-440.506"/>
<polygon fill="midnightblue" stroke="midnightblue" points="622.248,-437.006 612.248,-440.506 622.248,-444.006 622.248,-437.006"/>
</g>
<!-- Node4&#45;&gt;Node5 -->
<g id="edge4" class="edge"><title>Node4&#45;&gt;Node5</title>
<path fill="none" stroke="midnightblue" d="M704.809,-424.846C708.04,-422.223 711.208,-419.406 714,-416.506 733.495,-396.256 729.443,-383.677 750,-364.506 753.78,-360.981 758.323,-357.803 762.782,-355.1"/>
<polygon fill="midnightblue" stroke="midnightblue" points="702.676,-422.071 696.826,-430.904 706.908,-427.647 702.676,-422.071"/>
</g>
<!-- Node4&#45;&gt;Node6 -->
<g id="edge5" class="edge"><title>Node4&#45;&gt;Node6</title>
<path fill="none" stroke="midnightblue" d="M707.852,-425.77C725.956,-415.451 749.617,-401.964 765.287,-393.032"/>
<polygon fill="midnightblue" stroke="midnightblue" points="705.918,-422.844 698.964,-430.837 709.385,-428.925 705.918,-422.844"/>
</g>
<!-- Node7&#45;&gt;Node5 -->
<g id="edge9" class="edge"><title>Node7&#45;&gt;Node5</title>
<path fill="none" stroke="midnightblue" d="M711.758,-358.852C724.346,-356.46 738.994,-353.677 751.647,-351.273"/>
<polygon fill="midnightblue" stroke="midnightblue" points="710.928,-355.447 701.757,-360.752 712.234,-362.324 710.928,-355.447"/>
</g>
<!-- Node7&#45;&gt;Node6 -->
<g id="edge10" class="edge"><title>Node7&#45;&gt;Node6</title>
<path fill="none" stroke="midnightblue" d="M711.885,-370.184C728.187,-373.281 747.913,-377.029 762.284,-379.76"/>
<polygon fill="midnightblue" stroke="midnightblue" points="712.234,-366.688 701.757,-368.26 710.928,-373.565 712.234,-366.688"/>
</g>
<!-- Node9 -->
<g id="node9" class="node"><title>Node9</title>
<g id="a_node9"><a xlink:href="SAT__Kepler_8h.html#a2ad531000471d74f459467a747a79aff" target="_top" xlink:title="EccAnom">
<polygon fill="white" stroke="black" points="335.5,-203.006 335.5,-222.006 394.5,-222.006 394.5,-203.006 335.5,-203.006"/>
<text text-anchor="middle" x="365" y="-210.006" font-family="Helvetica,sans-Serif" font-size="10.00">EccAnom</text>
</a>
</g>
</g>
<!-- Node8&#45;&gt;Node9 -->
<g id="edge12" class="edge"><title>Node8&#45;&gt;Node9</title>
<path fill="none" stroke="midnightblue" d="M292.235,-232.706C307.381,-228.443 322.814,-224.099 335.468,-220.537"/>
<polygon fill="midnightblue" stroke="midnightblue" points="291.033,-229.409 282.356,-235.487 292.93,-236.147 291.033,-229.409"/>
</g>
<!-- Node14 -->
<g id="node14" class="node"><title>Node14</title>
<g id="a_node14"><a xlink:href="SAT__Kepler_8h.html#a1d7fdd2727e376b6aa5a54877ca6a205" target="_top" xlink:title="Elements">
<polygon fill="white" stroke="black" points="336,-127.006 336,-146.006 394,-146.006 394,-127.006 336,-127.006"/>
<text text-anchor="middle" x="365" y="-134.006" font-family="Helvetica,sans-Serif" font-size="10.00">Elements</text>
</a>
</g>
</g>
<!-- Node8&#45;&gt;Node14 -->
<g id="edge18" class="edge"><title>Node8&#45;&gt;Node14</title>
<path fill="none" stroke="midnightblue" d="M281.837,-230.845C287.531,-227.774 293.047,-224.33 298,-220.506 325.892,-198.971 348.738,-163.131 358.663,-146.083"/>
<polygon fill="midnightblue" stroke="midnightblue" points="280.175,-227.763 272.797,-235.366 283.306,-234.023 280.175,-227.763"/>
</g>
<!-- Node15 -->
<g id="node15" class="node"><title>Node15</title>
<g id="a_node15"><a xlink:href="SAT__RefSys_8cpp.html#a2a9df90e79156b20bf667ae56342d756" target="_top" xlink:title="NutAngles">
<polygon fill="white" stroke="black" points="334,-279.006 334,-298.006 396,-298.006 396,-279.006 334,-279.006"/>
<text text-anchor="middle" x="365" y="-286.006" font-family="Helvetica,sans-Serif" font-size="10.00">NutAngles</text>
</a>
</g>
</g>
<!-- Node8&#45;&gt;Node15 -->
<g id="edge20" class="edge"><title>Node8&#45;&gt;Node15</title>
<path fill="none" stroke="midnightblue" d="M292.33,-268.332C306.845,-272.418 321.617,-276.576 333.95,-280.047"/>
<polygon fill="midnightblue" stroke="midnightblue" points="292.93,-264.865 282.356,-265.524 291.033,-271.603 292.93,-264.865"/>
</g>
<!-- Node20 -->
<g id="node20" class="node"><title>Node20</title>
<g id="a_node20"><a xlink:href="SAT__RefSys_8h.html#a120de1171391bce3ca4111e46331a93c" target="_top" xlink:title="GAST">
<polygon fill="white" stroke="black" points="555,-260.006 555,-279.006 599,-279.006 599,-260.006 555,-260.006"/>
<text text-anchor="middle" x="577" y="-267.006" font-family="Helvetica,sans-Serif" font-size="10.00">GAST</text>
</a>
</g>
</g>
<!-- Node8&#45;&gt;Node20 -->
<g id="edge32" class="edge"><title>Node8&#45;&gt;Node20</title>
<path fill="none" stroke="midnightblue" d="M305.126,-254.674C385.207,-259.059 506.217,-265.685 554.756,-268.343"/>
<polygon fill="midnightblue" stroke="midnightblue" points="305.261,-251.176 295.085,-254.124 304.878,-258.166 305.261,-251.176"/>
</g>
<!-- Node10 -->
<g id="node10" class="node"><title>Node10</title>
<g id="a_node10"><a xlink:href="SAT__Kepler_8h.html#ad89a224ad24d23f6059beb84e1c0817f" target="_top" xlink:title="State">
<polygon fill="white" stroke="black" points="449,-203.006 449,-222.006 489,-222.006 489,-203.006 449,-203.006"/>
<text text-anchor="middle" x="469" y="-210.006" font-family="Helvetica,sans-Serif" font-size="10.00">State</text>
</a>
</g>
</g>
<!-- Node9&#45;&gt;Node10 -->
<g id="edge13" class="edge"><title>Node9&#45;&gt;Node10</title>
<path fill="none" stroke="midnightblue" d="M404.81,-212.506C419.886,-212.506 436.471,-212.506 448.866,-212.506"/>
<polygon fill="midnightblue" stroke="midnightblue" points="404.684,-209.006 394.684,-212.506 404.684,-216.006 404.684,-209.006"/>
</g>
<!-- Node13 -->
<g id="node13" class="node"><title>Node13</title>
<g id="a_node13"><a xlink:href="SAT__Kepler_8h.html#ad41abe3ee1647b2de98425457c6fdce2" target="_top" xlink:title="StatePartials">
<polygon fill="white" stroke="black" points="432.5,-127.006 432.5,-146.006 505.5,-146.006 505.5,-127.006 432.5,-127.006"/>
<text text-anchor="middle" x="469" y="-134.006" font-family="Helvetica,sans-Serif" font-size="10.00">StatePartials</text>
</a>
</g>
</g>
<!-- Node9&#45;&gt;Node13 -->
<g id="edge16" class="edge"><title>Node9&#45;&gt;Node13</title>
<path fill="none" stroke="midnightblue" d="M387.026,-196.839C407.537,-181.557 438.074,-158.804 455.187,-146.053"/>
<polygon fill="midnightblue" stroke="midnightblue" points="384.846,-194.099 378.918,-202.88 389.028,-199.712 384.846,-194.099"/>
</g>
<!-- Node11 -->
<g id="node11" class="node"><title>Node11</title>
<g id="a_node11"><a xlink:href="SAT__Kepler_8h.html#aeb2175e4cdc39ea590f44fc2949ea8d3" target="_top" xlink:title="TwoBody">
<polygon fill="white" stroke="black" points="548,-108.006 548,-127.006 606,-127.006 606,-108.006 548,-108.006"/>
<text text-anchor="middle" x="577" y="-115.006" font-family="Helvetica,sans-Serif" font-size="10.00">TwoBody</text>
</a>
</g>
</g>
<!-- Node10&#45;&gt;Node11 -->
<g id="edge14" class="edge"><title>Node10&#45;&gt;Node11</title>
<path fill="none" stroke="midnightblue" d="M488.417,-196C510.633,-176.09 547.236,-143.285 565.273,-127.12"/>
<polygon fill="midnightblue" stroke="midnightblue" points="486.056,-193.416 480.945,-202.697 490.727,-198.629 486.056,-193.416"/>
</g>
<!-- Node12 -->
<g id="node12" class="node"><title>Node12</title>
<g id="a_node12"><a xlink:href="RTOD_8cpp.html#a0ddf1224851353fc92bfbff6f499fa97" target="_top" xlink:title="main">
<polygon fill="white" stroke="black" points="662,-51.0058 662,-70.0058 700,-70.0058 700,-51.0058 662,-51.0058"/>
<text text-anchor="middle" x="681" y="-58.0058" font-family="Helvetica,sans-Serif" font-size="10.00">main</text>
</a>
</g>
</g>
<!-- Node11&#45;&gt;Node12 -->
<g id="edge15" class="edge"><title>Node11&#45;&gt;Node12</title>
<path fill="none" stroke="midnightblue" d="M604.115,-102.912C622.613,-92.5749 646.896,-79.0049 662.953,-70.0323"/>
<polygon fill="midnightblue" stroke="midnightblue" points="602.325,-99.903 595.303,-107.837 605.74,-106.014 602.325,-99.903"/>
</g>
<!-- Node13&#45;&gt;Node11 -->
<g id="edge17" class="edge"><title>Node13&#45;&gt;Node11</title>
<path fill="none" stroke="midnightblue" d="M515.466,-128.356C526.413,-126.394 537.798,-124.353 547.701,-122.578"/>
<polygon fill="midnightblue" stroke="midnightblue" points="514.817,-124.917 505.591,-130.126 516.052,-131.807 514.817,-124.917"/>
</g>
<!-- Node14&#45;&gt;Node11 -->
<g id="edge19" class="edge"><title>Node14&#45;&gt;Node11</title>
<path fill="none" stroke="midnightblue" d="M402.216,-124.109C411.786,-121.379 422.186,-118.89 432,-117.506 471.979,-111.866 518.825,-113.342 547.964,-115.2"/>
<polygon fill="midnightblue" stroke="midnightblue" points="401.169,-120.769 392.603,-127.005 403.188,-127.472 401.169,-120.769"/>
</g>
<!-- Node16 -->
<g id="node16" class="node"><title>Node16</title>
<g id="a_node16"><a xlink:href="SAT__RefSys_8h.html#a35e586a324741da54bc1e407a5586378" target="_top" xlink:title="NutMatrix">
<polygon fill="white" stroke="black" points="651.5,-317.006 651.5,-336.006 710.5,-336.006 710.5,-317.006 651.5,-317.006"/>
<text text-anchor="middle" x="681" y="-324.006" font-family="Helvetica,sans-Serif" font-size="10.00">NutMatrix</text>
</a>
</g>
</g>
<!-- Node15&#45;&gt;Node16 -->
<g id="edge21" class="edge"><title>Node15&#45;&gt;Node16</title>
<path fill="none" stroke="midnightblue" d="M404.167,-300.921C413.209,-303.463 422.877,-305.861 432,-307.506 510.619,-321.681 605.122,-325.291 651.495,-326.203"/>
<polygon fill="midnightblue" stroke="midnightblue" points="404.869,-297.479 394.288,-298.022 402.898,-304.196 404.869,-297.479"/>
</g>
<!-- Node19 -->
<g id="node19" class="node"><title>Node19</title>
<g id="a_node19"><a xlink:href="SAT__RefSys_8h.html#a1178917cf376ea4f15cea33c59028635" target="_top" xlink:title="EqnEquinox">
<polygon fill="white" stroke="black" points="434.5,-279.006 434.5,-298.006 503.5,-298.006 503.5,-279.006 434.5,-279.006"/>
<text text-anchor="middle" x="469" y="-286.006" font-family="Helvetica,sans-Serif" font-size="10.00">EqnEquinox</text>
</a>
</g>
</g>
<!-- Node15&#45;&gt;Node19 -->
<g id="edge26" class="edge"><title>Node15&#45;&gt;Node19</title>
<path fill="none" stroke="midnightblue" d="M406.235,-288.506C415.504,-288.506 425.269,-288.506 434.23,-288.506"/>
<polygon fill="midnightblue" stroke="midnightblue" points="406.052,-285.006 396.052,-288.506 406.052,-292.006 406.052,-285.006"/>
</g>
<!-- Node16&#45;&gt;Node5 -->
<g id="edge22" class="edge"><title>Node16&#45;&gt;Node5</title>
<path fill="none" stroke="midnightblue" d="M720.721,-333.863C731.084,-335.832 742.128,-337.93 751.946,-339.796"/>
<polygon fill="midnightblue" stroke="midnightblue" points="721.134,-330.379 710.656,-331.95 719.827,-337.256 721.134,-330.379"/>
</g>
<!-- Node16&#45;&gt;Node6 -->
<g id="edge23" class="edge"><title>Node16&#45;&gt;Node6</title>
<path fill="none" stroke="midnightblue" d="M707.852,-341.242C725.956,-351.561 749.617,-365.048 765.287,-373.979"/>
<polygon fill="midnightblue" stroke="midnightblue" points="709.385,-338.086 698.964,-336.175 705.918,-344.168 709.385,-338.086"/>
</g>
<!-- Node17 -->
<g id="node17" class="node"><title>Node17</title>
<g id="a_node17"><a xlink:href="TDRSOD_8cpp.html#a466ab098330aeb2aa659365279071640" target="_top" xlink:title="Range_4W">
<polygon fill="white" stroke="black" points="750.5,-279.006 750.5,-298.006 815.5,-298.006 815.5,-279.006 750.5,-279.006"/>
<text text-anchor="middle" x="783" y="-286.006" font-family="Helvetica,sans-Serif" font-size="10.00">Range_4W</text>
</a>
</g>
</g>
<!-- Node16&#45;&gt;Node17 -->
<g id="edge24" class="edge"><title>Node16&#45;&gt;Node17</title>
<path fill="none" stroke="midnightblue" d="M716.907,-313.241C730.035,-308.253 744.695,-302.682 756.774,-298.092"/>
<polygon fill="midnightblue" stroke="midnightblue" points="715.339,-310.093 707.234,-316.917 717.825,-316.636 715.339,-310.093"/>
</g>
<!-- Node18 -->
<g id="node18" class="node"><title>Node18</title>
<g id="a_node18"><a xlink:href="TDRSOD_8cpp.html#a0ddf1224851353fc92bfbff6f499fa97" target="_top" xlink:title="main">
<polygon fill="white" stroke="black" points="852,-203.006 852,-222.006 890,-222.006 890,-203.006 852,-203.006"/>
<text text-anchor="middle" x="871" y="-210.006" font-family="Helvetica,sans-Serif" font-size="10.00">main</text>
</a>
</g>
</g>
<!-- Node17&#45;&gt;Node18 -->
<g id="edge25" class="edge"><title>Node17&#45;&gt;Node18</title>
<path fill="none" stroke="midnightblue" d="M802.663,-272.013C819.937,-256.747 845.026,-234.576 859.196,-222.053"/>
<polygon fill="midnightblue" stroke="midnightblue" points="800.068,-269.636 794.892,-278.88 804.703,-274.881 800.068,-269.636"/>
</g>
<!-- Node19&#45;&gt;Node20 -->
<g id="edge27" class="edge"><title>Node19&#45;&gt;Node20</title>
<path fill="none" stroke="midnightblue" d="M513.707,-280.672C527.98,-278.113 543.182,-275.388 554.994,-273.271"/>
<polygon fill="midnightblue" stroke="midnightblue" points="512.765,-277.285 503.539,-282.494 514,-284.175 512.765,-277.285"/>
</g>
<!-- Node21 -->
<g id="node21" class="node"><title>Node21</title>
<g id="a_node21"><a xlink:href="SAT__RefSys_8h.html#a9699d3dfbd482534e86059e5613f8b8c" target="_top" xlink:title="GHAMatrix">
<polygon fill="white" stroke="black" points="648.5,-279.006 648.5,-298.006 713.5,-298.006 713.5,-279.006 648.5,-279.006"/>
<text text-anchor="middle" x="681" y="-286.006" font-family="Helvetica,sans-Serif" font-size="10.00">GHAMatrix</text>
</a>
</g>
</g>
<!-- Node20&#45;&gt;Node21 -->
<g id="edge28" class="edge"><title>Node20&#45;&gt;Node21</title>
<path fill="none" stroke="midnightblue" d="M609.085,-275.296C621.555,-277.619 635.911,-280.293 648.429,-282.625"/>
<polygon fill="midnightblue" stroke="midnightblue" points="609.606,-271.833 599.134,-273.443 608.324,-278.715 609.606,-271.833"/>
</g>
<!-- Node21&#45;&gt;Node5 -->
<g id="edge29" class="edge"><title>Node21&#45;&gt;Node5</title>
<path fill="none" stroke="midnightblue" d="M707.852,-303.242C725.956,-313.561 749.617,-327.048 765.287,-335.979"/>
<polygon fill="midnightblue" stroke="midnightblue" points="709.385,-300.086 698.964,-298.175 705.918,-306.168 709.385,-300.086"/>
</g>
<!-- Node21&#45;&gt;Node6 -->
<g id="edge30" class="edge"><title>Node21&#45;&gt;Node6</title>
<path fill="none" stroke="midnightblue" d="M710.035,-304.02C711.426,-305.134 712.758,-306.298 714,-307.506 735.476,-328.399 728.524,-343.612 750,-364.506 753.612,-368.02 757.994,-371.157 762.341,-373.819"/>
<polygon fill="midnightblue" stroke="midnightblue" points="711.867,-301.03 701.659,-298.192 707.869,-306.776 711.867,-301.03"/>
</g>
<!-- Node21&#45;&gt;Node17 -->
<g id="edge31" class="edge"><title>Node21&#45;&gt;Node17</title>
<path fill="none" stroke="midnightblue" d="M723.789,-288.506C732.63,-288.506 741.823,-288.506 750.222,-288.506"/>
<polygon fill="midnightblue" stroke="midnightblue" points="723.641,-285.006 713.641,-288.506 723.641,-292.006 723.641,-285.006"/>
</g>
<!-- Node25 -->
<g id="node25" class="node"><title>Node25</title>
<g id="a_node25"><a xlink:href="RTOD_8cpp.html#ad928b0e88089fe577162bad47f911adf" target="_top" xlink:title="Accel">
<polygon fill="white" stroke="black" points="448.5,-13.0058 448.5,-32.0058 489.5,-32.0058 489.5,-13.0058 448.5,-13.0058"/>
<text text-anchor="middle" x="469" y="-20.0058" font-family="Helvetica,sans-Serif" font-size="10.00">Accel</text>
</a>
</g>
</g>
<!-- Node24&#45;&gt;Node25 -->
<g id="edge36" class="edge"><title>Node24&#45;&gt;Node25</title>
<path fill="none" stroke="midnightblue" d="M397.027,-48.9467C413.77,-42.7093 433.923,-35.2012 448.469,-29.7821"/>
<polygon fill="midnightblue" stroke="midnightblue" points="395.78,-45.6761 387.632,-52.447 398.224,-52.2357 395.78,-45.6761"/>
</g>
<!-- Node24&#45;&gt;Node12 -->
<g id="edge41" class="edge"><title>Node24&#45;&gt;Node12</title>
<path fill="none" stroke="midnightblue" d="M397.681,-60.5058C462.913,-60.5058 610.416,-60.5058 661.877,-60.5058"/>
<polygon fill="midnightblue" stroke="midnightblue" points="397.583,-57.0059 387.582,-60.5058 397.582,-64.0059 397.583,-57.0059"/>
</g>
<!-- Node24&#45;&gt;Node20 -->
<g id="edge42" class="edge"><title>Node24&#45;&gt;Node20</title>
<path fill="none" stroke="midnightblue" d="M375.291,-79.0641C386.435,-99.8328 406.806,-133.454 432,-155.506 459.82,-179.857 476.577,-171.118 506,-193.506 532.267,-213.492 556.937,-244.01 568.737,-259.595"/>
<polygon fill="midnightblue" stroke="midnightblue" points="378.3,-77.2645 370.58,-70.008 372.09,-80.4948 378.3,-77.2645"/>
</g>
<!-- Node26 -->
<g id="node26" class="node"><title>Node26</title>
<g id="a_node26"><a xlink:href="RTOD_8cpp.html#a8ed60f2e5115e2e00c123e12b1cbb649" target="_top" xlink:title="Deriv">
<polygon fill="white" stroke="black" points="557,-13.0058 557,-32.0058 597,-32.0058 597,-13.0058 557,-13.0058"/>
<text text-anchor="middle" x="577" y="-20.0058" font-family="Helvetica,sans-Serif" font-size="10.00">Deriv</text>
</a>
</g>
</g>
<!-- Node25&#45;&gt;Node26 -->
<g id="edge37" class="edge"><title>Node25&#45;&gt;Node26</title>
<path fill="none" stroke="midnightblue" d="M500.075,-22.5058C518.319,-22.5058 541.053,-22.5058 556.866,-22.5058"/>
<polygon fill="midnightblue" stroke="midnightblue" points="499.938,-19.0059 489.938,-22.5058 499.938,-26.0059 499.938,-19.0059"/>
</g>
<!-- Node27 -->
<g id="node27" class="node"><title>Node27</title>
<g id="a_node27"><a xlink:href="TDRSOD_8cpp.html#a3df5b7f547d4cb81cae1bbb6d6a2962a" target="_top" xlink:title="VarEqn">
<polygon fill="white" stroke="black" points="758.5,-51.0058 758.5,-70.0058 807.5,-70.0058 807.5,-51.0058 758.5,-51.0058"/>
<text text-anchor="middle" x="783" y="-58.0058" font-family="Helvetica,sans-Serif" font-size="10.00">VarEqn</text>
</a>
</g>
</g>
<!-- Node25&#45;&gt;Node27 -->
<g id="edge39" class="edge"><title>Node25&#45;&gt;Node27</title>
<path fill="none" stroke="midnightblue" d="M499.343,-12.9271C512.271,-9.1869 527.736,-5.3562 542,-3.50584 572.853,0.496479 581.295,1.50468 612,-3.50584 667.454,-12.555 729.222,-37.1801 760.832,-50.918"/>
<polygon fill="midnightblue" stroke="midnightblue" points="498.155,-9.62986 489.591,-15.8678 500.176,-16.3318 498.155,-9.62986"/>
</g>
<!-- Node26&#45;&gt;Node12 -->
<g id="edge38" class="edge"><title>Node26&#45;&gt;Node12</title>
<path fill="none" stroke="midnightblue" d="M607.004,-33.3114C624.681,-39.8966 646.717,-48.1064 661.928,-53.7731"/>
<polygon fill="midnightblue" stroke="midnightblue" points="607.778,-29.8647 597.185,-29.6534 605.334,-36.4243 607.778,-29.8647"/>
</g>
<!-- Node27&#45;&gt;Node18 -->
<g id="edge40" class="edge"><title>Node27&#45;&gt;Node18</title>
<path fill="none" stroke="midnightblue" d="M794.438,-78.9546C812.887,-111.562 850.628,-178.267 864.622,-203.001"/>
<polygon fill="midnightblue" stroke="midnightblue" points="797.35,-76.9941 789.38,-70.0141 791.258,-80.4412 797.35,-76.9941"/>
</g>
</g>
</svg>
