<?xml version="1.0" encoding="UTF-8" standalone="no"?>
<!DOCTYPE svg PUBLIC "-//W3C//DTD SVG 1.1//EN"
 "http://www.w3.org/Graphics/SVG/1.1/DTD/svg11.dtd">
<!-- Generated by graphviz version 2.30.1 (20180420.1509)
 -->
<!-- Title: anonymous_namespace{SAT_Kepler::cpp}::Modulo Pages: 1 -->
<svg width="722pt" height="237pt"
 viewBox="0.00 0.00 722.00 237.00" xmlns="http://www.w3.org/2000/svg" xmlns:xlink="http://www.w3.org/1999/xlink">
<g id="graph0" class="graph" transform="scale(1 1) rotate(0) translate(4 233)">
<title>anonymous_namespace{SAT_Kepler::cpp}::Modulo</title>
<polygon fill="white" stroke="white" points="-4,5 -4,-233 719,-233 719,5 -4,5"/>
<!-- Node1 -->
<g id="node1" class="node"><title>Node1</title>
<polygon fill="#bfbfbf" stroke="black" points="0,-109 0,-139 134,-139 134,-109 0,-109"/>
<text text-anchor="start" x="8" y="-127" font-family="Helvetica,sans-Serif" font-size="10.00">anonymous_namespace</text>
<text text-anchor="middle" x="67" y="-116" font-family="Helvetica,sans-Serif" font-size="10.00">{SAT_Kepler::cpp}::Modulo</text>
</g>
<!-- Node2 -->
<g id="node2" class="node"><title>Node2</title>
<g id="a_node2"><a xlink:href="SAT__Kepler_8h.html#a2ad531000471d74f459467a747a79aff" target="_top" xlink:title="EccAnom">
<polygon fill="white" stroke="black" points="171.5,-171.5 171.5,-190.5 230.5,-190.5 230.5,-171.5 171.5,-171.5"/>
<text text-anchor="middle" x="201" y="-178.5" font-family="Helvetica,sans-Serif" font-size="10.00">EccAnom</text>
</a>
</g>
</g>
<!-- Node1&#45;&gt;Node2 -->
<g id="edge1" class="edge"><title>Node1&#45;&gt;Node2</title>
<path fill="none" stroke="midnightblue" d="M112.49,-143.212C134.413,-152.679 159.892,-163.681 177.684,-171.363"/>
<polygon fill="midnightblue" stroke="midnightblue" points="113.595,-139.877 103.027,-139.125 110.82,-146.303 113.595,-139.877"/>
</g>
<!-- Node7 -->
<g id="node7" class="node"><title>Node7</title>
<g id="a_node7"><a xlink:href="SAT__Kepler_8h.html#a1d7fdd2727e376b6aa5a54877ca6a205" target="_top" xlink:title="Elements">
<polygon fill="white" stroke="black" points="172,-133.5 172,-152.5 230,-152.5 230,-133.5 172,-133.5"/>
<text text-anchor="middle" x="201" y="-140.5" font-family="Helvetica,sans-Serif" font-size="10.00">Elements</text>
</a>
</g>
</g>
<!-- Node1&#45;&gt;Node7 -->
<g id="edge7" class="edge"><title>Node1&#45;&gt;Node7</title>
<path fill="none" stroke="midnightblue" d="M144.575,-135.022C154.278,-136.419 163.668,-137.77 171.876,-138.952"/>
<polygon fill="midnightblue" stroke="midnightblue" points="144.783,-131.516 134.387,-133.556 143.786,-138.445 144.783,-131.516"/>
</g>
<!-- Node8 -->
<g id="node8" class="node"><title>Node8</title>
<g id="a_node8"><a xlink:href="SAT__RefSys_8cpp.html#a2a9df90e79156b20bf667ae56342d756" target="_top" xlink:title="NutAngles">
<polygon fill="white" stroke="black" points="170,-57.5 170,-76.5 232,-76.5 232,-57.5 170,-57.5"/>
<text text-anchor="middle" x="201" y="-64.5" font-family="Helvetica,sans-Serif" font-size="10.00">NutAngles</text>
</a>
</g>
</g>
<!-- Node1&#45;&gt;Node8 -->
<g id="edge9" class="edge"><title>Node1&#45;&gt;Node8</title>
<path fill="none" stroke="midnightblue" d="M112.49,-104.788C134.413,-95.3215 159.892,-84.3193 177.684,-76.6365"/>
<polygon fill="midnightblue" stroke="midnightblue" points="110.82,-101.697 103.027,-108.875 113.595,-108.123 110.82,-101.697"/>
</g>
<!-- Node15 -->
<g id="node15" class="node"><title>Node15</title>
<g id="a_node15"><a xlink:href="SAT__RefSys_8h.html#a120de1171391bce3ca4111e46331a93c" target="_top" xlink:title="GAST">
<polygon fill="white" stroke="black" points="385,-57.5 385,-76.5 429,-76.5 429,-57.5 385,-57.5"/>
<text text-anchor="middle" x="407" y="-64.5" font-family="Helvetica,sans-Serif" font-size="10.00">GAST</text>
</a>
</g>
</g>
<!-- Node1&#45;&gt;Node15 -->
<g id="edge21" class="edge"><title>Node1&#45;&gt;Node15</title>
<path fill="none" stroke="midnightblue" d="M144.163,-116.555C199.446,-110.397 275.83,-100.325 342,-86 356.5,-82.861 372.5,-78.111 384.875,-74.1457"/>
<polygon fill="midnightblue" stroke="midnightblue" points="143.653,-113.09 134.094,-117.66 144.416,-120.048 143.653,-113.09"/>
</g>
<!-- Node3 -->
<g id="node3" class="node"><title>Node3</title>
<g id="a_node3"><a xlink:href="SAT__Kepler_8h.html#ad89a224ad24d23f6059beb84e1c0817f" target="_top" xlink:title="State">
<polygon fill="white" stroke="black" points="285,-209.5 285,-228.5 325,-228.5 325,-209.5 285,-209.5"/>
<text text-anchor="middle" x="305" y="-216.5" font-family="Helvetica,sans-Serif" font-size="10.00">State</text>
</a>
</g>
</g>
<!-- Node2&#45;&gt;Node3 -->
<g id="edge2" class="edge"><title>Node2&#45;&gt;Node3</title>
<path fill="none" stroke="midnightblue" d="M237.286,-194.146C253.191,-200.071 271.355,-206.838 284.71,-211.813"/>
<polygon fill="midnightblue" stroke="midnightblue" points="238.332,-190.8 227.739,-190.589 235.888,-197.36 238.332,-190.8"/>
</g>
<!-- Node6 -->
<g id="node6" class="node"><title>Node6</title>
<g id="a_node6"><a xlink:href="SAT__Kepler_8h.html#ad41abe3ee1647b2de98425457c6fdce2" target="_top" xlink:title="StatePartials">
<polygon fill="white" stroke="black" points="268.5,-171.5 268.5,-190.5 341.5,-190.5 341.5,-171.5 268.5,-171.5"/>
<text text-anchor="middle" x="305" y="-178.5" font-family="Helvetica,sans-Serif" font-size="10.00">StatePartials</text>
</a>
</g>
</g>
<!-- Node2&#45;&gt;Node6 -->
<g id="edge5" class="edge"><title>Node2&#45;&gt;Node6</title>
<path fill="none" stroke="midnightblue" d="M240.916,-181C249.902,-181 259.419,-181 268.262,-181"/>
<polygon fill="midnightblue" stroke="midnightblue" points="240.684,-177.5 230.684,-181 240.684,-184.5 240.684,-177.5"/>
</g>
<!-- Node4 -->
<g id="node4" class="node"><title>Node4</title>
<g id="a_node4"><a xlink:href="SAT__Kepler_8h.html#aeb2175e4cdc39ea590f44fc2949ea8d3" target="_top" xlink:title="TwoBody">
<polygon fill="white" stroke="black" points="378,-171.5 378,-190.5 436,-190.5 436,-171.5 378,-171.5"/>
<text text-anchor="middle" x="407" y="-178.5" font-family="Helvetica,sans-Serif" font-size="10.00">TwoBody</text>
</a>
</g>
</g>
<!-- Node3&#45;&gt;Node4 -->
<g id="edge3" class="edge"><title>Node3&#45;&gt;Node4</title>
<path fill="none" stroke="midnightblue" d="M334.781,-208.063C349.291,-202.549 366.728,-195.923 380.717,-190.607"/>
<polygon fill="midnightblue" stroke="midnightblue" points="333.386,-204.849 325.281,-211.673 335.872,-211.393 333.386,-204.849"/>
</g>
<!-- Node5 -->
<g id="node5" class="node"><title>Node5</title>
<g id="a_node5"><a xlink:href="RTOD_8cpp.html#a0ddf1224851353fc92bfbff6f499fa97" target="_top" xlink:title="main">
<polygon fill="white" stroke="black" points="486,-171.5 486,-190.5 524,-190.5 524,-171.5 486,-171.5"/>
<text text-anchor="middle" x="505" y="-178.5" font-family="Helvetica,sans-Serif" font-size="10.00">main</text>
</a>
</g>
</g>
<!-- Node4&#45;&gt;Node5 -->
<g id="edge4" class="edge"><title>Node4&#45;&gt;Node5</title>
<path fill="none" stroke="midnightblue" d="M446.177,-181C459.836,-181 474.604,-181 485.796,-181"/>
<polygon fill="midnightblue" stroke="midnightblue" points="446.025,-177.5 436.025,-181 446.025,-184.5 446.025,-177.5"/>
</g>
<!-- Node6&#45;&gt;Node4 -->
<g id="edge6" class="edge"><title>Node6&#45;&gt;Node4</title>
<path fill="none" stroke="midnightblue" d="M351.796,-181C360.661,-181 369.704,-181 377.799,-181"/>
<polygon fill="midnightblue" stroke="midnightblue" points="351.538,-177.5 341.538,-181 351.538,-184.5 351.538,-177.5"/>
</g>
<!-- Node7&#45;&gt;Node4 -->
<g id="edge8" class="edge"><title>Node7&#45;&gt;Node4</title>
<path fill="none" stroke="midnightblue" d="M240.378,-146.601C268.666,-149.644 307.978,-154.687 342,-162 353.898,-164.558 366.803,-168.214 377.886,-171.637"/>
<polygon fill="midnightblue" stroke="midnightblue" points="240.419,-143.086 230.11,-145.532 239.694,-150.049 240.419,-143.086"/>
</g>
<!-- Node9 -->
<g id="node9" class="node"><title>Node9</title>
<g id="a_node9"><a xlink:href="SAT__RefSys_8h.html#a35e586a324741da54bc1e407a5586378" target="_top" xlink:title="NutMatrix">
<polygon fill="white" stroke="black" points="475.5,-19.5 475.5,-38.5 534.5,-38.5 534.5,-19.5 475.5,-19.5"/>
<text text-anchor="middle" x="505" y="-26.5" font-family="Helvetica,sans-Serif" font-size="10.00">NutMatrix</text>
</a>
</g>
</g>
<!-- Node8&#45;&gt;Node9 -->
<g id="edge10" class="edge"><title>Node8&#45;&gt;Node9</title>
<path fill="none" stroke="midnightblue" d="M240.426,-54.5393C249.394,-52.0225 258.966,-49.6469 268,-48 342.002,-34.5096 430.801,-30.5972 475.426,-29.4629"/>
<polygon fill="midnightblue" stroke="midnightblue" points="239.232,-51.2418 230.617,-57.4095 241.198,-57.9601 239.232,-51.2418"/>
</g>
<!-- Node14 -->
<g id="node14" class="node"><title>Node14</title>
<g id="a_node14"><a xlink:href="SAT__RefSys_8h.html#a1178917cf376ea4f15cea33c59028635" target="_top" xlink:title="EqnEquinox">
<polygon fill="white" stroke="black" points="270.5,-57.5 270.5,-76.5 339.5,-76.5 339.5,-57.5 270.5,-57.5"/>
<text text-anchor="middle" x="305" y="-64.5" font-family="Helvetica,sans-Serif" font-size="10.00">EqnEquinox</text>
</a>
</g>
</g>
<!-- Node8&#45;&gt;Node14 -->
<g id="edge15" class="edge"><title>Node8&#45;&gt;Node14</title>
<path fill="none" stroke="midnightblue" d="M242.235,-67C251.504,-67 261.269,-67 270.23,-67"/>
<polygon fill="midnightblue" stroke="midnightblue" points="242.052,-63.5001 232.052,-67 242.052,-70.5001 242.052,-63.5001"/>
</g>
<!-- Node10 -->
<g id="node10" class="node"><title>Node10</title>
<g id="a_node10"><a xlink:href="SAT__Force_8h.html#a750f7a2f89dc275831e706abee33310f" target="_top" xlink:title="AccelMain">
<polygon fill="white" stroke="black" points="576,-0.5 576,-19.5 638,-19.5 638,-0.5 576,-0.5"/>
<text text-anchor="middle" x="607" y="-7.5" font-family="Helvetica,sans-Serif" font-size="10.00">AccelMain</text>
</a>
</g>
</g>
<!-- Node9&#45;&gt;Node10 -->
<g id="edge11" class="edge"><title>Node9&#45;&gt;Node10</title>
<path fill="none" stroke="midnightblue" d="M544.721,-21.6431C555.084,-19.6741 566.128,-17.5756 575.946,-15.7103"/>
<polygon fill="midnightblue" stroke="midnightblue" points="543.827,-18.2502 534.656,-23.5554 545.134,-25.1272 543.827,-18.2502"/>
</g>
<!-- Node11 -->
<g id="node11" class="node"><title>Node11</title>
<g id="a_node11"><a xlink:href="TDRSOD_8cpp.html#a1d3803a2ec3760bf63edefae54e3ac5b" target="_top" xlink:title="Accel">
<polygon fill="white" stroke="black" points="586.5,-76.5 586.5,-95.5 627.5,-95.5 627.5,-76.5 586.5,-76.5"/>
<text text-anchor="middle" x="607" y="-83.5" font-family="Helvetica,sans-Serif" font-size="10.00">Accel</text>
</a>
</g>
</g>
<!-- Node9&#45;&gt;Node11 -->
<g id="edge12" class="edge"><title>Node9&#45;&gt;Node11</title>
<path fill="none" stroke="midnightblue" d="M531.852,-43.7358C549.956,-54.0548 573.617,-67.5419 589.287,-76.4735"/>
<polygon fill="midnightblue" stroke="midnightblue" points="533.385,-40.5806 522.964,-38.6693 529.918,-46.6621 533.385,-40.5806"/>
</g>
<!-- Node12 -->
<g id="node12" class="node"><title>Node12</title>
<g id="a_node12"><a xlink:href="TDRSOD_8cpp.html#a466ab098330aeb2aa659365279071640" target="_top" xlink:title="Range_4W">
<polygon fill="white" stroke="black" points="574.5,-38.5 574.5,-57.5 639.5,-57.5 639.5,-38.5 574.5,-38.5"/>
<text text-anchor="middle" x="607" y="-45.5" font-family="Helvetica,sans-Serif" font-size="10.00">Range_4W</text>
</a>
</g>
</g>
<!-- Node9&#45;&gt;Node12 -->
<g id="edge13" class="edge"><title>Node9&#45;&gt;Node12</title>
<path fill="none" stroke="midnightblue" d="M544.568,-36.3278C554.358,-38.1881 564.767,-40.1657 574.18,-41.9542"/>
<polygon fill="midnightblue" stroke="midnightblue" points="545.134,-32.8728 534.656,-34.4446 543.827,-39.7498 545.134,-32.8728"/>
</g>
<!-- Node13 -->
<g id="node13" class="node"><title>Node13</title>
<g id="a_node13"><a xlink:href="TDRSOD_8cpp.html#a0ddf1224851353fc92bfbff6f499fa97" target="_top" xlink:title="main">
<polygon fill="white" stroke="black" points="676,-38.5 676,-57.5 714,-57.5 714,-38.5 676,-38.5"/>
<text text-anchor="middle" x="695" y="-45.5" font-family="Helvetica,sans-Serif" font-size="10.00">main</text>
</a>
</g>
</g>
<!-- Node12&#45;&gt;Node13 -->
<g id="edge14" class="edge"><title>Node12&#45;&gt;Node13</title>
<path fill="none" stroke="midnightblue" d="M649.813,-48C659.024,-48 668.308,-48 675.972,-48"/>
<polygon fill="midnightblue" stroke="midnightblue" points="649.535,-44.5001 639.535,-48 649.535,-51.5001 649.535,-44.5001"/>
</g>
<!-- Node14&#45;&gt;Node15 -->
<g id="edge16" class="edge"><title>Node14&#45;&gt;Node15</title>
<path fill="none" stroke="midnightblue" d="M349.659,-67C361.884,-67 374.622,-67 384.888,-67"/>
<polygon fill="midnightblue" stroke="midnightblue" points="349.577,-63.5001 339.577,-67 349.577,-70.5001 349.577,-63.5001"/>
</g>
<!-- Node16 -->
<g id="node16" class="node"><title>Node16</title>
<g id="a_node16"><a xlink:href="SAT__RefSys_8h.html#a9699d3dfbd482534e86059e5613f8b8c" target="_top" xlink:title="GHAMatrix">
<polygon fill="white" stroke="black" points="472.5,-57.5 472.5,-76.5 537.5,-76.5 537.5,-57.5 472.5,-57.5"/>
<text text-anchor="middle" x="505" y="-64.5" font-family="Helvetica,sans-Serif" font-size="10.00">GHAMatrix</text>
</a>
</g>
</g>
<!-- Node15&#45;&gt;Node16 -->
<g id="edge17" class="edge"><title>Node15&#45;&gt;Node16</title>
<path fill="none" stroke="midnightblue" d="M439.336,-67C449.863,-67 461.611,-67 472.175,-67"/>
<polygon fill="midnightblue" stroke="midnightblue" points="439.306,-63.5001 429.306,-67 439.305,-70.5001 439.306,-63.5001"/>
</g>
<!-- Node16&#45;&gt;Node10 -->
<g id="edge18" class="edge"><title>Node16&#45;&gt;Node10</title>
<path fill="none" stroke="midnightblue" d="M531.852,-52.2642C549.956,-41.9452 573.617,-28.4581 589.287,-19.5265"/>
<polygon fill="midnightblue" stroke="midnightblue" points="529.918,-49.3379 522.964,-57.3307 533.385,-55.4194 529.918,-49.3379"/>
</g>
<!-- Node16&#45;&gt;Node11 -->
<g id="edge19" class="edge"><title>Node16&#45;&gt;Node11</title>
<path fill="none" stroke="midnightblue" d="M547.698,-74.9227C561.149,-77.4783 575.423,-80.1905 586.482,-82.2915"/>
<polygon fill="midnightblue" stroke="midnightblue" points="548.118,-71.4399 537.641,-73.0117 546.812,-78.3169 548.118,-71.4399"/>
</g>
<!-- Node16&#45;&gt;Node12 -->
<g id="edge20" class="edge"><title>Node16&#45;&gt;Node12</title>
<path fill="none" stroke="midnightblue" d="M547.501,-59.1149C556.43,-57.4183 565.732,-55.6509 574.222,-54.0378"/>
<polygon fill="midnightblue" stroke="midnightblue" points="546.812,-55.6831 537.641,-60.9883 548.118,-62.5601 546.812,-55.6831"/>
</g>
</g>
</svg>
