<?xml version="1.0" encoding="UTF-8" standalone="no"?>
<!DOCTYPE svg PUBLIC "-//W3C//DTD SVG 1.1//EN"
 "http://www.w3.org/Graphics/SVG/1.1/DTD/svg11.dtd">
<!-- Generated by graphviz version 2.30.1 (20180420.1509)
 -->
<!-- Title: anonymous_namespace{SAT_DE::cpp}::min Pages: 1 -->
<svg width="420pt" height="53pt"
 viewBox="0.00 0.00 420.00 53.00" xmlns="http://www.w3.org/2000/svg" xmlns:xlink="http://www.w3.org/1999/xlink">
<g id="graph0" class="graph" transform="scale(1 1) rotate(0) translate(4 49)">
<title>anonymous_namespace{SAT_DE::cpp}::min</title>
<polygon fill="white" stroke="white" points="-4,5 -4,-49 417,-49 417,5 -4,5"/>
<!-- Node1 -->
<g id="node1" class="node"><title>Node1</title>
<polygon fill="#bfbfbf" stroke="black" points="0,-1 0,-31 122,-31 122,-1 0,-1"/>
<text text-anchor="start" x="8" y="-19" font-family="Helvetica,sans-Serif" font-size="10.00">anonymous_namespace</text>
<text text-anchor="middle" x="61" y="-8" font-family="Helvetica,sans-Serif" font-size="10.00">{SAT_DE::cpp}::min</text>
</g>
<!-- Node2 -->
<g id="node2" class="node"><title>Node2</title>
<g id="a_node2"><a xlink:href="classDE.html#ac45486f7c7bf422c6bd024aba501a2a2" target="_top" xlink:title="DE::Step">
<polygon fill="white" stroke="black" points="158.5,-25.5 158.5,-44.5 215.5,-44.5 215.5,-25.5 158.5,-25.5"/>
<text text-anchor="middle" x="187" y="-32.5" font-family="Helvetica,sans-Serif" font-size="10.00">DE::Step</text>
</a>
</g>
</g>
<!-- Node1&#45;&gt;Node2 -->
<g id="edge1" class="edge"><title>Node1&#45;&gt;Node2</title>
<path fill="none" stroke="midnightblue" d="M132.295,-26.771C141.559,-28.1904 150.571,-29.5713 158.484,-30.7838"/>
<polygon fill="midnightblue" stroke="midnightblue" points="132.599,-23.2768 122.184,-25.2217 131.538,-30.196 132.599,-23.2768"/>
</g>
<!-- Node3 -->
<g id="node3" class="node"><title>Node3</title>
<g id="a_node3"><a xlink:href="classDE.html#ac5af669df33d23002a4744f0217e33dc" target="_top" xlink:title="DE::Integ_">
<polygon fill="white" stroke="black" points="252,-6.5 252,-25.5 316,-25.5 316,-6.5 252,-6.5"/>
<text text-anchor="middle" x="284" y="-13.5" font-family="Helvetica,sans-Serif" font-size="10.00">DE::Integ_</text>
</a>
</g>
</g>
<!-- Node1&#45;&gt;Node3 -->
<g id="edge4" class="edge"><title>Node1&#45;&gt;Node3</title>
<path fill="none" stroke="midnightblue" d="M132.133,-16C172.371,-16 220.888,-16 251.838,-16"/>
<polygon fill="midnightblue" stroke="midnightblue" points="132.097,-12.5001 122.097,-16 132.097,-19.5001 132.097,-12.5001"/>
</g>
<!-- Node2&#45;&gt;Node3 -->
<g id="edge2" class="edge"><title>Node2&#45;&gt;Node3</title>
<path fill="none" stroke="midnightblue" d="M225.609,-27.4782C234.263,-25.7473 243.376,-23.9248 251.728,-22.2544"/>
<polygon fill="midnightblue" stroke="midnightblue" points="224.853,-24.0601 215.733,-29.4533 226.226,-30.9241 224.853,-24.0601"/>
</g>
<!-- Node4 -->
<g id="node4" class="node"><title>Node4</title>
<g id="a_node4"><a xlink:href="classDE.html#a6a008818dc6d8ad8defd822091207093" target="_top" xlink:title="DE::Integ">
<polygon fill="white" stroke="black" points="352.5,-6.5 352.5,-25.5 411.5,-25.5 411.5,-6.5 352.5,-6.5"/>
<text text-anchor="middle" x="382" y="-13.5" font-family="Helvetica,sans-Serif" font-size="10.00">DE::Integ</text>
</a>
</g>
</g>
<!-- Node3&#45;&gt;Node4 -->
<g id="edge3" class="edge"><title>Node3&#45;&gt;Node4</title>
<path fill="none" stroke="midnightblue" d="M326.246,-16C335.013,-16 344.086,-16 352.264,-16"/>
<polygon fill="midnightblue" stroke="midnightblue" points="326.168,-12.5001 316.168,-16 326.168,-19.5001 326.168,-12.5001"/>
</g>
</g>
</svg>
