<?xml version="1.0" encoding="UTF-8" standalone="no"?>
<!DOCTYPE svg PUBLIC "-//W3C//DTD SVG 1.1//EN"
 "http://www.w3.org/Graphics/SVG/1.1/DTD/svg11.dtd">
<!-- Generated by graphviz version 2.30.1 (20180420.1509)
 -->
<!-- Title: anonymous_namespace{SAT_Kepler::cpp}::F Pages: 1 -->
<svg width="720pt" height="161pt"
 viewBox="0.00 0.00 720.00 161.00" xmlns="http://www.w3.org/2000/svg" xmlns:xlink="http://www.w3.org/1999/xlink">
<g id="graph0" class="graph" transform="scale(1 1) rotate(0) translate(4 157)">
<title>anonymous_namespace{SAT_Kepler::cpp}::F</title>
<polygon fill="white" stroke="white" points="-4,5 -4,-157 717,-157 717,5 -4,5"/>
<!-- Node1 -->
<g id="node1" class="node"><title>Node1</title>
<polygon fill="#bfbfbf" stroke="black" points="0,-52 0,-82 122,-82 122,-52 0,-52"/>
<text text-anchor="start" x="8" y="-70" font-family="Helvetica,sans-Serif" font-size="10.00">anonymous_namespace</text>
<text text-anchor="middle" x="61" y="-59" font-family="Helvetica,sans-Serif" font-size="10.00">{SAT_Kepler::cpp}::F</text>
</g>
<!-- Node2 -->
<g id="node2" class="node"><title>Node2</title>
<g id="a_node2"><a xlink:href="SAT__Force_8h.html#a787c7d05ba9e7f29d236caf719ff7900" target="_top" xlink:title="Moon">
<polygon fill="white" stroke="black" points="482.5,-133.5 482.5,-152.5 523.5,-152.5 523.5,-133.5 482.5,-133.5"/>
<text text-anchor="middle" x="503" y="-140.5" font-family="Helvetica,sans-Serif" font-size="10.00">Moon</text>
</a>
</g>
</g>
<!-- Node1&#45;&gt;Node2 -->
<g id="edge1" class="edge"><title>Node1&#45;&gt;Node2</title>
<path fill="none" stroke="midnightblue" d="M104.072,-86.0532C120.6,-92.8991 139.915,-100.125 158,-105 278.091,-137.37 428.888,-142.237 482.215,-142.914"/>
<polygon fill="midnightblue" stroke="midnightblue" points="105.266,-82.7582 94.6922,-82.0869 102.539,-89.2054 105.266,-82.7582"/>
</g>
<!-- Node5 -->
<g id="node5" class="node"><title>Node5</title>
<g id="a_node5"><a xlink:href="SAT__Kepler_8h.html#a131c46c69e895d1d1bf15bf54830012d" target="_top" xlink:title="FindEta">
<polygon fill="white" stroke="black" points="178,-38.5 178,-57.5 228,-57.5 228,-38.5 178,-38.5"/>
<text text-anchor="middle" x="203" y="-45.5" font-family="Helvetica,sans-Serif" font-size="10.00">FindEta</text>
</a>
</g>
</g>
<!-- Node1&#45;&gt;Node5 -->
<g id="edge4" class="edge"><title>Node1&#45;&gt;Node5</title>
<path fill="none" stroke="midnightblue" d="M132.334,-57.4547C148.68,-55.2363 165.002,-53.0212 177.734,-51.2933"/>
<polygon fill="midnightblue" stroke="midnightblue" points="131.624,-54.0189 122.185,-58.832 132.565,-60.9553 131.624,-54.0189"/>
</g>
<!-- Node7 -->
<g id="node7" class="node"><title>Node7</title>
<g id="a_node7"><a xlink:href="SAT__RefSys_8cpp.html#a2a9df90e79156b20bf667ae56342d756" target="_top" xlink:title="NutAngles">
<polygon fill="white" stroke="black" points="172,-76.5 172,-95.5 234,-95.5 234,-76.5 172,-76.5"/>
<text text-anchor="middle" x="203" y="-83.5" font-family="Helvetica,sans-Serif" font-size="10.00">NutAngles</text>
</a>
</g>
</g>
<!-- Node1&#45;&gt;Node7 -->
<g id="edge6" class="edge"><title>Node1&#45;&gt;Node7</title>
<path fill="none" stroke="midnightblue" d="M132.32,-76.5434C146.278,-78.4378 160.219,-80.3298 171.924,-81.9182"/>
<polygon fill="midnightblue" stroke="midnightblue" points="132.565,-73.0447 122.185,-75.168 131.624,-79.9811 132.565,-73.0447"/>
</g>
<!-- Node14 -->
<g id="node14" class="node"><title>Node14</title>
<g id="a_node14"><a xlink:href="SAT__RefSys_8cpp.html#a04f9381158624e774f728842393c560d" target="_top" xlink:title="NutMatrixSimple">
<polygon fill="white" stroke="black" points="158.5,-0.5 158.5,-19.5 247.5,-19.5 247.5,-0.5 158.5,-0.5"/>
<text text-anchor="middle" x="203" y="-7.5" font-family="Helvetica,sans-Serif" font-size="10.00">NutMatrixSimple</text>
</a>
</g>
</g>
<!-- Node1&#45;&gt;Node14 -->
<g id="edge18" class="edge"><title>Node1&#45;&gt;Node14</title>
<path fill="none" stroke="midnightblue" d="M108.562,-48.0428C131.953,-38.5191 159.292,-27.3882 178.331,-19.6365"/>
<polygon fill="midnightblue" stroke="midnightblue" points="107.092,-44.8621 99.1499,-51.8747 109.731,-51.3454 107.092,-44.8621"/>
</g>
<!-- Node3 -->
<g id="node3" class="node"><title>Node3</title>
<g id="a_node3"><a xlink:href="SAT__Force_8h.html#a750f7a2f89dc275831e706abee33310f" target="_top" xlink:title="AccelMain">
<polygon fill="white" stroke="black" points="574,-95.5 574,-114.5 636,-114.5 636,-95.5 574,-95.5"/>
<text text-anchor="middle" x="605" y="-102.5" font-family="Helvetica,sans-Serif" font-size="10.00">AccelMain</text>
</a>
</g>
</g>
<!-- Node2&#45;&gt;Node3 -->
<g id="edge2" class="edge"><title>Node2&#45;&gt;Node3</title>
<path fill="none" stroke="midnightblue" d="M533.263,-131.88C547.758,-126.372 565.079,-119.79 578.953,-114.518"/>
<polygon fill="midnightblue" stroke="midnightblue" points="531.861,-128.668 523.757,-135.492 534.348,-135.212 531.861,-128.668"/>
</g>
<!-- Node4 -->
<g id="node4" class="node"><title>Node4</title>
<g id="a_node4"><a xlink:href="TDRSOD_8cpp.html#a1d3803a2ec3760bf63edefae54e3ac5b" target="_top" xlink:title="Accel">
<polygon fill="white" stroke="black" points="584.5,-133.5 584.5,-152.5 625.5,-152.5 625.5,-133.5 584.5,-133.5"/>
<text text-anchor="middle" x="605" y="-140.5" font-family="Helvetica,sans-Serif" font-size="10.00">Accel</text>
</a>
</g>
</g>
<!-- Node2&#45;&gt;Node4 -->
<g id="edge3" class="edge"><title>Node2&#45;&gt;Node4</title>
<path fill="none" stroke="midnightblue" d="M533.885,-143C550.187,-143 569.913,-143 584.284,-143"/>
<polygon fill="midnightblue" stroke="midnightblue" points="533.757,-139.5 523.757,-143 533.757,-146.5 533.757,-139.5"/>
</g>
<!-- Node6 -->
<g id="node6" class="node"><title>Node6</title>
<g id="a_node6"><a xlink:href="SAT__Kepler_8h.html#ae76d62d97df6e450fe706aebb882b103" target="_top" xlink:title="Elements">
<polygon fill="white" stroke="black" points="290,-19.5 290,-38.5 348,-38.5 348,-19.5 290,-19.5"/>
<text text-anchor="middle" x="319" y="-26.5" font-family="Helvetica,sans-Serif" font-size="10.00">Elements</text>
</a>
</g>
</g>
<!-- Node5&#45;&gt;Node6 -->
<g id="edge5" class="edge"><title>Node5&#45;&gt;Node6</title>
<path fill="none" stroke="midnightblue" d="M238.473,-42.2545C254.903,-39.5161 274.309,-36.2818 289.839,-33.6936"/>
<polygon fill="midnightblue" stroke="midnightblue" points="237.465,-38.8741 228.176,-43.9706 238.616,-45.7789 237.465,-38.8741"/>
</g>
<!-- Node8 -->
<g id="node8" class="node"><title>Node8</title>
<g id="a_node8"><a xlink:href="SAT__RefSys_8h.html#a35e586a324741da54bc1e407a5586378" target="_top" xlink:title="NutMatrix">
<polygon fill="white" stroke="black" points="473.5,-57.5 473.5,-76.5 532.5,-76.5 532.5,-57.5 473.5,-57.5"/>
<text text-anchor="middle" x="503" y="-64.5" font-family="Helvetica,sans-Serif" font-size="10.00">NutMatrix</text>
</a>
</g>
</g>
<!-- Node7&#45;&gt;Node8 -->
<g id="edge7" class="edge"><title>Node7&#45;&gt;Node8</title>
<path fill="none" stroke="midnightblue" d="M244.264,-83.4328C305.406,-79.5345 420.172,-72.2172 473.462,-68.8195"/>
<polygon fill="midnightblue" stroke="midnightblue" points="243.971,-79.9443 234.214,-84.0736 244.416,-86.9301 243.971,-79.9443"/>
</g>
<!-- Node11 -->
<g id="node11" class="node"><title>Node11</title>
<g id="a_node11"><a xlink:href="SAT__RefSys_8h.html#a1178917cf376ea4f15cea33c59028635" target="_top" xlink:title="EqnEquinox">
<polygon fill="white" stroke="black" points="284.5,-95.5 284.5,-114.5 353.5,-114.5 353.5,-95.5 284.5,-95.5"/>
<text text-anchor="middle" x="319" y="-102.5" font-family="Helvetica,sans-Serif" font-size="10.00">EqnEquinox</text>
</a>
</g>
</g>
<!-- Node7&#45;&gt;Node11 -->
<g id="edge12" class="edge"><title>Node7&#45;&gt;Node11</title>
<path fill="none" stroke="midnightblue" d="M244.411,-92.7351C257.495,-94.9158 271.857,-97.3095 284.392,-99.3987"/>
<polygon fill="midnightblue" stroke="midnightblue" points="244.69,-89.2335 234.251,-91.0418 243.539,-96.1382 244.69,-89.2335"/>
</g>
<!-- Node8&#45;&gt;Node3 -->
<g id="edge8" class="edge"><title>Node8&#45;&gt;Node3</title>
<path fill="none" stroke="midnightblue" d="M538.907,-80.2646C552.035,-85.2533 566.695,-90.8241 578.774,-95.4141"/>
<polygon fill="midnightblue" stroke="midnightblue" points="539.825,-76.8695 529.234,-76.589 537.339,-83.413 539.825,-76.8695"/>
</g>
<!-- Node8&#45;&gt;Node4 -->
<g id="edge9" class="edge"><title>Node8&#45;&gt;Node4</title>
<path fill="none" stroke="midnightblue" d="M530.997,-82.2768C532.727,-83.4842 534.41,-84.7296 536,-86 554.176,-100.522 553.824,-109.478 572,-124 576.24,-127.388 581.143,-130.598 585.817,-133.382"/>
<polygon fill="midnightblue" stroke="midnightblue" points="532.489,-79.0751 522.183,-76.6177 528.707,-84.9656 532.489,-79.0751"/>
</g>
<!-- Node9 -->
<g id="node9" class="node"><title>Node9</title>
<g id="a_node9"><a xlink:href="TDRSOD_8cpp.html#a466ab098330aeb2aa659365279071640" target="_top" xlink:title="Range_4W">
<polygon fill="white" stroke="black" points="572.5,-57.5 572.5,-76.5 637.5,-76.5 637.5,-57.5 572.5,-57.5"/>
<text text-anchor="middle" x="605" y="-64.5" font-family="Helvetica,sans-Serif" font-size="10.00">Range_4W</text>
</a>
</g>
</g>
<!-- Node8&#45;&gt;Node9 -->
<g id="edge10" class="edge"><title>Node8&#45;&gt;Node9</title>
<path fill="none" stroke="midnightblue" d="M542.877,-67C552.577,-67 562.866,-67 572.18,-67"/>
<polygon fill="midnightblue" stroke="midnightblue" points="542.656,-63.5001 532.656,-67 542.656,-70.5001 542.656,-63.5001"/>
</g>
<!-- Node10 -->
<g id="node10" class="node"><title>Node10</title>
<g id="a_node10"><a xlink:href="TDRSOD_8cpp.html#a0ddf1224851353fc92bfbff6f499fa97" target="_top" xlink:title="main">
<polygon fill="white" stroke="black" points="674,-57.5 674,-76.5 712,-76.5 712,-57.5 674,-57.5"/>
<text text-anchor="middle" x="693" y="-64.5" font-family="Helvetica,sans-Serif" font-size="10.00">main</text>
</a>
</g>
</g>
<!-- Node9&#45;&gt;Node10 -->
<g id="edge11" class="edge"><title>Node9&#45;&gt;Node10</title>
<path fill="none" stroke="midnightblue" d="M647.813,-67C657.024,-67 666.308,-67 673.972,-67"/>
<polygon fill="midnightblue" stroke="midnightblue" points="647.535,-63.5001 637.535,-67 647.535,-70.5001 647.535,-63.5001"/>
</g>
<!-- Node12 -->
<g id="node12" class="node"><title>Node12</title>
<g id="a_node12"><a xlink:href="SAT__RefSys_8h.html#a120de1171391bce3ca4111e46331a93c" target="_top" xlink:title="GAST">
<polygon fill="white" stroke="black" points="390,-95.5 390,-114.5 434,-114.5 434,-95.5 390,-95.5"/>
<text text-anchor="middle" x="412" y="-102.5" font-family="Helvetica,sans-Serif" font-size="10.00">GAST</text>
</a>
</g>
</g>
<!-- Node11&#45;&gt;Node12 -->
<g id="edge13" class="edge"><title>Node11&#45;&gt;Node12</title>
<path fill="none" stroke="midnightblue" d="M363.789,-105C372.893,-105 382.089,-105 389.916,-105"/>
<polygon fill="midnightblue" stroke="midnightblue" points="363.627,-101.5 353.626,-105 363.626,-108.5 363.627,-101.5"/>
</g>
<!-- Node13 -->
<g id="node13" class="node"><title>Node13</title>
<g id="a_node13"><a xlink:href="SAT__RefSys_8h.html#a9699d3dfbd482534e86059e5613f8b8c" target="_top" xlink:title="GHAMatrix">
<polygon fill="white" stroke="black" points="470.5,-95.5 470.5,-114.5 535.5,-114.5 535.5,-95.5 470.5,-95.5"/>
<text text-anchor="middle" x="503" y="-102.5" font-family="Helvetica,sans-Serif" font-size="10.00">GHAMatrix</text>
</a>
</g>
</g>
<!-- Node12&#45;&gt;Node13 -->
<g id="edge14" class="edge"><title>Node12&#45;&gt;Node13</title>
<path fill="none" stroke="midnightblue" d="M444.282,-105C452.702,-105 461.815,-105 470.26,-105"/>
<polygon fill="midnightblue" stroke="midnightblue" points="444.092,-101.5 434.092,-105 444.092,-108.5 444.092,-101.5"/>
</g>
<!-- Node13&#45;&gt;Node3 -->
<g id="edge15" class="edge"><title>Node13&#45;&gt;Node3</title>
<path fill="none" stroke="midnightblue" d="M545.693,-105C555.166,-105 565.049,-105 573.929,-105"/>
<polygon fill="midnightblue" stroke="midnightblue" points="545.641,-101.5 535.641,-105 545.641,-108.5 545.641,-101.5"/>
</g>
<!-- Node13&#45;&gt;Node4 -->
<g id="edge16" class="edge"><title>Node13&#45;&gt;Node4</title>
<path fill="none" stroke="midnightblue" d="M538.901,-118.262C554.168,-124.064 571.509,-130.653 584.452,-135.572"/>
<polygon fill="midnightblue" stroke="midnightblue" points="539.825,-114.869 529.234,-114.589 537.339,-121.413 539.825,-114.869"/>
</g>
<!-- Node13&#45;&gt;Node9 -->
<g id="edge17" class="edge"><title>Node13&#45;&gt;Node9</title>
<path fill="none" stroke="midnightblue" d="M538.907,-91.7354C552.035,-86.7467 566.695,-81.1759 578.774,-76.5859"/>
<polygon fill="midnightblue" stroke="midnightblue" points="537.339,-88.587 529.234,-95.411 539.825,-95.1305 537.339,-88.587"/>
</g>
</g>
</svg>
