<?xml version="1.0" encoding="UTF-8" standalone="no"?>
<!DOCTYPE svg PUBLIC "-//W3C//DTD SVG 1.1//EN"
 "http://www.w3.org/Graphics/SVG/1.1/DTD/svg11.dtd">
<!-- Generated by graphviz version 2.30.1 (20180420.1509)
 -->
<!-- Title: RTOD.cpp Pages: 1 -->
<svg width="881pt" height="196pt"
 viewBox="0.00 0.00 881.12 196.00" xmlns="http://www.w3.org/2000/svg" xmlns:xlink="http://www.w3.org/1999/xlink">
<g id="graph0" class="graph" transform="scale(1 1) rotate(0) translate(4 192)">
<title>RTOD.cpp</title>
<polygon fill="white" stroke="white" points="-4,5 -4,-192 878.122,-192 878.122,5 -4,5"/>
<!-- Node1 -->
<g id="node1" class="node"><title>Node1</title>
<polygon fill="#bfbfbf" stroke="black" points="298.122,-168.5 298.122,-187.5 362.122,-187.5 362.122,-168.5 298.122,-168.5"/>
<text text-anchor="middle" x="330.122" y="-175.5" font-family="Helvetica,sans-Serif" font-size="10.00">RTOD.cpp</text>
</g>
<!-- Node2 -->
<g id="node2" class="node"><title>Node2</title>
<polygon fill="white" stroke="#bfbfbf" points="195.122,-0.5 195.122,-19.5 249.122,-19.5 249.122,-0.5 195.122,-0.5"/>
<text text-anchor="middle" x="222.122" y="-7.5" font-family="Helvetica,sans-Serif" font-size="10.00">iostream</text>
</g>
<!-- Node1&#45;&gt;Node2 -->
<g id="edge1" class="edge"><title>Node1&#45;&gt;Node2</title>
<path fill="none" stroke="midnightblue" d="M315.291,-168.304C302.648,-160.253 284.73,-147.248 273.122,-132 248.703,-99.9255 233.685,-54.4285 226.731,-29.3561"/>
<polygon fill="midnightblue" stroke="midnightblue" points="230.112,-28.4486 224.17,-19.6768 223.345,-30.2394 230.112,-28.4486"/>
</g>
<!-- Node3 -->
<g id="node3" class="node"><title>Node3</title>
<polygon fill="white" stroke="#bfbfbf" points="14.1217,-112.5 14.1217,-131.5 64.1217,-131.5 64.1217,-112.5 14.1217,-112.5"/>
<text text-anchor="middle" x="39.1217" y="-119.5" font-family="Helvetica,sans-Serif" font-size="10.00">iomanip</text>
</g>
<!-- Node1&#45;&gt;Node3 -->
<g id="edge2" class="edge"><title>Node1&#45;&gt;Node3</title>
<path fill="none" stroke="midnightblue" d="M297.896,-172.263C250.856,-165.152 160.456,-150.746 74.2589,-132.1"/>
<polygon fill="midnightblue" stroke="midnightblue" points="74.8312,-128.642 64.3143,-129.925 73.3358,-135.481 74.8312,-128.642"/>
</g>
<!-- Node4 -->
<g id="node4" class="node"><title>Node4</title>
<polygon fill="white" stroke="#bfbfbf" points="82.1217,-112.5 82.1217,-131.5 132.122,-131.5 132.122,-112.5 82.1217,-112.5"/>
<text text-anchor="middle" x="107.122" y="-119.5" font-family="Helvetica,sans-Serif" font-size="10.00">fstream</text>
</g>
<!-- Node1&#45;&gt;Node4 -->
<g id="edge3" class="edge"><title>Node1&#45;&gt;Node4</title>
<path fill="none" stroke="midnightblue" d="M297.958,-169.6C262.212,-161.32 202.532,-147.327 142.063,-132.193"/>
<polygon fill="midnightblue" stroke="midnightblue" points="142.906,-128.796 132.354,-129.754 141.201,-135.585 142.906,-128.796"/>
</g>
<!-- Node5 -->
<g id="node5" class="node"><title>Node5</title>
<polygon fill="white" stroke="#bfbfbf" points="150.122,-112.5 150.122,-131.5 194.122,-131.5 194.122,-112.5 150.122,-112.5"/>
<text text-anchor="middle" x="172.122" y="-119.5" font-family="Helvetica,sans-Serif" font-size="10.00">cmath</text>
</g>
<!-- Node1&#45;&gt;Node5 -->
<g id="edge4" class="edge"><title>Node1&#45;&gt;Node5</title>
<path fill="none" stroke="midnightblue" d="M305.086,-168.444C277.646,-159.065 233.566,-144 203.754,-133.811"/>
<polygon fill="midnightblue" stroke="midnightblue" points="204.83,-130.48 194.236,-130.558 202.566,-137.104 204.83,-130.48"/>
</g>
<!-- Node6 -->
<g id="node6" class="node"><title>Node6</title>
<g id="a_node6"><a xlink:href="SAT__Const_8h.html" target="_top" xlink:title="SAT_Const.h">
<polygon fill="white" stroke="black" points="271.122,-56.5 271.122,-75.5 347.122,-75.5 347.122,-56.5 271.122,-56.5"/>
<text text-anchor="middle" x="309.122" y="-63.5" font-family="Helvetica,sans-Serif" font-size="10.00">SAT_Const.h</text>
</a>
</g>
</g>
<!-- Node1&#45;&gt;Node6 -->
<g id="edge5" class="edge"><title>Node1&#45;&gt;Node6</title>
<path fill="none" stroke="midnightblue" d="M315.169,-168.474C303.19,-160.702 287.249,-148.002 280.122,-132 272.781,-115.518 283.249,-96.6913 293.598,-83.557"/>
<polygon fill="midnightblue" stroke="midnightblue" points="296.363,-85.7081 300.193,-75.8297 291.039,-81.1636 296.363,-85.7081"/>
</g>
<!-- Node7 -->
<g id="node7" class="node"><title>Node7</title>
<g id="a_node7"><a xlink:href="SAT__DE_8h.html" target="_top" xlink:title="SAT_DE.h">
<polygon fill="white" stroke="black" points="520.122,-112.5 520.122,-131.5 584.122,-131.5 584.122,-112.5 520.122,-112.5"/>
<text text-anchor="middle" x="552.122" y="-119.5" font-family="Helvetica,sans-Serif" font-size="10.00">SAT_DE.h</text>
</a>
</g>
</g>
<!-- Node1&#45;&gt;Node7 -->
<g id="edge6" class="edge"><title>Node1&#45;&gt;Node7</title>
<path fill="none" stroke="midnightblue" d="M362.402,-169.148C401.368,-159.67 466.999,-143.706 509.938,-133.261"/>
<polygon fill="midnightblue" stroke="midnightblue" points="510.913,-136.626 519.802,-130.862 509.258,-129.824 510.913,-136.626"/>
</g>
<!-- Node10 -->
<g id="node10" class="node"><title>Node10</title>
<g id="a_node10"><a xlink:href="SAT__Kepler_8h.html" target="_top" xlink:title="SAT_Kepler.h">
<polygon fill="white" stroke="black" points="602.622,-112.5 602.622,-131.5 679.622,-131.5 679.622,-112.5 602.622,-112.5"/>
<text text-anchor="middle" x="641.122" y="-119.5" font-family="Helvetica,sans-Serif" font-size="10.00">SAT_Kepler.h</text>
</a>
</g>
</g>
<!-- Node1&#45;&gt;Node10 -->
<g id="edge10" class="edge"><title>Node1&#45;&gt;Node10</title>
<path fill="none" stroke="midnightblue" d="M362.133,-171.691C409.889,-163.735 502.873,-148.102 592.55,-132.078"/>
<polygon fill="midnightblue" stroke="midnightblue" points="593.393,-135.483 602.619,-130.275 592.159,-128.593 593.393,-135.483"/>
</g>
<!-- Node11 -->
<g id="node11" class="node"><title>Node11</title>
<g id="a_node11"><a xlink:href="SAT__Filter_8h.html" target="_top" xlink:title="SAT_Filter.h">
<polygon fill="white" stroke="black" points="697.622,-112.5 697.622,-131.5 768.622,-131.5 768.622,-112.5 697.622,-112.5"/>
<text text-anchor="middle" x="733.122" y="-119.5" font-family="Helvetica,sans-Serif" font-size="10.00">SAT_Filter.h</text>
</a>
</g>
</g>
<!-- Node1&#45;&gt;Node11 -->
<g id="edge12" class="edge"><title>Node1&#45;&gt;Node11</title>
<path fill="none" stroke="midnightblue" d="M362.325,-173.742C423.513,-167.382 560.98,-152.281 687.084,-132.061"/>
<polygon fill="midnightblue" stroke="midnightblue" points="687.991,-135.46 697.303,-130.407 686.872,-128.55 687.991,-135.46"/>
</g>
<!-- Node12 -->
<g id="node12" class="node"><title>Node12</title>
<g id="a_node12"><a xlink:href="SAT__Force_8h.html" target="_top" xlink:title="SAT_Force.h">
<polygon fill="white" stroke="black" points="390.122,-112.5 390.122,-131.5 464.122,-131.5 464.122,-112.5 390.122,-112.5"/>
<text text-anchor="middle" x="427.122" y="-119.5" font-family="Helvetica,sans-Serif" font-size="10.00">SAT_Force.h</text>
</a>
</g>
</g>
<!-- Node1&#45;&gt;Node12 -->
<g id="edge14" class="edge"><title>Node1&#45;&gt;Node12</title>
<path fill="none" stroke="midnightblue" d="M345.706,-168.324C361.121,-159.743 384.934,-146.486 402.831,-136.522"/>
<polygon fill="midnightblue" stroke="midnightblue" points="404.541,-139.577 411.576,-131.655 401.136,-133.461 404.541,-139.577"/>
</g>
<!-- Node13 -->
<g id="node13" class="node"><title>Node13</title>
<g id="a_node13"><a xlink:href="SAT__RefSys_8h.html" target="_top" xlink:title="SAT_RefSys.h">
<polygon fill="white" stroke="black" points="288.622,-112.5 288.622,-131.5 371.622,-131.5 371.622,-112.5 288.622,-112.5"/>
<text text-anchor="middle" x="330.122" y="-119.5" font-family="Helvetica,sans-Serif" font-size="10.00">SAT_RefSys.h</text>
</a>
</g>
</g>
<!-- Node1&#45;&gt;Node13 -->
<g id="edge16" class="edge"><title>Node1&#45;&gt;Node13</title>
<path fill="none" stroke="midnightblue" d="M330.122,-168.083C330.122,-161.006 330.122,-150.861 330.122,-141.986"/>
<polygon fill="midnightblue" stroke="midnightblue" points="333.622,-141.751 330.122,-131.751 326.622,-141.751 333.622,-141.751"/>
</g>
<!-- Node14 -->
<g id="node14" class="node"><title>Node14</title>
<g id="a_node14"><a xlink:href="SAT__Time_8h.html" target="_top" xlink:title="SAT_Time.h">
<polygon fill="white" stroke="black" points="36.6217,-56.5 36.6217,-75.5 107.622,-75.5 107.622,-56.5 36.6217,-56.5"/>
<text text-anchor="middle" x="72.1217" y="-63.5" font-family="Helvetica,sans-Serif" font-size="10.00">SAT_Time.h</text>
</a>
</g>
</g>
<!-- Node1&#45;&gt;Node14 -->
<g id="edge19" class="edge"><title>Node1&#45;&gt;Node14</title>
<path fill="none" stroke="midnightblue" d="M297.884,-177.629C223.415,-178.319 42.91,-175.381 5.12167,-132 -11.5853,-112.82 17.3766,-92.7266 42.2894,-80.0486"/>
<polygon fill="midnightblue" stroke="midnightblue" points="44.0614,-83.0793 51.5355,-75.5701 41.0099,-76.7794 44.0614,-83.0793"/>
</g>
<!-- Node8 -->
<g id="node8" class="node"><title>Node8</title>
<g id="a_node8"><a xlink:href="SAT__VecMat_8h.html" target="_top" xlink:title="SAT_VecMat.h">
<polygon fill="white" stroke="black" points="450.622,-56.5 450.622,-75.5 533.622,-75.5 533.622,-56.5 450.622,-56.5"/>
<text text-anchor="middle" x="492.122" y="-63.5" font-family="Helvetica,sans-Serif" font-size="10.00">SAT_VecMat.h</text>
</a>
</g>
</g>
<!-- Node1&#45;&gt;Node8 -->
<g id="edge21" class="edge"><title>Node1&#45;&gt;Node8</title>
<path fill="none" stroke="midnightblue" d="M362.168,-175.405C394.493,-172.076 443.706,-162.025 473.122,-132 485.067,-119.807 489.575,-100.537 491.238,-86.1395"/>
<polygon fill="midnightblue" stroke="midnightblue" points="494.752,-86.1105 492.051,-75.8657 487.773,-85.5586 494.752,-86.1105"/>
</g>
<!-- Node15 -->
<g id="node15" class="node"><title>Node15</title>
<g id="a_node15"><a xlink:href="GNU__iomanip_8h.html" target="_top" xlink:title="GNU_iomanip.h">
<polygon fill="white" stroke="black" points="787.122,-112.5 787.122,-131.5 873.122,-131.5 873.122,-112.5 787.122,-112.5"/>
<text text-anchor="middle" x="830.122" y="-119.5" font-family="Helvetica,sans-Serif" font-size="10.00">GNU_iomanip.h</text>
</a>
</g>
</g>
<!-- Node1&#45;&gt;Node15 -->
<g id="edge22" class="edge"><title>Node1&#45;&gt;Node15</title>
<path fill="none" stroke="midnightblue" d="M362.188,-174.524C435.732,-168.68 622.146,-152.934 777.122,-132 777.223,-131.986 777.324,-131.973 777.425,-131.959"/>
<polygon fill="midnightblue" stroke="midnightblue" points="777.665,-135.461 787.06,-130.564 776.662,-128.533 777.665,-135.461"/>
</g>
<!-- Node7&#45;&gt;Node8 -->
<g id="edge7" class="edge"><title>Node7&#45;&gt;Node8</title>
<path fill="none" stroke="midnightblue" d="M542.482,-112.324C533.612,-104.341 520.247,-92.3128 509.514,-82.6529"/>
<polygon fill="midnightblue" stroke="midnightblue" points="511.711,-79.922 501.937,-75.8339 507.029,-85.1251 511.711,-79.922"/>
</g>
<!-- Node8&#45;&gt;Node2 -->
<g id="edge8" class="edge"><title>Node8&#45;&gt;Node2</title>
<path fill="none" stroke="midnightblue" d="M450.526,-56.6808C398.324,-46.2404 309.574,-28.4905 259.458,-18.4673"/>
<polygon fill="midnightblue" stroke="midnightblue" points="259.87,-14.9803 249.377,-16.4511 258.497,-21.8444 259.87,-14.9803"/>
</g>
<!-- Node9 -->
<g id="node9" class="node"><title>Node9</title>
<polygon fill="white" stroke="#bfbfbf" points="469.622,-0.5 469.622,-19.5 514.622,-19.5 514.622,-0.5 469.622,-0.5"/>
<text text-anchor="middle" x="492.122" y="-7.5" font-family="Helvetica,sans-Serif" font-size="10.00">cstdlib</text>
</g>
<!-- Node8&#45;&gt;Node9 -->
<g id="edge9" class="edge"><title>Node8&#45;&gt;Node9</title>
<path fill="none" stroke="midnightblue" d="M492.122,-56.083C492.122,-49.0059 492.122,-38.8611 492.122,-29.9865"/>
<polygon fill="midnightblue" stroke="midnightblue" points="495.622,-29.751 492.122,-19.7511 488.622,-29.7511 495.622,-29.751"/>
</g>
<!-- Node10&#45;&gt;Node8 -->
<g id="edge11" class="edge"><title>Node10&#45;&gt;Node8</title>
<path fill="none" stroke="midnightblue" d="M617.512,-112.444C592.664,-103.438 553.347,-89.1891 525.368,-79.049"/>
<polygon fill="midnightblue" stroke="midnightblue" points="526.215,-75.6332 515.621,-75.5164 523.83,-82.2144 526.215,-75.6332"/>
</g>
<!-- Node11&#45;&gt;Node8 -->
<g id="edge13" class="edge"><title>Node11&#45;&gt;Node8</title>
<path fill="none" stroke="midnightblue" d="M697.561,-113.032C655.843,-103.684 586.488,-88.1443 540.05,-77.739"/>
<polygon fill="midnightblue" stroke="midnightblue" points="540.741,-74.3072 530.217,-75.536 539.21,-81.1378 540.741,-74.3072"/>
</g>
<!-- Node12&#45;&gt;Node8 -->
<g id="edge15" class="edge"><title>Node12&#45;&gt;Node8</title>
<path fill="none" stroke="midnightblue" d="M437.565,-112.324C447.268,-104.263 461.937,-92.0765 473.621,-82.3695"/>
<polygon fill="midnightblue" stroke="midnightblue" points="476.033,-84.9163 481.488,-75.8339 471.56,-79.532 476.033,-84.9163"/>
</g>
<!-- Node13&#45;&gt;Node6 -->
<g id="edge17" class="edge"><title>Node13&#45;&gt;Node6</title>
<path fill="none" stroke="midnightblue" d="M326.654,-112.083C323.81,-104.77 319.692,-94.1814 316.162,-85.1034"/>
<polygon fill="midnightblue" stroke="midnightblue" points="319.411,-83.8025 312.525,-75.7511 312.887,-86.3397 319.411,-83.8025"/>
</g>
<!-- Node13&#45;&gt;Node8 -->
<g id="edge18" class="edge"><title>Node13&#45;&gt;Node8</title>
<path fill="none" stroke="midnightblue" d="M355.791,-112.444C383.044,-103.359 426.305,-88.9388 456.772,-78.7831"/>
<polygon fill="midnightblue" stroke="midnightblue" points="458.192,-81.9992 466.572,-75.5164 455.979,-75.3584 458.192,-81.9992"/>
</g>
<!-- Node14&#45;&gt;Node2 -->
<g id="edge20" class="edge"><title>Node14&#45;&gt;Node2</title>
<path fill="none" stroke="midnightblue" d="M95.8896,-56.4435C121.014,-47.3986 160.833,-33.064 189.022,-22.9158"/>
<polygon fill="midnightblue" stroke="midnightblue" points="190.242,-26.1968 198.465,-19.5164 187.87,-19.6106 190.242,-26.1968"/>
</g>
</g>
</svg>
