<?xml version="1.0" encoding="UTF-8" standalone="no"?>
<!DOCTYPE svg PUBLIC "-//W3C//DTD SVG 1.1//EN"
 "http://www.w3.org/Graphics/SVG/1.1/DTD/svg11.dtd">
<!-- Generated by graphviz version 2.30.1 (20180420.1509)
 -->
<!-- Title: main Pages: 1 -->
<svg width="770pt" height="978pt"
 viewBox="0.00 0.00 770.00 978.00" xmlns="http://www.w3.org/2000/svg" xmlns:xlink="http://www.w3.org/1999/xlink">
<g id="graph0" class="graph" transform="scale(1 1) rotate(0) translate(4 974)">
<title>main</title>
<polygon fill="white" stroke="white" points="-4,5 -4,-974 767,-974 767,5 -4,5"/>
<!-- Node1 -->
<g id="node1" class="node"><title>Node1</title>
<polygon fill="#bfbfbf" stroke="black" points="0,-513.5 0,-532.5 38,-532.5 38,-513.5 0,-513.5"/>
<text text-anchor="middle" x="19" y="-520.5" font-family="Helvetica,sans-Serif" font-size="10.00">main</text>
</g>
<!-- Node2 -->
<g id="node2" class="node"><title>Node2</title>
<g id="a_node2"><a xlink:href="GEODA_8cpp.html#ad363d83dfb0be87465bd76a2e5e0ff6b" target="_top" xlink:title="Phi">
<polygon fill="white" stroke="black" points="107.5,-950.5 107.5,-969.5 138.5,-969.5 138.5,-950.5 107.5,-950.5"/>
<text text-anchor="middle" x="123" y="-957.5" font-family="Helvetica,sans-Serif" font-size="10.00">Phi</text>
</a>
</g>
</g>
<!-- Node1&#45;&gt;Node2 -->
<g id="edge1" class="edge"><title>Node1&#45;&gt;Node2</title>
<path fill="none" stroke="midnightblue" d="M20.0657,-532.818C20.6167,-588.869 25.7781,-868.251 74,-936 79.7311,-944.052 88.9543,-949.552 97.7915,-953.232"/>
<polygon fill="midnightblue" stroke="midnightblue" points="96.8035,-956.595 107.398,-956.653 99.1518,-950.001 96.8035,-956.595"/>
</g>
<!-- Node3 -->
<g id="node3" class="node"><title>Node3</title>
<g id="a_node3"><a xlink:href="RTOD_8cpp.html#a8ed60f2e5115e2e00c123e12b1cbb649" target="_top" xlink:title="Deriv">
<polygon fill="white" stroke="black" points="103,-608.5 103,-627.5 143,-627.5 143,-608.5 103,-608.5"/>
<text text-anchor="middle" x="123" y="-615.5" font-family="Helvetica,sans-Serif" font-size="10.00">Deriv</text>
</a>
</g>
</g>
<!-- Node1&#45;&gt;Node3 -->
<g id="edge2" class="edge"><title>Node1&#45;&gt;Node3</title>
<path fill="none" stroke="midnightblue" d="M25.4881,-532.859C34.1614,-547.716 52.3,-576.013 74,-594 79.687,-598.714 86.4551,-602.81 93.0894,-606.219"/>
<polygon fill="midnightblue" stroke="midnightblue" points="92.0366,-609.593 102.572,-610.713 95.0347,-603.267 92.0366,-609.593"/>
</g>
<!-- Node18 -->
<g id="node18" class="node"><title>Node18</title>
<g id="a_node18"><a xlink:href="classIERS.html#ae1161daecc9629cdb716884cef9d1fa9" target="_top" xlink:title="IERS::Set">
<polygon fill="white" stroke="black" points="225,-912.5 225,-931.5 287,-931.5 287,-912.5 225,-912.5"/>
<text text-anchor="middle" x="256" y="-919.5" font-family="Helvetica,sans-Serif" font-size="10.00">IERS::Set</text>
</a>
</g>
</g>
<!-- Node1&#45;&gt;Node18 -->
<g id="edge18" class="edge"><title>Node1&#45;&gt;Node18</title>
<path fill="none" stroke="midnightblue" d="M19.8909,-532.517C19.49,-585.631 20.3315,-844.929 74,-898 110.674,-934.266 173.848,-934.127 215.021,-929.209"/>
<polygon fill="midnightblue" stroke="midnightblue" points="215.537,-932.672 224.985,-927.875 214.609,-925.733 215.537,-932.672"/>
</g>
<!-- Node19 -->
<g id="node19" class="node"><title>Node19</title>
<g id="a_node19"><a xlink:href="GEODA_8cpp.html#af62e04db95805bf3f19fcdfdbc66a49a" target="_top" xlink:title="GetSetup">
<polygon fill="white" stroke="black" points="94,-836.5 94,-855.5 152,-855.5 152,-836.5 94,-836.5"/>
<text text-anchor="middle" x="123" y="-843.5" font-family="Helvetica,sans-Serif" font-size="10.00">GetSetup</text>
</a>
</g>
</g>
<!-- Node1&#45;&gt;Node19 -->
<g id="edge20" class="edge"><title>Node1&#45;&gt;Node19</title>
<path fill="none" stroke="midnightblue" d="M20.5985,-532.694C23.6043,-578.66 38.343,-774.399 74,-822 76.9849,-825.985 80.8151,-829.352 85.0078,-832.185"/>
<polygon fill="midnightblue" stroke="midnightblue" points="83.5447,-835.379 93.9679,-837.279 87.0042,-829.294 83.5447,-835.379"/>
</g>
<!-- Node20 -->
<g id="node20" class="node"><title>Node20</title>
<g id="a_node20"><a xlink:href="RTOD_8cpp.html#a414f260c3afbab0dddecaf55f18baecf" target="_top" xlink:title="GetObs">
<polygon fill="white" stroke="black" points="98,-722.5 98,-741.5 148,-741.5 148,-722.5 98,-722.5"/>
<text text-anchor="middle" x="123" y="-729.5" font-family="Helvetica,sans-Serif" font-size="10.00">GetObs</text>
</a>
</g>
</g>
<!-- Node1&#45;&gt;Node20 -->
<g id="edge21" class="edge"><title>Node1&#45;&gt;Node20</title>
<path fill="none" stroke="midnightblue" d="M20.2089,-532.691C21.3422,-562.41 28.5451,-653.547 74,-708 77.9779,-712.765 83.1364,-716.676 88.5916,-719.854"/>
<polygon fill="midnightblue" stroke="midnightblue" points="87.3897,-723.167 97.8962,-724.532 90.534,-716.913 87.3897,-723.167"/>
</g>
<!-- Node8 -->
<g id="node8" class="node"><title>Node8</title>
<g id="a_node8"><a xlink:href="classIERS.html#a2601a074a58e3c470db336bc1aea6791" target="_top" xlink:title="IERS::UT1_UTC">
<polygon fill="white" stroke="black" points="341,-798.5 341,-817.5 433,-817.5 433,-798.5 341,-798.5"/>
<text text-anchor="middle" x="387" y="-805.5" font-family="Helvetica,sans-Serif" font-size="10.00">IERS::UT1_UTC</text>
</a>
</g>
</g>
<!-- Node1&#45;&gt;Node8 -->
<g id="edge23" class="edge"><title>Node1&#45;&gt;Node8</title>
<path fill="none" stroke="midnightblue" d="M20.4968,-532.61C22.9309,-575.611 35.0985,-749.758 74,-784 110.881,-816.463 251.403,-815.033 330.697,-811.399"/>
<polygon fill="midnightblue" stroke="midnightblue" points="331.174,-814.88 340.992,-810.899 330.834,-807.888 331.174,-814.88"/>
</g>
<!-- Node11 -->
<g id="node11" class="node"><title>Node11</title>
<g id="a_node11"><a xlink:href="classIERS.html#a79c2d9fcfafe0c0d8cee4545e17af0f3" target="_top" xlink:title="IERS::GPS_UTC">
<polygon fill="white" stroke="black" points="340,-855.5 340,-874.5 434,-874.5 434,-855.5 340,-855.5"/>
<text text-anchor="middle" x="387" y="-862.5" font-family="Helvetica,sans-Serif" font-size="10.00">IERS::GPS_UTC</text>
</a>
</g>
</g>
<!-- Node1&#45;&gt;Node11 -->
<g id="edge24" class="edge"><title>Node1&#45;&gt;Node11</title>
<path fill="none" stroke="midnightblue" d="M19.927,-532.781C19.7703,-583.983 21.903,-820.483 74,-865 111.046,-896.656 250.133,-883.815 329.529,-873.387"/>
<polygon fill="midnightblue" stroke="midnightblue" points="330.402,-876.801 339.847,-872.001 329.47,-869.864 330.402,-876.801"/>
</g>
<!-- Node12 -->
<g id="node12" class="node"><title>Node12</title>
<g id="a_node12"><a xlink:href="SAT__VecMat_8cpp.html#a94c9c4e1f3afc6636dda6572f72ef4c2" target="_top" xlink:title="R_z">
<polygon fill="white" stroke="black" points="369.5,-456.5 369.5,-475.5 404.5,-475.5 404.5,-456.5 369.5,-456.5"/>
<text text-anchor="middle" x="387" y="-463.5" font-family="Helvetica,sans-Serif" font-size="10.00">R_z</text>
</a>
</g>
</g>
<!-- Node1&#45;&gt;Node12 -->
<g id="edge25" class="edge"><title>Node1&#45;&gt;Node12</title>
<path fill="none" stroke="midnightblue" d="M21.1548,-513.421C24.49,-490.527 36.4337,-432.773 74,-409 121.699,-378.814 293.125,-433.543 359.494,-456.532"/>
<polygon fill="midnightblue" stroke="midnightblue" points="358.614,-459.932 369.209,-459.931 360.926,-453.325 358.614,-459.932"/>
</g>
<!-- Node13 -->
<g id="node13" class="node"><title>Node13</title>
<g id="a_node13"><a xlink:href="SAT__RefSys_8cpp.html#a2a4cc14aa92a1449e08540255af19f8e" target="_top" xlink:title="GMST">
<polygon fill="white" stroke="black" points="364.5,-532.5 364.5,-551.5 409.5,-551.5 409.5,-532.5 364.5,-532.5"/>
<text text-anchor="middle" x="387" y="-539.5" font-family="Helvetica,sans-Serif" font-size="10.00">GMST</text>
</a>
</g>
</g>
<!-- Node1&#45;&gt;Node13 -->
<g id="edge26" class="edge"><title>Node1&#45;&gt;Node13</title>
<path fill="none" stroke="midnightblue" d="M29.7089,-532.688C39.7915,-542.004 56.5136,-555.464 74,-561 115.524,-574.146 128.487,-562.928 172,-561 236.958,-558.122 312.681,-550.353 354.387,-545.689"/>
<polygon fill="midnightblue" stroke="midnightblue" points="354.933,-549.15 364.476,-544.547 354.145,-542.194 354.933,-549.15"/>
</g>
<!-- Node17 -->
<g id="node17" class="node"><title>Node17</title>
<g id="a_node17"><a xlink:href="SAT__VecMat_8cpp.html#aa54829a0c63c78e6bfbd12285ad94075" target="_top" xlink:title="Transp">
<polygon fill="white" stroke="black" points="513.5,-684.5 513.5,-703.5 560.5,-703.5 560.5,-684.5 513.5,-684.5"/>
<text text-anchor="middle" x="537" y="-691.5" font-family="Helvetica,sans-Serif" font-size="10.00">Transp</text>
</a>
</g>
</g>
<!-- Node1&#45;&gt;Node17 -->
<g id="edge27" class="edge"><title>Node1&#45;&gt;Node17</title>
<path fill="none" stroke="midnightblue" d="M20.7304,-532.515C23.9837,-572.101 38.5834,-722.992 74,-751 140.675,-803.728 409.736,-731.31 503.546,-703.815"/>
<polygon fill="midnightblue" stroke="midnightblue" points="504.739,-707.112 513.337,-700.921 502.755,-700.399 504.739,-707.112"/>
</g>
<!-- Node5 -->
<g id="node5" class="node"><title>Node5</title>
<g id="a_node5"><a xlink:href="SAT__VecMat_8cpp.html#ad3352c6f838a6a97403bc6f2d6bda5df" target="_top" xlink:title="Stack">
<polygon fill="white" stroke="black" points="366,-418.5 366,-437.5 408,-437.5 408,-418.5 366,-418.5"/>
<text text-anchor="middle" x="387" y="-425.5" font-family="Helvetica,sans-Serif" font-size="10.00">Stack</text>
</a>
</g>
</g>
<!-- Node1&#45;&gt;Node5 -->
<g id="edge28" class="edge"><title>Node1&#45;&gt;Node5</title>
<path fill="none" stroke="midnightblue" d="M21.2447,-513.173C25.9869,-477.469 44.1743,-355.53 74,-333 108.754,-306.747 131.989,-315.79 172,-333 193.371,-342.192 188.303,-358.619 208,-371 232.988,-386.707 312.347,-408.874 356.185,-420.388"/>
<polygon fill="midnightblue" stroke="midnightblue" points="355.438,-423.81 365.997,-422.943 357.202,-417.036 355.438,-423.81"/>
</g>
<!-- Node22 -->
<g id="node22" class="node"><title>Node22</title>
<g id="a_node22"><a xlink:href="SAT__VecMat_8cpp.html#af7d7bb183b22c5c942a8afdadc433bc2" target="_top" xlink:title="Diag">
<polygon fill="white" stroke="black" points="104.5,-532.5 104.5,-551.5 141.5,-551.5 141.5,-532.5 104.5,-532.5"/>
<text text-anchor="middle" x="123" y="-539.5" font-family="Helvetica,sans-Serif" font-size="10.00">Diag</text>
</a>
</g>
</g>
<!-- Node1&#45;&gt;Node22 -->
<g id="edge29" class="edge"><title>Node1&#45;&gt;Node22</title>
<path fill="none" stroke="midnightblue" d="M38.2356,-526.397C53.8513,-529.306 76.5742,-533.538 94.4146,-536.862"/>
<polygon fill="midnightblue" stroke="midnightblue" points="93.7921,-540.306 104.264,-538.696 95.074,-533.424 93.7921,-540.306"/>
</g>
<!-- Node23 -->
<g id="node23" class="node"><title>Node23</title>
<g id="a_node23"><a xlink:href="classEKF.html#acf949c77d116256b94cb4f56b874de4e" target="_top" xlink:title="EKF::Init">
<polygon fill="white" stroke="black" points="95,-494.5 95,-513.5 151,-513.5 151,-494.5 95,-494.5"/>
<text text-anchor="middle" x="123" y="-501.5" font-family="Helvetica,sans-Serif" font-size="10.00">EKF::Init</text>
</a>
</g>
</g>
<!-- Node1&#45;&gt;Node23 -->
<g id="edge30" class="edge"><title>Node1&#45;&gt;Node23</title>
<path fill="none" stroke="midnightblue" d="M38.2356,-519.603C51.1152,-517.204 68.8294,-513.904 84.6514,-510.957"/>
<polygon fill="midnightblue" stroke="midnightblue" points="85.5157,-514.356 94.7057,-509.084 84.2338,-507.475 85.5157,-514.356"/>
</g>
<!-- Node24 -->
<g id="node24" class="node"><title>Node24</title>
<g id="a_node24"><a xlink:href="classEKF.html#aca97d9e3ba20ff1ac5dbf1c4a913c989" target="_top" xlink:title="EKF::Time">
<polygon fill="white" stroke="black" points="91,-456.5 91,-475.5 155,-475.5 155,-456.5 91,-456.5"/>
<text text-anchor="middle" x="123" y="-463.5" font-family="Helvetica,sans-Serif" font-size="10.00">EKF::Time</text>
</a>
</g>
</g>
<!-- Node1&#45;&gt;Node24 -->
<g id="edge31" class="edge"><title>Node1&#45;&gt;Node24</title>
<path fill="none" stroke="midnightblue" d="M31.9038,-513.38C42.5051,-505.122 58.6673,-493.278 74,-485 77.5366,-483.091 81.307,-481.267 85.1208,-479.558"/>
<polygon fill="midnightblue" stroke="midnightblue" points="86.732,-482.677 94.582,-475.562 84.0082,-476.229 86.732,-482.677"/>
</g>
<!-- Node25 -->
<g id="node25" class="node"><title>Node25</title>
<g id="a_node25"><a xlink:href="classEKF.html#accc2ee72c5f8727727fafffe6cf0c10a" target="_top" xlink:title="EKF::State">
<polygon fill="white" stroke="black" points="90.5,-418.5 90.5,-437.5 155.5,-437.5 155.5,-418.5 90.5,-418.5"/>
<text text-anchor="middle" x="123" y="-425.5" font-family="Helvetica,sans-Serif" font-size="10.00">EKF::State</text>
</a>
</g>
</g>
<!-- Node1&#45;&gt;Node25 -->
<g id="edge32" class="edge"><title>Node1&#45;&gt;Node25</title>
<path fill="none" stroke="midnightblue" d="M24.4631,-513.483C32.3467,-497.62 50.1814,-465.676 74,-447 76.2811,-445.211 78.7521,-443.571 81.3284,-442.071"/>
<polygon fill="midnightblue" stroke="midnightblue" points="83.0291,-445.133 90.3714,-437.495 79.8685,-438.887 83.0291,-445.133"/>
</g>
<!-- Node26 -->
<g id="node26" class="node"><title>Node26</title>
<g id="a_node26"><a xlink:href="SAT__Kepler_8cpp.html#aeb2175e4cdc39ea590f44fc2949ea8d3" target="_top" xlink:title="TwoBody">
<polygon fill="white" stroke="black" points="94,-266.5 94,-285.5 152,-285.5 152,-266.5 94,-266.5"/>
<text text-anchor="middle" x="123" y="-273.5" font-family="Helvetica,sans-Serif" font-size="10.00">TwoBody</text>
</a>
</g>
</g>
<!-- Node1&#45;&gt;Node26 -->
<g id="edge33" class="edge"><title>Node1&#45;&gt;Node26</title>
<path fill="none" stroke="midnightblue" d="M19.618,-513.299C18.8097,-479.793 20.4099,-367.315 74,-300 77.0665,-296.148 80.9123,-292.864 85.0849,-290.077"/>
<polygon fill="midnightblue" stroke="midnightblue" points="86.9982,-293.015 93.9641,-285.033 83.5404,-286.929 86.9982,-293.015"/>
</g>
<!-- Node36 -->
<g id="node36" class="node"><title>Node36</title>
<g id="a_node36"><a xlink:href="classRK4.html#aa520ec0bb1bb2ccdd13ab48418303706" target="_top" xlink:title="RK4::Step">
<polygon fill="white" stroke="black" points="92,-342.5 92,-361.5 154,-361.5 154,-342.5 92,-342.5"/>
<text text-anchor="middle" x="123" y="-349.5" font-family="Helvetica,sans-Serif" font-size="10.00">RK4::Step</text>
</a>
</g>
</g>
<!-- Node1&#45;&gt;Node36 -->
<g id="edge56" class="edge"><title>Node1&#45;&gt;Node36</title>
<path fill="none" stroke="midnightblue" d="M21.1027,-513.146C24.4506,-487.495 36.6669,-417.751 74,-376 77.2449,-372.371 81.1648,-369.224 85.349,-366.513"/>
<polygon fill="midnightblue" stroke="midnightblue" points="87.1782,-369.499 94.1771,-361.545 83.7456,-363.399 87.1782,-369.499"/>
</g>
<!-- Node37 -->
<g id="node37" class="node"><title>Node37</title>
<g id="a_node37"><a xlink:href="classEKF.html#a581eb4063feb02eeff09dabeaf07e994" target="_top" xlink:title="EKF::TimeUpdate">
<polygon fill="white" stroke="black" points="208.5,-684.5 208.5,-703.5 303.5,-703.5 303.5,-684.5 208.5,-684.5"/>
<text text-anchor="middle" x="256" y="-691.5" font-family="Helvetica,sans-Serif" font-size="10.00">EKF::TimeUpdate</text>
</a>
</g>
</g>
<!-- Node1&#45;&gt;Node37 -->
<g id="edge57" class="edge"><title>Node1&#45;&gt;Node37</title>
<path fill="none" stroke="midnightblue" d="M20.328,-532.837C21.7991,-559.7 29.86,-634.648 74,-670 108.522,-697.649 159.182,-702.288 198.133,-700.786"/>
<polygon fill="midnightblue" stroke="midnightblue" points="198.474,-704.273 208.275,-700.248 198.104,-697.283 198.474,-704.273"/>
</g>
<!-- Node29 -->
<g id="node29" class="node"><title>Node29</title>
<g id="a_node29"><a xlink:href="SAT__VecMat_8cpp.html#a313ce8c9730e0bd08a1396f364f0486c" target="_top" xlink:title="Norm">
<polygon fill="white" stroke="black" points="366.5,-152.5 366.5,-171.5 407.5,-171.5 407.5,-152.5 366.5,-152.5"/>
<text text-anchor="middle" x="387" y="-159.5" font-family="Helvetica,sans-Serif" font-size="10.00">Norm</text>
</a>
</g>
</g>
<!-- Node1&#45;&gt;Node29 -->
<g id="edge59" class="edge"><title>Node1&#45;&gt;Node29</title>
<path fill="none" stroke="midnightblue" d="M20.5393,-513.287C23.1575,-469.814 36.0052,-293.631 74,-257 148.588,-185.089 207.999,-257.968 304,-219 327.856,-209.317 351.628,-191.687 367.385,-178.589"/>
<polygon fill="midnightblue" stroke="midnightblue" points="369.935,-181.015 375.265,-171.858 365.388,-175.692 369.935,-181.015"/>
</g>
<!-- Node38 -->
<g id="node38" class="node"><title>Node38</title>
<g id="a_node38"><a xlink:href="classEKF.html#a2384ab018c26960ee808a9a1ae66d319" target="_top" xlink:title="EKF::MeasUpdate">
<polygon fill="white" stroke="black" points="74,-171.5 74,-190.5 172,-190.5 172,-171.5 74,-171.5"/>
<text text-anchor="middle" x="123" y="-178.5" font-family="Helvetica,sans-Serif" font-size="10.00">EKF::MeasUpdate</text>
</a>
</g>
</g>
<!-- Node1&#45;&gt;Node38 -->
<g id="edge60" class="edge"><title>Node1&#45;&gt;Node38</title>
<path fill="none" stroke="midnightblue" d="M19.5638,-513.468C18.2094,-474.659 17.1428,-325.771 74,-224 79.9325,-213.381 89.4832,-204.026 98.509,-196.777"/>
<polygon fill="midnightblue" stroke="midnightblue" points="100.649,-199.547 106.532,-190.736 96.4377,-193.955 100.649,-199.547"/>
</g>
<!-- Node4 -->
<g id="node4" class="node"><title>Node4</title>
<g id="a_node4"><a xlink:href="classVector.html#ae58ec75ebd2a2d60775c2e0ee98a35ae" target="_top" xlink:title="Vector::slice">
<polygon fill="white" stroke="black" points="351.5,-608.5 351.5,-627.5 422.5,-627.5 422.5,-608.5 351.5,-608.5"/>
<text text-anchor="middle" x="387" y="-615.5" font-family="Helvetica,sans-Serif" font-size="10.00">Vector::slice</text>
</a>
</g>
</g>
<!-- Node1&#45;&gt;Node4 -->
<g id="edge64" class="edge"><title>Node1&#45;&gt;Node4</title>
<path fill="none" stroke="midnightblue" d="M21.1548,-532.579C24.49,-555.473 36.4337,-613.227 74,-637 162.214,-692.825 294.03,-654.022 354.107,-631.284"/>
<polygon fill="midnightblue" stroke="midnightblue" points="355.738,-634.405 363.791,-627.52 353.202,-627.881 355.738,-634.405"/>
</g>
<!-- Node16 -->
<g id="node16" class="node"><title>Node16</title>
<g id="a_node16"><a xlink:href="SAT__VecMat_8cpp.html#a71375a6ebee7fc40c1d45985175d82e5" target="_top" xlink:title="Dot">
<polygon fill="white" stroke="black" points="521,-152.5 521,-171.5 553,-171.5 553,-152.5 521,-152.5"/>
<text text-anchor="middle" x="537" y="-159.5" font-family="Helvetica,sans-Serif" font-size="10.00">Dot</text>
</a>
</g>
</g>
<!-- Node1&#45;&gt;Node16 -->
<g id="edge65" class="edge"><title>Node1&#45;&gt;Node16</title>
<path fill="none" stroke="midnightblue" d="M20.041,-513.245C20.462,-461.068 25.0508,-215.347 74,-162 189.731,-35.8708 433.588,-120.04 511.511,-151.531"/>
<polygon fill="midnightblue" stroke="midnightblue" points="510.397,-154.857 520.977,-155.43 513.063,-148.385 510.397,-154.857"/>
</g>
<!-- Node41 -->
<g id="node41" class="node"><title>Node41</title>
<g id="a_node41"><a xlink:href="classEKF.html#a796ecb81da82ddbaa790cea3dde7435f" target="_top" xlink:title="EKF::Cov">
<polygon fill="white" stroke="black" points="93,-38.5 93,-57.5 153,-57.5 153,-38.5 93,-38.5"/>
<text text-anchor="middle" x="123" y="-45.5" font-family="Helvetica,sans-Serif" font-size="10.00">EKF::Cov</text>
</a>
</g>
</g>
<!-- Node1&#45;&gt;Node41 -->
<g id="edge66" class="edge"><title>Node1&#45;&gt;Node41</title>
<path fill="none" stroke="midnightblue" d="M19.9458,-513.45C19.7875,-455.095 21.4738,-146.65 74,-72 76.6657,-68.2116 80.1064,-64.9894 83.9206,-62.2565"/>
<polygon fill="midnightblue" stroke="midnightblue" points="85.9078,-65.1469 92.7113,-57.0251 82.3279,-59.1314 85.9078,-65.1469"/>
</g>
<!-- Node42 -->
<g id="node42" class="node"><title>Node42</title>
<g id="a_node42"><a xlink:href="classEKF.html#ada67f575947bfc34de84584724b1a16e" target="_top" xlink:title="EKF::StdDev">
<polygon fill="white" stroke="black" points="85.5,-0.5 85.5,-19.5 160.5,-19.5 160.5,-0.5 85.5,-0.5"/>
<text text-anchor="middle" x="123" y="-7.5" font-family="Helvetica,sans-Serif" font-size="10.00">EKF::StdDev</text>
</a>
</g>
</g>
<!-- Node1&#45;&gt;Node42 -->
<g id="edge67" class="edge"><title>Node1&#45;&gt;Node42</title>
<path fill="none" stroke="midnightblue" d="M20.4705,-513.151C23.7077,-447.02 43.4656,-69.0509 74,-29 74.9509,-27.7527 75.9961,-26.5872 77.1183,-25.498"/>
<polygon fill="midnightblue" stroke="midnightblue" points="79.4773,-28.1077 85.4575,-19.3619 75.3287,-22.4695 79.4773,-28.1077"/>
</g>
<!-- Node3&#45;&gt;Node4 -->
<g id="edge3" class="edge"><title>Node3&#45;&gt;Node4</title>
<path fill="none" stroke="midnightblue" d="M143.265,-618C184.651,-618 282.983,-618 340.999,-618"/>
<polygon fill="midnightblue" stroke="midnightblue" points="341.339,-621.5 351.339,-618 341.339,-614.5 341.339,-621.5"/>
</g>
<!-- Node3&#45;&gt;Node5 -->
<g id="edge4" class="edge"><title>Node3&#45;&gt;Node5</title>
<path fill="none" stroke="midnightblue" d="M134.025,-608.345C163.519,-580.337 253.373,-497.834 340,-447 345.03,-444.048 350.606,-441.332 356.09,-438.933"/>
<polygon fill="midnightblue" stroke="midnightblue" points="357.805,-442.012 365.723,-434.973 355.143,-435.537 357.805,-442.012"/>
</g>
<!-- Node7 -->
<g id="node7" class="node"><title>Node7</title>
<g id="a_node7"><a xlink:href="RTOD_8cpp.html#ad928b0e88089fe577162bad47f911adf" target="_top" xlink:title="Accel">
<polygon fill="white" stroke="black" points="235.5,-570.5 235.5,-589.5 276.5,-589.5 276.5,-570.5 235.5,-570.5"/>
<text text-anchor="middle" x="256" y="-577.5" font-family="Helvetica,sans-Serif" font-size="10.00">Accel</text>
</a>
</g>
</g>
<!-- Node3&#45;&gt;Node7 -->
<g id="edge6" class="edge"><title>Node3&#45;&gt;Node7</title>
<path fill="none" stroke="midnightblue" d="M143.049,-612.474C164.628,-606.215 200.067,-595.935 225.289,-588.618"/>
<polygon fill="midnightblue" stroke="midnightblue" points="226.44,-591.929 235.069,-585.781 224.49,-585.206 226.44,-591.929"/>
</g>
<!-- Node6 -->
<g id="node6" class="node"><title>Node6</title>
<g id="a_node6"><a xlink:href="classVector.html#a3c8f59182463d6da833e7856f06e6171" target="_top" xlink:title="Vector::size">
<polygon fill="white" stroke="black" points="502.5,-418.5 502.5,-437.5 571.5,-437.5 571.5,-418.5 502.5,-418.5"/>
<text text-anchor="middle" x="537" y="-425.5" font-family="Helvetica,sans-Serif" font-size="10.00">Vector::size</text>
</a>
</g>
</g>
<!-- Node5&#45;&gt;Node6 -->
<g id="edge5" class="edge"><title>Node5&#45;&gt;Node6</title>
<path fill="none" stroke="midnightblue" d="M408.268,-428C429.749,-428 464.336,-428 492.104,-428"/>
<polygon fill="midnightblue" stroke="midnightblue" points="492.372,-431.5 502.372,-428 492.372,-424.5 492.372,-431.5"/>
</g>
<!-- Node7&#45;&gt;Node8 -->
<g id="edge7" class="edge"><title>Node7&#45;&gt;Node8</title>
<path fill="none" stroke="midnightblue" d="M262.379,-589.507C281.925,-624.054 349.415,-743.338 375.549,-789.528"/>
<polygon fill="midnightblue" stroke="midnightblue" points="372.628,-791.473 380.598,-798.453 378.72,-788.026 372.628,-791.473"/>
</g>
<!-- Node7&#45;&gt;Node11 -->
<g id="edge10" class="edge"><title>Node7&#45;&gt;Node11</title>
<path fill="none" stroke="midnightblue" d="M262.703,-589.659C272.42,-606.477 292.268,-642.456 304,-675 327.544,-740.31 303.332,-768.049 340,-827 345.384,-835.656 353.426,-843.272 361.287,-849.369"/>
<polygon fill="midnightblue" stroke="midnightblue" points="359.451,-852.36 369.611,-855.365 363.543,-846.681 359.451,-852.36"/>
</g>
<!-- Node7&#45;&gt;Node12 -->
<g id="edge12" class="edge"><title>Node7&#45;&gt;Node12</title>
<path fill="none" stroke="midnightblue" d="M267.998,-570.28C290.085,-550.762 340.048,-506.609 367.342,-482.488"/>
<polygon fill="midnightblue" stroke="midnightblue" points="369.854,-484.94 375.029,-475.695 365.218,-479.694 369.854,-484.94"/>
</g>
<!-- Node7&#45;&gt;Node13 -->
<g id="edge13" class="edge"><title>Node7&#45;&gt;Node13</title>
<path fill="none" stroke="midnightblue" d="M276.592,-574.229C297.314,-568.124 330.313,-558.404 354.657,-551.233"/>
<polygon fill="midnightblue" stroke="midnightblue" points="355.896,-554.517 364.499,-548.334 353.918,-547.802 355.896,-554.517"/>
</g>
<!-- Node15 -->
<g id="node15" class="node"><title>Node15</title>
<g id="a_node15"><a xlink:href="SAT__Force_8cpp.html#a35b54a3eda29b936098b3cc869d6c381" target="_top" xlink:title="AccelHarmonic">
<polygon fill="white" stroke="black" points="345.5,-570.5 345.5,-589.5 428.5,-589.5 428.5,-570.5 345.5,-570.5"/>
<text text-anchor="middle" x="387" y="-577.5" font-family="Helvetica,sans-Serif" font-size="10.00">AccelHarmonic</text>
</a>
</g>
</g>
<!-- Node7&#45;&gt;Node15 -->
<g id="edge15" class="edge"><title>Node7&#45;&gt;Node15</title>
<path fill="none" stroke="midnightblue" d="M276.592,-580C292.149,-580 314.624,-580 335.162,-580"/>
<polygon fill="midnightblue" stroke="midnightblue" points="335.363,-583.5 345.363,-580 335.363,-576.5 335.363,-583.5"/>
</g>
<!-- Node9 -->
<g id="node9" class="node"><title>Node9</title>
<g id="a_node9"><a xlink:href="classIERS.html#acfce0b1a43896fed7b1bf9cefe3baebd" target="_top" xlink:title="IERS::UT1_TAI">
<polygon fill="white" stroke="black" points="494,-798.5 494,-817.5 580,-817.5 580,-798.5 494,-798.5"/>
<text text-anchor="middle" x="537" y="-805.5" font-family="Helvetica,sans-Serif" font-size="10.00">IERS::UT1_TAI</text>
</a>
</g>
</g>
<!-- Node8&#45;&gt;Node9 -->
<g id="edge8" class="edge"><title>Node8&#45;&gt;Node9</title>
<path fill="none" stroke="midnightblue" d="M433.209,-808C449.189,-808 467.292,-808 483.804,-808"/>
<polygon fill="midnightblue" stroke="midnightblue" points="483.846,-811.5 493.846,-808 483.846,-804.5 483.846,-811.5"/>
</g>
<!-- Node10 -->
<g id="node10" class="node"><title>Node10</title>
<g id="a_node10"><a xlink:href="classIERS.html#ad872e267797cb8d5be328b236287565f" target="_top" xlink:title="IERS::UTC_TAI">
<polygon fill="white" stroke="black" points="492.5,-855.5 492.5,-874.5 581.5,-874.5 581.5,-855.5 492.5,-855.5"/>
<text text-anchor="middle" x="537" y="-862.5" font-family="Helvetica,sans-Serif" font-size="10.00">IERS::UTC_TAI</text>
</a>
</g>
</g>
<!-- Node8&#45;&gt;Node10 -->
<g id="edge9" class="edge"><title>Node8&#45;&gt;Node10</title>
<path fill="none" stroke="midnightblue" d="M412.772,-817.541C437.104,-826.912 474.431,-841.288 501.628,-851.762"/>
<polygon fill="midnightblue" stroke="midnightblue" points="500.558,-855.1 511.147,-855.428 503.073,-848.568 500.558,-855.1"/>
</g>
<!-- Node11&#45;&gt;Node10 -->
<g id="edge11" class="edge"><title>Node11&#45;&gt;Node10</title>
<path fill="none" stroke="midnightblue" d="M434.017,-865C449.261,-865 466.363,-865 482.142,-865"/>
<polygon fill="midnightblue" stroke="midnightblue" points="482.288,-868.5 492.288,-865 482.288,-861.5 482.288,-868.5"/>
</g>
<!-- Node14 -->
<g id="node14" class="node"><title>Node14</title>
<g id="a_node14"><a xlink:href="namespaceanonymous__namespace_02SAT__Force_8cpp_03.html#aa6826b33621fa6ff5736c6432c487c1a" target="_top" xlink:title="anonymous_namespace\l\{SAT_Force::cpp\}::Frac">
<polygon fill="white" stroke="black" points="640,-413 640,-443 762,-443 762,-413 640,-413"/>
<text text-anchor="start" x="648" y="-431" font-family="Helvetica,sans-Serif" font-size="10.00">anonymous_namespace</text>
<text text-anchor="middle" x="701" y="-420" font-family="Helvetica,sans-Serif" font-size="10.00">{SAT_Force::cpp}::Frac</text>
</a>
</g>
</g>
<!-- Node13&#45;&gt;Node14 -->
<g id="edge14" class="edge"><title>Node13&#45;&gt;Node14</title>
<path fill="none" stroke="midnightblue" d="M409.939,-533.984C459.252,-515.966 579.934,-471.87 649.096,-446.6"/>
<polygon fill="midnightblue" stroke="midnightblue" points="650.72,-449.732 658.912,-443.013 648.318,-443.158 650.72,-449.732"/>
</g>
<!-- Node15&#45;&gt;Node16 -->
<g id="edge16" class="edge"><title>Node15&#45;&gt;Node16</title>
<path fill="none" stroke="midnightblue" d="M422.884,-570.295C427.126,-567.853 431.01,-564.804 434,-561 498.757,-478.621 442.469,-429.103 470,-328 484.943,-273.125 512.344,-211.689 526.687,-181.249"/>
<polygon fill="midnightblue" stroke="midnightblue" points="530.031,-182.369 531.174,-171.836 523.712,-179.356 530.031,-182.369"/>
</g>
<!-- Node15&#45;&gt;Node17 -->
<g id="edge17" class="edge"><title>Node15&#45;&gt;Node17</title>
<path fill="none" stroke="midnightblue" d="M415.566,-589.502C421.843,-592.172 428.329,-595.359 434,-599 468.721,-621.294 502.439,-656.034 521.088,-676.751"/>
<polygon fill="midnightblue" stroke="midnightblue" points="518.651,-679.279 527.901,-684.446 523.892,-674.638 518.651,-679.279"/>
</g>
<!-- Node18&#45;&gt;Node10 -->
<g id="edge19" class="edge"><title>Node18&#45;&gt;Node10</title>
<path fill="none" stroke="midnightblue" d="M287.123,-915.846C333.779,-906.314 424.18,-887.845 482.231,-875.985"/>
<polygon fill="midnightblue" stroke="midnightblue" points="483.224,-879.355 492.321,-873.924 481.822,-872.496 483.224,-879.355"/>
</g>
<!-- Node21 -->
<g id="node21" class="node"><title>Node21</title>
<g id="a_node21"><a xlink:href="SAT__Time_8cpp.html#a5c8f481874f5f0d660aa2c5edebdc29f" target="_top" xlink:title="Mjd">
<polygon fill="white" stroke="black" points="240,-722.5 240,-741.5 272,-741.5 272,-722.5 240,-722.5"/>
<text text-anchor="middle" x="256" y="-729.5" font-family="Helvetica,sans-Serif" font-size="10.00">Mjd</text>
</a>
</g>
</g>
<!-- Node20&#45;&gt;Node21 -->
<g id="edge22" class="edge"><title>Node20&#45;&gt;Node21</title>
<path fill="none" stroke="midnightblue" d="M148.027,-732C171.111,-732 205.868,-732 229.448,-732"/>
<polygon fill="midnightblue" stroke="midnightblue" points="229.72,-735.5 239.72,-732 229.72,-728.5 229.72,-735.5"/>
</g>
<!-- Node27 -->
<g id="node27" class="node"><title>Node27</title>
<g id="a_node27"><a xlink:href="SAT__Kepler_8cpp.html#a1d7fdd2727e376b6aa5a54877ca6a205" target="_top" xlink:title="Elements">
<polygon fill="white" stroke="black" points="227,-266.5 227,-285.5 285,-285.5 285,-266.5 227,-266.5"/>
<text text-anchor="middle" x="256" y="-273.5" font-family="Helvetica,sans-Serif" font-size="10.00">Elements</text>
</a>
</g>
</g>
<!-- Node26&#45;&gt;Node27 -->
<g id="edge34" class="edge"><title>Node26&#45;&gt;Node27</title>
<path fill="none" stroke="midnightblue" d="M152.103,-276C171.011,-276 196.172,-276 216.881,-276"/>
<polygon fill="midnightblue" stroke="midnightblue" points="216.944,-279.5 226.944,-276 216.944,-272.5 216.944,-279.5"/>
</g>
<!-- Node31 -->
<g id="node31" class="node"><title>Node31</title>
<g id="a_node31"><a xlink:href="SAT__Kepler_8cpp.html#a451b90edb1cf7dcb4281dd26dfcacfaf" target="_top" xlink:title="State">
<polygon fill="white" stroke="black" points="236,-342.5 236,-361.5 276,-361.5 276,-342.5 236,-342.5"/>
<text text-anchor="middle" x="256" y="-349.5" font-family="Helvetica,sans-Serif" font-size="10.00">State</text>
</a>
</g>
</g>
<!-- Node26&#45;&gt;Node31 -->
<g id="edge42" class="edge"><title>Node26&#45;&gt;Node31</title>
<path fill="none" stroke="midnightblue" d="M146.229,-285.525C154.6,-289.516 164.018,-294.506 172,-300 189.88,-312.306 189.646,-321.414 208,-333 213.666,-336.576 220.118,-339.706 226.388,-342.338"/>
<polygon fill="midnightblue" stroke="midnightblue" points="225.362,-345.694 235.951,-346.057 227.9,-339.171 225.362,-345.694"/>
</g>
<!-- Node34 -->
<g id="node34" class="node"><title>Node34</title>
<g id="a_node34"><a xlink:href="SAT__Kepler_8cpp.html#a0ad5246987cf2f6c19950ecf2aa00390" target="_top" xlink:title="StatePartials">
<polygon fill="white" stroke="black" points="219.5,-304.5 219.5,-323.5 292.5,-323.5 292.5,-304.5 219.5,-304.5"/>
<text text-anchor="middle" x="256" y="-311.5" font-family="Helvetica,sans-Serif" font-size="10.00">StatePartials</text>
</a>
</g>
</g>
<!-- Node26&#45;&gt;Node34 -->
<g id="edge48" class="edge"><title>Node26&#45;&gt;Node34</title>
<path fill="none" stroke="midnightblue" d="M152.103,-284.152C169.596,-289.226 192.442,-295.853 212.162,-301.574"/>
<polygon fill="midnightblue" stroke="midnightblue" points="211.269,-304.959 221.848,-304.383 213.219,-298.236 211.269,-304.959"/>
</g>
<!-- Node27&#45;&gt;Node4 -->
<g id="edge35" class="edge"><title>Node27&#45;&gt;Node4</title>
<path fill="none" stroke="midnightblue" d="M285.083,-281.856C292.276,-284.676 299.299,-288.845 304,-295 386.582,-403.126 257.826,-490.564 340,-599 340.946,-600.248 341.988,-601.415 343.109,-602.505"/>
<polygon fill="midnightblue" stroke="midnightblue" points="341.32,-605.535 351.446,-608.652 345.474,-599.9 341.32,-605.535"/>
</g>
<!-- Node28 -->
<g id="node28" class="node"><title>Node28</title>
<g id="a_node28"><a xlink:href="SAT__VecMat_8cpp.html#ab712f21cc19675f37e17e08bb51a82b4" target="_top" xlink:title="Cross">
<polygon fill="white" stroke="black" points="365.5,-266.5 365.5,-285.5 408.5,-285.5 408.5,-266.5 365.5,-266.5"/>
<text text-anchor="middle" x="387" y="-273.5" font-family="Helvetica,sans-Serif" font-size="10.00">Cross</text>
</a>
</g>
</g>
<!-- Node27&#45;&gt;Node28 -->
<g id="edge36" class="edge"><title>Node27&#45;&gt;Node28</title>
<path fill="none" stroke="midnightblue" d="M285.31,-276C305.993,-276 334.018,-276 355.251,-276"/>
<polygon fill="midnightblue" stroke="midnightblue" points="355.362,-279.5 365.362,-276 355.362,-272.5 355.362,-279.5"/>
</g>
<!-- Node27&#45;&gt;Node29 -->
<g id="edge37" class="edge"><title>Node27&#45;&gt;Node29</title>
<path fill="none" stroke="midnightblue" d="M282.715,-266.309C290.19,-262.631 297.959,-257.879 304,-252 327.946,-228.697 316.156,-209.408 340,-186 345.01,-181.082 351.233,-176.934 357.466,-173.543"/>
<polygon fill="midnightblue" stroke="midnightblue" points="359.038,-176.67 366.465,-169.115 355.947,-170.389 359.038,-176.67"/>
</g>
<!-- Node30 -->
<g id="node30" class="node"><title>Node30</title>
<g id="a_node30"><a xlink:href="namespaceanonymous__namespace_02SAT__Kepler_8cpp_03.html#ae5d42531d691a174363f296c22d23217" target="_top" xlink:title="anonymous_namespace\l\{SAT_Kepler::cpp\}::Modulo">
<polygon fill="white" stroke="black" points="470,-337 470,-367 604,-367 604,-337 470,-337"/>
<text text-anchor="start" x="478" y="-355" font-family="Helvetica,sans-Serif" font-size="10.00">anonymous_namespace</text>
<text text-anchor="middle" x="537" y="-344" font-family="Helvetica,sans-Serif" font-size="10.00">{SAT_Kepler::cpp}::Modulo</text>
</a>
</g>
</g>
<!-- Node27&#45;&gt;Node30 -->
<g id="edge39" class="edge"><title>Node27&#45;&gt;Node30</title>
<path fill="none" stroke="midnightblue" d="M281.142,-266.481C316.127,-254.199 382.378,-236.684 434,-257 470.34,-271.302 501.398,-305.326 519.392,-328.522"/>
<polygon fill="midnightblue" stroke="midnightblue" points="516.824,-330.931 525.632,-336.818 522.418,-326.723 516.824,-330.931"/>
</g>
<!-- Node27&#45;&gt;Node16 -->
<g id="edge41" class="edge"><title>Node27&#45;&gt;Node16</title>
<path fill="none" stroke="midnightblue" d="M280.308,-266.477C332.475,-245.161 458.232,-193.776 511.501,-172.011"/>
<polygon fill="midnightblue" stroke="midnightblue" points="512.924,-175.21 520.857,-168.187 510.277,-168.73 512.924,-175.21"/>
</g>
<!-- Node29&#45;&gt;Node16 -->
<g id="edge38" class="edge"><title>Node29&#45;&gt;Node16</title>
<path fill="none" stroke="midnightblue" d="M407.653,-162C434.148,-162 481.358,-162 510.542,-162"/>
<polygon fill="midnightblue" stroke="midnightblue" points="510.764,-165.5 520.764,-162 510.764,-158.5 510.764,-165.5"/>
</g>
<!-- Node30&#45;&gt;Node14 -->
<g id="edge40" class="edge"><title>Node30&#45;&gt;Node14</title>
<path fill="none" stroke="midnightblue" d="M570.006,-367.015C595.329,-378.895 630.885,-395.576 658.412,-408.49"/>
<polygon fill="midnightblue" stroke="midnightblue" points="657.244,-411.808 667.784,-412.886 660.217,-405.47 657.244,-411.808"/>
</g>
<!-- Node32 -->
<g id="node32" class="node"><title>Node32</title>
<g id="a_node32"><a xlink:href="SAT__Kepler_8cpp.html#a2ad531000471d74f459467a747a79aff" target="_top" xlink:title="EccAnom">
<polygon fill="white" stroke="black" points="357.5,-342.5 357.5,-361.5 416.5,-361.5 416.5,-342.5 357.5,-342.5"/>
<text text-anchor="middle" x="387" y="-349.5" font-family="Helvetica,sans-Serif" font-size="10.00">EccAnom</text>
</a>
</g>
</g>
<!-- Node31&#45;&gt;Node32 -->
<g id="edge43" class="edge"><title>Node31&#45;&gt;Node32</title>
<path fill="none" stroke="midnightblue" d="M276.034,-352C294.716,-352 323.751,-352 347.295,-352"/>
<polygon fill="midnightblue" stroke="midnightblue" points="347.336,-355.5 357.336,-352 347.336,-348.5 347.336,-355.5"/>
</g>
<!-- Node31&#45;&gt;Node12 -->
<g id="edge45" class="edge"><title>Node31&#45;&gt;Node12</title>
<path fill="none" stroke="midnightblue" d="M264.623,-361.816C281.555,-383.432 322.203,-434.235 340,-447 345.944,-451.263 352.987,-454.785 359.752,-457.589"/>
<polygon fill="midnightblue" stroke="midnightblue" points="358.713,-460.937 369.305,-461.186 361.18,-454.386 358.713,-460.937"/>
</g>
<!-- Node33 -->
<g id="node33" class="node"><title>Node33</title>
<g id="a_node33"><a xlink:href="SAT__VecMat_8cpp.html#ae452267b1d1da6280386846d97ec4e4f" target="_top" xlink:title="R_x">
<polygon fill="white" stroke="black" points="369.5,-380.5 369.5,-399.5 404.5,-399.5 404.5,-380.5 369.5,-380.5"/>
<text text-anchor="middle" x="387" y="-387.5" font-family="Helvetica,sans-Serif" font-size="10.00">R_x</text>
</a>
</g>
</g>
<!-- Node31&#45;&gt;Node33 -->
<g id="edge46" class="edge"><title>Node31&#45;&gt;Node33</title>
<path fill="none" stroke="midnightblue" d="M276.034,-357.607C298.111,-364.11 334.647,-374.873 359.493,-382.192"/>
<polygon fill="midnightblue" stroke="midnightblue" points="358.769,-385.627 369.35,-385.095 360.747,-378.912 358.769,-385.627"/>
</g>
<!-- Node31&#45;&gt;Node5 -->
<g id="edge47" class="edge"><title>Node31&#45;&gt;Node5</title>
<path fill="none" stroke="midnightblue" d="M276.422,-360.461C285.163,-364.631 295.421,-370.042 304,-376 321.827,-388.381 321.689,-397.345 340,-409 344.92,-412.132 350.444,-414.933 355.911,-417.36"/>
<polygon fill="midnightblue" stroke="midnightblue" points="354.967,-420.756 365.547,-421.316 357.625,-414.28 354.967,-420.756"/>
</g>
<!-- Node32&#45;&gt;Node30 -->
<g id="edge44" class="edge"><title>Node32&#45;&gt;Node30</title>
<path fill="none" stroke="midnightblue" d="M416.536,-352C429.008,-352 444.292,-352 459.71,-352"/>
<polygon fill="midnightblue" stroke="midnightblue" points="459.832,-355.5 469.832,-352 459.832,-348.5 459.832,-355.5"/>
</g>
<!-- Node34&#45;&gt;Node32 -->
<g id="edge49" class="edge"><title>Node34&#45;&gt;Node32</title>
<path fill="none" stroke="midnightblue" d="M289.552,-323.589C307.267,-328.807 329.284,-335.293 347.807,-340.749"/>
<polygon fill="midnightblue" stroke="midnightblue" points="346.829,-344.11 357.411,-343.578 348.807,-337.395 346.829,-344.11"/>
</g>
<!-- Node34&#45;&gt;Node12 -->
<g id="edge50" class="edge"><title>Node34&#45;&gt;Node12</title>
<path fill="none" stroke="midnightblue" d="M291.16,-323.54C295.929,-326.019 300.415,-329.123 304,-333 340.072,-372.012 304.076,-407.852 340,-447 345.221,-452.69 352.404,-456.723 359.541,-459.562"/>
<polygon fill="midnightblue" stroke="midnightblue" points="358.465,-462.892 369.058,-462.737 360.68,-456.252 358.465,-462.892"/>
</g>
<!-- Node34&#45;&gt;Node33 -->
<g id="edge51" class="edge"><title>Node34&#45;&gt;Node33</title>
<path fill="none" stroke="midnightblue" d="M286.329,-323.593C292.421,-326.197 298.618,-329.332 304,-333 323.223,-346.103 320.826,-357.824 340,-371 346.029,-375.143 353.1,-378.623 359.866,-381.426"/>
<polygon fill="midnightblue" stroke="midnightblue" points="358.811,-384.77 369.403,-385.047 361.296,-378.226 358.811,-384.77"/>
</g>
<!-- Node35 -->
<g id="node35" class="node"><title>Node35</title>
<g id="a_node35"><a xlink:href="classMatrix.html#a02c825325655a07eb94e4a57478a4c18" target="_top" xlink:title="Matrix::Col">
<polygon fill="white" stroke="black" points="354.5,-304.5 354.5,-323.5 419.5,-323.5 419.5,-304.5 354.5,-304.5"/>
<text text-anchor="middle" x="387" y="-311.5" font-family="Helvetica,sans-Serif" font-size="10.00">Matrix::Col</text>
</a>
</g>
</g>
<!-- Node34&#45;&gt;Node35 -->
<g id="edge52" class="edge"><title>Node34&#45;&gt;Node35</title>
<path fill="none" stroke="midnightblue" d="M292.591,-314C308.649,-314 327.72,-314 344.43,-314"/>
<polygon fill="midnightblue" stroke="midnightblue" points="344.482,-317.5 354.482,-314 344.482,-310.5 344.482,-317.5"/>
</g>
<!-- Node34&#45;&gt;Node28 -->
<g id="edge53" class="edge"><title>Node34&#45;&gt;Node28</title>
<path fill="none" stroke="midnightblue" d="M289.552,-304.411C309.764,-298.457 335.576,-290.854 355.41,-285.011"/>
<polygon fill="midnightblue" stroke="midnightblue" points="356.572,-288.318 365.175,-282.134 354.594,-281.603 356.572,-288.318"/>
</g>
<!-- Node34&#45;&gt;Node29 -->
<g id="edge54" class="edge"><title>Node34&#45;&gt;Node29</title>
<path fill="none" stroke="midnightblue" d="M288.905,-304.331C294.288,-301.826 299.562,-298.748 304,-295 341.491,-263.343 366.941,-210.018 378.648,-181.453"/>
<polygon fill="midnightblue" stroke="midnightblue" points="382.037,-182.401 382.458,-171.814 375.527,-179.827 382.037,-182.401"/>
</g>
<!-- Node34&#45;&gt;Node5 -->
<g id="edge55" class="edge"><title>Node34&#45;&gt;Node5</title>
<path fill="none" stroke="midnightblue" d="M289.742,-323.508C294.917,-326.014 299.903,-329.135 304,-333 331.186,-358.648 312.91,-383.249 340,-409 344.574,-413.348 350.281,-416.761 356.104,-419.419"/>
<polygon fill="midnightblue" stroke="midnightblue" points="355.243,-422.84 365.831,-423.212 357.786,-416.318 355.243,-422.84"/>
</g>
<!-- Node37&#45;&gt;Node17 -->
<g id="edge58" class="edge"><title>Node37&#45;&gt;Node17</title>
<path fill="none" stroke="midnightblue" d="M303.698,-694C360.206,-694 453.895,-694 503.255,-694"/>
<polygon fill="midnightblue" stroke="midnightblue" points="503.372,-697.5 513.372,-694 503.372,-690.5 503.372,-697.5"/>
</g>
<!-- Node38&#45;&gt;Node16 -->
<g id="edge61" class="edge"><title>Node38&#45;&gt;Node16</title>
<path fill="none" stroke="midnightblue" d="M139.711,-171.429C156.08,-162.062 182.809,-148.433 208,-143 318.819,-119.1 455.266,-143.762 510.752,-155.988"/>
<polygon fill="midnightblue" stroke="midnightblue" points="510.212,-159.455 520.738,-158.25 511.758,-152.628 510.212,-159.455"/>
</g>
<!-- Node39 -->
<g id="node39" class="node"><title>Node39</title>
<g id="a_node39"><a xlink:href="SAT__VecMat_8cpp.html#ac71a8aaf67fa3c90f274788d91002af9" target="_top" xlink:title="Id">
<polygon fill="white" stroke="black" points="241.5,-190.5 241.5,-209.5 270.5,-209.5 270.5,-190.5 241.5,-190.5"/>
<text text-anchor="middle" x="256" y="-197.5" font-family="Helvetica,sans-Serif" font-size="10.00">Id</text>
</a>
</g>
</g>
<!-- Node38&#45;&gt;Node39 -->
<g id="edge62" class="edge"><title>Node38&#45;&gt;Node39</title>
<path fill="none" stroke="midnightblue" d="M172.036,-187.967C192.089,-190.876 214.499,-194.126 230.968,-196.514"/>
<polygon fill="midnightblue" stroke="midnightblue" points="230.92,-200.044 241.319,-198.016 231.925,-193.116 230.92,-200.044"/>
</g>
<!-- Node40 -->
<g id="node40" class="node"><title>Node40</title>
<g id="a_node40"><a xlink:href="SAT__VecMat_8cpp.html#a4c5b7e42a648b06a906407b0155e3342" target="_top" xlink:title="Dyadic">
<polygon fill="white" stroke="black" points="232.5,-152.5 232.5,-171.5 279.5,-171.5 279.5,-152.5 232.5,-152.5"/>
<text text-anchor="middle" x="256" y="-159.5" font-family="Helvetica,sans-Serif" font-size="10.00">Dyadic</text>
</a>
</g>
</g>
<!-- Node38&#45;&gt;Node40 -->
<g id="edge63" class="edge"><title>Node38&#45;&gt;Node40</title>
<path fill="none" stroke="midnightblue" d="M172.036,-174.033C188.767,-171.606 207.138,-168.942 222.331,-166.738"/>
<polygon fill="midnightblue" stroke="midnightblue" points="222.888,-170.194 232.282,-165.295 221.883,-163.267 222.888,-170.194"/>
</g>
</g>
</svg>
