<?xml version="1.0" encoding="UTF-8" standalone="no"?>
<!DOCTYPE svg PUBLIC "-//W3C//DTD SVG 1.1//EN"
 "http://www.w3.org/Graphics/SVG/1.1/DTD/svg11.dtd">
<!-- Generated by graphviz version 2.30.1 (20180420.1509)
 -->
<!-- Title: Accel Pages: 1 -->
<svg width="210pt" height="66pt"
 viewBox="0.00 0.00 210.00 66.00" xmlns="http://www.w3.org/2000/svg" xmlns:xlink="http://www.w3.org/1999/xlink">
<g id="graph0" class="graph" transform="scale(1 1) rotate(0) translate(4 62)">
<title>Accel</title>
<polygon fill="white" stroke="white" points="-4,5 -4,-62 207,-62 207,5 -4,5"/>
<!-- Node1 -->
<g id="node1" class="node"><title>Node1</title>
<polygon fill="#bfbfbf" stroke="black" points="0.5,-19.5 0.5,-38.5 41.5,-38.5 41.5,-19.5 0.5,-19.5"/>
<text text-anchor="middle" x="21" y="-26.5" font-family="Helvetica,sans-Serif" font-size="10.00">Accel</text>
</g>
<!-- Node2 -->
<g id="node2" class="node"><title>Node2</title>
<g id="a_node2"><a xlink:href="RTOD_8cpp.html#a8ed60f2e5115e2e00c123e12b1cbb649" target="_top" xlink:title="Deriv">
<polygon fill="white" stroke="black" points="83,-38.5 83,-57.5 123,-57.5 123,-38.5 83,-38.5"/>
<text text-anchor="middle" x="103" y="-45.5" font-family="Helvetica,sans-Serif" font-size="10.00">Deriv</text>
</a>
</g>
</g>
<!-- Node1&#45;&gt;Node2 -->
<g id="edge1" class="edge"><title>Node1&#45;&gt;Node2</title>
<path fill="none" stroke="midnightblue" d="M51.7016,-36.0541C62.0713,-38.5169 73.4318,-41.2151 82.7282,-43.423"/>
<polygon fill="midnightblue" stroke="midnightblue" points="52.3134,-32.6022 41.7753,-33.6966 50.6959,-39.4127 52.3134,-32.6022"/>
</g>
<!-- Node4 -->
<g id="node4" class="node"><title>Node4</title>
<g id="a_node4"><a xlink:href="TDRSOD_8cpp.html#a3df5b7f547d4cb81cae1bbb6d6a2962a" target="_top" xlink:title="VarEqn">
<polygon fill="white" stroke="black" points="78.5,-0.5 78.5,-19.5 127.5,-19.5 127.5,-0.5 78.5,-0.5"/>
<text text-anchor="middle" x="103" y="-7.5" font-family="Helvetica,sans-Serif" font-size="10.00">VarEqn</text>
</a>
</g>
</g>
<!-- Node1&#45;&gt;Node4 -->
<g id="edge3" class="edge"><title>Node1&#45;&gt;Node4</title>
<path fill="none" stroke="midnightblue" d="M51.7016,-21.9459C60.535,-19.8479 70.0875,-17.5792 78.4705,-15.5883"/>
<polygon fill="midnightblue" stroke="midnightblue" points="50.6959,-18.5873 41.7753,-24.3034 52.3134,-25.3978 50.6959,-18.5873"/>
</g>
<!-- Node3 -->
<g id="node3" class="node"><title>Node3</title>
<g id="a_node3"><a xlink:href="RTOD_8cpp.html#a0ddf1224851353fc92bfbff6f499fa97" target="_top" xlink:title="main">
<polygon fill="white" stroke="black" points="164,-38.5 164,-57.5 202,-57.5 202,-38.5 164,-38.5"/>
<text text-anchor="middle" x="183" y="-45.5" font-family="Helvetica,sans-Serif" font-size="10.00">main</text>
</a>
</g>
</g>
<!-- Node2&#45;&gt;Node3 -->
<g id="edge2" class="edge"><title>Node2&#45;&gt;Node3</title>
<path fill="none" stroke="midnightblue" d="M133.43,-48C143.613,-48 154.723,-48 163.745,-48"/>
<polygon fill="midnightblue" stroke="midnightblue" points="133.281,-44.5001 123.281,-48 133.281,-51.5001 133.281,-44.5001"/>
</g>
<!-- Node5 -->
<g id="node5" class="node"><title>Node5</title>
<g id="a_node5"><a xlink:href="TDRSOD_8cpp.html#a0ddf1224851353fc92bfbff6f499fa97" target="_top" xlink:title="main">
<polygon fill="white" stroke="black" points="164,-0.5 164,-19.5 202,-19.5 202,-0.5 164,-0.5"/>
<text text-anchor="middle" x="183" y="-7.5" font-family="Helvetica,sans-Serif" font-size="10.00">main</text>
</a>
</g>
</g>
<!-- Node4&#45;&gt;Node5 -->
<g id="edge4" class="edge"><title>Node4&#45;&gt;Node5</title>
<path fill="none" stroke="midnightblue" d="M137.886,-10C146.687,-10 155.842,-10 163.515,-10"/>
<polygon fill="midnightblue" stroke="midnightblue" points="137.826,-6.5001 127.826,-10 137.826,-13.5001 137.826,-6.5001"/>
</g>
</g>
</svg>
