<?xml version="1.0" encoding="UTF-8" standalone="no"?>
<!DOCTYPE svg PUBLIC "-//W3C//DTD SVG 1.1//EN"
 "http://www.w3.org/Graphics/SVG/1.1/DTD/svg11.dtd">
<!-- Generated by graphviz version 2.30.1 (20180420.1509)
 -->
<!-- Title: Accel Pages: 1 -->
<svg width="338pt" height="221pt"
 viewBox="0.00 0.00 338.00 221.00" xmlns="http://www.w3.org/2000/svg" xmlns:xlink="http://www.w3.org/1999/xlink">
<g id="graph0" class="graph" transform="scale(1 1) rotate(0) translate(4 217)">
<title>Accel</title>
<polygon fill="white" stroke="white" points="-4,5 -4,-217 335,-217 335,5 -4,5"/>
<!-- Node1 -->
<g id="node1" class="node"><title>Node1</title>
<polygon fill="#bfbfbf" stroke="black" points="0.5,-117.5 0.5,-136.5 41.5,-136.5 41.5,-117.5 0.5,-117.5"/>
<text text-anchor="middle" x="21" y="-124.5" font-family="Helvetica,sans-Serif" font-size="10.00">Accel</text>
</g>
<!-- Node2 -->
<g id="node2" class="node"><title>Node2</title>
<g id="a_node2"><a xlink:href="classIERS.html#a2601a074a58e3c470db336bc1aea6791" target="_top" xlink:title="IERS::UT1_UTC">
<polygon fill="white" stroke="black" points="79,-193.5 79,-212.5 171,-212.5 171,-193.5 79,-193.5"/>
<text text-anchor="middle" x="125" y="-200.5" font-family="Helvetica,sans-Serif" font-size="10.00">IERS::UT1_UTC</text>
</a>
</g>
</g>
<!-- Node1&#45;&gt;Node2 -->
<g id="edge1" class="edge"><title>Node1&#45;&gt;Node2</title>
<path fill="none" stroke="midnightblue" d="M29.3946,-136.646C39.3057,-149.026 57.9825,-170.511 78,-184 80.7229,-185.835 83.6509,-187.544 86.6633,-189.123"/>
<polygon fill="midnightblue" stroke="midnightblue" points="85.2971,-192.349 95.8323,-193.472 88.297,-186.024 85.2971,-192.349"/>
</g>
<!-- Node5 -->
<g id="node5" class="node"><title>Node5</title>
<g id="a_node5"><a xlink:href="classIERS.html#a79c2d9fcfafe0c0d8cee4545e17af0f3" target="_top" xlink:title="IERS::GPS_UTC">
<polygon fill="white" stroke="black" points="78,-155.5 78,-174.5 172,-174.5 172,-155.5 78,-155.5"/>
<text text-anchor="middle" x="125" y="-162.5" font-family="Helvetica,sans-Serif" font-size="10.00">IERS::GPS_UTC</text>
</a>
</g>
</g>
<!-- Node1&#45;&gt;Node5 -->
<g id="edge4" class="edge"><title>Node1&#45;&gt;Node5</title>
<path fill="none" stroke="midnightblue" d="M41.6666,-134.327C54.9941,-139.292 72.9826,-145.994 88.7459,-151.866"/>
<polygon fill="midnightblue" stroke="midnightblue" points="87.6189,-155.181 98.2117,-155.393 90.0627,-148.622 87.6189,-155.181"/>
</g>
<!-- Node6 -->
<g id="node6" class="node"><title>Node6</title>
<g id="a_node6"><a xlink:href="SAT__VecMat_8cpp.html#a94c9c4e1f3afc6636dda6572f72ef4c2" target="_top" xlink:title="R_z">
<polygon fill="white" stroke="black" points="107.5,-117.5 107.5,-136.5 142.5,-136.5 142.5,-117.5 107.5,-117.5"/>
<text text-anchor="middle" x="125" y="-124.5" font-family="Helvetica,sans-Serif" font-size="10.00">R_z</text>
</a>
</g>
</g>
<!-- Node1&#45;&gt;Node6 -->
<g id="edge6" class="edge"><title>Node1&#45;&gt;Node6</title>
<path fill="none" stroke="midnightblue" d="M41.6666,-127C57.4871,-127 79.8752,-127 97.3129,-127"/>
<polygon fill="midnightblue" stroke="midnightblue" points="97.4276,-130.5 107.428,-127 97.4275,-123.5 97.4276,-130.5"/>
</g>
<!-- Node7 -->
<g id="node7" class="node"><title>Node7</title>
<g id="a_node7"><a xlink:href="SAT__RefSys_8cpp.html#a2a4cc14aa92a1449e08540255af19f8e" target="_top" xlink:title="GMST">
<polygon fill="white" stroke="black" points="102.5,-79.5 102.5,-98.5 147.5,-98.5 147.5,-79.5 102.5,-79.5"/>
<text text-anchor="middle" x="125" y="-86.5" font-family="Helvetica,sans-Serif" font-size="10.00">GMST</text>
</a>
</g>
</g>
<!-- Node1&#45;&gt;Node7 -->
<g id="edge7" class="edge"><title>Node1&#45;&gt;Node7</title>
<path fill="none" stroke="midnightblue" d="M41.6666,-119.673C56.0488,-114.315 75.8589,-106.935 92.4431,-100.757"/>
<polygon fill="midnightblue" stroke="midnightblue" points="94.1259,-103.865 102.275,-97.0937 91.6821,-97.3051 94.1259,-103.865"/>
</g>
<!-- Node9 -->
<g id="node9" class="node"><title>Node9</title>
<g id="a_node9"><a xlink:href="SAT__Force_8cpp.html#a35b54a3eda29b936098b3cc869d6c381" target="_top" xlink:title="AccelHarmonic">
<polygon fill="white" stroke="black" points="83.5,-38.5 83.5,-57.5 166.5,-57.5 166.5,-38.5 83.5,-38.5"/>
<text text-anchor="middle" x="125" y="-45.5" font-family="Helvetica,sans-Serif" font-size="10.00">AccelHarmonic</text>
</a>
</g>
</g>
<!-- Node1&#45;&gt;Node9 -->
<g id="edge9" class="edge"><title>Node1&#45;&gt;Node9</title>
<path fill="none" stroke="midnightblue" d="M29.8594,-117.096C39.978,-104.831 58.5826,-83.8674 78,-70 81.9351,-67.1896 86.2853,-64.5769 90.6943,-62.2055"/>
<polygon fill="midnightblue" stroke="midnightblue" points="92.3374,-65.297 99.7126,-57.6907 89.2038,-59.0376 92.3374,-65.297"/>
</g>
<!-- Node3 -->
<g id="node3" class="node"><title>Node3</title>
<g id="a_node3"><a xlink:href="classIERS.html#acfce0b1a43896fed7b1bf9cefe3baebd" target="_top" xlink:title="IERS::UT1_TAI">
<polygon fill="white" stroke="black" points="226,-193.5 226,-212.5 312,-212.5 312,-193.5 226,-193.5"/>
<text text-anchor="middle" x="269" y="-200.5" font-family="Helvetica,sans-Serif" font-size="10.00">IERS::UT1_TAI</text>
</a>
</g>
</g>
<!-- Node2&#45;&gt;Node3 -->
<g id="edge2" class="edge"><title>Node2&#45;&gt;Node3</title>
<path fill="none" stroke="midnightblue" d="M171.32,-203C185.297,-203 200.809,-203 215.242,-203"/>
<polygon fill="midnightblue" stroke="midnightblue" points="215.523,-206.5 225.523,-203 215.523,-199.5 215.523,-206.5"/>
</g>
<!-- Node4 -->
<g id="node4" class="node"><title>Node4</title>
<g id="a_node4"><a xlink:href="classIERS.html#ad872e267797cb8d5be328b236287565f" target="_top" xlink:title="IERS::UTC_TAI">
<polygon fill="white" stroke="black" points="224.5,-155.5 224.5,-174.5 313.5,-174.5 313.5,-155.5 224.5,-155.5"/>
<text text-anchor="middle" x="269" y="-162.5" font-family="Helvetica,sans-Serif" font-size="10.00">IERS::UTC_TAI</text>
</a>
</g>
</g>
<!-- Node2&#45;&gt;Node4 -->
<g id="edge3" class="edge"><title>Node2&#45;&gt;Node4</title>
<path fill="none" stroke="midnightblue" d="M161.833,-193.411C180.163,-188.506 202.678,-182.48 222.25,-177.243"/>
<polygon fill="midnightblue" stroke="midnightblue" points="223.424,-180.552 232.179,-174.586 221.614,-173.79 223.424,-180.552"/>
</g>
<!-- Node5&#45;&gt;Node4 -->
<g id="edge5" class="edge"><title>Node5&#45;&gt;Node4</title>
<path fill="none" stroke="midnightblue" d="M172.103,-165C185.397,-165 200.024,-165 213.763,-165"/>
<polygon fill="midnightblue" stroke="midnightblue" points="214.059,-168.5 224.059,-165 214.059,-161.5 214.059,-168.5"/>
</g>
<!-- Node8 -->
<g id="node8" class="node"><title>Node8</title>
<g id="a_node8"><a xlink:href="namespaceanonymous__namespace_02SAT__Force_8cpp_03.html#aa6826b33621fa6ff5736c6432c487c1a" target="_top" xlink:title="anonymous_namespace\l\{SAT_Force::cpp\}::Frac">
<polygon fill="white" stroke="black" points="208,-77 208,-107 330,-107 330,-77 208,-77"/>
<text text-anchor="start" x="216" y="-95" font-family="Helvetica,sans-Serif" font-size="10.00">anonymous_namespace</text>
<text text-anchor="middle" x="269" y="-84" font-family="Helvetica,sans-Serif" font-size="10.00">{SAT_Force::cpp}::Frac</text>
</a>
</g>
</g>
<!-- Node7&#45;&gt;Node8 -->
<g id="edge8" class="edge"><title>Node7&#45;&gt;Node8</title>
<path fill="none" stroke="midnightblue" d="M147.567,-89.4556C161.118,-89.7419 179.438,-90.129 197.697,-90.5147"/>
<polygon fill="midnightblue" stroke="midnightblue" points="197.732,-94.0161 207.803,-90.7282 197.88,-87.0177 197.732,-94.0161"/>
</g>
<!-- Node10 -->
<g id="node10" class="node"><title>Node10</title>
<g id="a_node10"><a xlink:href="SAT__VecMat_8cpp.html#a71375a6ebee7fc40c1d45985175d82e5" target="_top" xlink:title="Dot">
<polygon fill="white" stroke="black" points="253,-38.5 253,-57.5 285,-57.5 285,-38.5 253,-38.5"/>
<text text-anchor="middle" x="269" y="-45.5" font-family="Helvetica,sans-Serif" font-size="10.00">Dot</text>
</a>
</g>
</g>
<!-- Node9&#45;&gt;Node10 -->
<g id="edge10" class="edge"><title>Node9&#45;&gt;Node10</title>
<path fill="none" stroke="midnightblue" d="M166.692,-48C191.257,-48 221.783,-48 242.87,-48"/>
<polygon fill="midnightblue" stroke="midnightblue" points="242.955,-51.5001 252.955,-48 242.955,-44.5001 242.955,-51.5001"/>
</g>
<!-- Node11 -->
<g id="node11" class="node"><title>Node11</title>
<g id="a_node11"><a xlink:href="SAT__VecMat_8cpp.html#aa54829a0c63c78e6bfbd12285ad94075" target="_top" xlink:title="Transp">
<polygon fill="white" stroke="black" points="245.5,-0.5 245.5,-19.5 292.5,-19.5 292.5,-0.5 245.5,-0.5"/>
<text text-anchor="middle" x="269" y="-7.5" font-family="Helvetica,sans-Serif" font-size="10.00">Transp</text>
</a>
</g>
</g>
<!-- Node9&#45;&gt;Node11 -->
<g id="edge11" class="edge"><title>Node9&#45;&gt;Node11</title>
<path fill="none" stroke="midnightblue" d="M161.833,-38.411C184.53,-32.3372 213.641,-24.5468 235.638,-18.6603"/>
<polygon fill="midnightblue" stroke="midnightblue" points="236.744,-21.9874 245.5,-16.0212 234.935,-15.2253 236.744,-21.9874"/>
</g>
</g>
</svg>
