<?xml version="1.0" encoding="UTF-8" standalone="no"?>
<!DOCTYPE svg PUBLIC "-//W3C//DTD SVG 1.1//EN"
 "http://www.w3.org/Graphics/SVG/1.1/DTD/svg11.dtd">
<!-- Generated by graphviz version 2.30.1 (20180420.1509)
 -->
<!-- Title: Deriv Pages: 1 -->
<svg width="444pt" height="278pt"
 viewBox="0.00 0.00 444.00 278.00" xmlns="http://www.w3.org/2000/svg" xmlns:xlink="http://www.w3.org/1999/xlink">
<g id="graph0" class="graph" transform="scale(1 1) rotate(0) translate(4 274)">
<title>Deriv</title>
<polygon fill="white" stroke="white" points="-4,5 -4,-274 441,-274 441,5 -4,5"/>
<!-- Node1 -->
<g id="node1" class="node"><title>Node1</title>
<polygon fill="#bfbfbf" stroke="black" points="0,-212.5 0,-231.5 40,-231.5 40,-212.5 0,-212.5"/>
<text text-anchor="middle" x="20" y="-219.5" font-family="Helvetica,sans-Serif" font-size="10.00">Deriv</text>
</g>
<!-- Node2 -->
<g id="node2" class="node"><title>Node2</title>
<g id="a_node2"><a xlink:href="classVector.html#ae58ec75ebd2a2d60775c2e0ee98a35ae" target="_top" xlink:title="Vector::slice">
<polygon fill="white" stroke="black" points="76.5,-250.5 76.5,-269.5 147.5,-269.5 147.5,-250.5 76.5,-250.5"/>
<text text-anchor="middle" x="112" y="-257.5" font-family="Helvetica,sans-Serif" font-size="10.00">Vector::slice</text>
</a>
</g>
</g>
<!-- Node1&#45;&gt;Node2 -->
<g id="edge1" class="edge"><title>Node1&#45;&gt;Node2</title>
<path fill="none" stroke="midnightblue" d="M40.0867,-230.059C51.353,-234.816 65.9066,-240.961 78.8949,-246.445"/>
<polygon fill="midnightblue" stroke="midnightblue" points="77.8677,-249.81 88.4416,-250.475 80.5906,-243.361 77.8677,-249.81"/>
</g>
<!-- Node3 -->
<g id="node3" class="node"><title>Node3</title>
<g id="a_node3"><a xlink:href="SAT__VecMat_8cpp.html#ad3352c6f838a6a97403bc6f2d6bda5df" target="_top" xlink:title="Stack">
<polygon fill="white" stroke="black" points="91,-212.5 91,-231.5 133,-231.5 133,-212.5 91,-212.5"/>
<text text-anchor="middle" x="112" y="-219.5" font-family="Helvetica,sans-Serif" font-size="10.00">Stack</text>
</a>
</g>
</g>
<!-- Node1&#45;&gt;Node3 -->
<g id="edge2" class="edge"><title>Node1&#45;&gt;Node3</title>
<path fill="none" stroke="midnightblue" d="M40.0867,-222C51.8126,-222 67.0994,-222 80.4762,-222"/>
<polygon fill="midnightblue" stroke="midnightblue" points="80.6901,-225.5 90.69,-222 80.69,-218.5 80.6901,-225.5"/>
</g>
<!-- Node5 -->
<g id="node5" class="node"><title>Node5</title>
<g id="a_node5"><a xlink:href="RTOD_8cpp.html#ad928b0e88089fe577162bad47f911adf" target="_top" xlink:title="Accel">
<polygon fill="white" stroke="black" points="91.5,-136.5 91.5,-155.5 132.5,-155.5 132.5,-136.5 91.5,-136.5"/>
<text text-anchor="middle" x="112" y="-143.5" font-family="Helvetica,sans-Serif" font-size="10.00">Accel</text>
</a>
</g>
</g>
<!-- Node1&#45;&gt;Node5 -->
<g id="edge4" class="edge"><title>Node1&#45;&gt;Node5</title>
<path fill="none" stroke="midnightblue" d="M32.3986,-212.375C47.276,-199.811 73.5377,-177.635 91.5819,-162.398"/>
<polygon fill="midnightblue" stroke="midnightblue" points="94.3118,-164.673 99.694,-155.547 89.7955,-159.325 94.3118,-164.673"/>
</g>
<!-- Node4 -->
<g id="node4" class="node"><title>Node4</title>
<g id="a_node4"><a xlink:href="classVector.html#a3c8f59182463d6da833e7856f06e6171" target="_top" xlink:title="Vector::size">
<polygon fill="white" stroke="black" points="196.5,-231.5 196.5,-250.5 265.5,-250.5 265.5,-231.5 196.5,-231.5"/>
<text text-anchor="middle" x="231" y="-238.5" font-family="Helvetica,sans-Serif" font-size="10.00">Vector::size</text>
</a>
</g>
</g>
<!-- Node3&#45;&gt;Node4 -->
<g id="edge3" class="edge"><title>Node3&#45;&gt;Node4</title>
<path fill="none" stroke="midnightblue" d="M133.113,-225.266C147.777,-227.648 168.202,-230.964 186.52,-233.939"/>
<polygon fill="midnightblue" stroke="midnightblue" points="185.998,-237.4 196.43,-235.548 187.12,-230.491 185.998,-237.4"/>
</g>
<!-- Node6 -->
<g id="node6" class="node"><title>Node6</title>
<g id="a_node6"><a xlink:href="classIERS.html#a2601a074a58e3c470db336bc1aea6791" target="_top" xlink:title="IERS::UT1_UTC">
<polygon fill="white" stroke="black" points="185,-193.5 185,-212.5 277,-212.5 277,-193.5 185,-193.5"/>
<text text-anchor="middle" x="231" y="-200.5" font-family="Helvetica,sans-Serif" font-size="10.00">IERS::UT1_UTC</text>
</a>
</g>
</g>
<!-- Node5&#45;&gt;Node6 -->
<g id="edge5" class="edge"><title>Node5&#45;&gt;Node6</title>
<path fill="none" stroke="midnightblue" d="M129.686,-155.54C143.923,-163.532 165.04,-175.038 184,-184 187.867,-185.828 191.958,-187.659 196.043,-189.424"/>
<polygon fill="midnightblue" stroke="midnightblue" points="194.877,-192.731 205.451,-193.39 197.596,-186.281 194.877,-192.731"/>
</g>
<!-- Node9 -->
<g id="node9" class="node"><title>Node9</title>
<g id="a_node9"><a xlink:href="classIERS.html#a79c2d9fcfafe0c0d8cee4545e17af0f3" target="_top" xlink:title="IERS::GPS_UTC">
<polygon fill="white" stroke="black" points="184,-155.5 184,-174.5 278,-174.5 278,-155.5 184,-155.5"/>
<text text-anchor="middle" x="231" y="-162.5" font-family="Helvetica,sans-Serif" font-size="10.00">IERS::GPS_UTC</text>
</a>
</g>
</g>
<!-- Node5&#45;&gt;Node9 -->
<g id="edge8" class="edge"><title>Node5&#45;&gt;Node9</title>
<path fill="none" stroke="midnightblue" d="M132.583,-149.18C143.894,-151.017 158.758,-153.431 173.456,-155.818"/>
<polygon fill="midnightblue" stroke="midnightblue" points="173.129,-159.31 183.56,-157.459 174.251,-152.401 173.129,-159.31"/>
</g>
<!-- Node10 -->
<g id="node10" class="node"><title>Node10</title>
<g id="a_node10"><a xlink:href="SAT__VecMat_8cpp.html#a94c9c4e1f3afc6636dda6572f72ef4c2" target="_top" xlink:title="R_z">
<polygon fill="white" stroke="black" points="213.5,-117.5 213.5,-136.5 248.5,-136.5 248.5,-117.5 213.5,-117.5"/>
<text text-anchor="middle" x="231" y="-124.5" font-family="Helvetica,sans-Serif" font-size="10.00">R_z</text>
</a>
</g>
</g>
<!-- Node5&#45;&gt;Node10 -->
<g id="edge10" class="edge"><title>Node5&#45;&gt;Node10</title>
<path fill="none" stroke="midnightblue" d="M132.583,-142.82C151.95,-139.675 181.73,-134.839 203.266,-131.341"/>
<polygon fill="midnightblue" stroke="midnightblue" points="204.077,-134.756 213.386,-129.698 202.954,-127.846 204.077,-134.756"/>
</g>
<!-- Node11 -->
<g id="node11" class="node"><title>Node11</title>
<g id="a_node11"><a xlink:href="SAT__RefSys_8cpp.html#a2a4cc14aa92a1449e08540255af19f8e" target="_top" xlink:title="GMST">
<polygon fill="white" stroke="black" points="208.5,-79.5 208.5,-98.5 253.5,-98.5 253.5,-79.5 208.5,-79.5"/>
<text text-anchor="middle" x="231" y="-86.5" font-family="Helvetica,sans-Serif" font-size="10.00">GMST</text>
</a>
</g>
</g>
<!-- Node5&#45;&gt;Node11 -->
<g id="edge11" class="edge"><title>Node5&#45;&gt;Node11</title>
<path fill="none" stroke="midnightblue" d="M129.686,-136.46C143.923,-128.468 165.04,-116.962 184,-108 188.76,-105.75 193.861,-103.494 198.87,-101.364"/>
<polygon fill="midnightblue" stroke="midnightblue" points="200.385,-104.524 208.276,-97.4539 197.698,-98.0602 200.385,-104.524"/>
</g>
<!-- Node13 -->
<g id="node13" class="node"><title>Node13</title>
<g id="a_node13"><a xlink:href="SAT__Force_8cpp.html#a35b54a3eda29b936098b3cc869d6c381" target="_top" xlink:title="AccelHarmonic">
<polygon fill="white" stroke="black" points="189.5,-38.5 189.5,-57.5 272.5,-57.5 272.5,-38.5 189.5,-38.5"/>
<text text-anchor="middle" x="231" y="-45.5" font-family="Helvetica,sans-Serif" font-size="10.00">AccelHarmonic</text>
</a>
</g>
</g>
<!-- Node5&#45;&gt;Node13 -->
<g id="edge13" class="edge"><title>Node5&#45;&gt;Node13</title>
<path fill="none" stroke="midnightblue" d="M120.332,-136.009C132.251,-120.313 157.208,-89.6474 184,-70 187.899,-67.1404 192.229,-64.4994 196.628,-62.114"/>
<polygon fill="midnightblue" stroke="midnightblue" points="198.273,-65.2044 205.639,-57.5885 195.132,-58.9491 198.273,-65.2044"/>
</g>
<!-- Node7 -->
<g id="node7" class="node"><title>Node7</title>
<g id="a_node7"><a xlink:href="classIERS.html#acfce0b1a43896fed7b1bf9cefe3baebd" target="_top" xlink:title="IERS::UT1_TAI">
<polygon fill="white" stroke="black" points="332,-193.5 332,-212.5 418,-212.5 418,-193.5 332,-193.5"/>
<text text-anchor="middle" x="375" y="-200.5" font-family="Helvetica,sans-Serif" font-size="10.00">IERS::UT1_TAI</text>
</a>
</g>
</g>
<!-- Node6&#45;&gt;Node7 -->
<g id="edge6" class="edge"><title>Node6&#45;&gt;Node7</title>
<path fill="none" stroke="midnightblue" d="M277.32,-203C291.297,-203 306.809,-203 321.242,-203"/>
<polygon fill="midnightblue" stroke="midnightblue" points="321.523,-206.5 331.523,-203 321.523,-199.5 321.523,-206.5"/>
</g>
<!-- Node8 -->
<g id="node8" class="node"><title>Node8</title>
<g id="a_node8"><a xlink:href="classIERS.html#ad872e267797cb8d5be328b236287565f" target="_top" xlink:title="IERS::UTC_TAI">
<polygon fill="white" stroke="black" points="330.5,-155.5 330.5,-174.5 419.5,-174.5 419.5,-155.5 330.5,-155.5"/>
<text text-anchor="middle" x="375" y="-162.5" font-family="Helvetica,sans-Serif" font-size="10.00">IERS::UTC_TAI</text>
</a>
</g>
</g>
<!-- Node6&#45;&gt;Node8 -->
<g id="edge7" class="edge"><title>Node6&#45;&gt;Node8</title>
<path fill="none" stroke="midnightblue" d="M267.833,-193.411C286.163,-188.506 308.678,-182.48 328.25,-177.243"/>
<polygon fill="midnightblue" stroke="midnightblue" points="329.424,-180.552 338.179,-174.586 327.614,-173.79 329.424,-180.552"/>
</g>
<!-- Node9&#45;&gt;Node8 -->
<g id="edge9" class="edge"><title>Node9&#45;&gt;Node8</title>
<path fill="none" stroke="midnightblue" d="M278.103,-165C291.397,-165 306.024,-165 319.763,-165"/>
<polygon fill="midnightblue" stroke="midnightblue" points="320.059,-168.5 330.059,-165 320.059,-161.5 320.059,-168.5"/>
</g>
<!-- Node12 -->
<g id="node12" class="node"><title>Node12</title>
<g id="a_node12"><a xlink:href="namespaceanonymous__namespace_02SAT__Force_8cpp_03.html#aa6826b33621fa6ff5736c6432c487c1a" target="_top" xlink:title="anonymous_namespace\l\{SAT_Force::cpp\}::Frac">
<polygon fill="white" stroke="black" points="314,-77 314,-107 436,-107 436,-77 314,-77"/>
<text text-anchor="start" x="322" y="-95" font-family="Helvetica,sans-Serif" font-size="10.00">anonymous_namespace</text>
<text text-anchor="middle" x="375" y="-84" font-family="Helvetica,sans-Serif" font-size="10.00">{SAT_Force::cpp}::Frac</text>
</a>
</g>
</g>
<!-- Node11&#45;&gt;Node12 -->
<g id="edge12" class="edge"><title>Node11&#45;&gt;Node12</title>
<path fill="none" stroke="midnightblue" d="M253.567,-89.4556C267.118,-89.7419 285.438,-90.129 303.697,-90.5147"/>
<polygon fill="midnightblue" stroke="midnightblue" points="303.732,-94.0161 313.803,-90.7282 303.88,-87.0177 303.732,-94.0161"/>
</g>
<!-- Node14 -->
<g id="node14" class="node"><title>Node14</title>
<g id="a_node14"><a xlink:href="SAT__VecMat_8cpp.html#a71375a6ebee7fc40c1d45985175d82e5" target="_top" xlink:title="Dot">
<polygon fill="white" stroke="black" points="359,-38.5 359,-57.5 391,-57.5 391,-38.5 359,-38.5"/>
<text text-anchor="middle" x="375" y="-45.5" font-family="Helvetica,sans-Serif" font-size="10.00">Dot</text>
</a>
</g>
</g>
<!-- Node13&#45;&gt;Node14 -->
<g id="edge14" class="edge"><title>Node13&#45;&gt;Node14</title>
<path fill="none" stroke="midnightblue" d="M272.692,-48C297.257,-48 327.783,-48 348.87,-48"/>
<polygon fill="midnightblue" stroke="midnightblue" points="348.955,-51.5001 358.955,-48 348.955,-44.5001 348.955,-51.5001"/>
</g>
<!-- Node15 -->
<g id="node15" class="node"><title>Node15</title>
<g id="a_node15"><a xlink:href="SAT__VecMat_8cpp.html#aa54829a0c63c78e6bfbd12285ad94075" target="_top" xlink:title="Transp">
<polygon fill="white" stroke="black" points="351.5,-0.5 351.5,-19.5 398.5,-19.5 398.5,-0.5 351.5,-0.5"/>
<text text-anchor="middle" x="375" y="-7.5" font-family="Helvetica,sans-Serif" font-size="10.00">Transp</text>
</a>
</g>
</g>
<!-- Node13&#45;&gt;Node15 -->
<g id="edge15" class="edge"><title>Node13&#45;&gt;Node15</title>
<path fill="none" stroke="midnightblue" d="M267.833,-38.411C290.53,-32.3372 319.641,-24.5468 341.638,-18.6603"/>
<polygon fill="midnightblue" stroke="midnightblue" points="342.744,-21.9874 351.5,-16.0212 340.935,-15.2253 342.744,-21.9874"/>
</g>
</g>
</svg>
