<?xml version="1.0" encoding="UTF-8" standalone="no"?>
<!DOCTYPE svg PUBLIC "-//W3C//DTD SVG 1.1//EN"
 "http://www.w3.org/Graphics/SVG/1.1/DTD/svg11.dtd">
<!-- Generated by graphviz version 2.30.1 (20180420.1509)
 -->
<!-- Title: SAT_Time.cpp Pages: 1 -->
<svg width="352pt" height="140pt"
 viewBox="0.00 0.00 352.00 140.00" xmlns="http://www.w3.org/2000/svg" xmlns:xlink="http://www.w3.org/1999/xlink">
<g id="graph0" class="graph" transform="scale(1 1) rotate(0) translate(4 136)">
<title>SAT_Time.cpp</title>
<polygon fill="white" stroke="white" points="-4,5 -4,-136 349,-136 349,5 -4,5"/>
<!-- Node1 -->
<g id="node1" class="node"><title>Node1</title>
<polygon fill="#bfbfbf" stroke="black" points="84,-112.5 84,-131.5 166,-131.5 166,-112.5 84,-112.5"/>
<text text-anchor="middle" x="125" y="-119.5" font-family="Helvetica,sans-Serif" font-size="10.00">SAT_Time.cpp</text>
</g>
<!-- Node2 -->
<g id="node2" class="node"><title>Node2</title>
<polygon fill="white" stroke="#bfbfbf" points="0,-56.5 0,-75.5 44,-75.5 44,-56.5 0,-56.5"/>
<text text-anchor="middle" x="22" y="-63.5" font-family="Helvetica,sans-Serif" font-size="10.00">cmath</text>
</g>
<!-- Node1&#45;&gt;Node2 -->
<g id="edge1" class="edge"><title>Node1&#45;&gt;Node2</title>
<path fill="none" stroke="midnightblue" d="M108.451,-112.324C92.0084,-103.703 66.5652,-90.3643 47.5316,-80.3855"/>
<polygon fill="midnightblue" stroke="midnightblue" points="48.9895,-77.198 38.5077,-75.6545 45.7391,-83.3977 48.9895,-77.198"/>
</g>
<!-- Node3 -->
<g id="node3" class="node"><title>Node3</title>
<polygon fill="white" stroke="#bfbfbf" points="111,-0.5 111,-19.5 165,-19.5 165,-0.5 111,-0.5"/>
<text text-anchor="middle" x="138" y="-7.5" font-family="Helvetica,sans-Serif" font-size="10.00">iostream</text>
</g>
<!-- Node1&#45;&gt;Node3 -->
<g id="edge2" class="edge"><title>Node1&#45;&gt;Node3</title>
<path fill="none" stroke="midnightblue" d="M114.975,-112.381C102.013,-100.129 82.0979,-76.8478 91,-56 96.1467,-43.9469 106.281,-33.5764 115.826,-25.8389"/>
<polygon fill="midnightblue" stroke="midnightblue" points="118.04,-28.5532 123.922,-19.7409 113.828,-22.9619 118.04,-28.5532"/>
</g>
<!-- Node4 -->
<g id="node4" class="node"><title>Node4</title>
<polygon fill="white" stroke="#bfbfbf" points="100,-56.5 100,-75.5 150,-75.5 150,-56.5 100,-56.5"/>
<text text-anchor="middle" x="125" y="-63.5" font-family="Helvetica,sans-Serif" font-size="10.00">iomanip</text>
</g>
<!-- Node1&#45;&gt;Node4 -->
<g id="edge3" class="edge"><title>Node1&#45;&gt;Node4</title>
<path fill="none" stroke="midnightblue" d="M125,-112.083C125,-105.006 125,-94.8611 125,-85.9865"/>
<polygon fill="midnightblue" stroke="midnightblue" points="128.5,-85.751 125,-75.7511 121.5,-85.7511 128.5,-85.751"/>
</g>
<!-- Node5 -->
<g id="node5" class="node"><title>Node5</title>
<g id="a_node5"><a xlink:href="SAT__Time_8h.html" target="_top" xlink:title="SAT_Time.h">
<polygon fill="white" stroke="black" points="168.5,-56.5 168.5,-75.5 239.5,-75.5 239.5,-56.5 168.5,-56.5"/>
<text text-anchor="middle" x="204" y="-63.5" font-family="Helvetica,sans-Serif" font-size="10.00">SAT_Time.h</text>
</a>
</g>
</g>
<!-- Node1&#45;&gt;Node5 -->
<g id="edge4" class="edge"><title>Node1&#45;&gt;Node5</title>
<path fill="none" stroke="midnightblue" d="M137.693,-112.324C149.901,-103.979 168.578,-91.2122 183.003,-81.3524"/>
<polygon fill="midnightblue" stroke="midnightblue" points="185.058,-84.1871 191.339,-75.6545 181.108,-78.4082 185.058,-84.1871"/>
</g>
<!-- Node6 -->
<g id="node6" class="node"><title>Node6</title>
<g id="a_node6"><a xlink:href="GNU__iomanip_8h.html" target="_top" xlink:title="GNU_iomanip.h">
<polygon fill="white" stroke="black" points="258,-56.5 258,-75.5 344,-75.5 344,-56.5 258,-56.5"/>
<text text-anchor="middle" x="301" y="-63.5" font-family="Helvetica,sans-Serif" font-size="10.00">GNU_iomanip.h</text>
</a>
</g>
</g>
<!-- Node1&#45;&gt;Node6 -->
<g id="edge6" class="edge"><title>Node1&#45;&gt;Node6</title>
<path fill="none" stroke="midnightblue" d="M152.888,-112.444C182.754,-103.28 230.315,-88.6876 263.456,-78.5192"/>
<polygon fill="midnightblue" stroke="midnightblue" points="264.709,-81.7958 273.243,-75.5164 262.656,-75.1037 264.709,-81.7958"/>
</g>
<!-- Node5&#45;&gt;Node3 -->
<g id="edge5" class="edge"><title>Node5&#45;&gt;Node3</title>
<path fill="none" stroke="midnightblue" d="M193.396,-56.324C183.544,-48.2631 168.649,-36.0765 156.785,-26.3695"/>
<polygon fill="midnightblue" stroke="midnightblue" points="158.753,-23.4575 148.797,-19.8339 154.32,-28.8752 158.753,-23.4575"/>
</g>
</g>
</svg>
