<?xml version="1.0" encoding="UTF-8" standalone="no"?>
<!DOCTYPE svg PUBLIC "-//W3C//DTD SVG 1.1//EN"
 "http://www.w3.org/Graphics/SVG/1.1/DTD/svg11.dtd">
<!-- Generated by graphviz version 2.30.1 (20180420.1509)
 -->
<!-- Title: StatePartials Pages: 1 -->
<svg width="512pt" height="261pt"
 viewBox="0.00 0.00 512.00 261.00" xmlns="http://www.w3.org/2000/svg" xmlns:xlink="http://www.w3.org/1999/xlink">
<g id="graph0" class="graph" transform="scale(1 1) rotate(0) translate(4 257)">
<title>StatePartials</title>
<polygon fill="white" stroke="white" points="-4,5 -4,-257 509,-257 509,5 -4,5"/>
<!-- Node1 -->
<g id="node1" class="node"><title>Node1</title>
<polygon fill="#bfbfbf" stroke="black" points="0.5,-114.5 0.5,-133.5 73.5,-133.5 73.5,-114.5 0.5,-114.5"/>
<text text-anchor="middle" x="37" y="-121.5" font-family="Helvetica,sans-Serif" font-size="10.00">StatePartials</text>
</g>
<!-- Node2 -->
<g id="node2" class="node"><title>Node2</title>
<g id="a_node2"><a xlink:href="SAT__Kepler_8cpp.html#a2ad531000471d74f459467a747a79aff" target="_top" xlink:title="EccAnom">
<polygon fill="white" stroke="black" points="113.5,-228.5 113.5,-247.5 172.5,-247.5 172.5,-228.5 113.5,-228.5"/>
<text text-anchor="middle" x="143" y="-235.5" font-family="Helvetica,sans-Serif" font-size="10.00">EccAnom</text>
</a>
</g>
</g>
<!-- Node1&#45;&gt;Node2 -->
<g id="edge1" class="edge"><title>Node1&#45;&gt;Node2</title>
<path fill="none" stroke="midnightblue" d="M43.5231,-133.594C54.4155,-151.909 80.2115,-192.393 110,-219 111.482,-220.323 113.069,-221.603 114.716,-222.83"/>
<polygon fill="midnightblue" stroke="midnightblue" points="112.958,-225.865 123.223,-228.491 116.836,-220.037 112.958,-225.865"/>
</g>
<!-- Node5 -->
<g id="node5" class="node"><title>Node5</title>
<g id="a_node5"><a xlink:href="SAT__VecMat_8cpp.html#a94c9c4e1f3afc6636dda6572f72ef4c2" target="_top" xlink:title="R_z">
<polygon fill="white" stroke="black" points="125.5,-190.5 125.5,-209.5 160.5,-209.5 160.5,-190.5 125.5,-190.5"/>
<text text-anchor="middle" x="143" y="-197.5" font-family="Helvetica,sans-Serif" font-size="10.00">R_z</text>
</a>
</g>
</g>
<!-- Node1&#45;&gt;Node5 -->
<g id="edge4" class="edge"><title>Node1&#45;&gt;Node5</title>
<path fill="none" stroke="midnightblue" d="M49.358,-133.774C63.2484,-145.541 87.6727,-165.636 110,-181 112.142,-182.474 114.402,-183.955 116.689,-185.403"/>
<polygon fill="midnightblue" stroke="midnightblue" points="115.096,-188.531 125.457,-190.747 118.74,-182.553 115.096,-188.531"/>
</g>
<!-- Node6 -->
<g id="node6" class="node"><title>Node6</title>
<g id="a_node6"><a xlink:href="SAT__VecMat_8cpp.html#ae452267b1d1da6280386846d97ec4e4f" target="_top" xlink:title="R_x">
<polygon fill="white" stroke="black" points="125.5,-152.5 125.5,-171.5 160.5,-171.5 160.5,-152.5 125.5,-152.5"/>
<text text-anchor="middle" x="143" y="-159.5" font-family="Helvetica,sans-Serif" font-size="10.00">R_x</text>
</a>
</g>
</g>
<!-- Node1&#45;&gt;Node6 -->
<g id="edge5" class="edge"><title>Node1&#45;&gt;Node6</title>
<path fill="none" stroke="midnightblue" d="M64.2436,-133.589C79.9406,-139.324 99.8267,-146.591 115.559,-152.339"/>
<polygon fill="midnightblue" stroke="midnightblue" points="114.617,-155.721 125.211,-155.866 117.02,-149.146 114.617,-155.721"/>
</g>
<!-- Node7 -->
<g id="node7" class="node"><title>Node7</title>
<g id="a_node7"><a xlink:href="classMatrix.html#a02c825325655a07eb94e4a57478a4c18" target="_top" xlink:title="Matrix::Col">
<polygon fill="white" stroke="black" points="110.5,-114.5 110.5,-133.5 175.5,-133.5 175.5,-114.5 110.5,-114.5"/>
<text text-anchor="middle" x="143" y="-121.5" font-family="Helvetica,sans-Serif" font-size="10.00">Matrix::Col</text>
</a>
</g>
</g>
<!-- Node1&#45;&gt;Node7 -->
<g id="edge6" class="edge"><title>Node1&#45;&gt;Node7</title>
<path fill="none" stroke="midnightblue" d="M73.5,-124C82.128,-124 91.4321,-124 100.317,-124"/>
<polygon fill="midnightblue" stroke="midnightblue" points="100.49,-127.5 110.49,-124 100.49,-120.5 100.49,-127.5"/>
</g>
<!-- Node8 -->
<g id="node8" class="node"><title>Node8</title>
<g id="a_node8"><a xlink:href="SAT__VecMat_8cpp.html#ab712f21cc19675f37e17e08bb51a82b4" target="_top" xlink:title="Cross">
<polygon fill="white" stroke="black" points="121.5,-76.5 121.5,-95.5 164.5,-95.5 164.5,-76.5 121.5,-76.5"/>
<text text-anchor="middle" x="143" y="-83.5" font-family="Helvetica,sans-Serif" font-size="10.00">Cross</text>
</a>
</g>
</g>
<!-- Node1&#45;&gt;Node8 -->
<g id="edge7" class="edge"><title>Node1&#45;&gt;Node8</title>
<path fill="none" stroke="midnightblue" d="M64.2436,-114.411C78.7559,-109.108 96.8489,-102.498 111.929,-96.9874"/>
<polygon fill="midnightblue" stroke="midnightblue" points="113.145,-100.27 121.336,-93.5502 110.743,-93.6947 113.145,-100.27"/>
</g>
<!-- Node9 -->
<g id="node9" class="node"><title>Node9</title>
<g id="a_node9"><a xlink:href="SAT__VecMat_8cpp.html#a313ce8c9730e0bd08a1396f364f0486c" target="_top" xlink:title="Norm">
<polygon fill="white" stroke="black" points="122.5,-38.5 122.5,-57.5 163.5,-57.5 163.5,-38.5 122.5,-38.5"/>
<text text-anchor="middle" x="143" y="-45.5" font-family="Helvetica,sans-Serif" font-size="10.00">Norm</text>
</a>
</g>
</g>
<!-- Node1&#45;&gt;Node9 -->
<g id="edge8" class="edge"><title>Node1&#45;&gt;Node9</title>
<path fill="none" stroke="midnightblue" d="M49.358,-114.226C63.2484,-102.459 87.6727,-82.3644 110,-67 111.903,-65.6906 113.898,-64.3764 115.923,-63.0842"/>
<polygon fill="midnightblue" stroke="midnightblue" points="118.1,-65.855 124.796,-57.6439 114.441,-59.8875 118.1,-65.855"/>
</g>
<!-- Node11 -->
<g id="node11" class="node"><title>Node11</title>
<g id="a_node11"><a xlink:href="SAT__VecMat_8cpp.html#ad3352c6f838a6a97403bc6f2d6bda5df" target="_top" xlink:title="Stack">
<polygon fill="white" stroke="black" points="122,-0.5 122,-19.5 164,-19.5 164,-0.5 122,-0.5"/>
<text text-anchor="middle" x="143" y="-7.5" font-family="Helvetica,sans-Serif" font-size="10.00">Stack</text>
</a>
</g>
</g>
<!-- Node1&#45;&gt;Node11 -->
<g id="edge10" class="edge"><title>Node1&#45;&gt;Node11</title>
<path fill="none" stroke="midnightblue" d="M43.5231,-114.406C54.4155,-96.091 80.2115,-55.6066 110,-29 111.482,-27.6765 113.069,-26.3968 114.716,-25.1695"/>
<polygon fill="midnightblue" stroke="midnightblue" points="116.836,-27.9628 123.223,-19.5093 112.958,-22.1349 116.836,-27.9628"/>
</g>
<!-- Node3 -->
<g id="node3" class="node"><title>Node3</title>
<g id="a_node3"><a xlink:href="namespaceanonymous__namespace_02SAT__Kepler_8cpp_03.html#ae5d42531d691a174363f296c22d23217" target="_top" xlink:title="anonymous_namespace\l\{SAT_Kepler::cpp\}::Modulo">
<polygon fill="white" stroke="black" points="212,-223 212,-253 346,-253 346,-223 212,-223"/>
<text text-anchor="start" x="220" y="-241" font-family="Helvetica,sans-Serif" font-size="10.00">anonymous_namespace</text>
<text text-anchor="middle" x="279" y="-230" font-family="Helvetica,sans-Serif" font-size="10.00">{SAT_Kepler::cpp}::Modulo</text>
</a>
</g>
</g>
<!-- Node2&#45;&gt;Node3 -->
<g id="edge2" class="edge"><title>Node2&#45;&gt;Node3</title>
<path fill="none" stroke="midnightblue" d="M172.746,-238C181.398,-238 191.329,-238 201.56,-238"/>
<polygon fill="midnightblue" stroke="midnightblue" points="201.854,-241.5 211.854,-238 201.854,-234.5 201.854,-241.5"/>
</g>
<!-- Node4 -->
<g id="node4" class="node"><title>Node4</title>
<g id="a_node4"><a xlink:href="namespaceanonymous__namespace_02SAT__Force_8cpp_03.html#aa6826b33621fa6ff5736c6432c487c1a" target="_top" xlink:title="anonymous_namespace\l\{SAT_Force::cpp\}::Frac">
<polygon fill="white" stroke="black" points="382,-223 382,-253 504,-253 504,-223 382,-223"/>
<text text-anchor="start" x="390" y="-241" font-family="Helvetica,sans-Serif" font-size="10.00">anonymous_namespace</text>
<text text-anchor="middle" x="443" y="-230" font-family="Helvetica,sans-Serif" font-size="10.00">{SAT_Force::cpp}::Frac</text>
</a>
</g>
</g>
<!-- Node3&#45;&gt;Node4 -->
<g id="edge3" class="edge"><title>Node3&#45;&gt;Node4</title>
<path fill="none" stroke="midnightblue" d="M346.359,-238C354.745,-238 363.348,-238 371.792,-238"/>
<polygon fill="midnightblue" stroke="midnightblue" points="371.987,-241.5 381.987,-238 371.987,-234.5 371.987,-241.5"/>
</g>
<!-- Node10 -->
<g id="node10" class="node"><title>Node10</title>
<g id="a_node10"><a xlink:href="SAT__VecMat_8cpp.html#a71375a6ebee7fc40c1d45985175d82e5" target="_top" xlink:title="Dot">
<polygon fill="white" stroke="black" points="263,-38.5 263,-57.5 295,-57.5 295,-38.5 263,-38.5"/>
<text text-anchor="middle" x="279" y="-45.5" font-family="Helvetica,sans-Serif" font-size="10.00">Dot</text>
</a>
</g>
</g>
<!-- Node9&#45;&gt;Node10 -->
<g id="edge9" class="edge"><title>Node9&#45;&gt;Node10</title>
<path fill="none" stroke="midnightblue" d="M163.772,-48C187.342,-48 226.776,-48 252.588,-48"/>
<polygon fill="midnightblue" stroke="midnightblue" points="252.73,-51.5001 262.73,-48 252.73,-44.5001 252.73,-51.5001"/>
</g>
<!-- Node12 -->
<g id="node12" class="node"><title>Node12</title>
<g id="a_node12"><a xlink:href="classVector.html#a3c8f59182463d6da833e7856f06e6171" target="_top" xlink:title="Vector::size">
<polygon fill="white" stroke="black" points="244.5,-0.5 244.5,-19.5 313.5,-19.5 313.5,-0.5 244.5,-0.5"/>
<text text-anchor="middle" x="279" y="-7.5" font-family="Helvetica,sans-Serif" font-size="10.00">Vector::size</text>
</a>
</g>
</g>
<!-- Node11&#45;&gt;Node12 -->
<g id="edge11" class="edge"><title>Node11&#45;&gt;Node12</title>
<path fill="none" stroke="midnightblue" d="M164.061,-10C182.505,-10 210.486,-10 234.102,-10"/>
<polygon fill="midnightblue" stroke="midnightblue" points="234.255,-13.5001 244.255,-10 234.255,-6.5001 234.255,-13.5001"/>
</g>
</g>
</svg>
