<?xml version="1.0" encoding="UTF-8" standalone="no"?>
<!DOCTYPE svg PUBLIC "-//W3C//DTD SVG 1.1//EN"
 "http://www.w3.org/Graphics/SVG/1.1/DTD/svg11.dtd">
<!-- Generated by graphviz version 2.30.1 (20180420.1509)
 -->
<!-- Title: State Pages: 1 -->
<svg width="472pt" height="147pt"
 viewBox="0.00 0.00 472.00 147.00" xmlns="http://www.w3.org/2000/svg" xmlns:xlink="http://www.w3.org/1999/xlink">
<g id="graph0" class="graph" transform="scale(1 1) rotate(0) translate(4 143)">
<title>State</title>
<polygon fill="white" stroke="white" points="-4,5 -4,-143 469,-143 469,5 -4,5"/>
<!-- Node1 -->
<g id="node1" class="node"><title>Node1</title>
<polygon fill="#bfbfbf" stroke="black" points="0,-57.5 0,-76.5 40,-76.5 40,-57.5 0,-57.5"/>
<text text-anchor="middle" x="20" y="-64.5" font-family="Helvetica,sans-Serif" font-size="10.00">State</text>
</g>
<!-- Node2 -->
<g id="node2" class="node"><title>Node2</title>
<g id="a_node2"><a xlink:href="SAT__Kepler_8cpp.html#a2ad531000471d74f459467a747a79aff" target="_top" xlink:title="EccAnom">
<polygon fill="white" stroke="black" points="76.5,-114.5 76.5,-133.5 135.5,-133.5 135.5,-114.5 76.5,-114.5"/>
<text text-anchor="middle" x="106" y="-121.5" font-family="Helvetica,sans-Serif" font-size="10.00">EccAnom</text>
</a>
</g>
</g>
<!-- Node1&#45;&gt;Node2 -->
<g id="edge1" class="edge"><title>Node1&#45;&gt;Node2</title>
<path fill="none" stroke="midnightblue" d="M34.9506,-76.7789C46.0295,-84.5108 61.9416,-95.5402 76,-105 77.8664,-106.256 79.806,-107.55 81.7576,-108.845"/>
<polygon fill="midnightblue" stroke="midnightblue" points="79.9238,-111.828 90.2006,-114.404 83.7735,-105.981 79.9238,-111.828"/>
</g>
<!-- Node5 -->
<g id="node5" class="node"><title>Node5</title>
<g id="a_node5"><a xlink:href="SAT__VecMat_8cpp.html#a94c9c4e1f3afc6636dda6572f72ef4c2" target="_top" xlink:title="R_z">
<polygon fill="white" stroke="black" points="88.5,-76.5 88.5,-95.5 123.5,-95.5 123.5,-76.5 88.5,-76.5"/>
<text text-anchor="middle" x="106" y="-83.5" font-family="Helvetica,sans-Serif" font-size="10.00">R_z</text>
</a>
</g>
</g>
<!-- Node1&#45;&gt;Node5 -->
<g id="edge4" class="edge"><title>Node1&#45;&gt;Node5</title>
<path fill="none" stroke="midnightblue" d="M40.0609,-71.3114C51.4059,-73.8775 65.9721,-77.1723 78.433,-79.9908"/>
<polygon fill="midnightblue" stroke="midnightblue" points="77.7624,-83.4275 88.2882,-82.2199 79.3067,-76.5999 77.7624,-83.4275"/>
</g>
<!-- Node6 -->
<g id="node6" class="node"><title>Node6</title>
<g id="a_node6"><a xlink:href="SAT__VecMat_8cpp.html#ae452267b1d1da6280386846d97ec4e4f" target="_top" xlink:title="R_x">
<polygon fill="white" stroke="black" points="88.5,-38.5 88.5,-57.5 123.5,-57.5 123.5,-38.5 88.5,-38.5"/>
<text text-anchor="middle" x="106" y="-45.5" font-family="Helvetica,sans-Serif" font-size="10.00">R_x</text>
</a>
</g>
</g>
<!-- Node1&#45;&gt;Node6 -->
<g id="edge5" class="edge"><title>Node1&#45;&gt;Node6</title>
<path fill="none" stroke="midnightblue" d="M40.0609,-62.6886C51.4059,-60.1225 65.9721,-56.8277 78.433,-54.0092"/>
<polygon fill="midnightblue" stroke="midnightblue" points="79.3067,-57.4001 88.2882,-51.7801 77.7624,-50.5725 79.3067,-57.4001"/>
</g>
<!-- Node7 -->
<g id="node7" class="node"><title>Node7</title>
<g id="a_node7"><a xlink:href="SAT__VecMat_8cpp.html#ad3352c6f838a6a97403bc6f2d6bda5df" target="_top" xlink:title="Stack">
<polygon fill="white" stroke="black" points="85,-0.5 85,-19.5 127,-19.5 127,-0.5 85,-0.5"/>
<text text-anchor="middle" x="106" y="-7.5" font-family="Helvetica,sans-Serif" font-size="10.00">Stack</text>
</a>
</g>
</g>
<!-- Node1&#45;&gt;Node7 -->
<g id="edge6" class="edge"><title>Node1&#45;&gt;Node7</title>
<path fill="none" stroke="midnightblue" d="M34.9506,-57.2211C46.0295,-49.4892 61.9416,-38.4598 76,-29 77.8664,-27.7441 79.806,-26.4499 81.7576,-25.1554"/>
<polygon fill="midnightblue" stroke="midnightblue" points="83.7735,-28.0187 90.2006,-19.5959 79.9238,-22.1723 83.7735,-28.0187"/>
</g>
<!-- Node3 -->
<g id="node3" class="node"><title>Node3</title>
<g id="a_node3"><a xlink:href="namespaceanonymous__namespace_02SAT__Kepler_8cpp_03.html#ae5d42531d691a174363f296c22d23217" target="_top" xlink:title="anonymous_namespace\l\{SAT_Kepler::cpp\}::Modulo">
<polygon fill="white" stroke="black" points="172,-109 172,-139 306,-139 306,-109 172,-109"/>
<text text-anchor="start" x="180" y="-127" font-family="Helvetica,sans-Serif" font-size="10.00">anonymous_namespace</text>
<text text-anchor="middle" x="239" y="-116" font-family="Helvetica,sans-Serif" font-size="10.00">{SAT_Kepler::cpp}::Modulo</text>
</a>
</g>
</g>
<!-- Node2&#45;&gt;Node3 -->
<g id="edge2" class="edge"><title>Node2&#45;&gt;Node3</title>
<path fill="none" stroke="midnightblue" d="M135.749,-124C143.603,-124 152.499,-124 161.687,-124"/>
<polygon fill="midnightblue" stroke="midnightblue" points="161.737,-127.5 171.737,-124 161.737,-120.5 161.737,-127.5"/>
</g>
<!-- Node4 -->
<g id="node4" class="node"><title>Node4</title>
<g id="a_node4"><a xlink:href="namespaceanonymous__namespace_02SAT__Force_8cpp_03.html#aa6826b33621fa6ff5736c6432c487c1a" target="_top" xlink:title="anonymous_namespace\l\{SAT_Force::cpp\}::Frac">
<polygon fill="white" stroke="black" points="342,-109 342,-139 464,-139 464,-109 342,-109"/>
<text text-anchor="start" x="350" y="-127" font-family="Helvetica,sans-Serif" font-size="10.00">anonymous_namespace</text>
<text text-anchor="middle" x="403" y="-116" font-family="Helvetica,sans-Serif" font-size="10.00">{SAT_Force::cpp}::Frac</text>
</a>
</g>
</g>
<!-- Node3&#45;&gt;Node4 -->
<g id="edge3" class="edge"><title>Node3&#45;&gt;Node4</title>
<path fill="none" stroke="midnightblue" d="M306.359,-124C314.745,-124 323.348,-124 331.792,-124"/>
<polygon fill="midnightblue" stroke="midnightblue" points="331.987,-127.5 341.987,-124 331.987,-120.5 331.987,-127.5"/>
</g>
<!-- Node8 -->
<g id="node8" class="node"><title>Node8</title>
<g id="a_node8"><a xlink:href="classVector.html#a3c8f59182463d6da833e7856f06e6171" target="_top" xlink:title="Vector::size">
<polygon fill="white" stroke="black" points="204.5,-0.5 204.5,-19.5 273.5,-19.5 273.5,-0.5 204.5,-0.5"/>
<text text-anchor="middle" x="239" y="-7.5" font-family="Helvetica,sans-Serif" font-size="10.00">Vector::size</text>
</a>
</g>
</g>
<!-- Node7&#45;&gt;Node8 -->
<g id="edge7" class="edge"><title>Node7&#45;&gt;Node8</title>
<path fill="none" stroke="midnightblue" d="M127.182,-10C144.982,-10 171.54,-10 194.195,-10"/>
<polygon fill="midnightblue" stroke="midnightblue" points="194.284,-13.5001 204.284,-10 194.284,-6.5001 194.284,-13.5001"/>
</g>
</g>
</svg>
