<?xml version="1.0" encoding="UTF-8" standalone="no"?>
<!DOCTYPE svg PUBLIC "-//W3C//DTD SVG 1.1//EN"
 "http://www.w3.org/Graphics/SVG/1.1/DTD/svg11.dtd">
<!-- Generated by graphviz version 2.30.1 (20180420.1509)
 -->
<!-- Title: SAT_Kepler.h Pages: 1 -->
<svg width="274pt" height="84pt"
 viewBox="0.00 0.00 274.00 84.00" xmlns="http://www.w3.org/2000/svg" xmlns:xlink="http://www.w3.org/1999/xlink">
<g id="graph0" class="graph" transform="scale(1 1) rotate(0) translate(4 80)">
<title>SAT_Kepler.h</title>
<polygon fill="white" stroke="white" points="-4,5 -4,-80 271,-80 271,5 -4,5"/>
<!-- Node1 -->
<g id="node1" class="node"><title>Node1</title>
<polygon fill="#bfbfbf" stroke="black" points="87.5,-56.5 87.5,-75.5 164.5,-75.5 164.5,-56.5 87.5,-56.5"/>
<text text-anchor="middle" x="126" y="-63.5" font-family="Helvetica,sans-Serif" font-size="10.00">SAT_Kepler.h</text>
</g>
<!-- Node2 -->
<g id="node2" class="node"><title>Node2</title>
<g id="a_node2"><a xlink:href="RTOD_8cpp.html" target="_top" xlink:title="RTOD.cpp">
<polygon fill="white" stroke="black" points="0,-0.5 0,-19.5 64,-19.5 64,-0.5 0,-0.5"/>
<text text-anchor="middle" x="32" y="-7.5" font-family="Helvetica,sans-Serif" font-size="10.00">RTOD.cpp</text>
</a>
</g>
</g>
<!-- Node1&#45;&gt;Node2 -->
<g id="edge1" class="edge"><title>Node1&#45;&gt;Node2</title>
<path fill="none" stroke="midnightblue" d="M101.938,-51.1774C84.6411,-41.2407 61.8523,-28.1492 47.0652,-19.6545"/>
<polygon fill="midnightblue" stroke="midnightblue" points="100.483,-54.3775 110.897,-56.324 103.97,-48.3078 100.483,-54.3775"/>
</g>
<!-- Node3 -->
<g id="node3" class="node"><title>Node3</title>
<g id="a_node3"><a xlink:href="SAT__Kepler_8cpp.html" target="_top" xlink:title="SAT_Kepler.cpp">
<polygon fill="white" stroke="black" points="82,-0.5 82,-19.5 170,-19.5 170,-0.5 82,-0.5"/>
<text text-anchor="middle" x="126" y="-7.5" font-family="Helvetica,sans-Serif" font-size="10.00">SAT_Kepler.cpp</text>
</a>
</g>
</g>
<!-- Node1&#45;&gt;Node3 -->
<g id="edge2" class="edge"><title>Node1&#45;&gt;Node3</title>
<path fill="none" stroke="midnightblue" d="M126,-45.8045C126,-36.9102 126,-26.7798 126,-19.7511"/>
<polygon fill="midnightblue" stroke="midnightblue" points="122.5,-46.083 126,-56.083 129.5,-46.083 122.5,-46.083"/>
</g>
<!-- Node4 -->
<g id="node4" class="node"><title>Node4</title>
<g id="a_node4"><a xlink:href="TDRSOD_8cpp.html" target="_top" xlink:title="TDRSOD.cpp">
<polygon fill="white" stroke="black" points="188,-0.5 188,-19.5 266,-19.5 266,-0.5 188,-0.5"/>
<text text-anchor="middle" x="227" y="-7.5" font-family="Helvetica,sans-Serif" font-size="10.00">TDRSOD.cpp</text>
</a>
</g>
</g>
<!-- Node1&#45;&gt;Node4 -->
<g id="edge3" class="edge"><title>Node1&#45;&gt;Node4</title>
<path fill="none" stroke="midnightblue" d="M151.083,-51.5895C169.757,-41.6052 194.704,-28.2672 210.813,-19.6545"/>
<polygon fill="midnightblue" stroke="midnightblue" points="149.396,-48.5224 142.227,-56.324 152.696,-54.6955 149.396,-48.5224"/>
</g>
</g>
</svg>
