<?xml version="1.0" encoding="UTF-8" standalone="no"?>
<!DOCTYPE svg PUBLIC "-//W3C//DTD SVG 1.1//EN"
 "http://www.w3.org/Graphics/SVG/1.1/DTD/svg11.dtd">
<!-- Generated by graphviz version 2.30.1 (20180420.1509)
 -->
<!-- Title: SAT_Const.h Pages: 1 -->
<svg width="477pt" height="140pt"
 viewBox="0.00 0.00 477.00 140.00" xmlns="http://www.w3.org/2000/svg" xmlns:xlink="http://www.w3.org/1999/xlink">
<g id="graph0" class="graph" transform="scale(1 1) rotate(0) translate(4 136)">
<title>SAT_Const.h</title>
<polygon fill="white" stroke="white" points="-4,5 -4,-136 474,-136 474,5 -4,5"/>
<!-- Node1 -->
<g id="node1" class="node"><title>Node1</title>
<polygon fill="#bfbfbf" stroke="black" points="207,-112.5 207,-131.5 283,-131.5 283,-112.5 207,-112.5"/>
<text text-anchor="middle" x="245" y="-119.5" font-family="Helvetica,sans-Serif" font-size="10.00">SAT_Const.h</text>
</g>
<!-- Node2 -->
<g id="node2" class="node"><title>Node2</title>
<g id="a_node2"><a xlink:href="GEODA_8cpp.html" target="_top" xlink:title="GEODA.cpp">
<polygon fill="white" stroke="black" points="-0.5,-0.5 -0.5,-19.5 70.5,-19.5 70.5,-0.5 -0.5,-0.5"/>
<text text-anchor="middle" x="35" y="-7.5" font-family="Helvetica,sans-Serif" font-size="10.00">GEODA.cpp</text>
</a>
</g>
</g>
<!-- Node1&#45;&gt;Node2 -->
<g id="edge1" class="edge"><title>Node1&#45;&gt;Node2</title>
<path fill="none" stroke="midnightblue" d="M219.401,-107.591C175.682,-84.6906 87.826,-38.6708 51.4018,-19.5914"/>
<polygon fill="midnightblue" stroke="midnightblue" points="218.039,-110.829 228.522,-112.368 221.287,-104.628 218.039,-110.829"/>
</g>
<!-- Node3 -->
<g id="node3" class="node"><title>Node3</title>
<g id="a_node3"><a xlink:href="SAT__RefSys_8h.html" target="_top" xlink:title="SAT_RefSys.h">
<polygon fill="white" stroke="black" points="203.5,-56.5 203.5,-75.5 286.5,-75.5 286.5,-56.5 203.5,-56.5"/>
<text text-anchor="middle" x="245" y="-63.5" font-family="Helvetica,sans-Serif" font-size="10.00">SAT_RefSys.h</text>
</a>
</g>
</g>
<!-- Node1&#45;&gt;Node3 -->
<g id="edge2" class="edge"><title>Node1&#45;&gt;Node3</title>
<path fill="none" stroke="midnightblue" d="M245,-101.805C245,-92.9102 245,-82.7798 245,-75.7511"/>
<polygon fill="midnightblue" stroke="midnightblue" points="241.5,-102.083 245,-112.083 248.5,-102.083 241.5,-102.083"/>
</g>
<!-- Node4 -->
<g id="node4" class="node"><title>Node4</title>
<g id="a_node4"><a xlink:href="RTOD_8cpp.html" target="_top" xlink:title="RTOD.cpp">
<polygon fill="white" stroke="black" points="89,-0.5 89,-19.5 153,-19.5 153,-0.5 89,-0.5"/>
<text text-anchor="middle" x="121" y="-7.5" font-family="Helvetica,sans-Serif" font-size="10.00">RTOD.cpp</text>
</a>
</g>
</g>
<!-- Node1&#45;&gt;Node4 -->
<g id="edge8" class="edge"><title>Node1&#45;&gt;Node4</title>
<path fill="none" stroke="midnightblue" d="M225.144,-106.12C214.001,-97.575 199.975,-86.4871 188,-76 166.055,-56.7808 141.846,-32.4536 129.407,-19.7032"/>
<polygon fill="midnightblue" stroke="midnightblue" points="223.287,-109.106 233.367,-112.369 227.522,-103.532 223.287,-109.106"/>
</g>
<!-- Node5 -->
<g id="node5" class="node"><title>Node5</title>
<g id="a_node5"><a xlink:href="SAT__Force_8cpp.html" target="_top" xlink:title="SAT_Force.cpp">
<polygon fill="white" stroke="black" points="171.5,-0.5 171.5,-19.5 256.5,-19.5 256.5,-0.5 171.5,-0.5"/>
<text text-anchor="middle" x="214" y="-7.5" font-family="Helvetica,sans-Serif" font-size="10.00">SAT_Force.cpp</text>
</a>
</g>
</g>
<!-- Node1&#45;&gt;Node5 -->
<g id="edge9" class="edge"><title>Node1&#45;&gt;Node5</title>
<path fill="none" stroke="midnightblue" d="M220.879,-106.473C210.563,-98.8277 199.616,-88.4447 194,-76 185.258,-56.6288 198.697,-32.3633 207.447,-19.663"/>
<polygon fill="midnightblue" stroke="midnightblue" points="219.042,-109.457 229.266,-112.236 223.006,-103.688 219.042,-109.457"/>
</g>
<!-- Node8 -->
<g id="node8" class="node"><title>Node8</title>
<g id="a_node8"><a xlink:href="SAT__Kepler_8cpp.html" target="_top" xlink:title="SAT_Kepler.cpp">
<polygon fill="white" stroke="black" points="381,-56.5 381,-75.5 469,-75.5 469,-56.5 381,-56.5"/>
<text text-anchor="middle" x="425" y="-63.5" font-family="Helvetica,sans-Serif" font-size="10.00">SAT_Kepler.cpp</text>
</a>
</g>
</g>
<!-- Node1&#45;&gt;Node8 -->
<g id="edge10" class="edge"><title>Node1&#45;&gt;Node8</title>
<path fill="none" stroke="midnightblue" d="M283.108,-109.568C317.063,-99.381 365.989,-84.7034 396.612,-75.5164"/>
<polygon fill="midnightblue" stroke="midnightblue" points="282.094,-106.218 273.522,-112.444 284.106,-112.922 282.094,-106.218"/>
</g>
<!-- Node6 -->
<g id="node6" class="node"><title>Node6</title>
<g id="a_node6"><a xlink:href="SAT__RefSys_8cpp.html" target="_top" xlink:title="SAT_RefSys.cpp">
<polygon fill="white" stroke="black" points="274.5,-0.5 274.5,-19.5 367.5,-19.5 367.5,-0.5 274.5,-0.5"/>
<text text-anchor="middle" x="321" y="-7.5" font-family="Helvetica,sans-Serif" font-size="10.00">SAT_RefSys.cpp</text>
</a>
</g>
</g>
<!-- Node1&#45;&gt;Node6 -->
<g id="edge11" class="edge"><title>Node1&#45;&gt;Node6</title>
<path fill="none" stroke="midnightblue" d="M265.772,-105.945C275.663,-97.9413 287.04,-87.4075 295,-76 307.658,-57.8596 315.459,-32.6595 318.912,-19.6064"/>
<polygon fill="midnightblue" stroke="midnightblue" points="263.349,-103.395 257.586,-112.286 267.635,-108.929 263.349,-103.395"/>
</g>
<!-- Node7 -->
<g id="node7" class="node"><title>Node7</title>
<g id="a_node7"><a xlink:href="TDRSOD_8cpp.html" target="_top" xlink:title="TDRSOD.cpp">
<polygon fill="white" stroke="black" points="386,-0.5 386,-19.5 464,-19.5 464,-0.5 386,-0.5"/>
<text text-anchor="middle" x="425" y="-7.5" font-family="Helvetica,sans-Serif" font-size="10.00">TDRSOD.cpp</text>
</a>
</g>
</g>
<!-- Node1&#45;&gt;Node7 -->
<g id="edge12" class="edge"><title>Node1&#45;&gt;Node7</title>
<path fill="none" stroke="midnightblue" d="M267.895,-107.009C305.678,-83.919 379.983,-38.5104 410.941,-19.5914"/>
<polygon fill="midnightblue" stroke="midnightblue" points="265.832,-104.167 259.124,-112.368 269.482,-110.14 265.832,-104.167"/>
</g>
<!-- Node3&#45;&gt;Node2 -->
<g id="edge3" class="edge"><title>Node3&#45;&gt;Node2</title>
<path fill="none" stroke="midnightblue" d="M201.81,-53.8941C162.153,-43.6966 104.23,-28.802 68.1194,-19.5164"/>
<polygon fill="midnightblue" stroke="midnightblue" points="201.168,-57.3428 211.725,-56.4435 202.912,-50.5633 201.168,-57.3428"/>
</g>
<!-- Node3&#45;&gt;Node4 -->
<g id="edge4" class="edge"><title>Node3&#45;&gt;Node4</title>
<path fill="none" stroke="midnightblue" d="M215.993,-52.3678C192.771,-42.2553 160.837,-28.3486 140.556,-19.5164"/>
<polygon fill="midnightblue" stroke="midnightblue" points="214.786,-55.6597 225.352,-56.4435 217.581,-49.2419 214.786,-55.6597"/>
</g>
<!-- Node3&#45;&gt;Node5 -->
<g id="edge5" class="edge"><title>Node3&#45;&gt;Node5</title>
<path fill="none" stroke="midnightblue" d="M234.824,-47.2747C229.526,-38.0454 223.283,-27.1703 219.024,-19.7511"/>
<polygon fill="midnightblue" stroke="midnightblue" points="231.867,-49.153 239.881,-56.083 237.938,-45.6679 231.867,-49.153"/>
</g>
<!-- Node3&#45;&gt;Node6 -->
<g id="edge6" class="edge"><title>Node3&#45;&gt;Node6</title>
<path fill="none" stroke="midnightblue" d="M265.576,-50.3804C279.312,-40.6204 296.925,-28.1057 308.567,-19.8339"/>
<polygon fill="midnightblue" stroke="midnightblue" points="263.335,-47.6787 257.211,-56.324 267.39,-53.385 263.335,-47.6787"/>
</g>
<!-- Node3&#45;&gt;Node7 -->
<g id="edge7" class="edge"><title>Node3&#45;&gt;Node7</title>
<path fill="none" stroke="midnightblue" d="M283.108,-53.5677C317.063,-43.381 365.989,-28.7034 396.612,-19.5164"/>
<polygon fill="midnightblue" stroke="midnightblue" points="282.094,-50.2176 273.522,-56.4435 284.106,-56.9224 282.094,-50.2176"/>
</g>
</g>
</svg>
