<?xml version="1.0" encoding="UTF-8" standalone="no"?>
<!DOCTYPE svg PUBLIC "-//W3C//DTD SVG 1.1//EN"
 "http://www.w3.org/Graphics/SVG/1.1/DTD/svg11.dtd">
<!-- Generated by graphviz version 2.30.1 (20180420.1509)
 -->
<!-- Title: Norm Pages: 1 -->
<svg width="410pt" height="408pt"
 viewBox="0.00 0.00 410.00 408.00" xmlns="http://www.w3.org/2000/svg" xmlns:xlink="http://www.w3.org/1999/xlink">
<g id="graph0" class="graph" transform="scale(1 1) rotate(0) translate(4 404)">
<title>Norm</title>
<polygon fill="white" stroke="white" points="-4,5 -4,-404 407,-404 407,5 -4,5"/>
<!-- Node1 -->
<g id="node1" class="node"><title>Node1</title>
<polygon fill="#bfbfbf" stroke="black" points="0.5,-190.5 0.5,-209.5 41.5,-209.5 41.5,-190.5 0.5,-190.5"/>
<text text-anchor="middle" x="21" y="-197.5" font-family="Helvetica,sans-Serif" font-size="10.00">Norm</text>
</g>
<!-- Node2 -->
<g id="node2" class="node"><title>Node2</title>
<g id="a_node2"><a xlink:href="GEODA_8cpp.html#a0ddf1224851353fc92bfbff6f499fa97" target="_top" xlink:title="main">
<polygon fill="white" stroke="black" points="110,-380.5 110,-399.5 148,-399.5 148,-380.5 110,-380.5"/>
<text text-anchor="middle" x="129" y="-387.5" font-family="Helvetica,sans-Serif" font-size="10.00">main</text>
</a>
</g>
</g>
<!-- Node1&#45;&gt;Node2 -->
<g id="edge1" class="edge"><title>Node1&#45;&gt;Node2</title>
<path fill="none" stroke="midnightblue" d="M23.0961,-219.913C26.073,-254.998 37.1138,-328.16 78,-371 86.3347,-379.733 99.0982,-384.496 109.643,-387.069"/>
<polygon fill="midnightblue" stroke="midnightblue" points="26.5616,-219.301 22.3642,-209.574 19.5791,-219.796 26.5616,-219.301"/>
</g>
<!-- Node3 -->
<g id="node3" class="node"><title>Node3</title>
<g id="a_node3"><a xlink:href="SAT__Force_8h.html#ab05039f4d20345bbf7b463449ecaef11" target="_top" xlink:title="Illumination">
<polygon fill="white" stroke="black" points="227,-266.5 227,-285.5 293,-285.5 293,-266.5 227,-266.5"/>
<text text-anchor="middle" x="260" y="-273.5" font-family="Helvetica,sans-Serif" font-size="10.00">Illumination</text>
</a>
</g>
</g>
<!-- Node1&#45;&gt;Node3 -->
<g id="edge2" class="edge"><title>Node1&#45;&gt;Node3</title>
<path fill="none" stroke="midnightblue" d="M42.8886,-215.407C53.0485,-222.272 65.7011,-229.935 78,-235 127.902,-255.552 189.989,-266.762 226.953,-272.057"/>
<polygon fill="midnightblue" stroke="midnightblue" points="44.8748,-212.525 34.6735,-209.664 40.8643,-218.262 44.8748,-212.525"/>
</g>
<!-- Node6 -->
<g id="node6" class="node"><title>Node6</title>
<g id="a_node6"><a xlink:href="SAT__Force_8h.html#a4db2f0789d2dccce991342a00f1ad75d" target="_top" xlink:title="AccelPointMass">
<polygon fill="white" stroke="black" points="216,-228.5 216,-247.5 304,-247.5 304,-228.5 216,-228.5"/>
<text text-anchor="middle" x="260" y="-235.5" font-family="Helvetica,sans-Serif" font-size="10.00">AccelPointMass</text>
</a>
</g>
</g>
<!-- Node1&#45;&gt;Node6 -->
<g id="edge5" class="edge"><title>Node1&#45;&gt;Node6</title>
<path fill="none" stroke="midnightblue" d="M51.4602,-208.029C59.9798,-210.17 69.3218,-212.345 78,-214 124.862,-222.935 179.181,-229.659 215.993,-233.684"/>
<polygon fill="midnightblue" stroke="midnightblue" points="52.1339,-204.588 41.5759,-205.472 50.3804,-211.365 52.1339,-204.588"/>
</g>
<!-- Node7 -->
<g id="node7" class="node"><title>Node7</title>
<g id="a_node7"><a xlink:href="SAT__Force_8h.html#a871f302ecd9687d7bee13583c15b0f31" target="_top" xlink:title="AccelSolrad">
<polygon fill="white" stroke="black" points="225.5,-190.5 225.5,-209.5 294.5,-209.5 294.5,-190.5 225.5,-190.5"/>
<text text-anchor="middle" x="260" y="-197.5" font-family="Helvetica,sans-Serif" font-size="10.00">AccelSolrad</text>
</a>
</g>
</g>
<!-- Node1&#45;&gt;Node7 -->
<g id="edge8" class="edge"><title>Node1&#45;&gt;Node7</title>
<path fill="none" stroke="midnightblue" d="M51.9195,-200C96.1694,-200 178.815,-200 225.197,-200"/>
<polygon fill="midnightblue" stroke="midnightblue" points="51.7989,-196.5 41.7988,-200 51.7988,-203.5 51.7989,-196.5"/>
</g>
<!-- Node8 -->
<g id="node8" class="node"><title>Node8</title>
<g id="a_node8"><a xlink:href="SAT__Force_8h.html#ae20f51bcb69607d4a2268329837260f2" target="_top" xlink:title="AccelDrag">
<polygon fill="white" stroke="black" points="229,-304.5 229,-323.5 291,-323.5 291,-304.5 229,-304.5"/>
<text text-anchor="middle" x="260" y="-311.5" font-family="Helvetica,sans-Serif" font-size="10.00">AccelDrag</text>
</a>
</g>
</g>
<!-- Node1&#45;&gt;Node8 -->
<g id="edge11" class="edge"><title>Node1&#45;&gt;Node8</title>
<path fill="none" stroke="midnightblue" d="M33.76,-218.14C43.8682,-232.335 59.6858,-251.533 78,-263 125.594,-292.799 190.94,-305.578 228.699,-310.756"/>
<polygon fill="midnightblue" stroke="midnightblue" points="36.5027,-215.949 27.9731,-209.665 30.7218,-219.897 36.5027,-215.949"/>
</g>
<!-- Node9 -->
<g id="node9" class="node"><title>Node9</title>
<g id="a_node9"><a xlink:href="SAT__Force_8h.html#a6ad9e17c2e7636b8cd8045d461940681" target="_top" xlink:title="Density_HP">
<polygon fill="white" stroke="black" points="94,-342.5 94,-361.5 164,-361.5 164,-342.5 94,-342.5"/>
<text text-anchor="middle" x="129" y="-349.5" font-family="Helvetica,sans-Serif" font-size="10.00">Density_HP</text>
</a>
</g>
</g>
<!-- Node1&#45;&gt;Node9 -->
<g id="edge14" class="edge"><title>Node1&#45;&gt;Node9</title>
<path fill="none" stroke="midnightblue" d="M26.03,-219.564C32.5796,-246.956 47.9405,-296.866 78,-328 83.8854,-334.096 91.6328,-338.837 99.2667,-342.434"/>
<polygon fill="midnightblue" stroke="midnightblue" points="29.4071,-218.628 23.8092,-209.632 22.5758,-220.155 29.4071,-218.628"/>
</g>
<!-- Node10 -->
<g id="node10" class="node"><title>Node10</title>
<g id="a_node10"><a xlink:href="SAT__Kepler_8h.html#a131c46c69e895d1d1bf15bf54830012d" target="_top" xlink:title="FindEta">
<polygon fill="white" stroke="black" points="104,-152.5 104,-171.5 154,-171.5 154,-152.5 104,-152.5"/>
<text text-anchor="middle" x="129" y="-159.5" font-family="Helvetica,sans-Serif" font-size="10.00">FindEta</text>
</a>
</g>
</g>
<!-- Node1&#45;&gt;Node10 -->
<g id="edge16" class="edge"><title>Node1&#45;&gt;Node10</title>
<path fill="none" stroke="midnightblue" d="M51.6025,-189.388C68.0238,-183.501 88.1944,-176.27 103.686,-170.716"/>
<polygon fill="midnightblue" stroke="midnightblue" points="50.1701,-186.183 41.9378,-192.852 52.5323,-192.773 50.1701,-186.183"/>
</g>
<!-- Node12 -->
<g id="node12" class="node"><title>Node12</title>
<g id="a_node12"><a xlink:href="SAT__Kepler_8h.html#ad41abe3ee1647b2de98425457c6fdce2" target="_top" xlink:title="StatePartials">
<polygon fill="white" stroke="black" points="92.5,-76.5 92.5,-95.5 165.5,-95.5 165.5,-76.5 92.5,-76.5"/>
<text text-anchor="middle" x="129" y="-83.5" font-family="Helvetica,sans-Serif" font-size="10.00">StatePartials</text>
</a>
</g>
</g>
<!-- Node1&#45;&gt;Node12 -->
<g id="edge18" class="edge"><title>Node1&#45;&gt;Node12</title>
<path fill="none" stroke="midnightblue" d="M28.7649,-180.941C37.2112,-159.685 53.5862,-125.591 78,-105 82.5431,-101.168 87.9396,-98.0651 93.4789,-95.5654"/>
<polygon fill="midnightblue" stroke="midnightblue" points="25.4182,-179.897 25.1624,-190.489 31.9675,-182.368 25.4182,-179.897"/>
</g>
<!-- Node15 -->
<g id="node15" class="node"><title>Node15</title>
<g id="a_node15"><a xlink:href="SAT__Kepler_8h.html#a1d7fdd2727e376b6aa5a54877ca6a205" target="_top" xlink:title="Elements">
<polygon fill="white" stroke="black" points="100,-114.5 100,-133.5 158,-133.5 158,-114.5 100,-114.5"/>
<text text-anchor="middle" x="129" y="-121.5" font-family="Helvetica,sans-Serif" font-size="10.00">Elements</text>
</a>
</g>
</g>
<!-- Node1&#45;&gt;Node15 -->
<g id="edge21" class="edge"><title>Node1&#45;&gt;Node15</title>
<path fill="none" stroke="midnightblue" d="M35.7521,-182.402C46.218,-169.989 61.581,-153.727 78,-143 84.6858,-138.632 92.5222,-135.055 99.9818,-132.23"/>
<polygon fill="midnightblue" stroke="midnightblue" points="32.9463,-180.305 29.336,-190.265 38.3699,-184.73 32.9463,-180.305"/>
</g>
<!-- Node16 -->
<g id="node16" class="node"><title>Node16</title>
<g id="a_node16"><a xlink:href="classGeodetic.html#ad813b9417dac1cee7ea962c36b82bb9c" target="_top" xlink:title="Geodetic::Geodetic">
<polygon fill="white" stroke="black" points="78.5,-38.5 78.5,-57.5 179.5,-57.5 179.5,-38.5 78.5,-38.5"/>
<text text-anchor="middle" x="129" y="-45.5" font-family="Helvetica,sans-Serif" font-size="10.00">Geodetic::Geodetic</text>
</a>
</g>
</g>
<!-- Node1&#45;&gt;Node16 -->
<g id="edge23" class="edge"><title>Node1&#45;&gt;Node16</title>
<path fill="none" stroke="midnightblue" d="M25.288,-180.12C31.0339,-151.404 45.5361,-98.3353 78,-67 82.0089,-63.1305 86.8851,-60.0311 92.002,-57.5535"/>
<polygon fill="midnightblue" stroke="midnightblue" points="21.8081,-179.692 23.4412,-190.16 28.6926,-180.958 21.8081,-179.692"/>
</g>
<!-- Node17 -->
<g id="node17" class="node"><title>Node17</title>
<g id="a_node17"><a xlink:href="TDRSOD_8cpp.html#a466ab098330aeb2aa659365279071640" target="_top" xlink:title="Range_4W">
<polygon fill="white" stroke="black" points="96.5,-0.5 96.5,-19.5 161.5,-19.5 161.5,-0.5 96.5,-0.5"/>
<text text-anchor="middle" x="129" y="-7.5" font-family="Helvetica,sans-Serif" font-size="10.00">Range_4W</text>
</a>
</g>
</g>
<!-- Node1&#45;&gt;Node17 -->
<g id="edge24" class="edge"><title>Node1&#45;&gt;Node17</title>
<path fill="none" stroke="midnightblue" d="M23.0961,-180.087C26.073,-145.002 37.1138,-71.8403 78,-29 83.0008,-23.7602 89.596,-19.9495 96.3497,-17.1835"/>
<polygon fill="midnightblue" stroke="midnightblue" points="19.5791,-180.204 22.3642,-190.426 26.5616,-180.699 19.5791,-180.204"/>
</g>
<!-- Node4 -->
<g id="node4" class="node"><title>Node4</title>
<g id="a_node4"><a xlink:href="SAT__Force_8h.html#a750f7a2f89dc275831e706abee33310f" target="_top" xlink:title="AccelMain">
<polygon fill="white" stroke="black" points="340,-228.5 340,-247.5 402,-247.5 402,-228.5 340,-228.5"/>
<text text-anchor="middle" x="371" y="-235.5" font-family="Helvetica,sans-Serif" font-size="10.00">AccelMain</text>
</a>
</g>
</g>
<!-- Node3&#45;&gt;Node4 -->
<g id="edge3" class="edge"><title>Node3&#45;&gt;Node4</title>
<path fill="none" stroke="midnightblue" d="M298.209,-263.028C312.73,-257.966 329.079,-252.266 342.503,-247.586"/>
<polygon fill="midnightblue" stroke="midnightblue" points="296.796,-259.814 288.505,-266.411 299.1,-266.424 296.796,-259.814"/>
</g>
<!-- Node5 -->
<g id="node5" class="node"><title>Node5</title>
<g id="a_node5"><a xlink:href="TDRSOD_8cpp.html#a1d3803a2ec3760bf63edefae54e3ac5b" target="_top" xlink:title="Accel">
<polygon fill="white" stroke="black" points="350.5,-266.5 350.5,-285.5 391.5,-285.5 391.5,-266.5 350.5,-266.5"/>
<text text-anchor="middle" x="371" y="-273.5" font-family="Helvetica,sans-Serif" font-size="10.00">Accel</text>
</a>
</g>
</g>
<!-- Node3&#45;&gt;Node5 -->
<g id="edge4" class="edge"><title>Node3&#45;&gt;Node5</title>
<path fill="none" stroke="midnightblue" d="M303.477,-276C319.672,-276 337.356,-276 350.419,-276"/>
<polygon fill="midnightblue" stroke="midnightblue" points="303.114,-272.5 293.114,-276 303.114,-279.5 303.114,-272.5"/>
</g>
<!-- Node6&#45;&gt;Node4 -->
<g id="edge6" class="edge"><title>Node6&#45;&gt;Node4</title>
<path fill="none" stroke="midnightblue" d="M314.351,-238C323.163,-238 332.015,-238 339.985,-238"/>
<polygon fill="midnightblue" stroke="midnightblue" points="314.08,-234.5 304.08,-238 314.08,-241.5 314.08,-234.5"/>
</g>
<!-- Node6&#45;&gt;Node5 -->
<g id="edge7" class="edge"><title>Node6&#45;&gt;Node5</title>
<path fill="none" stroke="midnightblue" d="M298.429,-251.049C315.901,-257.14 335.977,-264.139 350.411,-269.171"/>
<polygon fill="midnightblue" stroke="midnightblue" points="299.1,-247.576 288.505,-247.589 296.796,-254.186 299.1,-247.576"/>
</g>
<!-- Node7&#45;&gt;Node4 -->
<g id="edge9" class="edge"><title>Node7&#45;&gt;Node4</title>
<path fill="none" stroke="midnightblue" d="M298.209,-212.972C312.73,-218.034 329.079,-223.734 342.503,-228.414"/>
<polygon fill="midnightblue" stroke="midnightblue" points="299.1,-209.576 288.505,-209.589 296.796,-216.186 299.1,-209.576"/>
</g>
<!-- Node7&#45;&gt;Node5 -->
<g id="edge10" class="edge"><title>Node7&#45;&gt;Node5</title>
<path fill="none" stroke="midnightblue" d="M296.451,-214.273C299.076,-215.747 301.624,-217.324 304,-219 323.012,-232.408 322.035,-242.218 340,-257 344.094,-260.369 348.823,-263.618 353.298,-266.449"/>
<polygon fill="midnightblue" stroke="midnightblue" points="297.865,-211.066 287.363,-209.668 294.701,-217.31 297.865,-211.066"/>
</g>
<!-- Node8&#45;&gt;Node4 -->
<g id="edge12" class="edge"><title>Node8&#45;&gt;Node4</title>
<path fill="none" stroke="midnightblue" d="M296.451,-299.727C299.076,-298.253 301.624,-296.676 304,-295 323.012,-281.592 322.035,-271.782 340,-257 344.094,-253.631 348.823,-250.382 353.298,-247.551"/>
<polygon fill="midnightblue" stroke="midnightblue" points="294.701,-296.69 287.363,-304.332 297.865,-302.934 294.701,-296.69"/>
</g>
<!-- Node8&#45;&gt;Node5 -->
<g id="edge13" class="edge"><title>Node8&#45;&gt;Node5</title>
<path fill="none" stroke="midnightblue" d="M298.429,-300.951C315.901,-294.86 335.977,-287.861 350.411,-282.829"/>
<polygon fill="midnightblue" stroke="midnightblue" points="296.796,-297.814 288.505,-304.411 299.1,-304.424 296.796,-297.814"/>
</g>
<!-- Node9&#45;&gt;Node8 -->
<g id="edge15" class="edge"><title>Node9&#45;&gt;Node8</title>
<path fill="none" stroke="midnightblue" d="M172.183,-339.574C190.62,-334.143 211.832,-327.894 228.674,-322.933"/>
<polygon fill="midnightblue" stroke="midnightblue" points="171.156,-336.228 162.552,-342.411 173.134,-342.943 171.156,-336.228"/>
</g>
<!-- Node11 -->
<g id="node11" class="node"><title>Node11</title>
<g id="a_node11"><a xlink:href="SAT__Kepler_8h.html#ae76d62d97df6e450fe706aebb882b103" target="_top" xlink:title="Elements">
<polygon fill="white" stroke="black" points="231,-152.5 231,-171.5 289,-171.5 289,-152.5 231,-152.5"/>
<text text-anchor="middle" x="260" y="-159.5" font-family="Helvetica,sans-Serif" font-size="10.00">Elements</text>
</a>
</g>
</g>
<!-- Node10&#45;&gt;Node11 -->
<g id="edge17" class="edge"><title>Node10&#45;&gt;Node11</title>
<path fill="none" stroke="midnightblue" d="M164.273,-162C185.049,-162 211.232,-162 230.803,-162"/>
<polygon fill="midnightblue" stroke="midnightblue" points="164.264,-158.5 154.264,-162 164.264,-165.5 164.264,-158.5"/>
</g>
<!-- Node13 -->
<g id="node13" class="node"><title>Node13</title>
<g id="a_node13"><a xlink:href="SAT__Kepler_8h.html#aeb2175e4cdc39ea590f44fc2949ea8d3" target="_top" xlink:title="TwoBody">
<polygon fill="white" stroke="black" points="231,-95.5 231,-114.5 289,-114.5 289,-95.5 231,-95.5"/>
<text text-anchor="middle" x="260" y="-102.5" font-family="Helvetica,sans-Serif" font-size="10.00">TwoBody</text>
</a>
</g>
</g>
<!-- Node12&#45;&gt;Node13 -->
<g id="edge19" class="edge"><title>Node12&#45;&gt;Node13</title>
<path fill="none" stroke="midnightblue" d="M175.559,-92.7103C193.999,-95.4262 214.705,-98.4759 230.877,-100.858"/>
<polygon fill="midnightblue" stroke="midnightblue" points="175.995,-89.2367 165.591,-91.2421 174.975,-96.162 175.995,-89.2367"/>
</g>
<!-- Node14 -->
<g id="node14" class="node"><title>Node14</title>
<g id="a_node14"><a xlink:href="RTOD_8cpp.html#a0ddf1224851353fc92bfbff6f499fa97" target="_top" xlink:title="main">
<polygon fill="white" stroke="black" points="352,-95.5 352,-114.5 390,-114.5 390,-95.5 352,-95.5"/>
<text text-anchor="middle" x="371" y="-102.5" font-family="Helvetica,sans-Serif" font-size="10.00">main</text>
</a>
</g>
</g>
<!-- Node13&#45;&gt;Node14 -->
<g id="edge20" class="edge"><title>Node13&#45;&gt;Node14</title>
<path fill="none" stroke="midnightblue" d="M299.249,-105C317.154,-105 337.635,-105 351.938,-105"/>
<polygon fill="midnightblue" stroke="midnightblue" points="299.07,-101.5 289.07,-105 299.07,-108.5 299.07,-101.5"/>
</g>
<!-- Node15&#45;&gt;Node13 -->
<g id="edge22" class="edge"><title>Node15&#45;&gt;Node13</title>
<path fill="none" stroke="midnightblue" d="M168.36,-118.35C188.385,-115.401 212.455,-111.856 230.756,-109.16"/>
<polygon fill="midnightblue" stroke="midnightblue" points="167.693,-114.91 158.31,-119.83 168.713,-121.836 167.693,-114.91"/>
</g>
<!-- Node18 -->
<g id="node18" class="node"><title>Node18</title>
<g id="a_node18"><a xlink:href="TDRSOD_8cpp.html#a0ddf1224851353fc92bfbff6f499fa97" target="_top" xlink:title="main">
<polygon fill="white" stroke="black" points="241,-0.5 241,-19.5 279,-19.5 279,-0.5 241,-0.5"/>
<text text-anchor="middle" x="260" y="-7.5" font-family="Helvetica,sans-Serif" font-size="10.00">main</text>
</a>
</g>
</g>
<!-- Node17&#45;&gt;Node18 -->
<g id="edge25" class="edge"><title>Node17&#45;&gt;Node18</title>
<path fill="none" stroke="midnightblue" d="M171.59,-10C194.982,-10 222.995,-10 240.89,-10"/>
<polygon fill="midnightblue" stroke="midnightblue" points="171.557,-6.5001 161.557,-10 171.557,-13.5001 171.557,-6.5001"/>
</g>
</g>
</svg>
