<?xml version="1.0" encoding="UTF-8" standalone="no"?>
<!DOCTYPE svg PUBLIC "-//W3C//DTD SVG 1.1//EN"
 "http://www.w3.org/Graphics/SVG/1.1/DTD/svg11.dtd">
<!-- Generated by graphviz version 2.30.1 (20180420.1509)
 -->
<!-- Title: R_y Pages: 1 -->
<svg width="368pt" height="142pt"
 viewBox="0.00 0.00 368.00 142.00" xmlns="http://www.w3.org/2000/svg" xmlns:xlink="http://www.w3.org/1999/xlink">
<g id="graph0" class="graph" transform="scale(1 1) rotate(0) translate(4 138)">
<title>R_y</title>
<polygon fill="white" stroke="white" points="-4,5 -4,-138 365,-138 365,5 -4,5"/>
<!-- Node1 -->
<g id="node1" class="node"><title>Node1</title>
<polygon fill="#bfbfbf" stroke="black" points="0.5,-38.5 0.5,-57.5 35.5,-57.5 35.5,-38.5 0.5,-38.5"/>
<text text-anchor="middle" x="18" y="-45.5" font-family="Helvetica,sans-Serif" font-size="10.00">R_y</text>
</g>
<!-- Node2 -->
<g id="node2" class="node"><title>Node2</title>
<g id="a_node2"><a xlink:href="SAT__RefSys_8h.html#abc2e56e609b82264ae010497b21dcba0" target="_top" xlink:title="PrecMatrix">
<polygon fill="white" stroke="black" points="72,-76.5 72,-95.5 136,-95.5 136,-76.5 72,-76.5"/>
<text text-anchor="middle" x="104" y="-83.5" font-family="Helvetica,sans-Serif" font-size="10.00">PrecMatrix</text>
</a>
</g>
</g>
<!-- Node1&#45;&gt;Node2 -->
<g id="edge1" class="edge"><title>Node1&#45;&gt;Node2</title>
<path fill="none" stroke="midnightblue" d="M44.9963,-59.7602C56.872,-65.1326 70.7548,-71.4129 81.9608,-76.4822"/>
<polygon fill="midnightblue" stroke="midnightblue" points="46.1494,-56.4404 35.5957,-55.5076 43.2642,-62.8182 46.1494,-56.4404"/>
</g>
<!-- Node7 -->
<g id="node7" class="node"><title>Node7</title>
<g id="a_node7"><a xlink:href="SAT__RefSys_8h.html#a3a50fff4beefe84794cd248777679bf4" target="_top" xlink:title="PoleMatrix">
<polygon fill="white" stroke="black" points="72.5,-38.5 72.5,-57.5 135.5,-57.5 135.5,-38.5 72.5,-38.5"/>
<text text-anchor="middle" x="104" y="-45.5" font-family="Helvetica,sans-Serif" font-size="10.00">PoleMatrix</text>
</a>
</g>
</g>
<!-- Node1&#45;&gt;Node7 -->
<g id="edge6" class="edge"><title>Node1&#45;&gt;Node7</title>
<path fill="none" stroke="midnightblue" d="M45.737,-48C54.253,-48 63.738,-48 72.4996,-48"/>
<polygon fill="midnightblue" stroke="midnightblue" points="45.5957,-44.5001 35.5957,-48 45.5957,-51.5001 45.5957,-44.5001"/>
</g>
<!-- Node8 -->
<g id="node8" class="node"><title>Node8</title>
<g id="a_node8"><a xlink:href="SAT__RefSys_8h.html#ae2cb1346d211047ba96d1b2d69aa13c1" target="_top" xlink:title="LTCMatrix">
<polygon fill="white" stroke="black" points="73,-0.5 73,-19.5 135,-19.5 135,-0.5 73,-0.5"/>
<text text-anchor="middle" x="104" y="-7.5" font-family="Helvetica,sans-Serif" font-size="10.00">LTCMatrix</text>
</a>
</g>
</g>
<!-- Node1&#45;&gt;Node8 -->
<g id="edge8" class="edge"><title>Node1&#45;&gt;Node8</title>
<path fill="none" stroke="midnightblue" d="M44.9963,-36.2398C56.872,-30.8674 70.7548,-24.5871 81.9608,-19.5178"/>
<polygon fill="midnightblue" stroke="midnightblue" points="43.2642,-33.1818 35.5957,-40.4924 46.1494,-39.5596 43.2642,-33.1818"/>
</g>
<!-- Node3 -->
<g id="node3" class="node"><title>Node3</title>
<g id="a_node3"><a xlink:href="SAT__Force_8h.html#a750f7a2f89dc275831e706abee33310f" target="_top" xlink:title="AccelMain">
<polygon fill="white" stroke="black" points="198,-114.5 198,-133.5 260,-133.5 260,-114.5 198,-114.5"/>
<text text-anchor="middle" x="229" y="-121.5" font-family="Helvetica,sans-Serif" font-size="10.00">AccelMain</text>
</a>
</g>
</g>
<!-- Node2&#45;&gt;Node3 -->
<g id="edge2" class="edge"><title>Node2&#45;&gt;Node3</title>
<path fill="none" stroke="midnightblue" d="M145.725,-98.5818C162.728,-103.835 182.131,-109.829 197.822,-114.677"/>
<polygon fill="midnightblue" stroke="midnightblue" points="146.626,-95.1968 136.038,-95.589 144.559,-101.885 146.626,-95.1968"/>
</g>
<!-- Node4 -->
<g id="node4" class="node"><title>Node4</title>
<g id="a_node4"><a xlink:href="TDRSOD_8cpp.html#a1d3803a2ec3760bf63edefae54e3ac5b" target="_top" xlink:title="Accel">
<polygon fill="white" stroke="black" points="208.5,-76.5 208.5,-95.5 249.5,-95.5 249.5,-76.5 208.5,-76.5"/>
<text text-anchor="middle" x="229" y="-83.5" font-family="Helvetica,sans-Serif" font-size="10.00">Accel</text>
</a>
</g>
</g>
<!-- Node2&#45;&gt;Node4 -->
<g id="edge3" class="edge"><title>Node2&#45;&gt;Node4</title>
<path fill="none" stroke="midnightblue" d="M146.258,-86C167.12,-86 191.479,-86 208.144,-86"/>
<polygon fill="midnightblue" stroke="midnightblue" points="146.038,-82.5001 136.038,-86 146.038,-89.5001 146.038,-82.5001"/>
</g>
<!-- Node5 -->
<g id="node5" class="node"><title>Node5</title>
<g id="a_node5"><a xlink:href="TDRSOD_8cpp.html#a466ab098330aeb2aa659365279071640" target="_top" xlink:title="Range_4W">
<polygon fill="white" stroke="black" points="196.5,-38.5 196.5,-57.5 261.5,-57.5 261.5,-38.5 196.5,-38.5"/>
<text text-anchor="middle" x="229" y="-45.5" font-family="Helvetica,sans-Serif" font-size="10.00">Range_4W</text>
</a>
</g>
</g>
<!-- Node2&#45;&gt;Node5 -->
<g id="edge4" class="edge"><title>Node2&#45;&gt;Node5</title>
<path fill="none" stroke="midnightblue" d="M146.045,-73.3196C162.664,-68.1852 181.532,-62.3559 196.972,-57.5859"/>
<polygon fill="midnightblue" stroke="midnightblue" points="144.559,-70.1151 136.038,-76.411 146.626,-76.8032 144.559,-70.1151"/>
</g>
<!-- Node6 -->
<g id="node6" class="node"><title>Node6</title>
<g id="a_node6"><a xlink:href="TDRSOD_8cpp.html#a0ddf1224851353fc92bfbff6f499fa97" target="_top" xlink:title="main">
<polygon fill="white" stroke="black" points="322,-38.5 322,-57.5 360,-57.5 360,-38.5 322,-38.5"/>
<text text-anchor="middle" x="341" y="-45.5" font-family="Helvetica,sans-Serif" font-size="10.00">main</text>
</a>
</g>
</g>
<!-- Node5&#45;&gt;Node6 -->
<g id="edge5" class="edge"><title>Node5&#45;&gt;Node6</title>
<path fill="none" stroke="midnightblue" d="M271.97,-48C289.234,-48 308.315,-48 321.865,-48"/>
<polygon fill="midnightblue" stroke="midnightblue" points="271.522,-44.5001 261.522,-48 271.522,-51.5001 271.522,-44.5001"/>
</g>
<!-- Node7&#45;&gt;Node5 -->
<g id="edge7" class="edge"><title>Node7&#45;&gt;Node5</title>
<path fill="none" stroke="midnightblue" d="M146.122,-48C162.513,-48 181.081,-48 196.387,-48"/>
<polygon fill="midnightblue" stroke="midnightblue" points="145.721,-44.5001 135.721,-48 145.721,-51.5001 145.721,-44.5001"/>
</g>
<!-- Node9 -->
<g id="node9" class="node"><title>Node9</title>
<g id="a_node9"><a xlink:href="classGeodetic.html#a47d84f3c9f36b3443cea7c344fcfbddc" target="_top" xlink:title="Geodetic::LTC_Matrix">
<polygon fill="white" stroke="black" points="172.5,-0.5 172.5,-19.5 285.5,-19.5 285.5,-0.5 172.5,-0.5"/>
<text text-anchor="middle" x="229" y="-7.5" font-family="Helvetica,sans-Serif" font-size="10.00">Geodetic::LTC_Matrix</text>
</a>
</g>
</g>
<!-- Node8&#45;&gt;Node9 -->
<g id="edge9" class="edge"><title>Node8&#45;&gt;Node9</title>
<path fill="none" stroke="midnightblue" d="M145.259,-10C153.9,-10 163.179,-10 172.288,-10"/>
<polygon fill="midnightblue" stroke="midnightblue" points="145.089,-6.5001 135.089,-10 145.089,-13.5001 145.089,-6.5001"/>
</g>
<!-- Node10 -->
<g id="node10" class="node"><title>Node10</title>
<g id="a_node10"><a xlink:href="GEODA_8cpp.html#a0ddf1224851353fc92bfbff6f499fa97" target="_top" xlink:title="main">
<polygon fill="white" stroke="black" points="322,-0.5 322,-19.5 360,-19.5 360,-0.5 322,-0.5"/>
<text text-anchor="middle" x="341" y="-7.5" font-family="Helvetica,sans-Serif" font-size="10.00">main</text>
</a>
</g>
</g>
<!-- Node9&#45;&gt;Node10 -->
<g id="edge10" class="edge"><title>Node9&#45;&gt;Node10</title>
<path fill="none" stroke="midnightblue" d="M295.941,-10C305.32,-10 314.257,-10 321.6,-10"/>
<polygon fill="midnightblue" stroke="midnightblue" points="295.645,-6.5001 285.645,-10 295.644,-13.5001 295.645,-6.5001"/>
</g>
</g>
</svg>
