<?xml version="1.0" encoding="UTF-8" standalone="no"?>
<!DOCTYPE svg PUBLIC "-//W3C//DTD SVG 1.1//EN"
 "http://www.w3.org/Graphics/SVG/1.1/DTD/svg11.dtd">
<!-- Generated by graphviz version 2.30.1 (20180420.1509)
 -->
<!-- Title: Sun Pages: 1 -->
<svg width="344pt" height="66pt"
 viewBox="0.00 0.00 344.00 66.00" xmlns="http://www.w3.org/2000/svg" xmlns:xlink="http://www.w3.org/1999/xlink">
<g id="graph0" class="graph" transform="scale(1 1) rotate(0) translate(4 62)">
<title>Sun</title>
<polygon fill="white" stroke="white" points="-4,5 -4,-62 341,-62 341,5 -4,5"/>
<!-- Node1 -->
<g id="node1" class="node"><title>Node1</title>
<polygon fill="#bfbfbf" stroke="black" points="0,-19.5 0,-38.5 34,-38.5 34,-19.5 0,-19.5"/>
<text text-anchor="middle" x="17" y="-26.5" font-family="Helvetica,sans-Serif" font-size="10.00">Sun</text>
</g>
<!-- Node2 -->
<g id="node2" class="node"><title>Node2</title>
<g id="a_node2"><a xlink:href="SAT__Force_8h.html#a6ad9e17c2e7636b8cd8045d461940681" target="_top" xlink:title="Density_HP">
<polygon fill="white" stroke="black" points="70,-19.5 70,-38.5 140,-38.5 140,-19.5 70,-19.5"/>
<text text-anchor="middle" x="105" y="-26.5" font-family="Helvetica,sans-Serif" font-size="10.00">Density_HP</text>
</a>
</g>
</g>
<!-- Node1&#45;&gt;Node2 -->
<g id="edge1" class="edge"><title>Node1&#45;&gt;Node2</title>
<path fill="none" stroke="midnightblue" d="M44.3922,-29C52.3905,-29 61.2945,-29 69.7306,-29"/>
<polygon fill="midnightblue" stroke="midnightblue" points="44.176,-25.5001 34.1759,-29 44.1759,-32.5001 44.176,-25.5001"/>
</g>
<!-- Node4 -->
<g id="node4" class="node"><title>Node4</title>
<g id="a_node4"><a xlink:href="SAT__Force_8h.html#a750f7a2f89dc275831e706abee33310f" target="_top" xlink:title="AccelMain">
<polygon fill="white" stroke="black" points="274,-38.5 274,-57.5 336,-57.5 336,-38.5 274,-38.5"/>
<text text-anchor="middle" x="305" y="-45.5" font-family="Helvetica,sans-Serif" font-size="10.00">AccelMain</text>
</a>
</g>
</g>
<!-- Node1&#45;&gt;Node4 -->
<g id="edge5" class="edge"><title>Node1&#45;&gt;Node4</title>
<path fill="none" stroke="midnightblue" d="M43.8468,-40.4627C52.0439,-43.5453 61.2528,-46.452 70,-48 142.206,-60.7784 228.92,-55.5372 273.787,-51.3343"/>
<polygon fill="midnightblue" stroke="midnightblue" points="45.0332,-37.1676 34.4489,-36.6949 42.4283,-43.6649 45.0332,-37.1676"/>
</g>
<!-- Node5 -->
<g id="node5" class="node"><title>Node5</title>
<g id="a_node5"><a xlink:href="TDRSOD_8cpp.html#a1d3803a2ec3760bf63edefae54e3ac5b" target="_top" xlink:title="Accel">
<polygon fill="white" stroke="black" points="284.5,-0.5 284.5,-19.5 325.5,-19.5 325.5,-0.5 284.5,-0.5"/>
<text text-anchor="middle" x="305" y="-7.5" font-family="Helvetica,sans-Serif" font-size="10.00">Accel</text>
</a>
</g>
</g>
<!-- Node1&#45;&gt;Node5 -->
<g id="edge6" class="edge"><title>Node1&#45;&gt;Node5</title>
<path fill="none" stroke="midnightblue" d="M43.8468,-17.5373C52.0439,-14.4547 61.2528,-11.548 70,-10 148.407,3.87568 243.92,-3.49578 284.384,-7.71336"/>
<polygon fill="midnightblue" stroke="midnightblue" points="42.4283,-14.3351 34.4489,-21.3051 45.0332,-20.8324 42.4283,-14.3351"/>
</g>
<!-- Node3 -->
<g id="node3" class="node"><title>Node3</title>
<g id="a_node3"><a xlink:href="SAT__Force_8h.html#ae20f51bcb69607d4a2268329837260f2" target="_top" xlink:title="AccelDrag">
<polygon fill="white" stroke="black" points="176,-19.5 176,-38.5 238,-38.5 238,-19.5 176,-19.5"/>
<text text-anchor="middle" x="207" y="-26.5" font-family="Helvetica,sans-Serif" font-size="10.00">AccelDrag</text>
</a>
</g>
</g>
<!-- Node2&#45;&gt;Node3 -->
<g id="edge2" class="edge"><title>Node2&#45;&gt;Node3</title>
<path fill="none" stroke="midnightblue" d="M150.391,-29C158.946,-29 167.722,-29 175.702,-29"/>
<polygon fill="midnightblue" stroke="midnightblue" points="150.135,-25.5001 140.135,-29 150.135,-32.5001 150.135,-25.5001"/>
</g>
<!-- Node3&#45;&gt;Node4 -->
<g id="edge3" class="edge"><title>Node3&#45;&gt;Node4</title>
<path fill="none" stroke="midnightblue" d="M248.067,-36.9298C256.746,-38.6477 265.782,-40.436 273.995,-42.0616"/>
<polygon fill="midnightblue" stroke="midnightblue" points="248.601,-33.4678 238.112,-34.9596 247.242,-40.3346 248.601,-33.4678"/>
</g>
<!-- Node3&#45;&gt;Node5 -->
<g id="edge4" class="edge"><title>Node3&#45;&gt;Node5</title>
<path fill="none" stroke="midnightblue" d="M247.944,-21.0944C260.491,-18.6111 273.795,-15.9781 284.291,-13.9007"/>
<polygon fill="midnightblue" stroke="midnightblue" points="247.242,-17.6654 238.112,-23.0404 248.601,-24.5322 247.242,-17.6654"/>
</g>
</g>
</svg>
