<?xml version="1.0" encoding="UTF-8" standalone="no"?>
<!DOCTYPE svg PUBLIC "-//W3C//DTD SVG 1.1//EN"
 "http://www.w3.org/Graphics/SVG/1.1/DTD/svg11.dtd">
<!-- Generated by graphviz version 2.30.1 (20180420.1509)
 -->
<!-- Title: Transp Pages: 1 -->
<svg width="498pt" height="218pt"
 viewBox="0.00 0.00 498.00 218.00" xmlns="http://www.w3.org/2000/svg" xmlns:xlink="http://www.w3.org/1999/xlink">
<g id="graph0" class="graph" transform="scale(1 1) rotate(0) translate(4 214)">
<title>Transp</title>
<polygon fill="white" stroke="white" points="-4,5 -4,-214 495,-214 495,5 -4,5"/>
<!-- Node1 -->
<g id="node1" class="node"><title>Node1</title>
<polygon fill="#bfbfbf" stroke="black" points="0.5,-95.5 0.5,-114.5 47.5,-114.5 47.5,-95.5 0.5,-95.5"/>
<text text-anchor="middle" x="24" y="-102.5" font-family="Helvetica,sans-Serif" font-size="10.00">Transp</text>
</g>
<!-- Node2 -->
<g id="node2" class="node"><title>Node2</title>
<g id="a_node2"><a xlink:href="GEODA_8cpp.html#a0ddf1224851353fc92bfbff6f499fa97" target="_top" xlink:title="main">
<polygon fill="white" stroke="black" points="114,-190.5 114,-209.5 152,-209.5 152,-190.5 114,-190.5"/>
<text text-anchor="middle" x="133" y="-197.5" font-family="Helvetica,sans-Serif" font-size="10.00">main</text>
</a>
</g>
</g>
<!-- Node1&#45;&gt;Node2 -->
<g id="edge1" class="edge"><title>Node1&#45;&gt;Node2</title>
<path fill="none" stroke="midnightblue" d="M37.1259,-123.532C47.9831,-139.044 65.0746,-160.989 84,-176 92.9056,-183.063 104.224,-188.845 113.634,-192.963"/>
<polygon fill="midnightblue" stroke="midnightblue" points="39.7253,-121.129 31.2109,-114.824 33.935,-125.063 39.7253,-121.129"/>
</g>
<!-- Node3 -->
<g id="node3" class="node"><title>Node3</title>
<g id="a_node3"><a xlink:href="classEKF.html#a581eb4063feb02eeff09dabeaf07e994" target="_top" xlink:title="EKF::TimeUpdate">
<polygon fill="white" stroke="black" points="320.5,-152.5 320.5,-171.5 415.5,-171.5 415.5,-152.5 320.5,-152.5"/>
<text text-anchor="middle" x="368" y="-159.5" font-family="Helvetica,sans-Serif" font-size="10.00">EKF::TimeUpdate</text>
</a>
</g>
</g>
<!-- Node1&#45;&gt;Node3 -->
<g id="edge2" class="edge"><title>Node1&#45;&gt;Node3</title>
<path fill="none" stroke="midnightblue" d="M44.2652,-120.973C55.2117,-129.091 69.5796,-138.227 84,-143 163.823,-169.419 263.064,-169.048 320.308,-165.871"/>
<polygon fill="midnightblue" stroke="midnightblue" points="46.3314,-118.146 36.2843,-114.783 42.0416,-123.678 46.3314,-118.146"/>
</g>
<!-- Node5 -->
<g id="node5" class="node"><title>Node5</title>
<g id="a_node5"><a xlink:href="classEKF.html#a080c81bbef29da2b57caa52775f76602" target="_top" xlink:title="EKF::MeasUpdate">
<polygon fill="white" stroke="black" points="84,-114.5 84,-133.5 182,-133.5 182,-114.5 84,-114.5"/>
<text text-anchor="middle" x="133" y="-121.5" font-family="Helvetica,sans-Serif" font-size="10.00">EKF::MeasUpdate</text>
</a>
</g>
</g>
<!-- Node1&#45;&gt;Node5 -->
<g id="edge4" class="edge"><title>Node1&#45;&gt;Node5</title>
<path fill="none" stroke="midnightblue" d="M57.6568,-110.799C65.9135,-112.265 74.9552,-113.871 83.8018,-115.441"/>
<polygon fill="midnightblue" stroke="midnightblue" points="58.1499,-107.332 47.6919,-109.029 56.926,-114.224 58.1499,-107.332"/>
</g>
<!-- Node6 -->
<g id="node6" class="node"><title>Node6</title>
<g id="a_node6"><a xlink:href="SAT__Force_8h.html#a35b54a3eda29b936098b3cc869d6c381" target="_top" xlink:title="AccelHarmonic">
<polygon fill="white" stroke="black" points="91.5,-76.5 91.5,-95.5 174.5,-95.5 174.5,-76.5 91.5,-76.5"/>
<text text-anchor="middle" x="133" y="-83.5" font-family="Helvetica,sans-Serif" font-size="10.00">AccelHarmonic</text>
</a>
</g>
</g>
<!-- Node1&#45;&gt;Node6 -->
<g id="edge5" class="edge"><title>Node1&#45;&gt;Node6</title>
<path fill="none" stroke="midnightblue" d="M57.7464,-99.1852C68.3017,-97.3109 80.1326,-95.2101 91.1949,-93.2458"/>
<polygon fill="midnightblue" stroke="midnightblue" points="56.926,-95.7761 47.6919,-100.971 58.1499,-102.668 56.926,-95.7761"/>
</g>
<!-- Node12 -->
<g id="node12" class="node"><title>Node12</title>
<g id="a_node12"><a xlink:href="SAT__Force_8h.html#ae20f51bcb69607d4a2268329837260f2" target="_top" xlink:title="AccelDrag">
<polygon fill="white" stroke="black" points="102,-38.5 102,-57.5 164,-57.5 164,-38.5 102,-38.5"/>
<text text-anchor="middle" x="133" y="-45.5" font-family="Helvetica,sans-Serif" font-size="10.00">AccelDrag</text>
</a>
</g>
</g>
<!-- Node1&#45;&gt;Node12 -->
<g id="edge12" class="edge"><title>Node1&#45;&gt;Node12</title>
<path fill="none" stroke="midnightblue" d="M46.5947,-89.6449C57.5054,-82.2654 71.1306,-73.6111 84,-67 90.6965,-63.56 98.1664,-60.3318 105.181,-57.5468"/>
<polygon fill="midnightblue" stroke="midnightblue" points="44.3906,-86.9132 38.1444,-95.4709 48.364,-92.6762 44.3906,-86.9132"/>
</g>
<!-- Node14 -->
<g id="node14" class="node"><title>Node14</title>
<g id="a_node14"><a xlink:href="TDRSOD_8cpp.html#a466ab098330aeb2aa659365279071640" target="_top" xlink:title="Range_4W">
<polygon fill="white" stroke="black" points="218.5,-0.5 218.5,-19.5 283.5,-19.5 283.5,-0.5 218.5,-0.5"/>
<text text-anchor="middle" x="251" y="-7.5" font-family="Helvetica,sans-Serif" font-size="10.00">Range_4W</text>
</a>
</g>
</g>
<!-- Node1&#45;&gt;Node14 -->
<g id="edge15" class="edge"><title>Node1&#45;&gt;Node14</title>
<path fill="none" stroke="midnightblue" d="M33.9368,-86.3008C43.5966,-68.3379 60.7827,-42.0574 84,-29 125.97,-5.39583 183.309,-4.41436 218.437,-6.64166"/>
<polygon fill="midnightblue" stroke="midnightblue" points="30.779,-84.7891 29.3541,-95.2877 37.015,-87.9691 30.779,-84.7891"/>
</g>
<!-- Node4 -->
<g id="node4" class="node"><title>Node4</title>
<g id="a_node4"><a xlink:href="RTOD_8cpp.html#a0ddf1224851353fc92bfbff6f499fa97" target="_top" xlink:title="main">
<polygon fill="white" stroke="black" points="452,-128.5 452,-147.5 490,-147.5 490,-128.5 452,-128.5"/>
<text text-anchor="middle" x="471" y="-135.5" font-family="Helvetica,sans-Serif" font-size="10.00">main</text>
</a>
</g>
</g>
<!-- Node3&#45;&gt;Node4 -->
<g id="edge3" class="edge"><title>Node3&#45;&gt;Node4</title>
<path fill="none" stroke="midnightblue" d="M419.003,-150.118C430.74,-147.329 442.512,-144.532 451.785,-142.328"/>
<polygon fill="midnightblue" stroke="midnightblue" points="418.128,-146.728 409.208,-152.446 419.746,-153.539 418.128,-146.728"/>
</g>
<!-- Node7 -->
<g id="node7" class="node"><title>Node7</title>
<g id="a_node7"><a xlink:href="RTOD_8cpp.html#ad928b0e88089fe577162bad47f911adf" target="_top" xlink:title="Accel">
<polygon fill="white" stroke="black" points="230.5,-114.5 230.5,-133.5 271.5,-133.5 271.5,-114.5 230.5,-114.5"/>
<text text-anchor="middle" x="251" y="-121.5" font-family="Helvetica,sans-Serif" font-size="10.00">Accel</text>
</a>
</g>
</g>
<!-- Node6&#45;&gt;Node7 -->
<g id="edge6" class="edge"><title>Node6&#45;&gt;Node7</title>
<path fill="none" stroke="midnightblue" d="M172.987,-98.7715C192.21,-105.069 214.566,-112.392 230.224,-117.522"/>
<polygon fill="midnightblue" stroke="midnightblue" points="173.864,-95.3761 163.272,-95.589 171.685,-102.028 173.864,-95.3761"/>
</g>
<!-- Node11 -->
<g id="node11" class="node"><title>Node11</title>
<g id="a_node11"><a xlink:href="SAT__Force_8h.html#a750f7a2f89dc275831e706abee33310f" target="_top" xlink:title="AccelMain">
<polygon fill="white" stroke="black" points="220,-76.5 220,-95.5 282,-95.5 282,-76.5 220,-76.5"/>
<text text-anchor="middle" x="251" y="-83.5" font-family="Helvetica,sans-Serif" font-size="10.00">AccelMain</text>
</a>
</g>
</g>
<!-- Node6&#45;&gt;Node11 -->
<g id="edge11" class="edge"><title>Node6&#45;&gt;Node11</title>
<path fill="none" stroke="midnightblue" d="M184.904,-86C196.841,-86 209.185,-86 219.872,-86"/>
<polygon fill="midnightblue" stroke="midnightblue" points="184.571,-82.5001 174.571,-86 184.571,-89.5001 184.571,-82.5001"/>
</g>
<!-- Node8 -->
<g id="node8" class="node"><title>Node8</title>
<g id="a_node8"><a xlink:href="RTOD_8cpp.html#a8ed60f2e5115e2e00c123e12b1cbb649" target="_top" xlink:title="Deriv">
<polygon fill="white" stroke="black" points="348,-114.5 348,-133.5 388,-133.5 388,-114.5 348,-114.5"/>
<text text-anchor="middle" x="368" y="-121.5" font-family="Helvetica,sans-Serif" font-size="10.00">Deriv</text>
</a>
</g>
</g>
<!-- Node7&#45;&gt;Node8 -->
<g id="edge7" class="edge"><title>Node7&#45;&gt;Node8</title>
<path fill="none" stroke="midnightblue" d="M281.73,-124C302.549,-124 329.76,-124 347.78,-124"/>
<polygon fill="midnightblue" stroke="midnightblue" points="281.508,-120.5 271.508,-124 281.508,-127.5 281.508,-120.5"/>
</g>
<!-- Node9 -->
<g id="node9" class="node"><title>Node9</title>
<g id="a_node9"><a xlink:href="TDRSOD_8cpp.html#a3df5b7f547d4cb81cae1bbb6d6a2962a" target="_top" xlink:title="VarEqn">
<polygon fill="white" stroke="black" points="343.5,-76.5 343.5,-95.5 392.5,-95.5 392.5,-76.5 343.5,-76.5"/>
<text text-anchor="middle" x="368" y="-83.5" font-family="Helvetica,sans-Serif" font-size="10.00">VarEqn</text>
</a>
</g>
</g>
<!-- Node7&#45;&gt;Node9 -->
<g id="edge9" class="edge"><title>Node7&#45;&gt;Node9</title>
<path fill="none" stroke="midnightblue" d="M281.011,-114.414C300.311,-108.036 325.34,-99.7658 343.414,-93.7938"/>
<polygon fill="midnightblue" stroke="midnightblue" points="279.905,-111.093 271.508,-117.554 282.101,-117.74 279.905,-111.093"/>
</g>
<!-- Node8&#45;&gt;Node4 -->
<g id="edge8" class="edge"><title>Node8&#45;&gt;Node4</title>
<path fill="none" stroke="midnightblue" d="M398.629,-128.107C415.91,-130.502 437.148,-133.446 451.943,-135.497"/>
<polygon fill="midnightblue" stroke="midnightblue" points="398.86,-124.606 388.474,-126.699 397.899,-131.539 398.86,-124.606"/>
</g>
<!-- Node10 -->
<g id="node10" class="node"><title>Node10</title>
<g id="a_node10"><a xlink:href="TDRSOD_8cpp.html#a0ddf1224851353fc92bfbff6f499fa97" target="_top" xlink:title="main">
<polygon fill="white" stroke="black" points="452,-62.5 452,-81.5 490,-81.5 490,-62.5 452,-62.5"/>
<text text-anchor="middle" x="471" y="-69.5" font-family="Helvetica,sans-Serif" font-size="10.00">main</text>
</a>
</g>
</g>
<!-- Node9&#45;&gt;Node10 -->
<g id="edge10" class="edge"><title>Node9&#45;&gt;Node10</title>
<path fill="none" stroke="midnightblue" d="M402.965,-81.292C419.313,-79.0259 438.26,-76.3996 451.831,-74.5185"/>
<polygon fill="midnightblue" stroke="midnightblue" points="402.105,-77.8777 392.68,-82.7176 403.066,-84.8114 402.105,-77.8777"/>
</g>
<!-- Node12&#45;&gt;Node11 -->
<g id="edge13" class="edge"><title>Node12&#45;&gt;Node11</title>
<path fill="none" stroke="midnightblue" d="M173.153,-60.8259C188.718,-65.9247 206.314,-71.6891 220.738,-76.4141"/>
<polygon fill="midnightblue" stroke="midnightblue" points="173.864,-57.3761 163.272,-57.589 171.685,-64.0282 173.864,-57.3761"/>
</g>
<!-- Node13 -->
<g id="node13" class="node"><title>Node13</title>
<g id="a_node13"><a xlink:href="TDRSOD_8cpp.html#a1d3803a2ec3760bf63edefae54e3ac5b" target="_top" xlink:title="Accel">
<polygon fill="white" stroke="black" points="230.5,-38.5 230.5,-57.5 271.5,-57.5 271.5,-38.5 230.5,-38.5"/>
<text text-anchor="middle" x="251" y="-45.5" font-family="Helvetica,sans-Serif" font-size="10.00">Accel</text>
</a>
</g>
</g>
<!-- Node12&#45;&gt;Node13 -->
<g id="edge14" class="edge"><title>Node12&#45;&gt;Node13</title>
<path fill="none" stroke="midnightblue" d="M174.33,-48C193.227,-48 214.89,-48 230.181,-48"/>
<polygon fill="midnightblue" stroke="midnightblue" points="174.175,-44.5001 164.175,-48 174.175,-51.5001 174.175,-44.5001"/>
</g>
<!-- Node14&#45;&gt;Node10 -->
<g id="edge16" class="edge"><title>Node14&#45;&gt;Node10</title>
<path fill="none" stroke="midnightblue" d="M293.403,-21.7752C341.018,-35.3172 417.069,-56.9463 451.724,-66.8023"/>
<polygon fill="midnightblue" stroke="midnightblue" points="294.275,-18.3845 283.699,-19.0153 292.36,-25.1175 294.275,-18.3845"/>
</g>
</g>
</svg>
