<?xml version="1.0" encoding="UTF-8" standalone="no"?>
<!DOCTYPE svg PUBLIC "-//W3C//DTD SVG 1.1//EN"
 "http://www.w3.org/Graphics/SVG/1.1/DTD/svg11.dtd">
<!-- Generated by graphviz version 2.30.1 (20180420.1509)
 -->
<!-- Title: Id Pages: 1 -->
<svg width="246pt" height="66pt"
 viewBox="0.00 0.00 246.00 66.00" xmlns="http://www.w3.org/2000/svg" xmlns:xlink="http://www.w3.org/1999/xlink">
<g id="graph0" class="graph" transform="scale(1 1) rotate(0) translate(4 62)">
<title>Id</title>
<polygon fill="white" stroke="white" points="-4,5 -4,-62 243,-62 243,5 -4,5"/>
<!-- Node1 -->
<g id="node1" class="node"><title>Node1</title>
<polygon fill="#bfbfbf" stroke="black" points="0.5,-19.5 0.5,-38.5 29.5,-38.5 29.5,-19.5 0.5,-19.5"/>
<text text-anchor="middle" x="15" y="-26.5" font-family="Helvetica,sans-Serif" font-size="10.00">Id</text>
</g>
<!-- Node2 -->
<g id="node2" class="node"><title>Node2</title>
<g id="a_node2"><a xlink:href="GEODA_8cpp.html#a0ddf1224851353fc92bfbff6f499fa97" target="_top" xlink:title="main">
<polygon fill="white" stroke="black" points="96,-38.5 96,-57.5 134,-57.5 134,-38.5 96,-38.5"/>
<text text-anchor="middle" x="115" y="-45.5" font-family="Helvetica,sans-Serif" font-size="10.00">main</text>
</a>
</g>
</g>
<!-- Node1&#45;&gt;Node2 -->
<g id="edge1" class="edge"><title>Node1&#45;&gt;Node2</title>
<path fill="none" stroke="midnightblue" d="M39.5139,-33.5588C56.7991,-36.91 79.9476,-41.398 95.8253,-44.4763"/>
<polygon fill="midnightblue" stroke="midnightblue" points="40.1099,-30.1093 29.6265,-31.6419 38.7775,-36.9813 40.1099,-30.1093"/>
</g>
<!-- Node3 -->
<g id="node3" class="node"><title>Node3</title>
<g id="a_node3"><a xlink:href="classEKF.html#a2384ab018c26960ee808a9a1ae66d319" target="_top" xlink:title="EKF::MeasUpdate">
<polygon fill="white" stroke="black" points="66,-0.5 66,-19.5 164,-19.5 164,-0.5 66,-0.5"/>
<text text-anchor="middle" x="115" y="-7.5" font-family="Helvetica,sans-Serif" font-size="10.00">EKF::MeasUpdate</text>
</a>
</g>
</g>
<!-- Node1&#45;&gt;Node3 -->
<g id="edge2" class="edge"><title>Node1&#45;&gt;Node3</title>
<path fill="none" stroke="midnightblue" d="M39.6094,-24.4227C47.5818,-22.877 56.7933,-21.0911 65.96,-19.3139"/>
<polygon fill="midnightblue" stroke="midnightblue" points="38.7775,-21.0187 29.6265,-26.3581 40.1099,-27.8907 38.7775,-21.0187"/>
</g>
<!-- Node4 -->
<g id="node4" class="node"><title>Node4</title>
<g id="a_node4"><a xlink:href="RTOD_8cpp.html#a0ddf1224851353fc92bfbff6f499fa97" target="_top" xlink:title="main">
<polygon fill="white" stroke="black" points="200,-0.5 200,-19.5 238,-19.5 238,-0.5 200,-0.5"/>
<text text-anchor="middle" x="219" y="-7.5" font-family="Helvetica,sans-Serif" font-size="10.00">main</text>
</a>
</g>
</g>
<!-- Node3&#45;&gt;Node4 -->
<g id="edge3" class="edge"><title>Node3&#45;&gt;Node4</title>
<path fill="none" stroke="midnightblue" d="M174.217,-10C183.558,-10 192.569,-10 199.963,-10"/>
<polygon fill="midnightblue" stroke="midnightblue" points="174.013,-6.5001 164.013,-10 174.013,-13.5001 174.013,-6.5001"/>
</g>
</g>
</svg>
