<?xml version="1.0" encoding="UTF-8" standalone="no"?>
<!DOCTYPE svg PUBLIC "-//W3C//DTD SVG 1.1//EN"
 "http://www.w3.org/Graphics/SVG/1.1/DTD/svg11.dtd">
<!-- Generated by graphviz version 2.30.1 (20180420.1509)
 -->
<!-- Title: Dot Pages: 1 -->
<svg width="534pt" height="534pt"
 viewBox="0.00 0.00 534.00 533.77" xmlns="http://www.w3.org/2000/svg" xmlns:xlink="http://www.w3.org/1999/xlink">
<g id="graph0" class="graph" transform="scale(1 1) rotate(0) translate(4 529.77)">
<title>Dot</title>
<polygon fill="white" stroke="white" points="-4,5 -4,-529.77 531,-529.77 531,5 -4,5"/>
<!-- Node1 -->
<g id="node1" class="node"><title>Node1</title>
<polygon fill="#bfbfbf" stroke="black" points="0,-320.512 0,-339.512 32,-339.512 32,-320.512 0,-320.512"/>
<text text-anchor="middle" x="16" y="-327.512" font-family="Helvetica,sans-Serif" font-size="10.00">Dot</text>
</g>
<!-- Node2 -->
<g id="node2" class="node"><title>Node2</title>
<g id="a_node2"><a xlink:href="GEODA_8cpp.html#a0ddf1224851353fc92bfbff6f499fa97" target="_top" xlink:title="main">
<polygon fill="white" stroke="black" points="234,-358.512 234,-377.512 272,-377.512 272,-358.512 234,-358.512"/>
<text text-anchor="middle" x="253" y="-365.512" font-family="Helvetica,sans-Serif" font-size="10.00">main</text>
</a>
</g>
</g>
<!-- Node1&#45;&gt;Node2 -->
<g id="edge1" class="edge"><title>Node1&#45;&gt;Node2</title>
<path fill="none" stroke="midnightblue" d="M41.8345,-337.569C50.1,-339.886 59.3929,-342.278 68,-344.012 128.161,-356.132 200.675,-363.504 233.843,-366.483"/>
<polygon fill="midnightblue" stroke="midnightblue" points="42.6225,-334.154 32.0434,-334.731 40.6733,-340.877 42.6225,-334.154"/>
</g>
<!-- Node3 -->
<g id="node3" class="node"><title>Node3</title>
<g id="a_node3"><a xlink:href="classEKF.html#a2384ab018c26960ee808a9a1ae66d319" target="_top" xlink:title="EKF::MeasUpdate">
<polygon fill="white" stroke="black" points="68,-491.512 68,-510.512 166,-510.512 166,-491.512 68,-491.512"/>
<text text-anchor="middle" x="117" y="-498.512" font-family="Helvetica,sans-Serif" font-size="10.00">EKF::MeasUpdate</text>
</a>
</g>
</g>
<!-- Node1&#45;&gt;Node3 -->
<g id="edge2" class="edge"><title>Node1&#45;&gt;Node3</title>
<path fill="none" stroke="midnightblue" d="M21.0148,-349.456C27.3932,-376.858 41.8753,-427.455 68,-463.012 76.5588,-474.66 89.5707,-484.657 99.8888,-491.469"/>
<polygon fill="midnightblue" stroke="midnightblue" points="24.402,-348.563 18.8307,-339.551 17.5662,-350.07 24.402,-348.563"/>
</g>
<!-- Node5 -->
<g id="node5" class="node"><title>Node5</title>
<g id="a_node5"><a xlink:href="SAT__Force_8h.html#ab05039f4d20345bbf7b463449ecaef11" target="_top" xlink:title="Illumination">
<polygon fill="white" stroke="black" points="351,-16.5118 351,-35.5118 417,-35.5118 417,-16.5118 351,-16.5118"/>
<text text-anchor="middle" x="384" y="-23.5118" font-family="Helvetica,sans-Serif" font-size="10.00">Illumination</text>
</a>
</g>
</g>
<!-- Node1&#45;&gt;Node5 -->
<g id="edge4" class="edge"><title>Node1&#45;&gt;Node5</title>
<path fill="none" stroke="midnightblue" d="M19.9881,-309.933C25.5607,-276.759 39.6342,-209.191 68,-159.012 111.504,-82.0528 121.129,-47.7213 202,-12.0118 253.176,10.5858 320.401,-4.88359 356.816,-16.4955"/>
<polygon fill="midnightblue" stroke="midnightblue" points="16.4778,-309.721 18.3621,-320.147 23.3908,-310.822 16.4778,-309.721"/>
</g>
<!-- Node8 -->
<g id="node8" class="node"><title>Node8</title>
<g id="a_node8"><a xlink:href="SAT__Force_8h.html#a35b54a3eda29b936098b3cc869d6c381" target="_top" xlink:title="AccelHarmonic">
<polygon fill="white" stroke="black" points="75.5,-434.512 75.5,-453.512 158.5,-453.512 158.5,-434.512 75.5,-434.512"/>
<text text-anchor="middle" x="117" y="-441.512" font-family="Helvetica,sans-Serif" font-size="10.00">AccelHarmonic</text>
</a>
</g>
</g>
<!-- Node1&#45;&gt;Node8 -->
<g id="edge7" class="edge"><title>Node1&#45;&gt;Node8</title>
<path fill="none" stroke="midnightblue" d="M23.9333,-349.126C31.9449,-368.976 46.8028,-399.887 68,-420.012 74.2163,-425.913 82.1638,-430.673 89.7954,-434.349"/>
<polygon fill="midnightblue" stroke="midnightblue" points="27.1352,-347.701 20.28,-339.623 20.6013,-350.213 27.1352,-347.701"/>
</g>
<!-- Node13 -->
<g id="node13" class="node"><title>Node13</title>
<g id="a_node13"><a xlink:href="SAT__Force_8h.html#a6ad9e17c2e7636b8cd8045d461940681" target="_top" xlink:title="Density_HP">
<polygon fill="white" stroke="black" points="218,-54.5118 218,-73.5118 288,-73.5118 288,-54.5118 218,-54.5118"/>
<text text-anchor="middle" x="253" y="-61.5118" font-family="Helvetica,sans-Serif" font-size="10.00">Density_HP</text>
</a>
</g>
</g>
<!-- Node1&#45;&gt;Node13 -->
<g id="edge14" class="edge"><title>Node1&#45;&gt;Node13</title>
<path fill="none" stroke="midnightblue" d="M22.8516,-310.66C30.1944,-289.413 44.726,-255.59 68,-235.012 102.997,-204.068 133.772,-230.83 166,-197.012 200.905,-160.384 168.849,-127.235 202,-89.0118 207.723,-82.4132 215.602,-77.3643 223.413,-73.5911"/>
<polygon fill="midnightblue" stroke="midnightblue" points="19.5045,-309.635 19.7379,-320.227 26.1609,-311.801 19.5045,-309.635"/>
</g>
<!-- Node15 -->
<g id="node15" class="node"><title>Node15</title>
<g id="a_node15"><a xlink:href="SAT__Kepler_8h.html#a131c46c69e895d1d1bf15bf54830012d" target="_top" xlink:title="FindEta">
<polygon fill="white" stroke="black" points="228,-320.512 228,-339.512 278,-339.512 278,-320.512 228,-320.512"/>
<text text-anchor="middle" x="253" y="-327.512" font-family="Helvetica,sans-Serif" font-size="10.00">FindEta</text>
</a>
</g>
</g>
<!-- Node1&#45;&gt;Node15 -->
<g id="edge18" class="edge"><title>Node1&#45;&gt;Node15</title>
<path fill="none" stroke="midnightblue" d="M42.2616,-330.012C87.8506,-330.012 183.282,-330.012 227.962,-330.012"/>
<polygon fill="midnightblue" stroke="midnightblue" points="42.0578,-326.512 32.0578,-330.012 42.0578,-333.512 42.0578,-326.512"/>
</g>
<!-- Node17 -->
<g id="node17" class="node"><title>Node17</title>
<g id="a_node17"><a xlink:href="SAT__Kepler_8h.html#a1d7fdd2727e376b6aa5a54877ca6a205" target="_top" xlink:title="Elements">
<polygon fill="white" stroke="black" points="224,-396.512 224,-415.512 282,-415.512 282,-396.512 224,-396.512"/>
<text text-anchor="middle" x="253" y="-403.512" font-family="Helvetica,sans-Serif" font-size="10.00">Elements</text>
</a>
</g>
</g>
<!-- Node1&#45;&gt;Node17 -->
<g id="edge20" class="edge"><title>Node1&#45;&gt;Node17</title>
<path fill="none" stroke="midnightblue" d="M36.384,-345.922C45.4983,-352.696 56.8066,-360.142 68,-365.012 120.369,-387.795 186.837,-398.568 223.851,-403.119"/>
<polygon fill="midnightblue" stroke="midnightblue" points="38.4441,-343.091 28.3933,-339.739 34.1604,-348.627 38.4441,-343.091"/>
</g>
<!-- Node19 -->
<g id="node19" class="node"><title>Node19</title>
<g id="a_node19"><a xlink:href="SAT__RefSys_8h.html#a2c9c63b12208f3b78113736bb0a20101" target="_top" xlink:title="AzEl">
<polygon fill="white" stroke="black" points="98,-168.512 98,-187.512 136,-187.512 136,-168.512 98,-168.512"/>
<text text-anchor="middle" x="117" y="-175.512" font-family="Helvetica,sans-Serif" font-size="10.00">AzEl</text>
</a>
</g>
</g>
<!-- Node1&#45;&gt;Node19 -->
<g id="edge23" class="edge"><title>Node1&#45;&gt;Node19</title>
<path fill="none" stroke="midnightblue" d="M20.2563,-310.529C25.7246,-283.234 39.1223,-233.438 68,-202.012 75.943,-193.368 87.695,-187.419 97.5824,-183.606"/>
<polygon fill="midnightblue" stroke="midnightblue" points="16.8035,-309.953 18.4279,-320.422 23.687,-311.225 16.8035,-309.953"/>
</g>
<!-- Node20 -->
<g id="node20" class="node"><title>Node20</title>
<g id="a_node20"><a xlink:href="SAT__VecMat_8cpp.html#a313ce8c9730e0bd08a1396f364f0486c" target="_top" xlink:title="Norm">
<polygon fill="white" stroke="black" points="96.5,-244.512 96.5,-263.512 137.5,-263.512 137.5,-244.512 96.5,-244.512"/>
<text text-anchor="middle" x="117" y="-251.512" font-family="Helvetica,sans-Serif" font-size="10.00">Norm</text>
</a>
</g>
</g>
<!-- Node1&#45;&gt;Node20 -->
<g id="edge24" class="edge"><title>Node1&#45;&gt;Node20</title>
<path fill="none" stroke="midnightblue" d="M37.6752,-314.14C57.5798,-298.86 87.0279,-276.253 103.563,-263.559"/>
<polygon fill="midnightblue" stroke="midnightblue" points="35.3393,-311.521 29.5384,-320.386 39.6019,-317.073 35.3393,-311.521"/>
</g>
<!-- Node4 -->
<g id="node4" class="node"><title>Node4</title>
<g id="a_node4"><a xlink:href="RTOD_8cpp.html#a0ddf1224851353fc92bfbff6f499fa97" target="_top" xlink:title="main">
<polygon fill="white" stroke="black" points="476,-491.512 476,-510.512 514,-510.512 514,-491.512 476,-491.512"/>
<text text-anchor="middle" x="495" y="-498.512" font-family="Helvetica,sans-Serif" font-size="10.00">main</text>
</a>
</g>
</g>
<!-- Node3&#45;&gt;Node4 -->
<g id="edge3" class="edge"><title>Node3&#45;&gt;Node4</title>
<path fill="none" stroke="midnightblue" d="M176.09,-511.502C238.587,-521.174 340.756,-532.32 428,-520.012 444.529,-517.68 462.719,-512.216 475.809,-507.743"/>
<polygon fill="midnightblue" stroke="midnightblue" points="176.456,-508.016 166.031,-509.904 175.358,-514.929 176.456,-508.016"/>
</g>
<!-- Node6 -->
<g id="node6" class="node"><title>Node6</title>
<g id="a_node6"><a xlink:href="SAT__Force_8h.html#a750f7a2f89dc275831e706abee33310f" target="_top" xlink:title="AccelMain">
<polygon fill="white" stroke="black" points="464,-92.5118 464,-111.512 526,-111.512 526,-92.5118 464,-92.5118"/>
<text text-anchor="middle" x="495" y="-99.5118" font-family="Helvetica,sans-Serif" font-size="10.00">AccelMain</text>
</a>
</g>
</g>
<!-- Node5&#45;&gt;Node6 -->
<g id="edge5" class="edge"><title>Node5&#45;&gt;Node6</title>
<path fill="none" stroke="midnightblue" d="M420.451,-40.2849C423.076,-41.7587 425.624,-43.336 428,-45.0118 447.012,-58.42 446.035,-68.2301 464,-83.0118 468.094,-86.3805 472.823,-89.6301 477.298,-92.4604"/>
<polygon fill="midnightblue" stroke="midnightblue" points="421.865,-37.0777 411.363,-35.6802 418.701,-43.322 421.865,-37.0777"/>
</g>
<!-- Node7 -->
<g id="node7" class="node"><title>Node7</title>
<g id="a_node7"><a xlink:href="TDRSOD_8cpp.html#a1d3803a2ec3760bf63edefae54e3ac5b" target="_top" xlink:title="Accel">
<polygon fill="white" stroke="black" points="474.5,-54.5118 474.5,-73.5118 515.5,-73.5118 515.5,-54.5118 474.5,-54.5118"/>
<text text-anchor="middle" x="495" y="-61.5118" font-family="Helvetica,sans-Serif" font-size="10.00">Accel</text>
</a>
</g>
</g>
<!-- Node5&#45;&gt;Node7 -->
<g id="edge6" class="edge"><title>Node5&#45;&gt;Node7</title>
<path fill="none" stroke="midnightblue" d="M422.429,-39.0605C439.901,-45.1517 459.977,-52.1505 474.411,-57.1825"/>
<polygon fill="midnightblue" stroke="midnightblue" points="423.1,-35.5878 412.505,-35.6008 420.796,-42.1977 423.1,-35.5878"/>
</g>
<!-- Node9 -->
<g id="node9" class="node"><title>Node9</title>
<g id="a_node9"><a xlink:href="RTOD_8cpp.html#ad928b0e88089fe577162bad47f911adf" target="_top" xlink:title="Accel">
<polygon fill="white" stroke="black" points="232.5,-472.512 232.5,-491.512 273.5,-491.512 273.5,-472.512 232.5,-472.512"/>
<text text-anchor="middle" x="253" y="-479.512" font-family="Helvetica,sans-Serif" font-size="10.00">Accel</text>
</a>
</g>
</g>
<!-- Node8&#45;&gt;Node9 -->
<g id="edge8" class="edge"><title>Node8&#45;&gt;Node9</title>
<path fill="none" stroke="midnightblue" d="M161.709,-456.407C185.535,-463.163 213.849,-471.193 232.336,-476.435"/>
<polygon fill="midnightblue" stroke="midnightblue" points="162.389,-452.962 151.814,-453.601 160.48,-459.696 162.389,-452.962"/>
</g>
<!-- Node8&#45;&gt;Node6 -->
<g id="edge13" class="edge"><title>Node8&#45;&gt;Node6</title>
<path fill="none" stroke="midnightblue" d="M168.934,-449.854C238.883,-454.724 363.345,-451.49 428,-378.012 464.533,-336.493 487.748,-155.537 492.907,-111.634"/>
<polygon fill="midnightblue" stroke="midnightblue" points="168.849,-446.337 158.607,-449.048 168.305,-453.316 168.849,-446.337"/>
</g>
<!-- Node10 -->
<g id="node10" class="node"><title>Node10</title>
<g id="a_node10"><a xlink:href="RTOD_8cpp.html#a8ed60f2e5115e2e00c123e12b1cbb649" target="_top" xlink:title="Deriv">
<polygon fill="white" stroke="black" points="364,-491.512 364,-510.512 404,-510.512 404,-491.512 364,-491.512"/>
<text text-anchor="middle" x="384" y="-498.512" font-family="Helvetica,sans-Serif" font-size="10.00">Deriv</text>
</a>
</g>
</g>
<!-- Node9&#45;&gt;Node10 -->
<g id="edge9" class="edge"><title>Node9&#45;&gt;Node10</title>
<path fill="none" stroke="midnightblue" d="M283.798,-486.401C308.366,-490.019 342.499,-495.047 363.646,-498.161"/>
<polygon fill="midnightblue" stroke="midnightblue" points="283.996,-482.892 273.592,-484.897 282.976,-489.817 283.996,-482.892"/>
</g>
<!-- Node11 -->
<g id="node11" class="node"><title>Node11</title>
<g id="a_node11"><a xlink:href="TDRSOD_8cpp.html#a3df5b7f547d4cb81cae1bbb6d6a2962a" target="_top" xlink:title="VarEqn">
<polygon fill="white" stroke="black" points="359.5,-453.512 359.5,-472.512 408.5,-472.512 408.5,-453.512 359.5,-453.512"/>
<text text-anchor="middle" x="384" y="-460.512" font-family="Helvetica,sans-Serif" font-size="10.00">VarEqn</text>
</a>
</g>
</g>
<!-- Node9&#45;&gt;Node11 -->
<g id="edge11" class="edge"><title>Node9&#45;&gt;Node11</title>
<path fill="none" stroke="midnightblue" d="M283.79,-477.624C306.729,-474.246 338.009,-469.638 359.271,-466.507"/>
<polygon fill="midnightblue" stroke="midnightblue" points="282.976,-474.206 273.592,-479.126 283.996,-481.131 282.976,-474.206"/>
</g>
<!-- Node10&#45;&gt;Node4 -->
<g id="edge10" class="edge"><title>Node10&#45;&gt;Node4</title>
<path fill="none" stroke="midnightblue" d="M414.43,-501.012C433.952,-501.012 458.961,-501.012 475.682,-501.012"/>
<polygon fill="midnightblue" stroke="midnightblue" points="414.236,-497.512 404.236,-501.012 414.236,-504.512 414.236,-497.512"/>
</g>
<!-- Node12 -->
<g id="node12" class="node"><title>Node12</title>
<g id="a_node12"><a xlink:href="TDRSOD_8cpp.html#a0ddf1224851353fc92bfbff6f499fa97" target="_top" xlink:title="main">
<polygon fill="white" stroke="black" points="476,-356.512 476,-375.512 514,-375.512 514,-356.512 476,-356.512"/>
<text text-anchor="middle" x="495" y="-363.512" font-family="Helvetica,sans-Serif" font-size="10.00">main</text>
</a>
</g>
</g>
<!-- Node11&#45;&gt;Node12 -->
<g id="edge12" class="edge"><title>Node11&#45;&gt;Node12</title>
<path fill="none" stroke="midnightblue" d="M414.475,-448.262C419.169,-445.439 423.843,-442.322 428,-439.012 452.327,-419.644 475.423,-390.918 486.742,-375.929"/>
<polygon fill="midnightblue" stroke="midnightblue" points="412.539,-445.336 405.554,-453.302 415.982,-451.431 412.539,-445.336"/>
</g>
<!-- Node14 -->
<g id="node14" class="node"><title>Node14</title>
<g id="a_node14"><a xlink:href="SAT__Force_8h.html#ae20f51bcb69607d4a2268329837260f2" target="_top" xlink:title="AccelDrag">
<polygon fill="white" stroke="black" points="353,-54.5118 353,-73.5118 415,-73.5118 415,-54.5118 353,-54.5118"/>
<text text-anchor="middle" x="384" y="-61.5118" font-family="Helvetica,sans-Serif" font-size="10.00">AccelDrag</text>
</a>
</g>
</g>
<!-- Node13&#45;&gt;Node14 -->
<g id="edge15" class="edge"><title>Node13&#45;&gt;Node14</title>
<path fill="none" stroke="midnightblue" d="M298.435,-64.0118C316.293,-64.0118 336.431,-64.0118 352.574,-64.0118"/>
<polygon fill="midnightblue" stroke="midnightblue" points="298.231,-60.5119 288.231,-64.0118 298.231,-67.5119 298.231,-60.5119"/>
</g>
<!-- Node14&#45;&gt;Node6 -->
<g id="edge16" class="edge"><title>Node14&#45;&gt;Node6</title>
<path fill="none" stroke="midnightblue" d="M422.209,-76.9836C436.73,-82.0462 453.079,-87.7459 466.503,-92.4258"/>
<polygon fill="midnightblue" stroke="midnightblue" points="423.1,-73.5878 412.505,-73.6008 420.796,-80.1977 423.1,-73.5878"/>
</g>
<!-- Node14&#45;&gt;Node7 -->
<g id="edge17" class="edge"><title>Node14&#45;&gt;Node7</title>
<path fill="none" stroke="midnightblue" d="M425.197,-64.0118C441.959,-64.0118 460.663,-64.0118 474.334,-64.0118"/>
<polygon fill="midnightblue" stroke="midnightblue" points="425.073,-60.5119 415.073,-64.0118 425.073,-67.5119 425.073,-60.5119"/>
</g>
<!-- Node16 -->
<g id="node16" class="node"><title>Node16</title>
<g id="a_node16"><a xlink:href="SAT__Kepler_8h.html#ae76d62d97df6e450fe706aebb882b103" target="_top" xlink:title="Elements">
<polygon fill="white" stroke="black" points="355,-349.512 355,-368.512 413,-368.512 413,-349.512 355,-349.512"/>
<text text-anchor="middle" x="384" y="-356.512" font-family="Helvetica,sans-Serif" font-size="10.00">Elements</text>
</a>
</g>
</g>
<!-- Node15&#45;&gt;Node16 -->
<g id="edge19" class="edge"><title>Node15&#45;&gt;Node16</title>
<path fill="none" stroke="midnightblue" d="M288.273,-337.717C309.049,-342.387 335.232,-348.273 354.803,-352.673"/>
<polygon fill="midnightblue" stroke="midnightblue" points="288.788,-334.245 278.264,-335.466 287.253,-341.075 288.788,-334.245"/>
</g>
<!-- Node18 -->
<g id="node18" class="node"><title>Node18</title>
<g id="a_node18"><a xlink:href="SAT__Kepler_8h.html#aeb2175e4cdc39ea590f44fc2949ea8d3" target="_top" xlink:title="TwoBody">
<polygon fill="white" stroke="black" points="355,-311.512 355,-330.512 413,-330.512 413,-311.512 355,-311.512"/>
<text text-anchor="middle" x="384" y="-318.512" font-family="Helvetica,sans-Serif" font-size="10.00">TwoBody</text>
</a>
</g>
</g>
<!-- Node17&#45;&gt;Node18 -->
<g id="edge21" class="edge"><title>Node17&#45;&gt;Node18</title>
<path fill="none" stroke="midnightblue" d="M291.361,-394.497C295.823,-392.36 300.153,-389.877 304,-387.012 325.103,-371.295 319.32,-356.281 340,-340.012 344.618,-336.378 350.04,-333.286 355.448,-330.717"/>
<polygon fill="midnightblue" stroke="midnightblue" points="289.969,-391.286 282.13,-398.413 292.702,-397.73 289.969,-391.286"/>
</g>
<!-- Node18&#45;&gt;Node4 -->
<g id="edge22" class="edge"><title>Node18&#45;&gt;Node4</title>
<path fill="none" stroke="midnightblue" d="M422.07,-334.969C424.204,-336.493 426.207,-338.169 428,-340.012 472.037,-385.255 488.16,-463.934 492.596,-491.299"/>
<polygon fill="midnightblue" stroke="midnightblue" points="423.747,-331.895 413.357,-329.822 420.187,-337.922 423.747,-331.895"/>
</g>
<!-- Node20&#45;&gt;Node2 -->
<g id="edge25" class="edge"><title>Node20&#45;&gt;Node2</title>
<path fill="none" stroke="midnightblue" d="M129.909,-272.141C144.594,-293.231 171.398,-327.852 202,-349.012 211.624,-355.666 223.887,-360.373 233.859,-363.437"/>
<polygon fill="midnightblue" stroke="midnightblue" points="132.727,-270.061 124.213,-263.755 126.936,-273.994 132.727,-270.061"/>
</g>
<!-- Node20&#45;&gt;Node5 -->
<g id="edge26" class="edge"><title>Node20&#45;&gt;Node5</title>
<path fill="none" stroke="midnightblue" d="M136.158,-236.876C146.351,-226.298 158.493,-211.93 166,-197.012 197.207,-134.997 149.871,-90.863 202,-45.0118 242.925,-9.01504 310.879,-12.9027 350.855,-19.2684"/>
<polygon fill="midnightblue" stroke="midnightblue" points="133.454,-234.629 128.852,-244.173 138.401,-239.582 133.454,-234.629"/>
</g>
<!-- Node21 -->
<g id="node21" class="node"><title>Node21</title>
<g id="a_node21"><a xlink:href="SAT__Force_8h.html#a4db2f0789d2dccce991342a00f1ad75d" target="_top" xlink:title="AccelPointMass">
<polygon fill="white" stroke="black" points="340,-130.512 340,-149.512 428,-149.512 428,-130.512 340,-130.512"/>
<text text-anchor="middle" x="384" y="-137.512" font-family="Helvetica,sans-Serif" font-size="10.00">AccelPointMass</text>
</a>
</g>
</g>
<!-- Node20&#45;&gt;Node21 -->
<g id="edge27" class="edge"><title>Node20&#45;&gt;Node21</title>
<path fill="none" stroke="midnightblue" d="M147.429,-246.755C184.893,-236.948 251.1,-217.692 304,-192.012 329.111,-179.821 355.709,-160.89 370.745,-149.547"/>
<polygon fill="midnightblue" stroke="midnightblue" points="146.473,-243.387 137.66,-249.268 148.217,-250.166 146.473,-243.387"/>
</g>
<!-- Node22 -->
<g id="node22" class="node"><title>Node22</title>
<g id="a_node22"><a xlink:href="SAT__Force_8h.html#a871f302ecd9687d7bee13583c15b0f31" target="_top" xlink:title="AccelSolrad">
<polygon fill="white" stroke="black" points="349.5,-92.5118 349.5,-111.512 418.5,-111.512 418.5,-92.5118 349.5,-92.5118"/>
<text text-anchor="middle" x="384" y="-99.5118" font-family="Helvetica,sans-Serif" font-size="10.00">AccelSolrad</text>
</a>
</g>
</g>
<!-- Node20&#45;&gt;Node22 -->
<g id="edge30" class="edge"><title>Node20&#45;&gt;Node22</title>
<path fill="none" stroke="midnightblue" d="M146.986,-244.069C153.973,-240.536 160.888,-235.922 166,-230.012 199.374,-191.424 162.272,-153.02 202,-121.012 243.704,-87.4116 309.531,-89.976 349.255,-95.5451"/>
<polygon fill="midnightblue" stroke="midnightblue" points="145.301,-240.986 137.574,-248.235 148.135,-247.387 145.301,-240.986"/>
</g>
<!-- Node20&#45;&gt;Node14 -->
<g id="edge33" class="edge"><title>Node20&#45;&gt;Node14</title>
<path fill="none" stroke="midnightblue" d="M146.896,-241.608C153.437,-238.253 160.167,-234.337 166,-230.012 184.688,-216.155 182.322,-204.422 202,-192.012 242.302,-166.595 268.2,-190.453 304,-159.012 332.083,-134.348 313.226,-109.09 340,-83.0118 343.859,-79.2533 348.586,-76.1699 353.477,-73.6633"/>
<polygon fill="midnightblue" stroke="midnightblue" points="145.062,-238.607 137.576,-246.105 148.103,-244.912 145.062,-238.607"/>
</g>
<!-- Node20&#45;&gt;Node13 -->
<g id="edge34" class="edge"><title>Node20&#45;&gt;Node13</title>
<path fill="none" stroke="midnightblue" d="M147.273,-244.309C154.258,-240.774 161.1,-236.099 166,-230.012 206.824,-179.293 160.769,-138.4 202,-88.0118 207.061,-81.8267 214.096,-77.1294 221.293,-73.6053"/>
<polygon fill="midnightblue" stroke="midnightblue" points="145.583,-241.228 137.828,-248.447 148.392,-247.64 145.583,-241.228"/>
</g>
<!-- Node20&#45;&gt;Node15 -->
<g id="edge35" class="edge"><title>Node20&#45;&gt;Node15</title>
<path fill="none" stroke="midnightblue" d="M138.566,-269.97C155.072,-282.275 179.178,-299.14 202,-311.012 210.156,-315.254 219.481,-319.057 227.852,-322.126"/>
<polygon fill="midnightblue" stroke="midnightblue" points="140.32,-266.909 130.234,-263.664 136.096,-272.49 140.32,-266.909"/>
</g>
<!-- Node23 -->
<g id="node23" class="node"><title>Node23</title>
<g id="a_node23"><a xlink:href="SAT__Kepler_8h.html#ad41abe3ee1647b2de98425457c6fdce2" target="_top" xlink:title="StatePartials">
<polygon fill="white" stroke="black" points="216.5,-282.512 216.5,-301.512 289.5,-301.512 289.5,-282.512 216.5,-282.512"/>
<text text-anchor="middle" x="253" y="-289.512" font-family="Helvetica,sans-Serif" font-size="10.00">StatePartials</text>
</a>
</g>
</g>
<!-- Node20&#45;&gt;Node23 -->
<g id="edge36" class="edge"><title>Node20&#45;&gt;Node23</title>
<path fill="none" stroke="midnightblue" d="M147.411,-262.352C168.351,-268.29 196.533,-276.282 218.367,-282.474"/>
<polygon fill="midnightblue" stroke="midnightblue" points="148.348,-258.98 137.772,-259.619 146.438,-265.714 148.348,-258.98"/>
</g>
<!-- Node20&#45;&gt;Node17 -->
<g id="edge38" class="edge"><title>Node20&#45;&gt;Node17</title>
<path fill="none" stroke="midnightblue" d="M125.396,-273.145C137.36,-301.734 163.565,-355.592 202,-387.012 208.327,-392.184 216.212,-396.045 223.837,-398.886"/>
<polygon fill="midnightblue" stroke="midnightblue" points="128.501,-271.488 121.512,-263.525 122.011,-274.108 128.501,-271.488"/>
</g>
<!-- Node24 -->
<g id="node24" class="node"><title>Node24</title>
<g id="a_node24"><a xlink:href="classGeodetic.html#ad813b9417dac1cee7ea962c36b82bb9c" target="_top" xlink:title="Geodetic::Geodetic">
<polygon fill="white" stroke="black" points="202.5,-130.512 202.5,-149.512 303.5,-149.512 303.5,-130.512 202.5,-130.512"/>
<text text-anchor="middle" x="253" y="-137.512" font-family="Helvetica,sans-Serif" font-size="10.00">Geodetic::Geodetic</text>
</a>
</g>
</g>
<!-- Node20&#45;&gt;Node24 -->
<g id="edge39" class="edge"><title>Node20&#45;&gt;Node24</title>
<path fill="none" stroke="midnightblue" d="M147.442,-242.824C154.058,-239.395 160.684,-235.141 166,-230.012 190.045,-206.811 177.769,-187.018 202,-164.012 208.354,-157.979 216.509,-153.202 224.381,-149.551"/>
<polygon fill="midnightblue" stroke="midnightblue" points="145.497,-239.868 137.91,-247.263 148.453,-246.214 145.497,-239.868"/>
</g>
<!-- Node25 -->
<g id="node25" class="node"><title>Node25</title>
<g id="a_node25"><a xlink:href="TDRSOD_8cpp.html#a466ab098330aeb2aa659365279071640" target="_top" xlink:title="Range_4W">
<polygon fill="white" stroke="black" points="220.5,-244.512 220.5,-263.512 285.5,-263.512 285.5,-244.512 220.5,-244.512"/>
<text text-anchor="middle" x="253" y="-251.512" font-family="Helvetica,sans-Serif" font-size="10.00">Range_4W</text>
</a>
</g>
</g>
<!-- Node20&#45;&gt;Node25 -->
<g id="edge40" class="edge"><title>Node20&#45;&gt;Node25</title>
<path fill="none" stroke="midnightblue" d="M147.988,-254.012C169.541,-254.012 198.54,-254.012 220.443,-254.012"/>
<polygon fill="midnightblue" stroke="midnightblue" points="147.772,-250.512 137.772,-254.012 147.772,-257.512 147.772,-250.512"/>
</g>
<!-- Node21&#45;&gt;Node6 -->
<g id="edge28" class="edge"><title>Node21&#45;&gt;Node6</title>
<path fill="none" stroke="midnightblue" d="M422.209,-127.04C436.73,-121.977 453.079,-116.278 466.503,-111.598"/>
<polygon fill="midnightblue" stroke="midnightblue" points="420.796,-123.826 412.505,-130.423 423.1,-130.436 420.796,-123.826"/>
</g>
<!-- Node21&#45;&gt;Node7 -->
<g id="edge29" class="edge"><title>Node21&#45;&gt;Node7</title>
<path fill="none" stroke="midnightblue" d="M420.451,-125.739C423.076,-124.265 425.624,-122.688 428,-121.012 447.012,-107.604 446.035,-97.7934 464,-83.0118 468.094,-79.6431 472.823,-76.3935 477.298,-73.5632"/>
<polygon fill="midnightblue" stroke="midnightblue" points="418.701,-122.702 411.363,-130.343 421.865,-128.946 418.701,-122.702"/>
</g>
<!-- Node22&#45;&gt;Node6 -->
<g id="edge31" class="edge"><title>Node22&#45;&gt;Node6</title>
<path fill="none" stroke="midnightblue" d="M428.667,-102.012C440.4,-102.012 452.832,-102.012 463.666,-102.012"/>
<polygon fill="midnightblue" stroke="midnightblue" points="428.593,-98.5119 418.593,-102.012 428.593,-105.512 428.593,-98.5119"/>
</g>
<!-- Node22&#45;&gt;Node7 -->
<g id="edge32" class="edge"><title>Node22&#45;&gt;Node7</title>
<path fill="none" stroke="midnightblue" d="M422.429,-88.963C439.901,-82.8719 459.977,-75.8731 474.411,-70.8411"/>
<polygon fill="midnightblue" stroke="midnightblue" points="420.796,-85.8259 412.505,-92.4228 423.1,-92.4357 420.796,-85.8259"/>
</g>
<!-- Node23&#45;&gt;Node18 -->
<g id="edge37" class="edge"><title>Node23&#45;&gt;Node18</title>
<path fill="none" stroke="midnightblue" d="M299.559,-302.254C317.999,-306.399 338.705,-311.054 354.877,-314.69"/>
<polygon fill="midnightblue" stroke="midnightblue" points="300.115,-298.792 289.591,-300.013 298.58,-305.621 300.115,-298.792"/>
</g>
<!-- Node25&#45;&gt;Node12 -->
<g id="edge41" class="edge"><title>Node25&#45;&gt;Node12</title>
<path fill="none" stroke="midnightblue" d="M295.549,-259.496C332.285,-265.693 386.354,-278.189 428,-302.012 452.938,-316.277 475.436,-342.122 486.597,-356.211"/>
<polygon fill="midnightblue" stroke="midnightblue" points="296.1,-256.04 285.672,-257.911 294.991,-262.951 296.1,-256.04"/>
</g>
</g>
</svg>
