<?xml version="1.0" encoding="UTF-8" standalone="no"?>
<!DOCTYPE svg PUBLIC "-//W3C//DTD SVG 1.1//EN"
 "http://www.w3.org/Graphics/SVG/1.1/DTD/svg11.dtd">
<!-- Generated by graphviz version 2.30.1 (20180420.1509)
 -->
<!-- Title: Sun Pages: 1 -->
<svg width="200pt" height="77pt"
 viewBox="0.00 0.00 200.00 77.00" xmlns="http://www.w3.org/2000/svg" xmlns:xlink="http://www.w3.org/1999/xlink">
<g id="graph0" class="graph" transform="scale(1 1) rotate(0) translate(4 73)">
<title>Sun</title>
<polygon fill="white" stroke="white" points="-4,5 -4,-73 197,-73 197,5 -4,5"/>
<!-- Node1 -->
<g id="node1" class="node"><title>Node1</title>
<polygon fill="#bfbfbf" stroke="black" points="0,-22.5 0,-41.5 34,-41.5 34,-22.5 0,-22.5"/>
<text text-anchor="middle" x="17" y="-29.5" font-family="Helvetica,sans-Serif" font-size="10.00">Sun</text>
</g>
<!-- Node2 -->
<g id="node2" class="node"><title>Node2</title>
<g id="a_node2"><a xlink:href="namespaceanonymous__namespace_02SAT__Force_8cpp_03.html#aa6826b33621fa6ff5736c6432c487c1a" target="_top" xlink:title="anonymous_namespace\l\{SAT_Force::cpp\}::Frac">
<polygon fill="white" stroke="black" points="70,-39 70,-69 192,-69 192,-39 70,-39"/>
<text text-anchor="start" x="78" y="-57" font-family="Helvetica,sans-Serif" font-size="10.00">anonymous_namespace</text>
<text text-anchor="middle" x="131" y="-46" font-family="Helvetica,sans-Serif" font-size="10.00">{SAT_Force::cpp}::Frac</text>
</a>
</g>
</g>
<!-- Node1&#45;&gt;Node2 -->
<g id="edge1" class="edge"><title>Node1&#45;&gt;Node2</title>
<path fill="none" stroke="midnightblue" d="M34.0469,-35.1521C41.1398,-36.5453 50.0171,-38.2891 59.4893,-40.1497"/>
<polygon fill="midnightblue" stroke="midnightblue" points="59.0387,-43.628 69.5258,-42.1211 60.388,-36.7592 59.0387,-43.628"/>
</g>
<!-- Node3 -->
<g id="node3" class="node"><title>Node3</title>
<g id="a_node3"><a xlink:href="SAT__VecMat_8cpp.html#ae452267b1d1da6280386846d97ec4e4f" target="_top" xlink:title="R_x">
<polygon fill="white" stroke="black" points="113.5,-0.5 113.5,-19.5 148.5,-19.5 148.5,-0.5 113.5,-0.5"/>
<text text-anchor="middle" x="131" y="-7.5" font-family="Helvetica,sans-Serif" font-size="10.00">R_x</text>
</a>
</g>
</g>
<!-- Node1&#45;&gt;Node3 -->
<g id="edge2" class="edge"><title>Node1&#45;&gt;Node3</title>
<path fill="none" stroke="midnightblue" d="M34.0469,-28.8479C52.1361,-25.2947 81.8305,-19.4619 103.401,-15.2248"/>
<polygon fill="midnightblue" stroke="midnightblue" points="104.114,-18.6518 113.251,-13.2899 102.764,-11.7831 104.114,-18.6518"/>
</g>
</g>
</svg>
