<?xml version="1.0" encoding="UTF-8" standalone="no"?>
<!DOCTYPE svg PUBLIC "-//W3C//DTD SVG 1.1//EN"
 "http://www.w3.org/Graphics/SVG/1.1/DTD/svg11.dtd">
<!-- Generated by graphviz version 2.30.1 (20180420.1509)
 -->
<!-- Title: SAT_RefSys.h Pages: 1 -->
<svg width="472pt" height="84pt"
 viewBox="0.00 0.00 472.00 84.00" xmlns="http://www.w3.org/2000/svg" xmlns:xlink="http://www.w3.org/1999/xlink">
<g id="graph0" class="graph" transform="scale(1 1) rotate(0) translate(4 80)">
<title>SAT_RefSys.h</title>
<polygon fill="white" stroke="white" points="-4,5 -4,-80 469,-80 469,5 -4,5"/>
<!-- Node1 -->
<g id="node1" class="node"><title>Node1</title>
<polygon fill="#bfbfbf" stroke="black" points="172.5,-56.5 172.5,-75.5 255.5,-75.5 255.5,-56.5 172.5,-56.5"/>
<text text-anchor="middle" x="214" y="-63.5" font-family="Helvetica,sans-Serif" font-size="10.00">SAT_RefSys.h</text>
</g>
<!-- Node2 -->
<g id="node2" class="node"><title>Node2</title>
<g id="a_node2"><a xlink:href="GEODA_8cpp.html" target="_top" xlink:title="GEODA.cpp">
<polygon fill="white" stroke="black" points="-0.5,-0.5 -0.5,-19.5 70.5,-19.5 70.5,-0.5 -0.5,-0.5"/>
<text text-anchor="middle" x="35" y="-7.5" font-family="Helvetica,sans-Serif" font-size="10.00">GEODA.cpp</text>
</a>
</g>
</g>
<!-- Node1&#45;&gt;Node2 -->
<g id="edge1" class="edge"><title>Node1&#45;&gt;Node2</title>
<path fill="none" stroke="midnightblue" d="M175.669,-53.4363C141.92,-43.2551 93.5529,-28.664 63.2304,-19.5164"/>
<polygon fill="midnightblue" stroke="midnightblue" points="175.052,-56.9061 185.637,-56.4435 177.074,-50.2044 175.052,-56.9061"/>
</g>
<!-- Node3 -->
<g id="node3" class="node"><title>Node3</title>
<g id="a_node3"><a xlink:href="RTOD_8cpp.html" target="_top" xlink:title="RTOD.cpp">
<polygon fill="white" stroke="black" points="89,-0.5 89,-19.5 153,-19.5 153,-0.5 89,-0.5"/>
<text text-anchor="middle" x="121" y="-7.5" font-family="Helvetica,sans-Serif" font-size="10.00">RTOD.cpp</text>
</a>
</g>
</g>
<!-- Node1&#45;&gt;Node3 -->
<g id="edge2" class="edge"><title>Node1&#45;&gt;Node3</title>
<path fill="none" stroke="midnightblue" d="M190.194,-51.1774C173.081,-41.2407 150.535,-28.1492 135.905,-19.6545"/>
<polygon fill="midnightblue" stroke="midnightblue" points="188.653,-54.3293 199.058,-56.324 192.168,-48.2758 188.653,-54.3293"/>
</g>
<!-- Node4 -->
<g id="node4" class="node"><title>Node4</title>
<g id="a_node4"><a xlink:href="SAT__Force_8cpp.html" target="_top" xlink:title="SAT_Force.cpp">
<polygon fill="white" stroke="black" points="171.5,-0.5 171.5,-19.5 256.5,-19.5 256.5,-0.5 171.5,-0.5"/>
<text text-anchor="middle" x="214" y="-7.5" font-family="Helvetica,sans-Serif" font-size="10.00">SAT_Force.cpp</text>
</a>
</g>
</g>
<!-- Node1&#45;&gt;Node4 -->
<g id="edge3" class="edge"><title>Node1&#45;&gt;Node4</title>
<path fill="none" stroke="midnightblue" d="M214,-45.8045C214,-36.9102 214,-26.7798 214,-19.7511"/>
<polygon fill="midnightblue" stroke="midnightblue" points="210.5,-46.083 214,-56.083 217.5,-46.083 210.5,-46.083"/>
</g>
<!-- Node5 -->
<g id="node5" class="node"><title>Node5</title>
<g id="a_node5"><a xlink:href="SAT__RefSys_8cpp.html" target="_top" xlink:title="SAT_RefSys.cpp">
<polygon fill="white" stroke="black" points="274.5,-0.5 274.5,-19.5 367.5,-19.5 367.5,-0.5 274.5,-0.5"/>
<text text-anchor="middle" x="321" y="-7.5" font-family="Helvetica,sans-Serif" font-size="10.00">SAT_RefSys.cpp</text>
</a>
</g>
</g>
<!-- Node1&#45;&gt;Node5 -->
<g id="edge4" class="edge"><title>Node1&#45;&gt;Node5</title>
<path fill="none" stroke="midnightblue" d="M240.302,-51.7261C260.115,-41.7271 286.707,-28.3065 303.851,-19.6545"/>
<polygon fill="midnightblue" stroke="midnightblue" points="238.542,-48.6938 231.191,-56.324 241.696,-54.9431 238.542,-48.6938"/>
</g>
<!-- Node6 -->
<g id="node6" class="node"><title>Node6</title>
<g id="a_node6"><a xlink:href="TDRSOD_8cpp.html" target="_top" xlink:title="TDRSOD.cpp">
<polygon fill="white" stroke="black" points="386,-0.5 386,-19.5 464,-19.5 464,-0.5 386,-0.5"/>
<text text-anchor="middle" x="425" y="-7.5" font-family="Helvetica,sans-Serif" font-size="10.00">TDRSOD.cpp</text>
</a>
</g>
</g>
<!-- Node1&#45;&gt;Node6 -->
<g id="edge5" class="edge"><title>Node1&#45;&gt;Node6</title>
<path fill="none" stroke="midnightblue" d="M257.142,-53.959C296.994,-43.7598 355.363,-28.8217 391.723,-19.5164"/>
<polygon fill="midnightblue" stroke="midnightblue" points="256.254,-50.5734 247.434,-56.4435 257.989,-57.3549 256.254,-50.5734"/>
</g>
</g>
</svg>
