<?xml version="1.0" encoding="UTF-8" standalone="no"?>
<!DOCTYPE svg PUBLIC "-//W3C//DTD SVG 1.1//EN"
 "http://www.w3.org/Graphics/SVG/1.1/DTD/svg11.dtd">
<!-- Generated by graphviz version 2.30.1 (20180420.1509)
 -->
<!-- Title: Elements Pages: 1 -->
<svg width="462pt" height="220pt"
 viewBox="0.00 0.00 462.00 219.65" xmlns="http://www.w3.org/2000/svg" xmlns:xlink="http://www.w3.org/1999/xlink">
<g id="graph0" class="graph" transform="scale(1 1) rotate(0) translate(4 215.647)">
<title>Elements</title>
<polygon fill="white" stroke="white" points="-4,5 -4,-215.647 459,-215.647 459,5 -4,5"/>
<!-- Node1 -->
<g id="node1" class="node"><title>Node1</title>
<polygon fill="#bfbfbf" stroke="black" points="0,-113.147 0,-132.147 58,-132.147 58,-113.147 0,-113.147"/>
<text text-anchor="middle" x="29" y="-120.147" font-family="Helvetica,sans-Serif" font-size="10.00">Elements</text>
</g>
<!-- Node2 -->
<g id="node2" class="node"><title>Node2</title>
<g id="a_node2"><a xlink:href="SAT__VecMat_8cpp.html#a313ce8c9730e0bd08a1396f364f0486c" target="_top" xlink:title="Norm">
<polygon fill="white" stroke="black" points="304.5,-192.147 304.5,-211.147 345.5,-211.147 345.5,-192.147 304.5,-192.147"/>
<text text-anchor="middle" x="325" y="-199.147" font-family="Helvetica,sans-Serif" font-size="10.00">Norm</text>
</a>
</g>
</g>
<!-- Node1&#45;&gt;Node2 -->
<g id="edge1" class="edge"><title>Node1&#45;&gt;Node2</title>
<path fill="none" stroke="midnightblue" d="M37.3971,-132.531C48.1655,-146.068 69.5601,-169.918 94,-180.647 160.79,-209.966 248.799,-208.221 294.143,-204.755"/>
<polygon fill="midnightblue" stroke="midnightblue" points="294.525,-208.235 304.193,-203.903 293.934,-201.26 294.525,-208.235"/>
</g>
<!-- Node3 -->
<g id="node3" class="node"><title>Node3</title>
<g id="a_node3"><a xlink:href="SAT__VecMat_8cpp.html#a71375a6ebee7fc40c1d45985175d82e5" target="_top" xlink:title="Dot">
<polygon fill="white" stroke="black" points="422,-154.147 422,-173.147 454,-173.147 454,-154.147 422,-154.147"/>
<text text-anchor="middle" x="438" y="-161.147" font-family="Helvetica,sans-Serif" font-size="10.00">Dot</text>
</a>
</g>
</g>
<!-- Node1&#45;&gt;Node3 -->
<g id="edge3" class="edge"><title>Node1&#45;&gt;Node3</title>
<path fill="none" stroke="midnightblue" d="M35.1174,-112.921C44.349,-96.5427 65.5099,-63.9473 94,-50.6467 211.611,4.26033 277.531,25.6392 386,-45.6467 419.44,-67.6233 431.056,-116.699 435.014,-144.134"/>
<polygon fill="midnightblue" stroke="midnightblue" points="431.548,-144.62 436.252,-154.114 438.495,-143.759 431.548,-144.62"/>
</g>
<!-- Node4 -->
<g id="node4" class="node"><title>Node4</title>
<g id="a_node4"><a xlink:href="SAT__VecMat_8cpp.html#ab712f21cc19675f37e17e08bb51a82b4" target="_top" xlink:title="Cross">
<polygon fill="white" stroke="black" points="139.5,-113.147 139.5,-132.147 182.5,-132.147 182.5,-113.147 139.5,-113.147"/>
<text text-anchor="middle" x="161" y="-120.147" font-family="Helvetica,sans-Serif" font-size="10.00">Cross</text>
</a>
</g>
</g>
<!-- Node1&#45;&gt;Node4 -->
<g id="edge4" class="edge"><title>Node1&#45;&gt;Node4</title>
<path fill="none" stroke="midnightblue" d="M58.2081,-122.647C79.1616,-122.647 107.721,-122.647 129.257,-122.647"/>
<polygon fill="midnightblue" stroke="midnightblue" points="129.5,-126.147 139.5,-122.647 129.5,-119.147 129.5,-126.147"/>
</g>
<!-- Node5 -->
<g id="node5" class="node"><title>Node5</title>
<g id="a_node5"><a xlink:href="namespaceanonymous__namespace_02SAT__Kepler_8cpp_03.html#ae5d42531d691a174363f296c22d23217" target="_top" xlink:title="anonymous_namespace\l\{SAT_Kepler::cpp\}::Modulo">
<polygon fill="white" stroke="black" points="94,-60.6467 94,-90.6467 228,-90.6467 228,-60.6467 94,-60.6467"/>
<text text-anchor="start" x="102" y="-78.6467" font-family="Helvetica,sans-Serif" font-size="10.00">anonymous_namespace</text>
<text text-anchor="middle" x="161" y="-67.6467" font-family="Helvetica,sans-Serif" font-size="10.00">{SAT_Kepler::cpp}::Modulo</text>
</a>
</g>
</g>
<!-- Node1&#45;&gt;Node5 -->
<g id="edge5" class="edge"><title>Node1&#45;&gt;Node5</title>
<path fill="none" stroke="midnightblue" d="M56.3074,-113.136C71.3314,-107.704 90.6914,-100.704 108.607,-94.2271"/>
<polygon fill="midnightblue" stroke="midnightblue" points="110.161,-97.3871 118.376,-90.6955 107.781,-90.8041 110.161,-97.3871"/>
</g>
<!-- Node7 -->
<g id="node7" class="node"><title>Node7</title>
<g id="a_node7"><a xlink:href="SAT__Kepler_8cpp.html#a131c46c69e895d1d1bf15bf54830012d" target="_top" xlink:title="FindEta">
<polygon fill="white" stroke="black" points="136,-152.147 136,-171.147 186,-171.147 186,-152.147 136,-152.147"/>
<text text-anchor="middle" x="161" y="-159.147" font-family="Helvetica,sans-Serif" font-size="10.00">FindEta</text>
</a>
</g>
</g>
<!-- Node1&#45;&gt;Node7 -->
<g id="edge7" class="edge"><title>Node1&#45;&gt;Node7</title>
<path fill="none" stroke="midnightblue" d="M58.2081,-131.109C78.1022,-137.077 104.852,-145.102 125.938,-151.428"/>
<polygon fill="midnightblue" stroke="midnightblue" points="125.195,-154.859 135.779,-154.38 127.206,-148.154 125.195,-154.859"/>
</g>
<!-- Node2&#45;&gt;Node3 -->
<g id="edge2" class="edge"><title>Node2&#45;&gt;Node3</title>
<path fill="none" stroke="midnightblue" d="M345.589,-194.94C364.139,-188.59 392.068,-179.029 412.171,-172.147"/>
<polygon fill="midnightblue" stroke="midnightblue" points="413.552,-175.373 421.879,-168.823 411.285,-168.751 413.552,-175.373"/>
</g>
<!-- Node6 -->
<g id="node6" class="node"><title>Node6</title>
<g id="a_node6"><a xlink:href="namespaceanonymous__namespace_02SAT__Force_8cpp_03.html#aa6826b33621fa6ff5736c6432c487c1a" target="_top" xlink:title="anonymous_namespace\l\{SAT_Force::cpp\}::Frac">
<polygon fill="white" stroke="black" points="264,-55.6467 264,-85.6467 386,-85.6467 386,-55.6467 264,-55.6467"/>
<text text-anchor="start" x="272" y="-73.6467" font-family="Helvetica,sans-Serif" font-size="10.00">anonymous_namespace</text>
<text text-anchor="middle" x="325" y="-62.6467" font-family="Helvetica,sans-Serif" font-size="10.00">{SAT_Force::cpp}::Frac</text>
</a>
</g>
</g>
<!-- Node5&#45;&gt;Node6 -->
<g id="edge6" class="edge"><title>Node5&#45;&gt;Node6</title>
<path fill="none" stroke="midnightblue" d="M228.359,-73.5985C236.745,-73.3397 245.348,-73.0742 253.792,-72.8136"/>
<polygon fill="midnightblue" stroke="midnightblue" points="254.1,-76.3058 263.987,-72.4989 253.884,-69.3092 254.1,-76.3058"/>
</g>
<!-- Node7&#45;&gt;Node2 -->
<g id="edge8" class="edge"><title>Node7&#45;&gt;Node2</title>
<path fill="none" stroke="midnightblue" d="M186.253,-167.635C215.119,-174.762 263.308,-186.661 294.358,-194.328"/>
<polygon fill="midnightblue" stroke="midnightblue" points="293.631,-197.753 304.179,-196.753 295.309,-190.957 293.631,-197.753"/>
</g>
<!-- Node7&#45;&gt;Node3 -->
<g id="edge9" class="edge"><title>Node7&#45;&gt;Node3</title>
<path fill="none" stroke="midnightblue" d="M186.404,-161.824C238.316,-162.202 359.231,-163.081 411.821,-163.464"/>
<polygon fill="midnightblue" stroke="midnightblue" points="411.931,-166.964 421.957,-163.537 411.982,-159.965 411.931,-166.964"/>
</g>
<!-- Node8 -->
<g id="node8" class="node"><title>Node8</title>
<g id="a_node8"><a xlink:href="namespaceanonymous__namespace_02SAT__Kepler_8cpp_03.html#a898091d856dff0d563448625b7634f16" target="_top" xlink:title="anonymous_namespace\l\{SAT_Kepler::cpp\}::F">
<polygon fill="white" stroke="black" points="264,-104.647 264,-134.647 386,-134.647 386,-104.647 264,-104.647"/>
<text text-anchor="start" x="272" y="-122.647" font-family="Helvetica,sans-Serif" font-size="10.00">anonymous_namespace</text>
<text text-anchor="middle" x="325" y="-111.647" font-family="Helvetica,sans-Serif" font-size="10.00">{SAT_Kepler::cpp}::F</text>
</a>
</g>
</g>
<!-- Node7&#45;&gt;Node8 -->
<g id="edge10" class="edge"><title>Node7&#45;&gt;Node8</title>
<path fill="none" stroke="midnightblue" d="M186.253,-155.359C204.799,-150.551 231.32,-143.675 256.148,-137.238"/>
<polygon fill="midnightblue" stroke="midnightblue" points="257.122,-140.601 265.924,-134.703 255.365,-133.825 257.122,-140.601"/>
</g>
</g>
</svg>
