<?xml version="1.0" encoding="UTF-8" standalone="no"?>
<!DOCTYPE svg PUBLIC "-//W3C//DTD SVG 1.1//EN"
 "http://www.w3.org/Graphics/SVG/1.1/DTD/svg11.dtd">
<!-- Generated by graphviz version 2.30.1 (20180420.1509)
 -->
<!-- Title: InvUpper Pages: 1 -->
<svg width="346pt" height="104pt"
 viewBox="0.00 0.00 346.00 104.00" xmlns="http://www.w3.org/2000/svg" xmlns:xlink="http://www.w3.org/1999/xlink">
<g id="graph0" class="graph" transform="scale(1 1) rotate(0) translate(4 100)">
<title>InvUpper</title>
<polygon fill="white" stroke="white" points="-4,5 -4,-100 343,-100 343,5 -4,5"/>
<!-- Node1 -->
<g id="node1" class="node"><title>Node1</title>
<polygon fill="#bfbfbf" stroke="black" points="0,-38.5 0,-57.5 56,-57.5 56,-38.5 0,-38.5"/>
<text text-anchor="middle" x="28" y="-45.5" font-family="Helvetica,sans-Serif" font-size="10.00">InvUpper</text>
</g>
<!-- Node2 -->
<g id="node2" class="node"><title>Node2</title>
<g id="a_node2"><a xlink:href="GEODA_8cpp.html#a0ddf1224851353fc92bfbff6f499fa97" target="_top" xlink:title="main">
<polygon fill="white" stroke="black" points="103,-76.5 103,-95.5 141,-95.5 141,-76.5 103,-76.5"/>
<text text-anchor="middle" x="122" y="-83.5" font-family="Helvetica,sans-Serif" font-size="10.00">main</text>
</a>
</g>
</g>
<!-- Node1&#45;&gt;Node2 -->
<g id="edge1" class="edge"><title>Node1&#45;&gt;Node2</title>
<path fill="none" stroke="midnightblue" d="M61.8453,-61.5665C75.5939,-67.2453 91.0541,-73.6311 102.721,-78.4498"/>
<polygon fill="midnightblue" stroke="midnightblue" points="62.7943,-58.1717 52.2155,-57.589 60.1219,-64.6416 62.7943,-58.1717"/>
</g>
<!-- Node3 -->
<g id="node3" class="node"><title>Node3</title>
<g id="a_node3"><a xlink:href="classLSQ.html#a5a2fdaddfaeaf4638bfaafc25a6ae793" target="_top" xlink:title="LSQ::Init">
<polygon fill="white" stroke="black" points="94,-38.5 94,-57.5 150,-57.5 150,-38.5 94,-38.5"/>
<text text-anchor="middle" x="122" y="-45.5" font-family="Helvetica,sans-Serif" font-size="10.00">LSQ::Init</text>
</a>
</g>
</g>
<!-- Node1&#45;&gt;Node3 -->
<g id="edge2" class="edge"><title>Node1&#45;&gt;Node3</title>
<path fill="none" stroke="midnightblue" d="M66.2179,-48C75.4317,-48 85.1338,-48 93.7704,-48"/>
<polygon fill="midnightblue" stroke="midnightblue" points="66.1055,-44.5001 56.1054,-48 66.1054,-51.5001 66.1055,-44.5001"/>
</g>
<!-- Node4 -->
<g id="node4" class="node"><title>Node4</title>
<g id="a_node4"><a xlink:href="classLSQ.html#a1747470db996bda1d339df70088c463a" target="_top" xlink:title="LSQ::Cov">
<polygon fill="white" stroke="black" points="92,-0.5 92,-19.5 152,-19.5 152,-0.5 92,-0.5"/>
<text text-anchor="middle" x="122" y="-7.5" font-family="Helvetica,sans-Serif" font-size="10.00">LSQ::Cov</text>
</a>
</g>
</g>
<!-- Node1&#45;&gt;Node4 -->
<g id="edge3" class="edge"><title>Node1&#45;&gt;Node4</title>
<path fill="none" stroke="midnightblue" d="M61.4698,-34.5886C73.4564,-29.6376 86.7883,-24.1309 97.7919,-19.5859"/>
<polygon fill="midnightblue" stroke="midnightblue" points="60.1219,-31.3584 52.2155,-38.411 62.7943,-37.8282 60.1219,-31.3584"/>
</g>
<!-- Node5 -->
<g id="node5" class="node"><title>Node5</title>
<g id="a_node5"><a xlink:href="classLSQ.html#a735f9e8d4c4028b1e49e00ef0da87f97" target="_top" xlink:title="LSQ::StdDev">
<polygon fill="white" stroke="black" points="188.5,-0.5 188.5,-19.5 263.5,-19.5 263.5,-0.5 188.5,-0.5"/>
<text text-anchor="middle" x="226" y="-7.5" font-family="Helvetica,sans-Serif" font-size="10.00">LSQ::StdDev</text>
</a>
</g>
</g>
<!-- Node4&#45;&gt;Node5 -->
<g id="edge4" class="edge"><title>Node4&#45;&gt;Node5</title>
<path fill="none" stroke="midnightblue" d="M162.401,-10C170.986,-10 180.033,-10 188.5,-10"/>
<polygon fill="midnightblue" stroke="midnightblue" points="162.229,-6.5001 152.229,-10 162.229,-13.5001 162.229,-6.5001"/>
</g>
<!-- Node6 -->
<g id="node6" class="node"><title>Node6</title>
<g id="a_node6"><a xlink:href="TDRSOD_8cpp.html#a0ddf1224851353fc92bfbff6f499fa97" target="_top" xlink:title="main">
<polygon fill="white" stroke="black" points="300,-0.5 300,-19.5 338,-19.5 338,-0.5 300,-0.5"/>
<text text-anchor="middle" x="319" y="-7.5" font-family="Helvetica,sans-Serif" font-size="10.00">main</text>
</a>
</g>
</g>
<!-- Node5&#45;&gt;Node6 -->
<g id="edge5" class="edge"><title>Node5&#45;&gt;Node6</title>
<path fill="none" stroke="midnightblue" d="M273.775,-10C283.055,-10 292.264,-10 299.856,-10"/>
<polygon fill="midnightblue" stroke="midnightblue" points="273.751,-6.5001 263.751,-10 273.751,-13.5001 273.751,-6.5001"/>
</g>
</g>
</svg>
