<?xml version="1.0" encoding="UTF-8" standalone="no"?>
<!DOCTYPE svg PUBLIC "-//W3C//DTD SVG 1.1//EN"
 "http://www.w3.org/Graphics/SVG/1.1/DTD/svg11.dtd">
<!-- Generated by graphviz version 2.30.1 (20180420.1509)
 -->
<!-- Title: EqnEquinox Pages: 1 -->
<svg width="522pt" height="95pt"
 viewBox="0.00 0.00 522.00 95.00" xmlns="http://www.w3.org/2000/svg" xmlns:xlink="http://www.w3.org/1999/xlink">
<g id="graph0" class="graph" transform="scale(1 1) rotate(0) translate(4 91)">
<title>EqnEquinox</title>
<polygon fill="white" stroke="white" points="-4,5 -4,-91 519,-91 519,5 -4,5"/>
<!-- Node1 -->
<g id="node1" class="node"><title>Node1</title>
<polygon fill="#bfbfbf" stroke="black" points="0.5,-19.5 0.5,-38.5 69.5,-38.5 69.5,-19.5 0.5,-19.5"/>
<text text-anchor="middle" x="35" y="-26.5" font-family="Helvetica,sans-Serif" font-size="10.00">EqnEquinox</text>
</g>
<!-- Node2 -->
<g id="node2" class="node"><title>Node2</title>
<g id="a_node2"><a xlink:href="SAT__RefSys_8cpp.html#a2a9df90e79156b20bf667ae56342d756" target="_top" xlink:title="NutAngles">
<polygon fill="white" stroke="black" points="115,-38.5 115,-57.5 177,-57.5 177,-38.5 115,-38.5"/>
<text text-anchor="middle" x="146" y="-45.5" font-family="Helvetica,sans-Serif" font-size="10.00">NutAngles</text>
</a>
</g>
</g>
<!-- Node1&#45;&gt;Node2 -->
<g id="edge1" class="edge"><title>Node1&#45;&gt;Node2</title>
<path fill="none" stroke="midnightblue" d="M69.593,-34.8557C80.7205,-36.7953 93.2185,-38.9739 104.791,-40.9912"/>
<polygon fill="midnightblue" stroke="midnightblue" points="104.213,-44.4431 114.666,-42.7124 105.415,-37.5471 104.213,-44.4431"/>
</g>
<!-- Node6 -->
<g id="node6" class="node"><title>Node6</title>
<g id="a_node6"><a xlink:href="SAT__RefSys_8cpp.html#a11f057ac4e8a0c5a7958f77379e30d40" target="_top" xlink:title="MeanObliquity">
<polygon fill="white" stroke="black" points="106.5,-0.5 106.5,-19.5 185.5,-19.5 185.5,-0.5 106.5,-0.5"/>
<text text-anchor="middle" x="146" y="-7.5" font-family="Helvetica,sans-Serif" font-size="10.00">MeanObliquity</text>
</a>
</g>
</g>
<!-- Node1&#45;&gt;Node6 -->
<g id="edge5" class="edge"><title>Node1&#45;&gt;Node6</title>
<path fill="none" stroke="midnightblue" d="M69.593,-23.1443C78.0464,-21.6708 87.2907,-20.0594 96.3195,-18.4856"/>
<polygon fill="midnightblue" stroke="midnightblue" points="97.1177,-21.8993 106.368,-16.734 95.9156,-15.0033 97.1177,-21.8993"/>
</g>
<!-- Node3 -->
<g id="node3" class="node"><title>Node3</title>
<g id="a_node3"><a xlink:href="namespaceanonymous__namespace_02SAT__Kepler_8cpp_03.html#a898091d856dff0d563448625b7634f16" target="_top" xlink:title="anonymous_namespace\l\{SAT_Kepler::cpp\}::F">
<polygon fill="white" stroke="black" points="228,-57 228,-87 350,-87 350,-57 228,-57"/>
<text text-anchor="start" x="236" y="-75" font-family="Helvetica,sans-Serif" font-size="10.00">anonymous_namespace</text>
<text text-anchor="middle" x="289" y="-64" font-family="Helvetica,sans-Serif" font-size="10.00">{SAT_Kepler::cpp}::F</text>
</a>
</g>
</g>
<!-- Node2&#45;&gt;Node3 -->
<g id="edge2" class="edge"><title>Node2&#45;&gt;Node3</title>
<path fill="none" stroke="midnightblue" d="M177.248,-53.1486C189.28,-55.1965 203.663,-57.6448 218.019,-60.0883"/>
<polygon fill="midnightblue" stroke="midnightblue" points="217.477,-63.5464 227.923,-61.7741 218.652,-56.6457 217.477,-63.5464"/>
</g>
<!-- Node4 -->
<g id="node4" class="node"><title>Node4</title>
<g id="a_node4"><a xlink:href="namespaceanonymous__namespace_02SAT__Kepler_8cpp_03.html#ae5d42531d691a174363f296c22d23217" target="_top" xlink:title="anonymous_namespace\l\{SAT_Kepler::cpp\}::Modulo">
<polygon fill="white" stroke="black" points="222,-8 222,-38 356,-38 356,-8 222,-8"/>
<text text-anchor="start" x="230" y="-26" font-family="Helvetica,sans-Serif" font-size="10.00">anonymous_namespace</text>
<text text-anchor="middle" x="289" y="-15" font-family="Helvetica,sans-Serif" font-size="10.00">{SAT_Kepler::cpp}::Modulo</text>
</a>
</g>
</g>
<!-- Node2&#45;&gt;Node4 -->
<g id="edge3" class="edge"><title>Node2&#45;&gt;Node4</title>
<path fill="none" stroke="midnightblue" d="M177.248,-42.6369C187.592,-40.8029 199.674,-38.6606 211.982,-36.4784"/>
<polygon fill="midnightblue" stroke="midnightblue" points="212.637,-39.917 221.872,-34.7248 211.415,-33.0245 212.637,-39.917"/>
</g>
<!-- Node5 -->
<g id="node5" class="node"><title>Node5</title>
<g id="a_node5"><a xlink:href="namespaceanonymous__namespace_02SAT__Force_8cpp_03.html#aa6826b33621fa6ff5736c6432c487c1a" target="_top" xlink:title="anonymous_namespace\l\{SAT_Force::cpp\}::Frac">
<polygon fill="white" stroke="black" points="392,-8 392,-38 514,-38 514,-8 392,-8"/>
<text text-anchor="start" x="400" y="-26" font-family="Helvetica,sans-Serif" font-size="10.00">anonymous_namespace</text>
<text text-anchor="middle" x="453" y="-15" font-family="Helvetica,sans-Serif" font-size="10.00">{SAT_Force::cpp}::Frac</text>
</a>
</g>
</g>
<!-- Node4&#45;&gt;Node5 -->
<g id="edge4" class="edge"><title>Node4&#45;&gt;Node5</title>
<path fill="none" stroke="midnightblue" d="M356.359,-23C364.745,-23 373.348,-23 381.792,-23"/>
<polygon fill="midnightblue" stroke="midnightblue" points="381.987,-26.5001 391.987,-23 381.987,-19.5001 381.987,-26.5001"/>
</g>
</g>
</svg>
