<?xml version="1.0" encoding="UTF-8" standalone="no"?>
<!DOCTYPE svg PUBLIC "-//W3C//DTD SVG 1.1//EN"
 "http://www.w3.org/Graphics/SVG/1.1/DTD/svg11.dtd">
<!-- Generated by graphviz version 2.30.1 (20180420.1509)
 -->
<!-- Title: SAT_Force.cpp Pages: 1 -->
<svg width="303pt" height="196pt"
 viewBox="0.00 0.00 303.00 196.00" xmlns="http://www.w3.org/2000/svg" xmlns:xlink="http://www.w3.org/1999/xlink">
<g id="graph0" class="graph" transform="scale(1 1) rotate(0) translate(4 192)">
<title>SAT_Force.cpp</title>
<polygon fill="white" stroke="white" points="-4,5 -4,-192 300,-192 300,5 -4,5"/>
<!-- Node1 -->
<g id="node1" class="node"><title>Node1</title>
<polygon fill="#bfbfbf" stroke="black" points="99.5,-168.5 99.5,-187.5 184.5,-187.5 184.5,-168.5 99.5,-168.5"/>
<text text-anchor="middle" x="142" y="-175.5" font-family="Helvetica,sans-Serif" font-size="10.00">SAT_Force.cpp</text>
</g>
<!-- Node2 -->
<g id="node2" class="node"><title>Node2</title>
<polygon fill="white" stroke="#bfbfbf" points="0,-112.5 0,-131.5 44,-131.5 44,-112.5 0,-112.5"/>
<text text-anchor="middle" x="22" y="-119.5" font-family="Helvetica,sans-Serif" font-size="10.00">cmath</text>
</g>
<!-- Node1&#45;&gt;Node2 -->
<g id="edge1" class="edge"><title>Node1&#45;&gt;Node2</title>
<path fill="none" stroke="midnightblue" d="M122.986,-168.444C103.412,-159.636 72.6924,-145.812 50.2711,-135.722"/>
<polygon fill="midnightblue" stroke="midnightblue" points="51.4809,-132.428 40.9254,-131.516 48.6083,-138.812 51.4809,-132.428"/>
</g>
<!-- Node3 -->
<g id="node3" class="node"><title>Node3</title>
<g id="a_node3"><a xlink:href="SAT__Const_8h.html" target="_top" xlink:title="SAT_Const.h">
<polygon fill="white" stroke="black" points="68,-56.5 68,-75.5 144,-75.5 144,-56.5 68,-56.5"/>
<text text-anchor="middle" x="106" y="-63.5" font-family="Helvetica,sans-Serif" font-size="10.00">SAT_Const.h</text>
</a>
</g>
</g>
<!-- Node1&#45;&gt;Node3 -->
<g id="edge2" class="edge"><title>Node1&#45;&gt;Node3</title>
<path fill="none" stroke="midnightblue" d="M126.266,-168.236C114.111,-160.481 98.1883,-147.929 91,-132 84.1671,-116.858 89.7003,-98.2785 95.8871,-84.8669"/>
<polygon fill="midnightblue" stroke="midnightblue" points="99.1076,-86.2568 100.552,-75.7608 92.8774,-83.0653 99.1076,-86.2568"/>
</g>
<!-- Node4 -->
<g id="node4" class="node"><title>Node4</title>
<g id="a_node4"><a xlink:href="SAT__Force_8h.html" target="_top" xlink:title="SAT_Force.h">
<polygon fill="white" stroke="black" points="202,-112.5 202,-131.5 276,-131.5 276,-112.5 202,-112.5"/>
<text text-anchor="middle" x="239" y="-119.5" font-family="Helvetica,sans-Serif" font-size="10.00">SAT_Force.h</text>
</a>
</g>
</g>
<!-- Node1&#45;&gt;Node4 -->
<g id="edge3" class="edge"><title>Node1&#45;&gt;Node4</title>
<path fill="none" stroke="midnightblue" d="M157.585,-168.324C172.999,-159.743 196.812,-146.486 214.71,-136.522"/>
<polygon fill="midnightblue" stroke="midnightblue" points="216.419,-139.577 223.454,-131.655 213.014,-133.461 216.419,-139.577"/>
</g>
<!-- Node8 -->
<g id="node8" class="node"><title>Node8</title>
<g id="a_node8"><a xlink:href="SAT__RefSys_8h.html" target="_top" xlink:title="SAT_RefSys.h">
<polygon fill="white" stroke="black" points="100.5,-112.5 100.5,-131.5 183.5,-131.5 183.5,-112.5 100.5,-112.5"/>
<text text-anchor="middle" x="142" y="-119.5" font-family="Helvetica,sans-Serif" font-size="10.00">SAT_RefSys.h</text>
</a>
</g>
</g>
<!-- Node1&#45;&gt;Node8 -->
<g id="edge7" class="edge"><title>Node1&#45;&gt;Node8</title>
<path fill="none" stroke="midnightblue" d="M142,-168.083C142,-161.006 142,-150.861 142,-141.986"/>
<polygon fill="midnightblue" stroke="midnightblue" points="145.5,-141.751 142,-131.751 138.5,-141.751 145.5,-141.751"/>
</g>
<!-- Node5 -->
<g id="node5" class="node"><title>Node5</title>
<g id="a_node5"><a xlink:href="SAT__VecMat_8h.html" target="_top" xlink:title="SAT_VecMat.h">
<polygon fill="white" stroke="black" points="197.5,-56.5 197.5,-75.5 280.5,-75.5 280.5,-56.5 197.5,-56.5"/>
<text text-anchor="middle" x="239" y="-63.5" font-family="Helvetica,sans-Serif" font-size="10.00">SAT_VecMat.h</text>
</a>
</g>
</g>
<!-- Node1&#45;&gt;Node5 -->
<g id="edge10" class="edge"><title>Node1&#45;&gt;Node5</title>
<path fill="none" stroke="midnightblue" d="M184.713,-176.313C217.98,-173.245 262.214,-163.057 285,-132 297.58,-114.853 278.432,-94.8437 261.144,-81.6029"/>
<polygon fill="midnightblue" stroke="midnightblue" points="263.111,-78.7055 252.954,-75.6888 259.013,-84.3806 263.111,-78.7055"/>
</g>
<!-- Node4&#45;&gt;Node5 -->
<g id="edge4" class="edge"><title>Node4&#45;&gt;Node5</title>
<path fill="none" stroke="midnightblue" d="M239,-112.083C239,-105.006 239,-94.8611 239,-85.9865"/>
<polygon fill="midnightblue" stroke="midnightblue" points="242.5,-85.751 239,-75.7511 235.5,-85.7511 242.5,-85.751"/>
</g>
<!-- Node6 -->
<g id="node6" class="node"><title>Node6</title>
<polygon fill="white" stroke="#bfbfbf" points="178,-0.5 178,-19.5 232,-19.5 232,-0.5 178,-0.5"/>
<text text-anchor="middle" x="205" y="-7.5" font-family="Helvetica,sans-Serif" font-size="10.00">iostream</text>
</g>
<!-- Node5&#45;&gt;Node6 -->
<g id="edge5" class="edge"><title>Node5&#45;&gt;Node6</title>
<path fill="none" stroke="midnightblue" d="M233.386,-56.083C228.633,-48.5341 221.682,-37.4948 215.848,-28.2298"/>
<polygon fill="midnightblue" stroke="midnightblue" points="218.8,-26.3486 210.51,-19.7511 212.876,-30.0783 218.8,-26.3486"/>
</g>
<!-- Node7 -->
<g id="node7" class="node"><title>Node7</title>
<polygon fill="white" stroke="#bfbfbf" points="250.5,-0.5 250.5,-19.5 295.5,-19.5 295.5,-0.5 250.5,-0.5"/>
<text text-anchor="middle" x="273" y="-7.5" font-family="Helvetica,sans-Serif" font-size="10.00">cstdlib</text>
</g>
<!-- Node5&#45;&gt;Node7 -->
<g id="edge6" class="edge"><title>Node5&#45;&gt;Node7</title>
<path fill="none" stroke="midnightblue" d="M244.614,-56.083C249.367,-48.5341 256.318,-37.4948 262.152,-28.2298"/>
<polygon fill="midnightblue" stroke="midnightblue" points="265.124,-30.0783 267.49,-19.7511 259.2,-26.3486 265.124,-30.0783"/>
</g>
<!-- Node8&#45;&gt;Node3 -->
<g id="edge8" class="edge"><title>Node8&#45;&gt;Node3</title>
<path fill="none" stroke="midnightblue" d="M136.055,-112.083C131.023,-104.534 123.663,-93.4948 117.487,-84.2298"/>
<polygon fill="midnightblue" stroke="midnightblue" points="120.293,-82.1301 111.834,-75.7511 114.469,-86.0131 120.293,-82.1301"/>
</g>
<!-- Node8&#45;&gt;Node5 -->
<g id="edge9" class="edge"><title>Node8&#45;&gt;Node5</title>
<path fill="none" stroke="midnightblue" d="M157.585,-112.324C172.999,-103.743 196.812,-90.486 214.71,-80.5224"/>
<polygon fill="midnightblue" stroke="midnightblue" points="216.419,-83.5767 223.454,-75.6545 213.014,-77.4606 216.419,-83.5767"/>
</g>
</g>
</svg>
