<?xml version="1.0" encoding="UTF-8" standalone="no"?>
<!DOCTYPE svg PUBLIC "-//W3C//DTD SVG 1.1//EN"
 "http://www.w3.org/Graphics/SVG/1.1/DTD/svg11.dtd">
<!-- Generated by graphviz version 2.30.1 (20180420.1509)
 -->
<!-- Title: Mjd Pages: 1 -->
<svg width="208pt" height="66pt"
 viewBox="0.00 0.00 208.00 66.00" xmlns="http://www.w3.org/2000/svg" xmlns:xlink="http://www.w3.org/1999/xlink">
<g id="graph0" class="graph" transform="scale(1 1) rotate(0) translate(4 62)">
<title>Mjd</title>
<polygon fill="white" stroke="white" points="-4,5 -4,-62 205,-62 205,5 -4,5"/>
<!-- Node1 -->
<g id="node1" class="node"><title>Node1</title>
<polygon fill="#bfbfbf" stroke="black" points="0,-19.5 0,-38.5 32,-38.5 32,-19.5 0,-19.5"/>
<text text-anchor="middle" x="16" y="-26.5" font-family="Helvetica,sans-Serif" font-size="10.00">Mjd</text>
</g>
<!-- Node2 -->
<g id="node2" class="node"><title>Node2</title>
<g id="a_node2"><a xlink:href="RTOD_8cpp.html#a414f260c3afbab0dddecaf55f18baecf" target="_top" xlink:title="GetObs">
<polygon fill="white" stroke="black" points="72,-38.5 72,-57.5 122,-57.5 122,-38.5 72,-38.5"/>
<text text-anchor="middle" x="97" y="-45.5" font-family="Helvetica,sans-Serif" font-size="10.00">GetObs</text>
</a>
</g>
</g>
<!-- Node1&#45;&gt;Node2 -->
<g id="edge1" class="edge"><title>Node1&#45;&gt;Node2</title>
<path fill="none" stroke="midnightblue" d="M42.2423,-35.0709C51.7069,-37.3472 62.433,-39.9269 71.8009,-42.18"/>
<polygon fill="midnightblue" stroke="midnightblue" points="42.7732,-31.5989 32.232,-32.6634 41.1363,-38.4048 42.7732,-31.5989"/>
</g>
<!-- Node4 -->
<g id="node4" class="node"><title>Node4</title>
<g id="a_node4"><a xlink:href="TDRSOD_8cpp.html#a905d1bd8096476fe062f28efb2acef7b" target="_top" xlink:title="GetSetup">
<polygon fill="white" stroke="black" points="68,-0.5 68,-19.5 126,-19.5 126,-0.5 68,-0.5"/>
<text text-anchor="middle" x="97" y="-7.5" font-family="Helvetica,sans-Serif" font-size="10.00">GetSetup</text>
</a>
</g>
</g>
<!-- Node1&#45;&gt;Node4 -->
<g id="edge3" class="edge"><title>Node1&#45;&gt;Node4</title>
<path fill="none" stroke="midnightblue" d="M42.2252,-22.9332C50.3395,-20.9816 59.3823,-18.8068 67.7023,-16.8058"/>
<polygon fill="midnightblue" stroke="midnightblue" points="41.1363,-19.5952 32.232,-25.3366 42.7732,-26.4011 41.1363,-19.5952"/>
</g>
<!-- Node3 -->
<g id="node3" class="node"><title>Node3</title>
<g id="a_node3"><a xlink:href="RTOD_8cpp.html#a0ddf1224851353fc92bfbff6f499fa97" target="_top" xlink:title="main">
<polygon fill="white" stroke="black" points="162,-38.5 162,-57.5 200,-57.5 200,-38.5 162,-38.5"/>
<text text-anchor="middle" x="181" y="-45.5" font-family="Helvetica,sans-Serif" font-size="10.00">main</text>
</a>
</g>
</g>
<!-- Node2&#45;&gt;Node3 -->
<g id="edge2" class="edge"><title>Node2&#45;&gt;Node3</title>
<path fill="none" stroke="midnightblue" d="M132.441,-48C142.603,-48 153.318,-48 161.998,-48"/>
<polygon fill="midnightblue" stroke="midnightblue" points="132.159,-44.5001 122.159,-48 132.159,-51.5001 132.159,-44.5001"/>
</g>
</g>
</svg>
