<?xml version="1.0" encoding="UTF-8" standalone="no"?>
<!DOCTYPE svg PUBLIC "-//W3C//DTD SVG 1.1//EN"
 "http://www.w3.org/Graphics/SVG/1.1/DTD/svg11.dtd">
<!-- Generated by graphviz version 2.30.1 (20180420.1509)
 -->
<!-- Title: LU_BackSub Pages: 1 -->
<svg width="282pt" height="28pt"
 viewBox="0.00 0.00 282.00 28.00" xmlns="http://www.w3.org/2000/svg" xmlns:xlink="http://www.w3.org/1999/xlink">
<g id="graph0" class="graph" transform="scale(1 1) rotate(0) translate(4 24)">
<title>LU_BackSub</title>
<polygon fill="white" stroke="white" points="-4,5 -4,-24 279,-24 279,5 -4,5"/>
<!-- Node1 -->
<g id="node1" class="node"><title>Node1</title>
<polygon fill="#bfbfbf" stroke="black" points="0,-0.5 0,-19.5 74,-19.5 74,-0.5 0,-0.5"/>
<text text-anchor="middle" x="37" y="-7.5" font-family="Helvetica,sans-Serif" font-size="10.00">LU_BackSub</text>
</g>
<!-- Node2 -->
<g id="node2" class="node"><title>Node2</title>
<g id="a_node2"><a xlink:href="SAT__VecMat_8cpp.html#a5bdf67234eadeb0a304f11d4537047aa" target="_top" xlink:title="Inv">
<polygon fill="white" stroke="black" points="110,-0.5 110,-19.5 140,-19.5 140,-0.5 110,-0.5"/>
<text text-anchor="middle" x="125" y="-7.5" font-family="Helvetica,sans-Serif" font-size="10.00">Inv</text>
</a>
</g>
</g>
<!-- Node1&#45;&gt;Node2 -->
<g id="edge1" class="edge"><title>Node1&#45;&gt;Node2</title>
<path fill="none" stroke="midnightblue" d="M84.4721,-10C93.6851,-10 102.684,-10 109.763,-10"/>
<polygon fill="midnightblue" stroke="midnightblue" points="84.4718,-6.5001 74.4717,-10 84.4717,-13.5001 84.4718,-6.5001"/>
</g>
<!-- Node3 -->
<g id="node3" class="node"><title>Node3</title>
<g id="a_node3"><a xlink:href="classEKF.html#a080c81bbef29da2b57caa52775f76602" target="_top" xlink:title="EKF::MeasUpdate">
<polygon fill="white" stroke="black" points="176,-0.5 176,-19.5 274,-19.5 274,-0.5 176,-0.5"/>
<text text-anchor="middle" x="225" y="-7.5" font-family="Helvetica,sans-Serif" font-size="10.00">EKF::MeasUpdate</text>
</a>
</g>
</g>
<!-- Node2&#45;&gt;Node3 -->
<g id="edge2" class="edge"><title>Node2&#45;&gt;Node3</title>
<path fill="none" stroke="midnightblue" d="M150.204,-10C158.018,-10 166.975,-10 175.893,-10"/>
<polygon fill="midnightblue" stroke="midnightblue" points="150.041,-6.5001 140.041,-10 150.041,-13.5001 150.041,-6.5001"/>
</g>
</g>
</svg>
