<?xml version="1.0" encoding="UTF-8" standalone="no"?>
<!DOCTYPE svg PUBLIC "-//W3C//DTD SVG 1.1//EN"
 "http://www.w3.org/Graphics/SVG/1.1/DTD/svg11.dtd">
<!-- Generated by graphviz version 2.30.1 (20180420.1509)
 -->
<!-- Title: AccelMain Pages: 1 -->
<svg width="850pt" height="598pt"
 viewBox="0.00 0.00 850.00 598.00" xmlns="http://www.w3.org/2000/svg" xmlns:xlink="http://www.w3.org/1999/xlink">
<g id="graph0" class="graph" transform="scale(1 1) rotate(0) translate(4 594)">
<title>AccelMain</title>
<polygon fill="white" stroke="white" points="-4,5 -4,-594 847,-594 847,5 -4,5"/>
<!-- Node1 -->
<g id="node1" class="node"><title>Node1</title>
<polygon fill="#bfbfbf" stroke="black" points="0,-266.5 0,-285.5 62,-285.5 62,-266.5 0,-266.5"/>
<text text-anchor="middle" x="31" y="-273.5" font-family="Helvetica,sans-Serif" font-size="10.00">AccelMain</text>
</g>
<!-- Node2 -->
<g id="node2" class="node"><title>Node2</title>
<g id="a_node2"><a xlink:href="SAT__RefSys_8cpp.html#a35e586a324741da54bc1e407a5586378" target="_top" xlink:title="NutMatrix">
<polygon fill="white" stroke="black" points="112.5,-418.5 112.5,-437.5 171.5,-437.5 171.5,-418.5 112.5,-418.5"/>
<text text-anchor="middle" x="142" y="-425.5" font-family="Helvetica,sans-Serif" font-size="10.00">NutMatrix</text>
</a>
</g>
</g>
<!-- Node1&#45;&gt;Node2 -->
<g id="edge1" class="edge"><title>Node1&#45;&gt;Node2</title>
<path fill="none" stroke="midnightblue" d="M38.8184,-285.508C56.6347,-310.353 104.806,-377.528 128.075,-409.976"/>
<polygon fill="midnightblue" stroke="midnightblue" points="125.512,-412.408 134.184,-418.495 131.201,-408.329 125.512,-412.408"/>
</g>
<!-- Node10 -->
<g id="node10" class="node"><title>Node10</title>
<g id="a_node10"><a xlink:href="SAT__RefSys_8cpp.html#abc2e56e609b82264ae010497b21dcba0" target="_top" xlink:title="PrecMatrix">
<polygon fill="white" stroke="black" points="110,-513.5 110,-532.5 174,-532.5 174,-513.5 110,-513.5"/>
<text text-anchor="middle" x="142" y="-520.5" font-family="Helvetica,sans-Serif" font-size="10.00">PrecMatrix</text>
</a>
</g>
</g>
<!-- Node1&#45;&gt;Node10 -->
<g id="edge9" class="edge"><title>Node1&#45;&gt;Node10</title>
<path fill="none" stroke="midnightblue" d="M32.0314,-285.574C32.6479,-319.662 39.1539,-436.669 98,-504 99.1447,-505.31 100.397,-506.533 101.73,-507.675"/>
<polygon fill="midnightblue" stroke="midnightblue" points="99.8474,-510.627 110.082,-513.368 103.79,-504.843 99.8474,-510.627"/>
</g>
<!-- Node12 -->
<g id="node12" class="node"><title>Node12</title>
<g id="a_node12"><a xlink:href="SAT__RefSys_8cpp.html#a9699d3dfbd482534e86059e5613f8b8c" target="_top" xlink:title="GHAMatrix">
<polygon fill="white" stroke="black" points="109.5,-475.5 109.5,-494.5 174.5,-494.5 174.5,-475.5 109.5,-475.5"/>
<text text-anchor="middle" x="142" y="-482.5" font-family="Helvetica,sans-Serif" font-size="10.00">GHAMatrix</text>
</a>
</g>
</g>
<!-- Node1&#45;&gt;Node12 -->
<g id="edge12" class="edge"><title>Node1&#45;&gt;Node12</title>
<path fill="none" stroke="midnightblue" d="M34.0171,-285.654C40.0659,-312.977 60.0253,-392.399 98,-447 103.642,-455.112 111.367,-462.643 118.714,-468.825"/>
<polygon fill="midnightblue" stroke="midnightblue" points="117.01,-471.94 127.018,-475.416 121.362,-466.458 117.01,-471.94"/>
</g>
<!-- Node16 -->
<g id="node16" class="node"><title>Node16</title>
<g id="a_node16"><a xlink:href="SAT__Force_8cpp.html#a35b54a3eda29b936098b3cc869d6c381" target="_top" xlink:title="AccelHarmonic">
<polygon fill="white" stroke="black" points="100.5,-152.5 100.5,-171.5 183.5,-171.5 183.5,-152.5 100.5,-152.5"/>
<text text-anchor="middle" x="142" y="-159.5" font-family="Helvetica,sans-Serif" font-size="10.00">AccelHarmonic</text>
</a>
</g>
</g>
<!-- Node1&#45;&gt;Node16 -->
<g id="edge21" class="edge"><title>Node1&#45;&gt;Node16</title>
<path fill="none" stroke="midnightblue" d="M41.2933,-266.28C59.7949,-246.93 101.446,-203.368 124.634,-179.116"/>
<polygon fill="midnightblue" stroke="midnightblue" points="127.349,-181.342 131.73,-171.695 122.29,-176.504 127.349,-181.342"/>
</g>
<!-- Node19 -->
<g id="node19" class="node"><title>Node19</title>
<g id="a_node19"><a xlink:href="SAT__Force_8cpp.html#a2de08a6e83f5eff12db59b0616ad7f2c" target="_top" xlink:title="Sun">
<polygon fill="white" stroke="black" points="346,-342.5 346,-361.5 380,-361.5 380,-342.5 346,-342.5"/>
<text text-anchor="middle" x="363" y="-349.5" font-family="Helvetica,sans-Serif" font-size="10.00">Sun</text>
</a>
</g>
</g>
<!-- Node1&#45;&gt;Node19 -->
<g id="edge24" class="edge"><title>Node1&#45;&gt;Node19</title>
<path fill="none" stroke="midnightblue" d="M52.4184,-285.623C65.2643,-291.357 82.3217,-298.391 98,-303 183.265,-328.066 287.951,-342.973 335.841,-348.951"/>
<polygon fill="midnightblue" stroke="midnightblue" points="335.612,-352.449 345.963,-350.186 336.46,-345.501 335.612,-352.449"/>
</g>
<!-- Node20 -->
<g id="node20" class="node"><title>Node20</title>
<g id="a_node20"><a xlink:href="SAT__Force_8cpp.html#a787c7d05ba9e7f29d236caf719ff7900" target="_top" xlink:title="Moon">
<polygon fill="white" stroke="black" points="342.5,-304.5 342.5,-323.5 383.5,-323.5 383.5,-304.5 342.5,-304.5"/>
<text text-anchor="middle" x="363" y="-311.5" font-family="Helvetica,sans-Serif" font-size="10.00">Moon</text>
</a>
</g>
</g>
<!-- Node1&#45;&gt;Node20 -->
<g id="edge27" class="edge"><title>Node1&#45;&gt;Node20</title>
<path fill="none" stroke="midnightblue" d="M62.1601,-279.473C125.031,-286.713 269.448,-303.342 332.096,-310.557"/>
<polygon fill="midnightblue" stroke="midnightblue" points="331.782,-314.043 342.116,-311.71 332.583,-307.089 331.782,-314.043"/>
</g>
<!-- Node21 -->
<g id="node21" class="node"><title>Node21</title>
<g id="a_node21"><a xlink:href="SAT__Force_8cpp.html#a4db2f0789d2dccce991342a00f1ad75d" target="_top" xlink:title="AccelPointMass">
<polygon fill="white" stroke="black" points="98,-76.5 98,-95.5 186,-95.5 186,-76.5 98,-76.5"/>
<text text-anchor="middle" x="142" y="-83.5" font-family="Helvetica,sans-Serif" font-size="10.00">AccelPointMass</text>
</a>
</g>
</g>
<!-- Node1&#45;&gt;Node21 -->
<g id="edge31" class="edge"><title>Node1&#45;&gt;Node21</title>
<path fill="none" stroke="midnightblue" d="M33.1605,-266.106C37.0161,-237.45 51.8874,-153.367 98,-105 99.239,-103.7 100.583,-102.484 102.004,-101.346"/>
<polygon fill="midnightblue" stroke="midnightblue" points="104.308,-104.024 110.801,-95.6515 100.504,-98.1471 104.308,-104.024"/>
</g>
<!-- Node23 -->
<g id="node23" class="node"><title>Node23</title>
<g id="a_node23"><a xlink:href="SAT__Force_8cpp.html#ab05039f4d20345bbf7b463449ecaef11" target="_top" xlink:title="Illumination">
<polygon fill="white" stroke="black" points="224,-0.5 224,-19.5 290,-19.5 290,-0.5 224,-0.5"/>
<text text-anchor="middle" x="257" y="-7.5" font-family="Helvetica,sans-Serif" font-size="10.00">Illumination</text>
</a>
</g>
</g>
<!-- Node1&#45;&gt;Node23 -->
<g id="edge34" class="edge"><title>Node1&#45;&gt;Node23</title>
<path fill="none" stroke="midnightblue" d="M32.1757,-266.175C33.2958,-233.315 41.3307,-126.003 98,-67 128.611,-35.1283 178.346,-21.0164 213.838,-14.8065"/>
<polygon fill="midnightblue" stroke="midnightblue" points="214.582,-18.2319 223.9,-13.189 213.471,-11.3206 214.582,-18.2319"/>
</g>
<!-- Node24 -->
<g id="node24" class="node"><title>Node24</title>
<g id="a_node24"><a xlink:href="SAT__Force_8cpp.html#a871f302ecd9687d7bee13583c15b0f31" target="_top" xlink:title="AccelSolrad">
<polygon fill="white" stroke="black" points="107.5,-114.5 107.5,-133.5 176.5,-133.5 176.5,-114.5 107.5,-114.5"/>
<text text-anchor="middle" x="142" y="-121.5" font-family="Helvetica,sans-Serif" font-size="10.00">AccelSolrad</text>
</a>
</g>
</g>
<!-- Node1&#45;&gt;Node24 -->
<g id="edge37" class="edge"><title>Node1&#45;&gt;Node24</title>
<path fill="none" stroke="midnightblue" d="M34.3592,-266.265C40.6508,-242.222 59.9974,-179.345 98,-143 99.4598,-141.604 101.039,-140.3 102.702,-139.084"/>
<polygon fill="midnightblue" stroke="midnightblue" points="104.81,-141.898 111.534,-133.71 101.171,-135.918 104.81,-141.898"/>
</g>
<!-- Node25 -->
<g id="node25" class="node"><title>Node25</title>
<g id="a_node25"><a xlink:href="SAT__Force_8cpp.html#ae20f51bcb69607d4a2268329837260f2" target="_top" xlink:title="AccelDrag">
<polygon fill="white" stroke="black" points="111,-228.5 111,-247.5 173,-247.5 173,-228.5 111,-228.5"/>
<text text-anchor="middle" x="142" y="-235.5" font-family="Helvetica,sans-Serif" font-size="10.00">AccelDrag</text>
</a>
</g>
</g>
<!-- Node1&#45;&gt;Node25 -->
<g id="edge39" class="edge"><title>Node1&#45;&gt;Node25</title>
<path fill="none" stroke="midnightblue" d="M59.5053,-266.411C72.9307,-261.731 89.28,-256.031 103.801,-250.968"/>
<polygon fill="midnightblue" stroke="midnightblue" points="105.213,-254.183 113.503,-247.586 102.909,-247.573 105.213,-254.183"/>
</g>
<!-- Node3 -->
<g id="node3" class="node"><title>Node3</title>
<g id="a_node3"><a xlink:href="SAT__RefSys_8cpp.html#a11f057ac4e8a0c5a7958f77379e30d40" target="_top" xlink:title="MeanObliquity">
<polygon fill="white" stroke="black" points="434.5,-475.5 434.5,-494.5 513.5,-494.5 513.5,-475.5 434.5,-475.5"/>
<text text-anchor="middle" x="474" y="-482.5" font-family="Helvetica,sans-Serif" font-size="10.00">MeanObliquity</text>
</a>
</g>
</g>
<!-- Node2&#45;&gt;Node3 -->
<g id="edge2" class="edge"><title>Node2&#45;&gt;Node3</title>
<path fill="none" stroke="midnightblue" d="M166.129,-437.592C200.647,-451.336 268.014,-475.968 328,-485 359.814,-489.79 396.002,-489.797 424.268,-488.604"/>
<polygon fill="midnightblue" stroke="midnightblue" points="424.482,-492.097 434.3,-488.116 424.142,-485.106 424.482,-492.097"/>
</g>
<!-- Node4 -->
<g id="node4" class="node"><title>Node4</title>
<g id="a_node4"><a xlink:href="SAT__RefSys_8cpp.html#a2a9df90e79156b20bf667ae56342d756" target="_top" xlink:title="NutAngles">
<polygon fill="white" stroke="black" points="443,-427.5 443,-446.5 505,-446.5 505,-427.5 443,-427.5"/>
<text text-anchor="middle" x="474" y="-434.5" font-family="Helvetica,sans-Serif" font-size="10.00">NutAngles</text>
</a>
</g>
</g>
<!-- Node2&#45;&gt;Node4 -->
<g id="edge3" class="edge"><title>Node2&#45;&gt;Node4</title>
<path fill="none" stroke="midnightblue" d="M171.708,-428.783C230.503,-430.386 364.761,-434.048 432.428,-435.893"/>
<polygon fill="midnightblue" stroke="midnightblue" points="432.602,-439.399 442.694,-436.173 432.793,-432.402 432.602,-439.399"/>
</g>
<!-- Node8 -->
<g id="node8" class="node"><title>Node8</title>
<g id="a_node8"><a xlink:href="SAT__VecMat_8cpp.html#ae452267b1d1da6280386846d97ec4e4f" target="_top" xlink:title="R_x">
<polygon fill="white" stroke="black" points="456.5,-389.5 456.5,-408.5 491.5,-408.5 491.5,-389.5 456.5,-389.5"/>
<text text-anchor="middle" x="474" y="-396.5" font-family="Helvetica,sans-Serif" font-size="10.00">R_x</text>
</a>
</g>
</g>
<!-- Node2&#45;&gt;Node8 -->
<g id="edge7" class="edge"><title>Node2&#45;&gt;Node8</title>
<path fill="none" stroke="midnightblue" d="M171.708,-425.477C234.874,-419.926 385.139,-406.721 446.356,-401.341"/>
<polygon fill="midnightblue" stroke="midnightblue" points="446.726,-404.822 456.382,-400.46 446.114,-397.849 446.726,-404.822"/>
</g>
<!-- Node9 -->
<g id="node9" class="node"><title>Node9</title>
<g id="a_node9"><a xlink:href="SAT__VecMat_8cpp.html#a94c9c4e1f3afc6636dda6572f72ef4c2" target="_top" xlink:title="R_z">
<polygon fill="white" stroke="black" points="239.5,-494.5 239.5,-513.5 274.5,-513.5 274.5,-494.5 239.5,-494.5"/>
<text text-anchor="middle" x="257" y="-501.5" font-family="Helvetica,sans-Serif" font-size="10.00">R_z</text>
</a>
</g>
</g>
<!-- Node2&#45;&gt;Node9 -->
<g id="edge8" class="edge"><title>Node2&#45;&gt;Node9</title>
<path fill="none" stroke="midnightblue" d="M157.312,-437.625C176.5,-450.531 210.773,-473.582 233.45,-488.833"/>
<polygon fill="midnightblue" stroke="midnightblue" points="231.554,-491.776 241.805,-494.453 235.46,-485.968 231.554,-491.776"/>
</g>
<!-- Node5 -->
<g id="node5" class="node"><title>Node5</title>
<g id="a_node5"><a xlink:href="namespaceanonymous__namespace_02SAT__Kepler_8cpp_03.html#a898091d856dff0d563448625b7634f16" target="_top" xlink:title="anonymous_namespace\l\{SAT_Kepler::cpp\}::F">
<polygon fill="white" stroke="black" points="556,-363 556,-393 678,-393 678,-363 556,-363"/>
<text text-anchor="start" x="564" y="-381" font-family="Helvetica,sans-Serif" font-size="10.00">anonymous_namespace</text>
<text text-anchor="middle" x="617" y="-370" font-family="Helvetica,sans-Serif" font-size="10.00">{SAT_Kepler::cpp}::F</text>
</a>
</g>
</g>
<!-- Node4&#45;&gt;Node5 -->
<g id="edge4" class="edge"><title>Node4&#45;&gt;Node5</title>
<path fill="none" stroke="midnightblue" d="M497.968,-427.389C517.602,-419.174 546.442,-407.106 570.699,-396.956"/>
<polygon fill="midnightblue" stroke="midnightblue" points="572.21,-400.117 580.084,-393.029 569.508,-393.66 572.21,-400.117"/>
</g>
<!-- Node6 -->
<g id="node6" class="node"><title>Node6</title>
<g id="a_node6"><a xlink:href="namespaceanonymous__namespace_02SAT__Kepler_8cpp_03.html#ae5d42531d691a174363f296c22d23217" target="_top" xlink:title="anonymous_namespace\l\{SAT_Kepler::cpp\}::Modulo">
<polygon fill="white" stroke="black" points="550,-422 550,-452 684,-452 684,-422 550,-422"/>
<text text-anchor="start" x="558" y="-440" font-family="Helvetica,sans-Serif" font-size="10.00">anonymous_namespace</text>
<text text-anchor="middle" x="617" y="-429" font-family="Helvetica,sans-Serif" font-size="10.00">{SAT_Kepler::cpp}::Modulo</text>
</a>
</g>
</g>
<!-- Node4&#45;&gt;Node6 -->
<g id="edge5" class="edge"><title>Node4&#45;&gt;Node6</title>
<path fill="none" stroke="midnightblue" d="M505.248,-437C515.489,-437 527.435,-437 539.616,-437"/>
<polygon fill="midnightblue" stroke="midnightblue" points="539.872,-440.5 549.872,-437 539.872,-433.5 539.872,-440.5"/>
</g>
<!-- Node7 -->
<g id="node7" class="node"><title>Node7</title>
<g id="a_node7"><a xlink:href="namespaceanonymous__namespace_02SAT__Force_8cpp_03.html#aa6826b33621fa6ff5736c6432c487c1a" target="_top" xlink:title="anonymous_namespace\l\{SAT_Force::cpp\}::Frac">
<polygon fill="white" stroke="black" points="720,-365 720,-395 842,-395 842,-365 720,-365"/>
<text text-anchor="start" x="728" y="-383" font-family="Helvetica,sans-Serif" font-size="10.00">anonymous_namespace</text>
<text text-anchor="middle" x="781" y="-372" font-family="Helvetica,sans-Serif" font-size="10.00">{SAT_Force::cpp}::Frac</text>
</a>
</g>
</g>
<!-- Node6&#45;&gt;Node7 -->
<g id="edge6" class="edge"><title>Node6&#45;&gt;Node7</title>
<path fill="none" stroke="midnightblue" d="M660.988,-421.875C681.391,-414.696 705.955,-406.053 727.456,-398.488"/>
<polygon fill="midnightblue" stroke="midnightblue" points="728.821,-401.718 737.093,-395.097 726.498,-395.115 728.821,-401.718"/>
</g>
<!-- Node10&#45;&gt;Node9 -->
<g id="edge10" class="edge"><title>Node10&#45;&gt;Node9</title>
<path fill="none" stroke="midnightblue" d="M174.177,-517.758C191.432,-514.857 212.661,-511.287 229.171,-508.511"/>
<polygon fill="midnightblue" stroke="midnightblue" points="229.968,-511.926 239.249,-506.816 228.808,-505.023 229.968,-511.926"/>
</g>
<!-- Node11 -->
<g id="node11" class="node"><title>Node11</title>
<g id="a_node11"><a xlink:href="SAT__VecMat_8cpp.html#a66b3b116958d5c2f1c528faa04c71674" target="_top" xlink:title="R_y">
<polygon fill="white" stroke="black" points="239.5,-570.5 239.5,-589.5 274.5,-589.5 274.5,-570.5 239.5,-570.5"/>
<text text-anchor="middle" x="257" y="-577.5" font-family="Helvetica,sans-Serif" font-size="10.00">R_y</text>
</a>
</g>
</g>
<!-- Node10&#45;&gt;Node11 -->
<g id="edge11" class="edge"><title>Node10&#45;&gt;Node11</title>
<path fill="none" stroke="midnightblue" d="M161.914,-532.541C180.656,-541.995 209.498,-556.543 230.308,-567.04"/>
<polygon fill="midnightblue" stroke="midnightblue" points="228.734,-570.167 239.239,-571.545 231.887,-563.917 228.734,-570.167"/>
</g>
<!-- Node12&#45;&gt;Node9 -->
<g id="edge13" class="edge"><title>Node12&#45;&gt;Node9</title>
<path fill="none" stroke="midnightblue" d="M174.778,-490.343C192.02,-493.242 213.089,-496.785 229.448,-499.535"/>
<polygon fill="midnightblue" stroke="midnightblue" points="228.988,-503.007 239.43,-501.214 230.149,-496.104 228.988,-503.007"/>
</g>
<!-- Node13 -->
<g id="node13" class="node"><title>Node13</title>
<g id="a_node13"><a xlink:href="SAT__RefSys_8cpp.html#a120de1171391bce3ca4111e46331a93c" target="_top" xlink:title="GAST">
<polygon fill="white" stroke="black" points="235,-532.5 235,-551.5 279,-551.5 279,-532.5 235,-532.5"/>
<text text-anchor="middle" x="257" y="-539.5" font-family="Helvetica,sans-Serif" font-size="10.00">GAST</text>
</a>
</g>
</g>
<!-- Node12&#45;&gt;Node13 -->
<g id="edge14" class="edge"><title>Node12&#45;&gt;Node13</title>
<path fill="none" stroke="midnightblue" d="M165.477,-494.52C172.136,-497.451 179.407,-500.761 186,-504 194.403,-508.129 213.504,-518.523 229.634,-527.399"/>
<polygon fill="midnightblue" stroke="midnightblue" points="228.237,-530.625 238.683,-532.39 231.617,-524.496 228.237,-530.625"/>
</g>
<!-- Node13&#45;&gt;Node6 -->
<g id="edge15" class="edge"><title>Node13&#45;&gt;Node6</title>
<path fill="none" stroke="midnightblue" d="M279.005,-541.907C323.736,-541.066 431.083,-535.615 514,-504 542.235,-493.234 570.669,-473.668 590.316,-458.449"/>
<polygon fill="midnightblue" stroke="midnightblue" points="592.503,-461.182 598.172,-452.231 588.159,-455.693 592.503,-461.182"/>
</g>
<!-- Node14 -->
<g id="node14" class="node"><title>Node14</title>
<g id="a_node14"><a xlink:href="SAT__RefSys_8cpp.html#a2a4cc14aa92a1449e08540255af19f8e" target="_top" xlink:title="GMST">
<polygon fill="white" stroke="black" points="594.5,-520.5 594.5,-539.5 639.5,-539.5 639.5,-520.5 594.5,-520.5"/>
<text text-anchor="middle" x="617" y="-527.5" font-family="Helvetica,sans-Serif" font-size="10.00">GMST</text>
</a>
</g>
</g>
<!-- Node13&#45;&gt;Node14 -->
<g id="edge16" class="edge"><title>Node13&#45;&gt;Node14</title>
<path fill="none" stroke="midnightblue" d="M279.281,-547.393C293.069,-550.604 311.474,-554.364 328,-556 410.264,-564.146 431.976,-566.29 514,-556 538.088,-552.978 564.643,-546.091 584.618,-540.164"/>
<polygon fill="midnightblue" stroke="midnightblue" points="585.871,-543.442 594.416,-537.178 583.83,-536.746 585.871,-543.442"/>
</g>
<!-- Node15 -->
<g id="node15" class="node"><title>Node15</title>
<g id="a_node15"><a xlink:href="SAT__RefSys_8cpp.html#a1178917cf376ea4f15cea33c59028635" target="_top" xlink:title="EqnEquinox">
<polygon fill="white" stroke="black" points="328.5,-456.5 328.5,-475.5 397.5,-475.5 397.5,-456.5 328.5,-456.5"/>
<text text-anchor="middle" x="363" y="-463.5" font-family="Helvetica,sans-Serif" font-size="10.00">EqnEquinox</text>
</a>
</g>
</g>
<!-- Node13&#45;&gt;Node15 -->
<g id="edge18" class="edge"><title>Node13&#45;&gt;Node15</title>
<path fill="none" stroke="midnightblue" d="M276.702,-532.314C281.773,-529.483 287.189,-526.267 292,-523 310.253,-510.606 329.6,-494.606 343.317,-482.714"/>
<polygon fill="midnightblue" stroke="midnightblue" points="345.864,-485.136 351.071,-475.909 341.246,-479.875 345.864,-485.136"/>
</g>
<!-- Node14&#45;&gt;Node7 -->
<g id="edge17" class="edge"><title>Node14&#45;&gt;Node7</title>
<path fill="none" stroke="midnightblue" d="M628.629,-520.158C654.283,-496.405 720.108,-435.456 755.92,-402.296"/>
<polygon fill="midnightblue" stroke="midnightblue" points="758.54,-404.64 763.5,-395.278 753.784,-399.504 758.54,-404.64"/>
</g>
<!-- Node15&#45;&gt;Node4 -->
<g id="edge19" class="edge"><title>Node15&#45;&gt;Node4</title>
<path fill="none" stroke="midnightblue" d="M397.593,-457.062C408.72,-454.102 421.218,-450.777 432.791,-447.698"/>
<polygon fill="midnightblue" stroke="midnightblue" points="433.902,-451.024 442.666,-445.071 432.102,-444.259 433.902,-451.024"/>
</g>
<!-- Node15&#45;&gt;Node3 -->
<g id="edge20" class="edge"><title>Node15&#45;&gt;Node3</title>
<path fill="none" stroke="midnightblue" d="M397.593,-471.856C406.046,-473.329 415.291,-474.941 424.32,-476.514"/>
<polygon fill="midnightblue" stroke="midnightblue" points="423.916,-479.997 434.368,-478.266 425.118,-473.101 423.916,-479.997"/>
</g>
<!-- Node17 -->
<g id="node17" class="node"><title>Node17</title>
<g id="a_node17"><a xlink:href="SAT__VecMat_8cpp.html#a71375a6ebee7fc40c1d45985175d82e5" target="_top" xlink:title="Dot">
<polygon fill="white" stroke="black" points="458,-66.5 458,-85.5 490,-85.5 490,-66.5 458,-66.5"/>
<text text-anchor="middle" x="474" y="-73.5" font-family="Helvetica,sans-Serif" font-size="10.00">Dot</text>
</a>
</g>
</g>
<!-- Node16&#45;&gt;Node17 -->
<g id="edge22" class="edge"><title>Node16&#45;&gt;Node17</title>
<path fill="none" stroke="midnightblue" d="M165.296,-152.37C210.771,-132.797 311.347,-89.8874 328,-86 369.182,-76.387 418.586,-75.0746 447.798,-75.3147"/>
<polygon fill="midnightblue" stroke="midnightblue" points="447.894,-78.8164 457.946,-75.4686 448,-71.8172 447.894,-78.8164"/>
</g>
<!-- Node18 -->
<g id="node18" class="node"><title>Node18</title>
<g id="a_node18"><a xlink:href="SAT__VecMat_8cpp.html#aa54829a0c63c78e6bfbd12285ad94075" target="_top" xlink:title="Transp">
<polygon fill="white" stroke="black" points="233.5,-152.5 233.5,-171.5 280.5,-171.5 280.5,-152.5 233.5,-152.5"/>
<text text-anchor="middle" x="257" y="-159.5" font-family="Helvetica,sans-Serif" font-size="10.00">Transp</text>
</a>
</g>
</g>
<!-- Node16&#45;&gt;Node18 -->
<g id="edge23" class="edge"><title>Node16&#45;&gt;Node18</title>
<path fill="none" stroke="midnightblue" d="M183.796,-162C196.704,-162 210.8,-162 223.084,-162"/>
<polygon fill="midnightblue" stroke="midnightblue" points="223.337,-165.5 233.337,-162 223.337,-158.5 223.337,-165.5"/>
</g>
<!-- Node19&#45;&gt;Node7 -->
<g id="edge25" class="edge"><title>Node19&#45;&gt;Node7</title>
<path fill="none" stroke="midnightblue" d="M380.091,-350.523C427.143,-346.533 568.452,-336.876 684,-353 697.936,-354.945 712.699,-358.376 726.36,-362.154"/>
<polygon fill="midnightblue" stroke="midnightblue" points="725.507,-365.55 736.084,-364.95 727.441,-358.823 725.507,-365.55"/>
</g>
<!-- Node19&#45;&gt;Node8 -->
<g id="edge26" class="edge"><title>Node19&#45;&gt;Node8</title>
<path fill="none" stroke="midnightblue" d="M380.083,-358.935C397.772,-366.562 426.445,-378.926 447.267,-387.904"/>
<polygon fill="midnightblue" stroke="midnightblue" points="445.925,-391.137 456.493,-391.882 448.696,-384.709 445.925,-391.137"/>
</g>
<!-- Node20&#45;&gt;Node5 -->
<g id="edge28" class="edge"><title>Node20&#45;&gt;Node5</title>
<path fill="none" stroke="midnightblue" d="M383.774,-319.022C418.527,-327.848 492.091,-346.531 547.165,-360.518"/>
<polygon fill="midnightblue" stroke="midnightblue" points="546.319,-363.914 556.872,-362.983 548.042,-357.13 546.319,-363.914"/>
</g>
<!-- Node20&#45;&gt;Node7 -->
<g id="edge29" class="edge"><title>Node20&#45;&gt;Node7</title>
<path fill="none" stroke="midnightblue" d="M383.806,-313.619C434.513,-313.082 572.849,-314.384 684,-341 703.012,-345.553 723.182,-353.268 740.101,-360.64"/>
<polygon fill="midnightblue" stroke="midnightblue" points="739.096,-364.025 749.654,-364.915 741.955,-357.636 739.096,-364.025"/>
</g>
<!-- Node20&#45;&gt;Node8 -->
<g id="edge30" class="edge"><title>Node20&#45;&gt;Node8</title>
<path fill="none" stroke="midnightblue" d="M383.823,-323.534C388.679,-326.277 393.709,-329.488 398,-333 417.026,-348.571 415.306,-359.032 434,-375 438.126,-378.524 442.824,-381.875 447.495,-384.895"/>
<polygon fill="midnightblue" stroke="midnightblue" points="445.928,-388.038 456.289,-390.251 449.57,-382.06 445.928,-388.038"/>
</g>
<!-- Node22 -->
<g id="node22" class="node"><title>Node22</title>
<g id="a_node22"><a xlink:href="SAT__VecMat_8cpp.html#a313ce8c9730e0bd08a1396f364f0486c" target="_top" xlink:title="Norm">
<polygon fill="white" stroke="black" points="342.5,-95.5 342.5,-114.5 383.5,-114.5 383.5,-95.5 342.5,-95.5"/>
<text text-anchor="middle" x="363" y="-102.5" font-family="Helvetica,sans-Serif" font-size="10.00">Norm</text>
</a>
</g>
</g>
<!-- Node21&#45;&gt;Node22 -->
<g id="edge32" class="edge"><title>Node21&#45;&gt;Node22</title>
<path fill="none" stroke="midnightblue" d="M186.006,-89.7311C229.089,-93.4689 294.274,-99.1242 332.042,-102.401"/>
<polygon fill="midnightblue" stroke="midnightblue" points="332.112,-105.92 342.377,-103.298 332.717,-98.9462 332.112,-105.92"/>
</g>
<!-- Node22&#45;&gt;Node17 -->
<g id="edge33" class="edge"><title>Node22&#45;&gt;Node17</title>
<path fill="none" stroke="midnightblue" d="M383.739,-99.7483C401.836,-94.9335 428.709,-87.7837 448.239,-82.5877"/>
<polygon fill="midnightblue" stroke="midnightblue" points="449.2,-85.954 457.964,-80.0005 447.4,-79.1893 449.2,-85.954"/>
</g>
<!-- Node23&#45;&gt;Node22 -->
<g id="edge35" class="edge"><title>Node23&#45;&gt;Node22</title>
<path fill="none" stroke="midnightblue" d="M268.738,-19.8089C286.501,-36.035 322.193,-68.6383 343.905,-88.471"/>
<polygon fill="midnightblue" stroke="midnightblue" points="341.731,-91.2258 351.475,-95.386 346.452,-86.0574 341.731,-91.2258"/>
</g>
<!-- Node23&#45;&gt;Node17 -->
<g id="edge36" class="edge"><title>Node23&#45;&gt;Node17</title>
<path fill="none" stroke="midnightblue" d="M290.197,-12.3881C319.09,-15.2587 362.315,-21.3717 398,-34 416.696,-40.6162 436.192,-51.6811 450.619,-60.7932"/>
<polygon fill="midnightblue" stroke="midnightblue" points="449.015,-63.9246 459.309,-66.4327 452.826,-58.0528 449.015,-63.9246"/>
</g>
<!-- Node24&#45;&gt;Node22 -->
<g id="edge38" class="edge"><title>Node24&#45;&gt;Node22</title>
<path fill="none" stroke="midnightblue" d="M176.739,-121.073C219.253,-117.384 291.653,-111.103 332.211,-107.584"/>
<polygon fill="midnightblue" stroke="midnightblue" points="332.617,-111.062 342.277,-106.711 332.012,-104.089 332.617,-111.062"/>
</g>
<!-- Node25&#45;&gt;Node18 -->
<g id="edge40" class="edge"><title>Node25&#45;&gt;Node18</title>
<path fill="none" stroke="midnightblue" d="M157.312,-228.375C176.5,-215.469 210.773,-192.418 233.45,-177.167"/>
<polygon fill="midnightblue" stroke="midnightblue" points="235.46,-180.032 241.805,-171.547 231.554,-174.224 235.46,-180.032"/>
</g>
<!-- Node26 -->
<g id="node26" class="node"><title>Node26</title>
<g id="a_node26"><a xlink:href="SAT__VecMat_8cpp.html#ab712f21cc19675f37e17e08bb51a82b4" target="_top" xlink:title="Cross">
<polygon fill="white" stroke="black" points="235.5,-228.5 235.5,-247.5 278.5,-247.5 278.5,-228.5 235.5,-228.5"/>
<text text-anchor="middle" x="257" y="-235.5" font-family="Helvetica,sans-Serif" font-size="10.00">Cross</text>
</a>
</g>
</g>
<!-- Node25&#45;&gt;Node26 -->
<g id="edge41" class="edge"><title>Node25&#45;&gt;Node26</title>
<path fill="none" stroke="midnightblue" d="M173.282,-238C189.37,-238 209.103,-238 225.26,-238"/>
<polygon fill="midnightblue" stroke="midnightblue" points="225.286,-241.5 235.286,-238 225.286,-234.5 225.286,-241.5"/>
</g>
<!-- Node25&#45;&gt;Node22 -->
<g id="edge42" class="edge"><title>Node25&#45;&gt;Node22</title>
<path fill="none" stroke="midnightblue" d="M173.203,-230.853C204.755,-222.419 254.751,-206.261 292,-181 315.299,-165.199 336.339,-140.209 349.133,-123.235"/>
<polygon fill="midnightblue" stroke="midnightblue" points="352.271,-124.875 355.355,-114.739 346.623,-120.739 352.271,-124.875"/>
</g>
<!-- Node27 -->
<g id="node27" class="node"><title>Node27</title>
<g id="a_node27"><a xlink:href="SAT__Force_8cpp.html#a6ad9e17c2e7636b8cd8045d461940681" target="_top" xlink:title="Density_HP">
<polygon fill="white" stroke="black" points="222,-266.5 222,-285.5 292,-285.5 292,-266.5 222,-266.5"/>
<text text-anchor="middle" x="257" y="-273.5" font-family="Helvetica,sans-Serif" font-size="10.00">Density_HP</text>
</a>
</g>
</g>
<!-- Node25&#45;&gt;Node27 -->
<g id="edge43" class="edge"><title>Node25&#45;&gt;Node27</title>
<path fill="none" stroke="midnightblue" d="M171.515,-247.589C185.567,-252.314 202.708,-258.079 217.87,-263.177"/>
<polygon fill="midnightblue" stroke="midnightblue" points="216.9,-266.544 227.494,-266.414 219.132,-259.909 216.9,-266.544"/>
</g>
<!-- Node27&#45;&gt;Node19 -->
<g id="edge44" class="edge"><title>Node27&#45;&gt;Node19</title>
<path fill="none" stroke="midnightblue" d="M268.929,-285.909C282.322,-297.809 305.958,-318.034 328,-333 330.797,-334.899 333.799,-336.781 336.818,-338.581"/>
<polygon fill="midnightblue" stroke="midnightblue" points="335.321,-341.756 345.743,-343.664 338.786,-335.674 335.321,-341.756"/>
</g>
<!-- Node27&#45;&gt;Node17 -->
<g id="edge45" class="edge"><title>Node27&#45;&gt;Node17</title>
<path fill="none" stroke="midnightblue" d="M277.285,-266.434C282.252,-263.65 287.47,-260.426 292,-257 360.946,-204.859 429.616,-127.456 458.624,-93.2839"/>
<polygon fill="midnightblue" stroke="midnightblue" points="461.357,-95.4727 465.121,-85.5691 456.002,-90.9638 461.357,-95.4727"/>
</g>
<!-- Node27&#45;&gt;Node22 -->
<g id="edge46" class="edge"><title>Node27&#45;&gt;Node22</title>
<path fill="none" stroke="midnightblue" d="M279.968,-266.415C284.328,-263.811 288.602,-260.674 292,-257 328.368,-217.678 348.658,-156.161 357.167,-124.81"/>
<polygon fill="midnightblue" stroke="midnightblue" points="360.66,-125.28 359.776,-114.722 353.883,-123.527 360.66,-125.28"/>
</g>
</g>
</svg>
