<?xml version="1.0" encoding="UTF-8" standalone="no"?>
<!DOCTYPE svg PUBLIC "-//W3C//DTD SVG 1.1//EN"
 "http://www.w3.org/Graphics/SVG/1.1/DTD/svg11.dtd">
<!-- Generated by graphviz version 2.30.1 (20180420.1509)
 -->
<!-- Title: GAST Pages: 1 -->
<svg width="602pt" height="145pt"
 viewBox="0.00 0.00 602.00 145.00" xmlns="http://www.w3.org/2000/svg" xmlns:xlink="http://www.w3.org/1999/xlink">
<g id="graph0" class="graph" transform="scale(1 1) rotate(0) translate(4 141)">
<title>GAST</title>
<polygon fill="white" stroke="white" points="-4,5 -4,-141 599,-141 599,5 -4,5"/>
<!-- Node1 -->
<g id="node1" class="node"><title>Node1</title>
<polygon fill="#bfbfbf" stroke="black" points="0,-76.5 0,-95.5 44,-95.5 44,-76.5 0,-76.5"/>
<text text-anchor="middle" x="22" y="-83.5" font-family="Helvetica,sans-Serif" font-size="10.00">GAST</text>
</g>
<!-- Node2 -->
<g id="node2" class="node"><title>Node2</title>
<g id="a_node2"><a xlink:href="namespaceanonymous__namespace_02SAT__Kepler_8cpp_03.html#ae5d42531d691a174363f296c22d23217" target="_top" xlink:title="anonymous_namespace\l\{SAT_Kepler::cpp\}::Modulo">
<polygon fill="white" stroke="black" points="302,-70 302,-100 436,-100 436,-70 302,-70"/>
<text text-anchor="start" x="310" y="-88" font-family="Helvetica,sans-Serif" font-size="10.00">anonymous_namespace</text>
<text text-anchor="middle" x="369" y="-77" font-family="Helvetica,sans-Serif" font-size="10.00">{SAT_Kepler::cpp}::Modulo</text>
</a>
</g>
</g>
<!-- Node1&#45;&gt;Node2 -->
<g id="edge1" class="edge"><title>Node1&#45;&gt;Node2</title>
<path fill="none" stroke="midnightblue" d="M44.062,-85.939C92.086,-85.7998 211.687,-85.4531 291.343,-85.2222"/>
<polygon fill="midnightblue" stroke="midnightblue" points="291.83,-88.7209 301.82,-85.1918 291.81,-81.7209 291.83,-88.7209"/>
</g>
<!-- Node4 -->
<g id="node4" class="node"><title>Node4</title>
<g id="a_node4"><a xlink:href="SAT__RefSys_8cpp.html#a2a4cc14aa92a1449e08540255af19f8e" target="_top" xlink:title="GMST">
<polygon fill="white" stroke="black" points="92.5,-117.5 92.5,-136.5 137.5,-136.5 137.5,-117.5 92.5,-117.5"/>
<text text-anchor="middle" x="115" y="-124.5" font-family="Helvetica,sans-Serif" font-size="10.00">GMST</text>
</a>
</g>
</g>
<!-- Node1&#45;&gt;Node4 -->
<g id="edge3" class="edge"><title>Node1&#45;&gt;Node4</title>
<path fill="none" stroke="midnightblue" d="M44.106,-95.5093C55.7374,-100.75 70.3883,-107.351 83.2684,-113.154"/>
<polygon fill="midnightblue" stroke="midnightblue" points="82.1382,-116.483 92.6933,-117.4 85.0137,-110.101 82.1382,-116.483"/>
</g>
<!-- Node5 -->
<g id="node5" class="node"><title>Node5</title>
<g id="a_node5"><a xlink:href="SAT__RefSys_8cpp.html#a1178917cf376ea4f15cea33c59028635" target="_top" xlink:title="EqnEquinox">
<polygon fill="white" stroke="black" points="80.5,-38.5 80.5,-57.5 149.5,-57.5 149.5,-38.5 80.5,-38.5"/>
<text text-anchor="middle" x="115" y="-45.5" font-family="Helvetica,sans-Serif" font-size="10.00">EqnEquinox</text>
</a>
</g>
</g>
<!-- Node1&#45;&gt;Node5 -->
<g id="edge5" class="edge"><title>Node1&#45;&gt;Node5</title>
<path fill="none" stroke="midnightblue" d="M44.106,-77.1865C55.209,-72.5501 69.0636,-66.7646 81.5027,-61.5703"/>
<polygon fill="midnightblue" stroke="midnightblue" points="83.2165,-64.6476 91.0956,-57.5645 80.5191,-58.1882 83.2165,-64.6476"/>
</g>
<!-- Node3 -->
<g id="node3" class="node"><title>Node3</title>
<g id="a_node3"><a xlink:href="namespaceanonymous__namespace_02SAT__Force_8cpp_03.html#aa6826b33621fa6ff5736c6432c487c1a" target="_top" xlink:title="anonymous_namespace\l\{SAT_Force::cpp\}::Frac">
<polygon fill="white" stroke="black" points="472,-92 472,-122 594,-122 594,-92 472,-92"/>
<text text-anchor="start" x="480" y="-110" font-family="Helvetica,sans-Serif" font-size="10.00">anonymous_namespace</text>
<text text-anchor="middle" x="533" y="-99" font-family="Helvetica,sans-Serif" font-size="10.00">{SAT_Force::cpp}::Frac</text>
</a>
</g>
</g>
<!-- Node2&#45;&gt;Node3 -->
<g id="edge2" class="edge"><title>Node2&#45;&gt;Node3</title>
<path fill="none" stroke="midnightblue" d="M436.359,-94.0117C444.838,-95.1631 453.538,-96.3446 462.07,-97.5034"/>
<polygon fill="midnightblue" stroke="midnightblue" points="461.607,-100.973 471.987,-98.8501 462.549,-94.0362 461.607,-100.973"/>
</g>
<!-- Node4&#45;&gt;Node3 -->
<g id="edge4" class="edge"><title>Node4&#45;&gt;Node3</title>
<path fill="none" stroke="midnightblue" d="M137.78,-125.953C197.381,-123.087 365.116,-115.023 461.499,-110.389"/>
<polygon fill="midnightblue" stroke="midnightblue" points="461.922,-113.873 471.742,-109.897 461.585,-106.881 461.922,-113.873"/>
</g>
<!-- Node6 -->
<g id="node6" class="node"><title>Node6</title>
<g id="a_node6"><a xlink:href="SAT__RefSys_8cpp.html#a2a9df90e79156b20bf667ae56342d756" target="_top" xlink:title="NutAngles">
<polygon fill="white" stroke="black" points="195,-38.5 195,-57.5 257,-57.5 257,-38.5 195,-38.5"/>
<text text-anchor="middle" x="226" y="-45.5" font-family="Helvetica,sans-Serif" font-size="10.00">NutAngles</text>
</a>
</g>
</g>
<!-- Node5&#45;&gt;Node6 -->
<g id="edge6" class="edge"><title>Node5&#45;&gt;Node6</title>
<path fill="none" stroke="midnightblue" d="M149.593,-48C160.608,-48 172.966,-48 184.44,-48"/>
<polygon fill="midnightblue" stroke="midnightblue" points="184.666,-51.5001 194.666,-48 184.666,-44.5001 184.666,-51.5001"/>
</g>
<!-- Node8 -->
<g id="node8" class="node"><title>Node8</title>
<g id="a_node8"><a xlink:href="SAT__RefSys_8cpp.html#a11f057ac4e8a0c5a7958f77379e30d40" target="_top" xlink:title="MeanObliquity">
<polygon fill="white" stroke="black" points="186.5,-0.5 186.5,-19.5 265.5,-19.5 265.5,-0.5 186.5,-0.5"/>
<text text-anchor="middle" x="226" y="-7.5" font-family="Helvetica,sans-Serif" font-size="10.00">MeanObliquity</text>
</a>
</g>
</g>
<!-- Node5&#45;&gt;Node8 -->
<g id="edge9" class="edge"><title>Node5&#45;&gt;Node8</title>
<path fill="none" stroke="midnightblue" d="M143.505,-38.411C156.931,-33.7306 173.28,-28.0308 187.801,-22.9685"/>
<polygon fill="midnightblue" stroke="midnightblue" points="189.213,-26.1828 197.503,-19.5859 186.909,-19.573 189.213,-26.1828"/>
</g>
<!-- Node7 -->
<g id="node7" class="node"><title>Node7</title>
<g id="a_node7"><a xlink:href="namespaceanonymous__namespace_02SAT__Kepler_8cpp_03.html#a898091d856dff0d563448625b7634f16" target="_top" xlink:title="anonymous_namespace\l\{SAT_Kepler::cpp\}::F">
<polygon fill="white" stroke="black" points="308,-21 308,-51 430,-51 430,-21 308,-21"/>
<text text-anchor="start" x="316" y="-39" font-family="Helvetica,sans-Serif" font-size="10.00">anonymous_namespace</text>
<text text-anchor="middle" x="369" y="-28" font-family="Helvetica,sans-Serif" font-size="10.00">{SAT_Kepler::cpp}::F</text>
</a>
</g>
</g>
<!-- Node6&#45;&gt;Node7 -->
<g id="edge7" class="edge"><title>Node6&#45;&gt;Node7</title>
<path fill="none" stroke="midnightblue" d="M257.248,-45.4257C269.164,-44.4116 283.387,-43.2011 297.605,-41.9911"/>
<polygon fill="midnightblue" stroke="midnightblue" points="298.256,-45.4484 307.923,-41.1129 297.662,-38.4736 298.256,-45.4484"/>
</g>
<!-- Node6&#45;&gt;Node2 -->
<g id="edge8" class="edge"><title>Node6&#45;&gt;Node2</title>
<path fill="none" stroke="midnightblue" d="M257.248,-55.9374C270.059,-59.2992 285.537,-63.3608 300.808,-67.368"/>
<polygon fill="midnightblue" stroke="midnightblue" points="300.222,-70.8326 310.783,-69.9855 301.998,-64.0618 300.222,-70.8326"/>
</g>
</g>
</svg>
