<?xml version="1.0" encoding="UTF-8" standalone="no"?>
<!DOCTYPE svg PUBLIC "-//W3C//DTD SVG 1.1//EN"
 "http://www.w3.org/Graphics/SVG/1.1/DTD/svg11.dtd">
<!-- Generated by graphviz version 2.30.1 (20180420.1509)
 -->
<!-- Title: Elements Pages: 1 -->
<svg width="394pt" height="191pt"
 viewBox="0.00 0.00 394.00 191.00" xmlns="http://www.w3.org/2000/svg" xmlns:xlink="http://www.w3.org/1999/xlink">
<g id="graph0" class="graph" transform="scale(1 1) rotate(0) translate(4 187)">
<title>Elements</title>
<polygon fill="white" stroke="white" points="-4,5 -4,-187 391,-187 391,5 -4,5"/>
<!-- Node1 -->
<g id="node1" class="node"><title>Node1</title>
<polygon fill="#bfbfbf" stroke="black" points="0,-87.5 0,-106.5 58,-106.5 58,-87.5 0,-87.5"/>
<text text-anchor="middle" x="29" y="-94.5" font-family="Helvetica,sans-Serif" font-size="10.00">Elements</text>
</g>
<!-- Node2 -->
<g id="node2" class="node"><title>Node2</title>
<g id="a_node2"><a xlink:href="classVector.html#ae58ec75ebd2a2d60775c2e0ee98a35ae" target="_top" xlink:title="Vector::slice">
<polygon fill="white" stroke="black" points="125.5,-163.5 125.5,-182.5 196.5,-182.5 196.5,-163.5 125.5,-163.5"/>
<text text-anchor="middle" x="161" y="-170.5" font-family="Helvetica,sans-Serif" font-size="10.00">Vector::slice</text>
</a>
</g>
</g>
<!-- Node1&#45;&gt;Node2 -->
<g id="edge1" class="edge"><title>Node1&#45;&gt;Node2</title>
<path fill="none" stroke="midnightblue" d="M38.1256,-106.515C49.4179,-119.155 71.0686,-141.354 94,-154 100.679,-157.683 108.141,-160.712 115.578,-163.184"/>
<polygon fill="midnightblue" stroke="midnightblue" points="114.687,-166.571 125.272,-166.12 116.716,-159.871 114.687,-166.571"/>
</g>
<!-- Node3 -->
<g id="node3" class="node"><title>Node3</title>
<g id="a_node3"><a xlink:href="SAT__VecMat_8cpp.html#ab712f21cc19675f37e17e08bb51a82b4" target="_top" xlink:title="Cross">
<polygon fill="white" stroke="black" points="139.5,-125.5 139.5,-144.5 182.5,-144.5 182.5,-125.5 139.5,-125.5"/>
<text text-anchor="middle" x="161" y="-132.5" font-family="Helvetica,sans-Serif" font-size="10.00">Cross</text>
</a>
</g>
</g>
<!-- Node1&#45;&gt;Node3 -->
<g id="edge2" class="edge"><title>Node1&#45;&gt;Node3</title>
<path fill="none" stroke="midnightblue" d="M58.0232,-105.374C69.2084,-108.702 82.2078,-112.552 94,-116 105.654,-119.407 118.479,-123.11 129.7,-126.334"/>
<polygon fill="midnightblue" stroke="midnightblue" points="128.897,-129.745 139.474,-129.138 130.827,-123.016 128.897,-129.745"/>
</g>
<!-- Node4 -->
<g id="node4" class="node"><title>Node4</title>
<g id="a_node4"><a xlink:href="SAT__VecMat_8cpp.html#a313ce8c9730e0bd08a1396f364f0486c" target="_top" xlink:title="Norm">
<polygon fill="white" stroke="black" points="140.5,-87.5 140.5,-106.5 181.5,-106.5 181.5,-87.5 140.5,-87.5"/>
<text text-anchor="middle" x="161" y="-94.5" font-family="Helvetica,sans-Serif" font-size="10.00">Norm</text>
</a>
</g>
</g>
<!-- Node1&#45;&gt;Node4 -->
<g id="edge3" class="edge"><title>Node1&#45;&gt;Node4</title>
<path fill="none" stroke="midnightblue" d="M58.2081,-97C79.4172,-97 108.419,-97 130.041,-97"/>
<polygon fill="midnightblue" stroke="midnightblue" points="130.296,-100.5 140.296,-97 130.295,-93.5001 130.296,-100.5"/>
</g>
<!-- Node6 -->
<g id="node6" class="node"><title>Node6</title>
<g id="a_node6"><a xlink:href="namespaceanonymous__namespace_02SAT__Kepler_8cpp_03.html#ae5d42531d691a174363f296c22d23217" target="_top" xlink:title="anonymous_namespace\l\{SAT_Kepler::cpp\}::Modulo">
<polygon fill="white" stroke="black" points="94,-0 94,-30 228,-30 228,-0 94,-0"/>
<text text-anchor="start" x="102" y="-18" font-family="Helvetica,sans-Serif" font-size="10.00">anonymous_namespace</text>
<text text-anchor="middle" x="161" y="-7" font-family="Helvetica,sans-Serif" font-size="10.00">{SAT_Kepler::cpp}::Modulo</text>
</a>
</g>
</g>
<!-- Node1&#45;&gt;Node6 -->
<g id="edge5" class="edge"><title>Node1&#45;&gt;Node6</title>
<path fill="none" stroke="midnightblue" d="M40.2396,-87.2797C52.3795,-76.1003 73.552,-57.663 94,-45 100.106,-41.2186 106.769,-37.6325 113.438,-34.3423"/>
<polygon fill="midnightblue" stroke="midnightblue" points="114.95,-37.499 122.483,-30.0488 111.948,-31.1753 114.95,-37.499"/>
</g>
<!-- Node5 -->
<g id="node5" class="node"><title>Node5</title>
<g id="a_node5"><a xlink:href="SAT__VecMat_8cpp.html#a71375a6ebee7fc40c1d45985175d82e5" target="_top" xlink:title="Dot">
<polygon fill="white" stroke="black" points="309,-68.5 309,-87.5 341,-87.5 341,-68.5 309,-68.5"/>
<text text-anchor="middle" x="325" y="-75.5" font-family="Helvetica,sans-Serif" font-size="10.00">Dot</text>
</a>
</g>
</g>
<!-- Node1&#45;&gt;Node5 -->
<g id="edge7" class="edge"><title>Node1&#45;&gt;Node5</title>
<path fill="none" stroke="midnightblue" d="M55.7747,-87.4999C67.2979,-83.7367 81.1536,-79.8666 94,-78 167.793,-67.2776 256.315,-72.1985 298.811,-75.6458"/>
<polygon fill="midnightblue" stroke="midnightblue" points="298.56,-79.137 308.822,-76.5012 299.156,-72.1625 298.56,-79.137"/>
</g>
<!-- Node4&#45;&gt;Node5 -->
<g id="edge4" class="edge"><title>Node4&#45;&gt;Node5</title>
<path fill="none" stroke="midnightblue" d="M181.541,-94.7082C210.877,-91.2675 266.303,-84.7669 298.695,-80.9679"/>
<polygon fill="midnightblue" stroke="midnightblue" points="299.201,-84.4326 308.725,-79.7915 298.386,-77.4803 299.201,-84.4326"/>
</g>
<!-- Node7 -->
<g id="node7" class="node"><title>Node7</title>
<g id="a_node7"><a xlink:href="namespaceanonymous__namespace_02SAT__Force_8cpp_03.html#aa6826b33621fa6ff5736c6432c487c1a" target="_top" xlink:title="anonymous_namespace\l\{SAT_Force::cpp\}::Frac">
<polygon fill="white" stroke="black" points="264,-0 264,-30 386,-30 386,-0 264,-0"/>
<text text-anchor="start" x="272" y="-18" font-family="Helvetica,sans-Serif" font-size="10.00">anonymous_namespace</text>
<text text-anchor="middle" x="325" y="-7" font-family="Helvetica,sans-Serif" font-size="10.00">{SAT_Force::cpp}::Frac</text>
</a>
</g>
</g>
<!-- Node6&#45;&gt;Node7 -->
<g id="edge6" class="edge"><title>Node6&#45;&gt;Node7</title>
<path fill="none" stroke="midnightblue" d="M228.359,-15C236.745,-15 245.348,-15 253.792,-15"/>
<polygon fill="midnightblue" stroke="midnightblue" points="253.987,-18.5001 263.987,-15 253.987,-11.5001 253.987,-18.5001"/>
</g>
</g>
</svg>
