<?xml version="1.0" encoding="UTF-8" standalone="no"?>
<!DOCTYPE svg PUBLIC "-//W3C//DTD SVG 1.1//EN"
 "http://www.w3.org/Graphics/SVG/1.1/DTD/svg11.dtd">
<!-- Generated by graphviz version 2.30.1 (20180420.1509)
 -->
<!-- Title: LU_Decomp Pages: 1 -->
<svg width="280pt" height="28pt"
 viewBox="0.00 0.00 280.00 28.00" xmlns="http://www.w3.org/2000/svg" xmlns:xlink="http://www.w3.org/1999/xlink">
<g id="graph0" class="graph" transform="scale(1 1) rotate(0) translate(4 24)">
<title>LU_Decomp</title>
<polygon fill="white" stroke="white" points="-4,5 -4,-24 277,-24 277,5 -4,5"/>
<!-- Node1 -->
<g id="node1" class="node"><title>Node1</title>
<polygon fill="#bfbfbf" stroke="black" points="0.5,-0.5 0.5,-19.5 71.5,-19.5 71.5,-0.5 0.5,-0.5"/>
<text text-anchor="middle" x="36" y="-7.5" font-family="Helvetica,sans-Serif" font-size="10.00">LU_Decomp</text>
</g>
<!-- Node2 -->
<g id="node2" class="node"><title>Node2</title>
<g id="a_node2"><a xlink:href="SAT__VecMat_8cpp.html#a5bdf67234eadeb0a304f11d4537047aa" target="_top" xlink:title="Inv">
<polygon fill="white" stroke="black" points="108,-0.5 108,-19.5 138,-19.5 138,-0.5 108,-0.5"/>
<text text-anchor="middle" x="123" y="-7.5" font-family="Helvetica,sans-Serif" font-size="10.00">Inv</text>
</a>
</g>
</g>
<!-- Node1&#45;&gt;Node2 -->
<g id="edge1" class="edge"><title>Node1&#45;&gt;Node2</title>
<path fill="none" stroke="midnightblue" d="M81.7995,-10C91.2511,-10 100.551,-10 107.821,-10"/>
<polygon fill="midnightblue" stroke="midnightblue" points="81.5728,-6.5001 71.5728,-10 81.5727,-13.5001 81.5728,-6.5001"/>
</g>
<!-- Node3 -->
<g id="node3" class="node"><title>Node3</title>
<g id="a_node3"><a xlink:href="classEKF.html#a080c81bbef29da2b57caa52775f76602" target="_top" xlink:title="EKF::MeasUpdate">
<polygon fill="white" stroke="black" points="174,-0.5 174,-19.5 272,-19.5 272,-0.5 174,-0.5"/>
<text text-anchor="middle" x="223" y="-7.5" font-family="Helvetica,sans-Serif" font-size="10.00">EKF::MeasUpdate</text>
</a>
</g>
</g>
<!-- Node2&#45;&gt;Node3 -->
<g id="edge2" class="edge"><title>Node2&#45;&gt;Node3</title>
<path fill="none" stroke="midnightblue" d="M148.204,-10C156.018,-10 164.975,-10 173.893,-10"/>
<polygon fill="midnightblue" stroke="midnightblue" points="148.041,-6.5001 138.041,-10 148.041,-13.5001 148.041,-6.5001"/>
</g>
</g>
</svg>
