<?xml version="1.0" encoding="UTF-8" standalone="no"?>
<!DOCTYPE svg PUBLIC "-//W3C//DTD SVG 1.1//EN"
 "http://www.w3.org/Graphics/SVG/1.1/DTD/svg11.dtd">
<!-- Generated by graphviz version 2.30.1 (20180420.1509)
 -->
<!-- Title: AccelHarmonic Pages: 1 -->
<svg width="176pt" height="66pt"
 viewBox="0.00 0.00 176.00 66.00" xmlns="http://www.w3.org/2000/svg" xmlns:xlink="http://www.w3.org/1999/xlink">
<g id="graph0" class="graph" transform="scale(1 1) rotate(0) translate(4 62)">
<title>AccelHarmonic</title>
<polygon fill="white" stroke="white" points="-4,5 -4,-62 173,-62 173,5 -4,5"/>
<!-- Node1 -->
<g id="node1" class="node"><title>Node1</title>
<polygon fill="#bfbfbf" stroke="black" points="0.5,-19.5 0.5,-38.5 83.5,-38.5 83.5,-19.5 0.5,-19.5"/>
<text text-anchor="middle" x="42" y="-26.5" font-family="Helvetica,sans-Serif" font-size="10.00">AccelHarmonic</text>
</g>
<!-- Node2 -->
<g id="node2" class="node"><title>Node2</title>
<g id="a_node2"><a xlink:href="SAT__VecMat_8cpp.html#a71375a6ebee7fc40c1d45985175d82e5" target="_top" xlink:title="Dot">
<polygon fill="white" stroke="black" points="128,-38.5 128,-57.5 160,-57.5 160,-38.5 128,-38.5"/>
<text text-anchor="middle" x="144" y="-45.5" font-family="Helvetica,sans-Serif" font-size="10.00">Dot</text>
</a>
</g>
</g>
<!-- Node1&#45;&gt;Node2 -->
<g id="edge1" class="edge"><title>Node1&#45;&gt;Node2</title>
<path fill="none" stroke="midnightblue" d="M83.6738,-36.728C95.232,-38.9241 107.48,-41.2511 117.826,-43.217"/>
<polygon fill="midnightblue" stroke="midnightblue" points="117.335,-46.6861 127.812,-45.1143 118.641,-39.8091 117.335,-46.6861"/>
</g>
<!-- Node3 -->
<g id="node3" class="node"><title>Node3</title>
<g id="a_node3"><a xlink:href="SAT__VecMat_8cpp.html#aa54829a0c63c78e6bfbd12285ad94075" target="_top" xlink:title="Transp">
<polygon fill="white" stroke="black" points="120.5,-0.5 120.5,-19.5 167.5,-19.5 167.5,-0.5 120.5,-0.5"/>
<text text-anchor="middle" x="144" y="-7.5" font-family="Helvetica,sans-Serif" font-size="10.00">Transp</text>
</a>
</g>
</g>
<!-- Node1&#45;&gt;Node3 -->
<g id="edge2" class="edge"><title>Node1&#45;&gt;Node3</title>
<path fill="none" stroke="midnightblue" d="M83.6738,-21.272C92.5925,-19.5774 101.922,-17.8049 110.471,-16.1804"/>
<polygon fill="midnightblue" stroke="midnightblue" points="111.262,-19.5928 120.433,-14.2877 109.956,-12.7159 111.262,-19.5928"/>
</g>
</g>
</svg>
