<?xml version="1.0" encoding="UTF-8" standalone="no"?>
<!DOCTYPE svg PUBLIC "-//W3C//DTD SVG 1.1//EN"
 "http://www.w3.org/Graphics/SVG/1.1/DTD/svg11.dtd">
<!-- Generated by graphviz version 2.30.1 (20180420.1509)
 -->
<!-- Title: GAST Pages: 1 -->
<svg width="330pt" height="104pt"
 viewBox="0.00 0.00 330.00 104.00" xmlns="http://www.w3.org/2000/svg" xmlns:xlink="http://www.w3.org/1999/xlink">
<g id="graph0" class="graph" transform="scale(1 1) rotate(0) translate(4 100)">
<title>GAST</title>
<polygon fill="white" stroke="white" points="-4,5 -4,-100 327,-100 327,5 -4,5"/>
<!-- Node1 -->
<g id="node1" class="node"><title>Node1</title>
<polygon fill="#bfbfbf" stroke="black" points="0,-38.5 0,-57.5 44,-57.5 44,-38.5 0,-38.5"/>
<text text-anchor="middle" x="22" y="-45.5" font-family="Helvetica,sans-Serif" font-size="10.00">GAST</text>
</g>
<!-- Node2 -->
<g id="node2" class="node"><title>Node2</title>
<g id="a_node2"><a xlink:href="SAT__RefSys_8h.html#a9699d3dfbd482534e86059e5613f8b8c" target="_top" xlink:title="GHAMatrix">
<polygon fill="white" stroke="black" points="80.5,-38.5 80.5,-57.5 145.5,-57.5 145.5,-38.5 80.5,-38.5"/>
<text text-anchor="middle" x="113" y="-45.5" font-family="Helvetica,sans-Serif" font-size="10.00">GHAMatrix</text>
</a>
</g>
</g>
<!-- Node1&#45;&gt;Node2 -->
<g id="edge1" class="edge"><title>Node1&#45;&gt;Node2</title>
<path fill="none" stroke="midnightblue" d="M54.2824,-48C62.7018,-48 71.8155,-48 80.2596,-48"/>
<polygon fill="midnightblue" stroke="midnightblue" points="54.0918,-44.5001 44.0918,-48 54.0917,-51.5001 54.0918,-44.5001"/>
</g>
<!-- Node3 -->
<g id="node3" class="node"><title>Node3</title>
<g id="a_node3"><a xlink:href="SAT__Force_8h.html#a750f7a2f89dc275831e706abee33310f" target="_top" xlink:title="AccelMain">
<polygon fill="white" stroke="black" points="184,-76.5 184,-95.5 246,-95.5 246,-76.5 184,-76.5"/>
<text text-anchor="middle" x="215" y="-83.5" font-family="Helvetica,sans-Serif" font-size="10.00">AccelMain</text>
</a>
</g>
</g>
<!-- Node2&#45;&gt;Node3 -->
<g id="edge2" class="edge"><title>Node2&#45;&gt;Node3</title>
<path fill="none" stroke="midnightblue" d="M148.907,-61.2646C162.035,-66.2533 176.695,-71.8241 188.774,-76.4141"/>
<polygon fill="midnightblue" stroke="midnightblue" points="149.825,-57.8695 139.234,-57.589 147.339,-64.413 149.825,-57.8695"/>
</g>
<!-- Node4 -->
<g id="node4" class="node"><title>Node4</title>
<g id="a_node4"><a xlink:href="TDRSOD_8cpp.html#a1d3803a2ec3760bf63edefae54e3ac5b" target="_top" xlink:title="Accel">
<polygon fill="white" stroke="black" points="194.5,-38.5 194.5,-57.5 235.5,-57.5 235.5,-38.5 194.5,-38.5"/>
<text text-anchor="middle" x="215" y="-45.5" font-family="Helvetica,sans-Serif" font-size="10.00">Accel</text>
</a>
</g>
</g>
<!-- Node2&#45;&gt;Node4 -->
<g id="edge3" class="edge"><title>Node2&#45;&gt;Node4</title>
<path fill="none" stroke="midnightblue" d="M155.698,-48C169.149,-48 183.423,-48 194.482,-48"/>
<polygon fill="midnightblue" stroke="midnightblue" points="155.641,-44.5001 145.641,-48 155.641,-51.5001 155.641,-44.5001"/>
</g>
<!-- Node5 -->
<g id="node5" class="node"><title>Node5</title>
<g id="a_node5"><a xlink:href="TDRSOD_8cpp.html#a466ab098330aeb2aa659365279071640" target="_top" xlink:title="Range_4W">
<polygon fill="white" stroke="black" points="182.5,-0.5 182.5,-19.5 247.5,-19.5 247.5,-0.5 182.5,-0.5"/>
<text text-anchor="middle" x="215" y="-7.5" font-family="Helvetica,sans-Serif" font-size="10.00">Range_4W</text>
</a>
</g>
</g>
<!-- Node2&#45;&gt;Node5 -->
<g id="edge4" class="edge"><title>Node2&#45;&gt;Node5</title>
<path fill="none" stroke="midnightblue" d="M148.907,-34.7354C162.035,-29.7467 176.695,-24.1759 188.774,-19.5859"/>
<polygon fill="midnightblue" stroke="midnightblue" points="147.339,-31.587 139.234,-38.411 149.825,-38.1305 147.339,-31.587"/>
</g>
<!-- Node6 -->
<g id="node6" class="node"><title>Node6</title>
<g id="a_node6"><a xlink:href="TDRSOD_8cpp.html#a0ddf1224851353fc92bfbff6f499fa97" target="_top" xlink:title="main">
<polygon fill="white" stroke="black" points="284,-0.5 284,-19.5 322,-19.5 322,-0.5 284,-0.5"/>
<text text-anchor="middle" x="303" y="-7.5" font-family="Helvetica,sans-Serif" font-size="10.00">main</text>
</a>
</g>
</g>
<!-- Node5&#45;&gt;Node6 -->
<g id="edge5" class="edge"><title>Node5&#45;&gt;Node6</title>
<path fill="none" stroke="midnightblue" d="M257.813,-10C267.024,-10 276.308,-10 283.972,-10"/>
<polygon fill="midnightblue" stroke="midnightblue" points="257.535,-6.5001 247.535,-10 257.535,-13.5001 257.535,-6.5001"/>
</g>
</g>
</svg>
