<?xml version="1.0" encoding="UTF-8" standalone="no"?>
<!DOCTYPE svg PUBLIC "-//W3C//DTD SVG 1.1//EN"
 "http://www.w3.org/Graphics/SVG/1.1/DTD/svg11.dtd">
<!-- Generated by graphviz version 2.30.1 (20180420.1509)
 -->
<!-- Title: SAT_DE.cpp Pages: 1 -->
<svg width="230pt" height="196pt"
 viewBox="0.00 0.00 230.00 196.00" xmlns="http://www.w3.org/2000/svg" xmlns:xlink="http://www.w3.org/1999/xlink">
<g id="graph0" class="graph" transform="scale(1 1) rotate(0) translate(4 192)">
<title>SAT_DE.cpp</title>
<polygon fill="white" stroke="white" points="-4,5 -4,-192 227,-192 227,5 -4,5"/>
<!-- Node1 -->
<g id="node1" class="node"><title>Node1</title>
<polygon fill="#bfbfbf" stroke="black" points="59,-168.5 59,-187.5 133,-187.5 133,-168.5 59,-168.5"/>
<text text-anchor="middle" x="96" y="-175.5" font-family="Helvetica,sans-Serif" font-size="10.00">SAT_DE.cpp</text>
</g>
<!-- Node2 -->
<g id="node2" class="node"><title>Node2</title>
<polygon fill="white" stroke="#bfbfbf" points="0,-112.5 0,-131.5 44,-131.5 44,-112.5 0,-112.5"/>
<text text-anchor="middle" x="22" y="-119.5" font-family="Helvetica,sans-Serif" font-size="10.00">cmath</text>
</g>
<!-- Node1&#45;&gt;Node2 -->
<g id="edge1" class="edge"><title>Node1&#45;&gt;Node2</title>
<path fill="none" stroke="midnightblue" d="M84.1106,-168.324C72.8498,-160.107 55.7134,-147.602 42.2909,-137.807"/>
<polygon fill="midnightblue" stroke="midnightblue" points="44.2468,-134.901 34.1057,-131.834 40.1205,-140.556 44.2468,-134.901"/>
</g>
<!-- Node3 -->
<g id="node3" class="node"><title>Node3</title>
<polygon fill="white" stroke="#bfbfbf" points="58,-0.5 58,-19.5 112,-19.5 112,-0.5 58,-0.5"/>
<text text-anchor="middle" x="85" y="-7.5" font-family="Helvetica,sans-Serif" font-size="10.00">iostream</text>
</g>
<!-- Node1&#45;&gt;Node3 -->
<g id="edge2" class="edge"><title>Node1&#45;&gt;Node3</title>
<path fill="none" stroke="midnightblue" d="M94.8848,-168.388C93.7505,-159.342 92.0189,-144.693 91,-132 88.093,-95.7857 86.3773,-53.3534 85.5687,-29.5818"/>
<polygon fill="midnightblue" stroke="midnightblue" points="89.0648,-29.4018 85.2434,-19.5201 82.0685,-29.628 89.0648,-29.4018"/>
</g>
<!-- Node4 -->
<g id="node4" class="node"><title>Node4</title>
<polygon fill="white" stroke="#bfbfbf" points="100,-112.5 100,-131.5 140,-131.5 140,-112.5 100,-112.5"/>
<text text-anchor="middle" x="120" y="-119.5" font-family="Helvetica,sans-Serif" font-size="10.00">limits</text>
</g>
<!-- Node1&#45;&gt;Node4 -->
<g id="edge3" class="edge"><title>Node1&#45;&gt;Node4</title>
<path fill="none" stroke="midnightblue" d="M99.9631,-168.083C103.213,-160.77 107.919,-150.181 111.954,-141.103"/>
<polygon fill="midnightblue" stroke="midnightblue" points="115.248,-142.311 116.111,-131.751 108.851,-139.468 115.248,-142.311"/>
</g>
<!-- Node5 -->
<g id="node5" class="node"><title>Node5</title>
<g id="a_node5"><a xlink:href="SAT__DE_8h.html" target="_top" xlink:title="SAT_DE.h">
<polygon fill="white" stroke="black" points="158,-112.5 158,-131.5 222,-131.5 222,-112.5 158,-112.5"/>
<text text-anchor="middle" x="190" y="-119.5" font-family="Helvetica,sans-Serif" font-size="10.00">SAT_DE.h</text>
</a>
</g>
</g>
<!-- Node1&#45;&gt;Node5 -->
<g id="edge4" class="edge"><title>Node1&#45;&gt;Node5</title>
<path fill="none" stroke="midnightblue" d="M111.103,-168.324C125.903,-159.822 148.694,-146.729 165.982,-136.797"/>
<polygon fill="midnightblue" stroke="midnightblue" points="168.007,-139.671 174.935,-131.655 164.52,-133.601 168.007,-139.671"/>
</g>
<!-- Node6 -->
<g id="node6" class="node"><title>Node6</title>
<g id="a_node6"><a xlink:href="SAT__VecMat_8h.html" target="_top" xlink:title="SAT_VecMat.h">
<polygon fill="white" stroke="black" points="124.5,-56.5 124.5,-75.5 207.5,-75.5 207.5,-56.5 124.5,-56.5"/>
<text text-anchor="middle" x="166" y="-63.5" font-family="Helvetica,sans-Serif" font-size="10.00">SAT_VecMat.h</text>
</a>
</g>
</g>
<!-- Node5&#45;&gt;Node6 -->
<g id="edge5" class="edge"><title>Node5&#45;&gt;Node6</title>
<path fill="none" stroke="midnightblue" d="M186.037,-112.083C182.787,-104.77 178.081,-94.1814 174.046,-85.1034"/>
<polygon fill="midnightblue" stroke="midnightblue" points="177.149,-83.4677 169.889,-75.7511 170.752,-86.3107 177.149,-83.4677"/>
</g>
<!-- Node6&#45;&gt;Node3 -->
<g id="edge6" class="edge"><title>Node6&#45;&gt;Node3</title>
<path fill="none" stroke="midnightblue" d="M152.986,-56.324C140.468,-47.979 121.318,-35.2122 106.529,-25.3524"/>
<polygon fill="midnightblue" stroke="midnightblue" points="108.244,-22.2894 97.9818,-19.6545 104.361,-28.1137 108.244,-22.2894"/>
</g>
<!-- Node7 -->
<g id="node7" class="node"><title>Node7</title>
<polygon fill="white" stroke="#bfbfbf" points="143.5,-0.5 143.5,-19.5 188.5,-19.5 188.5,-0.5 143.5,-0.5"/>
<text text-anchor="middle" x="166" y="-7.5" font-family="Helvetica,sans-Serif" font-size="10.00">cstdlib</text>
</g>
<!-- Node6&#45;&gt;Node7 -->
<g id="edge7" class="edge"><title>Node6&#45;&gt;Node7</title>
<path fill="none" stroke="midnightblue" d="M166,-56.083C166,-49.0059 166,-38.8611 166,-29.9865"/>
<polygon fill="midnightblue" stroke="midnightblue" points="169.5,-29.751 166,-19.7511 162.5,-29.7511 169.5,-29.751"/>
</g>
</g>
</svg>
