<?xml version="1.0" encoding="UTF-8" standalone="no"?>
<!DOCTYPE svg PUBLIC "-//W3C//DTD SVG 1.1//EN"
 "http://www.w3.org/Graphics/SVG/1.1/DTD/svg11.dtd">
<!-- Generated by graphviz version 2.30.1 (20180420.1509)
 -->
<!-- Title: NutAngles Pages: 1 -->
<svg width="398pt" height="87pt"
 viewBox="0.00 0.00 398.00 87.00" xmlns="http://www.w3.org/2000/svg" xmlns:xlink="http://www.w3.org/1999/xlink">
<g id="graph0" class="graph" transform="scale(1 1) rotate(0) translate(4 83)">
<title>NutAngles</title>
<polygon fill="white" stroke="white" points="-4,5 -4,-83 395,-83 395,5 -4,5"/>
<!-- Node1 -->
<g id="node1" class="node"><title>Node1</title>
<polygon fill="#bfbfbf" stroke="black" points="0,-29.5 0,-48.5 62,-48.5 62,-29.5 0,-29.5"/>
<text text-anchor="middle" x="31" y="-36.5" font-family="Helvetica,sans-Serif" font-size="10.00">NutAngles</text>
</g>
<!-- Node2 -->
<g id="node2" class="node"><title>Node2</title>
<g id="a_node2"><a xlink:href="namespaceanonymous__namespace_02SAT__Kepler_8cpp_03.html#a898091d856dff0d563448625b7634f16" target="_top" xlink:title="anonymous_namespace\l\{SAT_Kepler::cpp\}::F">
<polygon fill="white" stroke="black" points="104,-49 104,-79 226,-79 226,-49 104,-49"/>
<text text-anchor="start" x="112" y="-67" font-family="Helvetica,sans-Serif" font-size="10.00">anonymous_namespace</text>
<text text-anchor="middle" x="165" y="-56" font-family="Helvetica,sans-Serif" font-size="10.00">{SAT_Kepler::cpp}::F</text>
</a>
</g>
</g>
<!-- Node1&#45;&gt;Node2 -->
<g id="edge1" class="edge"><title>Node1&#45;&gt;Node2</title>
<path fill="none" stroke="midnightblue" d="M62.2835,-44.7355C71.8793,-46.5529 82.9166,-48.6433 94.1037,-50.7621"/>
<polygon fill="midnightblue" stroke="midnightblue" points="93.4642,-54.2031 103.941,-52.6252 94.7669,-47.3254 93.4642,-54.2031"/>
</g>
<!-- Node3 -->
<g id="node3" class="node"><title>Node3</title>
<g id="a_node3"><a xlink:href="namespaceanonymous__namespace_02SAT__Kepler_8cpp_03.html#ae5d42531d691a174363f296c22d23217" target="_top" xlink:title="anonymous_namespace\l\{SAT_Kepler::cpp\}::Modulo">
<polygon fill="white" stroke="black" points="98,-0 98,-30 232,-30 232,-0 98,-0"/>
<text text-anchor="start" x="106" y="-18" font-family="Helvetica,sans-Serif" font-size="10.00">anonymous_namespace</text>
<text text-anchor="middle" x="165" y="-7" font-family="Helvetica,sans-Serif" font-size="10.00">{SAT_Kepler::cpp}::Modulo</text>
</a>
</g>
</g>
<!-- Node1&#45;&gt;Node3 -->
<g id="edge2" class="edge"><title>Node1&#45;&gt;Node3</title>
<path fill="none" stroke="midnightblue" d="M62.2835,-33.4939C70.109,-32.0711 78.8933,-30.4739 87.9356,-28.8299"/>
<polygon fill="midnightblue" stroke="midnightblue" points="88.6031,-32.266 97.8157,-27.0335 87.3509,-25.3789 88.6031,-32.266"/>
</g>
<!-- Node4 -->
<g id="node4" class="node"><title>Node4</title>
<g id="a_node4"><a xlink:href="namespaceanonymous__namespace_02SAT__Force_8cpp_03.html#aa6826b33621fa6ff5736c6432c487c1a" target="_top" xlink:title="anonymous_namespace\l\{SAT_Force::cpp\}::Frac">
<polygon fill="white" stroke="black" points="268,-0 268,-30 390,-30 390,-0 268,-0"/>
<text text-anchor="start" x="276" y="-18" font-family="Helvetica,sans-Serif" font-size="10.00">anonymous_namespace</text>
<text text-anchor="middle" x="329" y="-7" font-family="Helvetica,sans-Serif" font-size="10.00">{SAT_Force::cpp}::Frac</text>
</a>
</g>
</g>
<!-- Node3&#45;&gt;Node4 -->
<g id="edge3" class="edge"><title>Node3&#45;&gt;Node4</title>
<path fill="none" stroke="midnightblue" d="M232.359,-15C240.745,-15 249.348,-15 257.792,-15"/>
<polygon fill="midnightblue" stroke="midnightblue" points="257.987,-18.5001 267.987,-15 257.987,-11.5001 257.987,-18.5001"/>
</g>
</g>
</svg>
