<?xml version="1.0" encoding="UTF-8" standalone="no"?>
<!DOCTYPE svg PUBLIC "-//W3C//DTD SVG 1.1//EN"
 "http://www.w3.org/Graphics/SVG/1.1/DTD/svg11.dtd">
<!-- Generated by graphviz version 2.30.1 (20180420.1509)
 -->
<!-- Title: Cross Pages: 1 -->
<svg width="334pt" height="123pt"
 viewBox="0.00 0.00 334.00 123.00" xmlns="http://www.w3.org/2000/svg" xmlns:xlink="http://www.w3.org/1999/xlink">
<g id="graph0" class="graph" transform="scale(1 1) rotate(0) translate(4 119)">
<title>Cross</title>
<polygon fill="white" stroke="white" points="-4,5 -4,-119 331,-119 331,5 -4,5"/>
<!-- Node1 -->
<g id="node1" class="node"><title>Node1</title>
<polygon fill="#bfbfbf" stroke="black" points="0.5,-38.5 0.5,-57.5 43.5,-57.5 43.5,-38.5 0.5,-38.5"/>
<text text-anchor="middle" x="22" y="-45.5" font-family="Helvetica,sans-Serif" font-size="10.00">Cross</text>
</g>
<!-- Node2 -->
<g id="node2" class="node"><title>Node2</title>
<g id="a_node2"><a xlink:href="SAT__Force_8h.html#ae20f51bcb69607d4a2268329837260f2" target="_top" xlink:title="AccelDrag">
<polygon fill="white" stroke="black" points="86,-76.5 86,-95.5 148,-95.5 148,-76.5 86,-76.5"/>
<text text-anchor="middle" x="117" y="-83.5" font-family="Helvetica,sans-Serif" font-size="10.00">AccelDrag</text>
</a>
</g>
</g>
<!-- Node1&#45;&gt;Node2 -->
<g id="edge1" class="edge"><title>Node1&#45;&gt;Node2</title>
<path fill="none" stroke="midnightblue" d="M52.972,-60.2466C65.7652,-65.474 80.4773,-71.4854 92.4683,-76.3849"/>
<polygon fill="midnightblue" stroke="midnightblue" points="54.2207,-56.976 43.6397,-56.4334 51.5729,-63.4559 54.2207,-56.976"/>
</g>
<!-- Node5 -->
<g id="node5" class="node"><title>Node5</title>
<g id="a_node5"><a xlink:href="SAT__Kepler_8h.html#ad41abe3ee1647b2de98425457c6fdce2" target="_top" xlink:title="StatePartials">
<polygon fill="white" stroke="black" points="80.5,-38.5 80.5,-57.5 153.5,-57.5 153.5,-38.5 80.5,-38.5"/>
<text text-anchor="middle" x="117" y="-45.5" font-family="Helvetica,sans-Serif" font-size="10.00">StatePartials</text>
</a>
</g>
</g>
<!-- Node1&#45;&gt;Node5 -->
<g id="edge4" class="edge"><title>Node1&#45;&gt;Node5</title>
<path fill="none" stroke="midnightblue" d="M53.8894,-48C62.3932,-48 71.6851,-48 80.4302,-48"/>
<polygon fill="midnightblue" stroke="midnightblue" points="53.6397,-44.5001 43.6397,-48 53.6397,-51.5001 53.6397,-44.5001"/>
</g>
<!-- Node8 -->
<g id="node8" class="node"><title>Node8</title>
<g id="a_node8"><a xlink:href="SAT__Kepler_8h.html#a1d7fdd2727e376b6aa5a54877ca6a205" target="_top" xlink:title="Elements">
<polygon fill="white" stroke="black" points="88,-0.5 88,-19.5 146,-19.5 146,-0.5 88,-0.5"/>
<text text-anchor="middle" x="117" y="-7.5" font-family="Helvetica,sans-Serif" font-size="10.00">Elements</text>
</a>
</g>
</g>
<!-- Node1&#45;&gt;Node8 -->
<g id="edge7" class="edge"><title>Node1&#45;&gt;Node8</title>
<path fill="none" stroke="midnightblue" d="M52.972,-35.7534C65.7652,-30.526 80.4773,-24.5146 92.4683,-19.6151"/>
<polygon fill="midnightblue" stroke="midnightblue" points="51.5729,-32.5441 43.6397,-39.5666 54.2207,-39.024 51.5729,-32.5441"/>
</g>
<!-- Node3 -->
<g id="node3" class="node"><title>Node3</title>
<g id="a_node3"><a xlink:href="SAT__Force_8h.html#a750f7a2f89dc275831e706abee33310f" target="_top" xlink:title="AccelMain">
<polygon fill="white" stroke="black" points="190,-95.5 190,-114.5 252,-114.5 252,-95.5 190,-95.5"/>
<text text-anchor="middle" x="221" y="-102.5" font-family="Helvetica,sans-Serif" font-size="10.00">AccelMain</text>
</a>
</g>
</g>
<!-- Node2&#45;&gt;Node3 -->
<g id="edge2" class="edge"><title>Node2&#45;&gt;Node3</title>
<path fill="none" stroke="midnightblue" d="M157.948,-93.4414C168.551,-95.4164 179.823,-97.5161 189.811,-99.3765"/>
<polygon fill="midnightblue" stroke="midnightblue" points="158.524,-89.9884 148.052,-91.5979 157.242,-96.87 158.524,-89.9884"/>
</g>
<!-- Node4 -->
<g id="node4" class="node"><title>Node4</title>
<g id="a_node4"><a xlink:href="TDRSOD_8cpp.html#a1d3803a2ec3760bf63edefae54e3ac5b" target="_top" xlink:title="Accel">
<polygon fill="white" stroke="black" points="200.5,-57.5 200.5,-76.5 241.5,-76.5 241.5,-57.5 200.5,-57.5"/>
<text text-anchor="middle" x="221" y="-64.5" font-family="Helvetica,sans-Serif" font-size="10.00">Accel</text>
</a>
</g>
</g>
<!-- Node2&#45;&gt;Node4 -->
<g id="edge3" class="edge"><title>Node2&#45;&gt;Node4</title>
<path fill="none" stroke="midnightblue" d="M157.902,-78.5674C172.515,-75.8453 188.406,-72.8852 200.454,-70.6409"/>
<polygon fill="midnightblue" stroke="midnightblue" points="157.242,-75.13 148.052,-80.4021 158.524,-82.0116 157.242,-75.13"/>
</g>
<!-- Node6 -->
<g id="node6" class="node"><title>Node6</title>
<g id="a_node6"><a xlink:href="SAT__Kepler_8h.html#aeb2175e4cdc39ea590f44fc2949ea8d3" target="_top" xlink:title="TwoBody">
<polygon fill="white" stroke="black" points="192,-10.5 192,-29.5 250,-29.5 250,-10.5 192,-10.5"/>
<text text-anchor="middle" x="221" y="-17.5" font-family="Helvetica,sans-Serif" font-size="10.00">TwoBody</text>
</a>
</g>
</g>
<!-- Node5&#45;&gt;Node6 -->
<g id="edge5" class="edge"><title>Node5&#45;&gt;Node6</title>
<path fill="none" stroke="midnightblue" d="M162.563,-35.767C172.475,-33.046 182.717,-30.2345 191.759,-27.7525"/>
<polygon fill="midnightblue" stroke="midnightblue" points="161.534,-32.4199 152.817,-38.4423 163.387,-39.1702 161.534,-32.4199"/>
</g>
<!-- Node7 -->
<g id="node7" class="node"><title>Node7</title>
<g id="a_node7"><a xlink:href="RTOD_8cpp.html#a0ddf1224851353fc92bfbff6f499fa97" target="_top" xlink:title="main">
<polygon fill="white" stroke="black" points="288,-10.5 288,-29.5 326,-29.5 326,-10.5 288,-10.5"/>
<text text-anchor="middle" x="307" y="-17.5" font-family="Helvetica,sans-Serif" font-size="10.00">main</text>
</a>
</g>
</g>
<!-- Node6&#45;&gt;Node7 -->
<g id="edge6" class="edge"><title>Node6&#45;&gt;Node7</title>
<path fill="none" stroke="midnightblue" d="M260.579,-20C270.095,-20 279.847,-20 287.864,-20"/>
<polygon fill="midnightblue" stroke="midnightblue" points="260.439,-16.5001 250.439,-20 260.439,-23.5001 260.439,-16.5001"/>
</g>
<!-- Node8&#45;&gt;Node6 -->
<g id="edge8" class="edge"><title>Node8&#45;&gt;Node6</title>
<path fill="none" stroke="midnightblue" d="M156.235,-13.7485C168.087,-14.9105 180.923,-16.1689 191.95,-17.25"/>
<polygon fill="midnightblue" stroke="midnightblue" points="156.436,-10.2515 146.142,-12.759 155.753,-17.2181 156.436,-10.2515"/>
</g>
</g>
</svg>
