<?xml version="1.0" encoding="UTF-8" standalone="no"?>
<!DOCTYPE svg PUBLIC "-//W3C//DTD SVG 1.1//EN"
 "http://www.w3.org/Graphics/SVG/1.1/DTD/svg11.dtd">
<!-- Generated by graphviz version 2.30.1 (20180420.1509)
 -->
<!-- Title: SAT_Kepler.cpp Pages: 1 -->
<svg width="351pt" height="196pt"
 viewBox="0.00 0.00 350.55 196.00" xmlns="http://www.w3.org/2000/svg" xmlns:xlink="http://www.w3.org/1999/xlink">
<g id="graph0" class="graph" transform="scale(1 1) rotate(0) translate(4 192)">
<title>SAT_Kepler.cpp</title>
<polygon fill="white" stroke="white" points="-4,5 -4,-192 347.555,-192 347.555,5 -4,5"/>
<!-- Node1 -->
<g id="node1" class="node"><title>Node1</title>
<polygon fill="#bfbfbf" stroke="black" points="114,-168.5 114,-187.5 202,-187.5 202,-168.5 114,-168.5"/>
<text text-anchor="middle" x="158" y="-175.5" font-family="Helvetica,sans-Serif" font-size="10.00">SAT_Kepler.cpp</text>
</g>
<!-- Node2 -->
<g id="node2" class="node"><title>Node2</title>
<polygon fill="white" stroke="#bfbfbf" points="0,-112.5 0,-131.5 44,-131.5 44,-112.5 0,-112.5"/>
<text text-anchor="middle" x="22" y="-119.5" font-family="Helvetica,sans-Serif" font-size="10.00">cmath</text>
</g>
<!-- Node1&#45;&gt;Node2 -->
<g id="edge1" class="edge"><title>Node1&#45;&gt;Node2</title>
<path fill="none" stroke="midnightblue" d="M136.45,-168.444C113.969,-159.517 78.5123,-145.439 53.0201,-135.317"/>
<polygon fill="midnightblue" stroke="midnightblue" points="54.0346,-131.954 43.4488,-131.516 51.4513,-138.46 54.0346,-131.954"/>
</g>
<!-- Node3 -->
<g id="node3" class="node"><title>Node3</title>
<polygon fill="white" stroke="#bfbfbf" points="121,-0.5 121,-19.5 175,-19.5 175,-0.5 121,-0.5"/>
<text text-anchor="middle" x="148" y="-7.5" font-family="Helvetica,sans-Serif" font-size="10.00">iostream</text>
</g>
<!-- Node1&#45;&gt;Node3 -->
<g id="edge2" class="edge"><title>Node1&#45;&gt;Node3</title>
<path fill="none" stroke="midnightblue" d="M135.212,-168.471C119.674,-161.316 100.293,-149.435 91,-132 71.2766,-94.9939 107.743,-49.9864 130.94,-26.6806"/>
<polygon fill="midnightblue" stroke="midnightblue" points="133.449,-29.1229 138.198,-19.6518 128.579,-24.0945 133.449,-29.1229"/>
</g>
<!-- Node4 -->
<g id="node4" class="node"><title>Node4</title>
<polygon fill="white" stroke="#bfbfbf" points="100,-112.5 100,-131.5 140,-131.5 140,-112.5 100,-112.5"/>
<text text-anchor="middle" x="120" y="-119.5" font-family="Helvetica,sans-Serif" font-size="10.00">limits</text>
</g>
<!-- Node1&#45;&gt;Node4 -->
<g id="edge3" class="edge"><title>Node1&#45;&gt;Node4</title>
<path fill="none" stroke="midnightblue" d="M151.725,-168.083C146.358,-160.455 138.482,-149.264 131.921,-139.941"/>
<polygon fill="midnightblue" stroke="midnightblue" points="134.775,-137.915 126.158,-131.751 129.051,-141.943 134.775,-137.915"/>
</g>
<!-- Node5 -->
<g id="node5" class="node"><title>Node5</title>
<g id="a_node5"><a xlink:href="SAT__Const_8h.html" target="_top" xlink:title="SAT_Const.h">
<polygon fill="white" stroke="black" points="158,-112.5 158,-131.5 234,-131.5 234,-112.5 158,-112.5"/>
<text text-anchor="middle" x="196" y="-119.5" font-family="Helvetica,sans-Serif" font-size="10.00">SAT_Const.h</text>
</a>
</g>
</g>
<!-- Node1&#45;&gt;Node5 -->
<g id="edge4" class="edge"><title>Node1&#45;&gt;Node5</title>
<path fill="none" stroke="midnightblue" d="M164.275,-168.083C169.642,-160.455 177.518,-149.264 184.079,-139.941"/>
<polygon fill="midnightblue" stroke="midnightblue" points="186.949,-141.943 189.842,-131.751 181.225,-137.915 186.949,-141.943"/>
</g>
<!-- Node6 -->
<g id="node6" class="node"><title>Node6</title>
<g id="a_node6"><a xlink:href="SAT__Kepler_8h.html" target="_top" xlink:title="SAT_Kepler.h">
<polygon fill="white" stroke="black" points="252.5,-112.5 252.5,-131.5 329.5,-131.5 329.5,-112.5 252.5,-112.5"/>
<text text-anchor="middle" x="291" y="-119.5" font-family="Helvetica,sans-Serif" font-size="10.00">SAT_Kepler.h</text>
</a>
</g>
</g>
<!-- Node1&#45;&gt;Node6 -->
<g id="edge5" class="edge"><title>Node1&#45;&gt;Node6</title>
<path fill="none" stroke="midnightblue" d="M179.074,-168.444C201.06,-159.517 235.734,-145.439 260.664,-135.317"/>
<polygon fill="midnightblue" stroke="midnightblue" points="262.076,-138.521 270.024,-131.516 259.442,-132.035 262.076,-138.521"/>
</g>
<!-- Node7 -->
<g id="node7" class="node"><title>Node7</title>
<g id="a_node7"><a xlink:href="SAT__VecMat_8h.html" target="_top" xlink:title="SAT_VecMat.h">
<polygon fill="white" stroke="black" points="249.5,-56.5 249.5,-75.5 332.5,-75.5 332.5,-56.5 249.5,-56.5"/>
<text text-anchor="middle" x="291" y="-63.5" font-family="Helvetica,sans-Serif" font-size="10.00">SAT_VecMat.h</text>
</a>
</g>
</g>
<!-- Node1&#45;&gt;Node7 -->
<g id="edge9" class="edge"><title>Node1&#45;&gt;Node7</title>
<path fill="none" stroke="midnightblue" d="M202.138,-172.152C249.891,-165.891 321.447,-153.2 338,-132 351.257,-115.021 331.332,-94.8285 313.486,-81.5054"/>
<polygon fill="midnightblue" stroke="midnightblue" points="315.237,-78.458 305.046,-75.5609 311.206,-84.1809 315.237,-78.458"/>
</g>
<!-- Node6&#45;&gt;Node7 -->
<g id="edge6" class="edge"><title>Node6&#45;&gt;Node7</title>
<path fill="none" stroke="midnightblue" d="M291,-112.083C291,-105.006 291,-94.8611 291,-85.9865"/>
<polygon fill="midnightblue" stroke="midnightblue" points="294.5,-85.751 291,-75.7511 287.5,-85.7511 294.5,-85.751"/>
</g>
<!-- Node7&#45;&gt;Node3 -->
<g id="edge7" class="edge"><title>Node7&#45;&gt;Node3</title>
<path fill="none" stroke="midnightblue" d="M268.341,-56.4435C244.598,-47.4776 207.091,-33.314 180.262,-23.1827"/>
<polygon fill="midnightblue" stroke="midnightblue" points="181.144,-19.7749 170.553,-19.5164 178.671,-26.3235 181.144,-19.7749"/>
</g>
<!-- Node8 -->
<g id="node8" class="node"><title>Node8</title>
<polygon fill="white" stroke="#bfbfbf" points="268.5,-0.5 268.5,-19.5 313.5,-19.5 313.5,-0.5 268.5,-0.5"/>
<text text-anchor="middle" x="291" y="-7.5" font-family="Helvetica,sans-Serif" font-size="10.00">cstdlib</text>
</g>
<!-- Node7&#45;&gt;Node8 -->
<g id="edge8" class="edge"><title>Node7&#45;&gt;Node8</title>
<path fill="none" stroke="midnightblue" d="M291,-56.083C291,-49.0059 291,-38.8611 291,-29.9865"/>
<polygon fill="midnightblue" stroke="midnightblue" points="294.5,-29.751 291,-19.7511 287.5,-29.7511 294.5,-29.751"/>
</g>
</g>
</svg>
