<?xml version="1.0" encoding="UTF-8" standalone="no"?>
<!DOCTYPE svg PUBLIC "-//W3C//DTD SVG 1.1//EN"
 "http://www.w3.org/Graphics/SVG/1.1/DTD/svg11.dtd">
<!-- Generated by graphviz version 2.30.1 (20180420.1509)
 -->
<!-- Title: SAT_Time.h Pages: 1 -->
<svg width="357pt" height="84pt"
 viewBox="0.00 0.00 357.00 84.00" xmlns="http://www.w3.org/2000/svg" xmlns:xlink="http://www.w3.org/1999/xlink">
<g id="graph0" class="graph" transform="scale(1 1) rotate(0) translate(4 80)">
<title>SAT_Time.h</title>
<polygon fill="white" stroke="white" points="-4,5 -4,-80 354,-80 354,5 -4,5"/>
<!-- Node1 -->
<g id="node1" class="node"><title>Node1</title>
<polygon fill="#bfbfbf" stroke="black" points="130.5,-56.5 130.5,-75.5 201.5,-75.5 201.5,-56.5 130.5,-56.5"/>
<text text-anchor="middle" x="166" y="-63.5" font-family="Helvetica,sans-Serif" font-size="10.00">SAT_Time.h</text>
</g>
<!-- Node2 -->
<g id="node2" class="node"><title>Node2</title>
<g id="a_node2"><a xlink:href="GEODA_8cpp.html" target="_top" xlink:title="GEODA.cpp">
<polygon fill="white" stroke="black" points="-0.5,-0.5 -0.5,-19.5 70.5,-19.5 70.5,-0.5 -0.5,-0.5"/>
<text text-anchor="middle" x="35" y="-7.5" font-family="Helvetica,sans-Serif" font-size="10.00">GEODA.cpp</text>
</a>
</g>
</g>
<!-- Node1&#45;&gt;Node2 -->
<g id="edge1" class="edge"><title>Node1&#45;&gt;Node2</title>
<path fill="none" stroke="midnightblue" d="M135.683,-52.503C111.124,-42.3795 77.182,-28.388 55.6602,-19.5164"/>
<polygon fill="midnightblue" stroke="midnightblue" points="134.663,-55.8683 145.243,-56.4435 137.331,-49.3966 134.663,-55.8683"/>
</g>
<!-- Node3 -->
<g id="node3" class="node"><title>Node3</title>
<g id="a_node3"><a xlink:href="RTOD_8cpp.html" target="_top" xlink:title="RTOD.cpp">
<polygon fill="white" stroke="black" points="89,-0.5 89,-19.5 153,-19.5 153,-0.5 89,-0.5"/>
<text text-anchor="middle" x="121" y="-7.5" font-family="Helvetica,sans-Serif" font-size="10.00">RTOD.cpp</text>
</a>
</g>
</g>
<!-- Node1&#45;&gt;Node3 -->
<g id="edge2" class="edge"><title>Node1&#45;&gt;Node3</title>
<path fill="none" stroke="midnightblue" d="M151.953,-48.144C144.113,-38.7357 134.671,-27.4046 128.293,-19.7511"/>
<polygon fill="midnightblue" stroke="midnightblue" points="149.479,-50.6414 158.569,-56.083 154.856,-46.1601 149.479,-50.6414"/>
</g>
<!-- Node4 -->
<g id="node4" class="node"><title>Node4</title>
<g id="a_node4"><a xlink:href="SAT__Time_8cpp.html" target="_top" xlink:title="SAT_Time.cpp">
<polygon fill="white" stroke="black" points="171,-0.5 171,-19.5 253,-19.5 253,-0.5 171,-0.5"/>
<text text-anchor="middle" x="212" y="-7.5" font-family="Helvetica,sans-Serif" font-size="10.00">SAT_Time.cpp</text>
</a>
</g>
</g>
<!-- Node1&#45;&gt;Node4 -->
<g id="edge3" class="edge"><title>Node1&#45;&gt;Node4</title>
<path fill="none" stroke="midnightblue" d="M180.114,-48.4314C188.176,-38.9673 197.959,-27.4827 204.545,-19.7511"/>
<polygon fill="midnightblue" stroke="midnightblue" points="177.416,-46.2009 173.596,-56.083 182.745,-50.7402 177.416,-46.2009"/>
</g>
<!-- Node5 -->
<g id="node5" class="node"><title>Node5</title>
<g id="a_node5"><a xlink:href="TDRSOD_8cpp.html" target="_top" xlink:title="TDRSOD.cpp">
<polygon fill="white" stroke="black" points="271,-0.5 271,-19.5 349,-19.5 349,-0.5 271,-0.5"/>
<text text-anchor="middle" x="310" y="-7.5" font-family="Helvetica,sans-Serif" font-size="10.00">TDRSOD.cpp</text>
</a>
</g>
</g>
<!-- Node1&#45;&gt;Node5 -->
<g id="edge4" class="edge"><title>Node1&#45;&gt;Node5</title>
<path fill="none" stroke="midnightblue" d="M198.251,-52.9058C225.324,-42.7536 263.317,-28.5063 287.29,-19.5164"/>
<polygon fill="midnightblue" stroke="midnightblue" points="196.952,-49.6551 188.817,-56.4435 199.409,-56.2094 196.952,-49.6551"/>
</g>
</g>
</svg>
