<?xml version="1.0" encoding="UTF-8" standalone="no"?>
<!DOCTYPE svg PUBLIC "-//W3C//DTD SVG 1.1//EN"
 "http://www.w3.org/Graphics/SVG/1.1/DTD/svg11.dtd">
<!-- Generated by graphviz version 2.30.1 (20180420.1509)
 -->
<!-- Title: NutMatrixSimple Pages: 1 -->
<svg width="256pt" height="164pt"
 viewBox="0.00 0.00 256.00 164.00" xmlns="http://www.w3.org/2000/svg" xmlns:xlink="http://www.w3.org/1999/xlink">
<g id="graph0" class="graph" transform="scale(1 1) rotate(0) translate(4 160)">
<title>NutMatrixSimple</title>
<polygon fill="white" stroke="white" points="-4,5 -4,-160 253,-160 253,5 -4,5"/>
<!-- Node1 -->
<g id="node1" class="node"><title>Node1</title>
<polygon fill="#bfbfbf" stroke="black" points="0.5,-60.5 0.5,-79.5 89.5,-79.5 89.5,-60.5 0.5,-60.5"/>
<text text-anchor="middle" x="45" y="-67.5" font-family="Helvetica,sans-Serif" font-size="10.00">NutMatrixSimple</text>
</g>
<!-- Node2 -->
<g id="node2" class="node"><title>Node2</title>
<g id="a_node2"><a xlink:href="namespaceanonymous__namespace_02SAT__Kepler_8cpp_03.html#a898091d856dff0d563448625b7634f16" target="_top" xlink:title="anonymous_namespace\l\{SAT_Kepler::cpp\}::F">
<polygon fill="white" stroke="black" points="126,-126 126,-156 248,-156 248,-126 126,-126"/>
<text text-anchor="start" x="134" y="-144" font-family="Helvetica,sans-Serif" font-size="10.00">anonymous_namespace</text>
<text text-anchor="middle" x="187" y="-133" font-family="Helvetica,sans-Serif" font-size="10.00">{SAT_Kepler::cpp}::F</text>
</a>
</g>
</g>
<!-- Node1&#45;&gt;Node2 -->
<g id="edge1" class="edge"><title>Node1&#45;&gt;Node2</title>
<path fill="none" stroke="midnightblue" d="M61.3173,-79.5878C77.1897,-89.3359 102.868,-104.588 126,-116 130.037,-117.992 134.273,-119.97 138.547,-121.89"/>
<polygon fill="midnightblue" stroke="midnightblue" points="137.34,-125.182 147.905,-125.984 140.146,-118.769 137.34,-125.182"/>
</g>
<!-- Node3 -->
<g id="node3" class="node"><title>Node3</title>
<g id="a_node3"><a xlink:href="namespaceanonymous__namespace_02SAT__Force_8cpp_03.html#aa6826b33621fa6ff5736c6432c487c1a" target="_top" xlink:title="anonymous_namespace\l\{SAT_Force::cpp\}::Frac">
<polygon fill="white" stroke="black" points="126,-77 126,-107 248,-107 248,-77 126,-77"/>
<text text-anchor="start" x="134" y="-95" font-family="Helvetica,sans-Serif" font-size="10.00">anonymous_namespace</text>
<text text-anchor="middle" x="187" y="-84" font-family="Helvetica,sans-Serif" font-size="10.00">{SAT_Force::cpp}::Frac</text>
</a>
</g>
</g>
<!-- Node1&#45;&gt;Node3 -->
<g id="edge2" class="edge"><title>Node1&#45;&gt;Node3</title>
<path fill="none" stroke="midnightblue" d="M89.5295,-76.8403C97.8692,-78.1509 106.797,-79.5538 115.73,-80.9576"/>
<polygon fill="midnightblue" stroke="midnightblue" points="115.366,-84.4432 125.788,-82.5381 116.453,-77.5281 115.366,-84.4432"/>
</g>
<!-- Node4 -->
<g id="node4" class="node"><title>Node4</title>
<g id="a_node4"><a xlink:href="SAT__VecMat_8cpp.html#ae452267b1d1da6280386846d97ec4e4f" target="_top" xlink:title="R_x">
<polygon fill="white" stroke="black" points="169.5,-38.5 169.5,-57.5 204.5,-57.5 204.5,-38.5 169.5,-38.5"/>
<text text-anchor="middle" x="187" y="-45.5" font-family="Helvetica,sans-Serif" font-size="10.00">R_x</text>
</a>
</g>
</g>
<!-- Node1&#45;&gt;Node4 -->
<g id="edge3" class="edge"><title>Node1&#45;&gt;Node4</title>
<path fill="none" stroke="midnightblue" d="M89.5295,-63.1597C112.285,-59.5837 139.418,-55.32 159.104,-52.2265"/>
<polygon fill="midnightblue" stroke="midnightblue" points="159.864,-55.6501 169.2,-50.64 158.778,-48.7349 159.864,-55.6501"/>
</g>
<!-- Node5 -->
<g id="node5" class="node"><title>Node5</title>
<g id="a_node5"><a xlink:href="SAT__VecMat_8cpp.html#a94c9c4e1f3afc6636dda6572f72ef4c2" target="_top" xlink:title="R_z">
<polygon fill="white" stroke="black" points="169.5,-0.5 169.5,-19.5 204.5,-19.5 204.5,-0.5 169.5,-0.5"/>
<text text-anchor="middle" x="187" y="-7.5" font-family="Helvetica,sans-Serif" font-size="10.00">R_z</text>
</a>
</g>
</g>
<!-- Node1&#45;&gt;Node5 -->
<g id="edge4" class="edge"><title>Node1&#45;&gt;Node5</title>
<path fill="none" stroke="midnightblue" d="M62.7769,-60.3578C78.7016,-51.4587 103.483,-38.2593 126,-29 136.762,-24.5744 148.954,-20.5427 159.524,-17.3431"/>
<polygon fill="midnightblue" stroke="midnightblue" points="160.827,-20.6084 169.439,-14.4372 158.858,-13.891 160.827,-20.6084"/>
</g>
</g>
</svg>
