<?xml version="1.0" encoding="UTF-8" standalone="no"?>
<!DOCTYPE svg PUBLIC "-//W3C//DTD SVG 1.1//EN"
 "http://www.w3.org/Graphics/SVG/1.1/DTD/svg11.dtd">
<!-- Generated by graphviz version 2.30.1 (20180420.1509)
 -->
<!-- Title: EccAnom Pages: 1 -->
<svg width="346pt" height="66pt"
 viewBox="0.00 0.00 346.00 66.00" xmlns="http://www.w3.org/2000/svg" xmlns:xlink="http://www.w3.org/1999/xlink">
<g id="graph0" class="graph" transform="scale(1 1) rotate(0) translate(4 62)">
<title>EccAnom</title>
<polygon fill="white" stroke="white" points="-4,5 -4,-62 343,-62 343,5 -4,5"/>
<!-- Node1 -->
<g id="node1" class="node"><title>Node1</title>
<polygon fill="#bfbfbf" stroke="black" points="0.5,-19.5 0.5,-38.5 59.5,-38.5 59.5,-19.5 0.5,-19.5"/>
<text text-anchor="middle" x="30" y="-26.5" font-family="Helvetica,sans-Serif" font-size="10.00">EccAnom</text>
</g>
<!-- Node2 -->
<g id="node2" class="node"><title>Node2</title>
<g id="a_node2"><a xlink:href="SAT__Kepler_8h.html#ad89a224ad24d23f6059beb84e1c0817f" target="_top" xlink:title="State">
<polygon fill="white" stroke="black" points="113,-38.5 113,-57.5 153,-57.5 153,-38.5 113,-38.5"/>
<text text-anchor="middle" x="133" y="-45.5" font-family="Helvetica,sans-Serif" font-size="10.00">State</text>
</a>
</g>
</g>
<!-- Node1&#45;&gt;Node2 -->
<g id="edge1" class="edge"><title>Node1&#45;&gt;Node2</title>
<path fill="none" stroke="midnightblue" d="M69.6167,-36.2645C84.4108,-39.0476 100.647,-42.102 112.847,-44.3969"/>
<polygon fill="midnightblue" stroke="midnightblue" points="70.1471,-32.803 59.6724,-34.3938 68.8529,-39.6823 70.1471,-32.803"/>
</g>
<!-- Node5 -->
<g id="node5" class="node"><title>Node5</title>
<g id="a_node5"><a xlink:href="SAT__Kepler_8h.html#ad41abe3ee1647b2de98425457c6fdce2" target="_top" xlink:title="StatePartials">
<polygon fill="white" stroke="black" points="96.5,-0.5 96.5,-19.5 169.5,-19.5 169.5,-0.5 96.5,-0.5"/>
<text text-anchor="middle" x="133" y="-7.5" font-family="Helvetica,sans-Serif" font-size="10.00">StatePartials</text>
</a>
</g>
</g>
<!-- Node1&#45;&gt;Node5 -->
<g id="edge4" class="edge"><title>Node1&#45;&gt;Node5</title>
<path fill="none" stroke="midnightblue" d="M69.6868,-21.7223C78.474,-20.0692 87.7667,-18.3211 96.4178,-16.6937"/>
<polygon fill="midnightblue" stroke="midnightblue" points="68.8529,-18.3177 59.6724,-23.6062 70.1471,-25.197 68.8529,-18.3177"/>
</g>
<!-- Node3 -->
<g id="node3" class="node"><title>Node3</title>
<g id="a_node3"><a xlink:href="SAT__Kepler_8h.html#aeb2175e4cdc39ea590f44fc2949ea8d3" target="_top" xlink:title="TwoBody">
<polygon fill="white" stroke="black" points="206,-19.5 206,-38.5 264,-38.5 264,-19.5 206,-19.5"/>
<text text-anchor="middle" x="235" y="-26.5" font-family="Helvetica,sans-Serif" font-size="10.00">TwoBody</text>
</a>
</g>
</g>
<!-- Node2&#45;&gt;Node3 -->
<g id="edge2" class="edge"><title>Node2&#45;&gt;Node3</title>
<path fill="none" stroke="midnightblue" d="M163.388,-42.4164C176.742,-39.8791 192.474,-36.89 205.695,-34.378"/>
<polygon fill="midnightblue" stroke="midnightblue" points="162.452,-39.0314 153.281,-44.3366 163.759,-45.9084 162.452,-39.0314"/>
</g>
<!-- Node4 -->
<g id="node4" class="node"><title>Node4</title>
<g id="a_node4"><a xlink:href="RTOD_8cpp.html#a0ddf1224851353fc92bfbff6f499fa97" target="_top" xlink:title="main">
<polygon fill="white" stroke="black" points="300,-19.5 300,-38.5 338,-38.5 338,-19.5 300,-19.5"/>
<text text-anchor="middle" x="319" y="-26.5" font-family="Helvetica,sans-Serif" font-size="10.00">main</text>
</a>
</g>
</g>
<!-- Node3&#45;&gt;Node4 -->
<g id="edge3" class="edge"><title>Node3&#45;&gt;Node4</title>
<path fill="none" stroke="midnightblue" d="M274.338,-29C283.103,-29 292.032,-29 299.511,-29"/>
<polygon fill="midnightblue" stroke="midnightblue" points="274.22,-25.5001 264.22,-29 274.22,-32.5001 274.22,-25.5001"/>
</g>
<!-- Node5&#45;&gt;Node3 -->
<g id="edge5" class="edge"><title>Node5&#45;&gt;Node3</title>
<path fill="none" stroke="midnightblue" d="M179.507,-18.6463C188.465,-20.3483 197.616,-22.0871 205.799,-23.6418"/>
<polygon fill="midnightblue" stroke="midnightblue" points="180.015,-15.1804 169.538,-16.7522 178.709,-22.0574 180.015,-15.1804"/>
</g>
</g>
</svg>
