<?xml version="1.0" encoding="UTF-8" standalone="no"?>
<!DOCTYPE svg PUBLIC "-//W3C//DTD SVG 1.1//EN"
 "http://www.w3.org/Graphics/SVG/1.1/DTD/svg11.dtd">
<!-- Generated by graphviz version 2.30.1 (20180420.1509)
 -->
<!-- Title: SAT_RefSys.cpp Pages: 1 -->
<svg width="315pt" height="196pt"
 viewBox="0.00 0.00 315.00 196.00" xmlns="http://www.w3.org/2000/svg" xmlns:xlink="http://www.w3.org/1999/xlink">
<g id="graph0" class="graph" transform="scale(1 1) rotate(0) translate(4 192)">
<title>SAT_RefSys.cpp</title>
<polygon fill="white" stroke="white" points="-4,5 -4,-192 312,-192 312,5 -4,5"/>
<!-- Node1 -->
<g id="node1" class="node"><title>Node1</title>
<polygon fill="#bfbfbf" stroke="black" points="97.5,-168.5 97.5,-187.5 190.5,-187.5 190.5,-168.5 97.5,-168.5"/>
<text text-anchor="middle" x="144" y="-175.5" font-family="Helvetica,sans-Serif" font-size="10.00">SAT_RefSys.cpp</text>
</g>
<!-- Node2 -->
<g id="node2" class="node"><title>Node2</title>
<polygon fill="white" stroke="#bfbfbf" points="0,-112.5 0,-131.5 44,-131.5 44,-112.5 0,-112.5"/>
<text text-anchor="middle" x="22" y="-119.5" font-family="Helvetica,sans-Serif" font-size="10.00">cmath</text>
</g>
<!-- Node1&#45;&gt;Node2 -->
<g id="edge1" class="edge"><title>Node1&#45;&gt;Node2</title>
<path fill="none" stroke="midnightblue" d="M124.669,-168.444C104.68,-159.596 73.2569,-145.687 50.4361,-135.586"/>
<polygon fill="midnightblue" stroke="midnightblue" points="51.8018,-132.363 41.2408,-131.516 48.9685,-138.764 51.8018,-132.363"/>
</g>
<!-- Node3 -->
<g id="node3" class="node"><title>Node3</title>
<polygon fill="white" stroke="#bfbfbf" points="108,-0.5 108,-19.5 162,-19.5 162,-0.5 108,-0.5"/>
<text text-anchor="middle" x="135" y="-7.5" font-family="Helvetica,sans-Serif" font-size="10.00">iostream</text>
</g>
<!-- Node1&#45;&gt;Node3 -->
<g id="edge2" class="edge"><title>Node1&#45;&gt;Node3</title>
<path fill="none" stroke="midnightblue" d="M127.666,-168.387C115.045,-160.72 98.5028,-148.213 91,-132 74.2682,-95.8445 102.162,-51.3826 120.653,-27.7055"/>
<polygon fill="midnightblue" stroke="midnightblue" points="123.565,-29.6729 127.167,-19.7093 118.137,-25.2517 123.565,-29.6729"/>
</g>
<!-- Node4 -->
<g id="node4" class="node"><title>Node4</title>
<polygon fill="white" stroke="#bfbfbf" points="100,-112.5 100,-131.5 140,-131.5 140,-112.5 100,-112.5"/>
<text text-anchor="middle" x="120" y="-119.5" font-family="Helvetica,sans-Serif" font-size="10.00">limits</text>
</g>
<!-- Node1&#45;&gt;Node4 -->
<g id="edge3" class="edge"><title>Node1&#45;&gt;Node4</title>
<path fill="none" stroke="midnightblue" d="M140.037,-168.083C136.787,-160.77 132.081,-150.181 128.046,-141.103"/>
<polygon fill="midnightblue" stroke="midnightblue" points="131.149,-139.468 123.889,-131.751 124.752,-142.311 131.149,-139.468"/>
</g>
<!-- Node5 -->
<g id="node5" class="node"><title>Node5</title>
<g id="a_node5"><a xlink:href="SAT__Const_8h.html" target="_top" xlink:title="SAT_Const.h">
<polygon fill="white" stroke="black" points="130,-56.5 130,-75.5 206,-75.5 206,-56.5 130,-56.5"/>
<text text-anchor="middle" x="168" y="-63.5" font-family="Helvetica,sans-Serif" font-size="10.00">SAT_Const.h</text>
</a>
</g>
</g>
<!-- Node1&#45;&gt;Node5 -->
<g id="edge4" class="edge"><title>Node1&#45;&gt;Node5</title>
<path fill="none" stroke="midnightblue" d="M145.883,-168.368C149.756,-150.617 158.691,-109.666 163.942,-85.5974"/>
<polygon fill="midnightblue" stroke="midnightblue" points="167.413,-86.1077 166.126,-75.5914 160.574,-84.6155 167.413,-86.1077"/>
</g>
<!-- Node6 -->
<g id="node6" class="node"><title>Node6</title>
<g id="a_node6"><a xlink:href="SAT__RefSys_8h.html" target="_top" xlink:title="SAT_RefSys.h">
<polygon fill="white" stroke="black" points="196.5,-112.5 196.5,-131.5 279.5,-131.5 279.5,-112.5 196.5,-112.5"/>
<text text-anchor="middle" x="238" y="-119.5" font-family="Helvetica,sans-Serif" font-size="10.00">SAT_RefSys.h</text>
</a>
</g>
</g>
<!-- Node1&#45;&gt;Node6 -->
<g id="edge5" class="edge"><title>Node1&#45;&gt;Node6</title>
<path fill="none" stroke="midnightblue" d="M159.103,-168.324C173.903,-159.822 196.694,-146.729 213.982,-136.797"/>
<polygon fill="midnightblue" stroke="midnightblue" points="216.007,-139.671 222.935,-131.655 212.52,-133.601 216.007,-139.671"/>
</g>
<!-- Node7 -->
<g id="node7" class="node"><title>Node7</title>
<g id="a_node7"><a xlink:href="SAT__VecMat_8h.html" target="_top" xlink:title="SAT_VecMat.h">
<polygon fill="white" stroke="black" points="224.5,-56.5 224.5,-75.5 307.5,-75.5 307.5,-56.5 224.5,-56.5"/>
<text text-anchor="middle" x="266" y="-63.5" font-family="Helvetica,sans-Serif" font-size="10.00">SAT_VecMat.h</text>
</a>
</g>
</g>
<!-- Node1&#45;&gt;Node7 -->
<g id="edge10" class="edge"><title>Node1&#45;&gt;Node7</title>
<path fill="none" stroke="midnightblue" d="M190.781,-176.04C223.778,-172.608 265.892,-162.072 288,-132 298.536,-117.67 289.3,-97.9466 279.771,-83.9948"/>
<polygon fill="midnightblue" stroke="midnightblue" points="282.441,-81.7196 273.672,-75.7746 276.82,-85.8909 282.441,-81.7196"/>
</g>
<!-- Node6&#45;&gt;Node5 -->
<g id="edge6" class="edge"><title>Node6&#45;&gt;Node5</title>
<path fill="none" stroke="midnightblue" d="M226.753,-112.324C216.203,-104.185 200.199,-91.8395 187.558,-82.0874"/>
<polygon fill="midnightblue" stroke="midnightblue" points="189.507,-79.1707 179.451,-75.8339 185.231,-84.7132 189.507,-79.1707"/>
</g>
<!-- Node6&#45;&gt;Node7 -->
<g id="edge7" class="edge"><title>Node6&#45;&gt;Node7</title>
<path fill="none" stroke="midnightblue" d="M242.624,-112.083C246.456,-104.691 252.024,-93.9533 256.765,-84.8111"/>
<polygon fill="midnightblue" stroke="midnightblue" points="259.966,-86.2398 261.462,-75.7511 253.752,-83.0175 259.966,-86.2398"/>
</g>
<!-- Node7&#45;&gt;Node3 -->
<g id="edge8" class="edge"><title>Node7&#45;&gt;Node3</title>
<path fill="none" stroke="midnightblue" d="M245.243,-56.4435C223.684,-47.5566 189.737,-33.5632 165.206,-23.4514"/>
<polygon fill="midnightblue" stroke="midnightblue" points="166.239,-20.0917 155.66,-19.5164 163.572,-26.5634 166.239,-20.0917"/>
</g>
<!-- Node8 -->
<g id="node8" class="node"><title>Node8</title>
<polygon fill="white" stroke="#bfbfbf" points="243.5,-0.5 243.5,-19.5 288.5,-19.5 288.5,-0.5 243.5,-0.5"/>
<text text-anchor="middle" x="266" y="-7.5" font-family="Helvetica,sans-Serif" font-size="10.00">cstdlib</text>
</g>
<!-- Node7&#45;&gt;Node8 -->
<g id="edge9" class="edge"><title>Node7&#45;&gt;Node8</title>
<path fill="none" stroke="midnightblue" d="M266,-56.083C266,-49.0059 266,-38.8611 266,-29.9865"/>
<polygon fill="midnightblue" stroke="midnightblue" points="269.5,-29.751 266,-19.7511 262.5,-29.7511 269.5,-29.751"/>
</g>
</g>
</svg>
