<?xml version="1.0" encoding="UTF-8" standalone="no"?>
<!DOCTYPE svg PUBLIC "-//W3C//DTD SVG 1.1//EN"
 "http://www.w3.org/Graphics/SVG/1.1/DTD/svg11.dtd">
<!-- Generated by graphviz version 2.30.1 (20180420.1509)
 -->
<!-- Title: PoleMatrix Pages: 1 -->
<svg width="184pt" height="142pt"
 viewBox="0.00 0.00 184.00 142.00" xmlns="http://www.w3.org/2000/svg" xmlns:xlink="http://www.w3.org/1999/xlink">
<g id="graph0" class="graph" transform="scale(1 1) rotate(0) translate(4 138)">
<title>PoleMatrix</title>
<polygon fill="white" stroke="white" points="-4,5 -4,-138 181,-138 181,5 -4,5"/>
<!-- Node1 -->
<g id="node1" class="node"><title>Node1</title>
<polygon fill="#bfbfbf" stroke="black" points="0.5,-57.5 0.5,-76.5 63.5,-76.5 63.5,-57.5 0.5,-57.5"/>
<text text-anchor="middle" x="32" y="-64.5" font-family="Helvetica,sans-Serif" font-size="10.00">PoleMatrix</text>
</g>
<!-- Node2 -->
<g id="node2" class="node"><title>Node2</title>
<g id="a_node2"><a xlink:href="SAT__VecMat_8cpp.html#a66b3b116958d5c2f1c528faa04c71674" target="_top" xlink:title="R_y">
<polygon fill="white" stroke="black" points="120.5,-114.5 120.5,-133.5 155.5,-133.5 155.5,-114.5 120.5,-114.5"/>
<text text-anchor="middle" x="138" y="-121.5" font-family="Helvetica,sans-Serif" font-size="10.00">R_y</text>
</a>
</g>
</g>
<!-- Node1&#45;&gt;Node2 -->
<g id="edge1" class="edge"><title>Node1&#45;&gt;Node2</title>
<path fill="none" stroke="midnightblue" d="M49.4142,-76.5618C62.9134,-84.3644 82.5857,-95.5956 100,-105 103.614,-106.952 107.448,-108.974 111.226,-110.939"/>
<polygon fill="midnightblue" stroke="midnightblue" points="109.853,-114.169 120.346,-115.634 113.057,-107.945 109.853,-114.169"/>
</g>
<!-- Node3 -->
<g id="node3" class="node"><title>Node3</title>
<g id="a_node3"><a xlink:href="classIERS.html#aa6619a8885c83540cf92a32510285edb" target="_top" xlink:title="IERS::x_pole">
<polygon fill="white" stroke="black" points="100.5,-76.5 100.5,-95.5 175.5,-95.5 175.5,-76.5 100.5,-76.5"/>
<text text-anchor="middle" x="138" y="-83.5" font-family="Helvetica,sans-Serif" font-size="10.00">IERS::x_pole</text>
</a>
</g>
</g>
<!-- Node1&#45;&gt;Node3 -->
<g id="edge2" class="edge"><title>Node1&#45;&gt;Node3</title>
<path fill="none" stroke="midnightblue" d="M63.6409,-72.5979C71.9993,-74.1249 81.2489,-75.8147 90.2834,-77.4652"/>
<polygon fill="midnightblue" stroke="midnightblue" points="89.8673,-80.9471 100.333,-79.3013 91.1253,-74.061 89.8673,-80.9471"/>
</g>
<!-- Node4 -->
<g id="node4" class="node"><title>Node4</title>
<g id="a_node4"><a xlink:href="SAT__VecMat_8cpp.html#ae452267b1d1da6280386846d97ec4e4f" target="_top" xlink:title="R_x">
<polygon fill="white" stroke="black" points="120.5,-38.5 120.5,-57.5 155.5,-57.5 155.5,-38.5 120.5,-38.5"/>
<text text-anchor="middle" x="138" y="-45.5" font-family="Helvetica,sans-Serif" font-size="10.00">R_x</text>
</a>
</g>
</g>
<!-- Node1&#45;&gt;Node4 -->
<g id="edge3" class="edge"><title>Node1&#45;&gt;Node4</title>
<path fill="none" stroke="midnightblue" d="M63.6409,-61.4021C78.4423,-58.698 96.0381,-55.4834 110.286,-52.8804"/>
<polygon fill="midnightblue" stroke="midnightblue" points="111.219,-56.2679 120.427,-51.0277 109.961,-49.3819 111.219,-56.2679"/>
</g>
<!-- Node5 -->
<g id="node5" class="node"><title>Node5</title>
<g id="a_node5"><a xlink:href="classIERS.html#a685869b1f1ac92c0595f8be01307a2ce" target="_top" xlink:title="IERS::y_pole">
<polygon fill="white" stroke="black" points="100.5,-0.5 100.5,-19.5 175.5,-19.5 175.5,-0.5 100.5,-0.5"/>
<text text-anchor="middle" x="138" y="-7.5" font-family="Helvetica,sans-Serif" font-size="10.00">IERS::y_pole</text>
</a>
</g>
</g>
<!-- Node1&#45;&gt;Node5 -->
<g id="edge4" class="edge"><title>Node1&#45;&gt;Node5</title>
<path fill="none" stroke="midnightblue" d="M49.4142,-57.4382C62.9134,-49.6356 82.5857,-38.4044 100,-29 102.923,-27.4216 105.99,-25.797 109.055,-24.1937"/>
<polygon fill="midnightblue" stroke="midnightblue" points="110.824,-27.219 118.098,-19.5155 107.608,-21.0017 110.824,-27.219"/>
</g>
</g>
</svg>
