<?xml version="1.0" encoding="UTF-8" standalone="no"?>
<!DOCTYPE svg PUBLIC "-//W3C//DTD SVG 1.1//EN"
 "http://www.w3.org/Graphics/SVG/1.1/DTD/svg11.dtd">
<!-- Generated by graphviz version 2.30.1 (20180420.1509)
 -->
<!-- Title: TwoBody Pages: 1 -->
<svg width="612pt" height="348pt"
 viewBox="0.00 0.00 612.00 348.23" xmlns="http://www.w3.org/2000/svg" xmlns:xlink="http://www.w3.org/1999/xlink">
<g id="graph0" class="graph" transform="scale(1 1) rotate(0) translate(4 344.226)">
<title>TwoBody</title>
<polygon fill="white" stroke="white" points="-4,5 -4,-344.226 609,-344.226 609,5 -4,5"/>
<!-- Node1 -->
<g id="node1" class="node"><title>Node1</title>
<polygon fill="#bfbfbf" stroke="black" points="0,-114.5 0,-133.5 58,-133.5 58,-114.5 0,-114.5"/>
<text text-anchor="middle" x="29" y="-121.5" font-family="Helvetica,sans-Serif" font-size="10.00">TwoBody</text>
</g>
<!-- Node2 -->
<g id="node2" class="node"><title>Node2</title>
<g id="a_node2"><a xlink:href="SAT__Kepler_8cpp.html#a1d7fdd2727e376b6aa5a54877ca6a205" target="_top" xlink:title="Elements">
<polygon fill="white" stroke="black" points="102,-247.5 102,-266.5 160,-266.5 160,-247.5 102,-247.5"/>
<text text-anchor="middle" x="131" y="-254.5" font-family="Helvetica,sans-Serif" font-size="10.00">Elements</text>
</a>
</g>
</g>
<!-- Node1&#45;&gt;Node2 -->
<g id="edge1" class="edge"><title>Node1&#45;&gt;Node2</title>
<path fill="none" stroke="midnightblue" d="M37.1918,-133.565C53.7599,-155.601 94.8416,-210.239 116.36,-238.859"/>
<polygon fill="midnightblue" stroke="midnightblue" points="113.796,-241.273 122.604,-247.163 119.391,-237.067 113.796,-241.273"/>
</g>
<!-- Node9 -->
<g id="node9" class="node"><title>Node9</title>
<g id="a_node9"><a xlink:href="SAT__Kepler_8cpp.html#a451b90edb1cf7dcb4281dd26dfcacfaf" target="_top" xlink:title="State">
<polygon fill="white" stroke="black" points="111,-76.5 111,-95.5 151,-95.5 151,-76.5 111,-76.5"/>
<text text-anchor="middle" x="131" y="-83.5" font-family="Helvetica,sans-Serif" font-size="10.00">State</text>
</a>
</g>
</g>
<!-- Node1&#45;&gt;Node9 -->
<g id="edge9" class="edge"><title>Node1&#45;&gt;Node9</title>
<path fill="none" stroke="midnightblue" d="M55.2342,-114.411C69.2435,-109.087 86.723,-102.445 101.258,-96.9221"/>
<polygon fill="midnightblue" stroke="midnightblue" points="102.666,-100.131 110.771,-93.3071 100.18,-93.5876 102.666,-100.131"/>
</g>
<!-- Node15 -->
<g id="node15" class="node"><title>Node15</title>
<g id="a_node15"><a xlink:href="SAT__Kepler_8cpp.html#a0ad5246987cf2f6c19950ecf2aa00390" target="_top" xlink:title="StatePartials">
<polygon fill="white" stroke="black" points="94.5,-114.5 94.5,-133.5 167.5,-133.5 167.5,-114.5 94.5,-114.5"/>
<text text-anchor="middle" x="131" y="-121.5" font-family="Helvetica,sans-Serif" font-size="10.00">StatePartials</text>
</a>
</g>
</g>
<!-- Node1&#45;&gt;Node15 -->
<g id="edge16" class="edge"><title>Node1&#45;&gt;Node15</title>
<path fill="none" stroke="midnightblue" d="M58.1217,-124C66.1768,-124 75.1756,-124 84.0066,-124"/>
<polygon fill="midnightblue" stroke="midnightblue" points="84.2298,-127.5 94.2298,-124 84.2297,-120.5 84.2298,-127.5"/>
</g>
<!-- Node3 -->
<g id="node3" class="node"><title>Node3</title>
<g id="a_node3"><a xlink:href="classVector.html#ae58ec75ebd2a2d60775c2e0ee98a35ae" target="_top" xlink:title="Vector::slice">
<polygon fill="white" stroke="black" points="204.5,-304.5 204.5,-323.5 275.5,-323.5 275.5,-304.5 204.5,-304.5"/>
<text text-anchor="middle" x="240" y="-311.5" font-family="Helvetica,sans-Serif" font-size="10.00">Vector::slice</text>
</a>
</g>
</g>
<!-- Node2&#45;&gt;Node3 -->
<g id="edge2" class="edge"><title>Node2&#45;&gt;Node3</title>
<path fill="none" stroke="midnightblue" d="M150.151,-266.669C167.163,-275.731 192.805,-289.391 212.176,-299.711"/>
<polygon fill="midnightblue" stroke="midnightblue" points="210.646,-302.861 221.117,-304.474 213.937,-296.683 210.646,-302.861"/>
</g>
<!-- Node4 -->
<g id="node4" class="node"><title>Node4</title>
<g id="a_node4"><a xlink:href="SAT__VecMat_8cpp.html#ab712f21cc19675f37e17e08bb51a82b4" target="_top" xlink:title="Cross">
<polygon fill="white" stroke="black" points="218.5,-228.5 218.5,-247.5 261.5,-247.5 261.5,-228.5 218.5,-228.5"/>
<text text-anchor="middle" x="240" y="-235.5" font-family="Helvetica,sans-Serif" font-size="10.00">Cross</text>
</a>
</g>
</g>
<!-- Node2&#45;&gt;Node4 -->
<g id="edge3" class="edge"><title>Node2&#45;&gt;Node4</title>
<path fill="none" stroke="midnightblue" d="M160.113,-252.008C174.904,-249.382 193.065,-246.157 208.231,-243.464"/>
<polygon fill="midnightblue" stroke="midnightblue" points="208.941,-246.892 218.175,-241.698 207.717,-240 208.941,-246.892"/>
</g>
<!-- Node5 -->
<g id="node5" class="node"><title>Node5</title>
<g id="a_node5"><a xlink:href="SAT__VecMat_8cpp.html#a313ce8c9730e0bd08a1396f364f0486c" target="_top" xlink:title="Norm">
<polygon fill="white" stroke="black" points="219.5,-190.5 219.5,-209.5 260.5,-209.5 260.5,-190.5 219.5,-190.5"/>
<text text-anchor="middle" x="240" y="-197.5" font-family="Helvetica,sans-Serif" font-size="10.00">Norm</text>
</a>
</g>
</g>
<!-- Node2&#45;&gt;Node5 -->
<g id="edge4" class="edge"><title>Node2&#45;&gt;Node5</title>
<path fill="none" stroke="midnightblue" d="M150.151,-247.331C167.163,-238.269 192.805,-224.609 212.176,-214.289"/>
<polygon fill="midnightblue" stroke="midnightblue" points="213.937,-217.317 221.117,-209.526 210.646,-211.139 213.937,-217.317"/>
</g>
<!-- Node7 -->
<g id="node7" class="node"><title>Node7</title>
<g id="a_node7"><a xlink:href="namespaceanonymous__namespace_02SAT__Kepler_8cpp_03.html#ae5d42531d691a174363f296c22d23217" target="_top" xlink:title="anonymous_namespace\l\{SAT_Kepler::cpp\}::Modulo">
<polygon fill="white" stroke="black" points="312,-90 312,-120 446,-120 446,-90 312,-90"/>
<text text-anchor="start" x="320" y="-108" font-family="Helvetica,sans-Serif" font-size="10.00">anonymous_namespace</text>
<text text-anchor="middle" x="379" y="-97" font-family="Helvetica,sans-Serif" font-size="10.00">{SAT_Kepler::cpp}::Modulo</text>
</a>
</g>
</g>
<!-- Node2&#45;&gt;Node7 -->
<g id="edge6" class="edge"><title>Node2&#45;&gt;Node7</title>
<path fill="none" stroke="midnightblue" d="M160.13,-264.416C190.601,-270.832 239.712,-276.35 276,-257 326.535,-230.053 356.467,-165.722 369.761,-129.993"/>
<polygon fill="midnightblue" stroke="midnightblue" points="373.151,-130.907 373.215,-120.312 366.558,-128.554 373.151,-130.907"/>
</g>
<!-- Node6 -->
<g id="node6" class="node"><title>Node6</title>
<g id="a_node6"><a xlink:href="SAT__VecMat_8cpp.html#a71375a6ebee7fc40c1d45985175d82e5" target="_top" xlink:title="Dot">
<polygon fill="white" stroke="black" points="363,-266.5 363,-285.5 395,-285.5 395,-266.5 363,-266.5"/>
<text text-anchor="middle" x="379" y="-273.5" font-family="Helvetica,sans-Serif" font-size="10.00">Dot</text>
</a>
</g>
</g>
<!-- Node2&#45;&gt;Node6 -->
<g id="edge8" class="edge"><title>Node2&#45;&gt;Node6</title>
<path fill="none" stroke="midnightblue" d="M137.4,-266.558C147.727,-283.729 172.11,-319.283 204,-333 258.184,-356.306 325.235,-315.881 358.033,-291.868"/>
<polygon fill="midnightblue" stroke="midnightblue" points="360.466,-294.416 366.336,-285.596 356.247,-288.83 360.466,-294.416"/>
</g>
<!-- Node5&#45;&gt;Node6 -->
<g id="edge5" class="edge"><title>Node5&#45;&gt;Node6</title>
<path fill="none" stroke="midnightblue" d="M258.828,-209.624C264.341,-212.614 270.428,-215.931 276,-219 302.811,-233.768 333.452,-250.929 354.094,-262.532"/>
<polygon fill="midnightblue" stroke="midnightblue" points="352.393,-265.591 362.825,-267.444 355.825,-259.49 352.393,-265.591"/>
</g>
<!-- Node8 -->
<g id="node8" class="node"><title>Node8</title>
<g id="a_node8"><a xlink:href="namespaceanonymous__namespace_02SAT__Force_8cpp_03.html#aa6826b33621fa6ff5736c6432c487c1a" target="_top" xlink:title="anonymous_namespace\l\{SAT_Force::cpp\}::Frac">
<polygon fill="white" stroke="black" points="482,-90 482,-120 604,-120 604,-90 482,-90"/>
<text text-anchor="start" x="490" y="-108" font-family="Helvetica,sans-Serif" font-size="10.00">anonymous_namespace</text>
<text text-anchor="middle" x="543" y="-97" font-family="Helvetica,sans-Serif" font-size="10.00">{SAT_Force::cpp}::Frac</text>
</a>
</g>
</g>
<!-- Node7&#45;&gt;Node8 -->
<g id="edge7" class="edge"><title>Node7&#45;&gt;Node8</title>
<path fill="none" stroke="midnightblue" d="M446.359,-105C454.745,-105 463.348,-105 471.792,-105"/>
<polygon fill="midnightblue" stroke="midnightblue" points="471.987,-108.5 481.987,-105 471.987,-101.5 471.987,-108.5"/>
</g>
<!-- Node10 -->
<g id="node10" class="node"><title>Node10</title>
<g id="a_node10"><a xlink:href="SAT__Kepler_8cpp.html#a2ad531000471d74f459467a747a79aff" target="_top" xlink:title="EccAnom">
<polygon fill="white" stroke="black" points="210.5,-38.5 210.5,-57.5 269.5,-57.5 269.5,-38.5 210.5,-38.5"/>
<text text-anchor="middle" x="240" y="-45.5" font-family="Helvetica,sans-Serif" font-size="10.00">EccAnom</text>
</a>
</g>
</g>
<!-- Node9&#45;&gt;Node10 -->
<g id="edge10" class="edge"><title>Node9&#45;&gt;Node10</title>
<path fill="none" stroke="midnightblue" d="M151.129,-79.2064C165.3,-74.1739 185.049,-67.1602 202.236,-61.0565"/>
<polygon fill="midnightblue" stroke="midnightblue" points="203.745,-64.2346 211.997,-57.5898 201.402,-57.6383 203.745,-64.2346"/>
</g>
<!-- Node11 -->
<g id="node11" class="node"><title>Node11</title>
<g id="a_node11"><a xlink:href="SAT__VecMat_8cpp.html#a94c9c4e1f3afc6636dda6572f72ef4c2" target="_top" xlink:title="R_z">
<polygon fill="white" stroke="black" points="222.5,-114.5 222.5,-133.5 257.5,-133.5 257.5,-114.5 222.5,-114.5"/>
<text text-anchor="middle" x="240" y="-121.5" font-family="Helvetica,sans-Serif" font-size="10.00">R_z</text>
</a>
</g>
</g>
<!-- Node9&#45;&gt;Node11 -->
<g id="edge12" class="edge"><title>Node9&#45;&gt;Node11</title>
<path fill="none" stroke="midnightblue" d="M151.129,-92.7936C168.352,-98.91 193.815,-107.953 212.903,-114.732"/>
<polygon fill="midnightblue" stroke="midnightblue" points="211.897,-118.089 222.492,-118.137 214.24,-111.492 211.897,-118.089"/>
</g>
<!-- Node12 -->
<g id="node12" class="node"><title>Node12</title>
<g id="a_node12"><a xlink:href="SAT__VecMat_8cpp.html#ae452267b1d1da6280386846d97ec4e4f" target="_top" xlink:title="R_x">
<polygon fill="white" stroke="black" points="222.5,-76.5 222.5,-95.5 257.5,-95.5 257.5,-76.5 222.5,-76.5"/>
<text text-anchor="middle" x="240" y="-83.5" font-family="Helvetica,sans-Serif" font-size="10.00">R_x</text>
</a>
</g>
</g>
<!-- Node9&#45;&gt;Node12 -->
<g id="edge13" class="edge"><title>Node9&#45;&gt;Node12</title>
<path fill="none" stroke="midnightblue" d="M151.129,-86C168.193,-86 193.346,-86 212.373,-86"/>
<polygon fill="midnightblue" stroke="midnightblue" points="212.492,-89.5001 222.492,-86 212.492,-82.5001 212.492,-89.5001"/>
</g>
<!-- Node13 -->
<g id="node13" class="node"><title>Node13</title>
<g id="a_node13"><a xlink:href="SAT__VecMat_8cpp.html#ad3352c6f838a6a97403bc6f2d6bda5df" target="_top" xlink:title="Stack">
<polygon fill="white" stroke="black" points="219,-0.5 219,-19.5 261,-19.5 261,-0.5 219,-0.5"/>
<text text-anchor="middle" x="240" y="-7.5" font-family="Helvetica,sans-Serif" font-size="10.00">Stack</text>
</a>
</g>
</g>
<!-- Node9&#45;&gt;Node13 -->
<g id="edge14" class="edge"><title>Node9&#45;&gt;Node13</title>
<path fill="none" stroke="midnightblue" d="M142.777,-76.4963C156.48,-64.6452 181.115,-44.1078 204,-29 206.171,-27.5668 208.46,-26.1444 210.785,-24.7607"/>
<polygon fill="midnightblue" stroke="midnightblue" points="212.786,-27.6497 219.761,-19.6741 209.335,-21.5596 212.786,-27.6497"/>
</g>
<!-- Node10&#45;&gt;Node7 -->
<g id="edge11" class="edge"><title>Node10&#45;&gt;Node7</title>
<path fill="none" stroke="midnightblue" d="M263.931,-57.5405C282.609,-65.312 309.561,-76.5256 332.578,-86.1016"/>
<polygon fill="midnightblue" stroke="midnightblue" points="331.257,-89.3432 341.835,-89.9532 333.946,-82.8803 331.257,-89.3432"/>
</g>
<!-- Node14 -->
<g id="node14" class="node"><title>Node14</title>
<g id="a_node14"><a xlink:href="classVector.html#a3c8f59182463d6da833e7856f06e6171" target="_top" xlink:title="Vector::size">
<polygon fill="white" stroke="black" points="344.5,-0.5 344.5,-19.5 413.5,-19.5 413.5,-0.5 344.5,-0.5"/>
<text text-anchor="middle" x="379" y="-7.5" font-family="Helvetica,sans-Serif" font-size="10.00">Vector::size</text>
</a>
</g>
</g>
<!-- Node13&#45;&gt;Node14 -->
<g id="edge15" class="edge"><title>Node13&#45;&gt;Node14</title>
<path fill="none" stroke="midnightblue" d="M261.215,-10C280.362,-10 309.751,-10 334.256,-10"/>
<polygon fill="midnightblue" stroke="midnightblue" points="334.415,-13.5001 344.415,-10 334.415,-6.5001 334.415,-13.5001"/>
</g>
<!-- Node15&#45;&gt;Node10 -->
<g id="edge17" class="edge"><title>Node15&#45;&gt;Node10</title>
<path fill="none" stroke="midnightblue" d="M152.887,-114.454C158.031,-111.711 163.383,-108.503 168,-105 186.534,-90.9388 185.548,-81.1696 204,-67 205.827,-65.5972 207.771,-64.2377 209.77,-62.9341"/>
<polygon fill="midnightblue" stroke="midnightblue" points="211.903,-65.7381 218.704,-57.6149 208.322,-59.7234 211.903,-65.7381"/>
</g>
<!-- Node15&#45;&gt;Node11 -->
<g id="edge18" class="edge"><title>Node15&#45;&gt;Node11</title>
<path fill="none" stroke="midnightblue" d="M167.629,-124C182.212,-124 198.797,-124 212.306,-124"/>
<polygon fill="midnightblue" stroke="midnightblue" points="212.384,-127.5 222.384,-124 212.384,-120.5 212.384,-127.5"/>
</g>
<!-- Node15&#45;&gt;Node12 -->
<g id="edge19" class="edge"><title>Node15&#45;&gt;Node12</title>
<path fill="none" stroke="midnightblue" d="M159.001,-114.411C175.509,-108.548 196.522,-101.086 212.869,-95.2803"/>
<polygon fill="midnightblue" stroke="midnightblue" points="214.11,-98.5537 222.362,-91.9088 211.767,-91.9573 214.11,-98.5537"/>
</g>
<!-- Node16 -->
<g id="node16" class="node"><title>Node16</title>
<g id="a_node16"><a xlink:href="classMatrix.html#a02c825325655a07eb94e4a57478a4c18" target="_top" xlink:title="Matrix::Col">
<polygon fill="white" stroke="black" points="207.5,-152.5 207.5,-171.5 272.5,-171.5 272.5,-152.5 207.5,-152.5"/>
<text text-anchor="middle" x="240" y="-159.5" font-family="Helvetica,sans-Serif" font-size="10.00">Matrix::Col</text>
</a>
</g>
</g>
<!-- Node15&#45;&gt;Node16 -->
<g id="edge20" class="edge"><title>Node15&#45;&gt;Node16</title>
<path fill="none" stroke="midnightblue" d="M159.001,-133.589C172.18,-138.269 188.229,-143.969 202.484,-149.032"/>
<polygon fill="midnightblue" stroke="midnightblue" points="201.413,-152.366 212.008,-152.414 203.756,-145.769 201.413,-152.366"/>
</g>
<!-- Node15&#45;&gt;Node4 -->
<g id="edge21" class="edge"><title>Node15&#45;&gt;Node4</title>
<path fill="none" stroke="midnightblue" d="M137.431,-133.699C148.166,-152.193 173.705,-192.971 204,-219 205.747,-220.501 207.632,-221.933 209.589,-223.289"/>
<polygon fill="midnightblue" stroke="midnightblue" points="208.079,-226.469 218.432,-228.72 211.743,-220.504 208.079,-226.469"/>
</g>
<!-- Node15&#45;&gt;Node5 -->
<g id="edge22" class="edge"><title>Node15&#45;&gt;Node5</title>
<path fill="none" stroke="midnightblue" d="M142.777,-133.504C156.48,-145.355 181.115,-165.892 204,-181 206.171,-182.433 208.46,-183.856 210.785,-185.239"/>
<polygon fill="midnightblue" stroke="midnightblue" points="209.335,-188.44 219.761,-190.326 212.786,-182.35 209.335,-188.44"/>
</g>
<!-- Node15&#45;&gt;Node13 -->
<g id="edge23" class="edge"><title>Node15&#45;&gt;Node13</title>
<path fill="none" stroke="midnightblue" d="M155.605,-114.359C160.093,-111.786 164.481,-108.675 168,-105 193.851,-78.0062 178.308,-56.1449 204,-29 205.83,-27.0667 207.901,-25.2852 210.099,-23.6536"/>
<polygon fill="midnightblue" stroke="midnightblue" points="212.35,-26.3734 218.968,-18.099 208.635,-20.441 212.35,-26.3734"/>
</g>
</g>
</svg>
