<?xml version="1.0" encoding="UTF-8" standalone="no"?>
<!DOCTYPE svg PUBLIC "-//W3C//DTD SVG 1.1//EN"
 "http://www.w3.org/Graphics/SVG/1.1/DTD/svg11.dtd">
<!-- Generated by graphviz version 2.30.1 (20180420.1509)
 -->
<!-- Title: MeanObliquity Pages: 1 -->
<svg width="552pt" height="123pt"
 viewBox="0.00 0.00 552.00 123.00" xmlns="http://www.w3.org/2000/svg" xmlns:xlink="http://www.w3.org/1999/xlink">
<g id="graph0" class="graph" transform="scale(1 1) rotate(0) translate(4 119)">
<title>MeanObliquity</title>
<polygon fill="white" stroke="white" points="-4,5 -4,-119 549,-119 549,5 -4,5"/>
<!-- Node1 -->
<g id="node1" class="node"><title>Node1</title>
<polygon fill="#bfbfbf" stroke="black" points="0.5,-57.5 0.5,-76.5 79.5,-76.5 79.5,-57.5 0.5,-57.5"/>
<text text-anchor="middle" x="40" y="-64.5" font-family="Helvetica,sans-Serif" font-size="10.00">MeanObliquity</text>
</g>
<!-- Node2 -->
<g id="node2" class="node"><title>Node2</title>
<g id="a_node2"><a xlink:href="SAT__RefSys_8h.html#a68a7a5a1df3ebf5b569ed7691fe0ab98" target="_top" xlink:title="EclMatrix">
<polygon fill="white" stroke="black" points="122,-95.5 122,-114.5 180,-114.5 180,-95.5 122,-95.5"/>
<text text-anchor="middle" x="151" y="-102.5" font-family="Helvetica,sans-Serif" font-size="10.00">EclMatrix</text>
</a>
</g>
</g>
<!-- Node1&#45;&gt;Node2 -->
<g id="edge1" class="edge"><title>Node1&#45;&gt;Node2</title>
<path fill="none" stroke="midnightblue" d="M78.2085,-79.9718C92.7303,-85.0344 109.079,-90.7341 122.503,-95.4141"/>
<polygon fill="midnightblue" stroke="midnightblue" points="79.1001,-76.5761 68.5053,-76.589 76.7957,-83.1859 79.1001,-76.5761"/>
</g>
<!-- Node3 -->
<g id="node3" class="node"><title>Node3</title>
<g id="a_node3"><a xlink:href="SAT__RefSys_8h.html#a35e586a324741da54bc1e407a5586378" target="_top" xlink:title="NutMatrix">
<polygon fill="white" stroke="black" points="305.5,-57.5 305.5,-76.5 364.5,-76.5 364.5,-57.5 305.5,-57.5"/>
<text text-anchor="middle" x="335" y="-64.5" font-family="Helvetica,sans-Serif" font-size="10.00">NutMatrix</text>
</a>
</g>
</g>
<!-- Node1&#45;&gt;Node3 -->
<g id="edge2" class="edge"><title>Node1&#45;&gt;Node3</title>
<path fill="none" stroke="midnightblue" d="M89.858,-67C151.485,-67 255.431,-67 305.439,-67"/>
<polygon fill="midnightblue" stroke="midnightblue" points="89.606,-63.5001 79.6059,-67 89.6059,-70.5001 89.606,-63.5001"/>
</g>
<!-- Node8 -->
<g id="node8" class="node"><title>Node8</title>
<g id="a_node8"><a xlink:href="SAT__RefSys_8h.html#a1178917cf376ea4f15cea33c59028635" target="_top" xlink:title="EqnEquinox">
<polygon fill="white" stroke="black" points="116.5,-19.5 116.5,-38.5 185.5,-38.5 185.5,-19.5 116.5,-19.5"/>
<text text-anchor="middle" x="151" y="-26.5" font-family="Helvetica,sans-Serif" font-size="10.00">EqnEquinox</text>
</a>
</g>
</g>
<!-- Node1&#45;&gt;Node8 -->
<g id="edge7" class="edge"><title>Node1&#45;&gt;Node8</title>
<path fill="none" stroke="midnightblue" d="M78.2085,-54.0282C92.7303,-48.9656 109.079,-43.2659 122.503,-38.5859"/>
<polygon fill="midnightblue" stroke="midnightblue" points="76.7957,-50.8141 68.5053,-57.411 79.1001,-57.4239 76.7957,-50.8141"/>
</g>
<!-- Node4 -->
<g id="node4" class="node"><title>Node4</title>
<g id="a_node4"><a xlink:href="SAT__Force_8h.html#a750f7a2f89dc275831e706abee33310f" target="_top" xlink:title="AccelMain">
<polygon fill="white" stroke="black" points="406,-76.5 406,-95.5 468,-95.5 468,-76.5 406,-76.5"/>
<text text-anchor="middle" x="437" y="-83.5" font-family="Helvetica,sans-Serif" font-size="10.00">AccelMain</text>
</a>
</g>
</g>
<!-- Node3&#45;&gt;Node4 -->
<g id="edge3" class="edge"><title>Node3&#45;&gt;Node4</title>
<path fill="none" stroke="midnightblue" d="M374.721,-74.3569C385.084,-76.3259 396.128,-78.4244 405.946,-80.2897"/>
<polygon fill="midnightblue" stroke="midnightblue" points="375.134,-70.8728 364.656,-72.4446 373.827,-77.7498 375.134,-70.8728"/>
</g>
<!-- Node5 -->
<g id="node5" class="node"><title>Node5</title>
<g id="a_node5"><a xlink:href="TDRSOD_8cpp.html#a1d3803a2ec3760bf63edefae54e3ac5b" target="_top" xlink:title="Accel">
<polygon fill="white" stroke="black" points="416.5,-38.5 416.5,-57.5 457.5,-57.5 457.5,-38.5 416.5,-38.5"/>
<text text-anchor="middle" x="437" y="-45.5" font-family="Helvetica,sans-Serif" font-size="10.00">Accel</text>
</a>
</g>
</g>
<!-- Node3&#45;&gt;Node5 -->
<g id="edge4" class="edge"><title>Node3&#45;&gt;Node5</title>
<path fill="none" stroke="midnightblue" d="M374.695,-59.648C388.889,-56.9511 404.366,-54.0105 416.218,-51.7586"/>
<polygon fill="midnightblue" stroke="midnightblue" points="373.827,-56.2502 364.656,-61.5554 375.134,-63.1272 373.827,-56.2502"/>
</g>
<!-- Node6 -->
<g id="node6" class="node"><title>Node6</title>
<g id="a_node6"><a xlink:href="TDRSOD_8cpp.html#a466ab098330aeb2aa659365279071640" target="_top" xlink:title="Range_4W">
<polygon fill="white" stroke="black" points="404.5,-0.5 404.5,-19.5 469.5,-19.5 469.5,-0.5 404.5,-0.5"/>
<text text-anchor="middle" x="437" y="-7.5" font-family="Helvetica,sans-Serif" font-size="10.00">Range_4W</text>
</a>
</g>
</g>
<!-- Node3&#45;&gt;Node6 -->
<g id="edge5" class="edge"><title>Node3&#45;&gt;Node6</title>
<path fill="none" stroke="midnightblue" d="M361.852,-52.2642C379.956,-41.9452 403.617,-28.4581 419.287,-19.5265"/>
<polygon fill="midnightblue" stroke="midnightblue" points="359.918,-49.3379 352.964,-57.3307 363.385,-55.4194 359.918,-49.3379"/>
</g>
<!-- Node7 -->
<g id="node7" class="node"><title>Node7</title>
<g id="a_node7"><a xlink:href="TDRSOD_8cpp.html#a0ddf1224851353fc92bfbff6f499fa97" target="_top" xlink:title="main">
<polygon fill="white" stroke="black" points="506,-0.5 506,-19.5 544,-19.5 544,-0.5 506,-0.5"/>
<text text-anchor="middle" x="525" y="-7.5" font-family="Helvetica,sans-Serif" font-size="10.00">main</text>
</a>
</g>
</g>
<!-- Node6&#45;&gt;Node7 -->
<g id="edge6" class="edge"><title>Node6&#45;&gt;Node7</title>
<path fill="none" stroke="midnightblue" d="M479.813,-10C489.024,-10 498.308,-10 505.972,-10"/>
<polygon fill="midnightblue" stroke="midnightblue" points="479.535,-6.5001 469.535,-10 479.535,-13.5001 479.535,-6.5001"/>
</g>
<!-- Node9 -->
<g id="node9" class="node"><title>Node9</title>
<g id="a_node9"><a xlink:href="SAT__RefSys_8h.html#a120de1171391bce3ca4111e46331a93c" target="_top" xlink:title="GAST">
<polygon fill="white" stroke="black" points="222,-19.5 222,-38.5 266,-38.5 266,-19.5 222,-19.5"/>
<text text-anchor="middle" x="244" y="-26.5" font-family="Helvetica,sans-Serif" font-size="10.00">GAST</text>
</a>
</g>
</g>
<!-- Node8&#45;&gt;Node9 -->
<g id="edge8" class="edge"><title>Node8&#45;&gt;Node9</title>
<path fill="none" stroke="midnightblue" d="M195.789,-29C204.893,-29 214.089,-29 221.916,-29"/>
<polygon fill="midnightblue" stroke="midnightblue" points="195.627,-25.5001 185.626,-29 195.626,-32.5001 195.627,-25.5001"/>
</g>
<!-- Node10 -->
<g id="node10" class="node"><title>Node10</title>
<g id="a_node10"><a xlink:href="SAT__RefSys_8h.html#a9699d3dfbd482534e86059e5613f8b8c" target="_top" xlink:title="GHAMatrix">
<polygon fill="white" stroke="black" points="302.5,-19.5 302.5,-38.5 367.5,-38.5 367.5,-19.5 302.5,-19.5"/>
<text text-anchor="middle" x="335" y="-26.5" font-family="Helvetica,sans-Serif" font-size="10.00">GHAMatrix</text>
</a>
</g>
</g>
<!-- Node9&#45;&gt;Node10 -->
<g id="edge9" class="edge"><title>Node9&#45;&gt;Node10</title>
<path fill="none" stroke="midnightblue" d="M276.282,-29C284.702,-29 293.815,-29 302.26,-29"/>
<polygon fill="midnightblue" stroke="midnightblue" points="276.092,-25.5001 266.092,-29 276.092,-32.5001 276.092,-25.5001"/>
</g>
<!-- Node10&#45;&gt;Node4 -->
<g id="edge10" class="edge"><title>Node10&#45;&gt;Node4</title>
<path fill="none" stroke="midnightblue" d="M361.852,-43.7358C379.956,-54.0548 403.617,-67.5419 419.287,-76.4735"/>
<polygon fill="midnightblue" stroke="midnightblue" points="363.385,-40.5806 352.964,-38.6693 359.918,-46.6621 363.385,-40.5806"/>
</g>
<!-- Node10&#45;&gt;Node5 -->
<g id="edge11" class="edge"><title>Node10&#45;&gt;Node5</title>
<path fill="none" stroke="midnightblue" d="M377.698,-36.9227C391.149,-39.4783 405.423,-42.1905 416.482,-44.2915"/>
<polygon fill="midnightblue" stroke="midnightblue" points="378.118,-33.4399 367.641,-35.0117 376.812,-40.3169 378.118,-33.4399"/>
</g>
<!-- Node10&#45;&gt;Node6 -->
<g id="edge12" class="edge"><title>Node10&#45;&gt;Node6</title>
<path fill="none" stroke="midnightblue" d="M377.501,-21.1149C386.43,-19.4183 395.732,-17.6509 404.222,-16.0378"/>
<polygon fill="midnightblue" stroke="midnightblue" points="376.812,-17.6831 367.641,-22.9883 378.118,-24.5601 376.812,-17.6831"/>
</g>
</g>
</svg>
