<?xml version="1.0" encoding="UTF-8" standalone="no"?>
<!DOCTYPE svg PUBLIC "-//W3C//DTD SVG 1.1//EN"
 "http://www.w3.org/Graphics/SVG/1.1/DTD/svg11.dtd">
<!-- Generated by graphviz version 2.30.1 (20180420.1509)
 -->
<!-- Title: Density_HP Pages: 1 -->
<svg width="314pt" height="143pt"
 viewBox="0.00 0.00 314.00 143.00" xmlns="http://www.w3.org/2000/svg" xmlns:xlink="http://www.w3.org/1999/xlink">
<g id="graph0" class="graph" transform="scale(1 1) rotate(0) translate(4 139)">
<title>Density_HP</title>
<polygon fill="white" stroke="white" points="-4,5 -4,-139 311,-139 311,5 -4,5"/>
<!-- Node1 -->
<g id="node1" class="node"><title>Node1</title>
<polygon fill="#bfbfbf" stroke="black" points="0,-38.5 0,-57.5 70,-57.5 70,-38.5 0,-38.5"/>
<text text-anchor="middle" x="35" y="-45.5" font-family="Helvetica,sans-Serif" font-size="10.00">Density_HP</text>
</g>
<!-- Node2 -->
<g id="node2" class="node"><title>Node2</title>
<g id="a_node2"><a xlink:href="SAT__Force_8cpp.html#a2de08a6e83f5eff12db59b0616ad7f2c" target="_top" xlink:title="Sun">
<polygon fill="white" stroke="black" points="110,-76.5 110,-95.5 144,-95.5 144,-76.5 110,-76.5"/>
<text text-anchor="middle" x="127" y="-83.5" font-family="Helvetica,sans-Serif" font-size="10.00">Sun</text>
</a>
</g>
</g>
<!-- Node1&#45;&gt;Node2 -->
<g id="edge1" class="edge"><title>Node1&#45;&gt;Node2</title>
<path fill="none" stroke="midnightblue" d="M58.7108,-57.589C71.4087,-62.9503 87.2742,-69.6491 100.41,-75.1954"/>
<polygon fill="midnightblue" stroke="midnightblue" points="99.2514,-78.5053 109.825,-79.1707 101.974,-72.0566 99.2514,-78.5053"/>
</g>
<!-- Node5 -->
<g id="node5" class="node"><title>Node5</title>
<g id="a_node5"><a xlink:href="SAT__VecMat_8cpp.html#a71375a6ebee7fc40c1d45985175d82e5" target="_top" xlink:title="Dot">
<polygon fill="white" stroke="black" points="229,-19.5 229,-38.5 261,-38.5 261,-19.5 229,-19.5"/>
<text text-anchor="middle" x="245" y="-26.5" font-family="Helvetica,sans-Serif" font-size="10.00">Dot</text>
</a>
</g>
</g>
<!-- Node1&#45;&gt;Node5 -->
<g id="edge4" class="edge"><title>Node1&#45;&gt;Node5</title>
<path fill="none" stroke="midnightblue" d="M70.347,-44.8625C112.145,-41.0445 181.722,-34.6888 218.849,-31.2975"/>
<polygon fill="midnightblue" stroke="midnightblue" points="219.197,-34.7803 228.837,-30.3851 218.56,-27.8094 219.197,-34.7803"/>
</g>
<!-- Node6 -->
<g id="node6" class="node"><title>Node6</title>
<g id="a_node6"><a xlink:href="SAT__VecMat_8cpp.html#a313ce8c9730e0bd08a1396f364f0486c" target="_top" xlink:title="Norm">
<polygon fill="white" stroke="black" points="106.5,-0.5 106.5,-19.5 147.5,-19.5 147.5,-0.5 106.5,-0.5"/>
<text text-anchor="middle" x="127" y="-7.5" font-family="Helvetica,sans-Serif" font-size="10.00">Norm</text>
</a>
</g>
</g>
<!-- Node1&#45;&gt;Node6 -->
<g id="edge5" class="edge"><title>Node1&#45;&gt;Node6</title>
<path fill="none" stroke="midnightblue" d="M58.7108,-38.411C70.298,-33.5186 84.5231,-27.5125 96.9045,-22.2848"/>
<polygon fill="midnightblue" stroke="midnightblue" points="98.5023,-25.4094 106.353,-18.2952 95.7795,-18.9606 98.5023,-25.4094"/>
</g>
<!-- Node3 -->
<g id="node3" class="node"><title>Node3</title>
<g id="a_node3"><a xlink:href="namespaceanonymous__namespace_02SAT__Force_8cpp_03.html#aa6826b33621fa6ff5736c6432c487c1a" target="_top" xlink:title="anonymous_namespace\l\{SAT_Force::cpp\}::Frac">
<polygon fill="white" stroke="black" points="184,-105 184,-135 306,-135 306,-105 184,-105"/>
<text text-anchor="start" x="192" y="-123" font-family="Helvetica,sans-Serif" font-size="10.00">anonymous_namespace</text>
<text text-anchor="middle" x="245" y="-112" font-family="Helvetica,sans-Serif" font-size="10.00">{SAT_Force::cpp}::Frac</text>
</a>
</g>
</g>
<!-- Node2&#45;&gt;Node3 -->
<g id="edge2" class="edge"><title>Node2&#45;&gt;Node3</title>
<path fill="none" stroke="midnightblue" d="M144.129,-90.7276C154.397,-93.7371 168.414,-97.8454 182.698,-102.032"/>
<polygon fill="midnightblue" stroke="midnightblue" points="182.007,-105.477 192.588,-104.931 183.976,-98.7594 182.007,-105.477"/>
</g>
<!-- Node4 -->
<g id="node4" class="node"><title>Node4</title>
<g id="a_node4"><a xlink:href="SAT__VecMat_8cpp.html#ae452267b1d1da6280386846d97ec4e4f" target="_top" xlink:title="R_x">
<polygon fill="white" stroke="black" points="227.5,-66.5 227.5,-85.5 262.5,-85.5 262.5,-66.5 227.5,-66.5"/>
<text text-anchor="middle" x="245" y="-73.5" font-family="Helvetica,sans-Serif" font-size="10.00">R_x</text>
</a>
</g>
</g>
<!-- Node2&#45;&gt;Node4 -->
<g id="edge3" class="edge"><title>Node2&#45;&gt;Node4</title>
<path fill="none" stroke="midnightblue" d="M144.129,-84.6095C163.046,-82.9788 194.688,-80.251 217.287,-78.3029"/>
<polygon fill="midnightblue" stroke="midnightblue" points="217.594,-81.7894 227.256,-77.4434 216.993,-74.8153 217.594,-81.7894"/>
</g>
<!-- Node6&#45;&gt;Node5 -->
<g id="edge6" class="edge"><title>Node6&#45;&gt;Node5</title>
<path fill="none" stroke="midnightblue" d="M147.678,-13.2231C167.253,-16.4294 197.369,-21.3622 218.709,-24.8575"/>
<polygon fill="midnightblue" stroke="midnightblue" points="218.246,-28.3282 228.68,-26.4907 219.378,-21.4203 218.246,-28.3282"/>
</g>
</g>
</svg>
