<?xml version="1.0" encoding="UTF-8" standalone="no"?>
<!DOCTYPE svg PUBLIC "-//W3C//DTD SVG 1.1//EN"
 "http://www.w3.org/Graphics/SVG/1.1/DTD/svg11.dtd">
<!-- Generated by graphviz version 2.30.1 (20180420.1509)
 -->
<!-- Title: R_z Pages: 1 -->
<svg width="394pt" height="351pt"
 viewBox="0.00 0.00 394.00 351.00" xmlns="http://www.w3.org/2000/svg" xmlns:xlink="http://www.w3.org/1999/xlink">
<g id="graph0" class="graph" transform="scale(1 1) rotate(0) translate(4 347)">
<title>R_z</title>
<polygon fill="white" stroke="white" points="-4,5 -4,-347 391,-347 391,5 -4,5"/>
<!-- Node1 -->
<g id="node1" class="node"><title>Node1</title>
<polygon fill="#bfbfbf" stroke="black" points="0.5,-152.5 0.5,-171.5 35.5,-171.5 35.5,-152.5 0.5,-152.5"/>
<text text-anchor="middle" x="18" y="-159.5" font-family="Helvetica,sans-Serif" font-size="10.00">R_z</text>
</g>
<!-- Node2 -->
<g id="node2" class="node"><title>Node2</title>
<g id="a_node2"><a xlink:href="RTOD_8cpp.html#ad928b0e88089fe577162bad47f911adf" target="_top" xlink:title="Accel">
<polygon fill="white" stroke="black" points="96.5,-190.5 96.5,-209.5 137.5,-209.5 137.5,-190.5 96.5,-190.5"/>
<text text-anchor="middle" x="117" y="-197.5" font-family="Helvetica,sans-Serif" font-size="10.00">Accel</text>
</a>
</g>
</g>
<!-- Node1&#45;&gt;Node2 -->
<g id="edge1" class="edge"><title>Node1&#45;&gt;Node2</title>
<path fill="none" stroke="midnightblue" d="M45.2824,-172.296C61.3588,-178.594 81.5899,-186.52 96.2902,-192.279"/>
<polygon fill="midnightblue" stroke="midnightblue" points="46.4838,-169.008 35.8961,-168.619 43.9304,-175.526 46.4838,-169.008"/>
</g>
<!-- Node4 -->
<g id="node4" class="node"><title>Node4</title>
<g id="a_node4"><a xlink:href="RTOD_8cpp.html#a0ddf1224851353fc92bfbff6f499fa97" target="_top" xlink:title="main">
<polygon fill="white" stroke="black" points="348,-247.5 348,-266.5 386,-266.5 386,-247.5 348,-247.5"/>
<text text-anchor="middle" x="367" y="-254.5" font-family="Helvetica,sans-Serif" font-size="10.00">main</text>
</a>
</g>
</g>
<!-- Node1&#45;&gt;Node4 -->
<g id="edge6" class="edge"><title>Node1&#45;&gt;Node4</title>
<path fill="none" stroke="midnightblue" d="M30.5527,-179.798C40.0467,-192.87 54.7175,-209.877 72,-219 165.986,-268.614 299.643,-262.912 347.817,-258.852"/>
<polygon fill="midnightblue" stroke="midnightblue" points="33.4007,-177.763 24.8384,-171.523 27.6405,-181.741 33.4007,-177.763"/>
</g>
<!-- Node7 -->
<g id="node7" class="node"><title>Node7</title>
<g id="a_node7"><a xlink:href="SAT__Kepler_8h.html#ad89a224ad24d23f6059beb84e1c0817f" target="_top" xlink:title="State">
<polygon fill="white" stroke="black" points="97,-285.5 97,-304.5 137,-304.5 137,-285.5 97,-285.5"/>
<text text-anchor="middle" x="117" y="-292.5" font-family="Helvetica,sans-Serif" font-size="10.00">State</text>
</a>
</g>
</g>
<!-- Node1&#45;&gt;Node7 -->
<g id="edge7" class="edge"><title>Node1&#45;&gt;Node7</title>
<path fill="none" stroke="midnightblue" d="M24.4421,-181.49C31.8688,-205.113 47.169,-244.98 72,-271 78.8483,-278.176 88.3226,-283.72 96.7262,-287.663"/>
<polygon fill="midnightblue" stroke="midnightblue" points="27.708,-180.193 21.4995,-171.608 20.9992,-182.191 27.708,-180.193"/>
</g>
<!-- Node9 -->
<g id="node9" class="node"><title>Node9</title>
<g id="a_node9"><a xlink:href="SAT__Kepler_8h.html#ad41abe3ee1647b2de98425457c6fdce2" target="_top" xlink:title="StatePartials">
<polygon fill="white" stroke="black" points="80.5,-323.5 80.5,-342.5 153.5,-342.5 153.5,-323.5 80.5,-323.5"/>
<text text-anchor="middle" x="117" y="-330.5" font-family="Helvetica,sans-Serif" font-size="10.00">StatePartials</text>
</a>
</g>
</g>
<!-- Node1&#45;&gt;Node9 -->
<g id="edge10" class="edge"><title>Node1&#45;&gt;Node9</title>
<path fill="none" stroke="midnightblue" d="M20.8263,-181.726C24.7549,-213.455 36.7355,-276.096 72,-314 75.5139,-317.777 79.9066,-320.839 84.5463,-323.311"/>
<polygon fill="midnightblue" stroke="midnightblue" points="24.2789,-181.1 19.7151,-171.539 17.3201,-181.859 24.2789,-181.1"/>
</g>
<!-- Node10 -->
<g id="node10" class="node"><title>Node10</title>
<g id="a_node10"><a xlink:href="SAT__RefSys_8h.html#abc2e56e609b82264ae010497b21dcba0" target="_top" xlink:title="PrecMatrix">
<polygon fill="white" stroke="black" points="85,-76.5 85,-95.5 149,-95.5 149,-76.5 85,-76.5"/>
<text text-anchor="middle" x="117" y="-83.5" font-family="Helvetica,sans-Serif" font-size="10.00">PrecMatrix</text>
</a>
</g>
</g>
<!-- Node1&#45;&gt;Node10 -->
<g id="edge12" class="edge"><title>Node1&#45;&gt;Node10</title>
<path fill="none" stroke="midnightblue" d="M32.2613,-144.22C42.1399,-131.938 56.5433,-115.911 72,-105 77.1662,-101.353 83.1429,-98.197 88.9935,-95.5617"/>
<polygon fill="midnightblue" stroke="midnightblue" points="29.2949,-142.333 25.9175,-152.376 34.8201,-146.631 29.2949,-142.333"/>
</g>
<!-- Node14 -->
<g id="node14" class="node"><title>Node14</title>
<g id="a_node14"><a xlink:href="SAT__RefSys_8h.html#a35e586a324741da54bc1e407a5586378" target="_top" xlink:title="NutMatrix">
<polygon fill="white" stroke="black" points="87.5,-152.5 87.5,-171.5 146.5,-171.5 146.5,-152.5 87.5,-152.5"/>
<text text-anchor="middle" x="117" y="-159.5" font-family="Helvetica,sans-Serif" font-size="10.00">NutMatrix</text>
</a>
</g>
</g>
<!-- Node1&#45;&gt;Node14 -->
<g id="edge17" class="edge"><title>Node1&#45;&gt;Node14</title>
<path fill="none" stroke="midnightblue" d="M45.96,-162C58.7707,-162 74.0977,-162 87.143,-162"/>
<polygon fill="midnightblue" stroke="midnightblue" points="45.8961,-158.5 35.8961,-162 45.8961,-165.5 45.8961,-158.5"/>
</g>
<!-- Node15 -->
<g id="node15" class="node"><title>Node15</title>
<g id="a_node15"><a xlink:href="SAT__RefSys_8cpp.html#a04f9381158624e774f728842393c560d" target="_top" xlink:title="NutMatrixSimple">
<polygon fill="white" stroke="black" points="72.5,-38.5 72.5,-57.5 161.5,-57.5 161.5,-38.5 72.5,-38.5"/>
<text text-anchor="middle" x="117" y="-45.5" font-family="Helvetica,sans-Serif" font-size="10.00">NutMatrixSimple</text>
</a>
</g>
</g>
<!-- Node1&#45;&gt;Node15 -->
<g id="edge21" class="edge"><title>Node1&#45;&gt;Node15</title>
<path fill="none" stroke="midnightblue" d="M25.4263,-142.809C33.3662,-121.707 48.7435,-88.0133 72,-67 76.1982,-63.2067 81.2706,-60.0881 86.4565,-57.5533"/>
<polygon fill="midnightblue" stroke="midnightblue" points="22.1024,-141.71 22.0366,-152.305 28.6949,-144.064 22.1024,-141.71"/>
</g>
<!-- Node16 -->
<g id="node16" class="node"><title>Node16</title>
<g id="a_node16"><a xlink:href="SAT__RefSys_8h.html#a9699d3dfbd482534e86059e5613f8b8c" target="_top" xlink:title="GHAMatrix">
<polygon fill="white" stroke="black" points="84.5,-114.5 84.5,-133.5 149.5,-133.5 149.5,-114.5 84.5,-114.5"/>
<text text-anchor="middle" x="117" y="-121.5" font-family="Helvetica,sans-Serif" font-size="10.00">GHAMatrix</text>
</a>
</g>
</g>
<!-- Node1&#45;&gt;Node16 -->
<g id="edge22" class="edge"><title>Node1&#45;&gt;Node16</title>
<path fill="none" stroke="midnightblue" d="M45.2766,-151.706C59.7258,-146.046 77.5327,-139.07 91.6636,-133.534"/>
<polygon fill="midnightblue" stroke="midnightblue" points="43.9304,-148.474 35.8961,-155.381 46.4838,-154.992 43.9304,-148.474"/>
</g>
<!-- Node17 -->
<g id="node17" class="node"><title>Node17</title>
<g id="a_node17"><a xlink:href="SAT__RefSys_8h.html#ae2cb1346d211047ba96d1b2d69aa13c1" target="_top" xlink:title="LTCMatrix">
<polygon fill="white" stroke="black" points="86,-0.5 86,-19.5 148,-19.5 148,-0.5 86,-0.5"/>
<text text-anchor="middle" x="117" y="-7.5" font-family="Helvetica,sans-Serif" font-size="10.00">LTCMatrix</text>
</a>
</g>
</g>
<!-- Node1&#45;&gt;Node17 -->
<g id="edge26" class="edge"><title>Node1&#45;&gt;Node17</title>
<path fill="none" stroke="midnightblue" d="M21.9865,-142.321C27.2681,-113.857 40.7999,-61.0998 72,-29 75.8276,-25.062 80.6062,-21.8917 85.5909,-19.3549"/>
<polygon fill="midnightblue" stroke="midnightblue" points="18.5212,-141.822 20.2974,-152.267 25.4224,-142.995 18.5212,-141.822"/>
</g>
<!-- Node3 -->
<g id="node3" class="node"><title>Node3</title>
<g id="a_node3"><a xlink:href="RTOD_8cpp.html#a8ed60f2e5115e2e00c123e12b1cbb649" target="_top" xlink:title="Deriv">
<polygon fill="white" stroke="black" points="235,-209.5 235,-228.5 275,-228.5 275,-209.5 235,-209.5"/>
<text text-anchor="middle" x="255" y="-216.5" font-family="Helvetica,sans-Serif" font-size="10.00">Deriv</text>
</a>
</g>
</g>
<!-- Node2&#45;&gt;Node3 -->
<g id="edge2" class="edge"><title>Node2&#45;&gt;Node3</title>
<path fill="none" stroke="midnightblue" d="M147.975,-204.188C174.371,-207.875 212.032,-213.137 234.641,-216.295"/>
<polygon fill="midnightblue" stroke="midnightblue" points="148.164,-200.68 137.776,-202.763 147.195,-207.613 148.164,-200.68"/>
</g>
<!-- Node5 -->
<g id="node5" class="node"><title>Node5</title>
<g id="a_node5"><a xlink:href="TDRSOD_8cpp.html#a3df5b7f547d4cb81cae1bbb6d6a2962a" target="_top" xlink:title="VarEqn">
<polygon fill="white" stroke="black" points="230.5,-171.5 230.5,-190.5 279.5,-190.5 279.5,-171.5 230.5,-171.5"/>
<text text-anchor="middle" x="255" y="-178.5" font-family="Helvetica,sans-Serif" font-size="10.00">VarEqn</text>
</a>
</g>
</g>
<!-- Node2&#45;&gt;Node5 -->
<g id="edge4" class="edge"><title>Node2&#45;&gt;Node5</title>
<path fill="none" stroke="midnightblue" d="M147.688,-195.852C172.396,-192.401 207.121,-187.549 230.075,-184.343"/>
<polygon fill="midnightblue" stroke="midnightblue" points="147.195,-192.387 137.776,-197.237 148.164,-199.32 147.195,-192.387"/>
</g>
<!-- Node3&#45;&gt;Node4 -->
<g id="edge3" class="edge"><title>Node3&#45;&gt;Node4</title>
<path fill="none" stroke="midnightblue" d="M284.682,-228.908C304.632,-235.8 330.625,-244.78 347.789,-250.709"/>
<polygon fill="midnightblue" stroke="midnightblue" points="285.755,-225.576 275.161,-225.619 283.47,-232.193 285.755,-225.576"/>
</g>
<!-- Node6 -->
<g id="node6" class="node"><title>Node6</title>
<g id="a_node6"><a xlink:href="TDRSOD_8cpp.html#a0ddf1224851353fc92bfbff6f499fa97" target="_top" xlink:title="main">
<polygon fill="white" stroke="black" points="348,-152.5 348,-171.5 386,-171.5 386,-152.5 348,-152.5"/>
<text text-anchor="middle" x="367" y="-159.5" font-family="Helvetica,sans-Serif" font-size="10.00">main</text>
</a>
</g>
</g>
<!-- Node5&#45;&gt;Node6 -->
<g id="edge5" class="edge"><title>Node5&#45;&gt;Node6</title>
<path fill="none" stroke="midnightblue" d="M289.484,-175.216C308.694,-171.898 332.061,-167.862 347.88,-165.13"/>
<polygon fill="midnightblue" stroke="midnightblue" points="288.856,-171.773 279.598,-176.924 290.048,-178.671 288.856,-171.773"/>
</g>
<!-- Node8 -->
<g id="node8" class="node"><title>Node8</title>
<g id="a_node8"><a xlink:href="SAT__Kepler_8h.html#aeb2175e4cdc39ea590f44fc2949ea8d3" target="_top" xlink:title="TwoBody">
<polygon fill="white" stroke="black" points="226,-285.5 226,-304.5 284,-304.5 284,-285.5 226,-285.5"/>
<text text-anchor="middle" x="255" y="-292.5" font-family="Helvetica,sans-Serif" font-size="10.00">TwoBody</text>
</a>
</g>
</g>
<!-- Node7&#45;&gt;Node8 -->
<g id="edge8" class="edge"><title>Node7&#45;&gt;Node8</title>
<path fill="none" stroke="midnightblue" d="M147.508,-295C170.783,-295 203.03,-295 225.926,-295"/>
<polygon fill="midnightblue" stroke="midnightblue" points="147.197,-291.5 137.197,-295 147.197,-298.5 147.197,-291.5"/>
</g>
<!-- Node8&#45;&gt;Node4 -->
<g id="edge9" class="edge"><title>Node8&#45;&gt;Node4</title>
<path fill="none" stroke="midnightblue" d="M293.347,-282.098C311.765,-275.736 333.139,-268.352 347.913,-263.248"/>
<polygon fill="midnightblue" stroke="midnightblue" points="292.067,-278.838 283.758,-285.411 294.352,-285.454 292.067,-278.838"/>
</g>
<!-- Node9&#45;&gt;Node8 -->
<g id="edge11" class="edge"><title>Node9&#45;&gt;Node8</title>
<path fill="none" stroke="midnightblue" d="M161.951,-320.72C182.854,-314.879 207.238,-308.066 225.655,-302.92"/>
<polygon fill="midnightblue" stroke="midnightblue" points="161.008,-317.349 152.319,-323.411 162.892,-324.091 161.008,-317.349"/>
</g>
<!-- Node11 -->
<g id="node11" class="node"><title>Node11</title>
<g id="a_node11"><a xlink:href="SAT__Force_8h.html#a750f7a2f89dc275831e706abee33310f" target="_top" xlink:title="AccelMain">
<polygon fill="white" stroke="black" points="224,-95.5 224,-114.5 286,-114.5 286,-95.5 224,-95.5"/>
<text text-anchor="middle" x="255" y="-102.5" font-family="Helvetica,sans-Serif" font-size="10.00">AccelMain</text>
</a>
</g>
</g>
<!-- Node10&#45;&gt;Node11 -->
<g id="edge13" class="edge"><title>Node10&#45;&gt;Node11</title>
<path fill="none" stroke="midnightblue" d="M159.358,-91.778C180.157,-94.6838 204.907,-98.1414 223.879,-100.792"/>
<polygon fill="midnightblue" stroke="midnightblue" points="159.589,-88.2764 149.201,-90.359 158.621,-95.209 159.589,-88.2764"/>
</g>
<!-- Node12 -->
<g id="node12" class="node"><title>Node12</title>
<g id="a_node12"><a xlink:href="TDRSOD_8cpp.html#a1d3803a2ec3760bf63edefae54e3ac5b" target="_top" xlink:title="Accel">
<polygon fill="white" stroke="black" points="234.5,-57.5 234.5,-76.5 275.5,-76.5 275.5,-57.5 234.5,-57.5"/>
<text text-anchor="middle" x="255" y="-64.5" font-family="Helvetica,sans-Serif" font-size="10.00">Accel</text>
</a>
</g>
</g>
<!-- Node10&#45;&gt;Node12 -->
<g id="edge14" class="edge"><title>Node10&#45;&gt;Node12</title>
<path fill="none" stroke="midnightblue" d="M159.131,-80.2537C184.052,-76.7721 214.71,-72.489 234.305,-69.7515"/>
<polygon fill="midnightblue" stroke="midnightblue" points="158.621,-76.791 149.201,-81.641 159.589,-83.7236 158.621,-76.791"/>
</g>
<!-- Node13 -->
<g id="node13" class="node"><title>Node13</title>
<g id="a_node13"><a xlink:href="TDRSOD_8cpp.html#a466ab098330aeb2aa659365279071640" target="_top" xlink:title="Range_4W">
<polygon fill="white" stroke="black" points="222.5,-133.5 222.5,-152.5 287.5,-152.5 287.5,-133.5 222.5,-133.5"/>
<text text-anchor="middle" x="255" y="-140.5" font-family="Helvetica,sans-Serif" font-size="10.00">Range_4W</text>
</a>
</g>
</g>
<!-- Node10&#45;&gt;Node13 -->
<g id="edge15" class="edge"><title>Node10&#45;&gt;Node13</title>
<path fill="none" stroke="midnightblue" d="M150.183,-99.5519C154.184,-101.338 158.201,-103.181 162,-105 178.317,-112.814 181.382,-116.849 198,-124 205.922,-127.409 214.674,-130.626 222.859,-133.411"/>
<polygon fill="midnightblue" stroke="midnightblue" points="151.554,-96.3312 140.989,-95.5261 148.746,-102.743 151.554,-96.3312"/>
</g>
<!-- Node13&#45;&gt;Node6 -->
<g id="edge16" class="edge"><title>Node13&#45;&gt;Node6</title>
<path fill="none" stroke="midnightblue" d="M297.482,-150.165C314.873,-153.169 334.187,-156.505 347.865,-158.868"/>
<polygon fill="midnightblue" stroke="midnightblue" points="297.971,-146.698 287.522,-148.445 296.78,-153.596 297.971,-146.698"/>
</g>
<!-- Node14&#45;&gt;Node11 -->
<g id="edge18" class="edge"><title>Node14&#45;&gt;Node11</title>
<path fill="none" stroke="midnightblue" d="M150.183,-148.448C154.184,-146.662 158.201,-144.819 162,-143 178.317,-135.186 181.382,-131.151 198,-124 206.205,-120.469 215.3,-117.144 223.734,-114.293"/>
<polygon fill="midnightblue" stroke="midnightblue" points="148.746,-145.257 140.989,-152.474 151.554,-151.669 148.746,-145.257"/>
</g>
<!-- Node14&#45;&gt;Node12 -->
<g id="edge19" class="edge"><title>Node14&#45;&gt;Node12</title>
<path fill="none" stroke="midnightblue" d="M155.759,-147.602C157.961,-146.188 160.063,-144.656 162,-143 184.77,-123.525 174.464,-104.543 198,-86 208.484,-77.7404 222.761,-72.9698 234.275,-70.2747"/>
<polygon fill="midnightblue" stroke="midnightblue" points="153.984,-144.584 146.92,-152.48 157.366,-150.712 153.984,-144.584"/>
</g>
<!-- Node14&#45;&gt;Node13 -->
<g id="edge20" class="edge"><title>Node14&#45;&gt;Node13</title>
<path fill="none" stroke="midnightblue" d="M156.587,-156.609C177.33,-153.711 202.595,-150.182 222.197,-147.443"/>
<polygon fill="midnightblue" stroke="midnightblue" points="155.93,-153.167 146.51,-158.017 156.898,-160.1 155.93,-153.167"/>
</g>
<!-- Node16&#45;&gt;Node11 -->
<g id="edge23" class="edge"><title>Node16&#45;&gt;Node11</title>
<path fill="none" stroke="midnightblue" d="M159.625,-118.185C180.253,-115.303 204.714,-111.886 223.564,-109.252"/>
<polygon fill="midnightblue" stroke="midnightblue" points="158.962,-114.743 149.543,-119.593 159.931,-121.676 158.962,-114.743"/>
</g>
<!-- Node16&#45;&gt;Node12 -->
<g id="edge24" class="edge"><title>Node16&#45;&gt;Node12</title>
<path fill="none" stroke="midnightblue" d="M150.183,-110.448C154.184,-108.662 158.201,-106.819 162,-105 178.317,-97.1857 181.382,-93.1511 198,-86 209.788,-80.9274 223.416,-76.2786 234.276,-72.8491"/>
<polygon fill="midnightblue" stroke="midnightblue" points="148.746,-107.257 140.989,-114.474 151.554,-113.669 148.746,-107.257"/>
</g>
<!-- Node16&#45;&gt;Node13 -->
<g id="edge25" class="edge"><title>Node16&#45;&gt;Node13</title>
<path fill="none" stroke="midnightblue" d="M159.681,-129.823C179.788,-132.632 203.526,-135.948 222.157,-138.551"/>
<polygon fill="midnightblue" stroke="midnightblue" points="159.931,-126.324 149.543,-128.407 158.962,-133.257 159.931,-126.324"/>
</g>
<!-- Node18 -->
<g id="node18" class="node"><title>Node18</title>
<g id="a_node18"><a xlink:href="classGeodetic.html#a47d84f3c9f36b3443cea7c344fcfbddc" target="_top" xlink:title="Geodetic::LTC_Matrix">
<polygon fill="white" stroke="black" points="198.5,-0.5 198.5,-19.5 311.5,-19.5 311.5,-0.5 198.5,-0.5"/>
<text text-anchor="middle" x="255" y="-7.5" font-family="Helvetica,sans-Serif" font-size="10.00">Geodetic::LTC_Matrix</text>
</a>
</g>
</g>
<!-- Node17&#45;&gt;Node18 -->
<g id="edge27" class="edge"><title>Node17&#45;&gt;Node18</title>
<path fill="none" stroke="midnightblue" d="M158.343,-10C170.922,-10 185.024,-10 198.454,-10"/>
<polygon fill="midnightblue" stroke="midnightblue" points="158.183,-6.5001 148.183,-10 158.183,-13.5001 158.183,-6.5001"/>
</g>
<!-- Node19 -->
<g id="node19" class="node"><title>Node19</title>
<g id="a_node19"><a xlink:href="GEODA_8cpp.html#a0ddf1224851353fc92bfbff6f499fa97" target="_top" xlink:title="main">
<polygon fill="white" stroke="black" points="348,-0.5 348,-19.5 386,-19.5 386,-0.5 348,-0.5"/>
<text text-anchor="middle" x="367" y="-7.5" font-family="Helvetica,sans-Serif" font-size="10.00">main</text>
</a>
</g>
</g>
<!-- Node18&#45;&gt;Node19 -->
<g id="edge28" class="edge"><title>Node18&#45;&gt;Node19</title>
<path fill="none" stroke="midnightblue" d="M321.941,-10C331.32,-10 340.257,-10 347.6,-10"/>
<polygon fill="midnightblue" stroke="midnightblue" points="321.645,-6.5001 311.645,-10 321.644,-13.5001 321.645,-6.5001"/>
</g>
</g>
</svg>
