<?xml version="1.0" encoding="UTF-8" standalone="no"?>
<!DOCTYPE svg PUBLIC "-//W3C//DTD SVG 1.1//EN"
 "http://www.w3.org/Graphics/SVG/1.1/DTD/svg11.dtd">
<!-- Generated by graphviz version 2.30.1 (20180420.1509)
 -->
<!-- Title: AccelHarmonic Pages: 1 -->
<svg width="350pt" height="85pt"
 viewBox="0.00 0.00 350.00 85.00" xmlns="http://www.w3.org/2000/svg" xmlns:xlink="http://www.w3.org/1999/xlink">
<g id="graph0" class="graph" transform="scale(1 1) rotate(0) translate(4 81)">
<title>AccelHarmonic</title>
<polygon fill="white" stroke="white" points="-4,5 -4,-81 347,-81 347,5 -4,5"/>
<!-- Node1 -->
<g id="node1" class="node"><title>Node1</title>
<polygon fill="#bfbfbf" stroke="black" points="0.5,-19.5 0.5,-38.5 83.5,-38.5 83.5,-19.5 0.5,-19.5"/>
<text text-anchor="middle" x="42" y="-26.5" font-family="Helvetica,sans-Serif" font-size="10.00">AccelHarmonic</text>
</g>
<!-- Node2 -->
<g id="node2" class="node"><title>Node2</title>
<g id="a_node2"><a xlink:href="RTOD_8cpp.html#ad928b0e88089fe577162bad47f911adf" target="_top" xlink:title="Accel">
<polygon fill="white" stroke="black" points="130.5,-38.5 130.5,-57.5 171.5,-57.5 171.5,-38.5 130.5,-38.5"/>
<text text-anchor="middle" x="151" y="-45.5" font-family="Helvetica,sans-Serif" font-size="10.00">Accel</text>
</a>
</g>
</g>
<!-- Node1&#45;&gt;Node2 -->
<g id="edge1" class="edge"><title>Node1&#45;&gt;Node2</title>
<path fill="none" stroke="midnightblue" d="M93.6215,-37.9889C106.646,-40.3017 119.899,-42.6549 130.28,-44.4983"/>
<polygon fill="midnightblue" stroke="midnightblue" points="94.2153,-34.5396 83.7574,-36.2373 92.9914,-41.4318 94.2153,-34.5396"/>
</g>
<!-- Node7 -->
<g id="node7" class="node"><title>Node7</title>
<g id="a_node7"><a xlink:href="SAT__Force_8h.html#a750f7a2f89dc275831e706abee33310f" target="_top" xlink:title="AccelMain">
<polygon fill="white" stroke="black" points="120,-0.5 120,-19.5 182,-19.5 182,-0.5 120,-0.5"/>
<text text-anchor="middle" x="151" y="-7.5" font-family="Helvetica,sans-Serif" font-size="10.00">AccelMain</text>
</a>
</g>
</g>
<!-- Node1&#45;&gt;Node7 -->
<g id="edge6" class="edge"><title>Node1&#45;&gt;Node7</title>
<path fill="none" stroke="midnightblue" d="M93.6925,-19.9985C102.578,-18.4208 111.566,-16.8247 119.675,-15.3849"/>
<polygon fill="midnightblue" stroke="midnightblue" points="92.9914,-16.5682 83.7574,-21.7627 94.2153,-23.4604 92.9914,-16.5682"/>
</g>
<!-- Node3 -->
<g id="node3" class="node"><title>Node3</title>
<g id="a_node3"><a xlink:href="RTOD_8cpp.html#a8ed60f2e5115e2e00c123e12b1cbb649" target="_top" xlink:title="Deriv">
<polygon fill="white" stroke="black" points="223,-57.5 223,-76.5 263,-76.5 263,-57.5 223,-57.5"/>
<text text-anchor="middle" x="243" y="-64.5" font-family="Helvetica,sans-Serif" font-size="10.00">Deriv</text>
</a>
</g>
</g>
<!-- Node2&#45;&gt;Node3 -->
<g id="edge2" class="edge"><title>Node2&#45;&gt;Node3</title>
<path fill="none" stroke="midnightblue" d="M181.409,-54.2085C195.009,-57.0797 210.778,-60.4086 222.819,-62.9506"/>
<polygon fill="midnightblue" stroke="midnightblue" points="182.036,-50.7639 171.529,-52.1227 180.59,-57.6129 182.036,-50.7639"/>
</g>
<!-- Node5 -->
<g id="node5" class="node"><title>Node5</title>
<g id="a_node5"><a xlink:href="TDRSOD_8cpp.html#a3df5b7f547d4cb81cae1bbb6d6a2962a" target="_top" xlink:title="VarEqn">
<polygon fill="white" stroke="black" points="218.5,-19.5 218.5,-38.5 267.5,-38.5 267.5,-19.5 218.5,-19.5"/>
<text text-anchor="middle" x="243" y="-26.5" font-family="Helvetica,sans-Serif" font-size="10.00">VarEqn</text>
</a>
</g>
</g>
<!-- Node2&#45;&gt;Node5 -->
<g id="edge4" class="edge"><title>Node2&#45;&gt;Node5</title>
<path fill="none" stroke="midnightblue" d="M181.504,-41.7714C193.456,-39.2482 207.069,-36.3742 218.352,-33.9924"/>
<polygon fill="midnightblue" stroke="midnightblue" points="180.59,-38.3871 171.529,-43.8773 182.036,-45.2361 180.59,-38.3871"/>
</g>
<!-- Node4 -->
<g id="node4" class="node"><title>Node4</title>
<g id="a_node4"><a xlink:href="RTOD_8cpp.html#a0ddf1224851353fc92bfbff6f499fa97" target="_top" xlink:title="main">
<polygon fill="white" stroke="black" points="304,-57.5 304,-76.5 342,-76.5 342,-57.5 304,-57.5"/>
<text text-anchor="middle" x="323" y="-64.5" font-family="Helvetica,sans-Serif" font-size="10.00">main</text>
</a>
</g>
</g>
<!-- Node3&#45;&gt;Node4 -->
<g id="edge3" class="edge"><title>Node3&#45;&gt;Node4</title>
<path fill="none" stroke="midnightblue" d="M273.43,-67C283.613,-67 294.723,-67 303.745,-67"/>
<polygon fill="midnightblue" stroke="midnightblue" points="273.281,-63.5001 263.281,-67 273.281,-70.5001 273.281,-63.5001"/>
</g>
<!-- Node6 -->
<g id="node6" class="node"><title>Node6</title>
<g id="a_node6"><a xlink:href="TDRSOD_8cpp.html#a0ddf1224851353fc92bfbff6f499fa97" target="_top" xlink:title="main">
<polygon fill="white" stroke="black" points="304,-19.5 304,-38.5 342,-38.5 342,-19.5 304,-19.5"/>
<text text-anchor="middle" x="323" y="-26.5" font-family="Helvetica,sans-Serif" font-size="10.00">main</text>
</a>
</g>
</g>
<!-- Node5&#45;&gt;Node6 -->
<g id="edge5" class="edge"><title>Node5&#45;&gt;Node6</title>
<path fill="none" stroke="midnightblue" d="M277.886,-29C286.687,-29 295.842,-29 303.515,-29"/>
<polygon fill="midnightblue" stroke="midnightblue" points="277.826,-25.5001 267.826,-29 277.826,-32.5001 277.826,-25.5001"/>
</g>
</g>
</svg>
