<?xml version="1.0" encoding="UTF-8" standalone="no"?>
<!DOCTYPE svg PUBLIC "-//W3C//DTD SVG 1.1//EN"
 "http://www.w3.org/Graphics/SVG/1.1/DTD/svg11.dtd">
<!-- Generated by graphviz version 2.30.1 (20180420.1509)
 -->
<!-- Title: Illumination Pages: 1 -->
<svg width="220pt" height="47pt"
 viewBox="0.00 0.00 220.00 47.00" xmlns="http://www.w3.org/2000/svg" xmlns:xlink="http://www.w3.org/1999/xlink">
<g id="graph0" class="graph" transform="scale(1 1) rotate(0) translate(4 43)">
<title>Illumination</title>
<polygon fill="white" stroke="white" points="-4,5 -4,-43 217,-43 217,5 -4,5"/>
<!-- Node1 -->
<g id="node1" class="node"><title>Node1</title>
<polygon fill="#bfbfbf" stroke="black" points="0,-0.5 0,-19.5 66,-19.5 66,-0.5 0,-0.5"/>
<text text-anchor="middle" x="33" y="-7.5" font-family="Helvetica,sans-Serif" font-size="10.00">Illumination</text>
</g>
<!-- Node2 -->
<g id="node2" class="node"><title>Node2</title>
<g id="a_node2"><a xlink:href="SAT__VecMat_8cpp.html#a313ce8c9730e0bd08a1396f364f0486c" target="_top" xlink:title="Norm">
<polygon fill="white" stroke="black" points="102.5,-19.5 102.5,-38.5 143.5,-38.5 143.5,-19.5 102.5,-19.5"/>
<text text-anchor="middle" x="123" y="-26.5" font-family="Helvetica,sans-Serif" font-size="10.00">Norm</text>
</a>
</g>
</g>
<!-- Node1&#45;&gt;Node2 -->
<g id="edge1" class="edge"><title>Node1&#45;&gt;Node2</title>
<path fill="none" stroke="midnightblue" d="M66.2683,-16.967C74.8472,-18.8193 84.068,-20.8101 92.4912,-22.6288"/>
<polygon fill="midnightblue" stroke="midnightblue" points="91.7599,-26.0515 102.273,-24.7408 93.2373,-19.2091 91.7599,-26.0515"/>
</g>
<!-- Node3 -->
<g id="node3" class="node"><title>Node3</title>
<g id="a_node3"><a xlink:href="SAT__VecMat_8cpp.html#a71375a6ebee7fc40c1d45985175d82e5" target="_top" xlink:title="Dot">
<polygon fill="white" stroke="black" points="180,-0.5 180,-19.5 212,-19.5 212,-0.5 180,-0.5"/>
<text text-anchor="middle" x="196" y="-7.5" font-family="Helvetica,sans-Serif" font-size="10.00">Dot</text>
</a>
</g>
</g>
<!-- Node1&#45;&gt;Node3 -->
<g id="edge3" class="edge"><title>Node1&#45;&gt;Node3</title>
<path fill="none" stroke="midnightblue" d="M66.1938,-10C96.6542,-10 141.758,-10 169.715,-10"/>
<polygon fill="midnightblue" stroke="midnightblue" points="169.867,-13.5001 179.867,-10 169.867,-6.5001 169.867,-13.5001"/>
</g>
<!-- Node2&#45;&gt;Node3 -->
<g id="edge2" class="edge"><title>Node2&#45;&gt;Node3</title>
<path fill="none" stroke="midnightblue" d="M143.777,-23.7074C151.829,-21.5529 161.232,-19.0365 169.769,-16.7521"/>
<polygon fill="midnightblue" stroke="midnightblue" points="170.847,-20.0867 179.602,-14.1205 169.037,-13.3247 170.847,-20.0867"/>
</g>
</g>
</svg>
