<?xml version="1.0" encoding="UTF-8" standalone="no"?>
<!DOCTYPE svg PUBLIC "-//W3C//DTD SVG 1.1//EN"
 "http://www.w3.org/Graphics/SVG/1.1/DTD/svg11.dtd">
<!-- Generated by graphviz version 2.30.1 (20180420.1509)
 -->
<!-- Title: Stack Pages: 1 -->
<svg width="328pt" height="142pt"
 viewBox="0.00 0.00 328.00 142.00" xmlns="http://www.w3.org/2000/svg" xmlns:xlink="http://www.w3.org/1999/xlink">
<g id="graph0" class="graph" transform="scale(1 1) rotate(0) translate(4 138)">
<title>Stack</title>
<polygon fill="white" stroke="white" points="-4,5 -4,-138 325,-138 325,5 -4,5"/>
<!-- Node1 -->
<g id="node1" class="node"><title>Node1</title>
<polygon fill="#bfbfbf" stroke="black" points="0,-57.5 0,-76.5 42,-76.5 42,-57.5 0,-57.5"/>
<text text-anchor="middle" x="21" y="-64.5" font-family="Helvetica,sans-Serif" font-size="10.00">Stack</text>
</g>
<!-- Node2 -->
<g id="node2" class="node"><title>Node2</title>
<g id="a_node2"><a xlink:href="GEODA_8cpp.html#a0ddf1224851353fc92bfbff6f499fa97" target="_top" xlink:title="main">
<polygon fill="white" stroke="black" points="96,-114.5 96,-133.5 134,-133.5 134,-114.5 96,-114.5"/>
<text text-anchor="middle" x="115" y="-121.5" font-family="Helvetica,sans-Serif" font-size="10.00">main</text>
</a>
</g>
</g>
<!-- Node1&#45;&gt;Node2 -->
<g id="edge1" class="edge"><title>Node1&#45;&gt;Node2</title>
<path fill="none" stroke="midnightblue" d="M46.2437,-82.0206C62.8381,-92.3018 84.3402,-105.624 98.6239,-114.474"/>
<polygon fill="midnightblue" stroke="midnightblue" points="47.9506,-78.9608 37.6065,-76.6693 44.2639,-84.9113 47.9506,-78.9608"/>
</g>
<!-- Node3 -->
<g id="node3" class="node"><title>Node3</title>
<g id="a_node3"><a xlink:href="RTOD_8cpp.html#a8ed60f2e5115e2e00c123e12b1cbb649" target="_top" xlink:title="Deriv">
<polygon fill="white" stroke="black" points="197,-76.5 197,-95.5 237,-95.5 237,-76.5 197,-76.5"/>
<text text-anchor="middle" x="217" y="-83.5" font-family="Helvetica,sans-Serif" font-size="10.00">Deriv</text>
</a>
</g>
</g>
<!-- Node1&#45;&gt;Node3 -->
<g id="edge2" class="edge"><title>Node1&#45;&gt;Node3</title>
<path fill="none" stroke="midnightblue" d="M52.0943,-69.9474C92.5121,-73.9058 163.151,-80.8241 196.94,-84.1333"/>
<polygon fill="midnightblue" stroke="midnightblue" points="52.3243,-66.4532 42.0307,-68.9618 51.6419,-73.4199 52.3243,-66.4532"/>
</g>
<!-- Node5 -->
<g id="node5" class="node"><title>Node5</title>
<g id="a_node5"><a xlink:href="SAT__Kepler_8h.html#ad89a224ad24d23f6059beb84e1c0817f" target="_top" xlink:title="State">
<polygon fill="white" stroke="black" points="95,-38.5 95,-57.5 135,-57.5 135,-38.5 95,-38.5"/>
<text text-anchor="middle" x="115" y="-45.5" font-family="Helvetica,sans-Serif" font-size="10.00">State</text>
</a>
</g>
</g>
<!-- Node1&#45;&gt;Node5 -->
<g id="edge4" class="edge"><title>Node1&#45;&gt;Node5</title>
<path fill="none" stroke="midnightblue" d="M52.585,-60.6835C66.5585,-57.7977 82.678,-54.4687 94.8957,-51.9455"/>
<polygon fill="midnightblue" stroke="midnightblue" points="51.5032,-57.333 42.4178,-62.7833 52.919,-64.1883 51.5032,-57.333"/>
</g>
<!-- Node7 -->
<g id="node7" class="node"><title>Node7</title>
<g id="a_node7"><a xlink:href="SAT__Kepler_8h.html#ad41abe3ee1647b2de98425457c6fdce2" target="_top" xlink:title="StatePartials">
<polygon fill="white" stroke="black" points="78.5,-0.5 78.5,-19.5 151.5,-19.5 151.5,-0.5 78.5,-0.5"/>
<text text-anchor="middle" x="115" y="-7.5" font-family="Helvetica,sans-Serif" font-size="10.00">StatePartials</text>
</a>
</g>
</g>
<!-- Node1&#45;&gt;Node7 -->
<g id="edge7" class="edge"><title>Node1&#45;&gt;Node7</title>
<path fill="none" stroke="midnightblue" d="M43.8517,-51.3485C54.0555,-44.2549 66.4708,-35.9252 78,-29 83.3312,-25.7977 89.2511,-22.5519 94.725,-19.6709"/>
<polygon fill="midnightblue" stroke="midnightblue" points="41.6995,-48.5831 35.5318,-57.1977 45.7254,-54.3096 41.6995,-48.5831"/>
</g>
<!-- Node4 -->
<g id="node4" class="node"><title>Node4</title>
<g id="a_node4"><a xlink:href="RTOD_8cpp.html#a0ddf1224851353fc92bfbff6f499fa97" target="_top" xlink:title="main">
<polygon fill="white" stroke="black" points="282,-57.5 282,-76.5 320,-76.5 320,-57.5 282,-57.5"/>
<text text-anchor="middle" x="301" y="-64.5" font-family="Helvetica,sans-Serif" font-size="10.00">main</text>
</a>
</g>
</g>
<!-- Node3&#45;&gt;Node4 -->
<g id="edge3" class="edge"><title>Node3&#45;&gt;Node4</title>
<path fill="none" stroke="midnightblue" d="M246.806,-79.3255C258.492,-76.6177 271.632,-73.573 281.929,-71.1873"/>
<polygon fill="midnightblue" stroke="midnightblue" points="245.97,-75.9262 237.019,-81.5933 247.551,-82.7456 245.97,-75.9262"/>
</g>
<!-- Node6 -->
<g id="node6" class="node"><title>Node6</title>
<g id="a_node6"><a xlink:href="SAT__Kepler_8h.html#aeb2175e4cdc39ea590f44fc2949ea8d3" target="_top" xlink:title="TwoBody">
<polygon fill="white" stroke="black" points="188,-38.5 188,-57.5 246,-57.5 246,-38.5 188,-38.5"/>
<text text-anchor="middle" x="217" y="-45.5" font-family="Helvetica,sans-Serif" font-size="10.00">TwoBody</text>
</a>
</g>
</g>
<!-- Node5&#45;&gt;Node6 -->
<g id="edge5" class="edge"><title>Node5&#45;&gt;Node6</title>
<path fill="none" stroke="midnightblue" d="M145.388,-48C158.742,-48 174.474,-48 187.695,-48"/>
<polygon fill="midnightblue" stroke="midnightblue" points="145.281,-44.5001 135.281,-48 145.281,-51.5001 145.281,-44.5001"/>
</g>
<!-- Node6&#45;&gt;Node4 -->
<g id="edge6" class="edge"><title>Node6&#45;&gt;Node4</title>
<path fill="none" stroke="midnightblue" d="M256.052,-56.817C264.909,-58.8692 273.95,-60.9641 281.511,-62.716"/>
<polygon fill="midnightblue" stroke="midnightblue" points="256.752,-53.3864 246.22,-54.5387 255.172,-60.2057 256.752,-53.3864"/>
</g>
<!-- Node7&#45;&gt;Node6 -->
<g id="edge8" class="edge"><title>Node7&#45;&gt;Node6</title>
<path fill="none" stroke="midnightblue" d="M150.907,-23.2646C164.035,-28.2533 178.695,-33.8241 190.774,-38.4141"/>
<polygon fill="midnightblue" stroke="midnightblue" points="151.825,-19.8695 141.234,-19.589 149.339,-26.413 151.825,-19.8695"/>
</g>
</g>
</svg>
