<?xml version="1.0" encoding="UTF-8" standalone="no"?>
<!DOCTYPE svg PUBLIC "-//W3C//DTD SVG 1.1//EN"
 "http://www.w3.org/Graphics/SVG/1.1/DTD/svg11.dtd">
<!-- Generated by graphviz version 2.30.1 (20180420.1509)
 -->
<!-- Title: SAT_VecMat.h Pages: 1 -->
<svg width="843pt" height="140pt"
 viewBox="0.00 0.00 843.00 140.00" xmlns="http://www.w3.org/2000/svg" xmlns:xlink="http://www.w3.org/1999/xlink">
<g id="graph0" class="graph" transform="scale(1 1) rotate(0) translate(4 136)">
<title>SAT_VecMat.h</title>
<polygon fill="white" stroke="white" points="-4,5 -4,-136 840,-136 840,5 -4,5"/>
<!-- Node1 -->
<g id="node1" class="node"><title>Node1</title>
<polygon fill="#bfbfbf" stroke="black" points="374.5,-112.5 374.5,-131.5 457.5,-131.5 457.5,-112.5 374.5,-112.5"/>
<text text-anchor="middle" x="416" y="-119.5" font-family="Helvetica,sans-Serif" font-size="10.00">SAT_VecMat.h</text>
</g>
<!-- Node2 -->
<g id="node2" class="node"><title>Node2</title>
<g id="a_node2"><a xlink:href="SAT__Filter_8h.html" target="_top" xlink:title="SAT_Filter.h">
<polygon fill="white" stroke="black" points="123.5,-56.5 123.5,-75.5 194.5,-75.5 194.5,-56.5 123.5,-56.5"/>
<text text-anchor="middle" x="159" y="-63.5" font-family="Helvetica,sans-Serif" font-size="10.00">SAT_Filter.h</text>
</a>
</g>
</g>
<!-- Node1&#45;&gt;Node2 -->
<g id="edge1" class="edge"><title>Node1&#45;&gt;Node2</title>
<path fill="none" stroke="midnightblue" d="M365.243,-110.335C314.838,-99.7441 238.863,-83.7805 194.566,-74.473"/>
<polygon fill="midnightblue" stroke="midnightblue" points="364.772,-113.812 375.278,-112.444 366.211,-106.962 364.772,-113.812"/>
</g>
<!-- Node7 -->
<g id="node7" class="node"><title>Node7</title>
<g id="a_node7"><a xlink:href="SAT__RefSys_8h.html" target="_top" xlink:title="SAT_RefSys.h">
<polygon fill="white" stroke="black" points="212.5,-56.5 212.5,-75.5 295.5,-75.5 295.5,-56.5 212.5,-56.5"/>
<text text-anchor="middle" x="254" y="-63.5" font-family="Helvetica,sans-Serif" font-size="10.00">SAT_RefSys.h</text>
</a>
</g>
</g>
<!-- Node1&#45;&gt;Node7 -->
<g id="edge6" class="edge"><title>Node1&#45;&gt;Node7</title>
<path fill="none" stroke="midnightblue" d="M380.516,-109.172C350.012,-99.0039 306.755,-84.5852 279.549,-75.5164"/>
<polygon fill="midnightblue" stroke="midnightblue" points="379.737,-112.602 390.331,-112.444 381.951,-105.961 379.737,-112.602"/>
</g>
<!-- Node3 -->
<g id="node3" class="node"><title>Node3</title>
<g id="a_node3"><a xlink:href="GEODA_8cpp.html" target="_top" xlink:title="GEODA.cpp">
<polygon fill="white" stroke="black" points="122.5,-0.5 122.5,-19.5 193.5,-19.5 193.5,-0.5 122.5,-0.5"/>
<text text-anchor="middle" x="158" y="-7.5" font-family="Helvetica,sans-Serif" font-size="10.00">GEODA.cpp</text>
</a>
</g>
</g>
<!-- Node1&#45;&gt;Node3 -->
<g id="edge12" class="edge"><title>Node1&#45;&gt;Node3</title>
<path fill="none" stroke="midnightblue" d="M363.984,-121.302C284.545,-120.528 138.737,-113.832 106,-76 88.9786,-56.3294 121.602,-32.1856 142.472,-19.5838"/>
<polygon fill="midnightblue" stroke="midnightblue" points="364.243,-124.803 374.266,-121.372 364.291,-117.804 364.243,-124.803"/>
</g>
<!-- Node10 -->
<g id="node10" class="node"><title>Node10</title>
<g id="a_node10"><a xlink:href="SAT__DE_8h.html" target="_top" xlink:title="SAT_DE.h">
<polygon fill="white" stroke="black" points="444,-56.5 444,-75.5 508,-75.5 508,-56.5 444,-56.5"/>
<text text-anchor="middle" x="476" y="-63.5" font-family="Helvetica,sans-Serif" font-size="10.00">SAT_DE.h</text>
</a>
</g>
</g>
<!-- Node1&#45;&gt;Node10 -->
<g id="edge13" class="edge"><title>Node1&#45;&gt;Node10</title>
<path fill="none" stroke="midnightblue" d="M433.181,-105.537C443.879,-95.9087 457.256,-83.8694 466.185,-75.8339"/>
<polygon fill="midnightblue" stroke="midnightblue" points="430.732,-103.033 425.64,-112.324 435.414,-108.236 430.732,-103.033"/>
</g>
<!-- Node12 -->
<g id="node12" class="node"><title>Node12</title>
<g id="a_node12"><a xlink:href="SAT__Kepler_8h.html" target="_top" xlink:title="SAT_Kepler.h">
<polygon fill="white" stroke="black" points="564.5,-56.5 564.5,-75.5 641.5,-75.5 641.5,-56.5 564.5,-56.5"/>
<text text-anchor="middle" x="603" y="-63.5" font-family="Helvetica,sans-Serif" font-size="10.00">SAT_Kepler.h</text>
</a>
</g>
</g>
<!-- Node1&#45;&gt;Node12 -->
<g id="edge17" class="edge"><title>Node1&#45;&gt;Node12</title>
<path fill="none" stroke="midnightblue" d="M455.59,-109.568C490.866,-99.381 541.694,-84.7034 573.508,-75.5164"/>
<polygon fill="midnightblue" stroke="midnightblue" points="454.267,-106.307 445.631,-112.444 456.209,-113.032 454.267,-106.307"/>
</g>
<!-- Node14 -->
<g id="node14" class="node"><title>Node14</title>
<g id="a_node14"><a xlink:href="SAT__Force_8h.html" target="_top" xlink:title="SAT_Force.h">
<polygon fill="white" stroke="black" points="314,-56.5 314,-75.5 388,-75.5 388,-56.5 314,-56.5"/>
<text text-anchor="middle" x="351" y="-63.5" font-family="Helvetica,sans-Serif" font-size="10.00">SAT_Force.h</text>
</a>
</g>
</g>
<!-- Node1&#45;&gt;Node14 -->
<g id="edge21" class="edge"><title>Node1&#45;&gt;Node14</title>
<path fill="none" stroke="midnightblue" d="M397.727,-105.82C386.082,-96.1452 371.401,-83.9481 361.633,-75.8339"/>
<polygon fill="midnightblue" stroke="midnightblue" points="395.628,-108.626 405.557,-112.324 400.101,-103.242 395.628,-108.626"/>
</g>
<!-- Node4 -->
<g id="node4" class="node"><title>Node4</title>
<g id="a_node4"><a xlink:href="RTOD_8cpp.html" target="_top" xlink:title="RTOD.cpp">
<polygon fill="white" stroke="black" points="319,-0.5 319,-19.5 383,-19.5 383,-0.5 319,-0.5"/>
<text text-anchor="middle" x="351" y="-7.5" font-family="Helvetica,sans-Serif" font-size="10.00">RTOD.cpp</text>
</a>
</g>
</g>
<!-- Node1&#45;&gt;Node4 -->
<g id="edge25" class="edge"><title>Node1&#45;&gt;Node4</title>
<path fill="none" stroke="midnightblue" d="M413.173,-102.381C410.508,-88.798 405.6,-70.3349 397,-56 388.149,-41.2467 373.3,-27.959 362.873,-19.7124"/>
<polygon fill="midnightblue" stroke="midnightblue" points="409.76,-103.189 414.915,-112.446 416.658,-101.995 409.76,-103.189"/>
</g>
<!-- Node5 -->
<g id="node5" class="node"><title>Node5</title>
<g id="a_node5"><a xlink:href="SAT__Filter_8cpp.html" target="_top" xlink:title="SAT_Filter.cpp">
<polygon fill="white" stroke="black" points="0,-0.5 0,-19.5 82,-19.5 82,-0.5 0,-0.5"/>
<text text-anchor="middle" x="41" y="-7.5" font-family="Helvetica,sans-Serif" font-size="10.00">SAT_Filter.cpp</text>
</a>
</g>
</g>
<!-- Node1&#45;&gt;Node5 -->
<g id="edge26" class="edge"><title>Node1&#45;&gt;Node5</title>
<path fill="none" stroke="midnightblue" d="M364.162,-118.032C286.143,-112.84 142.885,-100.273 98,-76 73.4437,-62.7207 54.4808,-34.4249 45.9466,-19.9434"/>
<polygon fill="midnightblue" stroke="midnightblue" points="364.056,-121.533 374.261,-118.687 364.509,-114.547 364.056,-121.533"/>
</g>
<!-- Node8 -->
<g id="node8" class="node"><title>Node8</title>
<g id="a_node8"><a xlink:href="SAT__Force_8cpp.html" target="_top" xlink:title="SAT_Force.cpp">
<polygon fill="white" stroke="black" points="211.5,-0.5 211.5,-19.5 296.5,-19.5 296.5,-0.5 211.5,-0.5"/>
<text text-anchor="middle" x="254" y="-7.5" font-family="Helvetica,sans-Serif" font-size="10.00">SAT_Force.cpp</text>
</a>
</g>
</g>
<!-- Node1&#45;&gt;Node8 -->
<g id="edge27" class="edge"><title>Node1&#45;&gt;Node8</title>
<path fill="none" stroke="midnightblue" d="M364.405,-121.076C286.802,-119.968 145.716,-112.792 114,-76 108.196,-69.2674 108.764,-63.183 114,-56 125.655,-40.0112 174.52,-26.8872 211.263,-19.0202"/>
<polygon fill="midnightblue" stroke="midnightblue" points="364.419,-124.577 374.458,-121.191 364.499,-117.577 364.419,-124.577"/>
</g>
<!-- Node13 -->
<g id="node13" class="node"><title>Node13</title>
<g id="a_node13"><a xlink:href="SAT__Kepler_8cpp.html" target="_top" xlink:title="SAT_Kepler.cpp">
<polygon fill="white" stroke="black" points="747,-0.5 747,-19.5 835,-19.5 835,-0.5 747,-0.5"/>
<text text-anchor="middle" x="791" y="-7.5" font-family="Helvetica,sans-Serif" font-size="10.00">SAT_Kepler.cpp</text>
</a>
</g>
</g>
<!-- Node1&#45;&gt;Node13 -->
<g id="edge28" class="edge"><title>Node1&#45;&gt;Node13</title>
<path fill="none" stroke="midnightblue" d="M467.67,-118.716C567.54,-113.769 779.207,-100.489 801,-76 814.966,-60.3064 803.69,-33.5932 796.242,-19.8085"/>
<polygon fill="midnightblue" stroke="midnightblue" points="467.319,-115.229 457.501,-119.21 467.659,-122.221 467.319,-115.229"/>
</g>
<!-- Node9 -->
<g id="node9" class="node"><title>Node9</title>
<g id="a_node9"><a xlink:href="SAT__RefSys_8cpp.html" target="_top" xlink:title="SAT_RefSys.cpp">
<polygon fill="white" stroke="black" points="606.5,-0.5 606.5,-19.5 699.5,-19.5 699.5,-0.5 606.5,-0.5"/>
<text text-anchor="middle" x="653" y="-7.5" font-family="Helvetica,sans-Serif" font-size="10.00">SAT_RefSys.cpp</text>
</a>
</g>
</g>
<!-- Node1&#45;&gt;Node9 -->
<g id="edge29" class="edge"><title>Node1&#45;&gt;Node9</title>
<path fill="none" stroke="midnightblue" d="M467.985,-118.301C529.571,-113.912 626.774,-102.834 650,-76 663.604,-60.2837 659.202,-33.5805 655.65,-19.8031"/>
<polygon fill="midnightblue" stroke="midnightblue" points="467.417,-114.831 457.676,-118.997 467.889,-121.815 467.417,-114.831"/>
</g>
<!-- Node15 -->
<g id="node15" class="node"><title>Node15</title>
<g id="a_node15"><a xlink:href="SAT__VecMat_8cpp.html" target="_top" xlink:title="SAT_VecMat.cpp">
<polygon fill="white" stroke="black" points="698,-56.5 698,-75.5 792,-75.5 792,-56.5 698,-56.5"/>
<text text-anchor="middle" x="745" y="-63.5" font-family="Helvetica,sans-Serif" font-size="10.00">SAT_VecMat.cpp</text>
</a>
</g>
</g>
<!-- Node1&#45;&gt;Node15 -->
<g id="edge30" class="edge"><title>Node1&#45;&gt;Node15</title>
<path fill="none" stroke="midnightblue" d="M467.806,-112.497C530.977,-102.128 636.842,-84.7523 697.832,-74.7418"/>
<polygon fill="midnightblue" stroke="midnightblue" points="466.969,-109.087 457.668,-114.161 468.103,-115.995 466.969,-109.087"/>
</g>
<!-- Node6 -->
<g id="node6" class="node"><title>Node6</title>
<g id="a_node6"><a xlink:href="TDRSOD_8cpp.html" target="_top" xlink:title="TDRSOD.cpp">
<polygon fill="white" stroke="black" points="401,-0.5 401,-19.5 479,-19.5 479,-0.5 401,-0.5"/>
<text text-anchor="middle" x="440" y="-7.5" font-family="Helvetica,sans-Serif" font-size="10.00">TDRSOD.cpp</text>
</a>
</g>
</g>
<!-- Node1&#45;&gt;Node6 -->
<g id="edge31" class="edge"><title>Node1&#45;&gt;Node6</title>
<path fill="none" stroke="midnightblue" d="M467.518,-110.497C486.383,-103.89 505.829,-93.2071 517,-76 533.194,-51.0556 493.925,-30.5768 465.714,-19.6327"/>
<polygon fill="midnightblue" stroke="midnightblue" points="466.227,-107.235 457.752,-113.594 468.343,-113.907 466.227,-107.235"/>
</g>
<!-- Node2&#45;&gt;Node3 -->
<g id="edge2" class="edge"><title>Node2&#45;&gt;Node3</title>
<path fill="none" stroke="midnightblue" d="M158.645,-45.8045C158.48,-36.9102 158.292,-26.7798 158.162,-19.7511"/>
<polygon fill="midnightblue" stroke="midnightblue" points="155.15,-46.1495 158.835,-56.083 162.149,-46.0199 155.15,-46.1495"/>
</g>
<!-- Node2&#45;&gt;Node4 -->
<g id="edge3" class="edge"><title>Node2&#45;&gt;Node4</title>
<path fill="none" stroke="midnightblue" d="M199.183,-53.6986C235.419,-43.507 287.914,-28.7429 320.719,-19.5164"/>
<polygon fill="midnightblue" stroke="midnightblue" points="198.102,-50.3667 189.423,-56.4435 199.997,-57.1053 198.102,-50.3667"/>
</g>
<!-- Node2&#45;&gt;Node5 -->
<g id="edge4" class="edge"><title>Node2&#45;&gt;Node5</title>
<path fill="none" stroke="midnightblue" d="M131.1,-52.2321C109.027,-42.1312 78.8237,-28.3091 59.61,-19.5164"/>
<polygon fill="midnightblue" stroke="midnightblue" points="129.753,-55.4648 140.303,-56.4435 132.666,-49.0997 129.753,-55.4648"/>
</g>
<!-- Node2&#45;&gt;Node6 -->
<g id="edge5" class="edge"><title>Node2&#45;&gt;Node6</title>
<path fill="none" stroke="midnightblue" d="M204.382,-55.7527C253.836,-46.0895 347.626,-28.3864 400.942,-18.3467"/>
<polygon fill="midnightblue" stroke="midnightblue" points="203.671,-52.3255 194.533,-57.6871 205.02,-59.1943 203.671,-52.3255"/>
</g>
<!-- Node7&#45;&gt;Node3 -->
<g id="edge7" class="edge"><title>Node7&#45;&gt;Node3</title>
<path fill="none" stroke="midnightblue" d="M229.426,-51.1774C211.761,-41.2407 188.487,-28.1492 173.386,-19.6545"/>
<polygon fill="midnightblue" stroke="midnightblue" points="228.144,-54.4718 238.576,-56.324 231.576,-48.3708 228.144,-54.4718"/>
</g>
<!-- Node7&#45;&gt;Node4 -->
<g id="edge8" class="edge"><title>Node7&#45;&gt;Node4</title>
<path fill="none" stroke="midnightblue" d="M278.335,-51.4526C296.243,-41.4835 320.054,-28.2279 335.454,-19.6545"/>
<polygon fill="midnightblue" stroke="midnightblue" points="276.62,-48.4018 269.585,-56.324 280.025,-54.5179 276.62,-48.4018"/>
</g>
<!-- Node7&#45;&gt;Node8 -->
<g id="edge9" class="edge"><title>Node7&#45;&gt;Node8</title>
<path fill="none" stroke="midnightblue" d="M254,-45.8045C254,-36.9102 254,-26.7798 254,-19.7511"/>
<polygon fill="midnightblue" stroke="midnightblue" points="250.5,-46.083 254,-56.083 257.5,-46.083 250.5,-46.083"/>
</g>
<!-- Node7&#45;&gt;Node9 -->
<g id="edge10" class="edge"><title>Node7&#45;&gt;Node9</title>
<path fill="none" stroke="midnightblue" d="M305.672,-55.9766C377.185,-45.3849 529.125,-26.3417 606.303,-16.767"/>
<polygon fill="midnightblue" stroke="midnightblue" points="305.09,-52.5247 295.723,-57.4758 306.133,-59.4466 305.09,-52.5247"/>
</g>
<!-- Node7&#45;&gt;Node6 -->
<g id="edge11" class="edge"><title>Node7&#45;&gt;Node6</title>
<path fill="none" stroke="midnightblue" d="M293.378,-53.5677C328.466,-43.381 379.021,-28.7034 410.666,-19.5164"/>
<polygon fill="midnightblue" stroke="midnightblue" points="292.1,-50.2942 283.472,-56.4435 294.052,-57.0166 292.1,-50.2942"/>
</g>
<!-- Node10&#45;&gt;Node4 -->
<g id="edge14" class="edge"><title>Node10&#45;&gt;Node4</title>
<path fill="none" stroke="midnightblue" d="M446.759,-52.3678C423.35,-42.2553 391.159,-28.3486 370.714,-19.5164"/>
<polygon fill="midnightblue" stroke="midnightblue" points="445.625,-55.6907 456.193,-56.4435 448.401,-49.2647 445.625,-55.6907"/>
</g>
<!-- Node11 -->
<g id="node11" class="node"><title>Node11</title>
<g id="a_node11"><a xlink:href="SAT__DE_8cpp.html" target="_top" xlink:title="SAT_DE.cpp">
<polygon fill="white" stroke="black" points="497,-0.5 497,-19.5 571,-19.5 571,-0.5 497,-0.5"/>
<text text-anchor="middle" x="534" y="-7.5" font-family="Helvetica,sans-Serif" font-size="10.00">SAT_DE.cpp</text>
</a>
</g>
</g>
<!-- Node10&#45;&gt;Node11 -->
<g id="edge15" class="edge"><title>Node10&#45;&gt;Node11</title>
<path fill="none" stroke="midnightblue" d="M492.913,-49.2533C503.203,-39.6731 515.966,-27.7906 524.512,-19.8339"/>
<polygon fill="midnightblue" stroke="midnightblue" points="490.253,-46.9481 485.319,-56.324 495.023,-52.0714 490.253,-46.9481"/>
</g>
<!-- Node10&#45;&gt;Node6 -->
<g id="edge16" class="edge"><title>Node10&#45;&gt;Node6</title>
<path fill="none" stroke="midnightblue" d="M464.377,-47.5656C458.183,-38.2747 450.832,-27.2484 445.834,-19.7511"/>
<polygon fill="midnightblue" stroke="midnightblue" points="461.596,-49.7039 470.055,-56.083 467.42,-45.821 461.596,-49.7039"/>
</g>
<!-- Node12&#45;&gt;Node4 -->
<g id="edge18" class="edge"><title>Node12&#45;&gt;Node4</title>
<path fill="none" stroke="midnightblue" d="M554.62,-54.7677C511.842,-45.6996 447.751,-32.064 392,-20 389.151,-19.3835 386.191,-18.7399 383.225,-18.0928"/>
<polygon fill="midnightblue" stroke="midnightblue" points="553.974,-58.2084 564.483,-56.8574 555.425,-51.3605 553.974,-58.2084"/>
</g>
<!-- Node12&#45;&gt;Node13 -->
<g id="edge19" class="edge"><title>Node12&#45;&gt;Node13</title>
<path fill="none" stroke="midnightblue" d="M642.801,-53.5677C678.266,-43.381 729.366,-28.7034 761.35,-19.5164"/>
<polygon fill="midnightblue" stroke="midnightblue" points="641.434,-50.3188 632.789,-56.4435 643.367,-57.0467 641.434,-50.3188"/>
</g>
<!-- Node12&#45;&gt;Node6 -->
<g id="edge20" class="edge"><title>Node12&#45;&gt;Node6</title>
<path fill="none" stroke="midnightblue" d="M567.297,-53.172C536.604,-43.0039 493.081,-28.5852 465.707,-19.5164"/>
<polygon fill="midnightblue" stroke="midnightblue" points="566.579,-56.6211 577.172,-56.4435 568.78,-49.9762 566.579,-56.6211"/>
</g>
<!-- Node14&#45;&gt;Node4 -->
<g id="edge22" class="edge"><title>Node14&#45;&gt;Node4</title>
<path fill="none" stroke="midnightblue" d="M351,-45.8045C351,-36.9102 351,-26.7798 351,-19.7511"/>
<polygon fill="midnightblue" stroke="midnightblue" points="347.5,-46.083 351,-56.083 354.5,-46.083 347.5,-46.083"/>
</g>
<!-- Node14&#45;&gt;Node8 -->
<g id="edge23" class="edge"><title>Node14&#45;&gt;Node8</title>
<path fill="none" stroke="midnightblue" d="M326.665,-51.4526C308.757,-41.4835 284.946,-28.2279 269.546,-19.6545"/>
<polygon fill="midnightblue" stroke="midnightblue" points="324.975,-54.5179 335.415,-56.324 328.38,-48.4018 324.975,-54.5179"/>
</g>
<!-- Node14&#45;&gt;Node6 -->
<g id="edge24" class="edge"><title>Node14&#45;&gt;Node6</title>
<path fill="none" stroke="midnightblue" d="M374.238,-50.9005C390.558,-40.9986 411.865,-28.0705 425.736,-19.6545"/>
<polygon fill="midnightblue" stroke="midnightblue" points="372.033,-48.1444 365.299,-56.324 375.664,-54.1289 372.033,-48.1444"/>
</g>
</g>
</svg>
