<?xml version="1.0" encoding="UTF-8" standalone="no"?>
<!DOCTYPE svg PUBLIC "-//W3C//DTD SVG 1.1//EN"
 "http://www.w3.org/Graphics/SVG/1.1/DTD/svg11.dtd">
<!-- Generated by graphviz version 2.30.1 (20180420.1509)
 -->
<!-- Title: NutAngles Pages: 1 -->
<svg width="534pt" height="104pt"
 viewBox="0.00 0.00 534.00 104.00" xmlns="http://www.w3.org/2000/svg" xmlns:xlink="http://www.w3.org/1999/xlink">
<g id="graph0" class="graph" transform="scale(1 1) rotate(0) translate(4 100)">
<title>NutAngles</title>
<polygon fill="white" stroke="white" points="-4,5 -4,-100 531,-100 531,5 -4,5"/>
<!-- Node1 -->
<g id="node1" class="node"><title>Node1</title>
<polygon fill="#bfbfbf" stroke="black" points="0,-38.5 0,-57.5 62,-57.5 62,-38.5 0,-38.5"/>
<text text-anchor="middle" x="31" y="-45.5" font-family="Helvetica,sans-Serif" font-size="10.00">NutAngles</text>
</g>
<!-- Node2 -->
<g id="node2" class="node"><title>Node2</title>
<g id="a_node2"><a xlink:href="SAT__RefSys_8h.html#a35e586a324741da54bc1e407a5586378" target="_top" xlink:title="NutMatrix">
<polygon fill="white" stroke="black" points="287.5,-57.5 287.5,-76.5 346.5,-76.5 346.5,-57.5 287.5,-57.5"/>
<text text-anchor="middle" x="317" y="-64.5" font-family="Helvetica,sans-Serif" font-size="10.00">NutMatrix</text>
</a>
</g>
</g>
<!-- Node1&#45;&gt;Node2 -->
<g id="edge1" class="edge"><title>Node1&#45;&gt;Node2</title>
<path fill="none" stroke="midnightblue" d="M72.4159,-50.7039C130.644,-54.5994 236.701,-61.6948 287.453,-65.0902"/>
<polygon fill="midnightblue" stroke="midnightblue" points="72.3355,-47.1908 62.1241,-50.0153 71.8681,-54.1752 72.3355,-47.1908"/>
</g>
<!-- Node7 -->
<g id="node7" class="node"><title>Node7</title>
<g id="a_node7"><a xlink:href="SAT__RefSys_8h.html#a1178917cf376ea4f15cea33c59028635" target="_top" xlink:title="EqnEquinox">
<polygon fill="white" stroke="black" points="98.5,-19.5 98.5,-38.5 167.5,-38.5 167.5,-19.5 98.5,-19.5"/>
<text text-anchor="middle" x="133" y="-26.5" font-family="Helvetica,sans-Serif" font-size="10.00">EqnEquinox</text>
</a>
</g>
</g>
<!-- Node1&#45;&gt;Node7 -->
<g id="edge6" class="edge"><title>Node1&#45;&gt;Node7</title>
<path fill="none" stroke="midnightblue" d="M71.9415,-40.4111C80.6293,-38.7604 89.7397,-37.0294 98.1642,-35.4288"/>
<polygon fill="midnightblue" stroke="midnightblue" points="71.1742,-36.9942 62.0033,-42.2994 72.4809,-43.8712 71.1742,-36.9942"/>
</g>
<!-- Node3 -->
<g id="node3" class="node"><title>Node3</title>
<g id="a_node3"><a xlink:href="SAT__Force_8h.html#a750f7a2f89dc275831e706abee33310f" target="_top" xlink:title="AccelMain">
<polygon fill="white" stroke="black" points="388,-76.5 388,-95.5 450,-95.5 450,-76.5 388,-76.5"/>
<text text-anchor="middle" x="419" y="-83.5" font-family="Helvetica,sans-Serif" font-size="10.00">AccelMain</text>
</a>
</g>
</g>
<!-- Node2&#45;&gt;Node3 -->
<g id="edge2" class="edge"><title>Node2&#45;&gt;Node3</title>
<path fill="none" stroke="midnightblue" d="M356.721,-74.3569C367.084,-76.3259 378.128,-78.4244 387.946,-80.2897"/>
<polygon fill="midnightblue" stroke="midnightblue" points="357.134,-70.8728 346.656,-72.4446 355.827,-77.7498 357.134,-70.8728"/>
</g>
<!-- Node4 -->
<g id="node4" class="node"><title>Node4</title>
<g id="a_node4"><a xlink:href="TDRSOD_8cpp.html#a1d3803a2ec3760bf63edefae54e3ac5b" target="_top" xlink:title="Accel">
<polygon fill="white" stroke="black" points="398.5,-38.5 398.5,-57.5 439.5,-57.5 439.5,-38.5 398.5,-38.5"/>
<text text-anchor="middle" x="419" y="-45.5" font-family="Helvetica,sans-Serif" font-size="10.00">Accel</text>
</a>
</g>
</g>
<!-- Node2&#45;&gt;Node4 -->
<g id="edge3" class="edge"><title>Node2&#45;&gt;Node4</title>
<path fill="none" stroke="midnightblue" d="M356.695,-59.648C370.889,-56.9511 386.366,-54.0105 398.218,-51.7586"/>
<polygon fill="midnightblue" stroke="midnightblue" points="355.827,-56.2502 346.656,-61.5554 357.134,-63.1272 355.827,-56.2502"/>
</g>
<!-- Node5 -->
<g id="node5" class="node"><title>Node5</title>
<g id="a_node5"><a xlink:href="TDRSOD_8cpp.html#a466ab098330aeb2aa659365279071640" target="_top" xlink:title="Range_4W">
<polygon fill="white" stroke="black" points="386.5,-0.5 386.5,-19.5 451.5,-19.5 451.5,-0.5 386.5,-0.5"/>
<text text-anchor="middle" x="419" y="-7.5" font-family="Helvetica,sans-Serif" font-size="10.00">Range_4W</text>
</a>
</g>
</g>
<!-- Node2&#45;&gt;Node5 -->
<g id="edge4" class="edge"><title>Node2&#45;&gt;Node5</title>
<path fill="none" stroke="midnightblue" d="M343.852,-52.2642C361.956,-41.9452 385.617,-28.4581 401.287,-19.5265"/>
<polygon fill="midnightblue" stroke="midnightblue" points="341.918,-49.3379 334.964,-57.3307 345.385,-55.4194 341.918,-49.3379"/>
</g>
<!-- Node6 -->
<g id="node6" class="node"><title>Node6</title>
<g id="a_node6"><a xlink:href="TDRSOD_8cpp.html#a0ddf1224851353fc92bfbff6f499fa97" target="_top" xlink:title="main">
<polygon fill="white" stroke="black" points="488,-0.5 488,-19.5 526,-19.5 526,-0.5 488,-0.5"/>
<text text-anchor="middle" x="507" y="-7.5" font-family="Helvetica,sans-Serif" font-size="10.00">main</text>
</a>
</g>
</g>
<!-- Node5&#45;&gt;Node6 -->
<g id="edge5" class="edge"><title>Node5&#45;&gt;Node6</title>
<path fill="none" stroke="midnightblue" d="M461.813,-10C471.024,-10 480.308,-10 487.972,-10"/>
<polygon fill="midnightblue" stroke="midnightblue" points="461.535,-6.5001 451.535,-10 461.535,-13.5001 461.535,-6.5001"/>
</g>
<!-- Node8 -->
<g id="node8" class="node"><title>Node8</title>
<g id="a_node8"><a xlink:href="SAT__RefSys_8h.html#a120de1171391bce3ca4111e46331a93c" target="_top" xlink:title="GAST">
<polygon fill="white" stroke="black" points="204,-19.5 204,-38.5 248,-38.5 248,-19.5 204,-19.5"/>
<text text-anchor="middle" x="226" y="-26.5" font-family="Helvetica,sans-Serif" font-size="10.00">GAST</text>
</a>
</g>
</g>
<!-- Node7&#45;&gt;Node8 -->
<g id="edge7" class="edge"><title>Node7&#45;&gt;Node8</title>
<path fill="none" stroke="midnightblue" d="M177.789,-29C186.893,-29 196.089,-29 203.916,-29"/>
<polygon fill="midnightblue" stroke="midnightblue" points="177.627,-25.5001 167.626,-29 177.626,-32.5001 177.627,-25.5001"/>
</g>
<!-- Node9 -->
<g id="node9" class="node"><title>Node9</title>
<g id="a_node9"><a xlink:href="SAT__RefSys_8h.html#a9699d3dfbd482534e86059e5613f8b8c" target="_top" xlink:title="GHAMatrix">
<polygon fill="white" stroke="black" points="284.5,-19.5 284.5,-38.5 349.5,-38.5 349.5,-19.5 284.5,-19.5"/>
<text text-anchor="middle" x="317" y="-26.5" font-family="Helvetica,sans-Serif" font-size="10.00">GHAMatrix</text>
</a>
</g>
</g>
<!-- Node8&#45;&gt;Node9 -->
<g id="edge8" class="edge"><title>Node8&#45;&gt;Node9</title>
<path fill="none" stroke="midnightblue" d="M258.282,-29C266.702,-29 275.815,-29 284.26,-29"/>
<polygon fill="midnightblue" stroke="midnightblue" points="258.092,-25.5001 248.092,-29 258.092,-32.5001 258.092,-25.5001"/>
</g>
<!-- Node9&#45;&gt;Node3 -->
<g id="edge9" class="edge"><title>Node9&#45;&gt;Node3</title>
<path fill="none" stroke="midnightblue" d="M343.852,-43.7358C361.956,-54.0548 385.617,-67.5419 401.287,-76.4735"/>
<polygon fill="midnightblue" stroke="midnightblue" points="345.385,-40.5806 334.964,-38.6693 341.918,-46.6621 345.385,-40.5806"/>
</g>
<!-- Node9&#45;&gt;Node4 -->
<g id="edge10" class="edge"><title>Node9&#45;&gt;Node4</title>
<path fill="none" stroke="midnightblue" d="M359.698,-36.9227C373.149,-39.4783 387.423,-42.1905 398.482,-44.2915"/>
<polygon fill="midnightblue" stroke="midnightblue" points="360.118,-33.4399 349.641,-35.0117 358.812,-40.3169 360.118,-33.4399"/>
</g>
<!-- Node9&#45;&gt;Node5 -->
<g id="edge11" class="edge"><title>Node9&#45;&gt;Node5</title>
<path fill="none" stroke="midnightblue" d="M359.501,-21.1149C368.43,-19.4183 377.732,-17.6509 386.222,-16.0378"/>
<polygon fill="midnightblue" stroke="midnightblue" points="358.812,-17.6831 349.641,-22.9883 360.118,-24.5601 358.812,-17.6831"/>
</g>
</g>
</svg>
