<?xml version="1.0" encoding="UTF-8" standalone="no"?>
<!DOCTYPE svg PUBLIC "-//W3C//DTD SVG 1.1//EN"
 "http://www.w3.org/Graphics/SVG/1.1/DTD/svg11.dtd">
<!-- Generated by graphviz version 2.30.1 (20180420.1509)
 -->
<!-- Title: AccelDrag Pages: 1 -->
<svg width="412pt" height="216pt"
 viewBox="0.00 0.00 412.00 216.00" xmlns="http://www.w3.org/2000/svg" xmlns:xlink="http://www.w3.org/1999/xlink">
<g id="graph0" class="graph" transform="scale(1 1) rotate(0) translate(4 212)">
<title>AccelDrag</title>
<polygon fill="white" stroke="white" points="-4,5 -4,-212 409,-212 409,5 -4,5"/>
<!-- Node1 -->
<g id="node1" class="node"><title>Node1</title>
<polygon fill="#bfbfbf" stroke="black" points="0,-131.5 0,-150.5 62,-150.5 62,-131.5 0,-131.5"/>
<text text-anchor="middle" x="31" y="-138.5" font-family="Helvetica,sans-Serif" font-size="10.00">AccelDrag</text>
</g>
<!-- Node2 -->
<g id="node2" class="node"><title>Node2</title>
<g id="a_node2"><a xlink:href="SAT__VecMat_8cpp.html#aa54829a0c63c78e6bfbd12285ad94075" target="_top" xlink:title="Transp">
<polygon fill="white" stroke="black" points="109.5,-188.5 109.5,-207.5 156.5,-207.5 156.5,-188.5 109.5,-188.5"/>
<text text-anchor="middle" x="133" y="-195.5" font-family="Helvetica,sans-Serif" font-size="10.00">Transp</text>
</a>
</g>
</g>
<!-- Node1&#45;&gt;Node2 -->
<g id="edge1" class="edge"><title>Node1&#45;&gt;Node2</title>
<path fill="none" stroke="midnightblue" d="M48.5119,-150.585C61.8419,-158.304 81.0945,-169.41 98,-179 100.536,-180.439 103.183,-181.932 105.831,-183.421"/>
<polygon fill="midnightblue" stroke="midnightblue" points="104.244,-186.543 114.679,-188.377 107.665,-180.436 104.244,-186.543"/>
</g>
<!-- Node3 -->
<g id="node3" class="node"><title>Node3</title>
<g id="a_node3"><a xlink:href="SAT__VecMat_8cpp.html#ab712f21cc19675f37e17e08bb51a82b4" target="_top" xlink:title="Cross">
<polygon fill="white" stroke="black" points="111.5,-150.5 111.5,-169.5 154.5,-169.5 154.5,-150.5 111.5,-150.5"/>
<text text-anchor="middle" x="133" y="-157.5" font-family="Helvetica,sans-Serif" font-size="10.00">Cross</text>
</a>
</g>
</g>
<!-- Node1&#45;&gt;Node3 -->
<g id="edge2" class="edge"><title>Node1&#45;&gt;Node3</title>
<path fill="none" stroke="midnightblue" d="M62.0033,-146.701C74.4083,-149.058 88.7795,-151.788 101.261,-154.16"/>
<polygon fill="midnightblue" stroke="midnightblue" points="100.738,-157.623 111.215,-156.051 102.045,-150.746 100.738,-157.623"/>
</g>
<!-- Node4 -->
<g id="node4" class="node"><title>Node4</title>
<g id="a_node4"><a xlink:href="SAT__VecMat_8cpp.html#a313ce8c9730e0bd08a1396f364f0486c" target="_top" xlink:title="Norm">
<polygon fill="white" stroke="black" points="204.5,-112.5 204.5,-131.5 245.5,-131.5 245.5,-112.5 204.5,-112.5"/>
<text text-anchor="middle" x="225" y="-119.5" font-family="Helvetica,sans-Serif" font-size="10.00">Norm</text>
</a>
</g>
</g>
<!-- Node1&#45;&gt;Node4 -->
<g id="edge3" class="edge"><title>Node1&#45;&gt;Node4</title>
<path fill="none" stroke="midnightblue" d="M62.423,-137.989C98.4538,-134.424 158.092,-128.522 193.957,-124.973"/>
<polygon fill="midnightblue" stroke="midnightblue" points="194.664,-128.42 204.271,-123.952 193.975,-121.454 194.664,-128.42"/>
</g>
<!-- Node6 -->
<g id="node6" class="node"><title>Node6</title>
<g id="a_node6"><a xlink:href="SAT__Force_8cpp.html#a6ad9e17c2e7636b8cd8045d461940681" target="_top" xlink:title="Density_HP">
<polygon fill="white" stroke="black" points="98,-74.5 98,-93.5 168,-93.5 168,-74.5 98,-74.5"/>
<text text-anchor="middle" x="133" y="-81.5" font-family="Helvetica,sans-Serif" font-size="10.00">Density_HP</text>
</a>
</g>
</g>
<!-- Node1&#45;&gt;Node6 -->
<g id="edge5" class="edge"><title>Node1&#45;&gt;Node6</title>
<path fill="none" stroke="midnightblue" d="M48.9636,-131.331C64.7177,-122.351 88.3919,-108.857 106.436,-98.5715"/>
<polygon fill="midnightblue" stroke="midnightblue" points="108.332,-101.519 115.287,-93.5265 104.866,-95.4378 108.332,-101.519"/>
</g>
<!-- Node5 -->
<g id="node5" class="node"><title>Node5</title>
<g id="a_node5"><a xlink:href="SAT__VecMat_8cpp.html#a71375a6ebee7fc40c1d45985175d82e5" target="_top" xlink:title="Dot">
<polygon fill="white" stroke="black" points="327,-96.5 327,-115.5 359,-115.5 359,-96.5 327,-96.5"/>
<text text-anchor="middle" x="343" y="-103.5" font-family="Helvetica,sans-Serif" font-size="10.00">Dot</text>
</a>
</g>
</g>
<!-- Node4&#45;&gt;Node5 -->
<g id="edge4" class="edge"><title>Node4&#45;&gt;Node5</title>
<path fill="none" stroke="midnightblue" d="M245.678,-119.286C265.253,-116.586 295.369,-112.432 316.709,-109.488"/>
<polygon fill="midnightblue" stroke="midnightblue" points="317.252,-112.947 326.68,-108.113 316.296,-106.012 317.252,-112.947"/>
</g>
<!-- Node7 -->
<g id="node7" class="node"><title>Node7</title>
<g id="a_node7"><a xlink:href="SAT__Force_8cpp.html#a2de08a6e83f5eff12db59b0616ad7f2c" target="_top" xlink:title="Sun">
<polygon fill="white" stroke="black" points="208,-36.5 208,-55.5 242,-55.5 242,-36.5 208,-36.5"/>
<text text-anchor="middle" x="225" y="-43.5" font-family="Helvetica,sans-Serif" font-size="10.00">Sun</text>
</a>
</g>
</g>
<!-- Node6&#45;&gt;Node7 -->
<g id="edge6" class="edge"><title>Node6&#45;&gt;Node7</title>
<path fill="none" stroke="midnightblue" d="M156.711,-74.411C169.409,-69.0497 185.274,-62.3509 198.41,-56.8046"/>
<polygon fill="midnightblue" stroke="midnightblue" points="199.974,-59.9434 207.825,-52.8293 197.251,-53.4947 199.974,-59.9434"/>
</g>
<!-- Node6&#45;&gt;Node5 -->
<g id="edge9" class="edge"><title>Node6&#45;&gt;Node5</title>
<path fill="none" stroke="midnightblue" d="M168.347,-87.6329C210.145,-92.0538 279.722,-99.413 316.849,-103.34"/>
<polygon fill="midnightblue" stroke="midnightblue" points="316.524,-106.825 326.837,-104.396 317.26,-99.8637 316.524,-106.825"/>
</g>
<!-- Node6&#45;&gt;Node4 -->
<g id="edge10" class="edge"><title>Node6&#45;&gt;Node4</title>
<path fill="none" stroke="midnightblue" d="M156.711,-93.589C168.298,-98.4814 182.523,-104.488 194.905,-109.715"/>
<polygon fill="midnightblue" stroke="midnightblue" points="193.779,-113.039 204.353,-113.705 196.502,-106.591 193.779,-113.039"/>
</g>
<!-- Node8 -->
<g id="node8" class="node"><title>Node8</title>
<g id="a_node8"><a xlink:href="namespaceanonymous__namespace_02SAT__Force_8cpp_03.html#aa6826b33621fa6ff5736c6432c487c1a" target="_top" xlink:title="anonymous_namespace\l\{SAT_Force::cpp\}::Frac">
<polygon fill="white" stroke="black" points="282,-39 282,-69 404,-69 404,-39 282,-39"/>
<text text-anchor="start" x="290" y="-57" font-family="Helvetica,sans-Serif" font-size="10.00">anonymous_namespace</text>
<text text-anchor="middle" x="343" y="-46" font-family="Helvetica,sans-Serif" font-size="10.00">{SAT_Force::cpp}::Frac</text>
</a>
</g>
</g>
<!-- Node7&#45;&gt;Node8 -->
<g id="edge7" class="edge"><title>Node7&#45;&gt;Node8</title>
<path fill="none" stroke="midnightblue" d="M242.129,-47.1124C250.184,-47.6679 260.546,-48.3825 271.535,-49.1403"/>
<polygon fill="midnightblue" stroke="midnightblue" points="271.537,-52.6487 281.754,-49.8451 272.019,-45.6653 271.537,-52.6487"/>
</g>
<!-- Node9 -->
<g id="node9" class="node"><title>Node9</title>
<g id="a_node9"><a xlink:href="SAT__VecMat_8cpp.html#ae452267b1d1da6280386846d97ec4e4f" target="_top" xlink:title="R_x">
<polygon fill="white" stroke="black" points="325.5,-0.5 325.5,-19.5 360.5,-19.5 360.5,-0.5 325.5,-0.5"/>
<text text-anchor="middle" x="343" y="-7.5" font-family="Helvetica,sans-Serif" font-size="10.00">R_x</text>
</a>
</g>
</g>
<!-- Node7&#45;&gt;Node9 -->
<g id="edge8" class="edge"><title>Node7&#45;&gt;Node9</title>
<path fill="none" stroke="midnightblue" d="M242.129,-40.9944C261.132,-35.0969 292.975,-25.2147 315.593,-18.1953"/>
<polygon fill="midnightblue" stroke="midnightblue" points="316.743,-21.503 325.256,-15.1963 314.668,-14.8176 316.743,-21.503"/>
</g>
</g>
</svg>
