<?xml version="1.0" encoding="UTF-8" standalone="no"?>
<!DOCTYPE svg PUBLIC "-//W3C//DTD SVG 1.1//EN"
 "http://www.w3.org/Graphics/SVG/1.1/DTD/svg11.dtd">
<!-- Generated by graphviz version 2.30.1 (20180420.1509)
 -->
<!-- Title: GMST Pages: 1 -->
<svg width="412pt" height="180pt"
 viewBox="0.00 0.00 412.00 180.00" xmlns="http://www.w3.org/2000/svg" xmlns:xlink="http://www.w3.org/1999/xlink">
<g id="graph0" class="graph" transform="scale(1 1) rotate(0) translate(4 176)">
<title>GMST</title>
<polygon fill="white" stroke="white" points="-4,5 -4,-176 409,-176 409,5 -4,5"/>
<!-- Node1 -->
<g id="node1" class="node"><title>Node1</title>
<polygon fill="#bfbfbf" stroke="black" points="0.5,-76.5 0.5,-95.5 45.5,-95.5 45.5,-76.5 0.5,-76.5"/>
<text text-anchor="middle" x="23" y="-83.5" font-family="Helvetica,sans-Serif" font-size="10.00">GMST</text>
</g>
<!-- Node2 -->
<g id="node2" class="node"><title>Node2</title>
<g id="a_node2"><a xlink:href="RTOD_8cpp.html#ad928b0e88089fe577162bad47f911adf" target="_top" xlink:title="Accel">
<polygon fill="white" stroke="black" points="83.5,-114.5 83.5,-133.5 124.5,-133.5 124.5,-114.5 83.5,-114.5"/>
<text text-anchor="middle" x="104" y="-121.5" font-family="Helvetica,sans-Serif" font-size="10.00">Accel</text>
</a>
</g>
</g>
<!-- Node1&#45;&gt;Node2 -->
<g id="edge1" class="edge"><title>Node1&#45;&gt;Node2</title>
<path fill="none" stroke="midnightblue" d="M53.1828,-100.037C63.2319,-104.871 74.2389,-110.166 83.345,-114.546"/>
<polygon fill="midnightblue" stroke="midnightblue" points="54.4639,-96.7697 43.935,-95.589 51.4295,-103.078 54.4639,-96.7697"/>
</g>
<!-- Node4 -->
<g id="node4" class="node"><title>Node4</title>
<g id="a_node4"><a xlink:href="RTOD_8cpp.html#a0ddf1224851353fc92bfbff6f499fa97" target="_top" xlink:title="main">
<polygon fill="white" stroke="black" points="278,-114.5 278,-133.5 316,-133.5 316,-114.5 278,-114.5"/>
<text text-anchor="middle" x="297" y="-121.5" font-family="Helvetica,sans-Serif" font-size="10.00">main</text>
</a>
</g>
</g>
<!-- Node1&#45;&gt;Node4 -->
<g id="edge6" class="edge"><title>Node1&#45;&gt;Node4</title>
<path fill="none" stroke="midnightblue" d="M55.6393,-87.1855C95.9494,-89.0979 167.635,-93.8491 228,-105 245.116,-108.162 264.166,-113.662 277.739,-117.933"/>
<polygon fill="midnightblue" stroke="midnightblue" points="55.761,-83.6876 45.6149,-86.7383 55.4489,-90.6806 55.761,-83.6876"/>
</g>
<!-- Node7 -->
<g id="node7" class="node"><title>Node7</title>
<g id="a_node7"><a xlink:href="SAT__RefSys_8h.html#a120de1171391bce3ca4111e46331a93c" target="_top" xlink:title="GAST">
<polygon fill="white" stroke="black" points="82,-38.5 82,-57.5 126,-57.5 126,-38.5 82,-38.5"/>
<text text-anchor="middle" x="104" y="-45.5" font-family="Helvetica,sans-Serif" font-size="10.00">GAST</text>
</a>
</g>
</g>
<!-- Node1&#45;&gt;Node7 -->
<g id="edge7" class="edge"><title>Node1&#45;&gt;Node7</title>
<path fill="none" stroke="midnightblue" d="M53.1098,-71.9978C63.0781,-67.2029 73.9968,-61.9509 83.0713,-57.5859"/>
<polygon fill="midnightblue" stroke="midnightblue" points="51.4295,-68.9221 43.935,-76.411 54.4639,-75.2303 51.4295,-68.9221"/>
</g>
<!-- Node3 -->
<g id="node3" class="node"><title>Node3</title>
<g id="a_node3"><a xlink:href="RTOD_8cpp.html#a8ed60f2e5115e2e00c123e12b1cbb649" target="_top" xlink:title="Deriv">
<polygon fill="white" stroke="black" points="175,-114.5 175,-133.5 215,-133.5 215,-114.5 175,-114.5"/>
<text text-anchor="middle" x="195" y="-121.5" font-family="Helvetica,sans-Serif" font-size="10.00">Deriv</text>
</a>
</g>
</g>
<!-- Node2&#45;&gt;Node3 -->
<g id="edge2" class="edge"><title>Node2&#45;&gt;Node3</title>
<path fill="none" stroke="midnightblue" d="M134.84,-124C148.07,-124 163.245,-124 174.914,-124"/>
<polygon fill="midnightblue" stroke="midnightblue" points="134.752,-120.5 124.752,-124 134.752,-127.5 134.752,-120.5"/>
</g>
<!-- Node5 -->
<g id="node5" class="node"><title>Node5</title>
<g id="a_node5"><a xlink:href="TDRSOD_8cpp.html#a3df5b7f547d4cb81cae1bbb6d6a2962a" target="_top" xlink:title="VarEqn">
<polygon fill="white" stroke="black" points="170.5,-152.5 170.5,-171.5 219.5,-171.5 219.5,-152.5 170.5,-152.5"/>
<text text-anchor="middle" x="195" y="-159.5" font-family="Helvetica,sans-Serif" font-size="10.00">VarEqn</text>
</a>
</g>
</g>
<!-- Node2&#45;&gt;Node5 -->
<g id="edge4" class="edge"><title>Node2&#45;&gt;Node5</title>
<path fill="none" stroke="midnightblue" d="M134.043,-136.401C146.202,-141.592 160.118,-147.533 171.48,-152.385"/>
<polygon fill="midnightblue" stroke="midnightblue" points="135.323,-133.141 124.752,-132.433 132.574,-139.579 135.323,-133.141"/>
</g>
<!-- Node3&#45;&gt;Node4 -->
<g id="edge3" class="edge"><title>Node3&#45;&gt;Node4</title>
<path fill="none" stroke="midnightblue" d="M225.751,-124C242.656,-124 263.275,-124 277.789,-124"/>
<polygon fill="midnightblue" stroke="midnightblue" points="225.281,-120.5 215.281,-124 225.281,-127.5 225.281,-120.5"/>
</g>
<!-- Node6 -->
<g id="node6" class="node"><title>Node6</title>
<g id="a_node6"><a xlink:href="TDRSOD_8cpp.html#a0ddf1224851353fc92bfbff6f499fa97" target="_top" xlink:title="main">
<polygon fill="white" stroke="black" points="366,-95.5 366,-114.5 404,-114.5 404,-95.5 366,-95.5"/>
<text text-anchor="middle" x="385" y="-102.5" font-family="Helvetica,sans-Serif" font-size="10.00">main</text>
</a>
</g>
</g>
<!-- Node5&#45;&gt;Node6 -->
<g id="edge5" class="edge"><title>Node5&#45;&gt;Node6</title>
<path fill="none" stroke="midnightblue" d="M229.617,-161.571C257.412,-160.209 297.456,-155.887 330,-143 346.84,-136.332 363.463,-123.42 373.722,-114.511"/>
<polygon fill="midnightblue" stroke="midnightblue" points="229.462,-158.075 219.606,-161.96 229.734,-165.069 229.462,-158.075"/>
</g>
<!-- Node8 -->
<g id="node8" class="node"><title>Node8</title>
<g id="a_node8"><a xlink:href="SAT__RefSys_8h.html#a9699d3dfbd482534e86059e5613f8b8c" target="_top" xlink:title="GHAMatrix">
<polygon fill="white" stroke="black" points="162.5,-38.5 162.5,-57.5 227.5,-57.5 227.5,-38.5 162.5,-38.5"/>
<text text-anchor="middle" x="195" y="-45.5" font-family="Helvetica,sans-Serif" font-size="10.00">GHAMatrix</text>
</a>
</g>
</g>
<!-- Node7&#45;&gt;Node8 -->
<g id="edge8" class="edge"><title>Node7&#45;&gt;Node8</title>
<path fill="none" stroke="midnightblue" d="M136.282,-48C144.702,-48 153.815,-48 162.26,-48"/>
<polygon fill="midnightblue" stroke="midnightblue" points="136.092,-44.5001 126.092,-48 136.092,-51.5001 136.092,-44.5001"/>
</g>
<!-- Node9 -->
<g id="node9" class="node"><title>Node9</title>
<g id="a_node9"><a xlink:href="SAT__Force_8h.html#a750f7a2f89dc275831e706abee33310f" target="_top" xlink:title="AccelMain">
<polygon fill="white" stroke="black" points="266,-0.5 266,-19.5 328,-19.5 328,-0.5 266,-0.5"/>
<text text-anchor="middle" x="297" y="-7.5" font-family="Helvetica,sans-Serif" font-size="10.00">AccelMain</text>
</a>
</g>
</g>
<!-- Node8&#45;&gt;Node9 -->
<g id="edge9" class="edge"><title>Node8&#45;&gt;Node9</title>
<path fill="none" stroke="midnightblue" d="M230.907,-34.7354C244.035,-29.7467 258.695,-24.1759 270.774,-19.5859"/>
<polygon fill="midnightblue" stroke="midnightblue" points="229.339,-31.587 221.234,-38.411 231.825,-38.1305 229.339,-31.587"/>
</g>
<!-- Node10 -->
<g id="node10" class="node"><title>Node10</title>
<g id="a_node10"><a xlink:href="TDRSOD_8cpp.html#a1d3803a2ec3760bf63edefae54e3ac5b" target="_top" xlink:title="Accel">
<polygon fill="white" stroke="black" points="276.5,-76.5 276.5,-95.5 317.5,-95.5 317.5,-76.5 276.5,-76.5"/>
<text text-anchor="middle" x="297" y="-83.5" font-family="Helvetica,sans-Serif" font-size="10.00">Accel</text>
</a>
</g>
</g>
<!-- Node8&#45;&gt;Node10 -->
<g id="edge10" class="edge"><title>Node8&#45;&gt;Node10</title>
<path fill="none" stroke="midnightblue" d="M230.901,-61.2623C246.168,-67.064 263.509,-73.6533 276.452,-78.5717"/>
<polygon fill="midnightblue" stroke="midnightblue" points="231.825,-57.8695 221.234,-57.589 229.339,-64.413 231.825,-57.8695"/>
</g>
<!-- Node11 -->
<g id="node11" class="node"><title>Node11</title>
<g id="a_node11"><a xlink:href="TDRSOD_8cpp.html#a466ab098330aeb2aa659365279071640" target="_top" xlink:title="Range_4W">
<polygon fill="white" stroke="black" points="264.5,-38.5 264.5,-57.5 329.5,-57.5 329.5,-38.5 264.5,-38.5"/>
<text text-anchor="middle" x="297" y="-45.5" font-family="Helvetica,sans-Serif" font-size="10.00">Range_4W</text>
</a>
</g>
</g>
<!-- Node8&#45;&gt;Node11 -->
<g id="edge11" class="edge"><title>Node8&#45;&gt;Node11</title>
<path fill="none" stroke="midnightblue" d="M237.789,-48C246.63,-48 255.823,-48 264.222,-48"/>
<polygon fill="midnightblue" stroke="midnightblue" points="237.641,-44.5001 227.641,-48 237.641,-51.5001 237.641,-44.5001"/>
</g>
<!-- Node11&#45;&gt;Node6 -->
<g id="edge12" class="edge"><title>Node11&#45;&gt;Node6</title>
<path fill="none" stroke="midnightblue" d="M323.374,-62.8201C325.629,-64.2108 327.864,-65.6175 330,-67 344.242,-76.2198 360.065,-87.4799 370.881,-95.3397"/>
<polygon fill="midnightblue" stroke="midnightblue" points="325.128,-59.7907 314.758,-57.6202 321.511,-65.7839 325.128,-59.7907"/>
</g>
</g>
</svg>
