<?xml version="1.0" encoding="UTF-8" standalone="no"?>
<!DOCTYPE svg PUBLIC "-//W3C//DTD SVG 1.1//EN"
 "http://www.w3.org/Graphics/SVG/1.1/DTD/svg11.dtd">
<!-- Generated by graphviz version 2.30.1 (20180420.1509)
 -->
<!-- Title: GHAMatrix Pages: 1 -->
<svg width="704pt" height="145pt"
 viewBox="0.00 0.00 704.00 145.00" xmlns="http://www.w3.org/2000/svg" xmlns:xlink="http://www.w3.org/1999/xlink">
<g id="graph0" class="graph" transform="scale(1 1) rotate(0) translate(4 141)">
<title>GHAMatrix</title>
<polygon fill="white" stroke="white" points="-4,5 -4,-141 701,-141 701,5 -4,5"/>
<!-- Node1 -->
<g id="node1" class="node"><title>Node1</title>
<polygon fill="#bfbfbf" stroke="black" points="0.5,-95.5 0.5,-114.5 65.5,-114.5 65.5,-95.5 0.5,-95.5"/>
<text text-anchor="middle" x="33" y="-102.5" font-family="Helvetica,sans-Serif" font-size="10.00">GHAMatrix</text>
</g>
<!-- Node2 -->
<g id="node2" class="node"><title>Node2</title>
<g id="a_node2"><a xlink:href="SAT__VecMat_8cpp.html#a94c9c4e1f3afc6636dda6572f72ef4c2" target="_top" xlink:title="R_z">
<polygon fill="white" stroke="black" points="106.5,-114.5 106.5,-133.5 141.5,-133.5 141.5,-114.5 106.5,-114.5"/>
<text text-anchor="middle" x="124" y="-121.5" font-family="Helvetica,sans-Serif" font-size="10.00">R_z</text>
</a>
</g>
</g>
<!-- Node1&#45;&gt;Node2 -->
<g id="edge1" class="edge"><title>Node1&#45;&gt;Node2</title>
<path fill="none" stroke="midnightblue" d="M65.6287,-111.752C75.7556,-113.914 86.8556,-116.284 96.5711,-118.358"/>
<polygon fill="midnightblue" stroke="midnightblue" points="95.9482,-121.804 106.459,-120.469 97.4097,-114.958 95.9482,-121.804"/>
</g>
<!-- Node3 -->
<g id="node3" class="node"><title>Node3</title>
<g id="a_node3"><a xlink:href="SAT__RefSys_8cpp.html#a120de1171391bce3ca4111e46331a93c" target="_top" xlink:title="GAST">
<polygon fill="white" stroke="black" points="102,-76.5 102,-95.5 146,-95.5 146,-76.5 102,-76.5"/>
<text text-anchor="middle" x="124" y="-83.5" font-family="Helvetica,sans-Serif" font-size="10.00">GAST</text>
</a>
</g>
</g>
<!-- Node1&#45;&gt;Node3 -->
<g id="edge2" class="edge"><title>Node1&#45;&gt;Node3</title>
<path fill="none" stroke="midnightblue" d="M65.6287,-98.2478C74.1536,-96.4279 83.3682,-94.4607 91.8659,-92.6466"/>
<polygon fill="midnightblue" stroke="midnightblue" points="92.7324,-96.0406 101.781,-90.5298 91.2708,-89.1948 92.7324,-96.0406"/>
</g>
<!-- Node4 -->
<g id="node4" class="node"><title>Node4</title>
<g id="a_node4"><a xlink:href="namespaceanonymous__namespace_02SAT__Kepler_8cpp_03.html#ae5d42531d691a174363f296c22d23217" target="_top" xlink:title="anonymous_namespace\l\{SAT_Kepler::cpp\}::Modulo">
<polygon fill="white" stroke="black" points="404,-70 404,-100 538,-100 538,-70 404,-70"/>
<text text-anchor="start" x="412" y="-88" font-family="Helvetica,sans-Serif" font-size="10.00">anonymous_namespace</text>
<text text-anchor="middle" x="471" y="-77" font-family="Helvetica,sans-Serif" font-size="10.00">{SAT_Kepler::cpp}::Modulo</text>
</a>
</g>
</g>
<!-- Node3&#45;&gt;Node4 -->
<g id="edge3" class="edge"><title>Node3&#45;&gt;Node4</title>
<path fill="none" stroke="midnightblue" d="M146.062,-85.939C194.086,-85.7998 313.687,-85.4531 393.343,-85.2222"/>
<polygon fill="midnightblue" stroke="midnightblue" points="393.83,-88.7209 403.82,-85.1918 393.81,-81.7209 393.83,-88.7209"/>
</g>
<!-- Node6 -->
<g id="node6" class="node"><title>Node6</title>
<g id="a_node6"><a xlink:href="SAT__RefSys_8cpp.html#a2a4cc14aa92a1449e08540255af19f8e" target="_top" xlink:title="GMST">
<polygon fill="white" stroke="black" points="194.5,-117.5 194.5,-136.5 239.5,-136.5 239.5,-117.5 194.5,-117.5"/>
<text text-anchor="middle" x="217" y="-124.5" font-family="Helvetica,sans-Serif" font-size="10.00">GMST</text>
</a>
</g>
</g>
<!-- Node3&#45;&gt;Node6 -->
<g id="edge5" class="edge"><title>Node3&#45;&gt;Node6</title>
<path fill="none" stroke="midnightblue" d="M146.106,-95.5093C157.737,-100.75 172.388,-107.351 185.268,-113.154"/>
<polygon fill="midnightblue" stroke="midnightblue" points="184.138,-116.483 194.693,-117.4 187.014,-110.101 184.138,-116.483"/>
</g>
<!-- Node7 -->
<g id="node7" class="node"><title>Node7</title>
<g id="a_node7"><a xlink:href="SAT__RefSys_8cpp.html#a1178917cf376ea4f15cea33c59028635" target="_top" xlink:title="EqnEquinox">
<polygon fill="white" stroke="black" points="182.5,-38.5 182.5,-57.5 251.5,-57.5 251.5,-38.5 182.5,-38.5"/>
<text text-anchor="middle" x="217" y="-45.5" font-family="Helvetica,sans-Serif" font-size="10.00">EqnEquinox</text>
</a>
</g>
</g>
<!-- Node3&#45;&gt;Node7 -->
<g id="edge7" class="edge"><title>Node3&#45;&gt;Node7</title>
<path fill="none" stroke="midnightblue" d="M146.106,-77.1865C157.209,-72.5501 171.064,-66.7646 183.503,-61.5703"/>
<polygon fill="midnightblue" stroke="midnightblue" points="185.217,-64.6476 193.096,-57.5645 182.519,-58.1882 185.217,-64.6476"/>
</g>
<!-- Node5 -->
<g id="node5" class="node"><title>Node5</title>
<g id="a_node5"><a xlink:href="namespaceanonymous__namespace_02SAT__Force_8cpp_03.html#aa6826b33621fa6ff5736c6432c487c1a" target="_top" xlink:title="anonymous_namespace\l\{SAT_Force::cpp\}::Frac">
<polygon fill="white" stroke="black" points="574,-92 574,-122 696,-122 696,-92 574,-92"/>
<text text-anchor="start" x="582" y="-110" font-family="Helvetica,sans-Serif" font-size="10.00">anonymous_namespace</text>
<text text-anchor="middle" x="635" y="-99" font-family="Helvetica,sans-Serif" font-size="10.00">{SAT_Force::cpp}::Frac</text>
</a>
</g>
</g>
<!-- Node4&#45;&gt;Node5 -->
<g id="edge4" class="edge"><title>Node4&#45;&gt;Node5</title>
<path fill="none" stroke="midnightblue" d="M538.359,-94.0117C546.838,-95.1631 555.538,-96.3446 564.07,-97.5034"/>
<polygon fill="midnightblue" stroke="midnightblue" points="563.607,-100.973 573.987,-98.8501 564.549,-94.0362 563.607,-100.973"/>
</g>
<!-- Node6&#45;&gt;Node5 -->
<g id="edge6" class="edge"><title>Node6&#45;&gt;Node5</title>
<path fill="none" stroke="midnightblue" d="M239.78,-125.953C299.381,-123.087 467.116,-115.023 563.499,-110.389"/>
<polygon fill="midnightblue" stroke="midnightblue" points="563.922,-113.873 573.742,-109.897 563.585,-106.881 563.922,-113.873"/>
</g>
<!-- Node8 -->
<g id="node8" class="node"><title>Node8</title>
<g id="a_node8"><a xlink:href="SAT__RefSys_8cpp.html#a2a9df90e79156b20bf667ae56342d756" target="_top" xlink:title="NutAngles">
<polygon fill="white" stroke="black" points="297,-38.5 297,-57.5 359,-57.5 359,-38.5 297,-38.5"/>
<text text-anchor="middle" x="328" y="-45.5" font-family="Helvetica,sans-Serif" font-size="10.00">NutAngles</text>
</a>
</g>
</g>
<!-- Node7&#45;&gt;Node8 -->
<g id="edge8" class="edge"><title>Node7&#45;&gt;Node8</title>
<path fill="none" stroke="midnightblue" d="M251.593,-48C262.608,-48 274.966,-48 286.44,-48"/>
<polygon fill="midnightblue" stroke="midnightblue" points="286.666,-51.5001 296.666,-48 286.666,-44.5001 286.666,-51.5001"/>
</g>
<!-- Node10 -->
<g id="node10" class="node"><title>Node10</title>
<g id="a_node10"><a xlink:href="SAT__RefSys_8cpp.html#a11f057ac4e8a0c5a7958f77379e30d40" target="_top" xlink:title="MeanObliquity">
<polygon fill="white" stroke="black" points="288.5,-0.5 288.5,-19.5 367.5,-19.5 367.5,-0.5 288.5,-0.5"/>
<text text-anchor="middle" x="328" y="-7.5" font-family="Helvetica,sans-Serif" font-size="10.00">MeanObliquity</text>
</a>
</g>
</g>
<!-- Node7&#45;&gt;Node10 -->
<g id="edge11" class="edge"><title>Node7&#45;&gt;Node10</title>
<path fill="none" stroke="midnightblue" d="M245.505,-38.411C258.931,-33.7306 275.28,-28.0308 289.801,-22.9685"/>
<polygon fill="midnightblue" stroke="midnightblue" points="291.213,-26.1828 299.503,-19.5859 288.909,-19.573 291.213,-26.1828"/>
</g>
<!-- Node9 -->
<g id="node9" class="node"><title>Node9</title>
<g id="a_node9"><a xlink:href="namespaceanonymous__namespace_02SAT__Kepler_8cpp_03.html#a898091d856dff0d563448625b7634f16" target="_top" xlink:title="anonymous_namespace\l\{SAT_Kepler::cpp\}::F">
<polygon fill="white" stroke="black" points="410,-21 410,-51 532,-51 532,-21 410,-21"/>
<text text-anchor="start" x="418" y="-39" font-family="Helvetica,sans-Serif" font-size="10.00">anonymous_namespace</text>
<text text-anchor="middle" x="471" y="-28" font-family="Helvetica,sans-Serif" font-size="10.00">{SAT_Kepler::cpp}::F</text>
</a>
</g>
</g>
<!-- Node8&#45;&gt;Node9 -->
<g id="edge9" class="edge"><title>Node8&#45;&gt;Node9</title>
<path fill="none" stroke="midnightblue" d="M359.248,-45.4257C371.164,-44.4116 385.387,-43.2011 399.605,-41.9911"/>
<polygon fill="midnightblue" stroke="midnightblue" points="400.256,-45.4484 409.923,-41.1129 399.662,-38.4736 400.256,-45.4484"/>
</g>
<!-- Node8&#45;&gt;Node4 -->
<g id="edge10" class="edge"><title>Node8&#45;&gt;Node4</title>
<path fill="none" stroke="midnightblue" d="M359.248,-55.9374C372.059,-59.2992 387.537,-63.3608 402.808,-67.368"/>
<polygon fill="midnightblue" stroke="midnightblue" points="402.222,-70.8326 412.783,-69.9855 403.998,-64.0618 402.222,-70.8326"/>
</g>
</g>
</svg>
