<?xml version="1.0" encoding="UTF-8" standalone="no"?>
<!DOCTYPE svg PUBLIC "-//W3C//DTD SVG 1.1//EN"
 "http://www.w3.org/Graphics/SVG/1.1/DTD/svg11.dtd">
<!-- Generated by graphviz version 2.30.1 (20180420.1509)
 -->
<!-- Title: FindEta Pages: 1 -->
<svg width="284pt" height="115pt"
 viewBox="0.00 0.00 284.00 115.00" xmlns="http://www.w3.org/2000/svg" xmlns:xlink="http://www.w3.org/1999/xlink">
<g id="graph0" class="graph" transform="scale(1 1) rotate(0) translate(4 111)">
<title>FindEta</title>
<polygon fill="white" stroke="white" points="-4,5 -4,-111 281,-111 281,5 -4,5"/>
<!-- Node1 -->
<g id="node1" class="node"><title>Node1</title>
<polygon fill="#bfbfbf" stroke="black" points="0,-49.5 0,-68.5 50,-68.5 50,-49.5 0,-49.5"/>
<text text-anchor="middle" x="25" y="-56.5" font-family="Helvetica,sans-Serif" font-size="10.00">FindEta</text>
</g>
<!-- Node2 -->
<g id="node2" class="node"><title>Node2</title>
<g id="a_node2"><a xlink:href="SAT__VecMat_8cpp.html#a313ce8c9730e0bd08a1396f364f0486c" target="_top" xlink:title="Norm">
<polygon fill="white" stroke="black" points="126.5,-87.5 126.5,-106.5 167.5,-106.5 167.5,-87.5 126.5,-87.5"/>
<text text-anchor="middle" x="147" y="-94.5" font-family="Helvetica,sans-Serif" font-size="10.00">Norm</text>
</a>
</g>
</g>
<!-- Node1&#45;&gt;Node2 -->
<g id="edge1" class="edge"><title>Node1&#45;&gt;Node2</title>
<path fill="none" stroke="midnightblue" d="M50.2838,-66.6899C69.3831,-72.738 96.074,-81.1901 116.42,-87.6329"/>
<polygon fill="midnightblue" stroke="midnightblue" points="115.531,-91.0228 126.121,-90.7051 117.645,-84.3494 115.531,-91.0228"/>
</g>
<!-- Node3 -->
<g id="node3" class="node"><title>Node3</title>
<g id="a_node3"><a xlink:href="SAT__VecMat_8cpp.html#a71375a6ebee7fc40c1d45985175d82e5" target="_top" xlink:title="Dot">
<polygon fill="white" stroke="black" points="244,-68.5 244,-87.5 276,-87.5 276,-68.5 244,-68.5"/>
<text text-anchor="middle" x="260" y="-75.5" font-family="Helvetica,sans-Serif" font-size="10.00">Dot</text>
</a>
</g>
</g>
<!-- Node1&#45;&gt;Node3 -->
<g id="edge3" class="edge"><title>Node1&#45;&gt;Node3</title>
<path fill="none" stroke="midnightblue" d="M50.0575,-60.9618C94.4199,-64.5793 188.695,-72.2669 233.857,-75.9497"/>
<polygon fill="midnightblue" stroke="midnightblue" points="233.72,-79.4501 243.971,-76.7745 234.289,-72.4732 233.72,-79.4501"/>
</g>
<!-- Node4 -->
<g id="node4" class="node"><title>Node4</title>
<g id="a_node4"><a xlink:href="namespaceanonymous__namespace_02SAT__Kepler_8cpp_03.html#a898091d856dff0d563448625b7634f16" target="_top" xlink:title="anonymous_namespace\l\{SAT_Kepler::cpp\}::F">
<polygon fill="white" stroke="black" points="86,-0 86,-30 208,-30 208,-0 86,-0"/>
<text text-anchor="start" x="94" y="-18" font-family="Helvetica,sans-Serif" font-size="10.00">anonymous_namespace</text>
<text text-anchor="middle" x="147" y="-7" font-family="Helvetica,sans-Serif" font-size="10.00">{SAT_Kepler::cpp}::F</text>
</a>
</g>
</g>
<!-- Node1&#45;&gt;Node4 -->
<g id="edge4" class="edge"><title>Node1&#45;&gt;Node4</title>
<path fill="none" stroke="midnightblue" d="M50.2838,-50.0959C63.2146,-45.3546 79.6252,-39.3374 95.1906,-33.6301"/>
<polygon fill="midnightblue" stroke="midnightblue" points="96.5504,-36.8594 104.734,-30.1308 94.1406,-30.2873 96.5504,-36.8594"/>
</g>
<!-- Node2&#45;&gt;Node3 -->
<g id="edge2" class="edge"><title>Node2&#45;&gt;Node3</title>
<path fill="none" stroke="midnightblue" d="M167.589,-93.6469C186.054,-90.4863 213.812,-85.7348 233.894,-82.2974"/>
<polygon fill="midnightblue" stroke="midnightblue" points="234.613,-85.7253 243.879,-80.5882 233.432,-78.8257 234.613,-85.7253"/>
</g>
</g>
</svg>
