<?xml version="1.0" encoding="UTF-8" standalone="no"?>
<!DOCTYPE svg PUBLIC "-//W3C//DTD SVG 1.1//EN"
 "http://www.w3.org/Graphics/SVG/1.1/DTD/svg11.dtd">
<!-- Generated by graphviz version 2.30.1 (20180420.1509)
 -->
<!-- Title: Dyadic Pages: 1 -->
<svg width="264pt" height="28pt"
 viewBox="0.00 0.00 264.00 28.00" xmlns="http://www.w3.org/2000/svg" xmlns:xlink="http://www.w3.org/1999/xlink">
<g id="graph0" class="graph" transform="scale(1 1) rotate(0) translate(4 24)">
<title>Dyadic</title>
<polygon fill="white" stroke="white" points="-4,5 -4,-24 261,-24 261,5 -4,5"/>
<!-- Node1 -->
<g id="node1" class="node"><title>Node1</title>
<polygon fill="#bfbfbf" stroke="black" points="0.5,-0.5 0.5,-19.5 47.5,-19.5 47.5,-0.5 0.5,-0.5"/>
<text text-anchor="middle" x="24" y="-7.5" font-family="Helvetica,sans-Serif" font-size="10.00">Dyadic</text>
</g>
<!-- Node2 -->
<g id="node2" class="node"><title>Node2</title>
<g id="a_node2"><a xlink:href="classEKF.html#a2384ab018c26960ee808a9a1ae66d319" target="_top" xlink:title="EKF::MeasUpdate">
<polygon fill="white" stroke="black" points="84,-0.5 84,-19.5 182,-19.5 182,-0.5 84,-0.5"/>
<text text-anchor="middle" x="133" y="-7.5" font-family="Helvetica,sans-Serif" font-size="10.00">EKF::MeasUpdate</text>
</a>
</g>
</g>
<!-- Node1&#45;&gt;Node2 -->
<g id="edge1" class="edge"><title>Node1&#45;&gt;Node2</title>
<path fill="none" stroke="midnightblue" d="M57.9323,-10C66.1144,-10 75.0535,-10 83.8018,-10"/>
<polygon fill="midnightblue" stroke="midnightblue" points="57.692,-6.5001 47.6919,-10 57.6919,-13.5001 57.692,-6.5001"/>
</g>
<!-- Node3 -->
<g id="node3" class="node"><title>Node3</title>
<g id="a_node3"><a xlink:href="RTOD_8cpp.html#a0ddf1224851353fc92bfbff6f499fa97" target="_top" xlink:title="main">
<polygon fill="white" stroke="black" points="218,-0.5 218,-19.5 256,-19.5 256,-0.5 218,-0.5"/>
<text text-anchor="middle" x="237" y="-7.5" font-family="Helvetica,sans-Serif" font-size="10.00">main</text>
</a>
</g>
</g>
<!-- Node2&#45;&gt;Node3 -->
<g id="edge2" class="edge"><title>Node2&#45;&gt;Node3</title>
<path fill="none" stroke="midnightblue" d="M192.217,-10C201.558,-10 210.569,-10 217.963,-10"/>
<polygon fill="midnightblue" stroke="midnightblue" points="192.013,-6.5001 182.013,-10 192.013,-13.5001 192.013,-6.5001"/>
</g>
</g>
</svg>
