<?xml version="1.0" encoding="UTF-8" standalone="no"?>
<!DOCTYPE svg PUBLIC "-//W3C//DTD SVG 1.1//EN"
 "http://www.w3.org/Graphics/SVG/1.1/DTD/svg11.dtd">
<!-- Generated by graphviz version 2.30.1 (20180420.1509)
 -->
<!-- Title: SAT_Filter.h Pages: 1 -->
<svg width="125pt" height="140pt"
 viewBox="0.00 0.00 125.00 140.00" xmlns="http://www.w3.org/2000/svg" xmlns:xlink="http://www.w3.org/1999/xlink">
<g id="graph0" class="graph" transform="scale(1 1) rotate(0) translate(4 136)">
<title>SAT_Filter.h</title>
<polygon fill="white" stroke="white" points="-4,5 -4,-136 122,-136 122,5 -4,5"/>
<!-- Node1 -->
<g id="node1" class="node"><title>Node1</title>
<polygon fill="#bfbfbf" stroke="black" points="25.5,-112.5 25.5,-131.5 96.5,-131.5 96.5,-112.5 25.5,-112.5"/>
<text text-anchor="middle" x="61" y="-119.5" font-family="Helvetica,sans-Serif" font-size="10.00">SAT_Filter.h</text>
</g>
<!-- Node2 -->
<g id="node2" class="node"><title>Node2</title>
<g id="a_node2"><a xlink:href="SAT__VecMat_8h.html" target="_top" xlink:title="SAT_VecMat.h">
<polygon fill="white" stroke="black" points="19.5,-56.5 19.5,-75.5 102.5,-75.5 102.5,-56.5 19.5,-56.5"/>
<text text-anchor="middle" x="61" y="-63.5" font-family="Helvetica,sans-Serif" font-size="10.00">SAT_VecMat.h</text>
</a>
</g>
</g>
<!-- Node1&#45;&gt;Node2 -->
<g id="edge1" class="edge"><title>Node1&#45;&gt;Node2</title>
<path fill="none" stroke="midnightblue" d="M61,-112.083C61,-105.006 61,-94.8611 61,-85.9865"/>
<polygon fill="midnightblue" stroke="midnightblue" points="64.5001,-85.751 61,-75.7511 57.5001,-85.7511 64.5001,-85.751"/>
</g>
<!-- Node3 -->
<g id="node3" class="node"><title>Node3</title>
<polygon fill="white" stroke="#bfbfbf" points="0,-0.5 0,-19.5 54,-19.5 54,-0.5 0,-0.5"/>
<text text-anchor="middle" x="27" y="-7.5" font-family="Helvetica,sans-Serif" font-size="10.00">iostream</text>
</g>
<!-- Node2&#45;&gt;Node3 -->
<g id="edge2" class="edge"><title>Node2&#45;&gt;Node3</title>
<path fill="none" stroke="midnightblue" d="M55.3856,-56.083C50.6326,-48.5341 43.6819,-37.4948 37.8484,-28.2298"/>
<polygon fill="midnightblue" stroke="midnightblue" points="40.7999,-26.3486 32.5099,-19.7511 34.8763,-30.0783 40.7999,-26.3486"/>
</g>
<!-- Node4 -->
<g id="node4" class="node"><title>Node4</title>
<polygon fill="white" stroke="#bfbfbf" points="72.5,-0.5 72.5,-19.5 117.5,-19.5 117.5,-0.5 72.5,-0.5"/>
<text text-anchor="middle" x="95" y="-7.5" font-family="Helvetica,sans-Serif" font-size="10.00">cstdlib</text>
</g>
<!-- Node2&#45;&gt;Node4 -->
<g id="edge3" class="edge"><title>Node2&#45;&gt;Node4</title>
<path fill="none" stroke="midnightblue" d="M66.6144,-56.083C71.3674,-48.5341 78.3181,-37.4948 84.1516,-28.2298"/>
<polygon fill="midnightblue" stroke="midnightblue" points="87.1237,-30.0783 89.4901,-19.7511 81.2001,-26.3486 87.1237,-30.0783"/>
</g>
</g>
</svg>
