<?xml version="1.0" encoding="UTF-8" standalone="no"?>
<!DOCTYPE svg PUBLIC "-//W3C//DTD SVG 1.1//EN"
 "http://www.w3.org/Graphics/SVG/1.1/DTD/svg11.dtd">
<!-- Generated by graphviz version 2.30.1 (20180420.1509)
 -->
<!-- Title: SAT_VecMat.cpp Pages: 1 -->
<svg width="364pt" height="140pt"
 viewBox="0.00 0.00 364.00 140.00" xmlns="http://www.w3.org/2000/svg" xmlns:xlink="http://www.w3.org/1999/xlink">
<g id="graph0" class="graph" transform="scale(1 1) rotate(0) translate(4 136)">
<title>SAT_VecMat.cpp</title>
<polygon fill="white" stroke="white" points="-4,5 -4,-136 361,-136 361,5 -4,5"/>
<!-- Node1 -->
<g id="node1" class="node"><title>Node1</title>
<polygon fill="#bfbfbf" stroke="black" points="78,-112.5 78,-131.5 172,-131.5 172,-112.5 78,-112.5"/>
<text text-anchor="middle" x="125" y="-119.5" font-family="Helvetica,sans-Serif" font-size="10.00">SAT_VecMat.cpp</text>
</g>
<!-- Node2 -->
<g id="node2" class="node"><title>Node2</title>
<polygon fill="white" stroke="#bfbfbf" points="0,-56.5 0,-75.5 44,-75.5 44,-56.5 0,-56.5"/>
<text text-anchor="middle" x="22" y="-63.5" font-family="Helvetica,sans-Serif" font-size="10.00">cmath</text>
</g>
<!-- Node1&#45;&gt;Node2 -->
<g id="edge1" class="edge"><title>Node1&#45;&gt;Node2</title>
<path fill="none" stroke="midnightblue" d="M108.451,-112.324C92.0084,-103.703 66.5652,-90.3643 47.5316,-80.3855"/>
<polygon fill="midnightblue" stroke="midnightblue" points="48.9895,-77.198 38.5077,-75.6545 45.7391,-83.3977 48.9895,-77.198"/>
</g>
<!-- Node3 -->
<g id="node3" class="node"><title>Node3</title>
<polygon fill="white" stroke="#bfbfbf" points="80,-0.5 80,-19.5 134,-19.5 134,-0.5 80,-0.5"/>
<text text-anchor="middle" x="107" y="-7.5" font-family="Helvetica,sans-Serif" font-size="10.00">iostream</text>
</g>
<!-- Node1&#45;&gt;Node3 -->
<g id="edge2" class="edge"><title>Node1&#45;&gt;Node3</title>
<path fill="none" stroke="midnightblue" d="M115.712,-112.395C107.419,-104.025 95.8561,-90.4826 91,-76 85.7005,-60.1951 91.3627,-41.6952 97.3666,-28.4821"/>
<polygon fill="midnightblue" stroke="midnightblue" points="100.496,-30.0489 101.848,-19.5407 94.2384,-26.9121 100.496,-30.0489"/>
</g>
<!-- Node4 -->
<g id="node4" class="node"><title>Node4</title>
<polygon fill="white" stroke="#bfbfbf" points="100,-56.5 100,-75.5 150,-75.5 150,-56.5 100,-56.5"/>
<text text-anchor="middle" x="125" y="-63.5" font-family="Helvetica,sans-Serif" font-size="10.00">iomanip</text>
</g>
<!-- Node1&#45;&gt;Node4 -->
<g id="edge3" class="edge"><title>Node1&#45;&gt;Node4</title>
<path fill="none" stroke="midnightblue" d="M125,-112.083C125,-105.006 125,-94.8611 125,-85.9865"/>
<polygon fill="midnightblue" stroke="midnightblue" points="128.5,-85.751 125,-75.7511 121.5,-85.7511 128.5,-85.751"/>
</g>
<!-- Node5 -->
<g id="node5" class="node"><title>Node5</title>
<g id="a_node5"><a xlink:href="SAT__VecMat_8h.html" target="_top" xlink:title="SAT_VecMat.h">
<polygon fill="white" stroke="black" points="168.5,-56.5 168.5,-75.5 251.5,-75.5 251.5,-56.5 168.5,-56.5"/>
<text text-anchor="middle" x="210" y="-63.5" font-family="Helvetica,sans-Serif" font-size="10.00">SAT_VecMat.h</text>
</a>
</g>
</g>
<!-- Node1&#45;&gt;Node5 -->
<g id="edge4" class="edge"><title>Node1&#45;&gt;Node5</title>
<path fill="none" stroke="midnightblue" d="M138.657,-112.324C151.916,-103.9 172.268,-90.9709 187.846,-81.0741"/>
<polygon fill="midnightblue" stroke="midnightblue" points="189.813,-83.9711 196.377,-75.6545 186.06,-78.0626 189.813,-83.9711"/>
</g>
<!-- Node7 -->
<g id="node7" class="node"><title>Node7</title>
<g id="a_node7"><a xlink:href="GNU__iomanip_8h.html" target="_top" xlink:title="GNU_iomanip.h">
<polygon fill="white" stroke="black" points="270,-56.5 270,-75.5 356,-75.5 356,-56.5 270,-56.5"/>
<text text-anchor="middle" x="313" y="-63.5" font-family="Helvetica,sans-Serif" font-size="10.00">GNU_iomanip.h</text>
</a>
</g>
</g>
<!-- Node1&#45;&gt;Node7 -->
<g id="edge7" class="edge"><title>Node1&#45;&gt;Node7</title>
<path fill="none" stroke="midnightblue" d="M154.789,-112.444C186.829,-103.241 237.933,-88.5617 273.353,-78.3879"/>
<polygon fill="midnightblue" stroke="midnightblue" points="274.705,-81.6412 283.35,-75.5164 272.773,-74.9132 274.705,-81.6412"/>
</g>
<!-- Node5&#45;&gt;Node3 -->
<g id="edge5" class="edge"><title>Node5&#45;&gt;Node3</title>
<path fill="none" stroke="midnightblue" d="M193.451,-56.324C177.008,-47.7034 151.565,-34.3643 132.532,-24.3855"/>
<polygon fill="midnightblue" stroke="midnightblue" points="133.989,-21.198 123.508,-19.6545 130.739,-27.3977 133.989,-21.198"/>
</g>
<!-- Node6 -->
<g id="node6" class="node"><title>Node6</title>
<polygon fill="white" stroke="#bfbfbf" points="187.5,-0.5 187.5,-19.5 232.5,-19.5 232.5,-0.5 187.5,-0.5"/>
<text text-anchor="middle" x="210" y="-7.5" font-family="Helvetica,sans-Serif" font-size="10.00">cstdlib</text>
</g>
<!-- Node5&#45;&gt;Node6 -->
<g id="edge6" class="edge"><title>Node5&#45;&gt;Node6</title>
<path fill="none" stroke="midnightblue" d="M210,-56.083C210,-49.0059 210,-38.8611 210,-29.9865"/>
<polygon fill="midnightblue" stroke="midnightblue" points="213.5,-29.751 210,-19.7511 206.5,-29.7511 213.5,-29.751"/>
</g>
</g>
</svg>
