<?xml version="1.0" encoding="UTF-8" standalone="no"?>
<!DOCTYPE svg PUBLIC "-//W3C//DTD SVG 1.1//EN"
 "http://www.w3.org/Graphics/SVG/1.1/DTD/svg11.dtd">
<!-- Generated by graphviz version 2.30.1 (20180420.1509)
 -->
<!-- Title: Moon Pages: 1 -->
<svg width="208pt" height="126pt"
 viewBox="0.00 0.00 208.00 126.00" xmlns="http://www.w3.org/2000/svg" xmlns:xlink="http://www.w3.org/1999/xlink">
<g id="graph0" class="graph" transform="scale(1 1) rotate(0) translate(4 122)">
<title>Moon</title>
<polygon fill="white" stroke="white" points="-4,5 -4,-122 205,-122 205,5 -4,5"/>
<!-- Node1 -->
<g id="node1" class="node"><title>Node1</title>
<polygon fill="#bfbfbf" stroke="black" points="0.5,-44.5 0.5,-63.5 41.5,-63.5 41.5,-44.5 0.5,-44.5"/>
<text text-anchor="middle" x="21" y="-51.5" font-family="Helvetica,sans-Serif" font-size="10.00">Moon</text>
</g>
<!-- Node2 -->
<g id="node2" class="node"><title>Node2</title>
<g id="a_node2"><a xlink:href="namespaceanonymous__namespace_02SAT__Kepler_8cpp_03.html#a898091d856dff0d563448625b7634f16" target="_top" xlink:title="anonymous_namespace\l\{SAT_Kepler::cpp\}::F">
<polygon fill="white" stroke="black" points="78,-88 78,-118 200,-118 200,-88 78,-88"/>
<text text-anchor="start" x="86" y="-106" font-family="Helvetica,sans-Serif" font-size="10.00">anonymous_namespace</text>
<text text-anchor="middle" x="139" y="-95" font-family="Helvetica,sans-Serif" font-size="10.00">{SAT_Kepler::cpp}::F</text>
</a>
</g>
</g>
<!-- Node1&#45;&gt;Node2 -->
<g id="edge1" class="edge"><title>Node1&#45;&gt;Node2</title>
<path fill="none" stroke="midnightblue" d="M41.6758,-62.49C52.4023,-67.1039 65.9185,-72.8943 78,-78 82.6873,-79.9809 87.585,-82.0396 92.4735,-84.0873"/>
<polygon fill="midnightblue" stroke="midnightblue" points="91.229,-87.3605 101.805,-87.9881 93.9288,-80.9021 91.229,-87.3605"/>
</g>
<!-- Node3 -->
<g id="node3" class="node"><title>Node3</title>
<g id="a_node3"><a xlink:href="namespaceanonymous__namespace_02SAT__Force_8cpp_03.html#aa6826b33621fa6ff5736c6432c487c1a" target="_top" xlink:title="anonymous_namespace\l\{SAT_Force::cpp\}::Frac">
<polygon fill="white" stroke="black" points="78,-39 78,-69 200,-69 200,-39 78,-39"/>
<text text-anchor="start" x="86" y="-57" font-family="Helvetica,sans-Serif" font-size="10.00">anonymous_namespace</text>
<text text-anchor="middle" x="139" y="-46" font-family="Helvetica,sans-Serif" font-size="10.00">{SAT_Force::cpp}::Frac</text>
</a>
</g>
</g>
<!-- Node1&#45;&gt;Node3 -->
<g id="edge2" class="edge"><title>Node1&#45;&gt;Node3</title>
<path fill="none" stroke="midnightblue" d="M41.6778,-54C49.2098,-54 58.3025,-54 67.8553,-54"/>
<polygon fill="midnightblue" stroke="midnightblue" points="67.9308,-57.5001 77.9308,-54 67.9308,-50.5001 67.9308,-57.5001"/>
</g>
<!-- Node4 -->
<g id="node4" class="node"><title>Node4</title>
<g id="a_node4"><a xlink:href="SAT__VecMat_8cpp.html#ae452267b1d1da6280386846d97ec4e4f" target="_top" xlink:title="R_x">
<polygon fill="white" stroke="black" points="121.5,-0.5 121.5,-19.5 156.5,-19.5 156.5,-0.5 121.5,-0.5"/>
<text text-anchor="middle" x="139" y="-7.5" font-family="Helvetica,sans-Serif" font-size="10.00">R_x</text>
</a>
</g>
</g>
<!-- Node1&#45;&gt;Node4 -->
<g id="edge3" class="edge"><title>Node1&#45;&gt;Node4</title>
<path fill="none" stroke="midnightblue" d="M41.5335,-45.1555C52.2183,-40.4377 65.7401,-34.6612 78,-30 88.8535,-25.8735 100.979,-21.7434 111.473,-18.3168"/>
<polygon fill="midnightblue" stroke="midnightblue" points="112.867,-21.5448 121.315,-15.1509 110.724,-14.881 112.867,-21.5448"/>
</g>
</g>
</svg>
