<?xml version="1.0" encoding="UTF-8" standalone="no"?>
<!DOCTYPE svg PUBLIC "-//W3C//DTD SVG 1.1//EN"
 "http://www.w3.org/Graphics/SVG/1.1/DTD/svg11.dtd">
<!-- Generated by graphviz version 2.30.1 (20180420.1509)
 -->
<!-- Title: operator&lt;&lt; Pages: 1 -->
<svg width="182pt" height="66pt"
 viewBox="0.00 0.00 182.00 66.00" xmlns="http://www.w3.org/2000/svg" xmlns:xlink="http://www.w3.org/1999/xlink">
<g id="graph0" class="graph" transform="scale(1 1) rotate(0) translate(4 62)">
<title>operator&lt;&lt;</title>
<polygon fill="white" stroke="white" points="-4,5 -4,-62 179,-62 179,5 -4,5"/>
<!-- Node1 -->
<g id="node1" class="node"><title>Node1</title>
<polygon fill="#bfbfbf" stroke="black" points="0,-19.5 0,-38.5 64,-38.5 64,-19.5 0,-19.5"/>
<text text-anchor="middle" x="32" y="-26.5" font-family="Helvetica,sans-Serif" font-size="10.00">operator&lt;&lt;</text>
</g>
<!-- Node2 -->
<g id="node2" class="node"><title>Node2</title>
<g id="a_node2"><a xlink:href="classMatrix.html#aec0c767dcd6da0724ccb6df4ec0f2a82" target="_top" xlink:title="Matrix::size1">
<polygon fill="white" stroke="black" points="100.5,-38.5 100.5,-57.5 173.5,-57.5 173.5,-38.5 100.5,-38.5"/>
<text text-anchor="middle" x="137" y="-45.5" font-family="Helvetica,sans-Serif" font-size="10.00">Matrix::size1</text>
</a>
</g>
</g>
<!-- Node1&#45;&gt;Node2 -->
<g id="edge1" class="edge"><title>Node1&#45;&gt;Node2</title>
<path fill="none" stroke="midnightblue" d="M64.1829,-34.7522C72.4427,-36.2758 81.5329,-37.9527 90.3878,-39.5861"/>
<polygon fill="midnightblue" stroke="midnightblue" points="89.7595,-43.0292 100.229,-41.4014 91.0294,-36.1453 89.7595,-43.0292"/>
</g>
<!-- Node3 -->
<g id="node3" class="node"><title>Node3</title>
<g id="a_node3"><a xlink:href="classMatrix.html#a306220f01f6859a16e738590214d008d" target="_top" xlink:title="Matrix::size2">
<polygon fill="white" stroke="black" points="100.5,-0.5 100.5,-19.5 173.5,-19.5 173.5,-0.5 100.5,-0.5"/>
<text text-anchor="middle" x="137" y="-7.5" font-family="Helvetica,sans-Serif" font-size="10.00">Matrix::size2</text>
</a>
</g>
</g>
<!-- Node1&#45;&gt;Node3 -->
<g id="edge2" class="edge"><title>Node1&#45;&gt;Node3</title>
<path fill="none" stroke="midnightblue" d="M64.1829,-23.2478C72.4427,-21.7242 81.5329,-20.0473 90.3878,-18.4139"/>
<polygon fill="midnightblue" stroke="midnightblue" points="91.0294,-21.8547 100.229,-16.5986 89.7595,-14.9708 91.0294,-21.8547"/>
</g>
</g>
</svg>
