<?xml version="1.0" encoding="UTF-8" standalone="no"?>
<!DOCTYPE svg PUBLIC "-//W3C//DTD SVG 1.1//EN"
 "http://www.w3.org/Graphics/SVG/1.1/DTD/svg11.dtd">
<!-- Generated by graphviz version 2.30.1 (20180420.1509)
 -->
<!-- Title: SAT_Filter.cpp Pages: 1 -->
<svg width="191pt" height="196pt"
 viewBox="0.00 0.00 191.32 196.00" xmlns="http://www.w3.org/2000/svg" xmlns:xlink="http://www.w3.org/1999/xlink">
<g id="graph0" class="graph" transform="scale(1 1) rotate(0) translate(4 192)">
<title>SAT_Filter.cpp</title>
<polygon fill="white" stroke="white" points="-4,5 -4,-192 188.324,-192 188.324,5 -4,5"/>
<!-- Node1 -->
<g id="node1" class="node"><title>Node1</title>
<polygon fill="#bfbfbf" stroke="black" points="63,-168.5 63,-187.5 145,-187.5 145,-168.5 63,-168.5"/>
<text text-anchor="middle" x="104" y="-175.5" font-family="Helvetica,sans-Serif" font-size="10.00">SAT_Filter.cpp</text>
</g>
<!-- Node2 -->
<g id="node2" class="node"><title>Node2</title>
<polygon fill="white" stroke="#bfbfbf" points="0,-112.5 0,-131.5 44,-131.5 44,-112.5 0,-112.5"/>
<text text-anchor="middle" x="22" y="-119.5" font-family="Helvetica,sans-Serif" font-size="10.00">cmath</text>
</g>
<!-- Node1&#45;&gt;Node2 -->
<g id="edge1" class="edge"><title>Node1&#45;&gt;Node2</title>
<path fill="none" stroke="midnightblue" d="M90.8253,-168.324C78.1532,-159.979 58.7666,-147.212 43.7944,-137.352"/>
<polygon fill="midnightblue" stroke="midnightblue" points="45.4187,-134.231 35.142,-131.655 41.5688,-140.078 45.4187,-134.231"/>
</g>
<!-- Node3 -->
<g id="node3" class="node"><title>Node3</title>
<polygon fill="white" stroke="#bfbfbf" points="46,-0.5 46,-19.5 100,-19.5 100,-0.5 46,-0.5"/>
<text text-anchor="middle" x="73" y="-7.5" font-family="Helvetica,sans-Serif" font-size="10.00">iostream</text>
</g>
<!-- Node1&#45;&gt;Node3 -->
<g id="edge2" class="edge"><title>Node1&#45;&gt;Node3</title>
<path fill="none" stroke="midnightblue" d="M101.163,-168.46C98.2647,-159.473 93.8036,-144.872 91,-132 83.1928,-96.1549 77.7263,-53.5935 74.9962,-29.6989"/>
<polygon fill="midnightblue" stroke="midnightblue" points="78.4552,-29.1345 73.8775,-19.5796 71.4976,-29.9037 78.4552,-29.1345"/>
</g>
<!-- Node4 -->
<g id="node4" class="node"><title>Node4</title>
<g id="a_node4"><a xlink:href="SAT__Filter_8h.html" target="_top" xlink:title="SAT_Filter.h">
<polygon fill="white" stroke="black" points="100.5,-112.5 100.5,-131.5 171.5,-131.5 171.5,-112.5 100.5,-112.5"/>
<text text-anchor="middle" x="136" y="-119.5" font-family="Helvetica,sans-Serif" font-size="10.00">SAT_Filter.h</text>
</a>
</g>
</g>
<!-- Node1&#45;&gt;Node4 -->
<g id="edge3" class="edge"><title>Node1&#45;&gt;Node4</title>
<path fill="none" stroke="midnightblue" d="M109.284,-168.083C113.711,-160.613 120.163,-149.724 125.618,-140.52"/>
<polygon fill="midnightblue" stroke="midnightblue" points="128.727,-142.138 130.814,-131.751 122.705,-138.57 128.727,-142.138"/>
</g>
<!-- Node5 -->
<g id="node5" class="node"><title>Node5</title>
<g id="a_node5"><a xlink:href="SAT__VecMat_8h.html" target="_top" xlink:title="SAT_VecMat.h">
<polygon fill="white" stroke="black" points="100.5,-56.5 100.5,-75.5 183.5,-75.5 183.5,-56.5 100.5,-56.5"/>
<text text-anchor="middle" x="142" y="-63.5" font-family="Helvetica,sans-Serif" font-size="10.00">SAT_VecMat.h</text>
</a>
</g>
</g>
<!-- Node1&#45;&gt;Node5 -->
<g id="edge7" class="edge"><title>Node1&#45;&gt;Node5</title>
<path fill="none" stroke="midnightblue" d="M132.015,-168.397C149.174,-161.515 169.748,-149.984 180,-132 189.686,-115.007 175.067,-95.6725 161.246,-82.5387"/>
<polygon fill="midnightblue" stroke="midnightblue" points="163.199,-79.5931 153.39,-75.587 158.56,-84.8352 163.199,-79.5931"/>
</g>
<!-- Node4&#45;&gt;Node5 -->
<g id="edge4" class="edge"><title>Node4&#45;&gt;Node5</title>
<path fill="none" stroke="midnightblue" d="M136.991,-112.083C137.786,-104.927 138.929,-94.6353 139.923,-85.6911"/>
<polygon fill="midnightblue" stroke="midnightblue" points="143.402,-86.0765 141.028,-75.7511 136.445,-85.3034 143.402,-86.0765"/>
</g>
<!-- Node5&#45;&gt;Node3 -->
<g id="edge5" class="edge"><title>Node5&#45;&gt;Node3</title>
<path fill="none" stroke="midnightblue" d="M130.914,-56.324C120.514,-48.1849 104.739,-35.8395 92.2784,-26.0874"/>
<polygon fill="midnightblue" stroke="midnightblue" points="94.3199,-23.2407 84.2878,-19.8339 90.0057,-28.7533 94.3199,-23.2407"/>
</g>
<!-- Node6 -->
<g id="node6" class="node"><title>Node6</title>
<polygon fill="white" stroke="#bfbfbf" points="119.5,-0.5 119.5,-19.5 164.5,-19.5 164.5,-0.5 119.5,-0.5"/>
<text text-anchor="middle" x="142" y="-7.5" font-family="Helvetica,sans-Serif" font-size="10.00">cstdlib</text>
</g>
<!-- Node5&#45;&gt;Node6 -->
<g id="edge6" class="edge"><title>Node5&#45;&gt;Node6</title>
<path fill="none" stroke="midnightblue" d="M142,-56.083C142,-49.0059 142,-38.8611 142,-29.9865"/>
<polygon fill="midnightblue" stroke="midnightblue" points="145.5,-29.751 142,-19.7511 138.5,-29.7511 145.5,-29.751"/>
</g>
</g>
</svg>
