<?xml version="1.0" encoding="UTF-8" standalone="no"?>
<!DOCTYPE svg PUBLIC "-//W3C//DTD SVG 1.1//EN"
 "http://www.w3.org/Graphics/SVG/1.1/DTD/svg11.dtd">
<!-- Generated by graphviz version 2.30.1 (20180420.1509)
 -->
<!-- Title: R_x Pages: 1 -->
<svg width="472pt" height="395pt"
 viewBox="0.00 0.00 472.00 394.98" xmlns="http://www.w3.org/2000/svg" xmlns:xlink="http://www.w3.org/1999/xlink">
<g id="graph0" class="graph" transform="scale(1 1) rotate(0) translate(4 390.976)">
<title>R_x</title>
<polygon fill="white" stroke="white" points="-4,5 -4,-390.976 469,-390.976 469,5 -4,5"/>
<!-- Node1 -->
<g id="node1" class="node"><title>Node1</title>
<polygon fill="#bfbfbf" stroke="black" points="0.5,-133.5 0.5,-152.5 35.5,-152.5 35.5,-133.5 0.5,-133.5"/>
<text text-anchor="middle" x="18" y="-140.5" font-family="Helvetica,sans-Serif" font-size="10.00">R_x</text>
</g>
<!-- Node2 -->
<g id="node2" class="node"><title>Node2</title>
<g id="a_node2"><a xlink:href="SAT__Force_8h.html#a2de08a6e83f5eff12db59b0616ad7f2c" target="_top" xlink:title="Sun">
<polygon fill="white" stroke="black" points="100,-304.5 100,-323.5 134,-323.5 134,-304.5 100,-304.5"/>
<text text-anchor="middle" x="117" y="-311.5" font-family="Helvetica,sans-Serif" font-size="10.00">Sun</text>
</a>
</g>
</g>
<!-- Node1&#45;&gt;Node2 -->
<g id="edge1" class="edge"><title>Node1&#45;&gt;Node2</title>
<path fill="none" stroke="midnightblue" d="M27.0359,-161.869C36.7167,-183.997 53.9438,-221.525 72,-252 83.4378,-271.304 99.0878,-292.311 108.312,-304.246"/>
<polygon fill="midnightblue" stroke="midnightblue" points="30.2115,-160.395 23.0309,-152.604 23.7861,-163.172 30.2115,-160.395"/>
</g>
<!-- Node7 -->
<g id="node7" class="node"><title>Node7</title>
<g id="a_node7"><a xlink:href="SAT__Force_8h.html#a787c7d05ba9e7f29d236caf719ff7900" target="_top" xlink:title="Moon">
<polygon fill="white" stroke="black" points="314.5,-228.5 314.5,-247.5 355.5,-247.5 355.5,-228.5 314.5,-228.5"/>
<text text-anchor="middle" x="335" y="-235.5" font-family="Helvetica,sans-Serif" font-size="10.00">Moon</text>
</a>
</g>
</g>
<!-- Node1&#45;&gt;Node7 -->
<g id="edge8" class="edge"><title>Node1&#45;&gt;Node7</title>
<path fill="none" stroke="midnightblue" d="M26.3973,-161.825C34.5988,-179.912 49.6877,-206.31 72,-219 151.88,-264.431 268.331,-250.115 314.294,-241.96"/>
<polygon fill="midnightblue" stroke="midnightblue" points="29.5838,-160.374 22.4543,-152.537 23.1404,-163.11 29.5838,-160.374"/>
</g>
<!-- Node8 -->
<g id="node8" class="node"><title>Node8</title>
<g id="a_node8"><a xlink:href="SAT__Kepler_8h.html#ad89a224ad24d23f6059beb84e1c0817f" target="_top" xlink:title="State">
<polygon fill="white" stroke="black" points="97,-114.5 97,-133.5 137,-133.5 137,-114.5 97,-114.5"/>
<text text-anchor="middle" x="117" y="-121.5" font-family="Helvetica,sans-Serif" font-size="10.00">State</text>
</a>
</g>
</g>
<!-- Node1&#45;&gt;Node8 -->
<g id="edge11" class="edge"><title>Node1&#45;&gt;Node8</title>
<path fill="none" stroke="midnightblue" d="M45.8743,-137.736C62.1051,-134.557 82.3991,-130.582 96.9733,-127.727"/>
<polygon fill="midnightblue" stroke="midnightblue" points="45.0368,-134.333 35.8961,-139.69 46.3824,-141.203 45.0368,-134.333"/>
</g>
<!-- Node11 -->
<g id="node11" class="node"><title>Node11</title>
<g id="a_node11"><a xlink:href="SAT__Kepler_8h.html#ad41abe3ee1647b2de98425457c6fdce2" target="_top" xlink:title="StatePartials">
<polygon fill="white" stroke="black" points="80.5,-76.5 80.5,-95.5 153.5,-95.5 153.5,-76.5 80.5,-76.5"/>
<text text-anchor="middle" x="117" y="-83.5" font-family="Helvetica,sans-Serif" font-size="10.00">StatePartials</text>
</a>
</g>
</g>
<!-- Node1&#45;&gt;Node11 -->
<g id="edge14" class="edge"><title>Node1&#45;&gt;Node11</title>
<path fill="none" stroke="midnightblue" d="M38.8659,-127.208C48.5378,-119.93 60.5319,-111.488 72,-105 78.0834,-101.559 84.9118,-98.3299 91.3414,-95.5449"/>
<polygon fill="midnightblue" stroke="midnightblue" points="36.5099,-124.605 30.718,-133.477 40.7781,-130.153 36.5099,-124.605"/>
</g>
<!-- Node12 -->
<g id="node12" class="node"><title>Node12</title>
<g id="a_node12"><a xlink:href="SAT__RefSys_8h.html#a68a7a5a1df3ebf5b569ed7691fe0ab98" target="_top" xlink:title="EclMatrix">
<polygon fill="white" stroke="black" points="88,-38.5 88,-57.5 146,-57.5 146,-38.5 88,-38.5"/>
<text text-anchor="middle" x="117" y="-45.5" font-family="Helvetica,sans-Serif" font-size="10.00">EclMatrix</text>
</a>
</g>
</g>
<!-- Node1&#45;&gt;Node12 -->
<g id="edge16" class="edge"><title>Node1&#45;&gt;Node12</title>
<path fill="none" stroke="midnightblue" d="M28.1359,-124.367C37.2355,-107.458 52.6267,-82.8188 72,-67 76.6405,-63.211 82.1511,-60.0503 87.6754,-57.4643"/>
<polygon fill="midnightblue" stroke="midnightblue" points="24.9991,-122.814 23.5226,-133.305 31.2194,-126.024 24.9991,-122.814"/>
</g>
<!-- Node13 -->
<g id="node13" class="node"><title>Node13</title>
<g id="a_node13"><a xlink:href="SAT__RefSys_8h.html#a35e586a324741da54bc1e407a5586378" target="_top" xlink:title="NutMatrix">
<polygon fill="white" stroke="black" points="87.5,-190.5 87.5,-209.5 146.5,-209.5 146.5,-190.5 87.5,-190.5"/>
<text text-anchor="middle" x="117" y="-197.5" font-family="Helvetica,sans-Serif" font-size="10.00">NutMatrix</text>
</a>
</g>
</g>
<!-- Node1&#45;&gt;Node13 -->
<g id="edge17" class="edge"><title>Node1&#45;&gt;Node13</title>
<path fill="none" stroke="midnightblue" d="M38.8659,-158.792C48.5378,-166.07 60.5319,-174.512 72,-181 78.0834,-184.441 84.9118,-187.67 91.3414,-190.455"/>
<polygon fill="midnightblue" stroke="midnightblue" points="40.7781,-155.847 30.718,-152.523 36.5099,-161.395 40.7781,-155.847"/>
</g>
<!-- Node16 -->
<g id="node16" class="node"><title>Node16</title>
<g id="a_node16"><a xlink:href="SAT__RefSys_8cpp.html#a04f9381158624e774f728842393c560d" target="_top" xlink:title="NutMatrixSimple">
<polygon fill="white" stroke="black" points="72.5,-0.5 72.5,-19.5 161.5,-19.5 161.5,-0.5 72.5,-0.5"/>
<text text-anchor="middle" x="117" y="-7.5" font-family="Helvetica,sans-Serif" font-size="10.00">NutMatrixSimple</text>
</a>
</g>
</g>
<!-- Node1&#45;&gt;Node16 -->
<g id="edge22" class="edge"><title>Node1&#45;&gt;Node16</title>
<path fill="none" stroke="midnightblue" d="M23.4261,-123.649C30.0397,-98.7384 44.7444,-55.5148 72,-29 75.9363,-25.1707 80.7675,-22.053 85.7706,-19.5345"/>
<polygon fill="midnightblue" stroke="midnightblue" points="20.0202,-122.842 21.0072,-133.391 26.8139,-124.529 20.0202,-122.842"/>
</g>
<!-- Node17 -->
<g id="node17" class="node"><title>Node17</title>
<g id="a_node17"><a xlink:href="SAT__RefSys_8h.html#a3a50fff4beefe84794cd248777679bf4" target="_top" xlink:title="PoleMatrix">
<polygon fill="white" stroke="black" points="85.5,-152.5 85.5,-171.5 148.5,-171.5 148.5,-152.5 85.5,-152.5"/>
<text text-anchor="middle" x="117" y="-159.5" font-family="Helvetica,sans-Serif" font-size="10.00">PoleMatrix</text>
</a>
</g>
</g>
<!-- Node1&#45;&gt;Node17 -->
<g id="edge23" class="edge"><title>Node1&#45;&gt;Node17</title>
<path fill="none" stroke="midnightblue" d="M45.9157,-148.272C58.105,-150.66 72.5794,-153.495 85.2003,-155.967"/>
<polygon fill="midnightblue" stroke="midnightblue" points="46.3824,-144.797 35.8961,-146.31 45.0368,-151.667 46.3824,-144.797"/>
</g>
<!-- Node3 -->
<g id="node3" class="node"><title>Node3</title>
<g id="a_node3"><a xlink:href="SAT__Force_8h.html#a6ad9e17c2e7636b8cd8045d461940681" target="_top" xlink:title="Density_HP">
<polygon fill="white" stroke="black" points="198,-342.5 198,-361.5 268,-361.5 268,-342.5 198,-342.5"/>
<text text-anchor="middle" x="233" y="-349.5" font-family="Helvetica,sans-Serif" font-size="10.00">Density_HP</text>
</a>
</g>
</g>
<!-- Node2&#45;&gt;Node3 -->
<g id="edge2" class="edge"><title>Node2&#45;&gt;Node3</title>
<path fill="none" stroke="midnightblue" d="M144.008,-322.669C161.705,-328.568 185.127,-336.376 203.357,-342.452"/>
<polygon fill="midnightblue" stroke="midnightblue" points="144.927,-319.286 134.333,-319.444 142.713,-325.927 144.927,-319.286"/>
</g>
<!-- Node5 -->
<g id="node5" class="node"><title>Node5</title>
<g id="a_node5"><a xlink:href="SAT__Force_8h.html#a750f7a2f89dc275831e706abee33310f" target="_top" xlink:title="AccelMain">
<polygon fill="white" stroke="black" points="402,-247.5 402,-266.5 464,-266.5 464,-247.5 402,-247.5"/>
<text text-anchor="middle" x="433" y="-254.5" font-family="Helvetica,sans-Serif" font-size="10.00">AccelMain</text>
</a>
</g>
</g>
<!-- Node2&#45;&gt;Node5 -->
<g id="edge6" class="edge"><title>Node2&#45;&gt;Node5</title>
<path fill="none" stroke="midnightblue" d="M144.126,-309.257C201.888,-298.772 340.183,-273.667 401.656,-262.508"/>
<polygon fill="midnightblue" stroke="midnightblue" points="143.217,-305.865 134.003,-311.095 144.467,-312.753 143.217,-305.865"/>
</g>
<!-- Node6 -->
<g id="node6" class="node"><title>Node6</title>
<g id="a_node6"><a xlink:href="TDRSOD_8cpp.html#a1d3803a2ec3760bf63edefae54e3ac5b" target="_top" xlink:title="Accel">
<polygon fill="white" stroke="black" points="412.5,-323.5 412.5,-342.5 453.5,-342.5 453.5,-323.5 412.5,-323.5"/>
<text text-anchor="middle" x="433" y="-330.5" font-family="Helvetica,sans-Serif" font-size="10.00">Accel</text>
</a>
</g>
</g>
<!-- Node2&#45;&gt;Node6 -->
<g id="edge7" class="edge"><title>Node2&#45;&gt;Node6</title>
<path fill="none" stroke="midnightblue" d="M134.695,-330.703C149.775,-344.52 173.331,-363.11 198,-371 269.118,-393.745 293.866,-390.282 366,-371 386.437,-365.537 407.109,-352.059 419.739,-342.719"/>
<polygon fill="midnightblue" stroke="midnightblue" points="136.896,-327.966 127.235,-323.616 132.074,-333.041 136.896,-327.966"/>
</g>
<!-- Node4 -->
<g id="node4" class="node"><title>Node4</title>
<g id="a_node4"><a xlink:href="SAT__Force_8h.html#ae20f51bcb69607d4a2268329837260f2" target="_top" xlink:title="AccelDrag">
<polygon fill="white" stroke="black" points="304,-342.5 304,-361.5 366,-361.5 366,-342.5 304,-342.5"/>
<text text-anchor="middle" x="335" y="-349.5" font-family="Helvetica,sans-Serif" font-size="10.00">AccelDrag</text>
</a>
</g>
</g>
<!-- Node3&#45;&gt;Node4 -->
<g id="edge3" class="edge"><title>Node3&#45;&gt;Node4</title>
<path fill="none" stroke="midnightblue" d="M278.391,-352C286.946,-352 295.722,-352 303.702,-352"/>
<polygon fill="midnightblue" stroke="midnightblue" points="278.135,-348.5 268.135,-352 278.135,-355.5 278.135,-348.5"/>
</g>
<!-- Node4&#45;&gt;Node5 -->
<g id="edge4" class="edge"><title>Node4&#45;&gt;Node5</title>
<path fill="none" stroke="midnightblue" d="M353.212,-334.967C373.38,-315.01 406.093,-282.637 422.285,-266.614"/>
<polygon fill="midnightblue" stroke="midnightblue" points="350.558,-332.669 345.912,-342.191 355.482,-337.645 350.558,-332.669"/>
</g>
<!-- Node4&#45;&gt;Node6 -->
<g id="edge5" class="edge"><title>Node4&#45;&gt;Node6</title>
<path fill="none" stroke="midnightblue" d="M375.944,-344.094C388.491,-341.611 401.795,-338.978 412.291,-336.901"/>
<polygon fill="midnightblue" stroke="midnightblue" points="375.242,-340.665 366.112,-346.04 376.601,-347.532 375.242,-340.665"/>
</g>
<!-- Node7&#45;&gt;Node5 -->
<g id="edge9" class="edge"><title>Node7&#45;&gt;Node5</title>
<path fill="none" stroke="midnightblue" d="M365.876,-243.913C377.343,-246.182 390.428,-248.772 401.915,-251.046"/>
<polygon fill="midnightblue" stroke="midnightblue" points="366.381,-240.445 355.891,-241.937 365.021,-247.312 366.381,-240.445"/>
</g>
<!-- Node7&#45;&gt;Node6 -->
<g id="edge10" class="edge"><title>Node7&#45;&gt;Node6</title>
<path fill="none" stroke="midnightblue" d="M353.212,-255.033C373.38,-274.99 406.093,-307.363 422.285,-323.386"/>
<polygon fill="midnightblue" stroke="midnightblue" points="355.482,-252.355 345.912,-247.809 350.558,-257.331 355.482,-252.355"/>
</g>
<!-- Node9 -->
<g id="node9" class="node"><title>Node9</title>
<g id="a_node9"><a xlink:href="SAT__Kepler_8h.html#aeb2175e4cdc39ea590f44fc2949ea8d3" target="_top" xlink:title="TwoBody">
<polygon fill="white" stroke="black" points="204,-95.5 204,-114.5 262,-114.5 262,-95.5 204,-95.5"/>
<text text-anchor="middle" x="233" y="-102.5" font-family="Helvetica,sans-Serif" font-size="10.00">TwoBody</text>
</a>
</g>
</g>
<!-- Node8&#45;&gt;Node9 -->
<g id="edge12" class="edge"><title>Node8&#45;&gt;Node9</title>
<path fill="none" stroke="midnightblue" d="M147.252,-119.125C164.67,-116.222 186.66,-112.557 203.875,-109.687"/>
<polygon fill="midnightblue" stroke="midnightblue" points="146.37,-115.723 137.081,-120.82 147.52,-122.628 146.37,-115.723"/>
</g>
<!-- Node10 -->
<g id="node10" class="node"><title>Node10</title>
<g id="a_node10"><a xlink:href="RTOD_8cpp.html#a0ddf1224851353fc92bfbff6f499fa97" target="_top" xlink:title="main">
<polygon fill="white" stroke="black" points="316,-95.5 316,-114.5 354,-114.5 354,-95.5 316,-95.5"/>
<text text-anchor="middle" x="335" y="-102.5" font-family="Helvetica,sans-Serif" font-size="10.00">main</text>
</a>
</g>
</g>
<!-- Node9&#45;&gt;Node10 -->
<g id="edge13" class="edge"><title>Node9&#45;&gt;Node10</title>
<path fill="none" stroke="midnightblue" d="M272.188,-105C287.179,-105 303.672,-105 315.848,-105"/>
<polygon fill="midnightblue" stroke="midnightblue" points="272.122,-101.5 262.122,-105 272.122,-108.5 272.122,-101.5"/>
</g>
<!-- Node11&#45;&gt;Node9 -->
<g id="edge15" class="edge"><title>Node11&#45;&gt;Node9</title>
<path fill="none" stroke="midnightblue" d="M163.903,-93.6504C177.461,-95.9102 191.891,-98.3152 203.962,-100.327"/>
<polygon fill="midnightblue" stroke="midnightblue" points="164.197,-90.1513 153.758,-91.9596 163.046,-97.056 164.197,-90.1513"/>
</g>
<!-- Node13&#45;&gt;Node5 -->
<g id="edge18" class="edge"><title>Node13&#45;&gt;Node5</title>
<path fill="none" stroke="midnightblue" d="M156.949,-197.742C206.642,-196.036 294.694,-196.987 366,-219 385.961,-225.162 406.423,-238.193 419.165,-247.267"/>
<polygon fill="midnightblue" stroke="midnightblue" points="156.504,-194.257 146.652,-198.153 156.784,-201.251 156.504,-194.257"/>
</g>
<!-- Node13&#45;&gt;Node6 -->
<g id="edge19" class="edge"><title>Node13&#45;&gt;Node6</title>
<path fill="none" stroke="midnightblue" d="M149.896,-213.51C214.653,-240.939 359.854,-302.441 412.48,-324.732"/>
<polygon fill="midnightblue" stroke="midnightblue" points="151.155,-210.242 140.582,-209.565 148.425,-216.688 151.155,-210.242"/>
</g>
<!-- Node14 -->
<g id="node14" class="node"><title>Node14</title>
<g id="a_node14"><a xlink:href="TDRSOD_8cpp.html#a466ab098330aeb2aa659365279071640" target="_top" xlink:title="Range_4W">
<polygon fill="white" stroke="black" points="200.5,-152.5 200.5,-171.5 265.5,-171.5 265.5,-152.5 200.5,-152.5"/>
<text text-anchor="middle" x="233" y="-159.5" font-family="Helvetica,sans-Serif" font-size="10.00">Range_4W</text>
</a>
</g>
</g>
<!-- Node13&#45;&gt;Node14 -->
<g id="edge20" class="edge"><title>Node13&#45;&gt;Node14</title>
<path fill="none" stroke="midnightblue" d="M156.478,-187.174C171.774,-182.075 189.067,-176.311 203.242,-171.586"/>
<polygon fill="midnightblue" stroke="midnightblue" points="155.147,-183.928 146.767,-190.411 157.361,-190.569 155.147,-183.928"/>
</g>
<!-- Node15 -->
<g id="node15" class="node"><title>Node15</title>
<g id="a_node15"><a xlink:href="TDRSOD_8cpp.html#a0ddf1224851353fc92bfbff6f499fa97" target="_top" xlink:title="main">
<polygon fill="white" stroke="black" points="316,-152.5 316,-171.5 354,-171.5 354,-152.5 316,-152.5"/>
<text text-anchor="middle" x="335" y="-159.5" font-family="Helvetica,sans-Serif" font-size="10.00">main</text>
</a>
</g>
</g>
<!-- Node14&#45;&gt;Node15 -->
<g id="edge21" class="edge"><title>Node14&#45;&gt;Node15</title>
<path fill="none" stroke="midnightblue" d="M275.656,-162C289.721,-162 304.693,-162 315.949,-162"/>
<polygon fill="midnightblue" stroke="midnightblue" points="275.641,-158.5 265.641,-162 275.641,-165.5 275.641,-158.5"/>
</g>
<!-- Node17&#45;&gt;Node14 -->
<g id="edge24" class="edge"><title>Node17&#45;&gt;Node14</title>
<path fill="none" stroke="midnightblue" d="M158.658,-162C172.3,-162 187.306,-162 200.171,-162"/>
<polygon fill="midnightblue" stroke="midnightblue" points="158.55,-158.5 148.55,-162 158.55,-165.5 158.55,-158.5"/>
</g>
</g>
</svg>
