<?xml version="1.0" encoding="UTF-8" standalone="no"?>
<!DOCTYPE svg PUBLIC "-//W3C//DTD SVG 1.1//EN"
 "http://www.w3.org/Graphics/SVG/1.1/DTD/svg11.dtd">
<!-- Generated by graphviz version 2.30.1 (20180420.1509)
 -->
<!-- Title: LTCMatrix Pages: 1 -->
<svg width="142pt" height="66pt"
 viewBox="0.00 0.00 142.00 66.00" xmlns="http://www.w3.org/2000/svg" xmlns:xlink="http://www.w3.org/1999/xlink">
<g id="graph0" class="graph" transform="scale(1 1) rotate(0) translate(4 62)">
<title>LTCMatrix</title>
<polygon fill="white" stroke="white" points="-4,5 -4,-62 139,-62 139,5 -4,5"/>
<!-- Node1 -->
<g id="node1" class="node"><title>Node1</title>
<polygon fill="#bfbfbf" stroke="black" points="0,-19.5 0,-38.5 62,-38.5 62,-19.5 0,-19.5"/>
<text text-anchor="middle" x="31" y="-26.5" font-family="Helvetica,sans-Serif" font-size="10.00">LTCMatrix</text>
</g>
<!-- Node2 -->
<g id="node2" class="node"><title>Node2</title>
<g id="a_node2"><a xlink:href="SAT__VecMat_8cpp.html#a66b3b116958d5c2f1c528faa04c71674" target="_top" xlink:title="R_y">
<polygon fill="white" stroke="black" points="98.5,-38.5 98.5,-57.5 133.5,-57.5 133.5,-38.5 98.5,-38.5"/>
<text text-anchor="middle" x="116" y="-45.5" font-family="Helvetica,sans-Serif" font-size="10.00">R_y</text>
</a>
</g>
</g>
<!-- Node1&#45;&gt;Node2 -->
<g id="edge1" class="edge"><title>Node1&#45;&gt;Node2</title>
<path fill="none" stroke="midnightblue" d="M62.4348,-35.967C70.8928,-37.9032 80.0123,-39.9908 88.2427,-41.8748"/>
<polygon fill="midnightblue" stroke="midnightblue" points="87.5466,-45.306 98.0755,-44.1257 89.1087,-38.4825 87.5466,-45.306"/>
</g>
<!-- Node3 -->
<g id="node3" class="node"><title>Node3</title>
<g id="a_node3"><a xlink:href="SAT__VecMat_8cpp.html#a94c9c4e1f3afc6636dda6572f72ef4c2" target="_top" xlink:title="R_z">
<polygon fill="white" stroke="black" points="98.5,-0.5 98.5,-19.5 133.5,-19.5 133.5,-0.5 98.5,-0.5"/>
<text text-anchor="middle" x="116" y="-7.5" font-family="Helvetica,sans-Serif" font-size="10.00">R_z</text>
</a>
</g>
</g>
<!-- Node1&#45;&gt;Node3 -->
<g id="edge2" class="edge"><title>Node1&#45;&gt;Node3</title>
<path fill="none" stroke="midnightblue" d="M62.4348,-22.033C70.8928,-20.0968 80.0123,-18.0092 88.2427,-16.1252"/>
<polygon fill="midnightblue" stroke="midnightblue" points="89.1087,-19.5175 98.0755,-13.8743 87.5466,-12.694 89.1087,-19.5175"/>
</g>
</g>
</svg>
