<?xml version="1.0" encoding="UTF-8" standalone="no"?>
<!DOCTYPE svg PUBLIC "-//W3C//DTD SVG 1.1//EN"
 "http://www.w3.org/Graphics/SVG/1.1/DTD/svg11.dtd">
<!-- Generated by graphviz version 2.30.1 (20180420.1509)
 -->
<!-- Title: Inv Pages: 1 -->
<svg width="264pt" height="123pt"
 viewBox="0.00 0.00 264.00 123.00" xmlns="http://www.w3.org/2000/svg" xmlns:xlink="http://www.w3.org/1999/xlink">
<g id="graph0" class="graph" transform="scale(1 1) rotate(0) translate(4 119)">
<title>Inv</title>
<polygon fill="white" stroke="white" points="-4,5 -4,-119 261,-119 261,5 -4,5"/>
<!-- Node1 -->
<g id="node1" class="node"><title>Node1</title>
<polygon fill="#bfbfbf" stroke="black" points="0,-57.5 0,-76.5 30,-76.5 30,-57.5 0,-57.5"/>
<text text-anchor="middle" x="15" y="-64.5" font-family="Helvetica,sans-Serif" font-size="10.00">Inv</text>
</g>
<!-- Node2 -->
<g id="node2" class="node"><title>Node2</title>
<g id="a_node2"><a xlink:href="SAT__VecMat_8cpp.html#a0f5c7f0b16752bb4e1eb41c9b191214c" target="_top" xlink:title="LU_Decomp">
<polygon fill="white" stroke="black" points="70.5,-95.5 70.5,-114.5 141.5,-114.5 141.5,-95.5 70.5,-95.5"/>
<text text-anchor="middle" x="106" y="-102.5" font-family="Helvetica,sans-Serif" font-size="10.00">LU_Decomp</text>
</a>
</g>
</g>
<!-- Node1&#45;&gt;Node2 -->
<g id="edge1" class="edge"><title>Node1&#45;&gt;Node2</title>
<path fill="none" stroke="midnightblue" d="M30.2994,-73.1054C41.908,-78.0619 58.7084,-85.2351 73.4377,-91.524"/>
<polygon fill="midnightblue" stroke="midnightblue" points="72.1713,-94.7889 82.7425,-95.4968 74.92,-88.3511 72.1713,-94.7889"/>
</g>
<!-- Node4 -->
<g id="node4" class="node"><title>Node4</title>
<g id="a_node4"><a xlink:href="SAT__VecMat_8cpp.html#a6576c679c3e505becc6efd99fd0c4d99" target="_top" xlink:title="LU_BackSub">
<polygon fill="white" stroke="black" points="69,-57.5 69,-76.5 143,-76.5 143,-57.5 69,-57.5"/>
<text text-anchor="middle" x="106" y="-64.5" font-family="Helvetica,sans-Serif" font-size="10.00">LU_BackSub</text>
</a>
</g>
</g>
<!-- Node1&#45;&gt;Node4 -->
<g id="edge3" class="edge"><title>Node1&#45;&gt;Node4</title>
<path fill="none" stroke="midnightblue" d="M30.2994,-67C38.1122,-67 48.2766,-67 58.5786,-67"/>
<polygon fill="midnightblue" stroke="midnightblue" points="58.8444,-70.5001 68.8444,-67 58.8444,-63.5001 58.8444,-70.5001"/>
</g>
<!-- Node5 -->
<g id="node5" class="node"><title>Node5</title>
<g id="a_node5"><a xlink:href="classMatrix.html#ae9f1574a9cf6595c64ce1236a8003cd2" target="_top" xlink:title="Matrix::SetCol">
<polygon fill="white" stroke="black" points="66,-19.5 66,-38.5 146,-38.5 146,-19.5 66,-19.5"/>
<text text-anchor="middle" x="106" y="-26.5" font-family="Helvetica,sans-Serif" font-size="10.00">Matrix::SetCol</text>
</a>
</g>
</g>
<!-- Node1&#45;&gt;Node5 -->
<g id="edge5" class="edge"><title>Node1&#45;&gt;Node5</title>
<path fill="none" stroke="midnightblue" d="M30.2994,-60.8946C41.908,-55.9381 58.7084,-48.7649 73.4377,-42.476"/>
<polygon fill="midnightblue" stroke="midnightblue" points="74.92,-45.6489 82.7425,-38.5032 72.1713,-39.2111 74.92,-45.6489"/>
</g>
<!-- Node3 -->
<g id="node3" class="node"><title>Node3</title>
<g id="a_node3"><a xlink:href="classMatrix.html#aec0c767dcd6da0724ccb6df4ec0f2a82" target="_top" xlink:title="Matrix::size1">
<polygon fill="white" stroke="black" points="182.5,-85.5 182.5,-104.5 255.5,-104.5 255.5,-85.5 182.5,-85.5"/>
<text text-anchor="middle" x="219" y="-92.5" font-family="Helvetica,sans-Serif" font-size="10.00">Matrix::size1</text>
</a>
</g>
</g>
<!-- Node2&#45;&gt;Node3 -->
<g id="edge2" class="edge"><title>Node2&#45;&gt;Node3</title>
<path fill="none" stroke="midnightblue" d="M141.513,-101.891C151.25,-101.014 161.998,-100.045 172.283,-99.1187"/>
<polygon fill="midnightblue" stroke="midnightblue" points="172.713,-102.594 182.359,-98.2109 172.085,-95.6224 172.713,-102.594"/>
</g>
<!-- Node4&#45;&gt;Node3 -->
<g id="edge4" class="edge"><title>Node4&#45;&gt;Node3</title>
<path fill="none" stroke="midnightblue" d="M143.039,-76.0908C152.341,-78.4374 162.479,-80.9947 172.206,-83.4484"/>
<polygon fill="midnightblue" stroke="midnightblue" points="171.59,-86.9025 182.142,-85.9548 173.302,-80.1151 171.59,-86.9025"/>
</g>
<!-- Node6 -->
<g id="node6" class="node"><title>Node6</title>
<g id="a_node6"><a xlink:href="classVector.html#a3c8f59182463d6da833e7856f06e6171" target="_top" xlink:title="Vector::size">
<polygon fill="white" stroke="black" points="184.5,-38.5 184.5,-57.5 253.5,-57.5 253.5,-38.5 184.5,-38.5"/>
<text text-anchor="middle" x="219" y="-45.5" font-family="Helvetica,sans-Serif" font-size="10.00">Vector::size</text>
</a>
</g>
</g>
<!-- Node5&#45;&gt;Node6 -->
<g id="edge6" class="edge"><title>Node5&#45;&gt;Node6</title>
<path fill="none" stroke="midnightblue" d="M146.134,-35.6987C155.302,-37.2679 165.124,-38.9491 174.47,-40.5489"/>
<polygon fill="midnightblue" stroke="midnightblue" points="173.924,-44.0063 184.372,-42.2438 175.105,-37.1067 173.924,-44.0063"/>
</g>
<!-- Node7 -->
<g id="node7" class="node"><title>Node7</title>
<g id="a_node7"><a xlink:href="classMatrix.html#a02c825325655a07eb94e4a57478a4c18" target="_top" xlink:title="Matrix::Col">
<polygon fill="white" stroke="black" points="186.5,-0.5 186.5,-19.5 251.5,-19.5 251.5,-0.5 186.5,-0.5"/>
<text text-anchor="middle" x="219" y="-7.5" font-family="Helvetica,sans-Serif" font-size="10.00">Matrix::Col</text>
</a>
</g>
</g>
<!-- Node5&#45;&gt;Node7 -->
<g id="edge7" class="edge"><title>Node5&#45;&gt;Node7</title>
<path fill="none" stroke="midnightblue" d="M146.134,-22.3013C155.863,-20.6361 166.328,-18.8448 176.18,-17.1585"/>
<polygon fill="midnightblue" stroke="midnightblue" points="176.901,-20.5859 186.167,-15.4488 175.72,-13.6862 176.901,-20.5859"/>
</g>
</g>
</svg>
