<?xml version="1.0" encoding="UTF-8" standalone="no"?>
<!DOCTYPE svg PUBLIC "-//W3C//DTD SVG 1.1//EN"
 "http://www.w3.org/Graphics/SVG/1.1/DTD/svg11.dtd">
<!-- Generated by graphviz version 2.30.1 (20180420.1509)
 -->
<!-- Title: Station Pages: 1 -->
<svg width="123pt" height="106pt"
 viewBox="0.00 0.00 123.00 106.00" xmlns="http://www.w3.org/2000/svg" xmlns:xlink="http://www.w3.org/1999/xlink">
<g id="graph0" class="graph" transform="scale(1 1) rotate(0) translate(4 102)">
<title>Station</title>
<polygon fill="white" stroke="white" points="-4,5 -4,-102 120,-102 120,5 -4,5"/>
<!-- Node1 -->
<g id="node1" class="node"><title>Node1</title>
<polygon fill="#bfbfbf" stroke="black" points="37.5,-0.5 37.5,-19.5 84.5,-19.5 84.5,-0.5 37.5,-0.5"/>
<text text-anchor="middle" x="61" y="-7.5" font-family="Helvetica,sans-Serif" font-size="10.00">Station</text>
</g>
<!-- Node2 -->
<g id="node2" class="node"><title>Node2</title>
<g id="a_node2"><a xlink:href="classGeodetic.html" target="_top" xlink:title="Geodetic">
<polygon fill="white" stroke="black" points="0,-78.5 0,-97.5 56,-97.5 56,-78.5 0,-78.5"/>
<text text-anchor="middle" x="28" y="-85.5" font-family="Helvetica,sans-Serif" font-size="10.00">Geodetic</text>
</a>
</g>
</g>
<!-- Node2&#45;&gt;Node1 -->
<g id="edge1" class="edge"><title>Node2&#45;&gt;Node1</title>
<path fill="none" stroke="#9a32cd" stroke-dasharray="5,2" d="M34.0633,-68.4173C37.281,-59.1414 41.4966,-47.8306 46,-38 48.8586,-31.7599 52.6086,-25.0099 55.644,-19.8199"/>
<polygon fill="#9a32cd" stroke="#9a32cd" points="30.6566,-67.567 30.7867,-78.161 37.2916,-69.7982 30.6566,-67.567"/>
<text text-anchor="middle" x="59.5" y="-46.5" font-family="Helvetica,sans-Serif" font-size="10.00"> Geod</text>
</g>
<!-- Node3 -->
<g id="node3" class="node"><title>Node3</title>
<g id="a_node3"><a xlink:href="structMeas.html" target="_top" xlink:title="Meas">
<polygon fill="white" stroke="black" points="74.5,-78.5 74.5,-97.5 115.5,-97.5 115.5,-78.5 74.5,-78.5"/>
<text text-anchor="middle" x="95" y="-85.5" font-family="Helvetica,sans-Serif" font-size="10.00">Meas</text>
</a>
</g>
</g>
<!-- Node3&#45;&gt;Node1 -->
<g id="edge2" class="edge"><title>Node3&#45;&gt;Node1</title>
<path fill="none" stroke="#9a32cd" stroke-dasharray="5,2" d="M87.0018,-69.1216C80.0265,-53.5297 70.2096,-31.5862 64.8547,-19.6165"/>
<polygon fill="#9a32cd" stroke="#9a32cd" points="83.8212,-70.5829 91.0998,-78.2818 90.2109,-67.7243 83.8212,-70.5829"/>
<text text-anchor="middle" x="91.5" y="-52" font-family="Helvetica,sans-Serif" font-size="10.00"> rng</text>
<text text-anchor="middle" x="91.5" y="-41" font-family="Helvetica,sans-Serif" font-size="10.00">ang</text>
</g>
</g>
</svg>
