<?xml version="1.0" encoding="UTF-8" standalone="no"?>
<!DOCTYPE svg PUBLIC "-//W3C//DTD SVG 1.1//EN"
 "http://www.w3.org/Graphics/SVG/1.1/DTD/svg11.dtd">
<!-- Generated by graphviz version 2.30.1 (20180420.1509)
 -->
<!-- Title: Deriv Pages: 1 -->
<svg width="444pt" height="218pt"
 viewBox="0.00 0.00 444.00 218.00" xmlns="http://www.w3.org/2000/svg" xmlns:xlink="http://www.w3.org/1999/xlink">
<g id="graph0" class="graph" transform="scale(1 1) rotate(0) translate(4 214)">
<title>Deriv</title>
<polygon fill="white" stroke="white" points="-4,5 -4,-214 441,-214 441,5 -4,5"/>
<!-- Node1 -->
<g id="node1" class="node"><title>Node1</title>
<polygon fill="#bfbfbf" stroke="black" points="0,-95.5 0,-114.5 40,-114.5 40,-95.5 0,-95.5"/>
<text text-anchor="middle" x="20" y="-102.5" font-family="Helvetica,sans-Serif" font-size="10.00">Deriv</text>
</g>
<!-- Node2 -->
<g id="node2" class="node"><title>Node2</title>
<g id="a_node2"><a xlink:href="classVector.html#ae58ec75ebd2a2d60775c2e0ee98a35ae" target="_top" xlink:title="Vector::slice">
<polygon fill="white" stroke="black" points="76.5,-133.5 76.5,-152.5 147.5,-152.5 147.5,-133.5 76.5,-133.5"/>
<text text-anchor="middle" x="112" y="-140.5" font-family="Helvetica,sans-Serif" font-size="10.00">Vector::slice</text>
</a>
</g>
</g>
<!-- Node1&#45;&gt;Node2 -->
<g id="edge1" class="edge"><title>Node1&#45;&gt;Node2</title>
<path fill="none" stroke="midnightblue" d="M40.0867,-113.059C51.353,-117.816 65.9066,-123.961 78.8949,-129.445"/>
<polygon fill="midnightblue" stroke="midnightblue" points="77.8677,-132.81 88.4416,-133.475 80.5906,-126.361 77.8677,-132.81"/>
</g>
<!-- Node3 -->
<g id="node3" class="node"><title>Node3</title>
<g id="a_node3"><a xlink:href="RTOD_8cpp.html#ad928b0e88089fe577162bad47f911adf" target="_top" xlink:title="Accel">
<polygon fill="white" stroke="black" points="91.5,-95.5 91.5,-114.5 132.5,-114.5 132.5,-95.5 91.5,-95.5"/>
<text text-anchor="middle" x="112" y="-102.5" font-family="Helvetica,sans-Serif" font-size="10.00">Accel</text>
</a>
</g>
</g>
<!-- Node1&#45;&gt;Node3 -->
<g id="edge2" class="edge"><title>Node1&#45;&gt;Node3</title>
<path fill="none" stroke="midnightblue" d="M40.0867,-105C51.9754,-105 67.5247,-105 81.0324,-105"/>
<polygon fill="midnightblue" stroke="midnightblue" points="81.3187,-108.5 91.3187,-105 81.3186,-101.5 81.3187,-108.5"/>
</g>
<!-- Node14 -->
<g id="node14" class="node"><title>Node14</title>
<g id="a_node14"><a xlink:href="SAT__VecMat_8cpp.html#ad3352c6f838a6a97403bc6f2d6bda5df" target="_top" xlink:title="Stack">
<polygon fill="white" stroke="black" points="91,-38.5 91,-57.5 133,-57.5 133,-38.5 91,-38.5"/>
<text text-anchor="middle" x="112" y="-45.5" font-family="Helvetica,sans-Serif" font-size="10.00">Stack</text>
</a>
</g>
</g>
<!-- Node1&#45;&gt;Node14 -->
<g id="edge14" class="edge"><title>Node1&#45;&gt;Node14</title>
<path fill="none" stroke="midnightblue" d="M36.2673,-95.3307C50.1858,-86.5157 70.9732,-73.3503 87.0934,-63.1408"/>
<polygon fill="midnightblue" stroke="midnightblue" points="89.3827,-65.8339 95.9582,-57.5265 85.6373,-59.9202 89.3827,-65.8339"/>
</g>
<!-- Node4 -->
<g id="node4" class="node"><title>Node4</title>
<g id="a_node4"><a xlink:href="classIERS.html#a2601a074a58e3c470db336bc1aea6791" target="_top" xlink:title="IERS::UT1_UTC">
<polygon fill="white" stroke="black" points="185,-190.5 185,-209.5 277,-209.5 277,-190.5 185,-190.5"/>
<text text-anchor="middle" x="231" y="-197.5" font-family="Helvetica,sans-Serif" font-size="10.00">IERS::UT1_UTC</text>
</a>
</g>
</g>
<!-- Node3&#45;&gt;Node4 -->
<g id="edge3" class="edge"><title>Node3&#45;&gt;Node4</title>
<path fill="none" stroke="midnightblue" d="M132.697,-113.436C138.034,-116.297 143.558,-119.842 148,-124 169.874,-144.477 161.075,-161.707 184,-181 185.967,-182.655 188.098,-184.182 190.328,-185.589"/>
<polygon fill="midnightblue" stroke="midnightblue" points="188.824,-188.755 199.286,-190.431 192.153,-182.597 188.824,-188.755"/>
</g>
<!-- Node7 -->
<g id="node7" class="node"><title>Node7</title>
<g id="a_node7"><a xlink:href="classIERS.html#a79c2d9fcfafe0c0d8cee4545e17af0f3" target="_top" xlink:title="IERS::GPS_UTC">
<polygon fill="white" stroke="black" points="184,-152.5 184,-171.5 278,-171.5 278,-152.5 184,-152.5"/>
<text text-anchor="middle" x="231" y="-159.5" font-family="Helvetica,sans-Serif" font-size="10.00">IERS::GPS_UTC</text>
</a>
</g>
</g>
<!-- Node3&#45;&gt;Node7 -->
<g id="edge6" class="edge"><title>Node3&#45;&gt;Node7</title>
<path fill="none" stroke="midnightblue" d="M130.864,-114.681C150.117,-125.095 178.723,-140.506 184,-143 187.867,-144.828 191.958,-146.659 196.043,-148.424"/>
<polygon fill="midnightblue" stroke="midnightblue" points="194.877,-151.731 205.451,-152.39 197.596,-145.281 194.877,-151.731"/>
</g>
<!-- Node8 -->
<g id="node8" class="node"><title>Node8</title>
<g id="a_node8"><a xlink:href="SAT__VecMat_8cpp.html#a94c9c4e1f3afc6636dda6572f72ef4c2" target="_top" xlink:title="R_z">
<polygon fill="white" stroke="black" points="213.5,-114.5 213.5,-133.5 248.5,-133.5 248.5,-114.5 213.5,-114.5"/>
<text text-anchor="middle" x="231" y="-121.5" font-family="Helvetica,sans-Serif" font-size="10.00">R_z</text>
</a>
</g>
</g>
<!-- Node3&#45;&gt;Node8 -->
<g id="edge8" class="edge"><title>Node3&#45;&gt;Node8</title>
<path fill="none" stroke="midnightblue" d="M132.583,-108.18C151.95,-111.325 181.73,-116.161 203.266,-119.659"/>
<polygon fill="midnightblue" stroke="midnightblue" points="202.954,-123.154 213.386,-121.302 204.077,-116.244 202.954,-123.154"/>
</g>
<!-- Node9 -->
<g id="node9" class="node"><title>Node9</title>
<g id="a_node9"><a xlink:href="SAT__RefSys_8cpp.html#a2a4cc14aa92a1449e08540255af19f8e" target="_top" xlink:title="GMST">
<polygon fill="white" stroke="black" points="208.5,-76.5 208.5,-95.5 253.5,-95.5 253.5,-76.5 208.5,-76.5"/>
<text text-anchor="middle" x="231" y="-83.5" font-family="Helvetica,sans-Serif" font-size="10.00">GMST</text>
</a>
</g>
</g>
<!-- Node3&#45;&gt;Node9 -->
<g id="edge9" class="edge"><title>Node3&#45;&gt;Node9</title>
<path fill="none" stroke="midnightblue" d="M132.583,-101.82C150.503,-98.9098 177.338,-94.5519 198.309,-91.1464"/>
<polygon fill="midnightblue" stroke="midnightblue" points="199.055,-94.5712 208.365,-89.5134 197.933,-87.6617 199.055,-94.5712"/>
</g>
<!-- Node11 -->
<g id="node11" class="node"><title>Node11</title>
<g id="a_node11"><a xlink:href="SAT__Force_8cpp.html#a35b54a3eda29b936098b3cc869d6c381" target="_top" xlink:title="AccelHarmonic">
<polygon fill="white" stroke="black" points="189.5,-38.5 189.5,-57.5 272.5,-57.5 272.5,-38.5 189.5,-38.5"/>
<text text-anchor="middle" x="231" y="-45.5" font-family="Helvetica,sans-Serif" font-size="10.00">AccelHarmonic</text>
</a>
</g>
</g>
<!-- Node3&#45;&gt;Node11 -->
<g id="edge11" class="edge"><title>Node3&#45;&gt;Node11</title>
<path fill="none" stroke="midnightblue" d="M129.686,-95.4598C143.923,-87.468 165.04,-75.962 184,-67 187.867,-65.1722 191.958,-63.3409 196.043,-61.5757"/>
<polygon fill="midnightblue" stroke="midnightblue" points="197.596,-64.7193 205.451,-57.6099 194.877,-58.2688 197.596,-64.7193"/>
</g>
<!-- Node5 -->
<g id="node5" class="node"><title>Node5</title>
<g id="a_node5"><a xlink:href="classIERS.html#acfce0b1a43896fed7b1bf9cefe3baebd" target="_top" xlink:title="IERS::UT1_TAI">
<polygon fill="white" stroke="black" points="332,-190.5 332,-209.5 418,-209.5 418,-190.5 332,-190.5"/>
<text text-anchor="middle" x="375" y="-197.5" font-family="Helvetica,sans-Serif" font-size="10.00">IERS::UT1_TAI</text>
</a>
</g>
</g>
<!-- Node4&#45;&gt;Node5 -->
<g id="edge4" class="edge"><title>Node4&#45;&gt;Node5</title>
<path fill="none" stroke="midnightblue" d="M277.32,-200C291.297,-200 306.809,-200 321.242,-200"/>
<polygon fill="midnightblue" stroke="midnightblue" points="321.523,-203.5 331.523,-200 321.523,-196.5 321.523,-203.5"/>
</g>
<!-- Node6 -->
<g id="node6" class="node"><title>Node6</title>
<g id="a_node6"><a xlink:href="classIERS.html#ad872e267797cb8d5be328b236287565f" target="_top" xlink:title="IERS::UTC_TAI">
<polygon fill="white" stroke="black" points="330.5,-152.5 330.5,-171.5 419.5,-171.5 419.5,-152.5 330.5,-152.5"/>
<text text-anchor="middle" x="375" y="-159.5" font-family="Helvetica,sans-Serif" font-size="10.00">IERS::UTC_TAI</text>
</a>
</g>
</g>
<!-- Node4&#45;&gt;Node6 -->
<g id="edge5" class="edge"><title>Node4&#45;&gt;Node6</title>
<path fill="none" stroke="midnightblue" d="M267.833,-190.411C286.163,-185.506 308.678,-179.48 328.25,-174.243"/>
<polygon fill="midnightblue" stroke="midnightblue" points="329.424,-177.552 338.179,-171.586 327.614,-170.79 329.424,-177.552"/>
</g>
<!-- Node7&#45;&gt;Node6 -->
<g id="edge7" class="edge"><title>Node7&#45;&gt;Node6</title>
<path fill="none" stroke="midnightblue" d="M278.103,-162C291.397,-162 306.024,-162 319.763,-162"/>
<polygon fill="midnightblue" stroke="midnightblue" points="320.059,-165.5 330.059,-162 320.059,-158.5 320.059,-165.5"/>
</g>
<!-- Node10 -->
<g id="node10" class="node"><title>Node10</title>
<g id="a_node10"><a xlink:href="namespaceanonymous__namespace_02SAT__Force_8cpp_03.html#aa6826b33621fa6ff5736c6432c487c1a" target="_top" xlink:title="anonymous_namespace\l\{SAT_Force::cpp\}::Frac">
<polygon fill="white" stroke="black" points="314,-77 314,-107 436,-107 436,-77 314,-77"/>
<text text-anchor="start" x="322" y="-95" font-family="Helvetica,sans-Serif" font-size="10.00">anonymous_namespace</text>
<text text-anchor="middle" x="375" y="-84" font-family="Helvetica,sans-Serif" font-size="10.00">{SAT_Force::cpp}::Frac</text>
</a>
</g>
</g>
<!-- Node9&#45;&gt;Node10 -->
<g id="edge10" class="edge"><title>Node9&#45;&gt;Node10</title>
<path fill="none" stroke="midnightblue" d="M253.567,-86.9113C267.118,-87.4838 285.438,-88.2579 303.697,-89.0294"/>
<polygon fill="midnightblue" stroke="midnightblue" points="303.664,-92.5311 313.803,-89.4565 303.96,-85.5373 303.664,-92.5311"/>
</g>
<!-- Node12 -->
<g id="node12" class="node"><title>Node12</title>
<g id="a_node12"><a xlink:href="SAT__VecMat_8cpp.html#a71375a6ebee7fc40c1d45985175d82e5" target="_top" xlink:title="Dot">
<polygon fill="white" stroke="black" points="359,-38.5 359,-57.5 391,-57.5 391,-38.5 359,-38.5"/>
<text text-anchor="middle" x="375" y="-45.5" font-family="Helvetica,sans-Serif" font-size="10.00">Dot</text>
</a>
</g>
</g>
<!-- Node11&#45;&gt;Node12 -->
<g id="edge12" class="edge"><title>Node11&#45;&gt;Node12</title>
<path fill="none" stroke="midnightblue" d="M272.692,-48C297.257,-48 327.783,-48 348.87,-48"/>
<polygon fill="midnightblue" stroke="midnightblue" points="348.955,-51.5001 358.955,-48 348.955,-44.5001 348.955,-51.5001"/>
</g>
<!-- Node13 -->
<g id="node13" class="node"><title>Node13</title>
<g id="a_node13"><a xlink:href="SAT__VecMat_8cpp.html#aa54829a0c63c78e6bfbd12285ad94075" target="_top" xlink:title="Transp">
<polygon fill="white" stroke="black" points="351.5,-0.5 351.5,-19.5 398.5,-19.5 398.5,-0.5 351.5,-0.5"/>
<text text-anchor="middle" x="375" y="-7.5" font-family="Helvetica,sans-Serif" font-size="10.00">Transp</text>
</a>
</g>
</g>
<!-- Node11&#45;&gt;Node13 -->
<g id="edge13" class="edge"><title>Node11&#45;&gt;Node13</title>
<path fill="none" stroke="midnightblue" d="M267.833,-38.411C290.53,-32.3372 319.641,-24.5468 341.638,-18.6603"/>
<polygon fill="midnightblue" stroke="midnightblue" points="342.744,-21.9874 351.5,-16.0212 340.935,-15.2253 342.744,-21.9874"/>
</g>
<!-- Node15 -->
<g id="node15" class="node"><title>Node15</title>
<g id="a_node15"><a xlink:href="classVector.html#a3c8f59182463d6da833e7856f06e6171" target="_top" xlink:title="Vector::size">
<polygon fill="white" stroke="black" points="196.5,-0.5 196.5,-19.5 265.5,-19.5 265.5,-0.5 196.5,-0.5"/>
<text text-anchor="middle" x="231" y="-7.5" font-family="Helvetica,sans-Serif" font-size="10.00">Vector::size</text>
</a>
</g>
</g>
<!-- Node14&#45;&gt;Node15 -->
<g id="edge15" class="edge"><title>Node14&#45;&gt;Node15</title>
<path fill="none" stroke="midnightblue" d="M133.113,-41.4676C148.914,-36.3356 171.405,-29.0309 190.74,-22.7511"/>
<polygon fill="midnightblue" stroke="midnightblue" points="192.082,-25.9954 200.511,-19.5775 189.919,-19.3378 192.082,-25.9954"/>
</g>
</g>
</svg>
