<?xml version="1.0" encoding="UTF-8" standalone="no"?>
<!DOCTYPE svg PUBLIC "-//W3C//DTD SVG 1.1//EN"
 "http://www.w3.org/Graphics/SVG/1.1/DTD/svg11.dtd">
<!-- Generated by graphviz version 2.30.1 (20180420.1509)
 -->
<!-- Title: Accel Pages: 1 -->
<svg width="854pt" height="655pt"
 viewBox="0.00 0.00 854.00 655.33" xmlns="http://www.w3.org/2000/svg" xmlns:xlink="http://www.w3.org/1999/xlink">
<g id="graph0" class="graph" transform="scale(1 1) rotate(0) translate(4 651.332)">
<title>Accel</title>
<polygon fill="white" stroke="white" points="-4,5 -4,-651.332 851,-651.332 851,5 -4,5"/>
<!-- Node1 -->
<g id="node1" class="node"><title>Node1</title>
<polygon fill="#bfbfbf" stroke="black" points="0.5,-304.832 0.5,-323.832 41.5,-323.832 41.5,-304.832 0.5,-304.832"/>
<text text-anchor="middle" x="21" y="-311.832" font-family="Helvetica,sans-Serif" font-size="10.00">Accel</text>
</g>
<!-- Node2 -->
<g id="node2" class="node"><title>Node2</title>
<g id="a_node2"><a xlink:href="classIERS.html#a2601a074a58e3c470db336bc1aea6791" target="_top" xlink:title="IERS::UT1_UTC">
<polygon fill="white" stroke="black" points="78,-589.832 78,-608.832 170,-608.832 170,-589.832 78,-589.832"/>
<text text-anchor="middle" x="124" y="-596.832" font-family="Helvetica,sans-Serif" font-size="10.00">IERS::UT1_UTC</text>
</a>
</g>
</g>
<!-- Node1&#45;&gt;Node2 -->
<g id="edge1" class="edge"><title>Node1&#45;&gt;Node2</title>
<path fill="none" stroke="midnightblue" d="M21.5421,-324.261C20.355,-360.816 20.6151,-489.986 78,-571.332 81.5339,-576.341 86.2763,-580.639 91.3588,-584.258"/>
<polygon fill="midnightblue" stroke="midnightblue" points="89.7454,-587.377 100.08,-589.71 93.4563,-581.441 89.7454,-587.377"/>
</g>
<!-- Node5 -->
<g id="node5" class="node"><title>Node5</title>
<g id="a_node5"><a xlink:href="classIERS.html#abe17029c05804e5886ae14eae119c0f1" target="_top" xlink:title="IERS::TT_UTC">
<polygon fill="white" stroke="black" points="81.5,-542.832 81.5,-561.832 166.5,-561.832 166.5,-542.832 81.5,-542.832"/>
<text text-anchor="middle" x="124" y="-549.832" font-family="Helvetica,sans-Serif" font-size="10.00">IERS::TT_UTC</text>
</a>
</g>
</g>
<!-- Node1&#45;&gt;Node5 -->
<g id="edge4" class="edge"><title>Node1&#45;&gt;Node5</title>
<path fill="none" stroke="midnightblue" d="M22.6942,-323.896C25.2819,-354.172 36.4725,-449.724 78,-514.332 83.522,-522.923 91.5846,-530.594 99.365,-536.756"/>
<polygon fill="midnightblue" stroke="midnightblue" points="97.4426,-539.687 107.563,-542.822 101.606,-534.06 97.4426,-539.687"/>
</g>
<!-- Node6 -->
<g id="node6" class="node"><title>Node6</title>
<g id="a_node6"><a xlink:href="SAT__RefSys_8cpp.html#a35e586a324741da54bc1e407a5586378" target="_top" xlink:title="NutMatrix">
<polygon fill="white" stroke="black" points="94.5,-399.832 94.5,-418.832 153.5,-418.832 153.5,-399.832 94.5,-399.832"/>
<text text-anchor="middle" x="124" y="-406.832" font-family="Helvetica,sans-Serif" font-size="10.00">NutMatrix</text>
</a>
</g>
</g>
<!-- Node1&#45;&gt;Node6 -->
<g id="edge6" class="edge"><title>Node1&#45;&gt;Node6</title>
<path fill="none" stroke="midnightblue" d="M32.4284,-324.14C49.6793,-340.367 84.3417,-372.97 105.427,-392.803"/>
<polygon fill="midnightblue" stroke="midnightblue" points="103.097,-395.416 112.779,-399.718 107.893,-390.317 103.097,-395.416"/>
</g>
<!-- Node14 -->
<g id="node14" class="node"><title>Node14</title>
<g id="a_node14"><a xlink:href="SAT__RefSys_8cpp.html#abc2e56e609b82264ae010497b21dcba0" target="_top" xlink:title="PrecMatrix">
<polygon fill="white" stroke="black" points="92,-447.832 92,-466.832 156,-466.832 156,-447.832 92,-447.832"/>
<text text-anchor="middle" x="124" y="-454.832" font-family="Helvetica,sans-Serif" font-size="10.00">PrecMatrix</text>
</a>
</g>
</g>
<!-- Node1&#45;&gt;Node14 -->
<g id="edge14" class="edge"><title>Node1&#45;&gt;Node14</title>
<path fill="none" stroke="midnightblue" d="M24.7526,-323.896C31.167,-344.851 48.82,-395.559 78,-428.332 82.7339,-433.648 88.6634,-438.38 94.6492,-442.4"/>
<polygon fill="midnightblue" stroke="midnightblue" points="92.9809,-445.483 103.327,-447.766 96.6628,-439.53 92.9809,-445.483"/>
</g>
<!-- Node16 -->
<g id="node16" class="node"><title>Node16</title>
<g id="a_node16"><a xlink:href="SAT__RefSys_8cpp.html#a9699d3dfbd482534e86059e5613f8b8c" target="_top" xlink:title="GHAMatrix">
<polygon fill="white" stroke="black" points="91.5,-485.832 91.5,-504.832 156.5,-504.832 156.5,-485.832 91.5,-485.832"/>
<text text-anchor="middle" x="124" y="-492.832" font-family="Helvetica,sans-Serif" font-size="10.00">GHAMatrix</text>
</a>
</g>
</g>
<!-- Node1&#45;&gt;Node16 -->
<g id="edge17" class="edge"><title>Node1&#45;&gt;Node16</title>
<path fill="none" stroke="midnightblue" d="M22.6733,-324.115C25.0742,-351.678 35.5128,-430.912 78,-476.332 79.3904,-477.818 80.9156,-479.193 82.5381,-480.463"/>
<polygon fill="midnightblue" stroke="midnightblue" points="80.9639,-483.609 91.2879,-485.989 84.7015,-477.69 80.9639,-483.609"/>
</g>
<!-- Node20 -->
<g id="node20" class="node"><title>Node20</title>
<g id="a_node20"><a xlink:href="SAT__Force_8cpp.html#a35b54a3eda29b936098b3cc869d6c381" target="_top" xlink:title="AccelHarmonic">
<polygon fill="white" stroke="black" points="82.5,-19.8316 82.5,-38.8316 165.5,-38.8316 165.5,-19.8316 82.5,-19.8316"/>
<text text-anchor="middle" x="124" y="-26.8316" font-family="Helvetica,sans-Serif" font-size="10.00">AccelHarmonic</text>
</a>
</g>
</g>
<!-- Node1&#45;&gt;Node20 -->
<g id="edge26" class="edge"><title>Node1&#45;&gt;Node20</title>
<path fill="none" stroke="midnightblue" d="M22.0519,-304.557C22.6605,-269.648 28.4334,-148.862 78,-67.3316 83.2272,-58.7334 91.0851,-51.1305 98.7788,-45.0282"/>
<polygon fill="midnightblue" stroke="midnightblue" points="100.958,-47.7702 106.931,-39.0195 96.8043,-42.1356 100.958,-47.7702"/>
</g>
<!-- Node23 -->
<g id="node23" class="node"><title>Node23</title>
<g id="a_node23"><a xlink:href="SAT__Force_8cpp.html#a2de08a6e83f5eff12db59b0616ad7f2c" target="_top" xlink:title="Sun">
<polygon fill="white" stroke="black" points="350,-285.832 350,-304.832 384,-304.832 384,-285.832 350,-285.832"/>
<text text-anchor="middle" x="367" y="-292.832" font-family="Helvetica,sans-Serif" font-size="10.00">Sun</text>
</a>
</g>
</g>
<!-- Node1&#45;&gt;Node23 -->
<g id="edge29" class="edge"><title>Node1&#45;&gt;Node23</title>
<path fill="none" stroke="midnightblue" d="M41.7305,-313.242C100.288,-310.008 273.13,-300.461 339.569,-296.791"/>
<polygon fill="midnightblue" stroke="midnightblue" points="339.846,-300.282 349.637,-296.235 339.46,-293.292 339.846,-300.282"/>
</g>
<!-- Node24 -->
<g id="node24" class="node"><title>Node24</title>
<g id="a_node24"><a xlink:href="SAT__Force_8cpp.html#a787c7d05ba9e7f29d236caf719ff7900" target="_top" xlink:title="Moon">
<polygon fill="white" stroke="black" points="346.5,-361.832 346.5,-380.832 387.5,-380.832 387.5,-361.832 346.5,-361.832"/>
<text text-anchor="middle" x="367" y="-368.832" font-family="Helvetica,sans-Serif" font-size="10.00">Moon</text>
</a>
</g>
</g>
<!-- Node1&#45;&gt;Node24 -->
<g id="edge32" class="edge"><title>Node1&#45;&gt;Node24</title>
<path fill="none" stroke="midnightblue" d="M41.7305,-317.601C99.3243,-327.144 267.474,-355.006 336.204,-366.395"/>
<polygon fill="midnightblue" stroke="midnightblue" points="335.912,-369.894 346.349,-368.076 337.056,-362.988 335.912,-369.894"/>
</g>
<!-- Node25 -->
<g id="node25" class="node"><title>Node25</title>
<g id="a_node25"><a xlink:href="SAT__Force_8cpp.html#a4db2f0789d2dccce991342a00f1ad75d" target="_top" xlink:title="AccelPointMass">
<polygon fill="white" stroke="black" points="80,-76.8316 80,-95.8316 168,-95.8316 168,-76.8316 80,-76.8316"/>
<text text-anchor="middle" x="124" y="-83.8316" font-family="Helvetica,sans-Serif" font-size="10.00">AccelPointMass</text>
</a>
</g>
</g>
<!-- Node1&#45;&gt;Node25 -->
<g id="edge36" class="edge"><title>Node1&#45;&gt;Node25</title>
<path fill="none" stroke="midnightblue" d="M22.9074,-304.416C26.0183,-274.77 38.3516,-185.102 78,-124.332 83.5803,-115.778 91.6558,-108.115 99.4301,-101.949"/>
<polygon fill="midnightblue" stroke="midnightblue" points="101.671,-104.645 107.616,-95.8753 97.4993,-99.0237 101.671,-104.645"/>
</g>
<!-- Node27 -->
<g id="node27" class="node"><title>Node27</title>
<g id="a_node27"><a xlink:href="SAT__Force_8cpp.html#ab05039f4d20345bbf7b463449ecaef11" target="_top" xlink:title="Illumination">
<polygon fill="white" stroke="black" points="218,-209.832 218,-228.832 284,-228.832 284,-209.832 218,-209.832"/>
<text text-anchor="middle" x="251" y="-216.832" font-family="Helvetica,sans-Serif" font-size="10.00">Illumination</text>
</a>
</g>
</g>
<!-- Node1&#45;&gt;Node27 -->
<g id="edge39" class="edge"><title>Node1&#45;&gt;Node27</title>
<path fill="none" stroke="midnightblue" d="M36.7965,-304.582C47.8531,-297.554 63.4968,-288.146 78,-281.332 121.013,-261.122 172.546,-243.345 207.92,-232.067"/>
<polygon fill="midnightblue" stroke="midnightblue" points="209.415,-235.266 217.9,-228.921 207.311,-228.59 209.415,-235.266"/>
</g>
<!-- Node28 -->
<g id="node28" class="node"><title>Node28</title>
<g id="a_node28"><a xlink:href="SAT__Force_8cpp.html#a871f302ecd9687d7bee13583c15b0f31" target="_top" xlink:title="AccelSolrad">
<polygon fill="white" stroke="black" points="89.5,-180.832 89.5,-199.832 158.5,-199.832 158.5,-180.832 89.5,-180.832"/>
<text text-anchor="middle" x="124" y="-187.832" font-family="Helvetica,sans-Serif" font-size="10.00">AccelSolrad</text>
</a>
</g>
</g>
<!-- Node1&#45;&gt;Node28 -->
<g id="edge42" class="edge"><title>Node1&#45;&gt;Node28</title>
<path fill="none" stroke="midnightblue" d="M26.5451,-304.618C34.9938,-287.219 54.4188,-250.148 78,-224.332 84.1703,-217.576 91.8313,-211.223 99.0727,-205.878"/>
<polygon fill="midnightblue" stroke="midnightblue" points="101.109,-208.725 107.266,-200.103 97.0761,-203.003 101.109,-208.725"/>
</g>
<!-- Node29 -->
<g id="node29" class="node"><title>Node29</title>
<g id="a_node29"><a xlink:href="SAT__Force_8cpp.html#ae20f51bcb69607d4a2268329837260f2" target="_top" xlink:title="AccelDrag">
<polygon fill="white" stroke="black" points="93,-133.832 93,-152.832 155,-152.832 155,-133.832 93,-133.832"/>
<text text-anchor="middle" x="124" y="-140.832" font-family="Helvetica,sans-Serif" font-size="10.00">AccelDrag</text>
</a>
</g>
</g>
<!-- Node1&#45;&gt;Node29 -->
<g id="edge44" class="edge"><title>Node1&#45;&gt;Node29</title>
<path fill="none" stroke="midnightblue" d="M23.621,-304.57C28.1653,-279.775 43.0518,-213.356 78,-171.332 82.1699,-166.317 87.48,-161.933 92.9795,-158.215"/>
<polygon fill="midnightblue" stroke="midnightblue" points="94.931,-161.124 101.641,-152.925 91.2822,-155.151 94.931,-161.124"/>
</g>
<!-- Node3 -->
<g id="node3" class="node"><title>Node3</title>
<g id="a_node3"><a xlink:href="classIERS.html#acfce0b1a43896fed7b1bf9cefe3baebd" target="_top" xlink:title="IERS::UT1_TAI">
<polygon fill="white" stroke="black" points="208,-627.832 208,-646.832 294,-646.832 294,-627.832 208,-627.832"/>
<text text-anchor="middle" x="251" y="-634.832" font-family="Helvetica,sans-Serif" font-size="10.00">IERS::UT1_TAI</text>
</a>
</g>
</g>
<!-- Node2&#45;&gt;Node3 -->
<g id="edge2" class="edge"><title>Node2&#45;&gt;Node3</title>
<path fill="none" stroke="midnightblue" d="M156.543,-608.921C172.383,-613.736 191.773,-619.63 208.776,-624.8"/>
<polygon fill="midnightblue" stroke="midnightblue" points="207.882,-628.186 218.467,-627.746 209.918,-621.488 207.882,-628.186"/>
</g>
<!-- Node4 -->
<g id="node4" class="node"><title>Node4</title>
<g id="a_node4"><a xlink:href="classIERS.html#ad872e267797cb8d5be328b236287565f" target="_top" xlink:title="IERS::UTC_TAI">
<polygon fill="white" stroke="black" points="206.5,-589.832 206.5,-608.832 295.5,-608.832 295.5,-589.832 206.5,-589.832"/>
<text text-anchor="middle" x="251" y="-596.832" font-family="Helvetica,sans-Serif" font-size="10.00">IERS::UTC_TAI</text>
</a>
</g>
</g>
<!-- Node2&#45;&gt;Node4 -->
<g id="edge3" class="edge"><title>Node2&#45;&gt;Node4</title>
<path fill="none" stroke="midnightblue" d="M170.128,-599.332C178.572,-599.332 187.476,-599.332 196.153,-599.332"/>
<polygon fill="midnightblue" stroke="midnightblue" points="196.193,-602.832 206.193,-599.332 196.193,-595.832 196.193,-602.832"/>
</g>
<!-- Node5&#45;&gt;Node4 -->
<g id="edge5" class="edge"><title>Node5&#45;&gt;Node4</title>
<path fill="none" stroke="midnightblue" d="M150.296,-561.843C168.81,-568.804 194.173,-578.341 214.685,-586.053"/>
<polygon fill="midnightblue" stroke="midnightblue" points="213.721,-589.43 224.313,-589.673 216.185,-582.878 213.721,-589.43"/>
</g>
<!-- Node7 -->
<g id="node7" class="node"><title>Node7</title>
<g id="a_node7"><a xlink:href="SAT__RefSys_8cpp.html#a11f057ac4e8a0c5a7958f77379e30d40" target="_top" xlink:title="MeanObliquity">
<polygon fill="white" stroke="black" points="438.5,-475.832 438.5,-494.832 517.5,-494.832 517.5,-475.832 438.5,-475.832"/>
<text text-anchor="middle" x="478" y="-482.832" font-family="Helvetica,sans-Serif" font-size="10.00">MeanObliquity</text>
</a>
</g>
</g>
<!-- Node6&#45;&gt;Node7 -->
<g id="edge7" class="edge"><title>Node6&#45;&gt;Node7</title>
<path fill="none" stroke="midnightblue" d="M153.677,-418.268C169.086,-422.868 188.469,-428.334 206,-432.332 292.199,-451.989 315.529,-447.907 402,-466.332 411.653,-468.388 421.943,-470.83 431.709,-473.265"/>
<polygon fill="midnightblue" stroke="midnightblue" points="431.096,-476.72 441.649,-475.785 432.816,-469.935 431.096,-476.72"/>
</g>
<!-- Node8 -->
<g id="node8" class="node"><title>Node8</title>
<g id="a_node8"><a xlink:href="SAT__RefSys_8cpp.html#a2a9df90e79156b20bf667ae56342d756" target="_top" xlink:title="NutAngles">
<polygon fill="white" stroke="black" points="447,-437.832 447,-456.832 509,-456.832 509,-437.832 447,-437.832"/>
<text text-anchor="middle" x="478" y="-444.832" font-family="Helvetica,sans-Serif" font-size="10.00">NutAngles</text>
</a>
</g>
</g>
<!-- Node6&#45;&gt;Node8 -->
<g id="edge8" class="edge"><title>Node6&#45;&gt;Node8</title>
<path fill="none" stroke="midnightblue" d="M153.814,-410.894C204.273,-413.838 311.844,-421.042 402,-433.332 413.355,-434.879 425.6,-436.98 436.838,-439.083"/>
<polygon fill="midnightblue" stroke="midnightblue" points="436.34,-442.551 446.821,-440.999 437.66,-435.677 436.34,-442.551"/>
</g>
<!-- Node12 -->
<g id="node12" class="node"><title>Node12</title>
<g id="a_node12"><a xlink:href="SAT__VecMat_8cpp.html#ae452267b1d1da6280386846d97ec4e4f" target="_top" xlink:title="R_x">
<polygon fill="white" stroke="black" points="460.5,-323.832 460.5,-342.832 495.5,-342.832 495.5,-323.832 460.5,-323.832"/>
<text text-anchor="middle" x="478" y="-330.832" font-family="Helvetica,sans-Serif" font-size="10.00">R_x</text>
</a>
</g>
</g>
<!-- Node6&#45;&gt;Node12 -->
<g id="edge12" class="edge"><title>Node6&#45;&gt;Node12</title>
<path fill="none" stroke="midnightblue" d="M153.833,-400.027C193.552,-387.524 267.514,-365.37 332,-352.332 372.823,-344.078 420.867,-338.6 450.115,-335.73"/>
<polygon fill="midnightblue" stroke="midnightblue" points="450.726,-339.188 460.35,-334.757 450.064,-332.219 450.726,-339.188"/>
</g>
<!-- Node13 -->
<g id="node13" class="node"><title>Node13</title>
<g id="a_node13"><a xlink:href="SAT__VecMat_8cpp.html#a94c9c4e1f3afc6636dda6572f72ef4c2" target="_top" xlink:title="R_z">
<polygon fill="white" stroke="black" points="233.5,-475.832 233.5,-494.832 268.5,-494.832 268.5,-475.832 233.5,-475.832"/>
<text text-anchor="middle" x="251" y="-482.832" font-family="Helvetica,sans-Serif" font-size="10.00">R_z</text>
</a>
</g>
</g>
<!-- Node6&#45;&gt;Node13 -->
<g id="edge13" class="edge"><title>Node6&#45;&gt;Node13</title>
<path fill="none" stroke="midnightblue" d="M139.833,-418.893C162.295,-433.366 202.694,-459.372 206,-461.332 211.796,-464.767 218.112,-468.32 224.103,-471.605"/>
<polygon fill="midnightblue" stroke="midnightblue" points="222.667,-474.808 233.127,-476.492 226,-468.653 222.667,-474.808"/>
</g>
<!-- Node9 -->
<g id="node9" class="node"><title>Node9</title>
<g id="a_node9"><a xlink:href="namespaceanonymous__namespace_02SAT__Kepler_8cpp_03.html#a898091d856dff0d563448625b7634f16" target="_top" xlink:title="anonymous_namespace\l\{SAT_Kepler::cpp\}::F">
<polygon fill="white" stroke="black" points="560,-400.332 560,-430.332 682,-430.332 682,-400.332 560,-400.332"/>
<text text-anchor="start" x="568" y="-418.332" font-family="Helvetica,sans-Serif" font-size="10.00">anonymous_namespace</text>
<text text-anchor="middle" x="621" y="-407.332" font-family="Helvetica,sans-Serif" font-size="10.00">{SAT_Kepler::cpp}::F</text>
</a>
</g>
</g>
<!-- Node8&#45;&gt;Node9 -->
<g id="edge9" class="edge"><title>Node8&#45;&gt;Node9</title>
<path fill="none" stroke="midnightblue" d="M509.248,-440.467C521.28,-437.736 535.663,-434.472 550.019,-431.214"/>
<polygon fill="midnightblue" stroke="midnightblue" points="550.946,-434.593 559.923,-428.966 549.396,-427.766 550.946,-434.593"/>
</g>
<!-- Node10 -->
<g id="node10" class="node"><title>Node10</title>
<g id="a_node10"><a xlink:href="namespaceanonymous__namespace_02SAT__Kepler_8cpp_03.html#ae5d42531d691a174363f296c22d23217" target="_top" xlink:title="anonymous_namespace\l\{SAT_Kepler::cpp\}::Modulo">
<polygon fill="white" stroke="black" points="554,-449.332 554,-479.332 688,-479.332 688,-449.332 554,-449.332"/>
<text text-anchor="start" x="562" y="-467.332" font-family="Helvetica,sans-Serif" font-size="10.00">anonymous_namespace</text>
<text text-anchor="middle" x="621" y="-456.332" font-family="Helvetica,sans-Serif" font-size="10.00">{SAT_Kepler::cpp}::Modulo</text>
</a>
</g>
</g>
<!-- Node8&#45;&gt;Node10 -->
<g id="edge10" class="edge"><title>Node8&#45;&gt;Node10</title>
<path fill="none" stroke="midnightblue" d="M509.248,-450.979C519.489,-452.213 531.435,-453.654 543.616,-455.122"/>
<polygon fill="midnightblue" stroke="midnightblue" points="543.525,-458.636 553.872,-456.359 544.363,-451.687 543.525,-458.636"/>
</g>
<!-- Node11 -->
<g id="node11" class="node"><title>Node11</title>
<g id="a_node11"><a xlink:href="namespaceanonymous__namespace_02SAT__Force_8cpp_03.html#aa6826b33621fa6ff5736c6432c487c1a" target="_top" xlink:title="anonymous_namespace\l\{SAT_Force::cpp\}::Frac">
<polygon fill="white" stroke="black" points="724,-402.332 724,-432.332 846,-432.332 846,-402.332 724,-402.332"/>
<text text-anchor="start" x="732" y="-420.332" font-family="Helvetica,sans-Serif" font-size="10.00">anonymous_namespace</text>
<text text-anchor="middle" x="785" y="-409.332" font-family="Helvetica,sans-Serif" font-size="10.00">{SAT_Force::cpp}::Frac</text>
</a>
</g>
</g>
<!-- Node10&#45;&gt;Node11 -->
<g id="edge11" class="edge"><title>Node10&#45;&gt;Node11</title>
<path fill="none" stroke="midnightblue" d="M673.703,-449.331C689.193,-444.837 706.335,-439.864 722.396,-435.204"/>
<polygon fill="midnightblue" stroke="midnightblue" points="723.604,-438.498 732.232,-432.351 721.653,-431.776 723.604,-438.498"/>
</g>
<!-- Node14&#45;&gt;Node13 -->
<g id="edge15" class="edge"><title>Node14&#45;&gt;Node13</title>
<path fill="none" stroke="midnightblue" d="M156.22,-464.325C176.938,-468.966 203.835,-474.991 223.508,-479.397"/>
<polygon fill="midnightblue" stroke="midnightblue" points="222.814,-482.829 233.337,-481.599 224.344,-475.998 222.814,-482.829"/>
</g>
<!-- Node15 -->
<g id="node15" class="node"><title>Node15</title>
<g id="a_node15"><a xlink:href="SAT__VecMat_8cpp.html#a66b3b116958d5c2f1c528faa04c71674" target="_top" xlink:title="R_y">
<polygon fill="white" stroke="black" points="233.5,-513.832 233.5,-532.832 268.5,-532.832 268.5,-513.832 233.5,-513.832"/>
<text text-anchor="middle" x="251" y="-520.832" font-family="Helvetica,sans-Serif" font-size="10.00">R_y</text>
</a>
</g>
</g>
<!-- Node14&#45;&gt;Node15 -->
<g id="edge16" class="edge"><title>Node14&#45;&gt;Node15</title>
<path fill="none" stroke="midnightblue" d="M150.793,-466.858C157.228,-469.601 164.001,-472.814 170,-476.332 187.486,-486.584 188.556,-494.009 206,-504.332 211.505,-507.589 217.671,-510.604 223.606,-513.227"/>
<polygon fill="midnightblue" stroke="midnightblue" points="222.64,-516.617 233.216,-517.247 225.341,-510.159 222.64,-516.617"/>
</g>
<!-- Node16&#45;&gt;Node13 -->
<g id="edge18" class="edge"><title>Node16&#45;&gt;Node13</title>
<path fill="none" stroke="midnightblue" d="M156.543,-492.808C177.169,-491.158 203.813,-489.027 223.371,-487.462"/>
<polygon fill="midnightblue" stroke="midnightblue" points="223.736,-490.944 233.425,-486.658 223.178,-483.966 223.736,-490.944"/>
</g>
<!-- Node17 -->
<g id="node17" class="node"><title>Node17</title>
<g id="a_node17"><a xlink:href="SAT__RefSys_8cpp.html#a120de1171391bce3ca4111e46331a93c" target="_top" xlink:title="GAST">
<polygon fill="white" stroke="black" points="229,-551.832 229,-570.832 273,-570.832 273,-551.832 229,-551.832"/>
<text text-anchor="middle" x="251" y="-558.832" font-family="Helvetica,sans-Serif" font-size="10.00">GAST</text>
</a>
</g>
</g>
<!-- Node16&#45;&gt;Node17 -->
<g id="edge19" class="edge"><title>Node16&#45;&gt;Node17</title>
<path fill="none" stroke="midnightblue" d="M140.229,-504.895C156.29,-514.807 182.478,-530.481 206,-542.332 210.324,-544.51 214.955,-546.68 219.531,-548.732"/>
<polygon fill="midnightblue" stroke="midnightblue" points="218.164,-551.954 228.729,-552.746 220.963,-545.538 218.164,-551.954"/>
</g>
<!-- Node17&#45;&gt;Node10 -->
<g id="edge20" class="edge"><title>Node17&#45;&gt;Node10</title>
<path fill="none" stroke="midnightblue" d="M273.147,-557.263C327.564,-546.718 471.419,-518.354 518,-504.332 537.364,-498.502 558.235,-490.616 576.023,-483.387"/>
<polygon fill="midnightblue" stroke="midnightblue" points="577.648,-486.503 585.559,-479.456 574.98,-480.031 577.648,-486.503"/>
</g>
<!-- Node18 -->
<g id="node18" class="node"><title>Node18</title>
<g id="a_node18"><a xlink:href="SAT__RefSys_8cpp.html#a2a4cc14aa92a1449e08540255af19f8e" target="_top" xlink:title="GMST">
<polygon fill="white" stroke="black" points="598.5,-524.832 598.5,-543.832 643.5,-543.832 643.5,-524.832 598.5,-524.832"/>
<text text-anchor="middle" x="621" y="-531.832" font-family="Helvetica,sans-Serif" font-size="10.00">GMST</text>
</a>
</g>
</g>
<!-- Node17&#45;&gt;Node18 -->
<g id="edge21" class="edge"><title>Node17&#45;&gt;Node18</title>
<path fill="none" stroke="midnightblue" d="M273.107,-559.783C334.681,-555.265 514.381,-542.081 587.991,-536.68"/>
<polygon fill="midnightblue" stroke="midnightblue" points="588.338,-540.164 598.055,-535.942 587.825,-533.183 588.338,-540.164"/>
</g>
<!-- Node19 -->
<g id="node19" class="node"><title>Node19</title>
<g id="a_node19"><a xlink:href="SAT__RefSys_8cpp.html#a1178917cf376ea4f15cea33c59028635" target="_top" xlink:title="EqnEquinox">
<polygon fill="white" stroke="black" points="332.5,-475.832 332.5,-494.832 401.5,-494.832 401.5,-475.832 332.5,-475.832"/>
<text text-anchor="middle" x="367" y="-482.832" font-family="Helvetica,sans-Serif" font-size="10.00">EqnEquinox</text>
</a>
</g>
</g>
<!-- Node17&#45;&gt;Node19 -->
<g id="edge23" class="edge"><title>Node17&#45;&gt;Node19</title>
<path fill="none" stroke="midnightblue" d="M273.324,-553.803C280.775,-550.744 289.016,-546.855 296,-542.332 314.217,-530.531 315.1,-522.951 332,-509.332 335.481,-506.526 339.265,-503.675 343.003,-500.964"/>
<polygon fill="midnightblue" stroke="midnightblue" points="345.327,-503.608 351.476,-494.98 341.289,-497.89 345.327,-503.608"/>
</g>
<!-- Node18&#45;&gt;Node11 -->
<g id="edge22" class="edge"><title>Node18&#45;&gt;Node11</title>
<path fill="none" stroke="midnightblue" d="M635.986,-524.752C649.4,-515.525 670.188,-501.121 688,-488.332 710.925,-471.87 736.619,-452.836 755.652,-438.622"/>
<polygon fill="midnightblue" stroke="midnightblue" points="757.983,-441.249 763.894,-432.457 753.79,-435.644 757.983,-441.249"/>
</g>
<!-- Node19&#45;&gt;Node8 -->
<g id="edge24" class="edge"><title>Node19&#45;&gt;Node8</title>
<path fill="none" stroke="midnightblue" d="M395.505,-475.743C408.931,-471.062 425.28,-465.362 439.801,-460.3"/>
<polygon fill="midnightblue" stroke="midnightblue" points="441.213,-463.514 449.503,-456.918 438.909,-456.905 441.213,-463.514"/>
</g>
<!-- Node19&#45;&gt;Node7 -->
<g id="edge25" class="edge"><title>Node19&#45;&gt;Node7</title>
<path fill="none" stroke="midnightblue" d="M401.593,-485.332C410.046,-485.332 419.291,-485.332 428.32,-485.332"/>
<polygon fill="midnightblue" stroke="midnightblue" points="428.368,-488.832 438.368,-485.332 428.368,-481.832 428.368,-488.832"/>
</g>
<!-- Node21 -->
<g id="node21" class="node"><title>Node21</title>
<g id="a_node21"><a xlink:href="SAT__VecMat_8cpp.html#a71375a6ebee7fc40c1d45985175d82e5" target="_top" xlink:title="Dot">
<polygon fill="white" stroke="black" points="462,-190.832 462,-209.832 494,-209.832 494,-190.832 462,-190.832"/>
<text text-anchor="middle" x="478" y="-197.832" font-family="Helvetica,sans-Serif" font-size="10.00">Dot</text>
</a>
</g>
</g>
<!-- Node20&#45;&gt;Node21 -->
<g id="edge27" class="edge"><title>Node20&#45;&gt;Node21</title>
<path fill="none" stroke="midnightblue" d="M147.916,-19.8075C181.759,-7.25172 246.442,10.9036 296,-10.3316 379.561,-46.1371 442.828,-141.565 466.667,-181.912"/>
<polygon fill="midnightblue" stroke="midnightblue" points="463.714,-183.798 471.749,-190.704 469.775,-180.295 463.714,-183.798"/>
</g>
<!-- Node22 -->
<g id="node22" class="node"><title>Node22</title>
<g id="a_node22"><a xlink:href="SAT__VecMat_8cpp.html#aa54829a0c63c78e6bfbd12285ad94075" target="_top" xlink:title="Transp">
<polygon fill="white" stroke="black" points="227.5,-19.8316 227.5,-38.8316 274.5,-38.8316 274.5,-19.8316 227.5,-19.8316"/>
<text text-anchor="middle" x="251" y="-26.8316" font-family="Helvetica,sans-Serif" font-size="10.00">Transp</text>
</a>
</g>
</g>
<!-- Node20&#45;&gt;Node22 -->
<g id="edge28" class="edge"><title>Node20&#45;&gt;Node22</title>
<path fill="none" stroke="midnightblue" d="M165.584,-29.3316C182.265,-29.3316 201.331,-29.3316 217.118,-29.3316"/>
<polygon fill="midnightblue" stroke="midnightblue" points="217.454,-32.8317 227.454,-29.3316 217.454,-25.8317 217.454,-32.8317"/>
</g>
<!-- Node23&#45;&gt;Node11 -->
<g id="edge30" class="edge"><title>Node23&#45;&gt;Node11</title>
<path fill="none" stroke="midnightblue" d="M384.394,-296.317C412.183,-298.228 470.177,-303.265 518,-314.332 595.777,-332.329 613.969,-342.456 688,-372.332 707.011,-380.004 727.651,-389.517 744.904,-397.818"/>
<polygon fill="midnightblue" stroke="midnightblue" points="743.584,-401.068 754.108,-402.286 746.64,-394.771 743.584,-401.068"/>
</g>
<!-- Node23&#45;&gt;Node12 -->
<g id="edge31" class="edge"><title>Node23&#45;&gt;Node12</title>
<path fill="none" stroke="midnightblue" d="M384.083,-300.939C401.692,-307.077 430.186,-317.011 450.983,-324.262"/>
<polygon fill="midnightblue" stroke="midnightblue" points="449.899,-327.59 460.493,-327.577 452.203,-320.98 449.899,-327.59"/>
</g>
<!-- Node24&#45;&gt;Node9 -->
<g id="edge33" class="edge"><title>Node24&#45;&gt;Node9</title>
<path fill="none" stroke="midnightblue" d="M387.578,-375.433C401.596,-378.324 420.931,-382.219 438,-385.332 474.687,-392.022 515.658,-398.833 549.424,-404.271"/>
<polygon fill="midnightblue" stroke="midnightblue" points="549.23,-407.785 559.658,-405.913 550.339,-400.873 549.23,-407.785"/>
</g>
<!-- Node24&#45;&gt;Node11 -->
<g id="edge34" class="edge"><title>Node24&#45;&gt;Node11</title>
<path fill="none" stroke="midnightblue" d="M387.645,-371.039C437.973,-370.603 575.493,-371.397 688,-390.332 701.197,-392.553 715.177,-395.894 728.263,-399.477"/>
<polygon fill="midnightblue" stroke="midnightblue" points="727.494,-402.896 738.069,-402.249 729.398,-396.16 727.494,-402.896"/>
</g>
<!-- Node24&#45;&gt;Node12 -->
<g id="edge35" class="edge"><title>Node24&#45;&gt;Node12</title>
<path fill="none" stroke="midnightblue" d="M387.739,-364.45C405.397,-358.294 431.411,-349.225 450.805,-342.464"/>
<polygon fill="midnightblue" stroke="midnightblue" points="451.974,-345.763 460.264,-339.166 449.67,-339.153 451.974,-345.763"/>
</g>
<!-- Node26 -->
<g id="node26" class="node"><title>Node26</title>
<g id="a_node26"><a xlink:href="SAT__VecMat_8cpp.html#a313ce8c9730e0bd08a1396f364f0486c" target="_top" xlink:title="Norm">
<polygon fill="white" stroke="black" points="346.5,-171.832 346.5,-190.832 387.5,-190.832 387.5,-171.832 346.5,-171.832"/>
<text text-anchor="middle" x="367" y="-178.832" font-family="Helvetica,sans-Serif" font-size="10.00">Norm</text>
</a>
</g>
</g>
<!-- Node25&#45;&gt;Node26 -->
<g id="edge37" class="edge"><title>Node25&#45;&gt;Node26</title>
<path fill="none" stroke="midnightblue" d="M168.295,-86.0268C204.246,-87.4008 255.813,-93.2328 296,-113.332 319.526,-125.098 340.262,-147.601 352.939,-163.492"/>
<polygon fill="midnightblue" stroke="midnightblue" points="350.249,-165.736 359.12,-171.53 355.799,-161.469 350.249,-165.736"/>
</g>
<!-- Node26&#45;&gt;Node21 -->
<g id="edge38" class="edge"><title>Node26&#45;&gt;Node21</title>
<path fill="none" stroke="midnightblue" d="M387.739,-184.772C405.753,-187.912 432.462,-192.568 451.969,-195.968"/>
<polygon fill="midnightblue" stroke="midnightblue" points="451.511,-199.441 461.964,-197.711 452.713,-192.545 451.511,-199.441"/>
</g>
<!-- Node27&#45;&gt;Node26 -->
<g id="edge40" class="edge"><title>Node27&#45;&gt;Node26</title>
<path fill="none" stroke="midnightblue" d="M280.767,-209.743C297.86,-204.045 319.485,-196.837 336.675,-191.107"/>
<polygon fill="midnightblue" stroke="midnightblue" points="337.836,-194.409 346.216,-187.926 335.622,-187.768 337.836,-194.409"/>
</g>
<!-- Node27&#45;&gt;Node21 -->
<g id="edge41" class="edge"><title>Node27&#45;&gt;Node21</title>
<path fill="none" stroke="midnightblue" d="M284.237,-216.609C329.524,-212.785 411.019,-205.903 452.013,-202.442"/>
<polygon fill="midnightblue" stroke="midnightblue" points="452.308,-205.929 461.978,-201.6 451.719,-198.954 452.308,-205.929"/>
</g>
<!-- Node28&#45;&gt;Node26 -->
<g id="edge43" class="edge"><title>Node28&#45;&gt;Node26</title>
<path fill="none" stroke="midnightblue" d="M158.51,-189.08C205.806,-187.314 291.387,-184.118 336.437,-182.436"/>
<polygon fill="midnightblue" stroke="midnightblue" points="336.588,-185.933 346.45,-182.062 336.327,-178.937 336.588,-185.933"/>
</g>
<!-- Node29&#45;&gt;Node22 -->
<g id="edge45" class="edge"><title>Node29&#45;&gt;Node22</title>
<path fill="none" stroke="midnightblue" d="M136.626,-133.831C145.808,-126.252 158.88,-115.293 170,-105.332 192.114,-85.5206 216.774,-61.8416 232.791,-46.2392"/>
<polygon fill="midnightblue" stroke="midnightblue" points="235.616,-48.3726 240.321,-38.8796 230.723,-43.3668 235.616,-48.3726"/>
</g>
<!-- Node30 -->
<g id="node30" class="node"><title>Node30</title>
<g id="a_node30"><a xlink:href="SAT__VecMat_8cpp.html#ab712f21cc19675f37e17e08bb51a82b4" target="_top" xlink:title="Cross">
<polygon fill="white" stroke="black" points="229.5,-133.832 229.5,-152.832 272.5,-152.832 272.5,-133.832 229.5,-133.832"/>
<text text-anchor="middle" x="251" y="-140.832" font-family="Helvetica,sans-Serif" font-size="10.00">Cross</text>
</a>
</g>
</g>
<!-- Node29&#45;&gt;Node30 -->
<g id="edge46" class="edge"><title>Node29&#45;&gt;Node30</title>
<path fill="none" stroke="midnightblue" d="M155.259,-143.332C174.646,-143.332 199.732,-143.332 219.219,-143.332"/>
<polygon fill="midnightblue" stroke="midnightblue" points="219.398,-146.832 229.398,-143.332 219.398,-139.832 219.398,-146.832"/>
</g>
<!-- Node29&#45;&gt;Node26 -->
<g id="edge47" class="edge"><title>Node29&#45;&gt;Node26</title>
<path fill="none" stroke="midnightblue" d="M150.149,-133.764C184.218,-122.302 246.468,-106.716 296,-124.332 318.218,-132.233 338.501,-150.538 351.448,-164.287"/>
<polygon fill="midnightblue" stroke="midnightblue" points="348.882,-166.668 358.182,-171.743 354.077,-161.976 348.882,-166.668"/>
</g>
<!-- Node31 -->
<g id="node31" class="node"><title>Node31</title>
<g id="a_node31"><a xlink:href="SAT__Force_8cpp.html#a6ad9e17c2e7636b8cd8045d461940681" target="_top" xlink:title="Density_HP">
<polygon fill="white" stroke="black" points="216,-247.832 216,-266.832 286,-266.832 286,-247.832 216,-247.832"/>
<text text-anchor="middle" x="251" y="-254.832" font-family="Helvetica,sans-Serif" font-size="10.00">Density_HP</text>
</a>
</g>
</g>
<!-- Node29&#45;&gt;Node31 -->
<g id="edge48" class="edge"><title>Node29&#45;&gt;Node31</title>
<path fill="none" stroke="midnightblue" d="M145.457,-153.063C153.792,-157.743 163.074,-163.951 170,-171.332 193.132,-195.982 181.098,-215.471 206,-238.332 207.643,-239.84 209.425,-241.241 211.299,-242.541"/>
<polygon fill="midnightblue" stroke="midnightblue" points="209.553,-245.575 219.951,-247.606 213.089,-239.534 209.553,-245.575"/>
</g>
<!-- Node31&#45;&gt;Node23 -->
<g id="edge49" class="edge"><title>Node31&#45;&gt;Node23</title>
<path fill="none" stroke="midnightblue" d="M280.767,-266.921C299.073,-273.023 322.577,-280.857 340.264,-286.753"/>
<polygon fill="midnightblue" stroke="midnightblue" points="339.33,-290.131 349.923,-289.973 341.543,-283.49 339.33,-290.131"/>
</g>
<!-- Node31&#45;&gt;Node21 -->
<g id="edge50" class="edge"><title>Node31&#45;&gt;Node21</title>
<path fill="none" stroke="midnightblue" d="M286.176,-250.757C316.722,-244.658 362.608,-234.943 402,-224.332 418.89,-219.782 437.631,-213.785 452.154,-208.924"/>
<polygon fill="midnightblue" stroke="midnightblue" points="453.549,-212.147 461.897,-205.622 451.303,-205.517 453.549,-212.147"/>
</g>
<!-- Node31&#45;&gt;Node26 -->
<g id="edge51" class="edge"><title>Node31&#45;&gt;Node26</title>
<path fill="none" stroke="midnightblue" d="M277.726,-247.636C283.879,-244.936 290.31,-241.785 296,-238.332 315.083,-226.749 334.601,-210.41 348.162,-198.192"/>
<polygon fill="midnightblue" stroke="midnightblue" points="350.781,-200.539 355.779,-191.198 346.046,-195.384 350.781,-200.539"/>
</g>
</g>
</svg>
