<?xml version="1.0" encoding="UTF-8" standalone="no"?>
<!DOCTYPE svg PUBLIC "-//W3C//DTD SVG 1.1//EN"
 "http://www.w3.org/Graphics/SVG/1.1/DTD/svg11.dtd">
<!-- Generated by graphviz version 2.30.1 (20180420.1509)
 -->
<!-- Title: TDRSOD.cpp Pages: 1 -->
<svg width="1017pt" height="196pt"
 viewBox="0.00 0.00 1017.00 196.00" xmlns="http://www.w3.org/2000/svg" xmlns:xlink="http://www.w3.org/1999/xlink">
<g id="graph0" class="graph" transform="scale(1 1) rotate(0) translate(4 192)">
<title>TDRSOD.cpp</title>
<polygon fill="white" stroke="white" points="-4,5 -4,-192 1014,-192 1014,5 -4,5"/>
<!-- Node1 -->
<g id="node1" class="node"><title>Node1</title>
<polygon fill="#bfbfbf" stroke="black" points="478,-168.5 478,-187.5 556,-187.5 556,-168.5 478,-168.5"/>
<text text-anchor="middle" x="517" y="-175.5" font-family="Helvetica,sans-Serif" font-size="10.00">TDRSOD.cpp</text>
</g>
<!-- Node2 -->
<g id="node2" class="node"><title>Node2</title>
<polygon fill="white" stroke="#bfbfbf" points="72,-0.5 72,-19.5 126,-19.5 126,-0.5 72,-0.5"/>
<text text-anchor="middle" x="99" y="-7.5" font-family="Helvetica,sans-Serif" font-size="10.00">iostream</text>
</g>
<!-- Node1&#45;&gt;Node2 -->
<g id="edge1" class="edge"><title>Node1&#45;&gt;Node2</title>
<path fill="none" stroke="midnightblue" d="M477.83,-175.245C382.385,-170.598 143.711,-156.617 118,-132 90.315,-105.492 92.1967,-56.326 95.7342,-29.5504"/>
<polygon fill="midnightblue" stroke="midnightblue" points="99.2072,-29.9937 97.2703,-19.5774 92.2888,-28.928 99.2072,-29.9937"/>
</g>
<!-- Node3 -->
<g id="node3" class="node"><title>Node3</title>
<polygon fill="white" stroke="#bfbfbf" points="663,-112.5 663,-131.5 713,-131.5 713,-112.5 663,-112.5"/>
<text text-anchor="middle" x="688" y="-119.5" font-family="Helvetica,sans-Serif" font-size="10.00">iomanip</text>
</g>
<!-- Node1&#45;&gt;Node3 -->
<g id="edge2" class="edge"><title>Node1&#45;&gt;Node3</title>
<path fill="none" stroke="midnightblue" d="M544.095,-168.444C573.583,-159.132 620.823,-144.214 653.075,-134.029"/>
<polygon fill="midnightblue" stroke="midnightblue" points="654.497,-137.25 662.978,-130.902 652.389,-130.575 654.497,-137.25"/>
</g>
<!-- Node4 -->
<g id="node4" class="node"><title>Node4</title>
<polygon fill="white" stroke="#bfbfbf" points="731,-112.5 731,-131.5 781,-131.5 781,-112.5 731,-112.5"/>
<text text-anchor="middle" x="756" y="-119.5" font-family="Helvetica,sans-Serif" font-size="10.00">fstream</text>
</g>
<!-- Node1&#45;&gt;Node4 -->
<g id="edge3" class="edge"><title>Node1&#45;&gt;Node4</title>
<path fill="none" stroke="midnightblue" d="M556.032,-168.95C595.263,-160.744 657.703,-147.372 720.672,-132.246"/>
<polygon fill="midnightblue" stroke="midnightblue" points="721.881,-135.555 730.779,-129.804 720.237,-128.751 721.881,-135.555"/>
</g>
<!-- Node5 -->
<g id="node5" class="node"><title>Node5</title>
<polygon fill="white" stroke="#bfbfbf" points="799,-112.5 799,-131.5 843,-131.5 843,-112.5 799,-112.5"/>
<text text-anchor="middle" x="821" y="-119.5" font-family="Helvetica,sans-Serif" font-size="10.00">cmath</text>
</g>
<!-- Node1&#45;&gt;Node5 -->
<g id="edge4" class="edge"><title>Node1&#45;&gt;Node5</title>
<path fill="none" stroke="midnightblue" d="M556.163,-172.04C607.509,-165.209 700.518,-151.715 788.823,-132.047"/>
<polygon fill="midnightblue" stroke="midnightblue" points="789.748,-135.426 798.732,-129.809 788.206,-128.598 789.748,-135.426"/>
</g>
<!-- Node6 -->
<g id="node6" class="node"><title>Node6</title>
<polygon fill="white" stroke="#bfbfbf" points="861,-112.5 861,-131.5 905,-131.5 905,-112.5 861,-112.5"/>
<text text-anchor="middle" x="883" y="-119.5" font-family="Helvetica,sans-Serif" font-size="10.00">vector</text>
</g>
<!-- Node1&#45;&gt;Node6 -->
<g id="edge5" class="edge"><title>Node1&#45;&gt;Node6</title>
<path fill="none" stroke="midnightblue" d="M556.009,-173.663C616.982,-168.035 738.666,-155.147 850.639,-132.013"/>
<polygon fill="midnightblue" stroke="midnightblue" points="851.682,-135.37 860.749,-129.89 850.244,-128.52 851.682,-135.37"/>
</g>
<!-- Node7 -->
<g id="node7" class="node"><title>Node7</title>
<g id="a_node7"><a xlink:href="SAT__Const_8h.html" target="_top" xlink:title="SAT_Const.h">
<polygon fill="white" stroke="black" points="562,-56.5 562,-75.5 638,-75.5 638,-56.5 562,-56.5"/>
<text text-anchor="middle" x="600" y="-63.5" font-family="Helvetica,sans-Serif" font-size="10.00">SAT_Const.h</text>
</a>
</g>
</g>
<!-- Node1&#45;&gt;Node7 -->
<g id="edge6" class="edge"><title>Node1&#45;&gt;Node7</title>
<path fill="none" stroke="midnightblue" d="M556.299,-169.63C577.565,-163.423 602.065,-152.173 615,-132 624.155,-117.722 617.926,-98.5072 610.919,-84.6771"/>
<polygon fill="midnightblue" stroke="midnightblue" points="613.832,-82.7159 605.887,-75.7059 607.726,-86.1399 613.832,-82.7159"/>
</g>
<!-- Node8 -->
<g id="node8" class="node"><title>Node8</title>
<g id="a_node8"><a xlink:href="SAT__DE_8h.html" target="_top" xlink:title="SAT_DE.h">
<polygon fill="white" stroke="black" points="257,-112.5 257,-131.5 321,-131.5 321,-112.5 257,-112.5"/>
<text text-anchor="middle" x="289" y="-119.5" font-family="Helvetica,sans-Serif" font-size="10.00">SAT_DE.h</text>
</a>
</g>
</g>
<!-- Node1&#45;&gt;Node8 -->
<g id="edge7" class="edge"><title>Node1&#45;&gt;Node8</title>
<path fill="none" stroke="midnightblue" d="M480.873,-168.444C440.186,-158.807 374.151,-143.167 331.146,-132.982"/>
<polygon fill="midnightblue" stroke="midnightblue" points="331.809,-129.542 321.272,-130.643 330.196,-136.354 331.809,-129.542"/>
</g>
<!-- Node11 -->
<g id="node11" class="node"><title>Node11</title>
<g id="a_node11"><a xlink:href="SAT__Kepler_8h.html" target="_top" xlink:title="SAT_Kepler.h">
<polygon fill="white" stroke="black" points="339.5,-112.5 339.5,-131.5 416.5,-131.5 416.5,-112.5 339.5,-112.5"/>
<text text-anchor="middle" x="378" y="-119.5" font-family="Helvetica,sans-Serif" font-size="10.00">SAT_Kepler.h</text>
</a>
</g>
</g>
<!-- Node1&#45;&gt;Node11 -->
<g id="edge11" class="edge"><title>Node1&#45;&gt;Node11</title>
<path fill="none" stroke="midnightblue" d="M494.975,-168.444C471.896,-159.478 435.438,-145.314 409.359,-135.183"/>
<polygon fill="midnightblue" stroke="midnightblue" points="410.511,-131.875 399.922,-131.516 407.976,-138.4 410.511,-131.875"/>
</g>
<!-- Node12 -->
<g id="node12" class="node"><title>Node12</title>
<g id="a_node12"><a xlink:href="SAT__Filter_8h.html" target="_top" xlink:title="SAT_Filter.h">
<polygon fill="white" stroke="black" points="434.5,-112.5 434.5,-131.5 505.5,-131.5 505.5,-112.5 434.5,-112.5"/>
<text text-anchor="middle" x="470" y="-119.5" font-family="Helvetica,sans-Serif" font-size="10.00">SAT_Filter.h</text>
</a>
</g>
</g>
<!-- Node1&#45;&gt;Node12 -->
<g id="edge13" class="edge"><title>Node1&#45;&gt;Node12</title>
<path fill="none" stroke="midnightblue" d="M509.239,-168.083C502.463,-160.298 492.457,-148.801 484.245,-139.367"/>
<polygon fill="midnightblue" stroke="midnightblue" points="486.822,-136.996 477.617,-131.751 481.542,-141.592 486.822,-136.996"/>
</g>
<!-- Node13 -->
<g id="node13" class="node"><title>Node13</title>
<g id="a_node13"><a xlink:href="SAT__Force_8h.html" target="_top" xlink:title="SAT_Force.h">
<polygon fill="white" stroke="black" points="127,-112.5 127,-131.5 201,-131.5 201,-112.5 127,-112.5"/>
<text text-anchor="middle" x="164" y="-119.5" font-family="Helvetica,sans-Serif" font-size="10.00">SAT_Force.h</text>
</a>
</g>
</g>
<!-- Node1&#45;&gt;Node13 -->
<g id="edge15" class="edge"><title>Node1&#45;&gt;Node13</title>
<path fill="none" stroke="midnightblue" d="M477.855,-171.508C420.223,-163.346 309.178,-147.324 215,-132 213.727,-131.793 212.437,-131.581 211.135,-131.365"/>
<polygon fill="midnightblue" stroke="midnightblue" points="211.471,-127.872 201.028,-129.654 210.303,-134.774 211.471,-127.872"/>
</g>
<!-- Node14 -->
<g id="node14" class="node"><title>Node14</title>
<g id="a_node14"><a xlink:href="SAT__RefSys_8h.html" target="_top" xlink:title="SAT_RefSys.h">
<polygon fill="white" stroke="black" points="523.5,-112.5 523.5,-131.5 606.5,-131.5 606.5,-112.5 523.5,-112.5"/>
<text text-anchor="middle" x="565" y="-119.5" font-family="Helvetica,sans-Serif" font-size="10.00">SAT_RefSys.h</text>
</a>
</g>
</g>
<!-- Node1&#45;&gt;Node14 -->
<g id="edge17" class="edge"><title>Node1&#45;&gt;Node14</title>
<path fill="none" stroke="midnightblue" d="M524.926,-168.083C531.846,-160.298 542.065,-148.801 550.452,-139.367"/>
<polygon fill="midnightblue" stroke="midnightblue" points="553.194,-141.55 557.221,-131.751 547.962,-136.9 553.194,-141.55"/>
</g>
<!-- Node15 -->
<g id="node15" class="node"><title>Node15</title>
<g id="a_node15"><a xlink:href="SAT__Time_8h.html" target="_top" xlink:title="SAT_Time.h">
<polygon fill="white" stroke="black" points="-0.5,-56.5 -0.5,-75.5 70.5,-75.5 70.5,-56.5 -0.5,-56.5"/>
<text text-anchor="middle" x="35" y="-63.5" font-family="Helvetica,sans-Serif" font-size="10.00">SAT_Time.h</text>
</a>
</g>
</g>
<!-- Node1&#45;&gt;Node15 -->
<g id="edge20" class="edge"><title>Node1&#45;&gt;Node15</title>
<path fill="none" stroke="midnightblue" d="M477.71,-176.812C384.308,-175.752 151.818,-169.327 85,-132 65.8318,-121.292 51.6128,-99.8965 43.3363,-84.5761"/>
<polygon fill="midnightblue" stroke="midnightblue" points="46.4079,-82.8946 38.7632,-75.5591 40.1649,-86.0608 46.4079,-82.8946"/>
</g>
<!-- Node9 -->
<g id="node9" class="node"><title>Node9</title>
<g id="a_node9"><a xlink:href="SAT__VecMat_8h.html" target="_top" xlink:title="SAT_VecMat.h">
<polygon fill="white" stroke="black" points="247.5,-56.5 247.5,-75.5 330.5,-75.5 330.5,-56.5 247.5,-56.5"/>
<text text-anchor="middle" x="289" y="-63.5" font-family="Helvetica,sans-Serif" font-size="10.00">SAT_VecMat.h</text>
</a>
</g>
</g>
<!-- Node1&#45;&gt;Node9 -->
<g id="edge22" class="edge"><title>Node1&#45;&gt;Node9</title>
<path fill="none" stroke="midnightblue" d="M477.844,-176.4C410.458,-174.447 276.989,-166.241 248,-132 234.639,-116.218 252.483,-95.7215 268.645,-82.0031"/>
<polygon fill="midnightblue" stroke="midnightblue" points="271.145,-84.4862 276.77,-75.5081 266.774,-79.0186 271.145,-84.4862"/>
</g>
<!-- Node16 -->
<g id="node16" class="node"><title>Node16</title>
<g id="a_node16"><a xlink:href="GNU__iomanip_8h.html" target="_top" xlink:title="GNU_iomanip.h">
<polygon fill="white" stroke="black" points="923,-112.5 923,-131.5 1009,-131.5 1009,-112.5 923,-112.5"/>
<text text-anchor="middle" x="966" y="-119.5" font-family="Helvetica,sans-Serif" font-size="10.00">GNU_iomanip.h</text>
</a>
</g>
</g>
<!-- Node1&#45;&gt;Node16 -->
<g id="edge23" class="edge"><title>Node1&#45;&gt;Node16</title>
<path fill="none" stroke="midnightblue" d="M556.26,-173.319C625.893,-166.623 775.81,-151.457 912.653,-132.119"/>
<polygon fill="midnightblue" stroke="midnightblue" points="913.494,-135.535 922.901,-130.659 912.507,-128.605 913.494,-135.535"/>
</g>
<!-- Node8&#45;&gt;Node9 -->
<g id="edge8" class="edge"><title>Node8&#45;&gt;Node9</title>
<path fill="none" stroke="midnightblue" d="M289,-112.083C289,-105.006 289,-94.8611 289,-85.9865"/>
<polygon fill="midnightblue" stroke="midnightblue" points="292.5,-85.751 289,-75.7511 285.5,-85.7511 292.5,-85.751"/>
</g>
<!-- Node9&#45;&gt;Node2 -->
<g id="edge9" class="edge"><title>Node9&#45;&gt;Node2</title>
<path fill="none" stroke="midnightblue" d="M258.894,-56.4435C225.656,-46.997 172.117,-31.7807 136.26,-21.5897"/>
<polygon fill="midnightblue" stroke="midnightblue" points="136.771,-18.0963 126.195,-18.729 134.857,-24.8296 136.771,-18.0963"/>
</g>
<!-- Node10 -->
<g id="node10" class="node"><title>Node10</title>
<polygon fill="white" stroke="#bfbfbf" points="266.5,-0.5 266.5,-19.5 311.5,-19.5 311.5,-0.5 266.5,-0.5"/>
<text text-anchor="middle" x="289" y="-7.5" font-family="Helvetica,sans-Serif" font-size="10.00">cstdlib</text>
</g>
<!-- Node9&#45;&gt;Node10 -->
<g id="edge10" class="edge"><title>Node9&#45;&gt;Node10</title>
<path fill="none" stroke="midnightblue" d="M289,-56.083C289,-49.0059 289,-38.8611 289,-29.9865"/>
<polygon fill="midnightblue" stroke="midnightblue" points="292.5,-29.751 289,-19.7511 285.5,-29.7511 292.5,-29.751"/>
</g>
<!-- Node11&#45;&gt;Node9 -->
<g id="edge12" class="edge"><title>Node11&#45;&gt;Node9</title>
<path fill="none" stroke="midnightblue" d="M363.701,-112.324C349.817,-103.9 328.508,-90.9709 312.196,-81.0741"/>
<polygon fill="midnightblue" stroke="midnightblue" points="313.629,-77.8495 303.264,-75.6545 309.998,-83.8341 313.629,-77.8495"/>
</g>
<!-- Node12&#45;&gt;Node9 -->
<g id="edge14" class="edge"><title>Node12&#45;&gt;Node9</title>
<path fill="none" stroke="midnightblue" d="M441.32,-112.444C410.473,-103.241 361.272,-88.5617 327.171,-78.3879"/>
<polygon fill="midnightblue" stroke="midnightblue" points="328.129,-75.0215 317.546,-75.5164 326.128,-81.7293 328.129,-75.0215"/>
</g>
<!-- Node13&#45;&gt;Node9 -->
<g id="edge16" class="edge"><title>Node13&#45;&gt;Node9</title>
<path fill="none" stroke="midnightblue" d="M183.807,-112.444C204.287,-103.596 236.483,-89.6875 259.865,-79.5865"/>
<polygon fill="midnightblue" stroke="midnightblue" points="261.494,-82.6953 269.286,-75.5164 258.718,-76.2692 261.494,-82.6953"/>
</g>
<!-- Node14&#45;&gt;Node7 -->
<g id="edge18" class="edge"><title>Node14&#45;&gt;Node7</title>
<path fill="none" stroke="midnightblue" d="M570.78,-112.083C575.672,-104.534 582.827,-93.4948 588.833,-84.2298"/>
<polygon fill="midnightblue" stroke="midnightblue" points="591.826,-86.0463 594.328,-75.7511 585.952,-82.239 591.826,-86.0463"/>
</g>
<!-- Node14&#45;&gt;Node9 -->
<g id="edge19" class="edge"><title>Node14&#45;&gt;Node9</title>
<path fill="none" stroke="midnightblue" d="M523.381,-112.857C474.431,-103.28 393.166,-87.3804 340.347,-77.0462"/>
<polygon fill="midnightblue" stroke="midnightblue" points="340.991,-73.606 330.505,-75.1206 339.647,-80.4757 340.991,-73.606"/>
</g>
<!-- Node15&#45;&gt;Node2 -->
<g id="edge21" class="edge"><title>Node15&#45;&gt;Node2</title>
<path fill="none" stroke="midnightblue" d="M45.2827,-56.324C54.8363,-48.2631 69.2797,-36.0765 80.7843,-26.3695"/>
<polygon fill="midnightblue" stroke="midnightblue" points="83.1443,-28.9577 88.5302,-19.8339 78.6302,-23.6076 83.1443,-28.9577"/>
</g>
</g>
</svg>
