<?xml version="1.0" encoding="UTF-8" standalone="no"?>
<!DOCTYPE svg PUBLIC "-//W3C//DTD SVG 1.1//EN"
 "http://www.w3.org/Graphics/SVG/1.1/DTD/svg11.dtd">
<!-- Generated by graphviz version 2.30.1 (20180420.1509)
 -->
<!-- Title: Range_4W Pages: 1 -->
<svg width="884pt" height="507pt"
 viewBox="0.00 0.00 884.00 507.00" xmlns="http://www.w3.org/2000/svg" xmlns:xlink="http://www.w3.org/1999/xlink">
<g id="graph0" class="graph" transform="scale(1 1) rotate(0) translate(4 503)">
<title>Range_4W</title>
<polygon fill="white" stroke="white" points="-4,5 -4,-503 881,-503 881,5 -4,5"/>
<!-- Node1 -->
<g id="node1" class="node"><title>Node1</title>
<polygon fill="#bfbfbf" stroke="black" points="0.5,-228.5 0.5,-247.5 65.5,-247.5 65.5,-228.5 0.5,-228.5"/>
<text text-anchor="middle" x="33" y="-235.5" font-family="Helvetica,sans-Serif" font-size="10.00">Range_4W</text>
</g>
<!-- Node2 -->
<g id="node2" class="node"><title>Node2</title>
<g id="a_node2"><a xlink:href="classIERS.html#abe17029c05804e5886ae14eae119c0f1" target="_top" xlink:title="IERS::TT_UTC">
<polygon fill="white" stroke="black" points="108.5,-475.5 108.5,-494.5 193.5,-494.5 193.5,-475.5 108.5,-475.5"/>
<text text-anchor="middle" x="151" y="-482.5" font-family="Helvetica,sans-Serif" font-size="10.00">IERS::TT_UTC</text>
</a>
</g>
</g>
<!-- Node1&#45;&gt;Node2 -->
<g id="edge1" class="edge"><title>Node1&#45;&gt;Node2</title>
<path fill="none" stroke="midnightblue" d="M34.037,-247.662C34.6878,-282.044 41.4369,-399.921 102,-466 103.207,-467.317 104.518,-468.545 105.908,-469.688"/>
<polygon fill="midnightblue" stroke="midnightblue" points="104.294,-472.815 114.578,-475.361 108.127,-466.957 104.294,-472.815"/>
</g>
<!-- Node4 -->
<g id="node4" class="node"><title>Node4</title>
<g id="a_node4"><a xlink:href="classIERS.html#a2601a074a58e3c470db336bc1aea6791" target="_top" xlink:title="IERS::UT1_UTC">
<polygon fill="white" stroke="black" points="105,-437.5 105,-456.5 197,-456.5 197,-437.5 105,-437.5"/>
<text text-anchor="middle" x="151" y="-444.5" font-family="Helvetica,sans-Serif" font-size="10.00">IERS::UT1_UTC</text>
</a>
</g>
</g>
<!-- Node1&#45;&gt;Node4 -->
<g id="edge3" class="edge"><title>Node1&#45;&gt;Node4</title>
<path fill="none" stroke="midnightblue" d="M36.0032,-247.759C42.0381,-275.357 62.1331,-355.435 102,-409 108.405,-417.606 117.222,-425.333 125.552,-431.537"/>
<polygon fill="midnightblue" stroke="midnightblue" points="123.741,-434.541 133.936,-437.423 127.763,-428.812 123.741,-434.541"/>
</g>
<!-- Node6 -->
<g id="node6" class="node"><title>Node6</title>
<g id="a_node6"><a xlink:href="SAT__VecMat_8cpp.html#aa54829a0c63c78e6bfbd12285ad94075" target="_top" xlink:title="Transp">
<polygon fill="white" stroke="black" points="127.5,-380.5 127.5,-399.5 174.5,-399.5 174.5,-380.5 127.5,-380.5"/>
<text text-anchor="middle" x="151" y="-387.5" font-family="Helvetica,sans-Serif" font-size="10.00">Transp</text>
</a>
</g>
</g>
<!-- Node1&#45;&gt;Node6 -->
<g id="edge6" class="edge"><title>Node1&#45;&gt;Node6</title>
<path fill="none" stroke="midnightblue" d="M36.4306,-247.83C42.9124,-272.091 62.8445,-335.424 102,-371 106.504,-375.093 111.997,-378.351 117.636,-380.93"/>
<polygon fill="midnightblue" stroke="midnightblue" points="116.528,-384.255 127.115,-384.655 119.088,-377.74 116.528,-384.255"/>
</g>
<!-- Node7 -->
<g id="node7" class="node"><title>Node7</title>
<g id="a_node7"><a xlink:href="SAT__RefSys_8cpp.html#a35e586a324741da54bc1e407a5586378" target="_top" xlink:title="NutMatrix">
<polygon fill="white" stroke="black" points="121.5,-304.5 121.5,-323.5 180.5,-323.5 180.5,-304.5 121.5,-304.5"/>
<text text-anchor="middle" x="151" y="-311.5" font-family="Helvetica,sans-Serif" font-size="10.00">NutMatrix</text>
</a>
</g>
</g>
<!-- Node1&#45;&gt;Node7 -->
<g id="edge7" class="edge"><title>Node1&#45;&gt;Node7</title>
<path fill="none" stroke="midnightblue" d="M43.373,-247.576C55.8337,-259.879 78.9725,-281.282 102,-295 105.191,-296.901 108.606,-298.684 112.09,-300.338"/>
<polygon fill="midnightblue" stroke="midnightblue" points="110.8,-303.594 121.363,-304.406 113.612,-297.184 110.8,-303.594"/>
</g>
<!-- Node15 -->
<g id="node15" class="node"><title>Node15</title>
<g id="a_node15"><a xlink:href="SAT__RefSys_8cpp.html#abc2e56e609b82264ae010497b21dcba0" target="_top" xlink:title="PrecMatrix">
<polygon fill="white" stroke="black" points="119,-266.5 119,-285.5 183,-285.5 183,-266.5 119,-266.5"/>
<text text-anchor="middle" x="151" y="-273.5" font-family="Helvetica,sans-Serif" font-size="10.00">PrecMatrix</text>
</a>
</g>
</g>
<!-- Node1&#45;&gt;Node15 -->
<g id="edge15" class="edge"><title>Node1&#45;&gt;Node15</title>
<path fill="none" stroke="midnightblue" d="M63.2717,-247.589C77.6967,-252.314 95.2934,-258.079 110.857,-263.177"/>
<polygon fill="midnightblue" stroke="midnightblue" points="110.145,-266.627 120.738,-266.414 112.324,-259.975 110.145,-266.627"/>
</g>
<!-- Node17 -->
<g id="node17" class="node"><title>Node17</title>
<g id="a_node17"><a xlink:href="SAT__RefSys_8cpp.html#a3a50fff4beefe84794cd248777679bf4" target="_top" xlink:title="PoleMatrix">
<polygon fill="white" stroke="black" points="119.5,-228.5 119.5,-247.5 182.5,-247.5 182.5,-228.5 119.5,-228.5"/>
<text text-anchor="middle" x="151" y="-235.5" font-family="Helvetica,sans-Serif" font-size="10.00">PoleMatrix</text>
</a>
</g>
</g>
<!-- Node1&#45;&gt;Node17 -->
<g id="edge18" class="edge"><title>Node1&#45;&gt;Node17</title>
<path fill="none" stroke="midnightblue" d="M65.6975,-238C79.0844,-238 94.8429,-238 109.091,-238"/>
<polygon fill="midnightblue" stroke="midnightblue" points="109.143,-241.5 119.143,-238 109.143,-234.5 109.143,-241.5"/>
</g>
<!-- Node20 -->
<g id="node20" class="node"><title>Node20</title>
<g id="a_node20"><a xlink:href="classGeodetic.html#a7c02e1089d2fc2eebd46a20252e78130" target="_top" xlink:title="Geodetic::Position">
<polygon fill="white" stroke="black" points="102.5,-190.5 102.5,-209.5 199.5,-209.5 199.5,-190.5 102.5,-190.5"/>
<text text-anchor="middle" x="151" y="-197.5" font-family="Helvetica,sans-Serif" font-size="10.00">Geodetic::Position</text>
</a>
</g>
</g>
<!-- Node1&#45;&gt;Node20 -->
<g id="edge23" class="edge"><title>Node1&#45;&gt;Node20</title>
<path fill="none" stroke="midnightblue" d="M63.2717,-228.411C77.6967,-223.686 95.2934,-217.921 110.857,-212.823"/>
<polygon fill="midnightblue" stroke="midnightblue" points="112.324,-216.025 120.738,-209.586 110.145,-209.373 112.324,-216.025"/>
</g>
<!-- Node21 -->
<g id="node21" class="node"><title>Node21</title>
<g id="a_node21"><a xlink:href="SAT__RefSys_8cpp.html#a9699d3dfbd482534e86059e5613f8b8c" target="_top" xlink:title="GHAMatrix">
<polygon fill="white" stroke="black" points="118.5,-342.5 118.5,-361.5 183.5,-361.5 183.5,-342.5 118.5,-342.5"/>
<text text-anchor="middle" x="151" y="-349.5" font-family="Helvetica,sans-Serif" font-size="10.00">GHAMatrix</text>
</a>
</g>
</g>
<!-- Node1&#45;&gt;Node21 -->
<g id="edge24" class="edge"><title>Node1&#45;&gt;Node21</title>
<path fill="none" stroke="midnightblue" d="M38.5775,-247.755C47.93,-266.709 70.993,-308.774 102,-333 104.284,-334.785 106.758,-336.422 109.336,-337.92"/>
<polygon fill="midnightblue" stroke="midnightblue" points="107.878,-341.105 118.382,-342.491 111.036,-334.857 107.878,-341.105"/>
</g>
<!-- Node25 -->
<g id="node25" class="node"><title>Node25</title>
<g id="a_node25"><a xlink:href="classTrjData.html#a0aafb034164d6c5741aec8e37328af6f" target="_top" xlink:title="TrjData::State">
<polygon fill="white" stroke="black" points="112,-152.5 112,-171.5 190,-171.5 190,-152.5 112,-152.5"/>
<text text-anchor="middle" x="151" y="-159.5" font-family="Helvetica,sans-Serif" font-size="10.00">TrjData::State</text>
</a>
</g>
</g>
<!-- Node1&#45;&gt;Node25 -->
<g id="edge33" class="edge"><title>Node1&#45;&gt;Node25</title>
<path fill="none" stroke="midnightblue" d="M43.373,-228.424C55.8337,-216.121 78.9725,-194.718 102,-181 105.191,-179.099 108.606,-177.316 112.09,-175.662"/>
<polygon fill="midnightblue" stroke="midnightblue" points="113.612,-178.816 121.363,-171.594 110.8,-172.406 113.612,-178.816"/>
</g>
<!-- Node26 -->
<g id="node26" class="node"><title>Node26</title>
<g id="a_node26"><a xlink:href="classVector.html#ae58ec75ebd2a2d60775c2e0ee98a35ae" target="_top" xlink:title="Vector::slice">
<polygon fill="white" stroke="black" points="115.5,-114.5 115.5,-133.5 186.5,-133.5 186.5,-114.5 115.5,-114.5"/>
<text text-anchor="middle" x="151" y="-121.5" font-family="Helvetica,sans-Serif" font-size="10.00">Vector::slice</text>
</a>
</g>
</g>
<!-- Node1&#45;&gt;Node26 -->
<g id="edge34" class="edge"><title>Node1&#45;&gt;Node26</title>
<path fill="none" stroke="midnightblue" d="M38.5775,-228.245C47.93,-209.291 70.993,-167.226 102,-143 104.284,-141.215 106.758,-139.578 109.336,-138.08"/>
<polygon fill="midnightblue" stroke="midnightblue" points="111.036,-141.143 118.382,-133.509 107.878,-134.895 111.036,-141.143"/>
</g>
<!-- Node27 -->
<g id="node27" class="node"><title>Node27</title>
<g id="a_node27"><a xlink:href="SAT__VecMat_8cpp.html#a313ce8c9730e0bd08a1396f364f0486c" target="_top" xlink:title="Norm">
<polygon fill="white" stroke="black" points="130.5,-76.5 130.5,-95.5 171.5,-95.5 171.5,-76.5 130.5,-76.5"/>
<text text-anchor="middle" x="151" y="-83.5" font-family="Helvetica,sans-Serif" font-size="10.00">Norm</text>
</a>
</g>
</g>
<!-- Node1&#45;&gt;Node27 -->
<g id="edge35" class="edge"><title>Node1&#45;&gt;Node27</title>
<path fill="none" stroke="midnightblue" d="M36.4306,-228.17C42.9124,-203.909 62.8445,-140.576 102,-105 107.348,-100.141 114.089,-96.4577 120.814,-93.692"/>
<polygon fill="midnightblue" stroke="midnightblue" points="122.234,-96.9023 130.493,-90.266 119.898,-90.3035 122.234,-96.9023"/>
</g>
<!-- Node29 -->
<g id="node29" class="node"><title>Node29</title>
<g id="a_node29"><a xlink:href="classTrjData.html#a04f78cff1af058ffea3acfeff85bff94" target="_top" xlink:title="TrjData::PhiS">
<polygon fill="white" stroke="black" points="113,-38.5 113,-57.5 189,-57.5 189,-38.5 113,-38.5"/>
<text text-anchor="middle" x="151" y="-45.5" font-family="Helvetica,sans-Serif" font-size="10.00">TrjData::PhiS</text>
</a>
</g>
</g>
<!-- Node1&#45;&gt;Node29 -->
<g id="edge37" class="edge"><title>Node1&#45;&gt;Node29</title>
<path fill="none" stroke="midnightblue" d="M35.1426,-228.421C39.0339,-199.911 54.2951,-114.63 102,-67 103.427,-65.5752 104.974,-64.2541 106.609,-63.0295"/>
<polygon fill="midnightblue" stroke="midnightblue" points="108.659,-65.8783 115.366,-57.6767 105.009,-59.9056 108.659,-65.8783"/>
</g>
<!-- Node33 -->
<g id="node33" class="node"><title>Node33</title>
<g id="a_node33"><a xlink:href="classMatrix.html#a220d7f201c5dc597cd14530fe92402b0" target="_top" xlink:title="Matrix::slice">
<polygon fill="white" stroke="black" points="116,-0.5 116,-19.5 186,-19.5 186,-0.5 116,-0.5"/>
<text text-anchor="middle" x="151" y="-7.5" font-family="Helvetica,sans-Serif" font-size="10.00">Matrix::slice</text>
</a>
</g>
</g>
<!-- Node1&#45;&gt;Node33 -->
<g id="edge41" class="edge"><title>Node1&#45;&gt;Node33</title>
<path fill="none" stroke="midnightblue" d="M34.3514,-228.235C36.0442,-195.567 45.8272,-88.7893 102,-29 103.546,-27.3548 105.252,-25.8494 107.072,-24.4722"/>
<polygon fill="midnightblue" stroke="midnightblue" points="108.943,-27.4309 115.638,-19.2194 105.283,-21.4635 108.943,-27.4309"/>
</g>
<!-- Node3 -->
<g id="node3" class="node"><title>Node3</title>
<g id="a_node3"><a xlink:href="classIERS.html#ad872e267797cb8d5be328b236287565f" target="_top" xlink:title="IERS::UTC_TAI">
<polygon fill="white" stroke="black" points="236.5,-475.5 236.5,-494.5 325.5,-494.5 325.5,-475.5 236.5,-475.5"/>
<text text-anchor="middle" x="281" y="-482.5" font-family="Helvetica,sans-Serif" font-size="10.00">IERS::UTC_TAI</text>
</a>
</g>
</g>
<!-- Node2&#45;&gt;Node3 -->
<g id="edge2" class="edge"><title>Node2&#45;&gt;Node3</title>
<path fill="none" stroke="midnightblue" d="M193.558,-485C203.958,-485 215.263,-485 226.165,-485"/>
<polygon fill="midnightblue" stroke="midnightblue" points="226.45,-488.5 236.45,-485 226.45,-481.5 226.45,-488.5"/>
</g>
<!-- Node5 -->
<g id="node5" class="node"><title>Node5</title>
<g id="a_node5"><a xlink:href="classIERS.html#acfce0b1a43896fed7b1bf9cefe3baebd" target="_top" xlink:title="IERS::UT1_TAI">
<polygon fill="white" stroke="black" points="238,-437.5 238,-456.5 324,-456.5 324,-437.5 238,-437.5"/>
<text text-anchor="middle" x="281" y="-444.5" font-family="Helvetica,sans-Serif" font-size="10.00">IERS::UT1_TAI</text>
</a>
</g>
</g>
<!-- Node4&#45;&gt;Node5 -->
<g id="edge4" class="edge"><title>Node4&#45;&gt;Node5</title>
<path fill="none" stroke="midnightblue" d="M197.128,-447C207.061,-447 217.66,-447 227.844,-447"/>
<polygon fill="midnightblue" stroke="midnightblue" points="227.85,-450.5 237.85,-447 227.85,-443.5 227.85,-450.5"/>
</g>
<!-- Node4&#45;&gt;Node3 -->
<g id="edge5" class="edge"><title>Node4&#45;&gt;Node3</title>
<path fill="none" stroke="midnightblue" d="M184.3,-456.589C200.52,-461.404 220.375,-467.299 237.787,-472.468"/>
<polygon fill="midnightblue" stroke="midnightblue" points="237.128,-475.923 247.711,-475.414 239.12,-469.213 237.128,-475.923"/>
</g>
<!-- Node8 -->
<g id="node8" class="node"><title>Node8</title>
<g id="a_node8"><a xlink:href="SAT__RefSys_8cpp.html#a11f057ac4e8a0c5a7958f77379e30d40" target="_top" xlink:title="MeanObliquity">
<polygon fill="white" stroke="black" points="468.5,-317.5 468.5,-336.5 547.5,-336.5 547.5,-317.5 468.5,-317.5"/>
<text text-anchor="middle" x="508" y="-324.5" font-family="Helvetica,sans-Serif" font-size="10.00">MeanObliquity</text>
</a>
</g>
</g>
<!-- Node7&#45;&gt;Node8 -->
<g id="edge8" class="edge"><title>Node7&#45;&gt;Node8</title>
<path fill="none" stroke="midnightblue" d="M180.646,-313.371C215.14,-312.76 274.83,-312.165 326,-314 370.703,-315.603 421.496,-319.427 457.873,-322.515"/>
<polygon fill="midnightblue" stroke="midnightblue" points="457.941,-326.034 468.205,-323.405 458.542,-319.06 457.941,-326.034"/>
</g>
<!-- Node9 -->
<g id="node9" class="node"><title>Node9</title>
<g id="a_node9"><a xlink:href="SAT__RefSys_8cpp.html#a2a9df90e79156b20bf667ae56342d756" target="_top" xlink:title="NutAngles">
<polygon fill="white" stroke="black" points="477,-393.5 477,-412.5 539,-412.5 539,-393.5 477,-393.5"/>
<text text-anchor="middle" x="508" y="-400.5" font-family="Helvetica,sans-Serif" font-size="10.00">NutAngles</text>
</a>
</g>
</g>
<!-- Node7&#45;&gt;Node9 -->
<g id="edge9" class="edge"><title>Node7&#45;&gt;Node9</title>
<path fill="none" stroke="midnightblue" d="M177.627,-323.549C184.924,-326.428 192.835,-329.703 200,-333 216.435,-340.563 218.919,-346.038 236,-352 246.851,-355.787 393.945,-382.596 466.752,-395.752"/>
<polygon fill="midnightblue" stroke="midnightblue" points="466.468,-399.258 476.93,-397.59 467.711,-392.369 466.468,-399.258"/>
</g>
<!-- Node13 -->
<g id="node13" class="node"><title>Node13</title>
<g id="a_node13"><a xlink:href="SAT__VecMat_8cpp.html#ae452267b1d1da6280386846d97ec4e4f" target="_top" xlink:title="R_x">
<polygon fill="white" stroke="black" points="263.5,-247.5 263.5,-266.5 298.5,-266.5 298.5,-247.5 263.5,-247.5"/>
<text text-anchor="middle" x="281" y="-254.5" font-family="Helvetica,sans-Serif" font-size="10.00">R_x</text>
</a>
</g>
</g>
<!-- Node7&#45;&gt;Node13 -->
<g id="edge13" class="edge"><title>Node7&#45;&gt;Node13</title>
<path fill="none" stroke="midnightblue" d="M177.043,-304.451C184.474,-301.52 192.603,-298.217 200,-295 218.333,-287.028 238.679,-277.352 254.265,-269.759"/>
<polygon fill="midnightblue" stroke="midnightblue" points="255.854,-272.878 263.293,-265.334 252.774,-266.592 255.854,-272.878"/>
</g>
<!-- Node14 -->
<g id="node14" class="node"><title>Node14</title>
<g id="a_node14"><a xlink:href="SAT__VecMat_8cpp.html#a94c9c4e1f3afc6636dda6572f72ef4c2" target="_top" xlink:title="R_z">
<polygon fill="white" stroke="black" points="263.5,-323.5 263.5,-342.5 298.5,-342.5 298.5,-323.5 263.5,-323.5"/>
<text text-anchor="middle" x="281" y="-330.5" font-family="Helvetica,sans-Serif" font-size="10.00">R_z</text>
</a>
</g>
</g>
<!-- Node7&#45;&gt;Node14 -->
<g id="edge14" class="edge"><title>Node7&#45;&gt;Node14</title>
<path fill="none" stroke="midnightblue" d="M180.726,-318.264C202.417,-321.484 231.969,-325.87 253.18,-329.019"/>
<polygon fill="midnightblue" stroke="midnightblue" points="252.733,-332.491 263.139,-330.497 253.761,-325.567 252.733,-332.491"/>
</g>
<!-- Node10 -->
<g id="node10" class="node"><title>Node10</title>
<g id="a_node10"><a xlink:href="namespaceanonymous__namespace_02SAT__Kepler_8cpp_03.html#a898091d856dff0d563448625b7634f16" target="_top" xlink:title="anonymous_namespace\l\{SAT_Kepler::cpp\}::F">
<polygon fill="white" stroke="black" points="590,-382 590,-412 712,-412 712,-382 590,-382"/>
<text text-anchor="start" x="598" y="-400" font-family="Helvetica,sans-Serif" font-size="10.00">anonymous_namespace</text>
<text text-anchor="middle" x="651" y="-389" font-family="Helvetica,sans-Serif" font-size="10.00">{SAT_Kepler::cpp}::F</text>
</a>
</g>
</g>
<!-- Node9&#45;&gt;Node10 -->
<g id="edge10" class="edge"><title>Node9&#45;&gt;Node10</title>
<path fill="none" stroke="midnightblue" d="M539.248,-401.713C551.164,-401.206 565.387,-400.601 579.605,-399.996"/>
<polygon fill="midnightblue" stroke="midnightblue" points="580.081,-403.479 589.923,-399.556 579.783,-396.485 580.081,-403.479"/>
</g>
<!-- Node11 -->
<g id="node11" class="node"><title>Node11</title>
<g id="a_node11"><a xlink:href="namespaceanonymous__namespace_02SAT__Kepler_8cpp_03.html#ae5d42531d691a174363f296c22d23217" target="_top" xlink:title="anonymous_namespace\l\{SAT_Kepler::cpp\}::Modulo">
<polygon fill="white" stroke="black" points="584,-431 584,-461 718,-461 718,-431 584,-431"/>
<text text-anchor="start" x="592" y="-449" font-family="Helvetica,sans-Serif" font-size="10.00">anonymous_namespace</text>
<text text-anchor="middle" x="651" y="-438" font-family="Helvetica,sans-Serif" font-size="10.00">{SAT_Kepler::cpp}::Modulo</text>
</a>
</g>
</g>
<!-- Node9&#45;&gt;Node11 -->
<g id="edge11" class="edge"><title>Node9&#45;&gt;Node11</title>
<path fill="none" stroke="midnightblue" d="M539.248,-412.225C554.337,-416.826 573.125,-422.556 590.917,-427.982"/>
<polygon fill="midnightblue" stroke="midnightblue" points="590.083,-431.386 600.669,-430.956 592.125,-424.691 590.083,-431.386"/>
</g>
<!-- Node12 -->
<g id="node12" class="node"><title>Node12</title>
<g id="a_node12"><a xlink:href="namespaceanonymous__namespace_02SAT__Force_8cpp_03.html#aa6826b33621fa6ff5736c6432c487c1a" target="_top" xlink:title="anonymous_namespace\l\{SAT_Force::cpp\}::Frac">
<polygon fill="white" stroke="black" points="754,-453 754,-483 876,-483 876,-453 754,-453"/>
<text text-anchor="start" x="762" y="-471" font-family="Helvetica,sans-Serif" font-size="10.00">anonymous_namespace</text>
<text text-anchor="middle" x="815" y="-460" font-family="Helvetica,sans-Serif" font-size="10.00">{SAT_Force::cpp}::Frac</text>
</a>
</g>
</g>
<!-- Node11&#45;&gt;Node12 -->
<g id="edge12" class="edge"><title>Node11&#45;&gt;Node12</title>
<path fill="none" stroke="midnightblue" d="M718.359,-455.012C726.838,-456.163 735.538,-457.345 744.07,-458.503"/>
<polygon fill="midnightblue" stroke="midnightblue" points="743.607,-461.973 753.987,-459.85 744.549,-455.036 743.607,-461.973"/>
</g>
<!-- Node15&#45;&gt;Node14 -->
<g id="edge16" class="edge"><title>Node15&#45;&gt;Node14</title>
<path fill="none" stroke="midnightblue" d="M177.043,-285.549C184.474,-288.48 192.603,-291.783 200,-295 218.333,-302.972 238.679,-312.648 254.265,-320.241"/>
<polygon fill="midnightblue" stroke="midnightblue" points="252.774,-323.408 263.293,-324.666 255.854,-317.122 252.774,-323.408"/>
</g>
<!-- Node16 -->
<g id="node16" class="node"><title>Node16</title>
<g id="a_node16"><a xlink:href="SAT__VecMat_8cpp.html#a66b3b116958d5c2f1c528faa04c71674" target="_top" xlink:title="R_y">
<polygon fill="white" stroke="black" points="263.5,-209.5 263.5,-228.5 298.5,-228.5 298.5,-209.5 263.5,-209.5"/>
<text text-anchor="middle" x="281" y="-216.5" font-family="Helvetica,sans-Serif" font-size="10.00">R_y</text>
</a>
</g>
</g>
<!-- Node15&#45;&gt;Node16 -->
<g id="edge17" class="edge"><title>Node15&#45;&gt;Node16</title>
<path fill="none" stroke="midnightblue" d="M177.627,-266.451C184.924,-263.572 192.835,-260.297 200,-257 216.435,-249.437 219.683,-245.814 236,-238 241.673,-235.283 247.832,-232.514 253.696,-229.961"/>
<polygon fill="midnightblue" stroke="midnightblue" points="255.332,-233.068 263.147,-225.914 252.576,-226.633 255.332,-233.068"/>
</g>
<!-- Node17&#45;&gt;Node16 -->
<g id="edge19" class="edge"><title>Node17&#45;&gt;Node16</title>
<path fill="none" stroke="midnightblue" d="M182.659,-233.449C204.199,-230.252 232.729,-226.017 253.328,-222.959"/>
<polygon fill="midnightblue" stroke="midnightblue" points="253.92,-226.41 263.298,-221.479 252.893,-219.486 253.92,-226.41"/>
</g>
<!-- Node18 -->
<g id="node18" class="node"><title>Node18</title>
<g id="a_node18"><a xlink:href="classIERS.html#aa6619a8885c83540cf92a32510285edb" target="_top" xlink:title="IERS::x_pole">
<polygon fill="white" stroke="black" points="243.5,-171.5 243.5,-190.5 318.5,-190.5 318.5,-171.5 243.5,-171.5"/>
<text text-anchor="middle" x="281" y="-178.5" font-family="Helvetica,sans-Serif" font-size="10.00">IERS::x_pole</text>
</a>
</g>
</g>
<!-- Node17&#45;&gt;Node18 -->
<g id="edge20" class="edge"><title>Node17&#45;&gt;Node18</title>
<path fill="none" stroke="midnightblue" d="M177.627,-228.451C184.924,-225.572 192.835,-222.297 200,-219 216.435,-211.437 219.683,-207.814 236,-200 239.799,-198.181 243.816,-196.338 247.817,-194.552"/>
<polygon fill="midnightblue" stroke="midnightblue" points="249.254,-197.743 257.011,-190.526 246.446,-191.331 249.254,-197.743"/>
</g>
<!-- Node17&#45;&gt;Node13 -->
<g id="edge21" class="edge"><title>Node17&#45;&gt;Node13</title>
<path fill="none" stroke="midnightblue" d="M182.659,-242.551C204.199,-245.748 232.729,-249.983 253.328,-253.041"/>
<polygon fill="midnightblue" stroke="midnightblue" points="252.893,-256.514 263.298,-254.521 253.92,-249.59 252.893,-256.514"/>
</g>
<!-- Node19 -->
<g id="node19" class="node"><title>Node19</title>
<g id="a_node19"><a xlink:href="classIERS.html#a685869b1f1ac92c0595f8be01307a2ce" target="_top" xlink:title="IERS::y_pole">
<polygon fill="white" stroke="black" points="243.5,-133.5 243.5,-152.5 318.5,-152.5 318.5,-133.5 243.5,-133.5"/>
<text text-anchor="middle" x="281" y="-140.5" font-family="Helvetica,sans-Serif" font-size="10.00">IERS::y_pole</text>
</a>
</g>
</g>
<!-- Node17&#45;&gt;Node19 -->
<g id="edge22" class="edge"><title>Node17&#45;&gt;Node19</title>
<path fill="none" stroke="midnightblue" d="M182.545,-229.263C188.729,-226.606 194.894,-223.233 200,-219 223.067,-199.877 213.23,-181.475 236,-162 237.937,-160.344 240.039,-158.812 242.241,-157.398"/>
<polygon fill="midnightblue" stroke="midnightblue" points="244.016,-160.416 251.08,-152.52 240.634,-154.288 244.016,-160.416"/>
</g>
<!-- Node21&#45;&gt;Node14 -->
<g id="edge25" class="edge"><title>Node21&#45;&gt;Node14</title>
<path fill="none" stroke="midnightblue" d="M183.64,-347.303C204.977,-344.136 232.825,-340.003 253.093,-336.994"/>
<polygon fill="midnightblue" stroke="midnightblue" points="253.827,-340.424 263.205,-335.493 252.799,-333.499 253.827,-340.424"/>
</g>
<!-- Node22 -->
<g id="node22" class="node"><title>Node22</title>
<g id="a_node22"><a xlink:href="SAT__RefSys_8cpp.html#a120de1171391bce3ca4111e46331a93c" target="_top" xlink:title="GAST">
<polygon fill="white" stroke="black" points="259,-399.5 259,-418.5 303,-418.5 303,-399.5 259,-399.5"/>
<text text-anchor="middle" x="281" y="-406.5" font-family="Helvetica,sans-Serif" font-size="10.00">GAST</text>
</a>
</g>
</g>
<!-- Node21&#45;&gt;Node22 -->
<g id="edge26" class="edge"><title>Node21&#45;&gt;Node22</title>
<path fill="none" stroke="midnightblue" d="M177.043,-361.549C184.474,-364.48 192.603,-367.783 200,-371 217.235,-378.494 236.249,-387.495 251.414,-394.855"/>
<polygon fill="midnightblue" stroke="midnightblue" points="250.245,-398.179 260.767,-399.422 253.317,-391.889 250.245,-398.179"/>
</g>
<!-- Node22&#45;&gt;Node11 -->
<g id="edge27" class="edge"><title>Node22&#45;&gt;Node11</title>
<path fill="none" stroke="midnightblue" d="M303.199,-415.081C319.213,-419.418 341.809,-424.994 362,-428 433.286,-438.613 515.403,-442.983 573.665,-444.774"/>
<polygon fill="midnightblue" stroke="midnightblue" points="573.797,-448.279 583.894,-445.069 573.999,-441.282 573.797,-448.279"/>
</g>
<!-- Node23 -->
<g id="node23" class="node"><title>Node23</title>
<g id="a_node23"><a xlink:href="SAT__RefSys_8cpp.html#a2a4cc14aa92a1449e08540255af19f8e" target="_top" xlink:title="GMST">
<polygon fill="white" stroke="black" points="485.5,-479.5 485.5,-498.5 530.5,-498.5 530.5,-479.5 485.5,-479.5"/>
<text text-anchor="middle" x="508" y="-486.5" font-family="Helvetica,sans-Serif" font-size="10.00">GMST</text>
</a>
</g>
</g>
<!-- Node22&#45;&gt;Node23 -->
<g id="edge28" class="edge"><title>Node22&#45;&gt;Node23</title>
<path fill="none" stroke="midnightblue" d="M303.324,-416.528C310.775,-419.588 319.016,-423.476 326,-428 344.217,-439.8 342.613,-451.241 362,-461 398.054,-479.149 444.604,-485.565 475.103,-487.815"/>
<polygon fill="midnightblue" stroke="midnightblue" points="474.978,-491.314 485.178,-488.45 475.418,-484.328 474.978,-491.314"/>
</g>
<!-- Node24 -->
<g id="node24" class="node"><title>Node24</title>
<g id="a_node24"><a xlink:href="SAT__RefSys_8cpp.html#a1178917cf376ea4f15cea33c59028635" target="_top" xlink:title="EqnEquinox">
<polygon fill="white" stroke="black" points="362.5,-399.5 362.5,-418.5 431.5,-418.5 431.5,-399.5 362.5,-399.5"/>
<text text-anchor="middle" x="397" y="-406.5" font-family="Helvetica,sans-Serif" font-size="10.00">EqnEquinox</text>
</a>
</g>
</g>
<!-- Node22&#45;&gt;Node24 -->
<g id="edge30" class="edge"><title>Node22&#45;&gt;Node24</title>
<path fill="none" stroke="midnightblue" d="M303.175,-409C316.933,-409 335.373,-409 352.191,-409"/>
<polygon fill="midnightblue" stroke="midnightblue" points="352.397,-412.5 362.397,-409 352.397,-405.5 352.397,-412.5"/>
</g>
<!-- Node23&#45;&gt;Node12 -->
<g id="edge29" class="edge"><title>Node23&#45;&gt;Node12</title>
<path fill="none" stroke="midnightblue" d="M530.935,-487.49C574.783,-484.471 674.925,-477.576 743.531,-472.852"/>
<polygon fill="midnightblue" stroke="midnightblue" points="744.1,-476.321 753.836,-472.142 743.619,-469.338 744.1,-476.321"/>
</g>
<!-- Node24&#45;&gt;Node9 -->
<g id="edge31" class="edge"><title>Node24&#45;&gt;Node9</title>
<path fill="none" stroke="midnightblue" d="M431.593,-407.151C442.608,-406.545 454.966,-405.864 466.44,-405.233"/>
<polygon fill="midnightblue" stroke="midnightblue" points="466.873,-408.714 476.666,-404.67 466.488,-401.725 466.873,-408.714"/>
</g>
<!-- Node24&#45;&gt;Node8 -->
<g id="edge32" class="edge"><title>Node24&#45;&gt;Node8</title>
<path fill="none" stroke="midnightblue" d="M410.932,-399.272C429.451,-385.339 463.738,-359.546 485.945,-342.84"/>
<polygon fill="midnightblue" stroke="midnightblue" points="488.198,-345.525 494.085,-336.716 483.99,-339.931 488.198,-345.525"/>
</g>
<!-- Node28 -->
<g id="node28" class="node"><title>Node28</title>
<g id="a_node28"><a xlink:href="SAT__VecMat_8cpp.html#a71375a6ebee7fc40c1d45985175d82e5" target="_top" xlink:title="Dot">
<polygon fill="white" stroke="black" points="265,-76.5 265,-95.5 297,-95.5 297,-76.5 265,-76.5"/>
<text text-anchor="middle" x="281" y="-83.5" font-family="Helvetica,sans-Serif" font-size="10.00">Dot</text>
</a>
</g>
</g>
<!-- Node27&#45;&gt;Node28 -->
<g id="edge36" class="edge"><title>Node27&#45;&gt;Node28</title>
<path fill="none" stroke="midnightblue" d="M171.719,-86C193.977,-86 230.25,-86 254.608,-86"/>
<polygon fill="midnightblue" stroke="midnightblue" points="254.868,-89.5001 264.868,-86 254.868,-82.5001 254.868,-89.5001"/>
</g>
<!-- Node30 -->
<g id="node30" class="node"><title>Node30</title>
<g id="a_node30"><a xlink:href="classMatrix.html#ae9f1574a9cf6595c64ce1236a8003cd2" target="_top" xlink:title="Matrix::SetCol">
<polygon fill="white" stroke="black" points="241,-38.5 241,-57.5 321,-57.5 321,-38.5 241,-38.5"/>
<text text-anchor="middle" x="281" y="-45.5" font-family="Helvetica,sans-Serif" font-size="10.00">Matrix::SetCol</text>
</a>
</g>
</g>
<!-- Node29&#45;&gt;Node30 -->
<g id="edge38" class="edge"><title>Node29&#45;&gt;Node30</title>
<path fill="none" stroke="midnightblue" d="M189.023,-48C201.967,-48 216.713,-48 230.51,-48"/>
<polygon fill="midnightblue" stroke="midnightblue" points="230.829,-51.5001 240.829,-48 230.829,-44.5001 230.829,-51.5001"/>
</g>
<!-- Node31 -->
<g id="node31" class="node"><title>Node31</title>
<g id="a_node31"><a xlink:href="classVector.html#a3c8f59182463d6da833e7856f06e6171" target="_top" xlink:title="Vector::size">
<polygon fill="white" stroke="black" points="362.5,-19.5 362.5,-38.5 431.5,-38.5 431.5,-19.5 362.5,-19.5"/>
<text text-anchor="middle" x="397" y="-26.5" font-family="Helvetica,sans-Serif" font-size="10.00">Vector::size</text>
</a>
</g>
</g>
<!-- Node30&#45;&gt;Node31 -->
<g id="edge39" class="edge"><title>Node30&#45;&gt;Node31</title>
<path fill="none" stroke="midnightblue" d="M321.232,-41.4613C331.28,-39.7867 342.146,-37.9757 352.398,-36.267"/>
<polygon fill="midnightblue" stroke="midnightblue" points="353.105,-39.6975 362.394,-34.6011 351.954,-32.7928 353.105,-39.6975"/>
</g>
<!-- Node32 -->
<g id="node32" class="node"><title>Node32</title>
<g id="a_node32"><a xlink:href="classMatrix.html#a02c825325655a07eb94e4a57478a4c18" target="_top" xlink:title="Matrix::Col">
<polygon fill="white" stroke="black" points="364.5,-57.5 364.5,-76.5 429.5,-76.5 429.5,-57.5 364.5,-57.5"/>
<text text-anchor="middle" x="397" y="-64.5" font-family="Helvetica,sans-Serif" font-size="10.00">Matrix::Col</text>
</a>
</g>
</g>
<!-- Node30&#45;&gt;Node32 -->
<g id="edge40" class="edge"><title>Node30&#45;&gt;Node32</title>
<path fill="none" stroke="midnightblue" d="M321.232,-54.5387C331.872,-56.3121 343.43,-58.2384 354.206,-60.0344"/>
<polygon fill="midnightblue" stroke="midnightblue" points="353.803,-63.5154 364.242,-61.707 354.954,-56.6106 353.803,-63.5154"/>
</g>
</g>
</svg>
