<?xml version="1.0" encoding="UTF-8" standalone="no"?>
<!DOCTYPE svg PUBLIC "-//W3C//DTD SVG 1.1//EN"
 "http://www.w3.org/Graphics/SVG/1.1/DTD/svg11.dtd">
<!-- Generated by graphviz version 2.30.1 (20180420.1509)
 -->
<!-- Title: VarEqn Pages: 1 -->
<svg width="462pt" height="335pt"
 viewBox="0.00 0.00 462.00 335.00" xmlns="http://www.w3.org/2000/svg" xmlns:xlink="http://www.w3.org/1999/xlink">
<g id="graph0" class="graph" transform="scale(1 1) rotate(0) translate(4 331)">
<title>VarEqn</title>
<polygon fill="white" stroke="white" points="-4,5 -4,-331 459,-331 459,5 -4,5"/>
<!-- Node1 -->
<g id="node1" class="node"><title>Node1</title>
<polygon fill="#bfbfbf" stroke="black" points="0.5,-250.5 0.5,-269.5 49.5,-269.5 49.5,-250.5 0.5,-250.5"/>
<text text-anchor="middle" x="25" y="-257.5" font-family="Helvetica,sans-Serif" font-size="10.00">VarEqn</text>
</g>
<!-- Node2 -->
<g id="node2" class="node"><title>Node2</title>
<g id="a_node2"><a xlink:href="GEODA_8cpp.html#ad363d83dfb0be87465bd76a2e5e0ff6b" target="_top" xlink:title="Phi">
<polygon fill="white" stroke="black" points="110.5,-307.5 110.5,-326.5 141.5,-326.5 141.5,-307.5 110.5,-307.5"/>
<text text-anchor="middle" x="126" y="-314.5" font-family="Helvetica,sans-Serif" font-size="10.00">Phi</text>
</a>
</g>
</g>
<!-- Node1&#45;&gt;Node2 -->
<g id="edge1" class="edge"><title>Node1&#45;&gt;Node2</title>
<path fill="none" stroke="midnightblue" d="M40.0347,-269.515C52.0257,-277.491 69.8491,-288.988 86,-298 90.8094,-300.684 96.0534,-303.384 101.091,-305.873"/>
<polygon fill="midnightblue" stroke="midnightblue" points="99.8287,-309.15 110.357,-310.339 102.868,-302.844 99.8287,-309.15"/>
</g>
<!-- Node3 -->
<g id="node3" class="node"><title>Node3</title>
<g id="a_node3"><a xlink:href="classVector.html#ae58ec75ebd2a2d60775c2e0ee98a35ae" target="_top" xlink:title="Vector::slice">
<polygon fill="white" stroke="black" points="90.5,-269.5 90.5,-288.5 161.5,-288.5 161.5,-269.5 90.5,-269.5"/>
<text text-anchor="middle" x="126" y="-276.5" font-family="Helvetica,sans-Serif" font-size="10.00">Vector::slice</text>
</a>
</g>
</g>
<!-- Node1&#45;&gt;Node3 -->
<g id="edge2" class="edge"><title>Node1&#45;&gt;Node3</title>
<path fill="none" stroke="midnightblue" d="M49.713,-264.551C58.9031,-266.315 69.7385,-268.394 80.2819,-270.418"/>
<polygon fill="midnightblue" stroke="midnightblue" points="79.7572,-273.881 90.2377,-272.328 81.0766,-267.006 79.7572,-273.881"/>
</g>
<!-- Node4 -->
<g id="node4" class="node"><title>Node4</title>
<g id="a_node4"><a xlink:href="classMatrix.html#ae9f1574a9cf6595c64ce1236a8003cd2" target="_top" xlink:title="Matrix::SetCol">
<polygon fill="white" stroke="black" points="86,-231.5 86,-250.5 166,-250.5 166,-231.5 86,-231.5"/>
<text text-anchor="middle" x="126" y="-238.5" font-family="Helvetica,sans-Serif" font-size="10.00">Matrix::SetCol</text>
</a>
</g>
</g>
<!-- Node1&#45;&gt;Node4 -->
<g id="edge3" class="edge"><title>Node1&#45;&gt;Node4</title>
<path fill="none" stroke="midnightblue" d="M49.713,-255.449C57.5266,-253.949 66.5296,-252.222 75.5313,-250.494"/>
<polygon fill="midnightblue" stroke="midnightblue" points="76.4693,-253.878 85.6304,-248.556 75.1499,-247.003 76.4693,-253.878"/>
</g>
<!-- Node7 -->
<g id="node7" class="node"><title>Node7</title>
<g id="a_node7"><a xlink:href="RTOD_8cpp.html#ad928b0e88089fe577162bad47f911adf" target="_top" xlink:title="Accel">
<polygon fill="white" stroke="black" points="105.5,-136.5 105.5,-155.5 146.5,-155.5 146.5,-136.5 105.5,-136.5"/>
<text text-anchor="middle" x="126" y="-143.5" font-family="Helvetica,sans-Serif" font-size="10.00">Accel</text>
</a>
</g>
</g>
<!-- Node1&#45;&gt;Node7 -->
<g id="edge6" class="edge"><title>Node1&#45;&gt;Node7</title>
<path fill="none" stroke="midnightblue" d="M34.4407,-250.28C51.1719,-231.014 88.7465,-187.746 109.86,-163.434"/>
<polygon fill="midnightblue" stroke="midnightblue" points="112.666,-165.54 116.581,-155.695 107.381,-160.95 112.666,-165.54"/>
</g>
<!-- Node5 -->
<g id="node5" class="node"><title>Node5</title>
<g id="a_node5"><a xlink:href="classVector.html#a3c8f59182463d6da833e7856f06e6171" target="_top" xlink:title="Vector::size">
<polygon fill="white" stroke="black" points="214.5,-269.5 214.5,-288.5 283.5,-288.5 283.5,-269.5 214.5,-269.5"/>
<text text-anchor="middle" x="249" y="-276.5" font-family="Helvetica,sans-Serif" font-size="10.00">Vector::size</text>
</a>
</g>
</g>
<!-- Node4&#45;&gt;Node5 -->
<g id="edge4" class="edge"><title>Node4&#45;&gt;Node5</title>
<path fill="none" stroke="midnightblue" d="M157.533,-250.589C172.723,-255.359 191.285,-261.189 207.633,-266.323"/>
<polygon fill="midnightblue" stroke="midnightblue" points="206.887,-269.757 217.476,-269.414 208.984,-263.079 206.887,-269.757"/>
</g>
<!-- Node6 -->
<g id="node6" class="node"><title>Node6</title>
<g id="a_node6"><a xlink:href="classMatrix.html#a02c825325655a07eb94e4a57478a4c18" target="_top" xlink:title="Matrix::Col">
<polygon fill="white" stroke="black" points="216.5,-231.5 216.5,-250.5 281.5,-250.5 281.5,-231.5 216.5,-231.5"/>
<text text-anchor="middle" x="249" y="-238.5" font-family="Helvetica,sans-Serif" font-size="10.00">Matrix::Col</text>
</a>
</g>
</g>
<!-- Node4&#45;&gt;Node6 -->
<g id="edge5" class="edge"><title>Node4&#45;&gt;Node6</title>
<path fill="none" stroke="midnightblue" d="M166.285,-241C179.027,-241 193.205,-241 206.128,-241"/>
<polygon fill="midnightblue" stroke="midnightblue" points="206.17,-244.5 216.17,-241 206.17,-237.5 206.17,-244.5"/>
</g>
<!-- Node8 -->
<g id="node8" class="node"><title>Node8</title>
<g id="a_node8"><a xlink:href="classIERS.html#a2601a074a58e3c470db336bc1aea6791" target="_top" xlink:title="IERS::UT1_UTC">
<polygon fill="white" stroke="black" points="203,-193.5 203,-212.5 295,-212.5 295,-193.5 203,-193.5"/>
<text text-anchor="middle" x="249" y="-200.5" font-family="Helvetica,sans-Serif" font-size="10.00">IERS::UT1_UTC</text>
</a>
</g>
</g>
<!-- Node7&#45;&gt;Node8 -->
<g id="edge7" class="edge"><title>Node7&#45;&gt;Node8</title>
<path fill="none" stroke="midnightblue" d="M144.995,-155.611C160.07,-163.542 182.234,-174.927 202,-184 206.086,-185.876 210.411,-187.774 214.71,-189.607"/>
<polygon fill="midnightblue" stroke="midnightblue" points="213.398,-192.853 223.974,-193.486 216.101,-186.396 213.398,-192.853"/>
</g>
<!-- Node11 -->
<g id="node11" class="node"><title>Node11</title>
<g id="a_node11"><a xlink:href="classIERS.html#a79c2d9fcfafe0c0d8cee4545e17af0f3" target="_top" xlink:title="IERS::GPS_UTC">
<polygon fill="white" stroke="black" points="202,-155.5 202,-174.5 296,-174.5 296,-155.5 202,-155.5"/>
<text text-anchor="middle" x="249" y="-162.5" font-family="Helvetica,sans-Serif" font-size="10.00">IERS::GPS_UTC</text>
</a>
</g>
</g>
<!-- Node7&#45;&gt;Node11 -->
<g id="edge10" class="edge"><title>Node7&#45;&gt;Node11</title>
<path fill="none" stroke="midnightblue" d="M146.71,-149.095C159.077,-151.037 175.7,-153.647 191.9,-156.191"/>
<polygon fill="midnightblue" stroke="midnightblue" points="191.468,-159.666 201.89,-157.76 192.554,-152.751 191.468,-159.666"/>
</g>
<!-- Node12 -->
<g id="node12" class="node"><title>Node12</title>
<g id="a_node12"><a xlink:href="SAT__VecMat_8cpp.html#a94c9c4e1f3afc6636dda6572f72ef4c2" target="_top" xlink:title="R_z">
<polygon fill="white" stroke="black" points="231.5,-117.5 231.5,-136.5 266.5,-136.5 266.5,-117.5 231.5,-117.5"/>
<text text-anchor="middle" x="249" y="-124.5" font-family="Helvetica,sans-Serif" font-size="10.00">R_z</text>
</a>
</g>
</g>
<!-- Node7&#45;&gt;Node12 -->
<g id="edge12" class="edge"><title>Node7&#45;&gt;Node12</title>
<path fill="none" stroke="midnightblue" d="M146.71,-142.905C167.059,-139.71 198.933,-134.705 221.484,-131.164"/>
<polygon fill="midnightblue" stroke="midnightblue" points="222.077,-134.613 231.413,-129.605 220.991,-127.698 222.077,-134.613"/>
</g>
<!-- Node13 -->
<g id="node13" class="node"><title>Node13</title>
<g id="a_node13"><a xlink:href="SAT__RefSys_8cpp.html#a2a4cc14aa92a1449e08540255af19f8e" target="_top" xlink:title="GMST">
<polygon fill="white" stroke="black" points="226.5,-79.5 226.5,-98.5 271.5,-98.5 271.5,-79.5 226.5,-79.5"/>
<text text-anchor="middle" x="249" y="-86.5" font-family="Helvetica,sans-Serif" font-size="10.00">GMST</text>
</a>
</g>
</g>
<!-- Node7&#45;&gt;Node13 -->
<g id="edge13" class="edge"><title>Node7&#45;&gt;Node13</title>
<path fill="none" stroke="midnightblue" d="M144.995,-136.389C160.07,-128.458 182.234,-117.073 202,-108 206.785,-105.803 211.899,-103.576 216.913,-101.457"/>
<polygon fill="midnightblue" stroke="midnightblue" points="218.427,-104.618 226.322,-97.5519 215.744,-98.1529 218.427,-104.618"/>
</g>
<!-- Node15 -->
<g id="node15" class="node"><title>Node15</title>
<g id="a_node15"><a xlink:href="SAT__Force_8cpp.html#a35b54a3eda29b936098b3cc869d6c381" target="_top" xlink:title="AccelHarmonic">
<polygon fill="white" stroke="black" points="207.5,-38.5 207.5,-57.5 290.5,-57.5 290.5,-38.5 207.5,-38.5"/>
<text text-anchor="middle" x="249" y="-45.5" font-family="Helvetica,sans-Serif" font-size="10.00">AccelHarmonic</text>
</a>
</g>
</g>
<!-- Node7&#45;&gt;Node15 -->
<g id="edge15" class="edge"><title>Node7&#45;&gt;Node15</title>
<path fill="none" stroke="midnightblue" d="M134.869,-136.043C147.629,-120.395 174.221,-89.7924 202,-70 205.938,-67.194 210.29,-64.5838 214.7,-62.2136"/>
<polygon fill="midnightblue" stroke="midnightblue" points="216.343,-65.3053 223.719,-57.6997 213.21,-59.0455 216.343,-65.3053"/>
</g>
<!-- Node9 -->
<g id="node9" class="node"><title>Node9</title>
<g id="a_node9"><a xlink:href="classIERS.html#acfce0b1a43896fed7b1bf9cefe3baebd" target="_top" xlink:title="IERS::UT1_TAI">
<polygon fill="white" stroke="black" points="350,-193.5 350,-212.5 436,-212.5 436,-193.5 350,-193.5"/>
<text text-anchor="middle" x="393" y="-200.5" font-family="Helvetica,sans-Serif" font-size="10.00">IERS::UT1_TAI</text>
</a>
</g>
</g>
<!-- Node8&#45;&gt;Node9 -->
<g id="edge8" class="edge"><title>Node8&#45;&gt;Node9</title>
<path fill="none" stroke="midnightblue" d="M295.32,-203C309.297,-203 324.809,-203 339.242,-203"/>
<polygon fill="midnightblue" stroke="midnightblue" points="339.523,-206.5 349.523,-203 339.523,-199.5 339.523,-206.5"/>
</g>
<!-- Node10 -->
<g id="node10" class="node"><title>Node10</title>
<g id="a_node10"><a xlink:href="classIERS.html#ad872e267797cb8d5be328b236287565f" target="_top" xlink:title="IERS::UTC_TAI">
<polygon fill="white" stroke="black" points="348.5,-155.5 348.5,-174.5 437.5,-174.5 437.5,-155.5 348.5,-155.5"/>
<text text-anchor="middle" x="393" y="-162.5" font-family="Helvetica,sans-Serif" font-size="10.00">IERS::UTC_TAI</text>
</a>
</g>
</g>
<!-- Node8&#45;&gt;Node10 -->
<g id="edge9" class="edge"><title>Node8&#45;&gt;Node10</title>
<path fill="none" stroke="midnightblue" d="M285.833,-193.411C304.163,-188.506 326.678,-182.48 346.25,-177.243"/>
<polygon fill="midnightblue" stroke="midnightblue" points="347.424,-180.552 356.179,-174.586 345.614,-173.79 347.424,-180.552"/>
</g>
<!-- Node11&#45;&gt;Node10 -->
<g id="edge11" class="edge"><title>Node11&#45;&gt;Node10</title>
<path fill="none" stroke="midnightblue" d="M296.103,-165C309.397,-165 324.024,-165 337.763,-165"/>
<polygon fill="midnightblue" stroke="midnightblue" points="338.059,-168.5 348.059,-165 338.059,-161.5 338.059,-168.5"/>
</g>
<!-- Node14 -->
<g id="node14" class="node"><title>Node14</title>
<g id="a_node14"><a xlink:href="namespaceanonymous__namespace_02SAT__Force_8cpp_03.html#aa6826b33621fa6ff5736c6432c487c1a" target="_top" xlink:title="anonymous_namespace\l\{SAT_Force::cpp\}::Frac">
<polygon fill="white" stroke="black" points="332,-77 332,-107 454,-107 454,-77 332,-77"/>
<text text-anchor="start" x="340" y="-95" font-family="Helvetica,sans-Serif" font-size="10.00">anonymous_namespace</text>
<text text-anchor="middle" x="393" y="-84" font-family="Helvetica,sans-Serif" font-size="10.00">{SAT_Force::cpp}::Frac</text>
</a>
</g>
</g>
<!-- Node13&#45;&gt;Node14 -->
<g id="edge14" class="edge"><title>Node13&#45;&gt;Node14</title>
<path fill="none" stroke="midnightblue" d="M271.567,-89.4556C285.118,-89.7419 303.438,-90.129 321.697,-90.5147"/>
<polygon fill="midnightblue" stroke="midnightblue" points="321.732,-94.0161 331.803,-90.7282 321.88,-87.0177 321.732,-94.0161"/>
</g>
<!-- Node16 -->
<g id="node16" class="node"><title>Node16</title>
<g id="a_node16"><a xlink:href="SAT__VecMat_8cpp.html#a71375a6ebee7fc40c1d45985175d82e5" target="_top" xlink:title="Dot">
<polygon fill="white" stroke="black" points="377,-38.5 377,-57.5 409,-57.5 409,-38.5 377,-38.5"/>
<text text-anchor="middle" x="393" y="-45.5" font-family="Helvetica,sans-Serif" font-size="10.00">Dot</text>
</a>
</g>
</g>
<!-- Node15&#45;&gt;Node16 -->
<g id="edge16" class="edge"><title>Node15&#45;&gt;Node16</title>
<path fill="none" stroke="midnightblue" d="M290.692,-48C315.257,-48 345.783,-48 366.87,-48"/>
<polygon fill="midnightblue" stroke="midnightblue" points="366.955,-51.5001 376.955,-48 366.955,-44.5001 366.955,-51.5001"/>
</g>
<!-- Node17 -->
<g id="node17" class="node"><title>Node17</title>
<g id="a_node17"><a xlink:href="SAT__VecMat_8cpp.html#aa54829a0c63c78e6bfbd12285ad94075" target="_top" xlink:title="Transp">
<polygon fill="white" stroke="black" points="369.5,-0.5 369.5,-19.5 416.5,-19.5 416.5,-0.5 369.5,-0.5"/>
<text text-anchor="middle" x="393" y="-7.5" font-family="Helvetica,sans-Serif" font-size="10.00">Transp</text>
</a>
</g>
</g>
<!-- Node15&#45;&gt;Node17 -->
<g id="edge17" class="edge"><title>Node15&#45;&gt;Node17</title>
<path fill="none" stroke="midnightblue" d="M285.833,-38.411C308.53,-32.3372 337.641,-24.5468 359.638,-18.6603"/>
<polygon fill="midnightblue" stroke="midnightblue" points="360.744,-21.9874 369.5,-16.0212 358.935,-15.2253 360.744,-21.9874"/>
</g>
</g>
</svg>
