<?xml version="1.0" encoding="UTF-8" standalone="no"?>
<!DOCTYPE svg PUBLIC "-//W3C//DTD SVG 1.1//EN"
 "http://www.w3.org/Graphics/SVG/1.1/DTD/svg11.dtd">
<!-- Generated by graphviz version 2.30.1 (20180420.1509)
 -->
<!-- Title: GetSetup Pages: 1 -->
<svg width="314pt" height="104pt"
 viewBox="0.00 0.00 314.00 104.00" xmlns="http://www.w3.org/2000/svg" xmlns:xlink="http://www.w3.org/1999/xlink">
<g id="graph0" class="graph" transform="scale(1 1) rotate(0) translate(4 100)">
<title>GetSetup</title>
<polygon fill="white" stroke="white" points="-4,5 -4,-100 311,-100 311,5 -4,5"/>
<!-- Node1 -->
<g id="node1" class="node"><title>Node1</title>
<polygon fill="#bfbfbf" stroke="black" points="0,-38.5 0,-57.5 58,-57.5 58,-38.5 0,-38.5"/>
<text text-anchor="middle" x="29" y="-45.5" font-family="Helvetica,sans-Serif" font-size="10.00">GetSetup</text>
</g>
<!-- Node2 -->
<g id="node2" class="node"><title>Node2</title>
<g id="a_node2"><a xlink:href="classIERS.html#ae1161daecc9629cdb716884cef9d1fa9" target="_top" xlink:title="IERS::Set">
<polygon fill="white" stroke="black" points="106,-76.5 106,-95.5 168,-95.5 168,-76.5 106,-76.5"/>
<text text-anchor="middle" x="137" y="-83.5" font-family="Helvetica,sans-Serif" font-size="10.00">IERS::Set</text>
</a>
</g>
</g>
<!-- Node1&#45;&gt;Node2 -->
<g id="edge1" class="edge"><title>Node1&#45;&gt;Node2</title>
<path fill="none" stroke="midnightblue" d="M56.7483,-57.589C69.8042,-62.2694 85.7035,-67.9692 99.8248,-73.0315"/>
<polygon fill="midnightblue" stroke="midnightblue" points="98.6657,-76.3341 109.26,-76.4141 101.028,-69.7447 98.6657,-76.3341"/>
</g>
<!-- Node4 -->
<g id="node4" class="node"><title>Node4</title>
<g id="a_node4"><a xlink:href="SAT__Time_8cpp.html#a5c8f481874f5f0d660aa2c5edebdc29f" target="_top" xlink:title="Mjd">
<polygon fill="white" stroke="black" points="121,-38.5 121,-57.5 153,-57.5 153,-38.5 121,-38.5"/>
<text text-anchor="middle" x="137" y="-45.5" font-family="Helvetica,sans-Serif" font-size="10.00">Mjd</text>
</a>
</g>
</g>
<!-- Node1&#45;&gt;Node4 -->
<g id="edge3" class="edge"><title>Node1&#45;&gt;Node4</title>
<path fill="none" stroke="midnightblue" d="M58.1278,-48C74.4733,-48 94.9007,-48 110.732,-48"/>
<polygon fill="midnightblue" stroke="midnightblue" points="110.852,-51.5001 120.852,-48 110.851,-44.5001 110.852,-51.5001"/>
</g>
<!-- Node5 -->
<g id="node5" class="node"><title>Node5</title>
<g id="a_node5"><a xlink:href="classIERS.html#abe17029c05804e5886ae14eae119c0f1" target="_top" xlink:title="IERS::TT_UTC">
<polygon fill="white" stroke="black" points="94.5,-0.5 94.5,-19.5 179.5,-19.5 179.5,-0.5 94.5,-0.5"/>
<text text-anchor="middle" x="137" y="-7.5" font-family="Helvetica,sans-Serif" font-size="10.00">IERS::TT_UTC</text>
</a>
</g>
</g>
<!-- Node1&#45;&gt;Node5 -->
<g id="edge4" class="edge"><title>Node1&#45;&gt;Node5</title>
<path fill="none" stroke="midnightblue" d="M56.7483,-38.411C69.8042,-33.7306 85.7035,-28.0308 99.8248,-22.9685"/>
<polygon fill="midnightblue" stroke="midnightblue" points="101.028,-26.2553 109.26,-19.5859 98.6657,-19.6659 101.028,-26.2553"/>
</g>
<!-- Node3 -->
<g id="node3" class="node"><title>Node3</title>
<g id="a_node3"><a xlink:href="classIERS.html#ad872e267797cb8d5be328b236287565f" target="_top" xlink:title="IERS::UTC_TAI">
<polygon fill="white" stroke="black" points="216.5,-38.5 216.5,-57.5 305.5,-57.5 305.5,-38.5 216.5,-38.5"/>
<text text-anchor="middle" x="261" y="-45.5" font-family="Helvetica,sans-Serif" font-size="10.00">IERS::UTC_TAI</text>
</a>
</g>
</g>
<!-- Node2&#45;&gt;Node3 -->
<g id="edge2" class="edge"><title>Node2&#45;&gt;Node3</title>
<path fill="none" stroke="midnightblue" d="M168.157,-76.6067C183.729,-71.7564 202.941,-65.7726 219.761,-60.5336"/>
<polygon fill="midnightblue" stroke="midnightblue" points="220.835,-63.8647 229.342,-57.5491 218.754,-57.1814 220.835,-63.8647"/>
</g>
<!-- Node5&#45;&gt;Node3 -->
<g id="edge5" class="edge"><title>Node5&#45;&gt;Node3</title>
<path fill="none" stroke="midnightblue" d="M168.786,-19.589C184.101,-24.3594 202.817,-30.1888 219.3,-35.3229"/>
<polygon fill="midnightblue" stroke="midnightblue" points="218.636,-38.7818 229.224,-38.4141 220.717,-32.0985 218.636,-38.7818"/>
</g>
</g>
</svg>
