<?xml version="1.0" encoding="UTF-8" standalone="no"?>
<!DOCTYPE svg PUBLIC "-//W3C//DTD SVG 1.1//EN"
 "http://www.w3.org/Graphics/SVG/1.1/DTD/svg11.dtd">
<!-- Generated by graphviz version 2.30.1 (20180420.1509)
 -->
<!-- Title: Accel Pages: 1 -->
<svg width="854pt" height="674pt"
 viewBox="0.00 0.00 854.00 674.00" xmlns="http://www.w3.org/2000/svg" xmlns:xlink="http://www.w3.org/1999/xlink">
<g id="graph0" class="graph" transform="scale(1 1) rotate(0) translate(4 670)">
<title>Accel</title>
<polygon fill="white" stroke="white" points="-4,5 -4,-670 851,-670 851,5 -4,5"/>
<!-- Node1 -->
<g id="node1" class="node"><title>Node1</title>
<polygon fill="#bfbfbf" stroke="black" points="0.5,-342.5 0.5,-361.5 41.5,-361.5 41.5,-342.5 0.5,-342.5"/>
<text text-anchor="middle" x="21" y="-349.5" font-family="Helvetica,sans-Serif" font-size="10.00">Accel</text>
</g>
<!-- Node2 -->
<g id="node2" class="node"><title>Node2</title>
<g id="a_node2"><a xlink:href="classIERS.html#a2601a074a58e3c470db336bc1aea6791" target="_top" xlink:title="IERS::UT1_UTC">
<polygon fill="white" stroke="black" points="78,-608.5 78,-627.5 170,-627.5 170,-608.5 78,-608.5"/>
<text text-anchor="middle" x="124" y="-615.5" font-family="Helvetica,sans-Serif" font-size="10.00">IERS::UT1_UTC</text>
</a>
</g>
</g>
<!-- Node1&#45;&gt;Node2 -->
<g id="edge1" class="edge"><title>Node1&#45;&gt;Node2</title>
<path fill="none" stroke="midnightblue" d="M21.7629,-361.678C21.3956,-396.193 24.2818,-515.174 78,-590 81.5752,-594.98 86.3374,-599.264 91.4266,-602.878"/>
<polygon fill="midnightblue" stroke="midnightblue" points="89.8136,-605.997 100.148,-608.33 93.5242,-600.061 89.8136,-605.997"/>
</g>
<!-- Node5 -->
<g id="node5" class="node"><title>Node5</title>
<g id="a_node5"><a xlink:href="classIERS.html#abe17029c05804e5886ae14eae119c0f1" target="_top" xlink:title="IERS::TT_UTC">
<polygon fill="white" stroke="black" points="81.5,-561.5 81.5,-580.5 166.5,-580.5 166.5,-561.5 81.5,-561.5"/>
<text text-anchor="middle" x="124" y="-568.5" font-family="Helvetica,sans-Serif" font-size="10.00">IERS::TT_UTC</text>
</a>
</g>
</g>
<!-- Node1&#45;&gt;Node5 -->
<g id="edge4" class="edge"><title>Node1&#45;&gt;Node5</title>
<path fill="none" stroke="midnightblue" d="M23.081,-361.853C26.6133,-390.504 39.8683,-475.403 78,-533 83.6376,-541.516 91.7257,-549.17 99.494,-555.34"/>
<polygon fill="midnightblue" stroke="midnightblue" points="97.5551,-558.26 107.667,-561.423 101.734,-552.645 97.5551,-558.26"/>
</g>
<!-- Node6 -->
<g id="node6" class="node"><title>Node6</title>
<g id="a_node6"><a xlink:href="SAT__RefSys_8cpp.html#a35e586a324741da54bc1e407a5586378" target="_top" xlink:title="NutMatrix">
<polygon fill="white" stroke="black" points="94.5,-418.5 94.5,-437.5 153.5,-437.5 153.5,-418.5 94.5,-418.5"/>
<text text-anchor="middle" x="124" y="-425.5" font-family="Helvetica,sans-Serif" font-size="10.00">NutMatrix</text>
</a>
</g>
</g>
<!-- Node1&#45;&gt;Node6 -->
<g id="edge6" class="edge"><title>Node1&#45;&gt;Node6</title>
<path fill="none" stroke="midnightblue" d="M34.7917,-361.625C51.791,-374.417 82.0348,-397.175 102.304,-412.427"/>
<polygon fill="midnightblue" stroke="midnightblue" points="100.217,-415.237 110.312,-418.453 104.426,-409.643 100.217,-415.237"/>
</g>
<!-- Node14 -->
<g id="node14" class="node"><title>Node14</title>
<g id="a_node14"><a xlink:href="SAT__RefSys_8cpp.html#abc2e56e609b82264ae010497b21dcba0" target="_top" xlink:title="PrecMatrix">
<polygon fill="white" stroke="black" points="92,-466.5 92,-485.5 156,-485.5 156,-466.5 92,-466.5"/>
<text text-anchor="middle" x="124" y="-473.5" font-family="Helvetica,sans-Serif" font-size="10.00">PrecMatrix</text>
</a>
</g>
</g>
<!-- Node1&#45;&gt;Node14 -->
<g id="edge14" class="edge"><title>Node1&#45;&gt;Node14</title>
<path fill="none" stroke="midnightblue" d="M25.8536,-361.588C33.5697,-379.891 52.3974,-420.357 78,-447 83.0191,-452.223 89.153,-456.954 95.2577,-461.008"/>
<polygon fill="midnightblue" stroke="midnightblue" points="93.7014,-464.16 104.048,-466.442 97.3822,-458.206 93.7014,-464.16"/>
</g>
<!-- Node16 -->
<g id="node16" class="node"><title>Node16</title>
<g id="a_node16"><a xlink:href="SAT__RefSys_8cpp.html#a9699d3dfbd482534e86059e5613f8b8c" target="_top" xlink:title="GHAMatrix">
<polygon fill="white" stroke="black" points="91.5,-504.5 91.5,-523.5 156.5,-523.5 156.5,-504.5 91.5,-504.5"/>
<text text-anchor="middle" x="124" y="-511.5" font-family="Helvetica,sans-Serif" font-size="10.00">GHAMatrix</text>
</a>
</g>
</g>
<!-- Node1&#45;&gt;Node16 -->
<g id="edge17" class="edge"><title>Node1&#45;&gt;Node16</title>
<path fill="none" stroke="midnightblue" d="M23.1884,-361.732C26.7685,-387.036 39.6762,-455.656 78,-495 79.4201,-496.458 80.9695,-497.809 82.6114,-499.062"/>
<polygon fill="midnightblue" stroke="midnightblue" points="81.0795,-502.23 91.4219,-504.529 84.7706,-496.283 81.0795,-502.23"/>
</g>
<!-- Node20 -->
<g id="node20" class="node"><title>Node20</title>
<g id="a_node20"><a xlink:href="SAT__Force_8cpp.html#a35b54a3eda29b936098b3cc869d6c381" target="_top" xlink:title="AccelHarmonic">
<polygon fill="white" stroke="black" points="82.5,-190.5 82.5,-209.5 165.5,-209.5 165.5,-190.5 82.5,-190.5"/>
<text text-anchor="middle" x="124" y="-197.5" font-family="Helvetica,sans-Serif" font-size="10.00">AccelHarmonic</text>
</a>
</g>
</g>
<!-- Node1&#45;&gt;Node20 -->
<g id="edge26" class="edge"><title>Node1&#45;&gt;Node20</title>
<path fill="none" stroke="midnightblue" d="M27.1489,-342.297C36.5549,-324.805 57.4465,-287.013 78,-257 87.3312,-243.374 98.8943,-228.77 107.963,-217.755"/>
<polygon fill="midnightblue" stroke="midnightblue" points="110.897,-219.701 114.61,-209.779 105.519,-215.22 110.897,-219.701"/>
</g>
<!-- Node23 -->
<g id="node23" class="node"><title>Node23</title>
<g id="a_node23"><a xlink:href="classMatrix.html#ae9f1574a9cf6595c64ce1236a8003cd2" target="_top" xlink:title="Matrix::SetCol">
<polygon fill="white" stroke="black" points="84,-38.5 84,-57.5 164,-57.5 164,-38.5 84,-38.5"/>
<text text-anchor="middle" x="124" y="-45.5" font-family="Helvetica,sans-Serif" font-size="10.00">Matrix::SetCol</text>
</a>
</g>
</g>
<!-- Node1&#45;&gt;Node23 -->
<g id="edge29" class="edge"><title>Node1&#45;&gt;Node23</title>
<path fill="none" stroke="midnightblue" d="M21.6583,-342.262C20.8139,-305.203 21.9436,-170.596 78,-82 82.5646,-74.7856 89.2397,-68.5416 96.0582,-63.4438"/>
<polygon fill="midnightblue" stroke="midnightblue" points="98.3269,-66.1335 104.624,-57.6128 94.3877,-60.347 98.3269,-66.1335"/>
</g>
<!-- Node26 -->
<g id="node26" class="node"><title>Node26</title>
<g id="a_node26"><a xlink:href="SAT__Force_8cpp.html#ae20f51bcb69607d4a2268329837260f2" target="_top" xlink:title="AccelDrag">
<polygon fill="white" stroke="black" points="93,-266.5 93,-285.5 155,-285.5 155,-266.5 93,-266.5"/>
<text text-anchor="middle" x="124" y="-273.5" font-family="Helvetica,sans-Serif" font-size="10.00">AccelDrag</text>
</a>
</g>
</g>
<!-- Node1&#45;&gt;Node26 -->
<g id="edge32" class="edge"><title>Node1&#45;&gt;Node26</title>
<path fill="none" stroke="midnightblue" d="M34.7917,-342.375C51.791,-329.583 82.0348,-306.825 102.304,-291.573"/>
<polygon fill="midnightblue" stroke="midnightblue" points="104.426,-294.357 110.312,-285.547 100.217,-288.763 104.426,-294.357"/>
</g>
<!-- Node30 -->
<g id="node30" class="node"><title>Node30</title>
<g id="a_node30"><a xlink:href="SAT__Force_8cpp.html#a2de08a6e83f5eff12db59b0616ad7f2c" target="_top" xlink:title="Sun">
<polygon fill="white" stroke="black" points="350,-342.5 350,-361.5 384,-361.5 384,-342.5 350,-342.5"/>
<text text-anchor="middle" x="367" y="-349.5" font-family="Helvetica,sans-Serif" font-size="10.00">Sun</text>
</a>
</g>
</g>
<!-- Node1&#45;&gt;Node30 -->
<g id="edge43" class="edge"><title>Node1&#45;&gt;Node30</title>
<path fill="none" stroke="midnightblue" d="M41.7305,-352C100.288,-352 273.13,-352 339.569,-352"/>
<polygon fill="midnightblue" stroke="midnightblue" points="339.637,-355.5 349.637,-352 339.637,-348.5 339.637,-355.5"/>
</g>
<!-- Node31 -->
<g id="node31" class="node"><title>Node31</title>
<g id="a_node31"><a xlink:href="SAT__Force_8cpp.html#ab05039f4d20345bbf7b463449ecaef11" target="_top" xlink:title="Illumination">
<polygon fill="white" stroke="black" points="218,-76.5 218,-95.5 284,-95.5 284,-76.5 218,-76.5"/>
<text text-anchor="middle" x="251" y="-83.5" font-family="Helvetica,sans-Serif" font-size="10.00">Illumination</text>
</a>
</g>
</g>
<!-- Node1&#45;&gt;Node31 -->
<g id="edge44" class="edge"><title>Node1&#45;&gt;Node31</title>
<path fill="none" stroke="midnightblue" d="M23.1928,-342.362C28.0935,-304.267 47.8539,-164.777 78,-134 112.053,-99.2344 169.014,-89.0564 207.987,-86.3843"/>
<polygon fill="midnightblue" stroke="midnightblue" points="208.182,-89.8789 217.975,-85.8355 207.798,-82.8895 208.182,-89.8789"/>
</g>
<!-- Node32 -->
<g id="node32" class="node"><title>Node32</title>
<g id="a_node32"><a xlink:href="SAT__Force_8cpp.html#a871f302ecd9687d7bee13583c15b0f31" target="_top" xlink:title="AccelSolrad">
<polygon fill="white" stroke="black" points="89.5,-143.5 89.5,-162.5 158.5,-162.5 158.5,-143.5 89.5,-143.5"/>
<text text-anchor="middle" x="124" y="-150.5" font-family="Helvetica,sans-Serif" font-size="10.00">AccelSolrad</text>
</a>
</g>
</g>
<!-- Node1&#45;&gt;Node32 -->
<g id="edge47" class="edge"><title>Node1&#45;&gt;Node32</title>
<path fill="none" stroke="midnightblue" d="M22.8518,-342.42C25.7631,-314.615 37.5024,-232.609 78,-181 81.8572,-176.084 86.8344,-171.806 92.0661,-168.174"/>
<polygon fill="midnightblue" stroke="midnightblue" points="94.2965,-170.91 100.958,-162.671 90.6127,-164.957 94.2965,-170.91"/>
</g>
<!-- Node3 -->
<g id="node3" class="node"><title>Node3</title>
<g id="a_node3"><a xlink:href="classIERS.html#acfce0b1a43896fed7b1bf9cefe3baebd" target="_top" xlink:title="IERS::UT1_TAI">
<polygon fill="white" stroke="black" points="208,-646.5 208,-665.5 294,-665.5 294,-646.5 208,-646.5"/>
<text text-anchor="middle" x="251" y="-653.5" font-family="Helvetica,sans-Serif" font-size="10.00">IERS::UT1_TAI</text>
</a>
</g>
</g>
<!-- Node2&#45;&gt;Node3 -->
<g id="edge2" class="edge"><title>Node2&#45;&gt;Node3</title>
<path fill="none" stroke="midnightblue" d="M156.543,-627.589C172.383,-632.404 191.773,-638.299 208.776,-643.468"/>
<polygon fill="midnightblue" stroke="midnightblue" points="207.882,-646.854 218.467,-646.414 209.918,-640.157 207.882,-646.854"/>
</g>
<!-- Node4 -->
<g id="node4" class="node"><title>Node4</title>
<g id="a_node4"><a xlink:href="classIERS.html#ad872e267797cb8d5be328b236287565f" target="_top" xlink:title="IERS::UTC_TAI">
<polygon fill="white" stroke="black" points="206.5,-608.5 206.5,-627.5 295.5,-627.5 295.5,-608.5 206.5,-608.5"/>
<text text-anchor="middle" x="251" y="-615.5" font-family="Helvetica,sans-Serif" font-size="10.00">IERS::UTC_TAI</text>
</a>
</g>
</g>
<!-- Node2&#45;&gt;Node4 -->
<g id="edge3" class="edge"><title>Node2&#45;&gt;Node4</title>
<path fill="none" stroke="midnightblue" d="M170.128,-618C178.572,-618 187.476,-618 196.153,-618"/>
<polygon fill="midnightblue" stroke="midnightblue" points="196.193,-621.5 206.193,-618 196.193,-614.5 196.193,-621.5"/>
</g>
<!-- Node5&#45;&gt;Node4 -->
<g id="edge5" class="edge"><title>Node5&#45;&gt;Node4</title>
<path fill="none" stroke="midnightblue" d="M150.296,-580.511C168.81,-587.473 194.173,-597.009 214.685,-604.721"/>
<polygon fill="midnightblue" stroke="midnightblue" points="213.721,-608.098 224.313,-608.342 216.185,-601.546 213.721,-608.098"/>
</g>
<!-- Node7 -->
<g id="node7" class="node"><title>Node7</title>
<g id="a_node7"><a xlink:href="SAT__RefSys_8cpp.html#a11f057ac4e8a0c5a7958f77379e30d40" target="_top" xlink:title="MeanObliquity">
<polygon fill="white" stroke="black" points="438.5,-494.5 438.5,-513.5 517.5,-513.5 517.5,-494.5 438.5,-494.5"/>
<text text-anchor="middle" x="478" y="-501.5" font-family="Helvetica,sans-Serif" font-size="10.00">MeanObliquity</text>
</a>
</g>
</g>
<!-- Node6&#45;&gt;Node7 -->
<g id="edge7" class="edge"><title>Node6&#45;&gt;Node7</title>
<path fill="none" stroke="midnightblue" d="M153.833,-437.305C193.552,-449.807 267.514,-471.962 332,-485 363.805,-491.43 399.993,-496.176 428.26,-499.316"/>
<polygon fill="midnightblue" stroke="midnightblue" points="427.975,-502.805 438.294,-500.4 428.728,-495.846 427.975,-502.805"/>
</g>
<!-- Node8 -->
<g id="node8" class="node"><title>Node8</title>
<g id="a_node8"><a xlink:href="SAT__RefSys_8cpp.html#a2a9df90e79156b20bf667ae56342d756" target="_top" xlink:title="NutAngles">
<polygon fill="white" stroke="black" points="447,-456.5 447,-475.5 509,-475.5 509,-456.5 447,-456.5"/>
<text text-anchor="middle" x="478" y="-463.5" font-family="Helvetica,sans-Serif" font-size="10.00">NutAngles</text>
</a>
</g>
</g>
<!-- Node6&#45;&gt;Node8 -->
<g id="edge8" class="edge"><title>Node6&#45;&gt;Node8</title>
<path fill="none" stroke="midnightblue" d="M153.502,-428.272C203.927,-429.126 312.035,-432.638 402,-447 413.476,-448.832 425.761,-451.596 436.997,-454.452"/>
<polygon fill="midnightblue" stroke="midnightblue" points="436.407,-457.916 446.969,-457.077 438.19,-451.147 436.407,-457.916"/>
</g>
<!-- Node12 -->
<g id="node12" class="node"><title>Node12</title>
<g id="a_node12"><a xlink:href="SAT__VecMat_8cpp.html#ae452267b1d1da6280386846d97ec4e4f" target="_top" xlink:title="R_x">
<polygon fill="white" stroke="black" points="460.5,-380.5 460.5,-399.5 495.5,-399.5 495.5,-380.5 460.5,-380.5"/>
<text text-anchor="middle" x="478" y="-387.5" font-family="Helvetica,sans-Serif" font-size="10.00">R_x</text>
</a>
</g>
</g>
<!-- Node6&#45;&gt;Node12 -->
<g id="edge12" class="edge"><title>Node6&#45;&gt;Node12</title>
<path fill="none" stroke="midnightblue" d="M153.507,-424.922C220.037,-417.74 384.826,-399.951 449.922,-392.923"/>
<polygon fill="midnightblue" stroke="midnightblue" points="450.614,-396.369 460.181,-391.816 449.863,-389.409 450.614,-396.369"/>
</g>
<!-- Node13 -->
<g id="node13" class="node"><title>Node13</title>
<g id="a_node13"><a xlink:href="SAT__VecMat_8cpp.html#a94c9c4e1f3afc6636dda6572f72ef4c2" target="_top" xlink:title="R_z">
<polygon fill="white" stroke="black" points="233.5,-494.5 233.5,-513.5 268.5,-513.5 268.5,-494.5 233.5,-494.5"/>
<text text-anchor="middle" x="251" y="-501.5" font-family="Helvetica,sans-Serif" font-size="10.00">R_z</text>
</a>
</g>
</g>
<!-- Node6&#45;&gt;Node13 -->
<g id="edge13" class="edge"><title>Node6&#45;&gt;Node13</title>
<path fill="none" stroke="midnightblue" d="M139.833,-437.561C162.295,-452.034 202.694,-478.04 206,-480 211.796,-483.436 218.112,-486.989 224.103,-490.274"/>
<polygon fill="midnightblue" stroke="midnightblue" points="222.667,-493.477 233.127,-495.16 226,-487.321 222.667,-493.477"/>
</g>
<!-- Node9 -->
<g id="node9" class="node"><title>Node9</title>
<g id="a_node9"><a xlink:href="namespaceanonymous__namespace_02SAT__Kepler_8cpp_03.html#a898091d856dff0d563448625b7634f16" target="_top" xlink:title="anonymous_namespace\l\{SAT_Kepler::cpp\}::F">
<polygon fill="white" stroke="black" points="560,-451 560,-481 682,-481 682,-451 560,-451"/>
<text text-anchor="start" x="568" y="-469" font-family="Helvetica,sans-Serif" font-size="10.00">anonymous_namespace</text>
<text text-anchor="middle" x="621" y="-458" font-family="Helvetica,sans-Serif" font-size="10.00">{SAT_Kepler::cpp}::F</text>
</a>
</g>
</g>
<!-- Node8&#45;&gt;Node9 -->
<g id="edge9" class="edge"><title>Node8&#45;&gt;Node9</title>
<path fill="none" stroke="midnightblue" d="M509.248,-466C521.164,-466 535.387,-466 549.605,-466"/>
<polygon fill="midnightblue" stroke="midnightblue" points="549.923,-469.5 559.923,-466 549.923,-462.5 549.923,-469.5"/>
</g>
<!-- Node10 -->
<g id="node10" class="node"><title>Node10</title>
<g id="a_node10"><a xlink:href="namespaceanonymous__namespace_02SAT__Kepler_8cpp_03.html#ae5d42531d691a174363f296c22d23217" target="_top" xlink:title="anonymous_namespace\l\{SAT_Kepler::cpp\}::Modulo">
<polygon fill="white" stroke="black" points="554,-510 554,-540 688,-540 688,-510 554,-510"/>
<text text-anchor="start" x="562" y="-528" font-family="Helvetica,sans-Serif" font-size="10.00">anonymous_namespace</text>
<text text-anchor="middle" x="621" y="-517" font-family="Helvetica,sans-Serif" font-size="10.00">{SAT_Kepler::cpp}::Modulo</text>
</a>
</g>
</g>
<!-- Node8&#45;&gt;Node10 -->
<g id="edge10" class="edge"><title>Node8&#45;&gt;Node10</title>
<path fill="none" stroke="midnightblue" d="M501.968,-475.611C521.602,-483.826 550.442,-495.894 574.699,-506.044"/>
<polygon fill="midnightblue" stroke="midnightblue" points="573.508,-509.34 584.084,-509.971 576.21,-502.883 573.508,-509.34"/>
</g>
<!-- Node11 -->
<g id="node11" class="node"><title>Node11</title>
<g id="a_node11"><a xlink:href="namespaceanonymous__namespace_02SAT__Force_8cpp_03.html#aa6826b33621fa6ff5736c6432c487c1a" target="_top" xlink:title="anonymous_namespace\l\{SAT_Force::cpp\}::Frac">
<polygon fill="white" stroke="black" points="724,-510 724,-540 846,-540 846,-510 724,-510"/>
<text text-anchor="start" x="732" y="-528" font-family="Helvetica,sans-Serif" font-size="10.00">anonymous_namespace</text>
<text text-anchor="middle" x="785" y="-517" font-family="Helvetica,sans-Serif" font-size="10.00">{SAT_Force::cpp}::Frac</text>
</a>
</g>
</g>
<!-- Node10&#45;&gt;Node11 -->
<g id="edge11" class="edge"><title>Node10&#45;&gt;Node11</title>
<path fill="none" stroke="midnightblue" d="M688.359,-525C696.745,-525 705.348,-525 713.792,-525"/>
<polygon fill="midnightblue" stroke="midnightblue" points="713.987,-528.5 723.987,-525 713.987,-521.5 713.987,-528.5"/>
</g>
<!-- Node14&#45;&gt;Node13 -->
<g id="edge15" class="edge"><title>Node14&#45;&gt;Node13</title>
<path fill="none" stroke="midnightblue" d="M156.22,-482.993C176.938,-487.634 203.835,-493.659 223.508,-498.066"/>
<polygon fill="midnightblue" stroke="midnightblue" points="222.814,-501.497 233.337,-500.268 224.344,-494.666 222.814,-501.497"/>
</g>
<!-- Node15 -->
<g id="node15" class="node"><title>Node15</title>
<g id="a_node15"><a xlink:href="SAT__VecMat_8cpp.html#a66b3b116958d5c2f1c528faa04c71674" target="_top" xlink:title="R_y">
<polygon fill="white" stroke="black" points="233.5,-532.5 233.5,-551.5 268.5,-551.5 268.5,-532.5 233.5,-532.5"/>
<text text-anchor="middle" x="251" y="-539.5" font-family="Helvetica,sans-Serif" font-size="10.00">R_y</text>
</a>
</g>
</g>
<!-- Node14&#45;&gt;Node15 -->
<g id="edge16" class="edge"><title>Node14&#45;&gt;Node15</title>
<path fill="none" stroke="midnightblue" d="M150.793,-485.526C157.228,-488.27 164.001,-491.483 170,-495 187.486,-505.252 188.556,-512.677 206,-523 211.505,-526.258 217.671,-529.272 223.606,-531.896"/>
<polygon fill="midnightblue" stroke="midnightblue" points="222.64,-535.285 233.216,-535.916 225.341,-528.828 222.64,-535.285"/>
</g>
<!-- Node16&#45;&gt;Node13 -->
<g id="edge18" class="edge"><title>Node16&#45;&gt;Node13</title>
<path fill="none" stroke="midnightblue" d="M156.543,-511.477C177.169,-509.826 203.813,-507.695 223.371,-506.13"/>
<polygon fill="midnightblue" stroke="midnightblue" points="223.736,-509.612 233.425,-505.326 223.178,-502.635 223.736,-509.612"/>
</g>
<!-- Node17 -->
<g id="node17" class="node"><title>Node17</title>
<g id="a_node17"><a xlink:href="SAT__RefSys_8cpp.html#a120de1171391bce3ca4111e46331a93c" target="_top" xlink:title="GAST">
<polygon fill="white" stroke="black" points="229,-570.5 229,-589.5 273,-589.5 273,-570.5 229,-570.5"/>
<text text-anchor="middle" x="251" y="-577.5" font-family="Helvetica,sans-Serif" font-size="10.00">GAST</text>
</a>
</g>
</g>
<!-- Node16&#45;&gt;Node17 -->
<g id="edge19" class="edge"><title>Node16&#45;&gt;Node17</title>
<path fill="none" stroke="midnightblue" d="M140.229,-523.564C156.29,-533.476 182.478,-549.149 206,-561 210.324,-563.178 214.955,-565.348 219.531,-567.401"/>
<polygon fill="midnightblue" stroke="midnightblue" points="218.164,-570.623 228.729,-571.414 220.963,-564.207 218.164,-570.623"/>
</g>
<!-- Node17&#45;&gt;Node10 -->
<g id="edge20" class="edge"><title>Node17&#45;&gt;Node10</title>
<path fill="none" stroke="midnightblue" d="M273.107,-576.845C324.525,-569.161 458.313,-549.165 543.913,-536.372"/>
<polygon fill="midnightblue" stroke="midnightblue" points="544.473,-539.827 553.845,-534.887 543.438,-532.904 544.473,-539.827"/>
</g>
<!-- Node18 -->
<g id="node18" class="node"><title>Node18</title>
<g id="a_node18"><a xlink:href="SAT__RefSys_8cpp.html#a2a4cc14aa92a1449e08540255af19f8e" target="_top" xlink:title="GMST">
<polygon fill="white" stroke="black" points="598.5,-564.5 598.5,-583.5 643.5,-583.5 643.5,-564.5 598.5,-564.5"/>
<text text-anchor="middle" x="621" y="-571.5" font-family="Helvetica,sans-Serif" font-size="10.00">GMST</text>
</a>
</g>
</g>
<!-- Node17&#45;&gt;Node18 -->
<g id="edge21" class="edge"><title>Node17&#45;&gt;Node18</title>
<path fill="none" stroke="midnightblue" d="M273.107,-579.656C334.681,-578.652 514.381,-575.722 587.991,-574.522"/>
<polygon fill="midnightblue" stroke="midnightblue" points="588.113,-578.02 598.055,-574.358 587.999,-571.021 588.113,-578.02"/>
</g>
<!-- Node19 -->
<g id="node19" class="node"><title>Node19</title>
<g id="a_node19"><a xlink:href="SAT__RefSys_8cpp.html#a1178917cf376ea4f15cea33c59028635" target="_top" xlink:title="EqnEquinox">
<polygon fill="white" stroke="black" points="332.5,-456.5 332.5,-475.5 401.5,-475.5 401.5,-456.5 332.5,-456.5"/>
<text text-anchor="middle" x="367" y="-463.5" font-family="Helvetica,sans-Serif" font-size="10.00">EqnEquinox</text>
</a>
</g>
</g>
<!-- Node17&#45;&gt;Node19 -->
<g id="edge23" class="edge"><title>Node17&#45;&gt;Node19</title>
<path fill="none" stroke="midnightblue" d="M273.399,-573.379C281.022,-570.371 289.357,-566.282 296,-561 322.857,-539.648 344.533,-505.575 356.312,-484.563"/>
<polygon fill="midnightblue" stroke="midnightblue" points="359.448,-486.123 361.146,-475.665 353.297,-482.782 359.448,-486.123"/>
</g>
<!-- Node18&#45;&gt;Node11 -->
<g id="edge22" class="edge"><title>Node18&#45;&gt;Node11</title>
<path fill="none" stroke="midnightblue" d="M643.512,-567.493C664.146,-561.252 696.258,-551.539 724.575,-542.974"/>
<polygon fill="midnightblue" stroke="midnightblue" points="725.849,-546.246 734.408,-540 723.822,-539.545 725.849,-546.246"/>
</g>
<!-- Node19&#45;&gt;Node8 -->
<g id="edge24" class="edge"><title>Node19&#45;&gt;Node8</title>
<path fill="none" stroke="midnightblue" d="M401.593,-466C412.608,-466 424.966,-466 436.44,-466"/>
<polygon fill="midnightblue" stroke="midnightblue" points="436.666,-469.5 446.666,-466 436.666,-462.5 436.666,-469.5"/>
</g>
<!-- Node19&#45;&gt;Node7 -->
<g id="edge25" class="edge"><title>Node19&#45;&gt;Node7</title>
<path fill="none" stroke="midnightblue" d="M395.505,-475.589C408.931,-480.269 425.28,-485.969 439.801,-491.032"/>
<polygon fill="midnightblue" stroke="midnightblue" points="438.909,-494.427 449.503,-494.414 441.213,-487.817 438.909,-494.427"/>
</g>
<!-- Node21 -->
<g id="node21" class="node"><title>Node21</title>
<g id="a_node21"><a xlink:href="SAT__VecMat_8cpp.html#a71375a6ebee7fc40c1d45985175d82e5" target="_top" xlink:title="Dot">
<polygon fill="white" stroke="black" points="462,-171.5 462,-190.5 494,-190.5 494,-171.5 462,-171.5"/>
<text text-anchor="middle" x="478" y="-178.5" font-family="Helvetica,sans-Serif" font-size="10.00">Dot</text>
</a>
</g>
</g>
<!-- Node20&#45;&gt;Node21 -->
<g id="edge27" class="edge"><title>Node20&#45;&gt;Node21</title>
<path fill="none" stroke="midnightblue" d="M157.8,-190.493C172.417,-186.729 189.93,-182.86 206,-181 295.971,-170.589 403.871,-175.836 451.86,-179.079"/>
<polygon fill="midnightblue" stroke="midnightblue" points="451.725,-182.578 461.947,-179.792 452.219,-175.595 451.725,-182.578"/>
</g>
<!-- Node22 -->
<g id="node22" class="node"><title>Node22</title>
<g id="a_node22"><a xlink:href="SAT__VecMat_8cpp.html#aa54829a0c63c78e6bfbd12285ad94075" target="_top" xlink:title="Transp">
<polygon fill="white" stroke="black" points="227.5,-190.5 227.5,-209.5 274.5,-209.5 274.5,-190.5 227.5,-190.5"/>
<text text-anchor="middle" x="251" y="-197.5" font-family="Helvetica,sans-Serif" font-size="10.00">Transp</text>
</a>
</g>
</g>
<!-- Node20&#45;&gt;Node22 -->
<g id="edge28" class="edge"><title>Node20&#45;&gt;Node22</title>
<path fill="none" stroke="midnightblue" d="M165.584,-200C182.265,-200 201.331,-200 217.118,-200"/>
<polygon fill="midnightblue" stroke="midnightblue" points="217.454,-203.5 227.454,-200 217.454,-196.5 217.454,-203.5"/>
</g>
<!-- Node24 -->
<g id="node24" class="node"><title>Node24</title>
<g id="a_node24"><a xlink:href="classVector.html#a3c8f59182463d6da833e7856f06e6171" target="_top" xlink:title="Vector::size">
<polygon fill="white" stroke="black" points="216.5,-38.5 216.5,-57.5 285.5,-57.5 285.5,-38.5 216.5,-38.5"/>
<text text-anchor="middle" x="251" y="-45.5" font-family="Helvetica,sans-Serif" font-size="10.00">Vector::size</text>
</a>
</g>
</g>
<!-- Node23&#45;&gt;Node24 -->
<g id="edge30" class="edge"><title>Node23&#45;&gt;Node24</title>
<path fill="none" stroke="midnightblue" d="M164.208,-48C177.559,-48 192.564,-48 206.248,-48"/>
<polygon fill="midnightblue" stroke="midnightblue" points="206.406,-51.5001 216.406,-48 206.406,-44.5001 206.406,-51.5001"/>
</g>
<!-- Node25 -->
<g id="node25" class="node"><title>Node25</title>
<g id="a_node25"><a xlink:href="classMatrix.html#a02c825325655a07eb94e4a57478a4c18" target="_top" xlink:title="Matrix::Col">
<polygon fill="white" stroke="black" points="218.5,-0.5 218.5,-19.5 283.5,-19.5 283.5,-0.5 218.5,-0.5"/>
<text text-anchor="middle" x="251" y="-7.5" font-family="Helvetica,sans-Serif" font-size="10.00">Matrix::Col</text>
</a>
</g>
</g>
<!-- Node23&#45;&gt;Node25 -->
<g id="edge31" class="edge"><title>Node23&#45;&gt;Node25</title>
<path fill="none" stroke="midnightblue" d="M156.543,-38.411C172.383,-33.5956 191.773,-27.7012 208.776,-22.532"/>
<polygon fill="midnightblue" stroke="midnightblue" points="209.918,-25.8433 218.467,-19.5859 207.882,-19.1459 209.918,-25.8433"/>
</g>
<!-- Node26&#45;&gt;Node22 -->
<g id="edge33" class="edge"><title>Node26&#45;&gt;Node22</title>
<path fill="none" stroke="midnightblue" d="M136.837,-266.493C152.178,-254.455 180.044,-233.533 206,-219 209.757,-216.896 213.793,-214.867 217.842,-212.967"/>
<polygon fill="midnightblue" stroke="midnightblue" points="219.481,-216.069 227.187,-208.798 216.629,-209.676 219.481,-216.069"/>
</g>
<!-- Node27 -->
<g id="node27" class="node"><title>Node27</title>
<g id="a_node27"><a xlink:href="SAT__VecMat_8cpp.html#ab712f21cc19675f37e17e08bb51a82b4" target="_top" xlink:title="Cross">
<polygon fill="white" stroke="black" points="229.5,-228.5 229.5,-247.5 272.5,-247.5 272.5,-228.5 229.5,-228.5"/>
<text text-anchor="middle" x="251" y="-235.5" font-family="Helvetica,sans-Serif" font-size="10.00">Cross</text>
</a>
</g>
</g>
<!-- Node26&#45;&gt;Node27 -->
<g id="edge34" class="edge"><title>Node26&#45;&gt;Node27</title>
<path fill="none" stroke="midnightblue" d="M155.259,-266.801C174.825,-260.853 200.197,-253.14 219.759,-247.193"/>
<polygon fill="midnightblue" stroke="midnightblue" points="220.849,-250.52 229.398,-244.263 218.813,-243.823 220.849,-250.52"/>
</g>
<!-- Node28 -->
<g id="node28" class="node"><title>Node28</title>
<g id="a_node28"><a xlink:href="SAT__VecMat_8cpp.html#a313ce8c9730e0bd08a1396f364f0486c" target="_top" xlink:title="Norm">
<polygon fill="white" stroke="black" points="346.5,-190.5 346.5,-209.5 387.5,-209.5 387.5,-190.5 346.5,-190.5"/>
<text text-anchor="middle" x="367" y="-197.5" font-family="Helvetica,sans-Serif" font-size="10.00">Norm</text>
</a>
</g>
</g>
<!-- Node26&#45;&gt;Node28 -->
<g id="edge35" class="edge"><title>Node26&#45;&gt;Node28</title>
<path fill="none" stroke="midnightblue" d="M155.007,-277.679C190.188,-278.535 249.584,-276.462 296,-257 317.305,-248.067 337.283,-230.523 350.399,-217.246"/>
<polygon fill="midnightblue" stroke="midnightblue" points="353.273,-219.304 357.63,-209.646 348.201,-214.479 353.273,-219.304"/>
</g>
<!-- Node29 -->
<g id="node29" class="node"><title>Node29</title>
<g id="a_node29"><a xlink:href="SAT__Force_8cpp.html#a6ad9e17c2e7636b8cd8045d461940681" target="_top" xlink:title="Density_HP">
<polygon fill="white" stroke="black" points="216,-304.5 216,-323.5 286,-323.5 286,-304.5 216,-304.5"/>
<text text-anchor="middle" x="251" y="-311.5" font-family="Helvetica,sans-Serif" font-size="10.00">Density_HP</text>
</a>
</g>
</g>
<!-- Node26&#45;&gt;Node29 -->
<g id="edge37" class="edge"><title>Node26&#45;&gt;Node29</title>
<path fill="none" stroke="midnightblue" d="M155.259,-285.199C171.325,-290.083 191.306,-296.157 208.771,-301.466"/>
<polygon fill="midnightblue" stroke="midnightblue" points="208.129,-304.929 218.714,-304.489 210.165,-298.232 208.129,-304.929"/>
</g>
<!-- Node28&#45;&gt;Node21 -->
<g id="edge36" class="edge"><title>Node28&#45;&gt;Node21</title>
<path fill="none" stroke="midnightblue" d="M387.739,-196.559C405.753,-193.419 432.462,-188.764 451.969,-185.363"/>
<polygon fill="midnightblue" stroke="midnightblue" points="452.713,-188.786 461.964,-183.621 451.511,-181.89 452.713,-188.786"/>
</g>
<!-- Node29&#45;&gt;Node30 -->
<g id="edge38" class="edge"><title>Node29&#45;&gt;Node30</title>
<path fill="none" stroke="midnightblue" d="M280.767,-323.589C299.073,-329.691 322.577,-337.526 340.264,-343.421"/>
<polygon fill="midnightblue" stroke="midnightblue" points="339.33,-346.799 349.923,-346.641 341.543,-340.158 339.33,-346.799"/>
</g>
<!-- Node29&#45;&gt;Node21 -->
<g id="edge41" class="edge"><title>Node29&#45;&gt;Node21</title>
<path fill="none" stroke="midnightblue" d="M268.181,-304.435C307.303,-281.31 407.168,-222.278 453.157,-195.094"/>
<polygon fill="midnightblue" stroke="midnightblue" points="455.03,-198.052 461.858,-189.951 451.468,-192.027 455.03,-198.052"/>
</g>
<!-- Node29&#45;&gt;Node28 -->
<g id="edge42" class="edge"><title>Node29&#45;&gt;Node28</title>
<path fill="none" stroke="midnightblue" d="M273.718,-304.404C281.206,-300.531 289.37,-295.636 296,-290 320.755,-268.956 342.543,-237.898 354.991,-218.319"/>
<polygon fill="midnightblue" stroke="midnightblue" points="358.026,-220.067 360.325,-209.724 352.078,-216.376 358.026,-220.067"/>
</g>
<!-- Node30&#45;&gt;Node11 -->
<g id="edge39" class="edge"><title>Node30&#45;&gt;Node11</title>
<path fill="none" stroke="midnightblue" d="M384.029,-352.641C411.757,-354.056 470.288,-358.394 518,-371 596.999,-391.872 618.542,-397.963 688,-441 716.167,-458.453 744.203,-484.199 762.639,-502.583"/>
<polygon fill="midnightblue" stroke="midnightblue" points="760.409,-505.306 769.924,-509.965 765.391,-500.389 760.409,-505.306"/>
</g>
<!-- Node30&#45;&gt;Node12 -->
<g id="edge40" class="edge"><title>Node30&#45;&gt;Node12</title>
<path fill="none" stroke="midnightblue" d="M384.083,-357.607C401.692,-363.746 430.186,-373.68 450.983,-380.93"/>
<polygon fill="midnightblue" stroke="midnightblue" points="449.899,-384.258 460.493,-384.245 452.203,-377.648 449.899,-384.258"/>
</g>
<!-- Node31&#45;&gt;Node28 -->
<g id="edge45" class="edge"><title>Node31&#45;&gt;Node28</title>
<path fill="none" stroke="midnightblue" d="M273.718,-95.5963C281.206,-99.4693 289.37,-104.364 296,-110 320.755,-131.044 342.543,-162.102 354.991,-181.681"/>
<polygon fill="midnightblue" stroke="midnightblue" points="352.078,-183.624 360.325,-190.276 358.026,-179.933 352.078,-183.624"/>
</g>
<!-- Node31&#45;&gt;Node21 -->
<g id="edge46" class="edge"><title>Node31&#45;&gt;Node21</title>
<path fill="none" stroke="midnightblue" d="M275.452,-95.5025C305.032,-107.532 357.42,-128.982 402,-148 418.904,-155.211 437.846,-163.548 452.465,-170.038"/>
<polygon fill="midnightblue" stroke="midnightblue" points="451.258,-173.332 461.817,-174.2 454.104,-166.936 451.258,-173.332"/>
</g>
<!-- Node32&#45;&gt;Node28 -->
<g id="edge48" class="edge"><title>Node32&#45;&gt;Node28</title>
<path fill="none" stroke="midnightblue" d="M158.614,-157.463C193.236,-162.303 248.668,-170.73 296,-181 309.364,-183.9 323.986,-187.758 336.394,-191.24"/>
<polygon fill="midnightblue" stroke="midnightblue" points="335.643,-194.666 346.219,-194.047 337.566,-187.935 335.643,-194.666"/>
</g>
</g>
</svg>
