<?xml version="1.0" encoding="UTF-8" standalone="no"?>
<!DOCTYPE svg PUBLIC "-//W3C//DTD SVG 1.1//EN"
 "http://www.w3.org/Graphics/SVG/1.1/DTD/svg11.dtd">
<!-- Generated by graphviz version 2.30.1 (20180420.1509)
 -->
<!-- Title: main Pages: 1 -->
<svg width="756pt" height="826pt"
 viewBox="0.00 0.00 756.00 826.00" xmlns="http://www.w3.org/2000/svg" xmlns:xlink="http://www.w3.org/1999/xlink">
<g id="graph0" class="graph" transform="scale(1 1) rotate(0) translate(4 822)">
<title>main</title>
<polygon fill="white" stroke="white" points="-4,5 -4,-822 753,-822 753,5 -4,5"/>
<!-- Node1 -->
<g id="node1" class="node"><title>Node1</title>
<polygon fill="#bfbfbf" stroke="black" points="0,-570.5 0,-589.5 38,-589.5 38,-570.5 0,-570.5"/>
<text text-anchor="middle" x="19" y="-577.5" font-family="Helvetica,sans-Serif" font-size="10.00">main</text>
</g>
<!-- Node2 -->
<g id="node2" class="node"><title>Node2</title>
<g id="a_node2"><a xlink:href="GEODA_8cpp.html#af62e04db95805bf3f19fcdfdbc66a49a" target="_top" xlink:title="GetSetup">
<polygon fill="white" stroke="black" points="92,-798.5 92,-817.5 150,-817.5 150,-798.5 92,-798.5"/>
<text text-anchor="middle" x="121" y="-805.5" font-family="Helvetica,sans-Serif" font-size="10.00">GetSetup</text>
</a>
</g>
</g>
<!-- Node1&#45;&gt;Node2 -->
<g id="edge1" class="edge"><title>Node1&#45;&gt;Node2</title>
<path fill="none" stroke="midnightblue" d="M19.6422,-589.688C18.9721,-622.113 21.1153,-728.21 74,-789 76.4705,-791.84 79.4322,-794.263 82.6465,-796.33"/>
<polygon fill="midnightblue" stroke="midnightblue" points="81.0978,-799.47 91.5804,-801.008 84.3449,-793.268 81.0978,-799.47"/>
</g>
<!-- Node3 -->
<g id="node3" class="node"><title>Node3</title>
<g id="a_node3"><a xlink:href="classTrjData.html#a66f6377ff123744ec416007176bd8754" target="_top" xlink:title="TrjData::Define">
<polygon fill="white" stroke="black" points="79.5,-760.5 79.5,-779.5 162.5,-779.5 162.5,-760.5 79.5,-760.5"/>
<text text-anchor="middle" x="121" y="-767.5" font-family="Helvetica,sans-Serif" font-size="10.00">TrjData::Define</text>
</a>
</g>
</g>
<!-- Node1&#45;&gt;Node3 -->
<g id="edge2" class="edge"><title>Node1&#45;&gt;Node3</title>
<path fill="none" stroke="midnightblue" d="M20.302,-589.507C21.7014,-617.818 29.5856,-702.601 74,-751 75.2049,-752.313 76.5143,-753.538 77.9034,-754.68"/>
<polygon fill="midnightblue" stroke="midnightblue" points="76.279,-757.8 86.5602,-760.359 80.1187,-751.947 76.279,-757.8"/>
</g>
<!-- Node4 -->
<g id="node4" class="node"><title>Node4</title>
<g id="a_node4"><a xlink:href="RTOD_8cpp.html#a8ed60f2e5115e2e00c123e12b1cbb649" target="_top" xlink:title="Deriv">
<polygon fill="white" stroke="black" points="101,-608.5 101,-627.5 141,-627.5 141,-608.5 101,-608.5"/>
<text text-anchor="middle" x="121" y="-615.5" font-family="Helvetica,sans-Serif" font-size="10.00">Deriv</text>
</a>
</g>
</g>
<!-- Node1&#45;&gt;Node4 -->
<g id="edge3" class="edge"><title>Node1&#45;&gt;Node4</title>
<path fill="none" stroke="midnightblue" d="M38.3415,-586.97C53.1417,-592.594 74.2288,-600.607 91.2667,-607.081"/>
<polygon fill="midnightblue" stroke="midnightblue" points="90.1612,-610.405 100.752,-610.686 92.6477,-603.862 90.1612,-610.405"/>
</g>
<!-- Node19 -->
<g id="node19" class="node"><title>Node19</title>
<g id="a_node19"><a xlink:href="TDRSOD_8cpp.html#a3df5b7f547d4cb81cae1bbb6d6a2962a" target="_top" xlink:title="VarEqn">
<polygon fill="white" stroke="black" points="96.5,-722.5 96.5,-741.5 145.5,-741.5 145.5,-722.5 96.5,-722.5"/>
<text text-anchor="middle" x="121" y="-729.5" font-family="Helvetica,sans-Serif" font-size="10.00">VarEqn</text>
</a>
</g>
</g>
<!-- Node1&#45;&gt;Node19 -->
<g id="edge19" class="edge"><title>Node1&#45;&gt;Node19</title>
<path fill="none" stroke="midnightblue" d="M21.719,-589.558C26.3068,-612.605 40.8213,-671.995 74,-708 77.8151,-712.14 82.5091,-715.689 87.4256,-718.689"/>
<polygon fill="midnightblue" stroke="midnightblue" points="85.9091,-721.848 96.3736,-723.505 89.2265,-715.684 85.9091,-721.848"/>
</g>
<!-- Node23 -->
<g id="node23" class="node"><title>Node23</title>
<g id="a_node23"><a xlink:href="SAT__VecMat_8cpp.html#af7d7bb183b22c5c942a8afdadc433bc2" target="_top" xlink:title="Diag">
<polygon fill="white" stroke="black" points="102.5,-646.5 102.5,-665.5 139.5,-665.5 139.5,-646.5 102.5,-646.5"/>
<text text-anchor="middle" x="121" y="-653.5" font-family="Helvetica,sans-Serif" font-size="10.00">Diag</text>
</a>
</g>
</g>
<!-- Node1&#45;&gt;Node23 -->
<g id="edge26" class="edge"><title>Node1&#45;&gt;Node23</title>
<path fill="none" stroke="midnightblue" d="M27.0549,-589.663C36.5302,-602.062 54.4516,-623.567 74,-637 79.608,-640.854 86.1187,-644.134 92.446,-646.83"/>
<polygon fill="midnightblue" stroke="midnightblue" points="91.4934,-650.215 102.082,-650.582 94.0337,-643.692 91.4934,-650.215"/>
</g>
<!-- Node24 -->
<g id="node24" class="node"><title>Node24</title>
<g id="a_node24"><a xlink:href="RTOD_8cpp.html#a414f260c3afbab0dddecaf55f18baecf" target="_top" xlink:title="GetObs">
<polygon fill="white" stroke="black" points="96,-532.5 96,-551.5 146,-551.5 146,-532.5 96,-532.5"/>
<text text-anchor="middle" x="121" y="-539.5" font-family="Helvetica,sans-Serif" font-size="10.00">GetObs</text>
</a>
</g>
</g>
<!-- Node1&#45;&gt;Node24 -->
<g id="edge27" class="edge"><title>Node1&#45;&gt;Node24</title>
<path fill="none" stroke="midnightblue" d="M38.3415,-573.03C51.696,-567.956 70.169,-560.936 86.1674,-554.856"/>
<polygon fill="midnightblue" stroke="midnightblue" points="87.6364,-558.042 95.7409,-551.218 85.1498,-551.499 87.6364,-558.042"/>
</g>
<!-- Node26 -->
<g id="node26" class="node"><title>Node26</title>
<g id="a_node26"><a xlink:href="classLSQ.html#a77940543ea83db4f557cdf09f99b3098" target="_top" xlink:title="LSQ::Init">
<polygon fill="white" stroke="black" points="93,-570.5 93,-589.5 149,-589.5 149,-570.5 93,-570.5"/>
<text text-anchor="middle" x="121" y="-577.5" font-family="Helvetica,sans-Serif" font-size="10.00">LSQ::Init</text>
</a>
</g>
</g>
<!-- Node1&#45;&gt;Node26 -->
<g id="edge29" class="edge"><title>Node1&#45;&gt;Node26</title>
<path fill="none" stroke="midnightblue" d="M38.3415,-580C50.711,-580 67.4718,-580 82.5901,-580"/>
<polygon fill="midnightblue" stroke="midnightblue" points="82.72,-583.5 92.72,-580 82.72,-576.5 82.72,-583.5"/>
</g>
<!-- Node27 -->
<g id="node27" class="node"><title>Node27</title>
<g id="a_node27"><a xlink:href="classIERS.html#abe17029c05804e5886ae14eae119c0f1" target="_top" xlink:title="IERS::TT_UTC">
<polygon fill="white" stroke="black" points="210.5,-494.5 210.5,-513.5 295.5,-513.5 295.5,-494.5 210.5,-494.5"/>
<text text-anchor="middle" x="253" y="-501.5" font-family="Helvetica,sans-Serif" font-size="10.00">IERS::TT_UTC</text>
</a>
</g>
</g>
<!-- Node1&#45;&gt;Node27 -->
<g id="edge30" class="edge"><title>Node1&#45;&gt;Node27</title>
<path fill="none" stroke="midnightblue" d="M25.9273,-570.346C34.6401,-557.113 52.2514,-533.758 74,-523 113.212,-503.603 163.12,-499.793 200.106,-500.293"/>
<polygon fill="midnightblue" stroke="midnightblue" points="200.093,-503.793 210.175,-500.539 200.264,-496.795 200.093,-503.793"/>
</g>
<!-- Node28 -->
<g id="node28" class="node"><title>Node28</title>
<g id="a_node28"><a xlink:href="TDRSOD_8cpp.html#a466ab098330aeb2aa659365279071640" target="_top" xlink:title="Range_4W">
<polygon fill="white" stroke="black" points="88.5,-361.5 88.5,-380.5 153.5,-380.5 153.5,-361.5 88.5,-361.5"/>
<text text-anchor="middle" x="121" y="-368.5" font-family="Helvetica,sans-Serif" font-size="10.00">Range_4W</text>
</a>
</g>
</g>
<!-- Node1&#45;&gt;Node28 -->
<g id="edge32" class="edge"><title>Node1&#45;&gt;Node28</title>
<path fill="none" stroke="midnightblue" d="M21.1145,-570.281C24.6537,-542.786 37.631,-462.954 74,-409 79.8442,-400.33 88.2311,-392.589 96.247,-386.393"/>
<polygon fill="midnightblue" stroke="midnightblue" points="98.3037,-389.225 104.344,-380.521 94.194,-383.559 98.3037,-389.225"/>
</g>
<!-- Node46 -->
<g id="node46" class="node"><title>Node46</title>
<g id="a_node46"><a xlink:href="classLSQ.html#aa98a7935493ef8e5cfc6f21cb6920307" target="_top" xlink:title="LSQ::Accumulate">
<polygon fill="white" stroke="black" points="74,-456.5 74,-475.5 168,-475.5 168,-456.5 74,-456.5"/>
<text text-anchor="middle" x="121" y="-463.5" font-family="Helvetica,sans-Serif" font-size="10.00">LSQ::Accumulate</text>
</a>
</g>
</g>
<!-- Node1&#45;&gt;Node46 -->
<g id="edge62" class="edge"><title>Node1&#45;&gt;Node46</title>
<path fill="none" stroke="midnightblue" d="M23.663,-570.436C30.893,-552.621 48.5361,-513.991 74,-490 77.7555,-486.462 82.1334,-483.305 86.6671,-480.537"/>
<polygon fill="midnightblue" stroke="midnightblue" points="88.3868,-483.586 95.4552,-475.693 85.0078,-477.455 88.3868,-483.586"/>
</g>
<!-- Node47 -->
<g id="node47" class="node"><title>Node47</title>
<g id="a_node47"><a xlink:href="classLSQ.html#a5b632b4a83ac67ec22c176c9fd2242da" target="_top" xlink:title="LSQ::Solve">
<polygon fill="white" stroke="black" points="87.5,-418.5 87.5,-437.5 154.5,-437.5 154.5,-418.5 87.5,-418.5"/>
<text text-anchor="middle" x="121" y="-425.5" font-family="Helvetica,sans-Serif" font-size="10.00">LSQ::Solve</text>
</a>
</g>
</g>
<!-- Node1&#45;&gt;Node47 -->
<g id="edge63" class="edge"><title>Node1&#45;&gt;Node47</title>
<path fill="none" stroke="midnightblue" d="M21.3427,-570.23C25.1495,-546.104 38.16,-483.056 74,-447 75.4162,-445.575 76.9547,-444.252 78.5814,-443.025"/>
<polygon fill="midnightblue" stroke="midnightblue" points="80.6205,-445.88 87.294,-437.651 76.9455,-439.922 80.6205,-445.88"/>
</g>
<!-- Node48 -->
<g id="node48" class="node"><title>Node48</title>
<g id="a_node48"><a xlink:href="classLSQ.html#a735f9e8d4c4028b1e49e00ef0da87f97" target="_top" xlink:title="LSQ::StdDev">
<polygon fill="white" stroke="black" points="83.5,-181.5 83.5,-200.5 158.5,-200.5 158.5,-181.5 83.5,-181.5"/>
<text text-anchor="middle" x="121" y="-188.5" font-family="Helvetica,sans-Serif" font-size="10.00">LSQ::StdDev</text>
</a>
</g>
</g>
<!-- Node1&#45;&gt;Node48 -->
<g id="edge64" class="edge"><title>Node1&#45;&gt;Node48</title>
<path fill="none" stroke="midnightblue" d="M22.1075,-570.404C29.0483,-538.962 52.0055,-436.227 74,-352 87.41,-300.647 105.09,-240.651 114.128,-210.461"/>
<polygon fill="midnightblue" stroke="midnightblue" points="117.518,-211.342 117.043,-200.758 110.814,-209.328 117.518,-211.342"/>
</g>
<!-- Node5 -->
<g id="node5" class="node"><title>Node5</title>
<g id="a_node5"><a xlink:href="classVector.html#ae58ec75ebd2a2d60775c2e0ee98a35ae" target="_top" xlink:title="Vector::slice">
<polygon fill="white" stroke="black" points="217.5,-684.5 217.5,-703.5 288.5,-703.5 288.5,-684.5 217.5,-684.5"/>
<text text-anchor="middle" x="253" y="-691.5" font-family="Helvetica,sans-Serif" font-size="10.00">Vector::slice</text>
</a>
</g>
</g>
<!-- Node1&#45;&gt;Node5 -->
<g id="edge67" class="edge"><title>Node1&#45;&gt;Node5</title>
<path fill="none" stroke="midnightblue" d="M22.3017,-589.548C27.614,-609.3 42.7411,-654.514 74,-675 113.441,-700.848 168.661,-702.73 207.098,-699.975"/>
<polygon fill="midnightblue" stroke="midnightblue" points="207.801,-703.428 217.468,-699.091 207.207,-696.453 207.801,-703.428"/>
</g>
<!-- Node4&#45;&gt;Node5 -->
<g id="edge4" class="edge"><title>Node4&#45;&gt;Node5</title>
<path fill="none" stroke="midnightblue" d="M141.088,-624.17C149.659,-627.365 159.69,-631.711 168,-637 186.311,-648.655 186.12,-657.694 204,-670 209.113,-673.519 214.816,-676.832 220.456,-679.808"/>
<polygon fill="midnightblue" stroke="midnightblue" points="219.262,-683.125 229.771,-684.475 222.398,-676.866 219.262,-683.125"/>
</g>
<!-- Node6 -->
<g id="node6" class="node"><title>Node6</title>
<g id="a_node6"><a xlink:href="SAT__VecMat_8cpp.html#ad3352c6f838a6a97403bc6f2d6bda5df" target="_top" xlink:title="Stack">
<polygon fill="white" stroke="black" points="364,-646.5 364,-665.5 406,-665.5 406,-646.5 364,-646.5"/>
<text text-anchor="middle" x="385" y="-653.5" font-family="Helvetica,sans-Serif" font-size="10.00">Stack</text>
</a>
</g>
</g>
<!-- Node4&#45;&gt;Node6 -->
<g id="edge5" class="edge"><title>Node4&#45;&gt;Node6</title>
<path fill="none" stroke="midnightblue" d="M141.086,-623.122C157.62,-627.391 182.239,-633.345 204,-637 256.237,-645.775 317.723,-651.232 353.63,-653.936"/>
<polygon fill="midnightblue" stroke="midnightblue" points="353.686,-657.449 363.914,-654.687 354.196,-650.467 353.686,-657.449"/>
</g>
<!-- Node8 -->
<g id="node8" class="node"><title>Node8</title>
<g id="a_node8"><a xlink:href="RTOD_8cpp.html#ad928b0e88089fe577162bad47f911adf" target="_top" xlink:title="Accel">
<polygon fill="white" stroke="black" points="232.5,-570.5 232.5,-589.5 273.5,-589.5 273.5,-570.5 232.5,-570.5"/>
<text text-anchor="middle" x="253" y="-577.5" font-family="Helvetica,sans-Serif" font-size="10.00">Accel</text>
</a>
</g>
</g>
<!-- Node4&#45;&gt;Node8 -->
<g id="edge7" class="edge"><title>Node4&#45;&gt;Node8</title>
<path fill="none" stroke="midnightblue" d="M141.182,-612.393C162.66,-606.115 197.718,-595.867 222.648,-588.58"/>
<polygon fill="midnightblue" stroke="midnightblue" points="223.697,-591.92 232.313,-585.755 221.733,-585.201 223.697,-591.92"/>
</g>
<!-- Node7 -->
<g id="node7" class="node"><title>Node7</title>
<g id="a_node7"><a xlink:href="classVector.html#a3c8f59182463d6da833e7856f06e6171" target="_top" xlink:title="Vector::size">
<polygon fill="white" stroke="black" points="494.5,-646.5 494.5,-665.5 563.5,-665.5 563.5,-646.5 494.5,-646.5"/>
<text text-anchor="middle" x="529" y="-653.5" font-family="Helvetica,sans-Serif" font-size="10.00">Vector::size</text>
</a>
</g>
</g>
<!-- Node6&#45;&gt;Node7 -->
<g id="edge6" class="edge"><title>Node6&#45;&gt;Node7</title>
<path fill="none" stroke="midnightblue" d="M406.044,-656C426.291,-656 458.224,-656 484.335,-656"/>
<polygon fill="midnightblue" stroke="midnightblue" points="484.385,-659.5 494.385,-656 484.384,-652.5 484.385,-659.5"/>
</g>
<!-- Node9 -->
<g id="node9" class="node"><title>Node9</title>
<g id="a_node9"><a xlink:href="classIERS.html#a2601a074a58e3c470db336bc1aea6791" target="_top" xlink:title="IERS::UT1_UTC">
<polygon fill="white" stroke="black" points="339,-494.5 339,-513.5 431,-513.5 431,-494.5 339,-494.5"/>
<text text-anchor="middle" x="385" y="-501.5" font-family="Helvetica,sans-Serif" font-size="10.00">IERS::UT1_UTC</text>
</a>
</g>
</g>
<!-- Node8&#45;&gt;Node9 -->
<g id="edge8" class="edge"><title>Node8&#45;&gt;Node9</title>
<path fill="none" stroke="midnightblue" d="M273.61,-573.404C282.492,-570.124 292.996,-565.828 302,-561 324.304,-549.041 347.832,-532.188 363.938,-519.91"/>
<polygon fill="midnightblue" stroke="midnightblue" points="366.3,-522.508 372.066,-513.62 362.016,-516.972 366.3,-522.508"/>
</g>
<!-- Node12 -->
<g id="node12" class="node"><title>Node12</title>
<g id="a_node12"><a xlink:href="classIERS.html#a79c2d9fcfafe0c0d8cee4545e17af0f3" target="_top" xlink:title="IERS::GPS_UTC">
<polygon fill="white" stroke="black" points="338,-570.5 338,-589.5 432,-589.5 432,-570.5 338,-570.5"/>
<text text-anchor="middle" x="385" y="-577.5" font-family="Helvetica,sans-Serif" font-size="10.00">IERS::GPS_UTC</text>
</a>
</g>
</g>
<!-- Node8&#45;&gt;Node12 -->
<g id="edge11" class="edge"><title>Node8&#45;&gt;Node12</title>
<path fill="none" stroke="midnightblue" d="M273.744,-580C288.134,-580 308.398,-580 327.636,-580"/>
<polygon fill="midnightblue" stroke="midnightblue" points="327.868,-583.5 337.868,-580 327.868,-576.5 327.868,-583.5"/>
</g>
<!-- Node13 -->
<g id="node13" class="node"><title>Node13</title>
<g id="a_node13"><a xlink:href="SAT__VecMat_8cpp.html#a94c9c4e1f3afc6636dda6572f72ef4c2" target="_top" xlink:title="R_z">
<polygon fill="white" stroke="black" points="367.5,-342.5 367.5,-361.5 402.5,-361.5 402.5,-342.5 367.5,-342.5"/>
<text text-anchor="middle" x="385" y="-349.5" font-family="Helvetica,sans-Serif" font-size="10.00">R_z</text>
</a>
</g>
</g>
<!-- Node8&#45;&gt;Node13 -->
<g id="edge13" class="edge"><title>Node8&#45;&gt;Node13</title>
<path fill="none" stroke="midnightblue" d="M273.961,-576.761C283.807,-574.139 295.035,-569.429 302,-561 356.746,-494.745 283.745,-437.658 338,-371 342.95,-364.919 350.171,-360.761 357.431,-357.928"/>
<polygon fill="midnightblue" stroke="midnightblue" points="358.682,-361.202 367.145,-354.829 356.555,-354.534 358.682,-361.202"/>
</g>
<!-- Node14 -->
<g id="node14" class="node"><title>Node14</title>
<g id="a_node14"><a xlink:href="SAT__RefSys_8cpp.html#a2a4cc14aa92a1449e08540255af19f8e" target="_top" xlink:title="GMST">
<polygon fill="white" stroke="black" points="506.5,-437.5 506.5,-456.5 551.5,-456.5 551.5,-437.5 506.5,-437.5"/>
<text text-anchor="middle" x="529" y="-444.5" font-family="Helvetica,sans-Serif" font-size="10.00">GMST</text>
</a>
</g>
</g>
<!-- Node8&#45;&gt;Node14 -->
<g id="edge14" class="edge"><title>Node8&#45;&gt;Node14</title>
<path fill="none" stroke="midnightblue" d="M273.601,-575.835C283.113,-572.986 294.15,-568.352 302,-561 329.279,-535.451 308.54,-508.001 338,-485 384.124,-448.988 455.294,-444.371 496.175,-445.111"/>
<polygon fill="midnightblue" stroke="midnightblue" points="496.268,-448.615 506.37,-445.419 496.48,-441.618 496.268,-448.615"/>
</g>
<!-- Node16 -->
<g id="node16" class="node"><title>Node16</title>
<g id="a_node16"><a xlink:href="SAT__Force_8cpp.html#a35b54a3eda29b936098b3cc869d6c381" target="_top" xlink:title="AccelHarmonic">
<polygon fill="white" stroke="black" points="343.5,-380.5 343.5,-399.5 426.5,-399.5 426.5,-380.5 343.5,-380.5"/>
<text text-anchor="middle" x="385" y="-387.5" font-family="Helvetica,sans-Serif" font-size="10.00">AccelHarmonic</text>
</a>
</g>
</g>
<!-- Node8&#45;&gt;Node16 -->
<g id="edge16" class="edge"><title>Node8&#45;&gt;Node16</title>
<path fill="none" stroke="midnightblue" d="M273.806,-576.629C283.609,-573.972 294.846,-569.269 302,-561 347.423,-508.497 292.967,-461.837 338,-409 339.016,-407.808 340.118,-406.69 341.29,-405.64"/>
<polygon fill="midnightblue" stroke="midnightblue" points="343.648,-408.263 349.848,-399.671 339.643,-402.522 343.648,-408.263"/>
</g>
<!-- Node10 -->
<g id="node10" class="node"><title>Node10</title>
<g id="a_node10"><a xlink:href="classIERS.html#acfce0b1a43896fed7b1bf9cefe3baebd" target="_top" xlink:title="IERS::UT1_TAI">
<polygon fill="white" stroke="black" points="486,-494.5 486,-513.5 572,-513.5 572,-494.5 486,-494.5"/>
<text text-anchor="middle" x="529" y="-501.5" font-family="Helvetica,sans-Serif" font-size="10.00">IERS::UT1_TAI</text>
</a>
</g>
</g>
<!-- Node9&#45;&gt;Node10 -->
<g id="edge9" class="edge"><title>Node9&#45;&gt;Node10</title>
<path fill="none" stroke="midnightblue" d="M431.32,-504C445.297,-504 460.809,-504 475.242,-504"/>
<polygon fill="midnightblue" stroke="midnightblue" points="475.523,-507.5 485.523,-504 475.523,-500.5 475.523,-507.5"/>
</g>
<!-- Node11 -->
<g id="node11" class="node"><title>Node11</title>
<g id="a_node11"><a xlink:href="classIERS.html#ad872e267797cb8d5be328b236287565f" target="_top" xlink:title="IERS::UTC_TAI">
<polygon fill="white" stroke="black" points="484.5,-532.5 484.5,-551.5 573.5,-551.5 573.5,-532.5 484.5,-532.5"/>
<text text-anchor="middle" x="529" y="-539.5" font-family="Helvetica,sans-Serif" font-size="10.00">IERS::UTC_TAI</text>
</a>
</g>
</g>
<!-- Node9&#45;&gt;Node11 -->
<g id="edge10" class="edge"><title>Node9&#45;&gt;Node11</title>
<path fill="none" stroke="midnightblue" d="M421.833,-513.589C440.163,-518.494 462.678,-524.52 482.25,-529.757"/>
<polygon fill="midnightblue" stroke="midnightblue" points="481.614,-533.21 492.179,-532.414 483.424,-526.448 481.614,-533.21"/>
</g>
<!-- Node12&#45;&gt;Node11 -->
<g id="edge12" class="edge"><title>Node12&#45;&gt;Node11</title>
<path fill="none" stroke="midnightblue" d="M421.833,-570.411C440.163,-565.506 462.678,-559.48 482.25,-554.243"/>
<polygon fill="midnightblue" stroke="midnightblue" points="483.424,-557.552 492.179,-551.586 481.614,-550.79 483.424,-557.552"/>
</g>
<!-- Node15 -->
<g id="node15" class="node"><title>Node15</title>
<g id="a_node15"><a xlink:href="namespaceanonymous__namespace_02SAT__Force_8cpp_03.html#aa6826b33621fa6ff5736c6432c487c1a" target="_top" xlink:title="anonymous_namespace\l\{SAT_Force::cpp\}::Frac">
<polygon fill="white" stroke="black" points="626,-432 626,-462 748,-462 748,-432 626,-432"/>
<text text-anchor="start" x="634" y="-450" font-family="Helvetica,sans-Serif" font-size="10.00">anonymous_namespace</text>
<text text-anchor="middle" x="687" y="-439" font-family="Helvetica,sans-Serif" font-size="10.00">{SAT_Force::cpp}::Frac</text>
</a>
</g>
</g>
<!-- Node14&#45;&gt;Node15 -->
<g id="edge15" class="edge"><title>Node14&#45;&gt;Node15</title>
<path fill="none" stroke="midnightblue" d="M551.691,-447C568.392,-447 592.466,-447 615.634,-447"/>
<polygon fill="midnightblue" stroke="midnightblue" points="615.833,-450.5 625.833,-447 615.833,-443.5 615.833,-450.5"/>
</g>
<!-- Node17 -->
<g id="node17" class="node"><title>Node17</title>
<g id="a_node17"><a xlink:href="SAT__VecMat_8cpp.html#a71375a6ebee7fc40c1d45985175d82e5" target="_top" xlink:title="Dot">
<polygon fill="white" stroke="black" points="513,-342.5 513,-361.5 545,-361.5 545,-342.5 513,-342.5"/>
<text text-anchor="middle" x="529" y="-349.5" font-family="Helvetica,sans-Serif" font-size="10.00">Dot</text>
</a>
</g>
</g>
<!-- Node16&#45;&gt;Node17 -->
<g id="edge17" class="edge"><title>Node16&#45;&gt;Node17</title>
<path fill="none" stroke="midnightblue" d="M421.833,-380.411C447.225,-373.616 480.646,-364.672 503.151,-358.65"/>
<polygon fill="midnightblue" stroke="midnightblue" points="504.191,-361.995 512.946,-356.028 502.381,-355.233 504.191,-361.995"/>
</g>
<!-- Node18 -->
<g id="node18" class="node"><title>Node18</title>
<g id="a_node18"><a xlink:href="SAT__VecMat_8cpp.html#aa54829a0c63c78e6bfbd12285ad94075" target="_top" xlink:title="Transp">
<polygon fill="white" stroke="black" points="505.5,-212.5 505.5,-231.5 552.5,-231.5 552.5,-212.5 505.5,-212.5"/>
<text text-anchor="middle" x="529" y="-219.5" font-family="Helvetica,sans-Serif" font-size="10.00">Transp</text>
</a>
</g>
</g>
<!-- Node16&#45;&gt;Node18 -->
<g id="edge18" class="edge"><title>Node16&#45;&gt;Node18</title>
<path fill="none" stroke="midnightblue" d="M416.687,-380.398C422.127,-377.867 427.488,-374.763 432,-371 475.953,-334.348 506.71,-272.313 520.247,-241.118"/>
<polygon fill="midnightblue" stroke="midnightblue" points="523.514,-242.377 524.172,-231.803 517.064,-239.659 523.514,-242.377"/>
</g>
<!-- Node20 -->
<g id="node20" class="node"><title>Node20</title>
<g id="a_node20"><a xlink:href="GEODA_8cpp.html#ad363d83dfb0be87465bd76a2e5e0ff6b" target="_top" xlink:title="Phi">
<polygon fill="white" stroke="black" points="237.5,-722.5 237.5,-741.5 268.5,-741.5 268.5,-722.5 237.5,-722.5"/>
<text text-anchor="middle" x="253" y="-729.5" font-family="Helvetica,sans-Serif" font-size="10.00">Phi</text>
</a>
</g>
</g>
<!-- Node19&#45;&gt;Node20 -->
<g id="edge20" class="edge"><title>Node19&#45;&gt;Node20</title>
<path fill="none" stroke="midnightblue" d="M145.542,-732C168.534,-732 203.404,-732 226.911,-732"/>
<polygon fill="midnightblue" stroke="midnightblue" points="227.133,-735.5 237.133,-732 227.133,-728.5 227.133,-735.5"/>
</g>
<!-- Node19&#45;&gt;Node5 -->
<g id="edge21" class="edge"><title>Node19&#45;&gt;Node5</title>
<path fill="none" stroke="midnightblue" d="M145.542,-725.118C163.355,-719.912 188.296,-712.621 209.56,-706.405"/>
<polygon fill="midnightblue" stroke="midnightblue" points="210.727,-709.711 219.344,-703.546 208.763,-702.992 210.727,-709.711"/>
</g>
<!-- Node21 -->
<g id="node21" class="node"><title>Node21</title>
<g id="a_node21"><a xlink:href="classMatrix.html#ae9f1574a9cf6595c64ce1236a8003cd2" target="_top" xlink:title="Matrix::SetCol">
<polygon fill="white" stroke="black" points="345,-684.5 345,-703.5 425,-703.5 425,-684.5 345,-684.5"/>
<text text-anchor="middle" x="385" y="-691.5" font-family="Helvetica,sans-Serif" font-size="10.00">Matrix::SetCol</text>
</a>
</g>
</g>
<!-- Node19&#45;&gt;Node21 -->
<g id="edge22" class="edge"><title>Node19&#45;&gt;Node21</title>
<path fill="none" stroke="midnightblue" d="M145.611,-740.409C180.591,-751.56 247.876,-767.963 302,-751 327.126,-743.125 351.3,-724.532 366.809,-710.71"/>
<polygon fill="midnightblue" stroke="midnightblue" points="369.513,-712.977 374.484,-703.62 364.763,-707.835 369.513,-712.977"/>
</g>
<!-- Node19&#45;&gt;Node8 -->
<g id="edge25" class="edge"><title>Node19&#45;&gt;Node8</title>
<path fill="none" stroke="midnightblue" d="M130.897,-722.447C140.766,-711.537 156.775,-692.877 168,-675 187.875,-643.347 176.721,-624.549 204,-599 209.274,-594.06 215.987,-590.348 222.71,-587.579"/>
<polygon fill="midnightblue" stroke="midnightblue" points="224.131,-590.789 232.399,-584.165 221.804,-584.187 224.131,-590.789"/>
</g>
<!-- Node21&#45;&gt;Node7 -->
<g id="edge23" class="edge"><title>Node21&#45;&gt;Node7</title>
<path fill="none" stroke="midnightblue" d="M421.833,-684.411C440.81,-679.333 464.271,-673.054 484.309,-667.692"/>
<polygon fill="midnightblue" stroke="midnightblue" points="485.379,-671.029 494.134,-665.063 483.569,-664.267 485.379,-671.029"/>
</g>
<!-- Node22 -->
<g id="node22" class="node"><title>Node22</title>
<g id="a_node22"><a xlink:href="classMatrix.html#a02c825325655a07eb94e4a57478a4c18" target="_top" xlink:title="Matrix::Col">
<polygon fill="white" stroke="black" points="496.5,-684.5 496.5,-703.5 561.5,-703.5 561.5,-684.5 496.5,-684.5"/>
<text text-anchor="middle" x="529" y="-691.5" font-family="Helvetica,sans-Serif" font-size="10.00">Matrix::Col</text>
</a>
</g>
</g>
<!-- Node21&#45;&gt;Node22 -->
<g id="edge24" class="edge"><title>Node21&#45;&gt;Node22</title>
<path fill="none" stroke="midnightblue" d="M425.178,-694C444.105,-694 466.837,-694 486.108,-694"/>
<polygon fill="midnightblue" stroke="midnightblue" points="486.121,-697.5 496.121,-694 486.121,-690.5 486.121,-697.5"/>
</g>
<!-- Node25 -->
<g id="node25" class="node"><title>Node25</title>
<g id="a_node25"><a xlink:href="SAT__Time_8cpp.html#a5c8f481874f5f0d660aa2c5edebdc29f" target="_top" xlink:title="Mjd">
<polygon fill="white" stroke="black" points="237,-532.5 237,-551.5 269,-551.5 269,-532.5 237,-532.5"/>
<text text-anchor="middle" x="253" y="-539.5" font-family="Helvetica,sans-Serif" font-size="10.00">Mjd</text>
</a>
</g>
</g>
<!-- Node24&#45;&gt;Node25 -->
<g id="edge28" class="edge"><title>Node24&#45;&gt;Node25</title>
<path fill="none" stroke="midnightblue" d="M146.147,-542C169.094,-542 203.464,-542 226.764,-542"/>
<polygon fill="midnightblue" stroke="midnightblue" points="226.912,-545.5 236.912,-542 226.912,-538.5 226.912,-545.5"/>
</g>
<!-- Node27&#45;&gt;Node11 -->
<g id="edge31" class="edge"><title>Node27&#45;&gt;Node11</title>
<path fill="none" stroke="midnightblue" d="M291.441,-513.503C305.91,-516.903 322.651,-520.506 338,-523 383.612,-530.41 435.885,-535.384 474.041,-538.378"/>
<polygon fill="midnightblue" stroke="midnightblue" points="474.174,-541.898 484.412,-539.17 474.708,-534.918 474.174,-541.898"/>
</g>
<!-- Node28&#45;&gt;Node27 -->
<g id="edge33" class="edge"><title>Node28&#45;&gt;Node27</title>
<path fill="none" stroke="midnightblue" d="M136.618,-380.664C146.4,-387.668 159.069,-397.838 168,-409 190.104,-436.626 178.912,-455.053 204,-480 207.53,-483.511 211.678,-486.601 216.032,-489.295"/>
<polygon fill="midnightblue" stroke="midnightblue" points="214.674,-492.541 225.127,-494.271 218.035,-486.4 214.674,-492.541"/>
</g>
<!-- Node28&#45;&gt;Node9 -->
<g id="edge34" class="edge"><title>Node28&#45;&gt;Node9</title>
<path fill="none" stroke="midnightblue" d="M134.451,-380.609C143.908,-388.066 157.1,-398.817 168,-409 185,-424.882 184.283,-434.651 204,-447 226.211,-460.911 290.905,-479.683 336.343,-491.816"/>
<polygon fill="midnightblue" stroke="midnightblue" points="335.733,-495.275 346.295,-494.45 337.523,-488.508 335.733,-495.275"/>
</g>
<!-- Node28&#45;&gt;Node18 -->
<g id="edge35" class="edge"><title>Node28&#45;&gt;Node18</title>
<path fill="none" stroke="midnightblue" d="M124.211,-361.425C133.433,-322.256 169.942,-174.788 204,-143 279.101,-72.9039 339.134,-61.0722 432,-105 475.154,-125.413 505.409,-175.784 519.337,-203.307"/>
<polygon fill="midnightblue" stroke="midnightblue" points="516.199,-204.857 523.724,-212.316 522.493,-201.793 516.199,-204.857"/>
</g>
<!-- Node29 -->
<g id="node29" class="node"><title>Node29</title>
<g id="a_node29"><a xlink:href="SAT__RefSys_8cpp.html#a35e586a324741da54bc1e407a5586378" target="_top" xlink:title="NutMatrix">
<polygon fill="white" stroke="black" points="223.5,-152.5 223.5,-171.5 282.5,-171.5 282.5,-152.5 223.5,-152.5"/>
<text text-anchor="middle" x="253" y="-159.5" font-family="Helvetica,sans-Serif" font-size="10.00">NutMatrix</text>
</a>
</g>
</g>
<!-- Node28&#45;&gt;Node29 -->
<g id="edge36" class="edge"><title>Node28&#45;&gt;Node29</title>
<path fill="none" stroke="midnightblue" d="M123.514,-361.229C128.78,-330.431 149.07,-234.279 204,-181 207.04,-178.052 210.593,-175.544 214.366,-173.416"/>
<polygon fill="midnightblue" stroke="midnightblue" points="215.902,-176.561 223.431,-169.107 212.897,-170.239 215.902,-176.561"/>
</g>
<!-- Node34 -->
<g id="node34" class="node"><title>Node34</title>
<g id="a_node34"><a xlink:href="SAT__RefSys_8cpp.html#abc2e56e609b82264ae010497b21dcba0" target="_top" xlink:title="PrecMatrix">
<polygon fill="white" stroke="black" points="221,-266.5 221,-285.5 285,-285.5 285,-266.5 221,-266.5"/>
<text text-anchor="middle" x="253" y="-273.5" font-family="Helvetica,sans-Serif" font-size="10.00">PrecMatrix</text>
</a>
</g>
</g>
<!-- Node28&#45;&gt;Node34 -->
<g id="edge42" class="edge"><title>Node28&#45;&gt;Node34</title>
<path fill="none" stroke="midnightblue" d="M131.449,-361.402C146.076,-346.887 175.496,-319.029 204,-300 209.163,-296.553 214.889,-293.275 220.537,-290.311"/>
<polygon fill="midnightblue" stroke="midnightblue" points="222.478,-293.253 229.852,-285.646 219.344,-286.994 222.478,-293.253"/>
</g>
<!-- Node36 -->
<g id="node36" class="node"><title>Node36</title>
<g id="a_node36"><a xlink:href="SAT__RefSys_8cpp.html#a3a50fff4beefe84794cd248777679bf4" target="_top" xlink:title="PoleMatrix">
<polygon fill="white" stroke="black" points="221.5,-190.5 221.5,-209.5 284.5,-209.5 284.5,-190.5 221.5,-190.5"/>
<text text-anchor="middle" x="253" y="-197.5" font-family="Helvetica,sans-Serif" font-size="10.00">PoleMatrix</text>
</a>
</g>
</g>
<!-- Node28&#45;&gt;Node36 -->
<g id="edge45" class="edge"><title>Node28&#45;&gt;Node36</title>
<path fill="none" stroke="midnightblue" d="M124.65,-361.342C132.385,-334.879 157.38,-260.427 204,-219 206.512,-216.768 209.319,-214.781 212.279,-213.017"/>
<polygon fill="midnightblue" stroke="midnightblue" points="214.134,-216.001 221.481,-208.367 210.977,-209.754 214.134,-216.001"/>
</g>
<!-- Node39 -->
<g id="node39" class="node"><title>Node39</title>
<g id="a_node39"><a xlink:href="classGeodetic.html#a7c02e1089d2fc2eebd46a20252e78130" target="_top" xlink:title="Geodetic::Position">
<polygon fill="white" stroke="black" points="204.5,-418.5 204.5,-437.5 301.5,-437.5 301.5,-418.5 204.5,-418.5"/>
<text text-anchor="middle" x="253" y="-425.5" font-family="Helvetica,sans-Serif" font-size="10.00">Geodetic::Position</text>
</a>
</g>
</g>
<!-- Node28&#45;&gt;Node39 -->
<g id="edge50" class="edge"><title>Node28&#45;&gt;Node39</title>
<path fill="none" stroke="midnightblue" d="M141.741,-380.534C158.263,-388.419 182.516,-399.779 204,-409 208.401,-410.889 213.056,-412.817 217.668,-414.686"/>
<polygon fill="midnightblue" stroke="midnightblue" points="216.392,-417.945 226.976,-418.407 218.99,-411.445 216.392,-417.945"/>
</g>
<!-- Node40 -->
<g id="node40" class="node"><title>Node40</title>
<g id="a_node40"><a xlink:href="SAT__RefSys_8cpp.html#a9699d3dfbd482534e86059e5613f8b8c" target="_top" xlink:title="GHAMatrix">
<polygon fill="white" stroke="black" points="220.5,-380.5 220.5,-399.5 285.5,-399.5 285.5,-380.5 220.5,-380.5"/>
<text text-anchor="middle" x="253" y="-387.5" font-family="Helvetica,sans-Serif" font-size="10.00">GHAMatrix</text>
</a>
</g>
</g>
<!-- Node28&#45;&gt;Node40 -->
<g id="edge51" class="edge"><title>Node28&#45;&gt;Node40</title>
<path fill="none" stroke="midnightblue" d="M153.802,-375.648C170.72,-378.121 191.741,-381.193 209.988,-383.86"/>
<polygon fill="midnightblue" stroke="midnightblue" points="209.675,-387.351 220.076,-385.334 210.687,-380.425 209.675,-387.351"/>
</g>
<!-- Node42 -->
<g id="node42" class="node"><title>Node42</title>
<g id="a_node42"><a xlink:href="classTrjData.html#a0aafb034164d6c5741aec8e37328af6f" target="_top" xlink:title="TrjData::State">
<polygon fill="white" stroke="black" points="214,-342.5 214,-361.5 292,-361.5 292,-342.5 214,-342.5"/>
<text text-anchor="middle" x="253" y="-349.5" font-family="Helvetica,sans-Serif" font-size="10.00">TrjData::State</text>
</a>
</g>
</g>
<!-- Node28&#45;&gt;Node42 -->
<g id="edge55" class="edge"><title>Node28&#45;&gt;Node42</title>
<path fill="none" stroke="midnightblue" d="M153.802,-366.352C168.741,-364.169 186.88,-361.518 203.482,-359.091"/>
<polygon fill="midnightblue" stroke="midnightblue" points="204.19,-362.525 213.578,-357.615 203.177,-355.599 204.19,-362.525"/>
</g>
<!-- Node28&#45;&gt;Node5 -->
<g id="edge56" class="edge"><title>Node28&#45;&gt;Node5</title>
<path fill="none" stroke="midnightblue" d="M139.153,-380.75C149.206,-387.392 161.224,-397.124 168,-409 218.839,-498.106 161.397,-543.676 204,-637 210.936,-652.193 223.082,-666.558 233.421,-677.066"/>
<polygon fill="midnightblue" stroke="midnightblue" points="231.249,-679.837 240.858,-684.3 236.13,-674.819 231.249,-679.837"/>
</g>
<!-- Node43 -->
<g id="node43" class="node"><title>Node43</title>
<g id="a_node43"><a xlink:href="SAT__VecMat_8cpp.html#a313ce8c9730e0bd08a1396f364f0486c" target="_top" xlink:title="Norm">
<polygon fill="white" stroke="black" points="364.5,-304.5 364.5,-323.5 405.5,-323.5 405.5,-304.5 364.5,-304.5"/>
<text text-anchor="middle" x="385" y="-311.5" font-family="Helvetica,sans-Serif" font-size="10.00">Norm</text>
</a>
</g>
</g>
<!-- Node28&#45;&gt;Node43 -->
<g id="edge57" class="edge"><title>Node28&#45;&gt;Node43</title>
<path fill="none" stroke="midnightblue" d="M138.344,-361.46C154.469,-352.53 180.104,-339.602 204,-333 255.467,-318.78 317.914,-315.067 354.09,-314.177"/>
<polygon fill="midnightblue" stroke="midnightblue" points="354.5,-317.67 364.432,-313.983 354.369,-310.671 354.5,-317.67"/>
</g>
<!-- Node44 -->
<g id="node44" class="node"><title>Node44</title>
<g id="a_node44"><a xlink:href="classTrjData.html#a04f78cff1af058ffea3acfeff85bff94" target="_top" xlink:title="TrjData::PhiS">
<polygon fill="white" stroke="black" points="215,-608.5 215,-627.5 291,-627.5 291,-608.5 215,-608.5"/>
<text text-anchor="middle" x="253" y="-615.5" font-family="Helvetica,sans-Serif" font-size="10.00">TrjData::PhiS</text>
</a>
</g>
</g>
<!-- Node28&#45;&gt;Node44 -->
<g id="edge59" class="edge"><title>Node28&#45;&gt;Node44</title>
<path fill="none" stroke="midnightblue" d="M138.572,-380.523C148.665,-387.199 160.937,-397.051 168,-409 211.731,-482.99 149.254,-532.745 204,-599 204.999,-600.209 206.086,-601.342 207.244,-602.402"/>
<polygon fill="midnightblue" stroke="midnightblue" points="205.555,-605.495 215.74,-608.414 209.598,-599.781 205.555,-605.495"/>
</g>
<!-- Node45 -->
<g id="node45" class="node"><title>Node45</title>
<g id="a_node45"><a xlink:href="classMatrix.html#a220d7f201c5dc597cd14530fe92402b0" target="_top" xlink:title="Matrix::slice">
<polygon fill="white" stroke="black" points="218,-228.5 218,-247.5 288,-247.5 288,-228.5 218,-228.5"/>
<text text-anchor="middle" x="253" y="-235.5" font-family="Helvetica,sans-Serif" font-size="10.00">Matrix::slice</text>
</a>
</g>
</g>
<!-- Node28&#45;&gt;Node45 -->
<g id="edge61" class="edge"><title>Node28&#45;&gt;Node45</title>
<path fill="none" stroke="midnightblue" d="M126.534,-361.324C137.126,-339.694 165.542,-286.975 204,-257 206.286,-255.218 208.761,-253.583 211.34,-252.086"/>
<polygon fill="midnightblue" stroke="midnightblue" points="213.04,-255.149 220.389,-247.518 209.885,-248.9 213.04,-255.149"/>
</g>
<!-- Node30 -->
<g id="node30" class="node"><title>Node30</title>
<g id="a_node30"><a xlink:href="SAT__RefSys_8cpp.html#a11f057ac4e8a0c5a7958f77379e30d40" target="_top" xlink:title="MeanObliquity">
<polygon fill="white" stroke="black" points="345.5,-114.5 345.5,-133.5 424.5,-133.5 424.5,-114.5 345.5,-114.5"/>
<text text-anchor="middle" x="385" y="-121.5" font-family="Helvetica,sans-Serif" font-size="10.00">MeanObliquity</text>
</a>
</g>
</g>
<!-- Node29&#45;&gt;Node30 -->
<g id="edge37" class="edge"><title>Node29&#45;&gt;Node30</title>
<path fill="none" stroke="midnightblue" d="M282.529,-153.661C299.841,-148.6 322.256,-142.048 341.615,-136.39"/>
<polygon fill="midnightblue" stroke="midnightblue" points="342.799,-139.69 351.416,-133.525 340.835,-132.971 342.799,-139.69"/>
</g>
<!-- Node31 -->
<g id="node31" class="node"><title>Node31</title>
<g id="a_node31"><a xlink:href="SAT__RefSys_8cpp.html#a2a9df90e79156b20bf667ae56342d756" target="_top" xlink:title="NutAngles">
<polygon fill="white" stroke="red" points="354,-38.5 354,-57.5 416,-57.5 416,-38.5 354,-38.5"/>
<text text-anchor="middle" x="385" y="-45.5" font-family="Helvetica,sans-Serif" font-size="10.00">NutAngles</text>
</a>
</g>
</g>
<!-- Node29&#45;&gt;Node31 -->
<g id="edge38" class="edge"><title>Node29&#45;&gt;Node31</title>
<path fill="none" stroke="midnightblue" d="M265.084,-152.28C287.342,-132.762 337.692,-88.6087 365.198,-64.4881"/>
<polygon fill="midnightblue" stroke="midnightblue" points="367.733,-66.9198 372.944,-57.695 363.118,-61.6567 367.733,-66.9198"/>
</g>
<!-- Node33 -->
<g id="node33" class="node"><title>Node33</title>
<g id="a_node33"><a xlink:href="SAT__VecMat_8cpp.html#ae452267b1d1da6280386846d97ec4e4f" target="_top" xlink:title="R_x">
<polygon fill="white" stroke="black" points="367.5,-152.5 367.5,-171.5 402.5,-171.5 402.5,-152.5 367.5,-152.5"/>
<text text-anchor="middle" x="385" y="-159.5" font-family="Helvetica,sans-Serif" font-size="10.00">R_x</text>
</a>
</g>
</g>
<!-- Node29&#45;&gt;Node33 -->
<g id="edge40" class="edge"><title>Node29&#45;&gt;Node33</title>
<path fill="none" stroke="midnightblue" d="M282.529,-162C304.78,-162 335.461,-162 357.246,-162"/>
<polygon fill="midnightblue" stroke="midnightblue" points="357.443,-165.5 367.443,-162 357.443,-158.5 357.443,-165.5"/>
</g>
<!-- Node29&#45;&gt;Node13 -->
<g id="edge41" class="edge"><title>Node29&#45;&gt;Node13</title>
<path fill="none" stroke="midnightblue" d="M282.717,-168.297C289.885,-171.114 296.957,-175.171 302,-181 347.423,-233.503 292.967,-280.163 338,-333 343.086,-338.968 350.347,-343.092 357.602,-345.93"/>
<polygon fill="midnightblue" stroke="midnightblue" points="356.693,-349.315 367.285,-349.055 358.843,-342.653 356.693,-349.315"/>
</g>
<!-- Node32 -->
<g id="node32" class="node"><title>Node32</title>
<g id="a_node32"><a xlink:href="namespaceanonymous__namespace_02SAT__Kepler_8cpp_03.html#a898091d856dff0d563448625b7634f16" target="_top" xlink:title="anonymous_namespace\l\{SAT_Kepler::cpp\}::F">
<polygon fill="white" stroke="black" points="468,-33 468,-63 590,-63 590,-33 468,-33"/>
<text text-anchor="start" x="476" y="-51" font-family="Helvetica,sans-Serif" font-size="10.00">anonymous_namespace</text>
<text text-anchor="middle" x="529" y="-40" font-family="Helvetica,sans-Serif" font-size="10.00">{SAT_Kepler::cpp}::F</text>
</a>
</g>
</g>
<!-- Node31&#45;&gt;Node32 -->
<g id="edge39" class="edge"><title>Node31&#45;&gt;Node32</title>
<path fill="none" stroke="midnightblue" d="M416.115,-48C428.352,-48 443.047,-48 457.702,-48"/>
<polygon fill="midnightblue" stroke="midnightblue" points="457.811,-51.5001 467.811,-48 457.811,-44.5001 457.811,-51.5001"/>
</g>
<!-- Node34&#45;&gt;Node13 -->
<g id="edge43" class="edge"><title>Node34&#45;&gt;Node13</title>
<path fill="none" stroke="midnightblue" d="M266.298,-285.531C282.232,-297.596 311.155,-318.545 338,-333 344.338,-336.413 351.423,-339.617 358.097,-342.386"/>
<polygon fill="midnightblue" stroke="midnightblue" points="356.861,-345.661 367.446,-346.106 359.449,-339.157 356.861,-345.661"/>
</g>
<!-- Node35 -->
<g id="node35" class="node"><title>Node35</title>
<g id="a_node35"><a xlink:href="SAT__VecMat_8cpp.html#a66b3b116958d5c2f1c528faa04c71674" target="_top" xlink:title="R_y">
<polygon fill="white" stroke="black" points="367.5,-266.5 367.5,-285.5 402.5,-285.5 402.5,-266.5 367.5,-266.5"/>
<text text-anchor="middle" x="385" y="-273.5" font-family="Helvetica,sans-Serif" font-size="10.00">R_y</text>
</a>
</g>
</g>
<!-- Node34&#45;&gt;Node35 -->
<g id="edge44" class="edge"><title>Node34&#45;&gt;Node35</title>
<path fill="none" stroke="midnightblue" d="M285.138,-276C307.143,-276 336.33,-276 357.278,-276"/>
<polygon fill="midnightblue" stroke="midnightblue" points="357.399,-279.5 367.399,-276 357.399,-272.5 357.399,-279.5"/>
</g>
<!-- Node36&#45;&gt;Node35 -->
<g id="edge46" class="edge"><title>Node36&#45;&gt;Node35</title>
<path fill="none" stroke="midnightblue" d="M283.956,-209.521C290.178,-212.129 296.506,-215.284 302,-219 321.271,-232.033 318.826,-243.824 338,-257 344.029,-261.143 351.1,-264.623 357.866,-267.426"/>
<polygon fill="midnightblue" stroke="midnightblue" points="356.811,-270.77 367.403,-271.047 359.296,-264.226 356.811,-270.77"/>
</g>
<!-- Node37 -->
<g id="node37" class="node"><title>Node37</title>
<g id="a_node37"><a xlink:href="classIERS.html#aa6619a8885c83540cf92a32510285edb" target="_top" xlink:title="IERS::x_pole">
<polygon fill="white" stroke="black" points="347.5,-228.5 347.5,-247.5 422.5,-247.5 422.5,-228.5 347.5,-228.5"/>
<text text-anchor="middle" x="385" y="-235.5" font-family="Helvetica,sans-Serif" font-size="10.00">IERS::x_pole</text>
</a>
</g>
</g>
<!-- Node36&#45;&gt;Node37 -->
<g id="edge47" class="edge"><title>Node36&#45;&gt;Node37</title>
<path fill="none" stroke="midnightblue" d="M284.808,-209.005C301.738,-213.954 322.993,-220.167 341.481,-225.572"/>
<polygon fill="midnightblue" stroke="midnightblue" points="340.56,-228.949 351.14,-228.395 342.524,-222.23 340.56,-228.949"/>
</g>
<!-- Node36&#45;&gt;Node33 -->
<g id="edge48" class="edge"><title>Node36&#45;&gt;Node33</title>
<path fill="none" stroke="midnightblue" d="M284.808,-190.995C306.904,-184.536 336.369,-175.923 357.432,-169.766"/>
<polygon fill="midnightblue" stroke="midnightblue" points="358.696,-173.043 367.312,-166.878 356.732,-166.324 358.696,-173.043"/>
</g>
<!-- Node38 -->
<g id="node38" class="node"><title>Node38</title>
<g id="a_node38"><a xlink:href="classIERS.html#a685869b1f1ac92c0595f8be01307a2ce" target="_top" xlink:title="IERS::y_pole">
<polygon fill="white" stroke="black" points="347.5,-190.5 347.5,-209.5 422.5,-209.5 422.5,-190.5 347.5,-190.5"/>
<text text-anchor="middle" x="385" y="-197.5" font-family="Helvetica,sans-Serif" font-size="10.00">IERS::y_pole</text>
</a>
</g>
</g>
<!-- Node36&#45;&gt;Node38 -->
<g id="edge49" class="edge"><title>Node36&#45;&gt;Node38</title>
<path fill="none" stroke="midnightblue" d="M284.808,-200C300.499,-200 319.907,-200 337.383,-200"/>
<polygon fill="midnightblue" stroke="midnightblue" points="337.407,-203.5 347.407,-200 337.407,-196.5 337.407,-203.5"/>
</g>
<!-- Node40&#45;&gt;Node13 -->
<g id="edge52" class="edge"><title>Node40&#45;&gt;Node13</title>
<path fill="none" stroke="midnightblue" d="M285.802,-380.704C307.794,-374.276 336.717,-365.821 357.468,-359.755"/>
<polygon fill="midnightblue" stroke="midnightblue" points="358.598,-363.072 367.214,-356.907 356.634,-356.353 358.598,-363.072"/>
</g>
<!-- Node41 -->
<g id="node41" class="node"><title>Node41</title>
<g id="a_node41"><a xlink:href="SAT__RefSys_8cpp.html#a120de1171391bce3ca4111e46331a93c" target="_top" xlink:title="GAST">
<polygon fill="white" stroke="red" points="363,-418.5 363,-437.5 407,-437.5 407,-418.5 363,-418.5"/>
<text text-anchor="middle" x="385" y="-425.5" font-family="Helvetica,sans-Serif" font-size="10.00">GAST</text>
</a>
</g>
</g>
<!-- Node40&#45;&gt;Node41 -->
<g id="edge53" class="edge"><title>Node40&#45;&gt;Node41</title>
<path fill="none" stroke="midnightblue" d="M285.802,-399.296C306.25,-405.273 332.691,-413.002 352.984,-418.934"/>
<polygon fill="midnightblue" stroke="midnightblue" points="352.104,-422.323 362.684,-421.769 354.068,-415.604 352.104,-422.323"/>
</g>
<!-- Node41&#45;&gt;Node14 -->
<g id="edge54" class="edge"><title>Node41&#45;&gt;Node14</title>
<path fill="none" stroke="midnightblue" d="M407.259,-430.844C430.755,-433.988 468.857,-439.086 495.971,-442.714"/>
<polygon fill="midnightblue" stroke="midnightblue" points="495.753,-446.216 506.129,-444.074 496.681,-439.278 495.753,-446.216"/>
</g>
<!-- Node43&#45;&gt;Node17 -->
<g id="edge58" class="edge"><title>Node43&#45;&gt;Node17</title>
<path fill="none" stroke="midnightblue" d="M405.744,-319.284C431.152,-326.083 475.311,-337.9 503.026,-345.317"/>
<polygon fill="midnightblue" stroke="midnightblue" points="502.205,-348.72 512.77,-347.924 504.015,-341.958 502.205,-348.72"/>
</g>
<!-- Node44&#45;&gt;Node21 -->
<g id="edge60" class="edge"><title>Node44&#45;&gt;Node21</title>
<path fill="none" stroke="midnightblue" d="M266.298,-627.531C282.232,-639.596 311.155,-660.545 338,-675 341.495,-676.882 345.217,-678.7 348.971,-680.417"/>
<polygon fill="midnightblue" stroke="midnightblue" points="347.696,-683.679 358.262,-684.455 350.486,-677.259 347.696,-683.679"/>
</g>
<!-- Node49 -->
<g id="node49" class="node"><title>Node49</title>
<g id="a_node49"><a xlink:href="classLSQ.html#a1747470db996bda1d339df70088c463a" target="_top" xlink:title="LSQ::Cov">
<polygon fill="white" stroke="black" points="223,-19.5 223,-38.5 283,-38.5 283,-19.5 223,-19.5"/>
<text text-anchor="middle" x="253" y="-26.5" font-family="Helvetica,sans-Serif" font-size="10.00">LSQ::Cov</text>
</a>
</g>
</g>
<!-- Node48&#45;&gt;Node49 -->
<g id="edge65" class="edge"><title>Node48&#45;&gt;Node49</title>
<path fill="none" stroke="midnightblue" d="M127.665,-181.185C140.073,-160.083 171.175,-109.288 204,-72 212.49,-62.3556 223.023,-52.7106 232.057,-45.0064"/>
<polygon fill="midnightblue" stroke="midnightblue" points="234.386,-47.6215 239.83,-38.5325 229.906,-42.2426 234.386,-47.6215"/>
</g>
<!-- Node50 -->
<g id="node50" class="node"><title>Node50</title>
<g id="a_node50"><a xlink:href="SAT__Filter_8cpp.html#a3e84458a7d84898487cdf6d4bd3a483e" target="_top" xlink:title="InvUpper">
<polygon fill="white" stroke="red" points="357,-0.5 357,-19.5 413,-19.5 413,-0.5 357,-0.5"/>
<text text-anchor="middle" x="385" y="-7.5" font-family="Helvetica,sans-Serif" font-size="10.00">InvUpper</text>
</a>
</g>
</g>
<!-- Node49&#45;&gt;Node50 -->
<g id="edge66" class="edge"><title>Node49&#45;&gt;Node50</title>
<path fill="none" stroke="midnightblue" d="M283.175,-24.736C301.916,-21.9968 326.437,-18.413 346.604,-15.4656"/>
<polygon fill="midnightblue" stroke="midnightblue" points="347.311,-18.8995 356.699,-13.9901 346.298,-11.9731 347.311,-18.8995"/>
</g>
</g>
</svg>
