<?xml version="1.0" encoding="utf-8"?>
<svg xmlns="http://www.w3.org/2000/svg" xmlns:xlink="http://www.w3.org/1999/xlink" width="614.5" height="460.75" viewBox="0 0 2458 1843">
<defs>
  <clipPath id="clip2500">
    <rect x="307" y="138" width="1967" height="1475"/>
  </clipPath>
</defs>
<defs>
  <clipPath id="clip2501">
    <rect x="0" y="0" width="2458" height="1843"/>
  </clipPath>
</defs>
<polyline clip-path="url(#clip2501)" style="stroke:#ededed; stroke-width:4.301; stroke-opacity:1; fill:none" points="
  307.25,1612.62 2273.65,1612.62 
  "/>
<polyline clip-path="url(#clip2501)" style="stroke:#ededed; stroke-width:4.301; stroke-opacity:1; fill:none" points="
  307.25,1525.9 2273.65,1525.9 
  "/>
<polyline clip-path="url(#clip2501)" style="stroke:#ededed; stroke-width:4.301; stroke-opacity:1; fill:none" points="
  307.25,1439.17 2273.65,1439.17 
  "/>
<polyline clip-path="url(#clip2501)" style="stroke:#cccccc; stroke-width:4.301; stroke-opacity:1; fill:none" points="
  307.25,1352.44 2273.65,1352.44 
  "/>
<polyline clip-path="url(#clip2501)" style="stroke:#ededed; stroke-width:4.301; stroke-opacity:1; fill:none" points="
  307.25,1265.71 2273.65,1265.71 
  "/>
<polyline clip-path="url(#clip2501)" style="stroke:#ededed; stroke-width:4.301; stroke-opacity:1; fill:none" points="
  307.25,1178.98 2273.65,1178.98 
  "/>
<polyline clip-path="url(#clip2501)" style="stroke:#ededed; stroke-width:4.301; stroke-opacity:1; fill:none" points="
  307.25,1092.25 2273.65,1092.25 
  "/>
<polyline clip-path="url(#clip2501)" style="stroke:#ededed; stroke-width:4.301; stroke-opacity:1; fill:none" points="
  307.25,1005.52 2273.65,1005.52 
  "/>
<polyline clip-path="url(#clip2501)" style="stroke:#cccccc; stroke-width:4.301; stroke-opacity:1; fill:none" points="
  307.25,918.79 2273.65,918.79 
  "/>
<polyline clip-path="url(#clip2501)" style="stroke:#ededed; stroke-width:4.301; stroke-opacity:1; fill:none" points="
  307.25,832.06 2273.65,832.06 
  "/>
<polyline clip-path="url(#clip2501)" style="stroke:#ededed; stroke-width:4.301; stroke-opacity:1; fill:none" points="
  307.25,745.331 2273.65,745.331 
  "/>
<polyline clip-path="url(#clip2501)" style="stroke:#ededed; stroke-width:4.301; stroke-opacity:1; fill:none" points="
  307.25,658.601 2273.65,658.601 
  "/>
<polyline clip-path="url(#clip2501)" style="stroke:#ededed; stroke-width:4.301; stroke-opacity:1; fill:none" points="
  307.25,571.872 2273.65,571.872 
  "/>
<polyline clip-path="url(#clip2501)" style="stroke:#cccccc; stroke-width:4.301; stroke-opacity:1; fill:none" points="
  307.25,485.143 2273.65,485.143 
  "/>
<polyline clip-path="url(#clip2501)" style="stroke:#ededed; stroke-width:4.301; stroke-opacity:1; fill:none" points="
  307.25,398.413 2273.65,398.413 
  "/>
<polyline clip-path="url(#clip2501)" style="stroke:#ededed; stroke-width:4.301; stroke-opacity:1; fill:none" points="
  307.25,311.684 2273.65,311.684 
  "/>
<polyline clip-path="url(#clip2501)" style="stroke:#ededed; stroke-width:4.301; stroke-opacity:1; fill:none" points="
  307.25,224.954 2273.65,224.954 
  "/>
<polyline clip-path="url(#clip2501)" style="stroke:#ededed; stroke-width:4.301; stroke-opacity:1; fill:none" points="
  410.745,1612.62 410.745,138.225 
  "/>
<polyline clip-path="url(#clip2501)" style="stroke:#ededed; stroke-width:4.301; stroke-opacity:1; fill:none" points="
  514.239,1612.62 514.239,138.225 
  "/>
<polyline clip-path="url(#clip2501)" style="stroke:#ededed; stroke-width:4.301; stroke-opacity:1; fill:none" points="
  617.734,1612.62 617.734,138.225 
  "/>
<polyline clip-path="url(#clip2501)" style="stroke:#ededed; stroke-width:4.301; stroke-opacity:1; fill:none" points="
  721.229,1612.62 721.229,138.225 
  "/>
<polyline clip-path="url(#clip2501)" style="stroke:#cccccc; stroke-width:4.301; stroke-opacity:1; fill:none" points="
  824.724,1612.62 824.724,138.225 
  "/>
<polyline clip-path="url(#clip2501)" style="stroke:#ededed; stroke-width:4.301; stroke-opacity:1; fill:none" points="
  928.218,1612.62 928.218,138.225 
  "/>
<polyline clip-path="url(#clip2501)" style="stroke:#ededed; stroke-width:4.301; stroke-opacity:1; fill:none" points="
  1031.71,1612.62 1031.71,138.225 
  "/>
<polyline clip-path="url(#clip2501)" style="stroke:#ededed; stroke-width:4.301; stroke-opacity:1; fill:none" points="
  1135.21,1612.62 1135.21,138.225 
  "/>
<polyline clip-path="url(#clip2501)" style="stroke:#ededed; stroke-width:4.301; stroke-opacity:1; fill:none" points="
  1238.7,1612.62 1238.7,138.225 
  "/>
<polyline clip-path="url(#clip2501)" style="stroke:#cccccc; stroke-width:4.301; stroke-opacity:1; fill:none" points="
  1342.2,1612.62 1342.2,138.225 
  "/>
<polyline clip-path="url(#clip2501)" style="stroke:#ededed; stroke-width:4.301; stroke-opacity:1; fill:none" points="
  1445.69,1612.62 1445.69,138.225 
  "/>
<polyline clip-path="url(#clip2501)" style="stroke:#ededed; stroke-width:4.301; stroke-opacity:1; fill:none" points="
  1549.19,1612.62 1549.19,138.225 
  "/>
<polyline clip-path="url(#clip2501)" style="stroke:#ededed; stroke-width:4.301; stroke-opacity:1; fill:none" points="
  1652.68,1612.62 1652.68,138.225 
  "/>
<polyline clip-path="url(#clip2501)" style="stroke:#ededed; stroke-width:4.301; stroke-opacity:1; fill:none" points="
  1756.18,1612.62 1756.18,138.225 
  "/>
<polyline clip-path="url(#clip2501)" style="stroke:#cccccc; stroke-width:4.301; stroke-opacity:1; fill:none" points="
  1859.67,1612.62 1859.67,138.225 
  "/>
<polyline clip-path="url(#clip2501)" style="stroke:#ededed; stroke-width:4.301; stroke-opacity:1; fill:none" points="
  1963.17,1612.62 1963.17,138.225 
  "/>
<polyline clip-path="url(#clip2501)" style="stroke:#ededed; stroke-width:4.301; stroke-opacity:1; fill:none" points="
  2066.66,1612.62 2066.66,138.225 
  "/>
<polyline clip-path="url(#clip2501)" style="stroke:#ededed; stroke-width:4.301; stroke-opacity:1; fill:none" points="
  2170.16,1612.62 2170.16,138.225 
  "/>
<polyline clip-path="url(#clip2501)" style="stroke:#ededed; stroke-width:4.301; stroke-opacity:1; fill:none" points="
  2273.65,1612.62 2273.65,138.225 
  "/>
<g clip-path="url(#clip2501)">
<text style="fill:#000000; fill-opacity:1; font-family:Arial,Helvetica Neue,Helvetica,sans-serif; font-size:60px; text-anchor:start;" transform="rotate(0, 64.3907, 1369.91)" x="64.3907" y="1369.91">-</text>
</g>
<g clip-path="url(#clip2501)">
<text style="fill:#000000; fill-opacity:1; font-family:Arial,Helvetica Neue,Helvetica,sans-serif; font-size:60px; text-anchor:start;" transform="rotate(0, 100.377, 1369.91)" x="100.377" y="1369.91">0.0005</text>
</g>
<g clip-path="url(#clip2501)">
<text style="fill:#000000; fill-opacity:1; font-family:Arial,Helvetica Neue,Helvetica,sans-serif; font-size:60px; text-anchor:start;" transform="rotate(0, 254.554, 936.261)" x="254.554" y="936.261">0</text>
</g>
<g clip-path="url(#clip2501)">
<text style="fill:#000000; fill-opacity:1; font-family:Arial,Helvetica Neue,Helvetica,sans-serif; font-size:60px; text-anchor:start;" transform="rotate(0, 100.377, 502.614)" x="100.377" y="502.614">0.0005</text>
</g>
<polyline clip-path="url(#clip2501)" style="stroke:#000000; stroke-width:4.301; stroke-opacity:1; fill:none" points="
  307.25,1612.62 307.25,1612.62 325.685,1612.62 307.25,1612.62 307.25,1525.9 325.685,1525.9 307.25,1525.9 307.25,1439.17 325.685,1439.17 307.25,1439.17 
  307.25,1352.44 344.12,1352.44 307.25,1352.44 307.25,1265.71 325.685,1265.71 307.25,1265.71 307.25,1178.98 325.685,1178.98 307.25,1178.98 307.25,1092.25 
  325.685,1092.25 307.25,1092.25 307.25,1005.52 325.685,1005.52 307.25,1005.52 307.25,918.79 344.12,918.79 307.25,918.79 307.25,832.06 325.685,832.06 
  307.25,832.06 307.25,745.331 325.685,745.331 307.25,745.331 307.25,658.601 325.685,658.601 307.25,658.601 307.25,571.872 325.685,571.872 307.25,571.872 
  307.25,485.143 344.12,485.143 307.25,485.143 307.25,398.413 325.685,398.413 307.25,398.413 307.25,311.684 325.685,311.684 307.25,311.684 307.25,224.954 
  325.685,224.954 307.25,224.954 307.25,138.225 325.685,138.225 307.25,138.225 
  "/>
<g clip-path="url(#clip2501)">
<text style="fill:#000000; fill-opacity:1; font-family:Arial,Helvetica Neue,Helvetica,sans-serif; font-size:60px; text-anchor:start;" transform="rotate(0, 290.119, 1685.9)" x="290.119" y="1685.9">0</text>
</g>
<g clip-path="url(#clip2501)">
<text style="fill:#000000; fill-opacity:1; font-family:Arial,Helvetica Neue,Helvetica,sans-serif; font-size:60px; text-anchor:start;" transform="rotate(0, 773.332, 1685.9)" x="773.332" y="1685.9">500</text>
</g>
<g clip-path="url(#clip2501)">
<text style="fill:#000000; fill-opacity:1; font-family:Arial,Helvetica Neue,Helvetica,sans-serif; font-size:60px; text-anchor:start;" transform="rotate(0, 1273.67, 1685.9)" x="1273.67" y="1685.9">1000</text>
</g>
<g clip-path="url(#clip2501)">
<text style="fill:#000000; fill-opacity:1; font-family:Arial,Helvetica Neue,Helvetica,sans-serif; font-size:60px; text-anchor:start;" transform="rotate(0, 1791.15, 1685.9)" x="1791.15" y="1685.9">1500</text>
</g>
<polyline clip-path="url(#clip2501)" style="stroke:#000000; stroke-width:4.301; stroke-opacity:1; fill:none" points="
  307.25,1612.62 307.25,1612.62 307.25,1575.76 307.25,1612.62 410.745,1612.62 410.745,1594.19 410.745,1612.62 514.239,1612.62 514.239,1594.19 514.239,1612.62 
  617.734,1612.62 617.734,1594.19 617.734,1612.62 721.229,1612.62 721.229,1594.19 721.229,1612.62 824.724,1612.62 824.724,1575.76 824.724,1612.62 928.218,1612.62 
  928.218,1594.19 928.218,1612.62 1031.71,1612.62 1031.71,1594.19 1031.71,1612.62 1135.21,1612.62 1135.21,1594.19 1135.21,1612.62 1238.7,1612.62 1238.7,1594.19 
  1238.7,1612.62 1342.2,1612.62 1342.2,1575.76 1342.2,1612.62 1445.69,1612.62 1445.69,1594.19 1445.69,1612.62 1549.19,1612.62 1549.19,1594.19 1549.19,1612.62 
  1652.68,1612.62 1652.68,1594.19 1652.68,1612.62 1756.18,1612.62 1756.18,1594.19 1756.18,1612.62 1859.67,1612.62 1859.67,1575.76 1859.67,1612.62 1963.17,1612.62 
  1963.17,1594.19 1963.17,1612.62 2066.66,1612.62 2066.66,1594.19 2066.66,1612.62 2170.16,1612.62 2170.16,1594.19 2170.16,1612.62 2273.65,1612.62 2273.65,1594.19 
  2273.65,1612.62 
  "/>
<polyline clip-path="url(#clip2501)" style="stroke:#000000; stroke-width:4.301; stroke-opacity:1; fill:none" points="
  2273.65,1612.62 2273.65,1612.62 2255.22,1612.62 2273.65,1612.62 2273.65,1525.9 2255.22,1525.9 2273.65,1525.9 2273.65,1439.17 2255.22,1439.17 2273.65,1439.17 
  2273.65,1352.44 2236.78,1352.44 2273.65,1352.44 2273.65,1265.71 2255.22,1265.71 2273.65,1265.71 2273.65,1178.98 2255.22,1178.98 2273.65,1178.98 2273.65,1092.25 
  2255.22,1092.25 2273.65,1092.25 2273.65,1005.52 2255.22,1005.52 2273.65,1005.52 2273.65,918.79 2236.78,918.79 2273.65,918.79 2273.65,832.06 2255.22,832.06 
  2273.65,832.06 2273.65,745.331 2255.22,745.331 2273.65,745.331 2273.65,658.601 2255.22,658.601 2273.65,658.601 2273.65,571.872 2255.22,571.872 2273.65,571.872 
  2273.65,485.143 2236.78,485.143 2273.65,485.143 2273.65,398.413 2255.22,398.413 2273.65,398.413 2273.65,311.684 2255.22,311.684 2273.65,311.684 2273.65,224.954 
  2255.22,224.954 2273.65,224.954 2273.65,138.225 2255.22,138.225 2273.65,138.225 
  "/>
<polyline clip-path="url(#clip2501)" style="stroke:#000000; stroke-width:4.301; stroke-opacity:1; fill:none" points="
  307.25,138.225 307.25,138.225 307.25,175.085 307.25,138.225 410.745,138.225 410.745,156.655 410.745,138.225 514.239,138.225 514.239,156.655 514.239,138.225 
  617.734,138.225 617.734,156.655 617.734,138.225 721.229,138.225 721.229,156.655 721.229,138.225 824.724,138.225 824.724,175.085 824.724,138.225 928.218,138.225 
  928.218,156.655 928.218,138.225 1031.71,138.225 1031.71,156.655 1031.71,138.225 1135.21,138.225 1135.21,156.655 1135.21,138.225 1238.7,138.225 1238.7,156.655 
  1238.7,138.225 1342.2,138.225 1342.2,175.085 1342.2,138.225 1445.69,138.225 1445.69,156.655 1445.69,138.225 1549.19,138.225 1549.19,156.655 1549.19,138.225 
  1652.68,138.225 1652.68,156.655 1652.68,138.225 1756.18,138.225 1756.18,156.655 1756.18,138.225 1859.67,138.225 1859.67,175.085 1859.67,138.225 1963.17,138.225 
  1963.17,156.655 1963.17,138.225 2066.66,138.225 2066.66,156.655 2066.66,138.225 2170.16,138.225 2170.16,156.655 2170.16,138.225 2273.65,138.225 2273.65,156.655 
  2273.65,138.225 
  "/>
<polyline clip-path="url(#clip2500)" style="stroke:#00528a; stroke-width:4.301; stroke-opacity:1; fill:none" points="
  308.285,918.79 309.32,918.79 310.355,918.79 311.39,918.79 312.425,918.792 313.46,918.795 314.495,918.799 315.53,918.804 316.565,918.81 317.599,918.818 
  318.634,918.826 319.669,918.836 320.704,918.848 321.739,918.861 322.774,918.875 323.809,918.892 324.844,918.91 325.879,918.93 326.914,918.952 327.949,918.976 
  328.984,919.002 330.019,919.03 331.054,919.059 332.089,919.09 333.124,919.121 334.159,919.154 335.194,919.187 336.229,919.221 337.263,919.255 338.298,919.288 
  339.333,919.322 340.368,919.357 341.403,919.392 342.438,919.429 343.473,919.468 344.508,919.509 345.543,919.554 346.578,919.602 347.613,919.655 348.648,919.712 
  349.683,919.775 350.718,919.843 351.753,919.917 352.788,919.998 353.823,920.086 354.858,920.18 355.893,920.281 356.927,920.389 357.962,920.503 358.997,920.623 
  360.032,920.747 361.067,920.876 362.102,921.008 363.137,921.143 364.172,921.279 365.207,921.415 366.242,921.552 367.277,921.688 368.312,921.823 369.347,921.959 
  370.382,922.095 371.417,922.234 372.452,922.378 373.487,922.527 374.522,922.684 375.557,922.851 376.591,923.028 377.626,923.216 378.661,923.418 379.696,923.632 
  380.731,923.859 381.766,924.101 382.801,924.357 383.836,924.626 384.871,924.91 385.906,925.206 386.941,925.513 387.976,925.831 389.011,926.157 390.046,926.488 
  391.081,926.824 392.116,927.162 393.151,927.5 394.186,927.836 395.221,928.17 396.255,928.502 397.29,928.832 398.325,929.16 399.36,929.49 400.395,929.824 
  401.43,930.165 402.465,930.516 403.5,930.881 404.535,931.262 405.57,931.661 406.605,932.079 407.64,932.517 408.675,932.976 409.71,933.456 410.745,933.958 
  411.78,934.479 412.815,935.021 413.85,935.581 414.885,936.158 415.919,936.748 416.954,937.349 417.989,937.957 419.024,938.567 420.059,939.175 421.094,939.778 
  422.129,940.372 423.164,940.957 424.199,941.532 425.234,942.097 426.269,942.654 427.304,943.206 428.339,943.756 429.374,944.309 430.409,944.87 431.444,945.443 
  432.479,946.031 433.514,946.639 434.549,947.269 435.583,947.922 436.618,948.599 437.653,949.3 438.688,950.024 439.723,950.771 440.758,951.539 441.793,952.326 
  442.828,953.129 443.863,953.945 444.898,954.769 445.933,955.595 446.968,956.417 448.003,957.228 449.038,958.019 450.073,958.787 451.108,959.526 452.143,960.236 
  453.178,960.917 454.213,961.574 455.247,962.21 456.282,962.832 457.317,963.444 458.352,964.054 459.387,964.666 460.422,965.286 461.457,965.919 462.492,966.568 
  463.527,967.237 464.562,967.926 465.597,968.635 466.632,969.365 467.667,970.112 468.702,970.876 469.737,971.653 470.772,972.439 471.807,973.23 472.842,974.021 
  473.877,974.804 474.911,975.571 475.946,976.313 476.981,977.018 478.016,977.678 479.051,978.283 480.086,978.829 481.121,979.317 482.156,979.75 483.191,980.137 
  484.226,980.487 485.261,980.808 486.296,981.111 487.331,981.404 488.366,981.694 489.401,981.985 490.436,982.284 491.471,982.594 492.506,982.917 493.541,983.254 
  494.575,983.605 495.61,983.968 496.645,984.341 497.68,984.72 498.715,985.099 499.75,985.474 500.785,985.838 501.82,986.183 502.855,986.501 503.89,986.779 
  504.925,987.007 505.96,987.171 506.995,987.259 508.03,987.262 509.065,987.173 510.1,986.996 511.135,986.739 512.17,986.417 513.205,986.044 514.239,985.637 
  515.274,985.209 516.309,984.771 517.344,984.331 518.379,983.895 519.414,983.468 520.449,983.053 521.484,982.652 522.519,982.264 523.554,981.889 524.589,981.524 
  525.624,981.166 526.659,980.808 527.694,980.445 528.729,980.067 529.764,979.667 530.799,979.233 531.834,978.755 532.869,978.219 533.903,977.613 534.938,976.921 
  535.973,976.132 537.008,975.235 538.043,974.228 539.078,973.115 540.113,971.911 541.148,970.635 542.183,969.31 543.218,967.96 544.253,966.603 545.288,965.252 
  546.323,963.917 547.358,962.606 548.393,961.32 549.428,960.062 550.463,958.832 551.498,957.629 552.533,956.452 553.567,955.295 554.602,954.154 555.637,953.02 
  556.672,951.885 557.707,950.736 558.742,949.562 559.777,948.349 560.812,947.082 561.847,945.748 562.882,944.331 563.917,942.819 564.952,941.2 565.987,939.469 
  567.022,937.626 568.057,935.681 569.092,933.652 570.127,931.566 571.162,929.453 572.197,927.34 573.231,925.25 574.266,923.202 575.301,921.205 576.336,919.265 
  577.371,917.384 578.406,915.563 579.441,913.798 580.476,912.088 581.511,910.426 582.546,908.808 583.581,907.224 584.616,905.664 585.651,904.115 586.686,902.561 
  587.721,900.985 588.756,899.369 589.791,897.695 590.826,895.945 591.861,894.106 592.895,892.168 593.93,890.123 594.965,887.973 596,885.725 597.035,883.396 
  598.07,881.012 599.105,878.601 600.14,876.198 601.175,873.835 602.21,871.536 603.245,869.322 604.28,867.202 605.315,865.182 606.35,863.262 607.385,861.438 
  608.42,859.706 609.455,858.059 610.49,856.488 611.525,854.985 612.559,853.537 613.594,852.13 614.629,850.746 615.664,849.364 616.699,847.96 617.734,846.51 
  618.769,844.992 619.804,843.387 620.839,841.68 621.874,839.867 622.909,837.949 623.944,835.937 624.979,833.85 626.014,831.712 627.049,829.556 628.084,827.416 
  629.119,825.326 630.154,823.318 631.189,821.417 632.223,819.642 633.258,818.003 634.293,816.502 635.328,815.137 636.363,813.902 637.398,812.787 638.433,811.782 
  639.468,810.876 640.503,810.054 641.538,809.3 642.573,808.594 643.608,807.914 644.643,807.232 645.678,806.518 646.713,805.742 647.748,804.876 648.783,803.897 
  649.818,802.796 650.853,801.574 651.887,800.243 652.922,798.829 653.957,797.363 654.992,795.881 656.027,794.422 657.062,793.023 658.097,791.717 659.132,790.534 
  660.167,789.495 661.202,788.616 662.237,787.903 663.272,787.356 664.307,786.971 665.342,786.737 666.377,786.641 667.412,786.668 668.447,786.802 669.482,787.023 
  670.517,787.311 671.551,787.641 672.586,787.986 673.621,788.311 674.656,788.581 675.691,788.759 676.726,788.813 677.761,788.719 678.796,788.471 679.831,788.079 
  680.866,787.571 681.901,786.989 682.936,786.38 683.971,785.791 685.006,785.267 686.041,784.847 687.076,784.561 688.111,784.433 689.146,784.48 690.181,784.711 
  691.215,785.128 692.25,785.728 693.285,786.502 694.32,787.434 695.355,788.509 696.39,789.707 697.425,791.004 698.46,792.379 699.495,793.803 700.53,795.248 
  701.565,796.68 702.6,798.063 703.635,799.355 704.67,800.517 705.705,801.513 706.74,802.322 707.775,802.94 708.81,803.39 709.845,803.717 710.879,803.979 
  711.914,804.242 712.949,804.563 713.984,804.994 715.019,805.572 716.054,806.323 717.089,807.264 718.124,808.404 719.159,809.745 720.194,811.283 721.229,813.01 
  722.264,814.911 723.299,816.968 724.334,819.159 725.369,821.459 726.404,823.84 727.439,826.271 728.474,828.722 729.509,831.156 730.543,833.538 731.578,835.826 
  732.613,837.98 733.648,839.958 734.683,841.73 735.718,843.276 736.753,844.602 737.788,845.741 738.823,846.754 739.858,847.717 740.893,848.709 741.928,849.802 
  742.963,851.05 743.998,852.488 745.033,854.137 746.068,856.005 747.103,858.091 748.138,860.389 749.173,862.889 750.207,865.573 751.242,868.423 752.277,871.415 
  753.312,874.522 754.347,877.712 755.382,880.95 756.417,884.199 757.452,887.421 758.487,890.575 759.522,893.621 760.557,896.517 761.592,899.224 762.627,901.709 
  763.662,903.947 764.697,905.93 765.732,907.676 766.767,909.231 767.802,910.665 768.837,912.07 769.871,913.536 770.906,915.143 771.941,916.947 772.976,918.982 
  774.011,921.262 775.046,923.786 776.081,926.542 777.116,929.514 778.151,932.683 779.186,936.024 780.221,939.513 781.256,943.118 782.291,946.806 783.326,950.539 
  784.361,954.273 785.396,957.963 786.431,961.564 787.466,965.027 788.501,968.309 789.535,971.372 790.57,974.181 791.605,976.715 792.64,978.966 793.675,980.943 
  794.71,982.68 795.745,984.238 796.78,985.697 797.815,987.153 798.85,988.703 799.885,990.428 800.92,992.384 801.955,994.603 802.99,997.092 804.025,999.84 
  805.06,1002.83 806.095,1006.02 807.13,1009.4 808.165,1012.93 809.199,1016.58 810.234,1020.3 811.269,1024.06 812.304,1027.82 813.339,1031.51 814.374,1035.09 
  815.409,1038.51 816.444,1041.69 817.479,1044.61 818.514,1047.22 819.549,1049.51 820.584,1051.46 821.619,1053.1 822.654,1054.45 823.689,1055.58 824.724,1056.56 
  825.759,1057.48 826.794,1058.43 827.829,1059.51 828.863,1060.79 829.898,1062.33 830.933,1064.14 831.968,1066.24 833.003,1068.59 834.038,1071.18 835.073,1073.97 
  836.108,1076.91 837.143,1079.97 838.178,1083.11 839.213,1086.27 840.248,1089.42 841.283,1092.5 842.318,1095.45 843.353,1098.2 844.388,1100.69 845.423,1102.87 
  846.458,1104.67 847.493,1106.07 848.527,1107.07 849.562,1107.68 850.597,1107.95 851.632,1107.95 852.667,1107.76 853.702,1107.46 854.737,1107.17 855.772,1106.96 
  856.807,1106.92 857.842,1107.1 858.877,1107.56 859.912,1108.3 860.947,1109.32 861.982,1110.59 863.017,1112.08 864.052,1113.75 865.087,1115.55 866.122,1117.42 
  867.157,1119.32 868.191,1121.2 869.226,1123 870.261,1124.67 871.296,1126.13 872.331,1127.33 873.366,1128.18 874.401,1128.61 875.436,1128.59 876.471,1128.08 
  877.506,1127.1 878.541,1125.7 879.576,1123.95 880.611,1121.96 881.646,1119.85 882.681,1117.72 883.716,1115.66 884.751,1113.77 885.786,1112.1 886.821,1110.69 
  887.855,1109.58 888.89,1108.75 889.925,1108.2 890.96,1107.9 891.995,1107.8 893.03,1107.86 894.065,1108.02 895.1,1108.22 896.135,1108.41 897.17,1108.53 
  898.205,1108.51 899.24,1108.31 900.275,1107.85 901.31,1107.05 902.345,1105.84 903.38,1104.16 904.415,1101.96 905.45,1099.22 906.485,1095.97 907.519,1092.28 
  908.554,1088.29 909.589,1084.13 910.624,1079.93 911.659,1075.84 912.694,1071.93 913.729,1068.29 914.764,1064.95 915.799,1061.93 916.834,1059.24 917.869,1056.87 
  918.904,1054.77 919.939,1052.92 920.974,1051.27 922.009,1049.76 923.044,1048.33 924.079,1046.92 925.114,1045.47 926.149,1043.91 927.183,1042.18 928.218,1040.21 
  929.253,1037.93 930.288,1035.28 931.323,1032.18 932.358,1028.58 933.393,1024.43 934.428,1019.75 935.463,1014.56 936.498,1008.99 937.533,1003.17 938.568,997.283 
  939.603,991.496 940.638,985.946 941.673,980.729 942.708,975.9 943.743,971.477 944.778,967.456 945.813,963.813 946.847,960.516 947.882,957.521 948.917,954.781 
  949.952,952.238 950.987,949.831 952.022,947.495 953.057,945.16 954.092,942.755 955.127,940.208 956.162,937.45 957.197,934.411 958.232,931.025 959.267,927.23 
  960.302,922.971 961.337,918.206 962.372,912.921 963.407,907.134 964.442,900.916 965.477,894.393 966.511,887.736 967.546,881.137 968.581,874.78 969.616,868.811 
  970.651,863.321 971.686,858.349 972.721,853.893 973.756,849.922 974.791,846.389 975.826,843.239 976.861,840.413 977.896,837.848 978.931,835.481 979.966,833.241 
  981.001,831.054 982.036,828.844 983.071,826.531 984.106,824.034 985.141,821.278 986.175,818.19 987.21,814.708 988.245,810.781 989.28,806.374 990.315,801.472 
  991.35,796.094 992.385,790.293 993.42,784.169 994.455,777.868 995.49,771.572 996.525,765.478 997.56,759.767 998.595,754.581 999.63,749.999 1000.66,746.048 
  1001.7,742.704 1002.73,739.914 1003.77,737.609 1004.8,735.714 1005.84,734.152 1006.87,732.848 1007.91,731.725 1008.94,730.705 1009.98,729.706 1011.01,728.643 
  1012.05,727.425 1013.08,725.965 1014.12,724.177 1015.15,721.989 1016.19,719.342 1017.22,716.203 1018.26,712.563 1019.29,708.446 1020.33,703.913 1021.36,699.058 
  1022.4,694.018 1023.43,688.956 1024.47,684.059 1025.5,679.512 1026.54,675.479 1027.57,672.077 1028.61,669.371 1029.64,667.367 1030.68,666.025 1031.71,665.275 
  1032.75,665.029 1033.78,665.195 1034.82,665.681 1035.85,666.398 1036.89,667.26 1037.92,668.18 1038.96,669.065 1039.99,669.823 1041.03,670.355 1042.06,670.563 
  1043.1,670.358 1044.13,669.663 1045.17,668.431 1046.2,666.647 1047.24,664.339 1048.27,661.579 1049.31,658.475 1050.34,655.174 1051.38,651.843 1052.41,648.663 
  1053.45,645.814 1054.48,643.458 1055.52,641.726 1056.55,640.702 1057.59,640.422 1058.62,640.869 1059.66,641.989 1060.69,643.696 1061.73,645.891 1062.76,648.47 
  1063.8,651.327 1064.83,654.364 1065.87,657.483 1066.9,660.59 1067.94,663.586 1068.97,666.371 1070.01,668.84 1071.04,670.891 1072.08,672.427 1073.11,673.377 
  1074.15,673.703 1075.18,673.418 1076.22,672.591 1077.25,671.346 1078.29,669.85 1079.32,668.297 1080.36,666.888 1081.39,665.81 1082.43,665.226 1083.46,665.265 
  1084.5,666.013 1085.53,667.515 1086.57,669.768 1087.6,672.733 1088.64,676.336 1089.67,680.484 1090.71,685.065 1091.74,689.967 1092.78,695.078 1093.81,700.289 
  1094.84,705.495 1095.88,710.595 1096.91,715.487 1097.95,720.068 1098.98,724.23 1100.02,727.871 1101.05,730.898 1102.09,733.245 1103.12,734.891 1104.16,735.877 
  1105.19,736.318 1106.23,736.393 1107.26,736.327 1108.3,736.361 1109.33,736.721 1110.37,737.593 1111.4,739.113 1112.44,741.367 1113.47,744.391 1114.51,748.183 
  1115.54,752.701 1116.58,757.879 1117.61,763.626 1118.65,769.835 1119.68,776.392 1120.72,783.175 1121.75,790.066 1122.79,796.951 1123.82,803.719 1124.86,810.265 
  1125.89,816.483 1126.93,822.273 1127.96,827.534 1129,832.169 1130.03,836.099 1131.07,839.274 1132.1,841.696 1133.14,843.437 1134.17,844.653 1135.21,845.575 
  1136.24,846.48 1137.28,847.648 1138.31,849.321 1139.35,851.678 1140.38,854.821 1141.42,858.787 1142.45,863.559 1143.49,869.085 1144.52,875.285 1145.56,882.063 
  1146.59,889.31 1147.63,896.908 1148.66,904.736 1149.7,912.668 1150.73,920.58 1151.77,928.352 1152.8,935.869 1153.84,943.021 1154.87,949.708 1155.91,955.831 
  1156.94,961.304 1157.98,966.049 1159.01,970.011 1160.05,973.171 1161.08,975.562 1162.12,977.293 1163.15,978.556 1164.19,979.619 1165.22,980.794 1166.26,982.387 
  1167.29,984.647 1168.33,987.737 1169.36,991.726 1170.4,996.601 1171.43,1002.29 1172.47,1008.7 1173.5,1015.71 1174.54,1023.19 1175.57,1031.02 1176.61,1039.06 
  1177.64,1047.19 1178.68,1055.27 1179.71,1063.19 1180.75,1070.81 1181.78,1078.01 1182.82,1084.68 1183.85,1090.72 1184.89,1096.05 1185.92,1100.61 1186.96,1104.33 
  1187.99,1107.21 1189.03,1109.28 1190.06,1110.6 1191.1,1111.34 1192.13,1111.72 1193.16,1112.01 1194.2,1112.56 1195.23,1113.66 1196.27,1115.55 1197.3,1118.38 
  1198.34,1122.18 1199.37,1126.91 1200.41,1132.43 1201.44,1138.62 1202.48,1145.31 1203.51,1152.36 1204.55,1159.61 1205.58,1166.93 1206.62,1174.17 1207.65,1181.22 
  1208.69,1187.92 1209.72,1194.16 1210.76,1199.81 1211.79,1204.75 1212.83,1208.89 1213.86,1212.16 1214.9,1214.52 1215.93,1215.97 1216.97,1216.54 1218,1216.32 
  1219.04,1215.44 1220.07,1214.11 1221.11,1212.57 1222.14,1211.13 1223.18,1210.08 1224.21,1209.71 1225.25,1210.22 1226.28,1211.72 1227.32,1214.22 1228.35,1217.64 
  1229.39,1221.83 1230.42,1226.6 1231.46,1231.78 1232.49,1237.2 1233.53,1242.67 1234.56,1248.07 1235.6,1253.24 1236.63,1258.05 1237.67,1262.36 1238.7,1266.03 
  1239.74,1268.94 1240.77,1270.98 1241.81,1272.06 1242.84,1272.13 1243.88,1271.18 1244.91,1269.26 1245.95,1266.46 1246.98,1262.96 1248.02,1258.95 1249.05,1254.69 
  1250.09,1250.44 1251.12,1246.5 1252.16,1243.14 1253.19,1240.57 1254.23,1238.95 1255.26,1238.35 1256.3,1238.73 1257.33,1239.98 1258.37,1241.93 1259.4,1244.4 
  1260.44,1247.18 1261.47,1250.07 1262.51,1252.91 1263.54,1255.54 1264.58,1257.8 1265.61,1259.56 1266.65,1260.68 1267.68,1261.03 1268.72,1260.49 1269.75,1258.94 
  1270.79,1256.31 1271.82,1252.57 1272.86,1247.75 1273.89,1241.95 1274.93,1235.35 1275.96,1228.2 1277,1220.76 1278.03,1213.33 1279.07,1206.21 1280.1,1199.67 
  1281.14,1193.9 1282.17,1189.08 1283.21,1185.26 1284.24,1182.46 1285.28,1180.6 1286.31,1179.54 1287.35,1179.11 1288.38,1179.11 1289.42,1179.32 1290.45,1179.55 
  1291.48,1179.63 1292.52,1179.38 1293.55,1178.65 1294.59,1177.32 1295.62,1175.25 1296.66,1172.31 1297.69,1168.39 1298.73,1163.4 1299.76,1157.26 1300.8,1149.98 
  1301.83,1141.63 1302.87,1132.37 1303.9,1122.46 1304.94,1112.2 1305.97,1101.94 1307.01,1092.04 1308.04,1082.78 1309.08,1074.39 1310.11,1067.03 1311.15,1060.74 
  1312.18,1055.54 1313.22,1051.35 1314.25,1048.04 1315.29,1045.45 1316.32,1043.39 1317.36,1041.67 1318.39,1040.07 1319.43,1038.4 1320.46,1036.48 1321.5,1034.14 
  1322.53,1031.24 1323.57,1027.64 1324.6,1023.23 1325.64,1017.9 1326.67,1011.55 1327.71,1004.1 1328.74,995.524 1329.78,985.85 1330.81,975.192 1331.85,963.768 
  1332.88,951.891 1333.92,939.945 1334.95,928.337 1335.99,917.439 1337.02,907.538 1338.06,898.817 1339.09,891.348 1340.13,885.108 1341.16,880.005 1342.2,875.896 
  1343.23,872.607 1344.27,869.945 1345.3,867.708 1346.34,865.692 1347.37,863.695 1348.41,861.526 1349.44,859.01 1350.48,855.985 1351.51,852.311 1352.55,847.864 
  1353.58,842.538 1354.62,836.244 1355.65,828.915 1356.69,820.515 1357.72,811.054 1358.76,800.609 1359.79,789.342 1360.83,777.522 1361.86,765.511 1362.9,753.737 
  1363.93,742.635 1364.97,732.584 1366,723.852 1367.04,716.57 1368.07,710.733 1369.11,706.237 1370.14,702.906 1371.18,700.532 1372.21,698.892 1373.25,697.765 
  1374.28,696.935 1375.32,696.195 1376.35,695.347 1377.39,694.208 1378.42,692.605 1379.46,690.384 1380.49,687.41 1381.53,683.573 1382.56,678.784 1383.6,672.984 
  1384.63,666.146 1385.67,658.286 1386.7,649.471 1387.74,639.838 1388.77,629.611 1389.8,619.101 1390.84,608.705 1391.87,598.861 1392.91,590.002 1393.94,582.481 
  1394.98,576.524 1396.01,572.205 1397.05,569.454 1398.08,568.092 1399.12,567.877 1400.15,568.545 1401.19,569.832 1402.22,571.491 1403.26,573.295 1404.29,575.033 
  1405.33,576.513 1406.36,577.555 1407.4,577.993 1408.43,577.679 1409.47,576.49 1410.5,574.327 1411.54,571.128 1412.57,566.872 1413.61,561.582 1414.64,555.339 
  1415.68,548.281 1416.71,540.62 1417.75,532.639 1418.78,524.694 1419.82,517.191 1420.85,510.555 1421.89,505.173 1422.92,501.342 1423.96,499.223 1424.99,498.825 
  1426.03,500.017 1427.06,502.568 1428.1,506.186 1429.13,510.566 1430.17,515.417 1431.2,520.473 1432.24,525.497 1433.27,530.279 1434.31,534.628 1435.34,538.371 
  1436.38,541.349 1437.41,543.424 1438.45,544.483 1439.48,544.449 1440.52,543.29 1441.55,541.031 1442.59,537.758 1443.62,533.626 1444.66,528.859 1445.69,523.746 
  1446.73,518.633 1447.76,513.904 1448.8,509.958 1449.83,507.173 1450.87,505.86 1451.9,506.227 1452.94,508.351 1453.97,512.17 1455.01,517.497 1456.04,524.063 
  1457.08,531.548 1458.11,539.627 1459.15,547.992 1460.18,556.368 1461.22,564.516 1462.25,572.227 1463.29,579.316 1464.32,585.617 1465.36,590.983 1466.39,595.286 
  1467.43,598.432 1468.46,600.368 1469.5,601.099 1470.53,600.705 1471.57,599.344 1472.6,597.257 1473.64,594.757 1474.67,592.212 1475.71,590.019 1476.74,588.576 
  1477.78,588.249 1478.81,589.342 1479.85,592.063 1480.88,596.512 1481.92,602.665 1482.95,610.384 1483.99,619.436 1485.02,629.521 1486.06,640.31 1487.09,651.473 
  1488.12,662.702 1489.16,673.724 1490.19,684.303 1491.23,694.237 1492.26,703.351 1493.3,711.492 1494.33,718.526 1495.37,724.347 1496.4,728.881 1497.44,732.108 
  1498.47,734.078 1499.51,734.932 1500.54,734.905 1501.58,734.326 1502.61,733.596 1503.65,733.155 1504.68,733.437 1505.72,734.833 1506.75,737.651 1507.79,742.096 
  1508.82,748.258 1509.86,756.115 1510.89,765.539 1511.93,776.315 1512.96,788.167 1514,800.777 1515.03,813.817 1516.07,826.964 1517.1,839.922 1518.14,852.43 
  1519.17,864.264 1520.21,875.233 1521.24,885.177 1522.28,893.964 1523.31,901.484 1524.35,907.656 1525.38,912.442 1526.42,915.862 1527.45,918.018 1528.49,919.112 
  1529.52,919.458 1530.56,919.465 1531.59,919.611 1532.63,920.391 1533.66,922.258 1534.7,925.572 1535.73,930.567 1536.77,937.337 1537.8,945.842 1538.84,955.937 
  1539.87,967.392 1540.91,979.921 1541.94,993.211 1542.98,1006.93 1544.01,1020.76 1545.05,1034.4 1546.08,1047.56 1547.12,1060.01 1548.15,1071.54 1549.19,1081.97 
  1550.22,1091.17 1551.26,1099.04 1552.29,1105.49 1553.33,1110.49 1554.36,1114.04 1555.4,1116.23 1556.43,1117.2 1557.47,1117.23 1558.5,1116.69 1559.54,1116.06 
  1560.57,1115.88 1561.61,1116.65 1562.64,1118.83 1563.68,1122.73 1564.71,1128.51 1565.75,1136.14 1566.78,1145.46 1567.82,1156.21 1568.85,1168.07 1569.89,1180.68 
  1570.92,1193.71 1571.96,1206.81 1572.99,1219.68 1574.03,1232.03 1575.06,1243.61 1576.1,1254.2 1577.13,1263.62 1578.17,1271.71 1579.2,1278.37 1580.24,1283.54 
  1581.27,1287.16 1582.31,1289.28 1583.34,1289.94 1584.38,1289.3 1585.41,1287.57 1586.44,1285.1 1587.48,1282.3 1588.51,1279.7 1589.55,1277.83 1590.58,1277.22 
  1591.62,1278.27 1592.65,1281.23 1593.69,1286.18 1594.72,1292.98 1595.76,1301.38 1596.79,1311.01 1597.83,1321.47 1598.86,1332.37 1599.9,1343.33 1600.93,1354.02 
  1601.97,1364.13 1603,1373.41 1604.04,1381.63 1605.07,1388.6 1606.11,1394.15 1607.14,1398.17 1608.18,1400.59 1609.21,1401.38 1610.25,1400.56 1611.28,1398.22 
  1612.32,1394.5 1613.35,1389.63 1614.39,1383.9 1615.42,1377.71 1616.46,1371.52 1617.49,1365.85 1618.53,1361.22 1619.56,1358.1 1620.6,1356.82 1621.63,1357.57 
  1622.67,1360.3 1623.7,1364.83 1624.74,1370.8 1625.77,1377.8 1626.81,1385.36 1627.84,1393.06 1628.88,1400.5 1629.91,1407.35 1630.95,1413.32 1631.98,1418.19 
  1633.02,1421.73 1634.05,1423.8 1635.09,1424.27 1636.12,1423.05 1637.16,1420.11 1638.19,1415.47 1639.23,1409.23 1640.26,1401.55 1641.3,1392.66 1642.33,1382.87 
  1643.37,1372.56 1644.4,1362.18 1645.44,1352.21 1646.47,1343.15 1647.51,1335.45 1648.54,1329.49 1649.58,1325.51 1650.61,1323.56 1651.65,1323.53 1652.68,1325.16 
  1653.72,1328.04 1654.75,1331.71 1655.79,1335.7 1656.82,1339.56 1657.86,1342.89 1658.89,1345.38 1659.93,1346.75 1660.96,1346.79 1662,1345.33 1663.03,1342.24 
  1664.07,1337.41 1665.1,1330.82 1666.14,1322.48 1667.17,1312.47 1668.21,1300.95 1669.24,1288.17 1670.28,1274.46 1671.31,1260.22 1672.35,1245.92 1673.38,1232.03 
  1674.42,1219.04 1675.45,1207.4 1676.49,1197.47 1677.52,1189.49 1678.56,1183.56 1679.59,1179.63 1680.63,1177.48 1681.66,1176.78 1682.7,1177.08 1683.73,1177.93 
  1684.76,1178.85 1685.8,1179.41 1686.83,1179.22 1687.87,1177.99 1688.9,1175.46 1689.94,1171.46 1690.97,1165.83 1692.01,1158.49 1693.04,1149.37 1694.08,1138.49 
  1695.11,1125.92 1696.15,1111.79 1697.18,1096.37 1698.22,1079.97 1699.25,1063.02 1700.29,1046.02 1701.32,1029.47 1702.36,1013.9 1703.39,999.758 1704.43,987.413 
  1705.46,977.109 1706.5,968.944 1707.53,962.863 1708.57,958.674 1709.6,956.064 1710.64,954.631 1711.67,953.924 1712.71,953.479 1713.74,952.848 1714.78,951.629 
  1715.81,949.479 1716.85,946.121 1717.88,941.341 1718.92,934.984 1719.95,926.946 1720.99,917.171 1722.02,905.653 1723.06,892.447 1724.09,877.684 1725.13,861.582 
  1726.16,844.463 1727.2,826.748 1728.23,808.941 1729.27,791.596 1730.3,775.27 1731.34,760.471 1732.37,747.609 1733.41,736.953 1734.44,728.611 1735.48,722.524 
  1736.51,718.487 1737.55,716.175 1738.58,715.18 1739.62,715.048 1740.65,715.317 1741.69,715.536 1742.72,715.296 1743.76,714.235 1744.79,712.057 1745.83,708.524 
  1746.86,703.464 1747.9,696.761 1748.93,688.353 1749.97,678.232 1751,666.446 1752.04,653.113 1753.07,638.427 1754.11,622.683 1755.14,606.277 1756.18,589.702 
  1757.21,573.524 1758.25,558.334 1759.28,544.691 1760.32,533.068 1761.35,523.796 1762.39,517.034 1763.42,512.75 1764.46,510.742 1765.49,510.664 1766.53,512.075 
  1767.56,514.488 1768.6,517.412 1769.63,520.378 1770.67,522.961 1771.7,524.791 1772.74,525.556 1773.77,525.009 1774.81,522.962 1775.84,519.288 1776.88,513.92 
  1777.91,506.847 1778.95,498.117 1779.98,487.843 1781.02,476.211 1782.05,463.491 1783.08,450.049 1784.12,436.349 1785.15,422.939 1786.19,410.413 1787.22,399.362 
  1788.26,390.31 1789.29,383.657 1790.33,379.633 1791.36,378.274 1792.4,379.42 1793.43,382.741 1794.47,387.778 1795.5,394.004 1796.54,400.873 1797.57,407.869 
  1798.61,414.53 1799.64,420.461 1800.68,425.335 1801.71,428.891 1802.75,430.935 1803.78,431.331 1804.82,430.007 1805.85,426.949 1806.89,422.208 1807.92,415.898 
  1808.96,408.207 1809.99,399.398 1811.03,389.819 1812.06,379.907 1813.1,370.179 1814.13,361.209 1815.17,353.587 1816.2,347.862 1817.24,344.481 1818.27,343.739 
  1819.31,345.743 1820.34,350.403 1821.38,357.443 1822.41,366.429 1823.45,376.824 1824.48,388.043 1825.52,399.513 1826.55,410.71 1827.59,421.19 1828.62,430.591 
  1829.66,438.631 1830.69,445.103 1831.73,449.866 1832.76,452.841 1833.8,454.014 1834.83,453.436 1835.87,451.226 1836.9,447.577 1837.94,442.757 1838.97,437.116 
  1840.01,431.078 1841.04,425.143 1842.08,419.859 1843.11,415.798 1844.15,413.506 1845.18,413.447 1846.22,415.956 1847.25,421.195 1848.29,429.135 1849.32,439.559 
  1850.36,452.087 1851.39,466.21 1852.43,481.344 1853.46,496.882 1854.5,512.25 1855.53,526.941 1856.57,540.54 1857.6,552.723 1858.64,563.258 1859.67,571.987 
  1860.71,578.825 1861.74,583.756 1862.78,586.829 1863.81,588.167 1864.85,587.967 1865.88,586.509 1866.92,584.148 1867.95,581.319 1868.99,578.52 1870.02,576.292 
  1871.06,575.193 1872.09,575.757 1873.13,578.447 1874.16,583.61 1875.2,591.435 1876.23,601.932 1877.27,614.931 1878.3,630.094 1879.34,646.952 1880.37,664.943 
  1881.4,683.467 1882.44,701.928 1883.47,719.779 1884.51,736.551 1885.54,751.871 1886.58,765.465 1887.61,777.146 1888.65,786.815 1889.68,794.443 1890.72,800.076 
  1891.75,803.834 1892.79,805.918 1893.82,806.611 1894.86,806.283 1895.89,805.381 1896.93,804.416 1897.96,803.94 1899,804.517 1900.03,806.682 1901.07,810.898 
  1902.1,817.514 1903.14,826.731 1904.17,838.576 1905.21,852.899 1906.24,869.388 1907.28,887.596 1908.31,906.982 1909.35,926.958 1910.38,946.929 1911.42,966.335 
  1912.45,984.681 1913.49,1001.56 1914.52,1016.64 1915.56,1029.73 1916.59,1040.68 1917.63,1049.45 1918.66,1056.07 1919.7,1060.67 1920.73,1063.42 1921.77,1064.61 
  1922.8,1064.62 1923.84,1063.9 1924.87,1062.98 1925.91,1062.44 1926.94,1062.86 1927.98,1064.79 1929.01,1068.71 1930.05,1074.99 1931.08,1083.84 1932.12,1095.3 
  1933.15,1109.24 1934.19,1125.35 1935.22,1143.18 1936.26,1162.2 1937.29,1181.81 1938.33,1201.43 1939.36,1220.47 1940.4,1238.43 1941.43,1254.9 1942.47,1269.52 
  1943.5,1282.06 1944.54,1292.36 1945.57,1300.36 1946.61,1306.08 1947.64,1309.61 1948.68,1311.13 1949.71,1310.91 1950.75,1309.32 1951.78,1306.81 1952.82,1303.93 
  1953.85,1301.26 1954.89,1299.41 1955.92,1298.97 1956.96,1300.44 1957.99,1304.21 1959.03,1310.54 1960.06,1319.5 1961.1,1330.97 1962.13,1344.67 1963.17,1360.16 
  1964.2,1376.87 1965.24,1394.2 1966.27,1411.53 1967.31,1428.25 1968.34,1443.86 1969.38,1457.91 1970.41,1470.05 1971.45,1480.02 1972.48,1487.67 1973.52,1492.92 
  1974.55,1495.77 1975.59,1496.32 1976.62,1494.72 1977.66,1491.23 1978.69,1486.2 1979.72,1480.07 1980.76,1473.37 1981.79,1466.68 1982.83,1460.65 1983.86,1455.88 
  1984.9,1452.91 1985.93,1452.18 1986.97,1453.98 1988,1458.41 1989.04,1465.41 1990.07,1474.73 1991.11,1485.96 1992.14,1498.56 1993.18,1511.88 1994.21,1525.26 
  1995.25,1538.08 1996.28,1549.75 1997.32,1559.82 1998.35,1567.9 1999.39,1573.75 2000.42,1577.18 2001.46,1578.14 2002.49,1576.62 2003.53,1572.71 2004.56,1566.58 
  2005.6,1558.47 2006.63,1548.72 2007.67,1537.75 2008.7,1526.05 2009.74,1514.2 2010.77,1502.84 2011.81,1492.59 2012.84,1484.02 2013.88,1477.62 2014.91,1473.7 
  2015.95,1472.43 2016.98,1473.77 2018.02,1477.52 2019.05,1483.33 2020.09,1490.68 2021.12,1498.96 2022.16,1507.49 2023.19,1515.6 2024.23,1522.65 2025.26,1528.11 
  2026.3,1531.56 2027.33,1532.73 2028.37,1531.42 2029.4,1527.57 2030.44,1521.18 2031.47,1512.37 2032.51,1501.3 2033.54,1488.23 2034.58,1473.49 2035.61,1457.5 
  2036.65,1440.73 2037.68,1423.74 2038.72,1407.14 2039.75,1391.55 2040.79,1377.55 2041.82,1365.65 2042.86,1356.23 2043.89,1349.46 2044.93,1345.37 2045.96,1343.79 
  2047,1344.4 2048.03,1346.72 2049.07,1350.18 2050.1,1354.14 2051.14,1357.9 2052.17,1360.8 2053.21,1362.27 2054.24,1361.81 2055.28,1359.07 2056.31,1353.84 
  2057.35,1346.04 2058.38,1335.66 2059.42,1322.82 2060.45,1307.72 2061.49,1290.63 2062.52,1271.9 2063.56,1251.94 2064.59,1231.25 2065.63,1210.37 2066.66,1189.89 
  2067.7,1170.4 2068.73,1152.5 2069.77,1136.68 2070.8,1123.34 2071.84,1112.71 2072.87,1104.84 2073.91,1099.61 2074.94,1096.69 2075.98,1095.66 2077.01,1095.96 
  2078.04,1096.95 2079.08,1097.99 2080.11,1098.4 2081.15,1097.6 2082.18,1095.04 2083.22,1090.32 2084.25,1083.16 2085.29,1073.44 2086.32,1061.13 2087.36,1046.34 
  2088.39,1029.27 2089.43,1010.21 2090.46,989.534 2091.5,967.684 2092.53,945.167 2093.57,922.539 2094.6,900.384 2095.64,879.297 2096.67,859.843 2097.71,842.524 
  2098.74,827.738 2099.78,815.737 2100.81,806.602 2101.85,800.229 2102.88,796.339 2103.92,794.502 2104.95,794.17 2105.99,794.721 2107.02,795.5 2108.06,795.856 
  2109.09,795.178 2110.13,792.932 2111.16,788.681 2112.2,782.111 2113.23,773.036 2114.27,761.402 2115.3,747.279 2116.34,730.853 2117.37,712.411 2118.41,692.339 
  2119.44,671.099 2120.48,649.225 2121.51,627.297 2122.55,605.92 2123.58,585.695 2124.62,567.187 2125.65,550.893 2126.69,537.206 2127.72,526.385 2128.76,518.531 
  2129.79,513.569 2130.83,511.249 2131.86,511.16 2132.9,512.761 2133.93,515.423 2134.97,518.478 2136,521.259 2137.04,523.147 2138.07,523.598 2139.11,522.165 
  2140.14,518.517 2141.18,512.444 2142.21,503.861 2143.25,492.803 2144.28,479.426 2145.32,463.995 2146.35,446.883 2147.39,428.556 2148.42,409.559 2149.46,390.499 
  2150.49,372.007 2151.53,354.71 2152.56,339.188 2153.6,325.943 2154.63,315.366 2155.67,307.718 2156.7,303.109 2157.74,301.486 2158.77,302.633 2159.81,306.171 
  2160.84,311.58 2161.88,318.237 2162.91,325.454 2163.95,332.539 2164.98,338.84 2166.02,343.786 2167.05,346.912 2168.09,347.873 2169.12,346.45 2170.16,342.546 
  2171.19,336.18 2172.23,327.486 2173.26,316.706 2174.3,304.186 2175.33,290.375 2176.36,275.809 2177.4,261.099 2178.43,246.897 2179.47,233.855 2180.5,222.583 
  2181.54,213.604 2182.57,207.32 2183.61,203.993 2184.64,203.735 2185.68,206.505 2186.71,212.109 2187.75,220.204 2188.78,230.312 2189.82,241.837 2190.85,254.099 
  2191.89,266.386 2192.92,278.006 2193.96,288.341 2194.99,296.885 2196.03,303.263 
  "/>
</svg>
