<?xml version="1.0" encoding="utf-8"?>
<svg xmlns="http://www.w3.org/2000/svg" xmlns:xlink="http://www.w3.org/1999/xlink" width="614.5" height="460.75" viewBox="0 0 2458 1843">
<defs>
  <clipPath id="clip5400">
    <rect x="307" y="138" width="1967" height="1475"/>
  </clipPath>
</defs>
<defs>
  <clipPath id="clip5401">
    <rect x="0" y="0" width="2458" height="1843"/>
  </clipPath>
</defs>
<polyline clip-path="url(#clip5401)" style="stroke:#cccccc; stroke-width:4.301; stroke-opacity:1; fill:none" points="
  307.25,1612.62 2273.65,1612.62 
  "/>
<polyline clip-path="url(#clip5401)" style="stroke:#ededed; stroke-width:4.301; stroke-opacity:1; fill:none" points="
  307.25,1542.42 2273.65,1542.42 
  "/>
<polyline clip-path="url(#clip5401)" style="stroke:#ededed; stroke-width:4.301; stroke-opacity:1; fill:none" points="
  307.25,1472.21 2273.65,1472.21 
  "/>
<polyline clip-path="url(#clip5401)" style="stroke:#ededed; stroke-width:4.301; stroke-opacity:1; fill:none" points="
  307.25,1402 2273.65,1402 
  "/>
<polyline clip-path="url(#clip5401)" style="stroke:#ededed; stroke-width:4.301; stroke-opacity:1; fill:none" points="
  307.25,1331.79 2273.65,1331.79 
  "/>
<polyline clip-path="url(#clip5401)" style="stroke:#cccccc; stroke-width:4.301; stroke-opacity:1; fill:none" points="
  307.25,1261.58 2273.65,1261.58 
  "/>
<polyline clip-path="url(#clip5401)" style="stroke:#ededed; stroke-width:4.301; stroke-opacity:1; fill:none" points="
  307.25,1191.37 2273.65,1191.37 
  "/>
<polyline clip-path="url(#clip5401)" style="stroke:#ededed; stroke-width:4.301; stroke-opacity:1; fill:none" points="
  307.25,1121.16 2273.65,1121.16 
  "/>
<polyline clip-path="url(#clip5401)" style="stroke:#ededed; stroke-width:4.301; stroke-opacity:1; fill:none" points="
  307.25,1050.95 2273.65,1050.95 
  "/>
<polyline clip-path="url(#clip5401)" style="stroke:#ededed; stroke-width:4.301; stroke-opacity:1; fill:none" points="
  307.25,980.739 2273.65,980.739 
  "/>
<polyline clip-path="url(#clip5401)" style="stroke:#cccccc; stroke-width:4.301; stroke-opacity:1; fill:none" points="
  307.25,910.53 2273.65,910.53 
  "/>
<polyline clip-path="url(#clip5401)" style="stroke:#ededed; stroke-width:4.301; stroke-opacity:1; fill:none" points="
  307.25,840.32 2273.65,840.32 
  "/>
<polyline clip-path="url(#clip5401)" style="stroke:#ededed; stroke-width:4.301; stroke-opacity:1; fill:none" points="
  307.25,770.111 2273.65,770.111 
  "/>
<polyline clip-path="url(#clip5401)" style="stroke:#ededed; stroke-width:4.301; stroke-opacity:1; fill:none" points="
  307.25,699.901 2273.65,699.901 
  "/>
<polyline clip-path="url(#clip5401)" style="stroke:#ededed; stroke-width:4.301; stroke-opacity:1; fill:none" points="
  307.25,629.692 2273.65,629.692 
  "/>
<polyline clip-path="url(#clip5401)" style="stroke:#cccccc; stroke-width:4.301; stroke-opacity:1; fill:none" points="
  307.25,559.482 2273.65,559.482 
  "/>
<polyline clip-path="url(#clip5401)" style="stroke:#ededed; stroke-width:4.301; stroke-opacity:1; fill:none" points="
  307.25,489.273 2273.65,489.273 
  "/>
<polyline clip-path="url(#clip5401)" style="stroke:#ededed; stroke-width:4.301; stroke-opacity:1; fill:none" points="
  307.25,419.063 2273.65,419.063 
  "/>
<polyline clip-path="url(#clip5401)" style="stroke:#ededed; stroke-width:4.301; stroke-opacity:1; fill:none" points="
  307.25,348.854 2273.65,348.854 
  "/>
<polyline clip-path="url(#clip5401)" style="stroke:#ededed; stroke-width:4.301; stroke-opacity:1; fill:none" points="
  307.25,278.644 2273.65,278.644 
  "/>
<polyline clip-path="url(#clip5401)" style="stroke:#cccccc; stroke-width:4.301; stroke-opacity:1; fill:none" points="
  307.25,208.435 2273.65,208.435 
  "/>
<polyline clip-path="url(#clip5401)" style="stroke:#ededed; stroke-width:4.301; stroke-opacity:1; fill:none" points="
  307.25,138.225 2273.65,138.225 
  "/>
<polyline clip-path="url(#clip5401)" style="stroke:#ededed; stroke-width:4.301; stroke-opacity:1; fill:none" points="
  410.745,1612.62 410.745,138.225 
  "/>
<polyline clip-path="url(#clip5401)" style="stroke:#ededed; stroke-width:4.301; stroke-opacity:1; fill:none" points="
  514.239,1612.62 514.239,138.225 
  "/>
<polyline clip-path="url(#clip5401)" style="stroke:#ededed; stroke-width:4.301; stroke-opacity:1; fill:none" points="
  617.734,1612.62 617.734,138.225 
  "/>
<polyline clip-path="url(#clip5401)" style="stroke:#ededed; stroke-width:4.301; stroke-opacity:1; fill:none" points="
  721.229,1612.62 721.229,138.225 
  "/>
<polyline clip-path="url(#clip5401)" style="stroke:#cccccc; stroke-width:4.301; stroke-opacity:1; fill:none" points="
  824.724,1612.62 824.724,138.225 
  "/>
<polyline clip-path="url(#clip5401)" style="stroke:#ededed; stroke-width:4.301; stroke-opacity:1; fill:none" points="
  928.218,1612.62 928.218,138.225 
  "/>
<polyline clip-path="url(#clip5401)" style="stroke:#ededed; stroke-width:4.301; stroke-opacity:1; fill:none" points="
  1031.71,1612.62 1031.71,138.225 
  "/>
<polyline clip-path="url(#clip5401)" style="stroke:#ededed; stroke-width:4.301; stroke-opacity:1; fill:none" points="
  1135.21,1612.62 1135.21,138.225 
  "/>
<polyline clip-path="url(#clip5401)" style="stroke:#ededed; stroke-width:4.301; stroke-opacity:1; fill:none" points="
  1238.7,1612.62 1238.7,138.225 
  "/>
<polyline clip-path="url(#clip5401)" style="stroke:#cccccc; stroke-width:4.301; stroke-opacity:1; fill:none" points="
  1342.2,1612.62 1342.2,138.225 
  "/>
<polyline clip-path="url(#clip5401)" style="stroke:#ededed; stroke-width:4.301; stroke-opacity:1; fill:none" points="
  1445.69,1612.62 1445.69,138.225 
  "/>
<polyline clip-path="url(#clip5401)" style="stroke:#ededed; stroke-width:4.301; stroke-opacity:1; fill:none" points="
  1549.19,1612.62 1549.19,138.225 
  "/>
<polyline clip-path="url(#clip5401)" style="stroke:#ededed; stroke-width:4.301; stroke-opacity:1; fill:none" points="
  1652.68,1612.62 1652.68,138.225 
  "/>
<polyline clip-path="url(#clip5401)" style="stroke:#ededed; stroke-width:4.301; stroke-opacity:1; fill:none" points="
  1756.18,1612.62 1756.18,138.225 
  "/>
<polyline clip-path="url(#clip5401)" style="stroke:#cccccc; stroke-width:4.301; stroke-opacity:1; fill:none" points="
  1859.67,1612.62 1859.67,138.225 
  "/>
<polyline clip-path="url(#clip5401)" style="stroke:#ededed; stroke-width:4.301; stroke-opacity:1; fill:none" points="
  1963.17,1612.62 1963.17,138.225 
  "/>
<polyline clip-path="url(#clip5401)" style="stroke:#ededed; stroke-width:4.301; stroke-opacity:1; fill:none" points="
  2066.66,1612.62 2066.66,138.225 
  "/>
<polyline clip-path="url(#clip5401)" style="stroke:#ededed; stroke-width:4.301; stroke-opacity:1; fill:none" points="
  2170.16,1612.62 2170.16,138.225 
  "/>
<polyline clip-path="url(#clip5401)" style="stroke:#ededed; stroke-width:4.301; stroke-opacity:1; fill:none" points="
  2273.65,1612.62 2273.65,138.225 
  "/>
<g clip-path="url(#clip5401)">
<text style="fill:#000000; fill-opacity:1; font-family:Arial,Helvetica Neue,Helvetica,sans-serif; font-size:60px; text-anchor:start;" transform="rotate(0, 167.175, 1630.1)" x="167.175" y="1630.1">-</text>
</g>
<g clip-path="url(#clip5401)">
<text style="fill:#000000; fill-opacity:1; font-family:Arial,Helvetica Neue,Helvetica,sans-serif; font-size:60px; text-anchor:start;" transform="rotate(0, 203.162, 1630.1)" x="203.162" y="1630.1">1.0</text>
</g>
<g clip-path="url(#clip5401)">
<text style="fill:#000000; fill-opacity:1; font-family:Arial,Helvetica Neue,Helvetica,sans-serif; font-size:60px; text-anchor:start;" transform="rotate(0, 167.175, 1279.05)" x="167.175" y="1279.05">-</text>
</g>
<g clip-path="url(#clip5401)">
<text style="fill:#000000; fill-opacity:1; font-family:Arial,Helvetica Neue,Helvetica,sans-serif; font-size:60px; text-anchor:start;" transform="rotate(0, 203.162, 1279.05)" x="203.162" y="1279.05">0.5</text>
</g>
<g clip-path="url(#clip5401)">
<text style="fill:#000000; fill-opacity:1; font-family:Arial,Helvetica Neue,Helvetica,sans-serif; font-size:60px; text-anchor:start;" transform="rotate(0, 254.554, 928.001)" x="254.554" y="928.001">0</text>
</g>
<g clip-path="url(#clip5401)">
<text style="fill:#000000; fill-opacity:1; font-family:Arial,Helvetica Neue,Helvetica,sans-serif; font-size:60px; text-anchor:start;" transform="rotate(0, 203.162, 576.954)" x="203.162" y="576.954">0.5</text>
</g>
<g clip-path="url(#clip5401)">
<text style="fill:#000000; fill-opacity:1; font-family:Arial,Helvetica Neue,Helvetica,sans-serif; font-size:60px; text-anchor:start;" transform="rotate(0, 203.162, 225.906)" x="203.162" y="225.906">1.0</text>
</g>
<polyline clip-path="url(#clip5401)" style="stroke:#000000; stroke-width:4.301; stroke-opacity:1; fill:none" points="
  307.25,1612.62 307.25,1612.62 344.12,1612.62 307.25,1612.62 307.25,1542.42 325.685,1542.42 307.25,1542.42 307.25,1472.21 325.685,1472.21 307.25,1472.21 
  307.25,1402 325.685,1402 307.25,1402 307.25,1331.79 325.685,1331.79 307.25,1331.79 307.25,1261.58 344.12,1261.58 307.25,1261.58 307.25,1191.37 
  325.685,1191.37 307.25,1191.37 307.25,1121.16 325.685,1121.16 307.25,1121.16 307.25,1050.95 325.685,1050.95 307.25,1050.95 307.25,980.739 325.685,980.739 
  307.25,980.739 307.25,910.53 344.12,910.53 307.25,910.53 307.25,840.32 325.685,840.32 307.25,840.32 307.25,770.111 325.685,770.111 307.25,770.111 
  307.25,699.901 325.685,699.901 307.25,699.901 307.25,629.692 325.685,629.692 307.25,629.692 307.25,559.482 344.12,559.482 307.25,559.482 307.25,489.273 
  325.685,489.273 307.25,489.273 307.25,419.063 325.685,419.063 307.25,419.063 307.25,348.854 325.685,348.854 307.25,348.854 307.25,278.644 325.685,278.644 
  307.25,278.644 307.25,208.435 344.12,208.435 307.25,208.435 307.25,138.225 325.685,138.225 307.25,138.225 
  "/>
<g clip-path="url(#clip5401)">
<text style="fill:#000000; fill-opacity:1; font-family:Arial,Helvetica Neue,Helvetica,sans-serif; font-size:60px; text-anchor:start;" transform="rotate(0, 290.119, 1685.9)" x="290.119" y="1685.9">0</text>
</g>
<g clip-path="url(#clip5401)">
<text style="fill:#000000; fill-opacity:1; font-family:Arial,Helvetica Neue,Helvetica,sans-serif; font-size:60px; text-anchor:start;" transform="rotate(0, 773.332, 1685.9)" x="773.332" y="1685.9">500</text>
</g>
<g clip-path="url(#clip5401)">
<text style="fill:#000000; fill-opacity:1; font-family:Arial,Helvetica Neue,Helvetica,sans-serif; font-size:60px; text-anchor:start;" transform="rotate(0, 1273.67, 1685.9)" x="1273.67" y="1685.9">1000</text>
</g>
<g clip-path="url(#clip5401)">
<text style="fill:#000000; fill-opacity:1; font-family:Arial,Helvetica Neue,Helvetica,sans-serif; font-size:60px; text-anchor:start;" transform="rotate(0, 1791.15, 1685.9)" x="1791.15" y="1685.9">1500</text>
</g>
<polyline clip-path="url(#clip5401)" style="stroke:#000000; stroke-width:4.301; stroke-opacity:1; fill:none" points="
  307.25,1612.62 307.25,1612.62 307.25,1575.76 307.25,1612.62 410.745,1612.62 410.745,1594.19 410.745,1612.62 514.239,1612.62 514.239,1594.19 514.239,1612.62 
  617.734,1612.62 617.734,1594.19 617.734,1612.62 721.229,1612.62 721.229,1594.19 721.229,1612.62 824.724,1612.62 824.724,1575.76 824.724,1612.62 928.218,1612.62 
  928.218,1594.19 928.218,1612.62 1031.71,1612.62 1031.71,1594.19 1031.71,1612.62 1135.21,1612.62 1135.21,1594.19 1135.21,1612.62 1238.7,1612.62 1238.7,1594.19 
  1238.7,1612.62 1342.2,1612.62 1342.2,1575.76 1342.2,1612.62 1445.69,1612.62 1445.69,1594.19 1445.69,1612.62 1549.19,1612.62 1549.19,1594.19 1549.19,1612.62 
  1652.68,1612.62 1652.68,1594.19 1652.68,1612.62 1756.18,1612.62 1756.18,1594.19 1756.18,1612.62 1859.67,1612.62 1859.67,1575.76 1859.67,1612.62 1963.17,1612.62 
  1963.17,1594.19 1963.17,1612.62 2066.66,1612.62 2066.66,1594.19 2066.66,1612.62 2170.16,1612.62 2170.16,1594.19 2170.16,1612.62 2273.65,1612.62 2273.65,1594.19 
  2273.65,1612.62 
  "/>
<polyline clip-path="url(#clip5401)" style="stroke:#000000; stroke-width:4.301; stroke-opacity:1; fill:none" points="
  2273.65,1612.62 2273.65,1612.62 2236.78,1612.62 2273.65,1612.62 2273.65,1542.42 2255.22,1542.42 2273.65,1542.42 2273.65,1472.21 2255.22,1472.21 2273.65,1472.21 
  2273.65,1402 2255.22,1402 2273.65,1402 2273.65,1331.79 2255.22,1331.79 2273.65,1331.79 2273.65,1261.58 2236.78,1261.58 2273.65,1261.58 2273.65,1191.37 
  2255.22,1191.37 2273.65,1191.37 2273.65,1121.16 2255.22,1121.16 2273.65,1121.16 2273.65,1050.95 2255.22,1050.95 2273.65,1050.95 2273.65,980.739 2255.22,980.739 
  2273.65,980.739 2273.65,910.53 2236.78,910.53 2273.65,910.53 2273.65,840.32 2255.22,840.32 2273.65,840.32 2273.65,770.111 2255.22,770.111 2273.65,770.111 
  2273.65,699.901 2255.22,699.901 2273.65,699.901 2273.65,629.692 2255.22,629.692 2273.65,629.692 2273.65,559.482 2236.78,559.482 2273.65,559.482 2273.65,489.273 
  2255.22,489.273 2273.65,489.273 2273.65,419.063 2255.22,419.063 2273.65,419.063 2273.65,348.854 2255.22,348.854 2273.65,348.854 2273.65,278.644 2255.22,278.644 
  2273.65,278.644 2273.65,208.435 2236.78,208.435 2273.65,208.435 2273.65,138.225 2255.22,138.225 2273.65,138.225 
  "/>
<polyline clip-path="url(#clip5401)" style="stroke:#000000; stroke-width:4.301; stroke-opacity:1; fill:none" points="
  307.25,138.225 307.25,138.225 307.25,175.085 307.25,138.225 410.745,138.225 410.745,156.655 410.745,138.225 514.239,138.225 514.239,156.655 514.239,138.225 
  617.734,138.225 617.734,156.655 617.734,138.225 721.229,138.225 721.229,156.655 721.229,138.225 824.724,138.225 824.724,175.085 824.724,138.225 928.218,138.225 
  928.218,156.655 928.218,138.225 1031.71,138.225 1031.71,156.655 1031.71,138.225 1135.21,138.225 1135.21,156.655 1135.21,138.225 1238.7,138.225 1238.7,156.655 
  1238.7,138.225 1342.2,138.225 1342.2,175.085 1342.2,138.225 1445.69,138.225 1445.69,156.655 1445.69,138.225 1549.19,138.225 1549.19,156.655 1549.19,138.225 
  1652.68,138.225 1652.68,156.655 1652.68,138.225 1756.18,138.225 1756.18,156.655 1756.18,138.225 1859.67,138.225 1859.67,175.085 1859.67,138.225 1963.17,138.225 
  1963.17,156.655 1963.17,138.225 2066.66,138.225 2066.66,156.655 2066.66,138.225 2170.16,138.225 2170.16,156.655 2170.16,138.225 2273.65,138.225 2273.65,156.655 
  2273.65,138.225 
  "/>
<g clip-path="url(#clip5401)">
<text style="fill:#000000; fill-opacity:1; font-family:Arial,Helvetica Neue,Helvetica,sans-serif; font-size:60px; text-anchor:middle;" transform="rotate(0, 1290.45, 1812.08)" x="1290.45" y="1812.08">step / Day</text>
</g>
<g clip-path="url(#clip5401)">
<text style="fill:#000000; fill-opacity:1; font-family:Arial,Helvetica Neue,Helvetica,sans-serif; font-size:60px; text-anchor:middle;" transform="rotate(-90, 74.922, 875.425)" x="74.922" y="875.425">x,y,z / AU</text>
</g>
<polyline clip-path="url(#clip5400)" style="stroke:#00528a; stroke-width:4.301; stroke-opacity:1; fill:none" points="
  308.285,825.908 309.32,814.122 310.355,802.363 311.39,790.633 312.425,778.935 313.46,767.273 314.495,755.648 315.53,744.066 316.565,732.528 317.599,721.039 
  318.634,709.6 319.669,698.217 320.704,686.891 321.739,675.628 322.774,664.429 323.809,653.298 324.844,642.239 325.879,631.255 326.914,620.349 327.949,609.525 
  328.984,598.785 330.019,588.134 331.054,577.573 332.089,567.107 333.124,556.738 334.159,546.469 335.194,536.302 336.229,526.241 337.263,516.289 338.298,506.447 
  339.333,496.718 340.368,487.105 341.403,477.61 342.438,468.235 343.473,458.984 344.508,449.858 345.543,440.861 346.578,431.995 347.613,423.262 348.648,414.666 
  349.683,406.209 350.718,397.894 351.753,389.723 352.788,381.699 353.823,373.825 354.858,366.103 355.893,358.535 356.927,351.125 357.962,343.873 358.997,336.784 
  360.032,329.858 361.067,323.097 362.102,316.505 363.137,310.082 364.172,303.831 365.207,297.753 366.242,291.849 367.277,286.122 368.312,280.573 369.347,275.202 
  370.382,270.012 371.417,265.004 372.452,260.179 373.487,255.538 374.522,251.084 375.557,246.818 376.591,242.741 377.626,238.855 378.661,235.162 379.696,231.662 
  380.731,228.357 381.766,225.248 382.801,222.337 383.836,219.625 384.871,217.113 385.906,214.802 386.941,212.693 387.976,210.786 389.011,209.083 390.046,207.584 
  391.081,206.29 392.116,205.201 393.151,204.318 394.186,203.639 395.221,203.167 396.255,202.9 397.29,202.838 398.325,202.982 399.36,203.332 400.395,203.886 
  401.43,204.646 402.465,205.611 403.5,206.782 404.535,208.157 405.57,209.738 406.605,211.523 407.64,213.514 408.675,215.709 409.71,218.109 410.745,220.713 
  411.78,223.52 412.815,226.531 413.85,229.745 414.885,233.16 415.919,236.777 416.954,240.595 417.989,244.612 419.024,248.827 420.059,253.239 421.094,257.848 
  422.129,262.65 423.164,267.646 424.199,272.832 425.234,278.209 426.269,283.773 427.304,289.523 428.339,295.457 429.374,301.574 430.409,307.872 431.444,314.349 
  432.479,321.003 433.514,327.834 434.549,334.838 435.583,342.015 436.618,349.362 437.653,356.878 438.688,364.561 439.723,372.409 440.758,380.42 441.793,388.591 
  442.828,396.92 443.863,405.405 444.898,414.045 445.933,422.835 446.968,431.774 448.003,440.858 449.038,450.086 450.073,459.454 451.108,468.959 452.143,478.597 
  453.178,488.367 454.213,498.263 455.247,508.285 456.282,518.427 457.317,528.687 458.352,539.063 459.387,549.55 460.422,560.146 461.457,570.848 462.492,581.653 
  463.527,592.557 464.562,603.558 465.597,614.652 466.632,625.837 467.667,637.109 468.702,648.465 469.737,659.902 470.772,671.416 471.807,683.004 472.842,694.662 
  473.877,706.387 474.911,718.175 475.946,730.023 476.981,741.927 478.016,753.883 479.051,765.887 480.086,777.935 481.121,790.022 482.156,802.146 483.191,814.301 
  484.226,826.484 485.261,838.691 486.296,850.918 487.331,863.162 488.366,875.419 489.401,887.684 490.436,899.955 491.471,912.227 492.506,924.498 493.541,936.763 
  494.575,949.02 495.61,961.264 496.645,973.491 497.68,985.699 498.715,997.883 499.75,1010.04 500.785,1022.17 501.82,1034.26 502.855,1046.31 503.89,1058.32 
  504.925,1070.29 505.96,1082.2 506.995,1094.06 508.03,1105.87 509.065,1117.61 510.1,1129.28 511.135,1140.89 512.17,1152.42 513.205,1163.88 514.239,1175.25 
  515.274,1186.54 516.309,1197.74 517.344,1208.85 518.379,1219.87 519.414,1230.79 520.449,1241.61 521.484,1252.32 522.519,1262.93 523.554,1273.42 524.589,1283.81 
  525.624,1294.07 526.659,1304.22 527.694,1314.25 528.729,1324.15 529.764,1333.92 530.799,1343.56 531.834,1353.07 532.869,1362.44 533.903,1371.68 534.938,1380.76 
  535.973,1389.71 537.008,1398.5 538.043,1407.14 539.078,1415.63 540.113,1423.96 541.148,1432.12 542.183,1440.13 543.218,1447.97 544.253,1455.64 545.288,1463.15 
  546.323,1470.48 547.358,1477.63 548.393,1484.62 549.428,1491.42 550.463,1498.05 551.498,1504.49 552.533,1510.75 553.567,1516.83 554.602,1522.72 555.637,1528.43 
  556.672,1533.94 557.707,1539.27 558.742,1544.4 559.777,1549.34 560.812,1554.09 561.847,1558.64 562.882,1562.99 563.917,1567.15 564.952,1571.1 565.987,1574.85 
  567.022,1578.4 568.057,1581.74 569.092,1584.88 570.127,1587.81 571.162,1590.54 572.197,1593.06 573.231,1595.37 574.266,1597.47 575.301,1599.36 576.336,1601.05 
  577.371,1602.52 578.406,1603.79 579.441,1604.84 580.476,1605.69 581.511,1606.33 582.546,1606.76 583.581,1606.98 584.616,1606.99 585.651,1606.79 586.686,1606.39 
  587.721,1605.78 588.756,1604.96 589.791,1603.93 590.826,1602.7 591.861,1601.26 592.895,1599.62 593.93,1597.77 594.965,1595.71 596,1593.45 597.035,1590.99 
  598.07,1588.32 599.105,1585.45 600.14,1582.38 601.175,1579.11 602.21,1575.64 603.245,1571.97 604.28,1568.1 605.315,1564.04 606.35,1559.79 607.385,1555.34 
  608.42,1550.71 609.455,1545.89 610.49,1540.88 611.525,1535.68 612.559,1530.31 613.594,1524.75 614.629,1519.01 615.664,1513.1 616.699,1507.01 617.734,1500.75 
  618.769,1494.31 619.804,1487.71 620.839,1480.93 621.874,1473.99 622.909,1466.89 623.944,1459.62 624.979,1452.2 626.014,1444.61 627.049,1436.87 628.084,1428.97 
  629.119,1420.92 630.154,1412.72 631.189,1404.38 632.223,1395.89 633.258,1387.26 634.293,1378.49 635.328,1369.59 636.363,1360.55 637.398,1351.39 638.433,1342.1 
  639.468,1332.68 640.503,1323.14 641.538,1313.49 642.573,1303.72 643.608,1293.84 644.643,1283.85 645.678,1273.75 646.713,1263.55 647.748,1253.24 648.783,1242.84 
  649.818,1232.35 650.853,1221.76 651.887,1211.08 652.922,1200.31 653.957,1189.46 654.992,1178.53 656.027,1167.52 657.062,1156.44 658.097,1145.28 659.132,1134.06 
  660.167,1122.77 661.202,1111.42 662.237,1100.01 663.272,1088.54 664.307,1077.03 665.342,1065.47 666.377,1053.86 667.412,1042.21 668.447,1030.53 669.482,1018.81 
  670.517,1007.06 671.551,995.289 672.586,983.49 673.621,971.671 674.656,959.835 675.691,947.985 676.726,936.124 677.761,924.255 678.796,912.382 679.831,900.507 
  680.866,888.633 681.901,876.763 682.936,864.901 683.971,853.05 685.006,841.214 686.041,829.395 687.076,817.596 688.111,805.823 689.146,794.077 690.181,782.364 
  691.215,770.685 692.25,759.045 693.285,747.447 694.32,735.895 695.355,724.392 696.39,712.942 697.425,701.547 698.46,690.211 699.495,678.938 700.53,667.73 
  701.565,656.591 702.6,645.524 703.635,634.531 704.67,623.616 705.705,612.782 706.74,602.03 707.775,591.365 708.81,580.788 709.845,570.302 710.879,559.911 
  711.914,549.616 712.949,539.422 713.984,529.33 715.019,519.344 716.054,509.466 717.089,499.701 718.124,490.051 719.159,480.518 720.194,471.106 721.229,461.819 
  722.264,452.657 723.299,443.626 724.334,434.726 725.369,425.962 726.404,417.335 727.439,408.848 728.474,400.504 729.509,392.305 730.543,384.254 731.578,376.351 
  732.613,368.601 733.648,361.005 734.683,353.564 735.718,346.281 736.753,339.157 737.788,332.195 738.823,325.396 739.858,318.761 740.893,312.294 741.928,305.996 
  742.963,299.868 743.998,293.913 745.033,288.134 746.068,282.531 747.103,277.107 748.138,271.864 749.173,266.804 750.207,261.928 751.242,257.239 752.277,252.737 
  753.312,248.424 754.347,244.303 755.382,240.373 756.417,236.637 757.452,233.096 758.487,229.75 759.522,226.602 760.557,223.651 761.592,220.898 762.627,218.345 
  763.662,215.991 764.697,213.838 765.732,211.886 766.767,210.135 767.802,208.586 768.837,207.239 769.871,206.095 770.906,205.154 771.941,204.417 772.976,203.885 
  774.011,203.557 775.046,203.436 776.081,203.52 777.116,203.811 778.151,204.309 779.186,205.013 780.221,205.925 781.256,207.044 782.291,208.37 783.326,209.903 
  784.361,211.642 785.396,213.588 786.431,215.74 787.466,218.098 788.501,220.66 789.535,223.426 790.57,226.395 791.605,229.566 792.64,232.938 793.675,236.51 
  794.71,240.28 795.745,244.249 796.78,248.414 797.815,252.774 798.85,257.328 799.885,262.075 800.92,267.014 801.955,272.144 802.99,277.464 804.025,282.973 
  805.06,288.669 806.095,294.551 807.13,300.618 808.165,306.868 809.199,313.3 810.234,319.911 811.269,326.701 812.304,333.667 813.339,340.808 814.374,348.121 
  815.409,355.604 816.444,363.254 817.479,371.071 818.514,379.05 819.549,387.19 820.584,395.487 821.619,403.94 822.654,412.545 823.689,421.3 824.724,430.202 
  825.759,439.249 826.794,448.437 827.829,457.764 828.863,467.227 829.898,476.824 830.933,486.553 831.968,496.41 833.003,506.393 834.038,516.499 835.073,526.726 
  836.108,537.07 837.143,547.529 838.178,558.099 839.213,568.778 840.248,579.563 841.283,590.449 842.318,601.434 843.353,612.515 844.388,623.688 845.423,634.949 
  846.458,646.294 847.493,657.721 848.527,669.225 849.562,680.802 850.597,692.449 851.632,704.161 852.667,715.936 853.702,727.769 854.737,739.656 855.772,751.594 
  856.807,763.58 857.842,775.61 858.877,787.681 859.912,799.788 860.947,811.929 861.982,824.099 863.017,836.297 864.052,848.517 865.087,860.756 866.122,873.011 
  867.157,885.278 868.191,897.554 869.226,909.833 870.261,922.113 871.296,934.39 872.331,946.66 873.366,958.918 874.401,971.161 875.436,983.385 876.471,995.586 
  877.506,1007.76 878.541,1019.9 879.576,1032.01 880.611,1044.07 881.646,1056.1 882.681,1068.07 883.716,1080 884.751,1091.87 885.786,1103.68 886.821,1115.43 
  887.855,1127.11 888.89,1138.73 889.925,1150.28 890.96,1161.75 891.995,1173.14 893.03,1184.45 894.065,1195.68 895.1,1206.81 896.135,1217.86 897.17,1228.81 
  898.205,1239.66 899.24,1250.41 900.275,1261.05 901.31,1271.59 902.345,1282.01 903.38,1292.32 904.415,1302.51 905.45,1312.58 906.485,1322.52 907.519,1332.33 
  908.554,1342.01 909.589,1351.55 910.624,1360.96 911.659,1370.22 912.694,1379.34 913.729,1388.32 914.764,1397.14 915.799,1405.81 916.834,1414.33 917.869,1422.69 
  918.904,1430.9 919.939,1438.94 920.974,1446.82 922.009,1454.54 923.044,1462.09 924.079,1469.47 925.114,1476.67 926.149,1483.71 927.183,1490.57 928.218,1497.25 
  929.253,1503.75 930.288,1510.07 931.323,1516.2 932.358,1522.15 933.393,1527.91 934.428,1533.48 935.463,1538.86 936.498,1544.05 937.533,1549.04 938.568,1553.84 
  939.603,1558.43 940.638,1562.83 941.673,1567.03 942.708,1571.03 943.743,1574.82 944.778,1578.41 945.813,1581.8 946.847,1584.99 947.882,1587.97 948.917,1590.74 
  949.952,1593.31 950.987,1595.68 952.022,1597.83 953.057,1599.78 954.092,1601.53 955.127,1603.06 956.162,1604.39 957.197,1605.51 958.232,1606.42 959.267,1607.12 
  960.302,1607.61 961.337,1607.89 962.372,1607.97 963.407,1607.83 964.442,1607.48 965.477,1606.93 966.511,1606.16 967.546,1605.18 968.581,1604 969.616,1602.61 
  970.651,1601.01 971.686,1599.2 972.721,1597.19 973.756,1594.97 974.791,1592.55 975.826,1589.93 976.861,1587.11 977.896,1584.09 978.931,1580.87 979.966,1577.45 
  981.001,1573.83 982.036,1570.02 983.071,1566.02 984.106,1561.82 985.141,1557.43 986.175,1552.86 987.21,1548.09 988.245,1543.14 989.28,1538 990.315,1532.68 
  991.35,1527.17 992.385,1521.49 993.42,1515.62 994.455,1509.58 995.49,1503.36 996.525,1496.96 997.56,1490.39 998.595,1483.66 999.63,1476.75 1000.66,1469.68 
  1001.7,1462.45 1002.73,1455.05 1003.77,1447.5 1004.8,1439.79 1005.84,1431.93 1006.87,1423.92 1007.91,1415.76 1008.94,1407.46 1009.98,1399.01 1011.01,1390.42 
  1012.05,1381.7 1013.08,1372.84 1014.12,1363.84 1015.15,1354.72 1016.19,1345.47 1017.22,1336.1 1018.26,1326.6 1019.29,1316.98 1020.33,1307.24 1021.36,1297.39 
  1022.4,1287.43 1023.43,1277.36 1024.47,1267.18 1025.5,1256.9 1026.54,1246.52 1027.57,1236.04 1028.61,1225.46 1029.64,1214.8 1030.68,1204.05 1031.71,1193.21 
  1032.75,1182.29 1033.78,1171.3 1034.82,1160.23 1035.85,1149.1 1036.89,1137.89 1037.92,1126.62 1038.96,1115.3 1039.99,1103.91 1041.03,1092.47 1042.06,1080.98 
  1043.1,1069.44 1044.13,1057.85 1045.17,1046.22 1046.2,1034.56 1047.24,1022.86 1048.27,1011.12 1049.31,999.357 1050.34,987.566 1051.38,975.752 1052.41,963.918 
  1053.45,952.067 1054.48,940.202 1055.52,928.328 1056.55,916.448 1057.59,904.565 1058.62,892.682 1059.66,880.805 1060.69,868.936 1061.73,857.078 1062.76,845.236 
  1063.8,833.413 1064.83,821.612 1065.87,809.836 1066.9,798.09 1067.94,786.376 1068.97,774.697 1070.01,763.057 1071.04,751.458 1072.08,739.905 1073.11,728.4 
  1074.15,716.945 1075.18,705.544 1076.22,694.2 1077.25,682.916 1078.29,671.694 1079.32,660.539 1080.36,649.451 1081.39,638.436 1082.43,627.496 1083.46,616.634 
  1084.5,605.854 1085.53,595.158 1086.57,584.551 1087.6,574.035 1088.64,563.613 1089.67,553.29 1090.71,543.068 1091.74,532.95 1092.78,522.938 1093.81,513.037 
  1094.84,503.249 1095.88,493.577 1096.91,484.022 1097.95,474.589 1098.98,465.28 1100.02,456.097 1101.05,447.042 1102.09,438.119 1103.12,429.328 1104.16,420.674 
  1105.19,412.157 1106.23,403.78 1107.26,395.545 1108.3,387.455 1109.33,379.512 1110.37,371.718 1111.4,364.076 1112.44,356.588 1113.47,349.256 1114.51,342.084 
  1115.54,335.072 1116.58,328.225 1117.61,321.544 1118.65,315.031 1119.68,308.689 1120.72,302.518 1121.75,296.523 1122.79,290.703 1123.82,285.062 1124.86,279.6 
  1125.89,274.32 1126.93,269.223 1127.96,264.31 1129,259.582 1130.03,255.042 1131.07,250.689 1132.1,246.526 1133.14,242.553 1134.17,238.772 1135.21,235.183 
  1136.24,231.787 1137.28,228.585 1138.31,225.579 1139.35,222.77 1140.38,220.158 1141.42,217.745 1142.45,215.532 1143.49,213.521 1144.52,211.711 1145.56,210.104 
  1146.59,208.702 1147.63,207.504 1148.66,206.511 1149.7,205.724 1150.73,205.143 1151.77,204.769 1152.8,204.602 1153.84,204.642 1154.87,204.889 1155.91,205.344 
  1156.94,206.005 1157.98,206.872 1159.01,207.947 1160.05,209.227 1161.08,210.713 1162.12,212.404 1163.15,214.299 1164.19,216.398 1165.22,218.701 1166.26,221.206 
  1167.29,223.914 1168.33,226.824 1169.36,229.935 1170.4,233.246 1171.43,236.759 1172.47,240.471 1173.5,244.382 1174.54,248.492 1175.57,252.799 1176.61,257.302 
  1177.64,262.002 1178.68,266.895 1179.71,271.982 1180.75,277.26 1181.78,282.728 1182.82,288.385 1183.85,294.229 1184.89,300.258 1185.92,306.47 1186.96,312.864 
  1187.99,319.437 1189.03,326.187 1190.06,333.113 1191.1,340.212 1192.13,347.481 1193.16,354.919 1194.2,362.523 1195.23,370.292 1196.27,378.222 1197.3,386.313 
  1198.34,394.561 1199.37,402.966 1200.41,411.524 1201.44,420.234 1202.48,429.093 1203.51,438.099 1204.55,447.249 1205.58,456.541 1206.62,465.973 1207.65,475.54 
  1208.69,485.242 1209.72,495.074 1210.76,505.034 1211.79,515.118 1212.83,525.324 1213.86,535.647 1214.9,546.086 1215.93,556.636 1216.97,567.295 1218,578.057 
  1219.04,588.921 1220.07,599.883 1221.11,610.939 1222.14,622.085 1223.18,633.319 1224.21,644.637 1225.25,656.035 1226.28,667.511 1227.32,679.061 1228.35,690.682 
  1229.39,702.371 1230.42,714.124 1231.46,725.938 1232.49,737.81 1233.53,749.736 1234.56,761.712 1235.6,773.736 1236.63,785.802 1237.67,797.908 1238.7,810.049 
  1239.74,822.222 1240.77,834.423 1241.81,846.648 1242.84,858.892 1243.88,871.152 1244.91,883.424 1245.95,895.704 1246.98,907.987 1248.02,920.269 1249.05,932.548 
  1250.09,944.818 1251.12,957.076 1252.16,969.317 1253.19,981.54 1254.23,993.739 1255.26,1005.91 1256.3,1018.05 1257.33,1030.16 1258.37,1042.23 1259.4,1054.26 
  1260.44,1066.25 1261.47,1078.18 1262.51,1090.07 1263.54,1101.9 1264.58,1113.67 1265.61,1125.38 1266.65,1137.03 1267.68,1148.6 1268.72,1160.1 1269.75,1171.53 
  1270.79,1182.87 1271.82,1194.12 1272.86,1205.29 1273.89,1216.37 1274.93,1227.35 1275.96,1238.23 1277,1249.01 1278.03,1259.68 1279.07,1270.24 1280.1,1280.69 
  1281.14,1291.02 1282.17,1301.23 1283.21,1311.32 1284.24,1321.28 1285.28,1331.12 1286.31,1340.83 1287.35,1350.4 1288.38,1359.84 1289.42,1369.14 1290.45,1378.3 
  1291.48,1387.31 1292.52,1396.18 1293.55,1404.9 1294.59,1413.47 1295.62,1421.88 1296.66,1430.13 1297.69,1438.23 1298.73,1446.16 1299.76,1453.93 1300.8,1461.53 
  1301.83,1468.96 1302.87,1476.21 1303.9,1483.3 1304.94,1490.2 1305.97,1496.93 1307.01,1503.47 1308.04,1509.83 1309.08,1516.01 1310.11,1522 1311.15,1527.8 
  1312.18,1533.41 1313.22,1538.84 1314.25,1544.06 1315.29,1549.1 1316.32,1553.94 1317.36,1558.59 1318.39,1563.04 1319.43,1567.29 1320.46,1571.34 1321.5,1575.2 
  1322.53,1578.85 1323.57,1582.3 1324.6,1585.54 1325.64,1588.59 1326.67,1591.42 1327.71,1594.06 1328.74,1596.48 1329.78,1598.7 1330.81,1600.71 1331.85,1602.51 
  1332.88,1604.1 1333.92,1605.48 1334.95,1606.65 1335.99,1607.61 1337.02,1608.36 1338.06,1608.9 1339.09,1609.22 1340.13,1609.34 1341.16,1609.25 1342.2,1608.95 
  1343.23,1608.44 1344.27,1607.72 1345.3,1606.8 1346.34,1605.67 1347.37,1604.33 1348.41,1602.79 1349.44,1601.04 1350.48,1599.09 1351.51,1596.93 1352.55,1594.57 
  1353.58,1592.01 1354.62,1589.25 1355.65,1586.29 1356.69,1583.13 1357.72,1579.76 1358.76,1576.21 1359.79,1572.45 1360.83,1568.5 1361.86,1564.35 1362.9,1560.01 
  1363.93,1555.48 1364.97,1550.76 1366,1545.85 1367.04,1540.75 1368.07,1535.47 1369.11,1530 1370.14,1524.35 1371.18,1518.52 1372.21,1512.52 1373.25,1506.34 
  1374.28,1499.99 1375.32,1493.46 1376.35,1486.77 1377.39,1479.91 1378.42,1472.89 1379.46,1465.71 1380.49,1458.36 1381.53,1450.86 1382.56,1443.2 1383.6,1435.39 
  1384.63,1427.42 1385.67,1419.31 1386.7,1411.05 1387.74,1402.64 1388.77,1394.1 1389.8,1385.41 1390.84,1376.58 1391.87,1367.62 1392.91,1358.53 1393.94,1349.3 
  1394.98,1339.95 1396.01,1330.47 1397.05,1320.88 1398.08,1311.16 1399.12,1301.33 1400.15,1291.39 1401.19,1281.35 1402.22,1271.19 1403.26,1260.94 1404.29,1250.58 
  1405.33,1240.13 1406.36,1229.59 1407.4,1218.95 1408.43,1208.23 1409.47,1197.43 1410.5,1186.54 1411.54,1175.58 1412.57,1164.54 1413.61,1153.42 1414.64,1142.24 
  1415.68,1131 1416.71,1119.69 1417.75,1108.32 1418.78,1096.89 1419.82,1085.41 1420.85,1073.87 1421.89,1062.29 1422.92,1050.67 1423.96,1039 1424.99,1027.3 
  1426.03,1015.57 1427.06,1003.8 1428.1,992.01 1429.13,980.196 1430.17,968.364 1431.2,956.516 1432.24,944.655 1433.27,932.787 1434.31,920.912 1435.34,909.036 
  1436.38,897.162 1437.41,885.291 1438.45,873.429 1439.48,861.577 1440.52,849.74 1441.55,837.919 1442.59,826.119 1443.62,814.342 1444.66,802.592 1445.69,790.871 
  1446.73,779.183 1447.76,767.53 1448.8,755.916 1449.83,744.345 1450.87,732.82 1451.9,721.343 1452.94,709.919 1453.97,698.551 1455.01,687.242 1456.04,675.996 
  1457.08,664.817 1458.11,653.708 1459.15,642.671 1460.18,631.712 1461.22,620.831 1462.25,610.034 1463.29,599.322 1464.32,588.699 1465.36,578.168 1466.39,567.73 
  1467.43,557.391 1468.46,547.151 1469.5,537.014 1470.53,526.982 1471.57,517.058 1472.6,507.244 1473.64,497.544 1474.67,487.96 1475.71,478.494 1476.74,469.149 
  1477.78,459.927 1478.81,450.832 1479.85,441.866 1480.88,433.032 1481.92,424.333 1482.95,415.771 1483.99,407.35 1485.02,399.071 1486.06,390.939 1487.09,382.955 
  1488.12,375.121 1489.16,367.441 1490.19,359.917 1491.23,352.55 1492.26,345.343 1493.3,338.298 1494.33,331.417 1495.37,324.702 1496.4,318.154 1497.44,311.776 
  1498.47,305.569 1499.51,299.534 1500.54,293.674 1501.58,287.99 1502.61,282.483 1503.65,277.155 1504.68,272.007 1505.72,267.042 1506.75,262.26 1507.79,257.663 
  1508.82,253.253 1509.86,249.032 1510.89,245.001 1511.93,241.161 1512.96,237.515 1514,234.064 1515.03,230.809 1516.07,227.751 1517.1,224.892 1518.14,222.232 
  1519.17,219.773 1520.21,217.515 1521.24,215.459 1522.28,213.606 1523.31,211.956 1524.35,210.51 1525.38,209.267 1526.42,208.229 1527.45,207.396 1528.49,206.768 
  1529.52,206.344 1530.56,206.125 1531.59,206.112 1532.63,206.303 1533.66,206.7 1534.7,207.302 1535.73,208.109 1536.77,209.122 1537.8,210.34 1538.84,211.763 
  1539.87,213.393 1540.91,215.228 1541.94,217.269 1542.98,219.515 1544.01,221.967 1545.05,224.623 1546.08,227.483 1547.12,230.547 1548.15,233.813 1549.19,237.281 
  1550.22,240.95 1551.26,244.819 1552.29,248.887 1553.33,253.152 1554.36,257.613 1555.4,262.269 1556.43,267.118 1557.47,272.159 1558.5,277.39 1559.54,282.81 
  1560.57,288.417 1561.61,294.21 1562.64,300.186 1563.68,306.344 1564.71,312.683 1565.75,319.201 1566.78,325.897 1567.82,332.768 1568.85,339.815 1569.89,347.034 
  1570.92,354.423 1571.96,361.982 1572.99,369.708 1574.03,377.599 1575.06,385.653 1576.1,393.867 1577.13,402.238 1578.17,410.765 1579.2,419.445 1580.24,428.275 
  1581.27,437.252 1582.31,446.373 1583.34,455.636 1584.38,465.038 1585.41,474.576 1586.44,484.246 1587.48,494.045 1588.51,503.971 1589.55,514.02 1590.58,524.19 
  1591.62,534.477 1592.65,544.878 1593.69,555.391 1594.72,566.012 1595.76,576.739 1596.79,587.569 1597.83,598.498 1598.86,609.524 1599.9,620.644 1600.93,631.854 
  1601.97,643.151 1603,654.532 1604.04,665.993 1605.07,677.531 1606.11,689.142 1607.14,700.822 1608.18,712.568 1609.21,724.375 1610.25,736.241 1611.28,748.16 
  1612.32,760.13 1613.35,772.146 1614.39,784.205 1615.42,796.302 1616.46,808.434 1617.49,820.596 1618.53,832.786 1619.56,844.998 1620.6,857.23 1621.63,869.477 
  1622.67,881.737 1623.7,894.005 1624.74,906.278 1625.77,918.553 1626.81,930.826 1627.84,943.094 1628.88,955.352 1629.91,967.598 1630.95,979.828 1631.98,992.037 
  1633.02,1004.22 1634.05,1016.38 1635.09,1028.5 1636.12,1040.59 1637.16,1052.64 1638.19,1064.65 1639.23,1076.61 1640.26,1088.51 1641.3,1100.36 1642.33,1112.15 
  1643.37,1123.88 1644.4,1135.54 1645.44,1147.13 1646.47,1158.65 1647.51,1170.08 1648.54,1181.44 1649.58,1192.71 1650.61,1203.89 1651.65,1214.98 1652.68,1225.98 
  1653.72,1236.87 1654.75,1247.67 1655.79,1258.36 1656.82,1268.95 1657.86,1279.43 1658.89,1289.79 1659.93,1300.03 1660.96,1310.16 1662,1320.16 1663.03,1330.04 
  1664.07,1339.79 1665.1,1349.41 1666.14,1358.89 1667.17,1368.23 1668.21,1377.43 1669.24,1386.49 1670.28,1395.4 1671.31,1404.16 1672.35,1412.76 1673.38,1421.21 
  1674.42,1429.51 1675.45,1437.64 1676.49,1445.6 1677.52,1453.4 1678.56,1461.04 1679.59,1468.5 1680.63,1475.79 1681.66,1482.91 1682.7,1489.86 1683.73,1496.62 
  1684.76,1503.21 1685.8,1509.61 1686.83,1515.84 1687.87,1521.88 1688.9,1527.73 1689.94,1533.4 1690.97,1538.88 1692.01,1544.16 1693.04,1549.26 1694.08,1554.16 
  1695.11,1558.86 1696.15,1563.37 1697.18,1567.68 1698.22,1571.78 1699.25,1575.69 1700.29,1579.4 1701.32,1582.9 1702.36,1586.19 1703.39,1589.28 1704.43,1592.16 
  1705.46,1594.84 1706.5,1597.31 1707.53,1599.57 1708.57,1601.62 1709.6,1603.47 1710.64,1605.1 1711.67,1606.53 1712.71,1607.75 1713.74,1608.76 1714.78,1609.56 
  1715.81,1610.16 1716.85,1610.54 1717.88,1610.72 1718.92,1610.69 1719.95,1610.45 1720.99,1610 1722.02,1609.35 1723.06,1608.48 1724.09,1607.41 1725.13,1606.13 
  1726.16,1604.65 1727.2,1602.96 1728.23,1601.06 1729.27,1598.95 1730.3,1596.64 1731.34,1594.13 1732.37,1591.41 1733.41,1588.5 1734.44,1585.38 1735.48,1582.06 
  1736.51,1578.54 1737.55,1574.82 1738.58,1570.91 1739.62,1566.81 1740.65,1562.51 1741.69,1558.03 1742.72,1553.35 1743.76,1548.49 1744.79,1543.44 1745.83,1538.21 
  1746.86,1532.8 1747.9,1527.2 1748.93,1521.43 1749.97,1515.48 1751,1509.35 1752.04,1503.05 1753.07,1496.58 1754.11,1489.94 1755.14,1483.12 1756.18,1476.14 
  1757.21,1469 1758.25,1461.7 1759.28,1454.23 1760.32,1446.6 1761.35,1438.82 1762.39,1430.89 1763.42,1422.8 1764.46,1414.57 1765.49,1406.19 1766.53,1397.67 
  1767.56,1389.01 1768.6,1380.21 1769.63,1371.28 1770.67,1362.22 1771.7,1353.03 1772.74,1343.71 1773.77,1334.27 1774.81,1324.71 1775.84,1315.04 1776.88,1305.24 
  1777.91,1295.34 1778.95,1285.33 1779.98,1275.21 1781.02,1264.98 1782.05,1254.66 1783.08,1244.24 1784.12,1233.72 1785.15,1223.11 1786.19,1212.41 1787.22,1201.62 
  1788.26,1190.75 1789.29,1179.8 1790.33,1168.77 1791.36,1157.67 1792.4,1146.49 1793.43,1135.25 1794.47,1123.95 1795.5,1112.58 1796.54,1101.16 1797.57,1089.69 
  1798.61,1078.17 1799.64,1066.6 1800.68,1054.98 1801.71,1043.33 1802.75,1031.65 1803.78,1019.93 1804.82,1008.18 1805.85,996.398 1806.89,984.598 1807.92,972.777 
  1808.96,960.94 1809.99,949.088 1811.03,937.225 1812.06,925.354 1813.1,913.479 1814.13,901.602 1815.17,889.727 1816.2,877.858 1817.24,865.996 1818.27,854.146 
  1819.31,842.312 1820.34,830.496 1821.38,818.702 1822.41,806.934 1823.45,795.196 1824.48,783.491 1825.52,771.823 1826.55,760.194 1827.59,748.61 1828.62,737.073 
  1829.66,725.586 1830.69,714.152 1831.73,702.775 1832.76,691.458 1833.8,680.204 1834.83,669.015 1835.87,657.895 1836.9,646.847 1837.94,635.873 1838.97,624.976 
  1840.01,614.16 1841.04,603.427 1842.08,592.78 1843.11,582.222 1844.15,571.756 1845.18,561.384 1846.22,551.11 1847.25,540.937 1848.29,530.868 1849.32,520.906 
  1850.36,511.053 1851.39,501.314 1852.43,491.691 1853.46,482.187 1854.5,472.805 1855.53,463.549 1856.57,454.42 1857.6,445.423 1858.64,436.558 1859.67,427.829 
  1860.71,419.239 1861.74,410.789 1862.78,402.481 1863.81,394.318 1864.85,386.303 1865.88,378.437 1866.92,370.722 1867.95,363.161 1868.99,355.755 1870.02,348.506 
  1871.06,341.417 1872.09,334.49 1873.13,327.726 1874.16,321.128 1875.2,314.697 1876.23,308.436 1877.27,302.346 1878.3,296.43 1879.34,290.691 1880.37,285.129 
  1881.4,279.747 1882.44,274.547 1883.47,269.531 1884.51,264.701 1885.54,260.057 1886.58,255.602 1887.61,251.337 1888.65,247.263 1889.68,243.382 1890.72,239.694 
  1891.75,236.2 1892.79,232.901 1893.82,229.799 1894.86,226.894 1895.89,224.187 1896.93,221.678 1897.96,219.369 1899,217.259 1900.03,215.35 1901.07,213.643 
  1902.1,212.137 1903.14,210.833 1904.17,209.733 1905.21,208.837 1906.24,208.145 1907.28,207.659 1908.31,207.378 1909.35,207.304 1910.38,207.436 1911.42,207.776 
  1912.45,208.323 1913.49,209.078 1914.52,210.04 1915.56,211.209 1916.59,212.586 1917.63,214.17 1918.66,215.959 1919.7,217.955 1920.73,220.156 1921.77,222.561 
  1922.8,225.17 1923.84,227.982 1924.87,230.996 1925.91,234.211 1926.94,237.626 1927.98,241.24 1929.01,245.053 1930.05,249.063 1931.08,253.269 1932.12,257.67 
  1933.15,262.266 1934.19,267.054 1935.22,272.036 1936.26,277.208 1937.29,282.571 1938.33,288.123 1939.36,293.862 1940.4,299.788 1941.43,305.899 1942.47,312.193 
  1943.5,318.669 1944.54,325.324 1945.57,332.157 1946.61,339.166 1947.64,346.348 1948.68,353.701 1949.71,361.223 1950.75,368.912 1951.78,376.765 1952.82,384.779 
  1953.85,392.953 1954.89,401.283 1955.92,409.767 1956.96,418.403 1957.99,427.188 1959.03,436.12 1960.06,445.195 1961.1,454.411 1962.13,463.766 1963.17,473.258 
  1964.2,482.883 1965.24,492.64 1966.27,502.526 1967.31,512.537 1968.34,522.672 1969.38,532.927 1970.41,543.3 1971.45,553.787 1972.48,564.385 1973.52,575.091 
  1974.55,585.901 1975.59,596.812 1976.62,607.82 1977.66,618.923 1978.69,630.116 1979.72,641.395 1980.76,652.758 1981.79,664.199 1982.83,675.717 1983.86,687.307 
  1984.9,698.965 1985.93,710.688 1986.97,722.472 1988,734.314 1989.04,746.209 1990.07,758.155 1991.11,770.149 1992.14,782.185 1993.18,794.263 1994.21,806.377 
  1995.25,818.524 1996.28,830.702 1997.32,842.906 1998.35,855.133 1999.39,867.378 2000.42,879.639 2001.46,891.91 2002.49,904.189 2003.53,916.471 2004.56,928.752 
  2005.6,941.028 2006.63,953.295 2007.67,965.55 2008.7,977.787 2009.74,990.004 2010.77,1002.2 2011.81,1014.36 2012.84,1026.49 2013.88,1038.58 2014.91,1050.63 
  2015.95,1062.64 2016.98,1074.6 2018.02,1086.51 2019.05,1098.37 2020.09,1110.16 2021.12,1121.9 2022.16,1133.56 2023.19,1145.17 2024.23,1156.69 2025.26,1168.15 
  2026.3,1179.52 2027.33,1190.82 2028.37,1202.03 2029.4,1213.14 2030.44,1224.17 2031.47,1235.1 2032.51,1245.93 2033.54,1256.66 2034.58,1267.28 2035.61,1277.79 
  2036.65,1288.18 2037.68,1298.46 2038.72,1308.62 2039.75,1318.66 2040.79,1328.56 2041.82,1338.34 2042.86,1347.99 2043.89,1357.49 2044.93,1366.86 2045.96,1376.09 
  2047,1385.18 2048.03,1394.11 2049.07,1402.9 2050.1,1411.54 2051.14,1420.02 2052.17,1428.35 2053.21,1436.51 2054.24,1444.52 2055.28,1452.37 2056.31,1460.05 
  2057.35,1467.56 2058.38,1474.9 2059.42,1482.07 2060.45,1489.07 2061.49,1495.89 2062.52,1502.53 2063.56,1508.99 2064.59,1515.26 2065.63,1521.35 2066.66,1527.26 
  2067.7,1532.97 2068.73,1538.5 2069.77,1543.83 2070.8,1548.96 2071.84,1553.91 2072.87,1558.65 2073.91,1563.2 2074.94,1567.55 2075.98,1571.7 2077.01,1575.65 
  2078.04,1579.39 2079.08,1582.94 2080.11,1586.28 2081.15,1589.42 2082.18,1592.35 2083.22,1595.08 2084.25,1597.61 2085.29,1599.93 2086.32,1602.04 2087.36,1603.94 
  2088.39,1605.64 2089.43,1607.13 2090.46,1608.41 2091.5,1609.48 2092.53,1610.34 2093.57,1610.99 2094.6,1611.43 2095.64,1611.66 2096.67,1611.68 2097.71,1611.49 
  2098.74,1611.09 2099.78,1610.49 2100.81,1609.67 2101.85,1608.64 2102.88,1607.4 2103.92,1605.96 2104.95,1604.31 2105.99,1602.45 2107.02,1600.39 2108.06,1598.13 
  2109.09,1595.66 2110.13,1592.99 2111.16,1590.13 2112.2,1587.06 2113.23,1583.79 2114.27,1580.33 2115.3,1576.67 2116.34,1572.82 2117.37,1568.77 2118.41,1564.53 
  2119.44,1560.1 2120.48,1555.48 2121.51,1550.67 2122.55,1545.67 2123.58,1540.49 2124.62,1535.12 2125.65,1529.56 2126.69,1523.83 2127.72,1517.92 2128.76,1511.83 
  2129.79,1505.56 2130.83,1499.12 2131.86,1492.51 2132.9,1485.73 2133.93,1478.78 2134.97,1471.67 2136,1464.4 2137.04,1456.97 2138.07,1449.38 2139.11,1441.64 
  2140.14,1433.74 2141.18,1425.7 2142.21,1417.5 2143.25,1409.17 2144.28,1400.69 2145.32,1392.07 2146.35,1383.31 2147.39,1374.42 2148.42,1365.4 2149.46,1356.24 
  2150.49,1346.96 2151.53,1337.55 2152.56,1328.02 2153.6,1318.37 2154.63,1308.6 2155.67,1298.72 2156.7,1288.73 2157.74,1278.62 2158.77,1268.42 2159.81,1258.11 
  2160.84,1247.7 2161.88,1237.19 2162.91,1226.59 2163.95,1215.91 2164.98,1205.13 2166.02,1194.28 2167.05,1183.34 2168.09,1172.33 2169.12,1161.25 2170.16,1150.1 
  2171.19,1138.88 2172.23,1127.6 2173.26,1116.25 2174.3,1104.85 2175.33,1093.4 2176.36,1081.89 2177.4,1070.34 2178.43,1058.74 2179.47,1047.1 2180.5,1035.42 
  2181.54,1023.71 2182.57,1011.96 2183.61,1000.18 2184.64,988.381 2185.68,976.556 2186.71,964.711 2187.75,952.852 2188.78,940.98 2189.82,929.099 2190.85,917.214 
  2191.89,905.328 2192.92,893.444 2193.96,881.567 2194.99,869.699 2196.03,857.844 
  "/>
</svg>
