<?xml version="1.0" encoding="utf-8"?>
<svg xmlns="http://www.w3.org/2000/svg" xmlns:xlink="http://www.w3.org/1999/xlink" width="614.5" height="460.75" viewBox="0 0 2458 1843">
<defs>
  <clipPath id="clip1900">
    <rect x="307" y="138" width="1967" height="1475"/>
  </clipPath>
</defs>
<defs>
  <clipPath id="clip1901">
    <rect x="0" y="0" width="2458" height="1843"/>
  </clipPath>
</defs>
<polyline clip-path="url(#clip1901)" style="stroke:#ededed; stroke-width:4.301; stroke-opacity:1; fill:none" points="
  307.25,1612.62 2273.65,1612.62 
  "/>
<polyline clip-path="url(#clip1901)" style="stroke:#ededed; stroke-width:4.301; stroke-opacity:1; fill:none" points="
  307.25,1551.19 2273.65,1551.19 
  "/>
<polyline clip-path="url(#clip1901)" style="stroke:#ededed; stroke-width:4.301; stroke-opacity:1; fill:none" points="
  307.25,1489.76 2273.65,1489.76 
  "/>
<polyline clip-path="url(#clip1901)" style="stroke:#cccccc; stroke-width:4.301; stroke-opacity:1; fill:none" points="
  307.25,1428.32 2273.65,1428.32 
  "/>
<polyline clip-path="url(#clip1901)" style="stroke:#ededed; stroke-width:4.301; stroke-opacity:1; fill:none" points="
  307.25,1366.89 2273.65,1366.89 
  "/>
<polyline clip-path="url(#clip1901)" style="stroke:#ededed; stroke-width:4.301; stroke-opacity:1; fill:none" points="
  307.25,1305.46 2273.65,1305.46 
  "/>
<polyline clip-path="url(#clip1901)" style="stroke:#ededed; stroke-width:4.301; stroke-opacity:1; fill:none" points="
  307.25,1244.02 2273.65,1244.02 
  "/>
<polyline clip-path="url(#clip1901)" style="stroke:#ededed; stroke-width:4.301; stroke-opacity:1; fill:none" points="
  307.25,1182.59 2273.65,1182.59 
  "/>
<polyline clip-path="url(#clip1901)" style="stroke:#cccccc; stroke-width:4.301; stroke-opacity:1; fill:none" points="
  307.25,1121.16 2273.65,1121.16 
  "/>
<polyline clip-path="url(#clip1901)" style="stroke:#ededed; stroke-width:4.301; stroke-opacity:1; fill:none" points="
  307.25,1059.72 2273.65,1059.72 
  "/>
<polyline clip-path="url(#clip1901)" style="stroke:#ededed; stroke-width:4.301; stroke-opacity:1; fill:none" points="
  307.25,998.292 2273.65,998.292 
  "/>
<polyline clip-path="url(#clip1901)" style="stroke:#ededed; stroke-width:4.301; stroke-opacity:1; fill:none" points="
  307.25,936.858 2273.65,936.858 
  "/>
<polyline clip-path="url(#clip1901)" style="stroke:#ededed; stroke-width:4.301; stroke-opacity:1; fill:none" points="
  307.25,875.425 2273.65,875.425 
  "/>
<polyline clip-path="url(#clip1901)" style="stroke:#cccccc; stroke-width:4.301; stroke-opacity:1; fill:none" points="
  307.25,813.992 2273.65,813.992 
  "/>
<polyline clip-path="url(#clip1901)" style="stroke:#ededed; stroke-width:4.301; stroke-opacity:1; fill:none" points="
  307.25,752.558 2273.65,752.558 
  "/>
<polyline clip-path="url(#clip1901)" style="stroke:#ededed; stroke-width:4.301; stroke-opacity:1; fill:none" points="
  307.25,691.125 2273.65,691.125 
  "/>
<polyline clip-path="url(#clip1901)" style="stroke:#ededed; stroke-width:4.301; stroke-opacity:1; fill:none" points="
  307.25,629.692 2273.65,629.692 
  "/>
<polyline clip-path="url(#clip1901)" style="stroke:#ededed; stroke-width:4.301; stroke-opacity:1; fill:none" points="
  307.25,568.258 2273.65,568.258 
  "/>
<polyline clip-path="url(#clip1901)" style="stroke:#cccccc; stroke-width:4.301; stroke-opacity:1; fill:none" points="
  307.25,506.825 2273.65,506.825 
  "/>
<polyline clip-path="url(#clip1901)" style="stroke:#ededed; stroke-width:4.301; stroke-opacity:1; fill:none" points="
  307.25,445.392 2273.65,445.392 
  "/>
<polyline clip-path="url(#clip1901)" style="stroke:#ededed; stroke-width:4.301; stroke-opacity:1; fill:none" points="
  307.25,383.958 2273.65,383.958 
  "/>
<polyline clip-path="url(#clip1901)" style="stroke:#ededed; stroke-width:4.301; stroke-opacity:1; fill:none" points="
  307.25,322.525 2273.65,322.525 
  "/>
<polyline clip-path="url(#clip1901)" style="stroke:#ededed; stroke-width:4.301; stroke-opacity:1; fill:none" points="
  307.25,261.092 2273.65,261.092 
  "/>
<polyline clip-path="url(#clip1901)" style="stroke:#cccccc; stroke-width:4.301; stroke-opacity:1; fill:none" points="
  307.25,199.658 2273.65,199.658 
  "/>
<polyline clip-path="url(#clip1901)" style="stroke:#ededed; stroke-width:4.301; stroke-opacity:1; fill:none" points="
  307.25,138.225 2273.65,138.225 
  "/>
<polyline clip-path="url(#clip1901)" style="stroke:#ededed; stroke-width:4.301; stroke-opacity:1; fill:none" points="
  405.57,1612.62 405.57,138.225 
  "/>
<polyline clip-path="url(#clip1901)" style="stroke:#ededed; stroke-width:4.301; stroke-opacity:1; fill:none" points="
  503.89,1612.62 503.89,138.225 
  "/>
<polyline clip-path="url(#clip1901)" style="stroke:#ededed; stroke-width:4.301; stroke-opacity:1; fill:none" points="
  602.21,1612.62 602.21,138.225 
  "/>
<polyline clip-path="url(#clip1901)" style="stroke:#ededed; stroke-width:4.301; stroke-opacity:1; fill:none" points="
  700.53,1612.62 700.53,138.225 
  "/>
<polyline clip-path="url(#clip1901)" style="stroke:#cccccc; stroke-width:4.301; stroke-opacity:1; fill:none" points="
  798.85,1612.62 798.85,138.225 
  "/>
<polyline clip-path="url(#clip1901)" style="stroke:#ededed; stroke-width:4.301; stroke-opacity:1; fill:none" points="
  897.17,1612.62 897.17,138.225 
  "/>
<polyline clip-path="url(#clip1901)" style="stroke:#ededed; stroke-width:4.301; stroke-opacity:1; fill:none" points="
  995.49,1612.62 995.49,138.225 
  "/>
<polyline clip-path="url(#clip1901)" style="stroke:#ededed; stroke-width:4.301; stroke-opacity:1; fill:none" points="
  1093.81,1612.62 1093.81,138.225 
  "/>
<polyline clip-path="url(#clip1901)" style="stroke:#ededed; stroke-width:4.301; stroke-opacity:1; fill:none" points="
  1192.13,1612.62 1192.13,138.225 
  "/>
<polyline clip-path="url(#clip1901)" style="stroke:#cccccc; stroke-width:4.301; stroke-opacity:1; fill:none" points="
  1290.45,1612.62 1290.45,138.225 
  "/>
<polyline clip-path="url(#clip1901)" style="stroke:#ededed; stroke-width:4.301; stroke-opacity:1; fill:none" points="
  1388.77,1612.62 1388.77,138.225 
  "/>
<polyline clip-path="url(#clip1901)" style="stroke:#ededed; stroke-width:4.301; stroke-opacity:1; fill:none" points="
  1487.09,1612.62 1487.09,138.225 
  "/>
<polyline clip-path="url(#clip1901)" style="stroke:#ededed; stroke-width:4.301; stroke-opacity:1; fill:none" points="
  1585.41,1612.62 1585.41,138.225 
  "/>
<polyline clip-path="url(#clip1901)" style="stroke:#ededed; stroke-width:4.301; stroke-opacity:1; fill:none" points="
  1683.73,1612.62 1683.73,138.225 
  "/>
<polyline clip-path="url(#clip1901)" style="stroke:#cccccc; stroke-width:4.301; stroke-opacity:1; fill:none" points="
  1782.05,1612.62 1782.05,138.225 
  "/>
<polyline clip-path="url(#clip1901)" style="stroke:#ededed; stroke-width:4.301; stroke-opacity:1; fill:none" points="
  1880.37,1612.62 1880.37,138.225 
  "/>
<polyline clip-path="url(#clip1901)" style="stroke:#ededed; stroke-width:4.301; stroke-opacity:1; fill:none" points="
  1978.69,1612.62 1978.69,138.225 
  "/>
<polyline clip-path="url(#clip1901)" style="stroke:#ededed; stroke-width:4.301; stroke-opacity:1; fill:none" points="
  2077.01,1612.62 2077.01,138.225 
  "/>
<polyline clip-path="url(#clip1901)" style="stroke:#ededed; stroke-width:4.301; stroke-opacity:1; fill:none" points="
  2175.33,1612.62 2175.33,138.225 
  "/>
<polyline clip-path="url(#clip1901)" style="stroke:#cccccc; stroke-width:4.301; stroke-opacity:1; fill:none" points="
  2273.65,1612.62 2273.65,138.225 
  "/>
<g clip-path="url(#clip1901)">
<text style="fill:#000000; fill-opacity:1; font-family:Arial,Helvetica Neue,Helvetica,sans-serif; font-size:60px; text-anchor:start;" transform="rotate(0, 30.1293, 1445.8)" x="30.1293" y="1445.8">-</text>
</g>
<g clip-path="url(#clip1901)">
<text style="fill:#000000; fill-opacity:1; font-family:Arial,Helvetica Neue,Helvetica,sans-serif; font-size:60px; text-anchor:start;" transform="rotate(0, 66.1161, 1445.8)" x="66.1161" y="1445.8">0.00005</text>
</g>
<g clip-path="url(#clip1901)">
<text style="fill:#000000; fill-opacity:1; font-family:Arial,Helvetica Neue,Helvetica,sans-serif; font-size:60px; text-anchor:start;" transform="rotate(0, 254.554, 1138.63)" x="254.554" y="1138.63">0</text>
</g>
<g clip-path="url(#clip1901)">
<text style="fill:#000000; fill-opacity:1; font-family:Arial,Helvetica Neue,Helvetica,sans-serif; font-size:60px; text-anchor:start;" transform="rotate(0, 66.1161, 831.463)" x="66.1161" y="831.463">0.00005</text>
</g>
<g clip-path="url(#clip1901)">
<text style="fill:#000000; fill-opacity:1; font-family:Arial,Helvetica Neue,Helvetica,sans-serif; font-size:60px; text-anchor:start;" transform="rotate(0, 100.377, 524.297)" x="100.377" y="524.297">0.0001</text>
</g>
<g clip-path="url(#clip1901)">
<text style="fill:#000000; fill-opacity:1; font-family:Arial,Helvetica Neue,Helvetica,sans-serif; font-size:60px; text-anchor:start;" transform="rotate(0, 66.1161, 217.13)" x="66.1161" y="217.13">0.00015</text>
</g>
<polyline clip-path="url(#clip1901)" style="stroke:#000000; stroke-width:4.301; stroke-opacity:1; fill:none" points="
  307.25,1612.62 307.25,1612.62 325.685,1612.62 307.25,1612.62 307.25,1551.19 325.685,1551.19 307.25,1551.19 307.25,1489.76 325.685,1489.76 307.25,1489.76 
  307.25,1428.32 344.12,1428.32 307.25,1428.32 307.25,1366.89 325.685,1366.89 307.25,1366.89 307.25,1305.46 325.685,1305.46 307.25,1305.46 307.25,1244.02 
  325.685,1244.02 307.25,1244.02 307.25,1182.59 325.685,1182.59 307.25,1182.59 307.25,1121.16 344.12,1121.16 307.25,1121.16 307.25,1059.72 325.685,1059.72 
  307.25,1059.72 307.25,998.292 325.685,998.292 307.25,998.292 307.25,936.858 325.685,936.858 307.25,936.858 307.25,875.425 325.685,875.425 307.25,875.425 
  307.25,813.992 344.12,813.992 307.25,813.992 307.25,752.558 325.685,752.558 307.25,752.558 307.25,691.125 325.685,691.125 307.25,691.125 307.25,629.692 
  325.685,629.692 307.25,629.692 307.25,568.258 325.685,568.258 307.25,568.258 307.25,506.825 344.12,506.825 307.25,506.825 307.25,445.392 325.685,445.392 
  307.25,445.392 307.25,383.958 325.685,383.958 307.25,383.958 307.25,322.525 325.685,322.525 307.25,322.525 307.25,261.092 325.685,261.092 307.25,261.092 
  307.25,199.658 344.12,199.658 307.25,199.658 307.25,138.225 325.685,138.225 307.25,138.225 
  "/>
<g clip-path="url(#clip1901)">
<text style="fill:#000000; fill-opacity:1; font-family:Arial,Helvetica Neue,Helvetica,sans-serif; font-size:60px; text-anchor:start;" transform="rotate(0, 290.119, 1685.9)" x="290.119" y="1685.9">0</text>
</g>
<g clip-path="url(#clip1901)">
<text style="fill:#000000; fill-opacity:1; font-family:Arial,Helvetica Neue,Helvetica,sans-serif; font-size:60px; text-anchor:start;" transform="rotate(0, 747.458, 1685.9)" x="747.458" y="1685.9">100</text>
</g>
<g clip-path="url(#clip1901)">
<text style="fill:#000000; fill-opacity:1; font-family:Arial,Helvetica Neue,Helvetica,sans-serif; font-size:60px; text-anchor:start;" transform="rotate(0, 1239.06, 1685.9)" x="1239.06" y="1685.9">200</text>
</g>
<g clip-path="url(#clip1901)">
<text style="fill:#000000; fill-opacity:1; font-family:Arial,Helvetica Neue,Helvetica,sans-serif; font-size:60px; text-anchor:start;" transform="rotate(0, 1730.66, 1685.9)" x="1730.66" y="1685.9">300</text>
</g>
<g clip-path="url(#clip1901)">
<text style="fill:#000000; fill-opacity:1; font-family:Arial,Helvetica Neue,Helvetica,sans-serif; font-size:60px; text-anchor:start;" transform="rotate(0, 2222.26, 1685.9)" x="2222.26" y="1685.9">400</text>
</g>
<polyline clip-path="url(#clip1901)" style="stroke:#000000; stroke-width:4.301; stroke-opacity:1; fill:none" points="
  307.25,1612.62 307.25,1612.62 307.25,1575.77 307.25,1612.62 405.57,1612.62 405.57,1594.19 405.57,1612.62 503.89,1612.62 503.89,1594.19 503.89,1612.62 
  602.21,1612.62 602.21,1594.19 602.21,1612.62 700.53,1612.62 700.53,1594.19 700.53,1612.62 798.85,1612.62 798.85,1575.77 798.85,1612.62 897.17,1612.62 
  897.17,1594.19 897.17,1612.62 995.49,1612.62 995.49,1594.19 995.49,1612.62 1093.81,1612.62 1093.81,1594.19 1093.81,1612.62 1192.13,1612.62 1192.13,1594.19 
  1192.13,1612.62 1290.45,1612.62 1290.45,1575.77 1290.45,1612.62 1388.77,1612.62 1388.77,1594.19 1388.77,1612.62 1487.09,1612.62 1487.09,1594.19 1487.09,1612.62 
  1585.41,1612.62 1585.41,1594.19 1585.41,1612.62 1683.73,1612.62 1683.73,1594.19 1683.73,1612.62 1782.05,1612.62 1782.05,1575.77 1782.05,1612.62 1880.37,1612.62 
  1880.37,1594.19 1880.37,1612.62 1978.69,1612.62 1978.69,1594.19 1978.69,1612.62 2077.01,1612.62 2077.01,1594.19 2077.01,1612.62 2175.33,1612.62 2175.33,1594.19 
  2175.33,1612.62 2273.65,1612.62 2273.65,1575.77 2273.65,1612.62 
  "/>
<polyline clip-path="url(#clip1901)" style="stroke:#000000; stroke-width:4.301; stroke-opacity:1; fill:none" points="
  2273.65,1612.62 2273.65,1612.62 2255.22,1612.62 2273.65,1612.62 2273.65,1551.19 2255.22,1551.19 2273.65,1551.19 2273.65,1489.76 2255.22,1489.76 2273.65,1489.76 
  2273.65,1428.32 2236.78,1428.32 2273.65,1428.32 2273.65,1366.89 2255.22,1366.89 2273.65,1366.89 2273.65,1305.46 2255.22,1305.46 2273.65,1305.46 2273.65,1244.02 
  2255.22,1244.02 2273.65,1244.02 2273.65,1182.59 2255.22,1182.59 2273.65,1182.59 2273.65,1121.16 2236.78,1121.16 2273.65,1121.16 2273.65,1059.72 2255.22,1059.72 
  2273.65,1059.72 2273.65,998.292 2255.22,998.292 2273.65,998.292 2273.65,936.858 2255.22,936.858 2273.65,936.858 2273.65,875.425 2255.22,875.425 2273.65,875.425 
  2273.65,813.992 2236.78,813.992 2273.65,813.992 2273.65,752.558 2255.22,752.558 2273.65,752.558 2273.65,691.125 2255.22,691.125 2273.65,691.125 2273.65,629.692 
  2255.22,629.692 2273.65,629.692 2273.65,568.258 2255.22,568.258 2273.65,568.258 2273.65,506.825 2236.78,506.825 2273.65,506.825 2273.65,445.392 2255.22,445.392 
  2273.65,445.392 2273.65,383.958 2255.22,383.958 2273.65,383.958 2273.65,322.525 2255.22,322.525 2273.65,322.525 2273.65,261.092 2255.22,261.092 2273.65,261.092 
  2273.65,199.658 2236.78,199.658 2273.65,199.658 2273.65,138.225 2255.22,138.225 2273.65,138.225 
  "/>
<polyline clip-path="url(#clip1901)" style="stroke:#000000; stroke-width:4.301; stroke-opacity:1; fill:none" points="
  307.25,138.225 307.25,138.225 307.25,175.085 307.25,138.225 405.57,138.225 405.57,156.655 405.57,138.225 503.89,138.225 503.89,156.655 503.89,138.225 
  602.21,138.225 602.21,156.655 602.21,138.225 700.53,138.225 700.53,156.655 700.53,138.225 798.85,138.225 798.85,175.085 798.85,138.225 897.17,138.225 
  897.17,156.655 897.17,138.225 995.49,138.225 995.49,156.655 995.49,138.225 1093.81,138.225 1093.81,156.655 1093.81,138.225 1192.13,138.225 1192.13,156.655 
  1192.13,138.225 1290.45,138.225 1290.45,175.085 1290.45,138.225 1388.77,138.225 1388.77,156.655 1388.77,138.225 1487.09,138.225 1487.09,156.655 1487.09,138.225 
  1585.41,138.225 1585.41,156.655 1585.41,138.225 1683.73,138.225 1683.73,156.655 1683.73,138.225 1782.05,138.225 1782.05,175.085 1782.05,138.225 1880.37,138.225 
  1880.37,156.655 1880.37,138.225 1978.69,138.225 1978.69,156.655 1978.69,138.225 2077.01,138.225 2077.01,156.655 2077.01,138.225 2175.33,138.225 2175.33,156.655 
  2175.33,138.225 2273.65,138.225 2273.65,175.085 2273.65,138.225 
  "/>
<polyline clip-path="url(#clip1900)" style="stroke:#00528a; stroke-width:4.301; stroke-opacity:1; fill:none" points="
  312.166,1121.16 317.082,1121.16 321.998,1121.16 326.914,1121.16 331.83,1121.17 336.746,1121.19 341.662,1121.22 346.578,1121.26 351.494,1121.3 356.41,1121.36 
  361.326,1121.42 366.242,1121.49 371.158,1121.57 376.074,1121.66 380.99,1121.76 385.906,1121.88 390.822,1122.01 395.738,1122.15 400.654,1122.31 405.57,1122.48 
  410.486,1122.66 415.402,1122.86 420.318,1123.06 425.234,1123.28 430.15,1123.51 435.066,1123.74 439.982,1123.97 444.898,1124.21 449.814,1124.45 454.73,1124.69 
  459.646,1124.93 464.562,1125.18 469.478,1125.43 474.394,1125.69 479.31,1125.96 484.226,1126.25 489.142,1126.57 494.058,1126.91 498.974,1127.29 503.89,1127.69 
  508.806,1128.14 513.722,1128.62 518.638,1129.15 523.554,1129.72 528.47,1130.34 533.386,1131.01 538.302,1131.72 543.218,1132.49 548.134,1133.29 553.05,1134.14 
  557.966,1135.02 562.882,1135.94 567.798,1136.87 572.714,1137.83 577.63,1138.79 582.546,1139.76 587.462,1140.72 592.378,1141.69 597.294,1142.65 602.21,1143.6 
  607.126,1144.57 612.042,1145.56 616.958,1146.57 621.874,1147.63 626.79,1148.74 631.706,1149.92 636.622,1151.18 641.538,1152.51 646.454,1153.94 651.37,1155.46 
  656.286,1157.07 661.202,1158.78 666.118,1160.59 671.034,1162.5 675.95,1164.51 680.866,1166.6 685.782,1168.78 690.698,1171.03 695.614,1173.34 700.53,1175.69 
  705.446,1178.07 710.362,1180.46 715.278,1182.85 720.194,1185.24 725.11,1187.6 730.026,1189.95 734.942,1192.29 739.858,1194.62 744.774,1196.95 749.69,1199.32 
  754.606,1201.73 759.522,1204.22 764.438,1206.81 769.354,1209.5 774.27,1212.33 779.186,1215.29 784.102,1218.39 789.018,1221.65 793.934,1225.05 798.85,1228.6 
  803.766,1232.29 808.682,1236.13 813.598,1240.1 818.514,1244.18 823.43,1248.36 828.346,1252.62 833.262,1256.92 838.178,1261.24 843.094,1265.55 848.01,1269.82 
  852.926,1274.04 857.842,1278.18 862.758,1282.25 867.674,1286.25 872.59,1290.19 877.506,1294.1 882.422,1298 887.338,1301.92 892.254,1305.89 897.17,1309.95 
  902.086,1314.12 907.002,1318.43 911.918,1322.89 916.834,1327.51 921.75,1332.3 926.666,1337.27 931.582,1342.4 936.498,1347.69 941.414,1353.13 946.33,1358.71 
  951.246,1364.39 956.162,1370.17 961.078,1376.01 965.994,1381.87 970.91,1387.69 975.826,1393.43 980.742,1399.03 985.658,1404.47 990.574,1409.71 995.49,1414.73 
  1000.41,1419.56 1005.32,1424.21 1010.24,1428.72 1015.15,1433.12 1020.07,1437.46 1024.99,1441.78 1029.9,1446.11 1034.82,1450.51 1039.73,1454.99 1044.65,1459.59 
  1049.57,1464.33 1054.48,1469.2 1059.4,1474.23 1064.31,1479.4 1069.23,1484.69 1074.15,1490.1 1079.06,1495.61 1083.98,1501.18 1088.89,1506.78 1093.81,1512.38 
  1098.73,1517.93 1103.64,1523.36 1108.56,1528.61 1113.47,1533.61 1118.39,1538.28 1123.31,1542.57 1128.22,1546.44 1133.14,1549.89 1138.05,1552.96 1142.97,1555.7 
  1147.89,1558.18 1152.8,1560.46 1157.72,1562.6 1162.63,1564.68 1167.55,1566.73 1172.47,1568.79 1177.38,1570.91 1182.3,1573.11 1187.21,1575.39 1192.13,1577.78 
  1197.05,1580.27 1201.96,1582.84 1206.88,1585.48 1211.79,1588.16 1216.71,1590.85 1221.63,1593.51 1226.54,1596.09 1231.46,1598.53 1236.37,1600.78 1241.29,1602.75 
  1246.21,1604.37 1251.12,1605.53 1256.04,1606.15 1260.95,1606.17 1265.87,1605.54 1270.79,1604.29 1275.7,1602.47 1280.62,1600.18 1285.53,1597.54 1290.45,1594.66 
  1295.37,1591.63 1300.28,1588.52 1305.2,1585.41 1310.11,1582.32 1315.03,1579.3 1319.95,1576.36 1324.86,1573.51 1329.78,1570.77 1334.69,1568.11 1339.61,1565.53 
  1344.53,1562.99 1349.44,1560.46 1354.36,1557.88 1359.27,1555.21 1364.19,1552.37 1369.11,1549.3 1374.02,1545.91 1378.94,1542.12 1383.85,1537.82 1388.77,1532.92 
  1393.69,1527.33 1398.6,1520.98 1403.52,1513.85 1408.43,1505.97 1413.35,1497.43 1418.27,1488.39 1423.18,1479.01 1428.1,1469.45 1433.01,1459.83 1437.93,1450.27 
  1442.85,1440.81 1447.76,1431.52 1452.68,1422.41 1457.59,1413.5 1462.51,1404.79 1467.43,1396.27 1472.34,1387.93 1477.26,1379.74 1482.17,1371.65 1487.09,1363.62 
  1492.01,1355.58 1496.92,1347.45 1501.84,1339.13 1506.75,1330.54 1511.67,1321.57 1516.59,1312.11 1521.5,1302.08 1526.42,1291.36 1531.33,1279.9 1536.25,1267.64 
  1541.17,1254.58 1546.08,1240.8 1551,1226.43 1555.91,1211.66 1560.83,1196.69 1565.75,1181.72 1570.66,1166.92 1575.58,1152.41 1580.49,1138.26 1585.41,1124.52 
  1590.33,1111.2 1595.24,1098.3 1600.16,1085.8 1605.07,1073.69 1609.99,1061.92 1614.91,1050.45 1619.82,1039.23 1624.74,1028.19 1629.65,1017.21 1634.57,1006.21 
  1639.49,995.043 1644.4,983.595 1649.32,971.735 1654.23,959.343 1659.15,946.319 1664.07,932.586 1668.98,918.102 1673.9,902.871 1678.81,886.95 1683.73,870.456 
  1688.65,853.563 1693.56,836.489 1698.48,819.468 1703.39,802.726 1708.31,786.445 1713.23,770.759 1718.14,755.745 1723.06,741.438 1727.97,727.837 1732.89,714.919 
  1737.81,702.648 1742.72,690.979 1747.64,679.855 1752.55,669.207 1757.47,658.953 1762.39,648.986 1767.3,639.182 1772.22,629.39 1777.13,619.445 1782.05,609.177 
  1786.97,598.425 1791.88,587.053 1796.8,574.967 1801.71,562.124 1806.63,548.539 1811.55,534.288 1816.46,519.501 1821.38,504.361 1826.29,489.088 1831.21,473.926 
  1836.13,459.121 1841.04,444.897 1845.96,431.435 1850.87,418.862 1855.79,407.249 1860.71,396.618 1865.62,386.95 1870.54,378.2 1875.45,370.305 1880.37,363.19 
  1885.29,356.77 1890.2,350.946 1895.12,345.603 1900.03,340.605 1904.95,335.787 1909.87,330.956 1914.78,325.902 1919.7,320.405 1924.61,314.267 1929.53,307.338 
  1934.45,299.538 1939.36,290.878 1944.28,281.453 1949.19,271.435 1954.11,261.051 1959.03,250.557 1963.94,240.223 1968.86,230.311 1973.77,221.062 1978.69,212.679 
  1983.61,205.321 1988.52,199.092 1993.44,194.042 1998.35,190.172 2003.27,187.443 2008.19,185.785 2013.1,185.106 2018.02,185.298 2022.93,186.245 2027.85,187.812 
  2032.77,189.852 2037.68,192.192 2042.6,194.629 2047.51,196.933 2052.43,198.846 2057.35,200.109 2062.26,200.49 2067.18,199.828 2072.09,198.069 2077.01,195.291 
  2081.93,191.695 2086.84,187.57 2091.76,183.253 2096.67,179.084 2101.59,175.375 
  "/>
</svg>
